<svg xmlns="http://www.w3.org/2000/svg" xmlns:xlink="http://www.w3.org/1999/xlink" width="420" height="205.38" viewBox="0 0 420 205.38">
  <defs>
    <clipPath id="clip-path">
      <rect id="Rectangle_406774" data-name="Rectangle 406774" width="420" height="205.38" transform="translate(180.746 12777)" fill="#fcf7d4"/>
    </clipPath>
    <clipPath id="clip-path-2">
      <rect id="Rectangle_406773" data-name="Rectangle 406773" width="742.227" height="361.656" fill="none"/>
    </clipPath>
    <clipPath id="clip-path-3">
      <rect id="Rectangle_406759" data-name="Rectangle 406759" width="543.837" height="184.979" fill="none"/>
    </clipPath>
    <clipPath id="clip-path-4">
      <rect id="Rectangle_406757" data-name="Rectangle 406757" width="214.382" height="203.488" fill="none"/>
    </clipPath>
    <clipPath id="clip-path-5">
      <path id="Path_904651" data-name="Path 904651" d="M74.388,354.349A101.744,101.744,0,1,0,176.464,252.938,101.744,101.744,0,0,0,74.388,354.349" transform="translate(-74.387 -252.938)" fill="none"/>
    </clipPath>
    <clipPath id="clip-path-6">
      <rect id="Rectangle_406758" data-name="Rectangle 406758" width="214.383" height="203.488" fill="none"/>
    </clipPath>
    <clipPath id="clip-path-7">
      <path id="Path_904655" data-name="Path 904655" d="M1456.213,101.411A101.744,101.744,0,1,0,1558.289,0a101.744,101.744,0,0,0-102.076,101.411" transform="translate(-1456.212 0)" fill="none"/>
    </clipPath>
    <clipPath id="clip-path-8">
      <rect id="Rectangle_406772" data-name="Rectangle 406772" width="742.225" height="361.656" fill="none"/>
    </clipPath>
    <clipPath id="clip-path-9">
      <rect id="Rectangle_406760" data-name="Rectangle 406760" width="138.529" height="13.841" fill="none"/>
    </clipPath>
    <clipPath id="clip-path-10">
      <rect id="Rectangle_406761" data-name="Rectangle 406761" width="84.429" height="102.857" fill="none"/>
    </clipPath>
    <clipPath id="clip-path-11">
      <rect id="Rectangle_406762" data-name="Rectangle 406762" width="74.224" height="73.846" fill="none"/>
    </clipPath>
    <clipPath id="clip-path-12">
      <rect id="Rectangle_406763" data-name="Rectangle 406763" width="45.083" height="101.114" fill="none"/>
    </clipPath>
    <clipPath id="clip-path-13">
      <rect id="Rectangle_406764" data-name="Rectangle 406764" width="26.119" height="60.957" fill="none"/>
    </clipPath>
    <clipPath id="clip-path-14">
      <rect id="Rectangle_406765" data-name="Rectangle 406765" width="10.24" height="10.256" fill="none"/>
    </clipPath>
    <clipPath id="clip-path-15">
      <rect id="Rectangle_406766" data-name="Rectangle 406766" width="179.583" height="36.015" fill="none"/>
    </clipPath>
    <clipPath id="clip-path-16">
      <rect id="Rectangle_406767" data-name="Rectangle 406767" width="126.738" height="126.092" fill="none"/>
    </clipPath>
    <clipPath id="clip-path-17">
      <rect id="Rectangle_406768" data-name="Rectangle 406768" width="109.944" height="90.256" fill="none"/>
    </clipPath>
    <clipPath id="clip-path-18">
      <rect id="Rectangle_406769" data-name="Rectangle 406769" width="48.677" height="141.221" fill="none"/>
    </clipPath>
    <clipPath id="clip-path-19">
      <rect id="Rectangle_406770" data-name="Rectangle 406770" width="47.347" height="73.631" fill="none"/>
    </clipPath>
    <clipPath id="clip-path-20">
      <rect id="Rectangle_406771" data-name="Rectangle 406771" width="15.277" height="12.008" fill="none"/>
    </clipPath>
    <clipPath id="clip-path-21">
      <rect id="Rectangle_406777" data-name="Rectangle 406777" width="305.255" height="402.629" fill="none"/>
    </clipPath>
    <clipPath id="clip-path-22">
      <rect id="Rectangle_406776" data-name="Rectangle 406776" width="305.255" height="402.63" fill="none"/>
    </clipPath>
    <clipPath id="clip-path-23">
      <rect id="Rectangle_406775" data-name="Rectangle 406775" width="87.819" height="92.732" fill="none"/>
    </clipPath>
  </defs>
  <g id="Group_1113754" data-name="Group 1113754" transform="translate(-180.746 -12777)">
    <rect id="Rectangle_406526" data-name="Rectangle 406526" width="420" height="205.38" transform="translate(180.746 12777)" fill="#2c75cb"/>
    <g id="Mask_Group_1098750" data-name="Mask Group 1098750" clip-path="url(#clip-path)">
      <g id="Group_1113746" data-name="Group 1113746" transform="translate(102.396 12683.952)">
        <g id="Group_1113745" data-name="Group 1113745" clip-path="url(#clip-path-2)">
          <g id="Group_1113706" data-name="Group 1113706" transform="translate(78.584 86.941)">
            <g id="Group_1113705" data-name="Group 1113705" clip-path="url(#clip-path-3)">
              <path id="Path_904645" data-name="Path 904645" d="M74.388,354.35A101.744,101.744,0,1,0,176.465,252.939,101.744,101.744,0,0,0,74.388,354.35" transform="translate(-125.451 -246.303)" fill="#9db4fb"/>
              <g id="Group_1113699" data-name="Group 1113699" transform="translate(-61.958 6.636)" opacity="0.9">
                <g id="Group_1113698" data-name="Group 1113698" transform="translate(0)">
                  <g id="Group_1113697" data-name="Group 1113697" clip-path="url(#clip-path-4)">
                    <g id="Group_1113696" data-name="Group 1113696" transform="translate(10.894 0)">
                      <g id="Group_1113695" data-name="Group 1113695" clip-path="url(#clip-path-5)">
                        <path id="Path_904646" data-name="Path 904646" d="M431.167,287.617a1.841,1.841,0,0,0,1.485,1.923c.747.109,4.05.441,3.619,1.292s-2.772.525-3.205,2.547-3,3.616-4.059,2.439a3.964,3.964,0,0,1-1.052-3.908c.43-1.317.117-3.663-1.377-2.816s-3.953,2.334-3.837-.437,2.888-2.763,2.469-5.217,1.711-1.593,1.079-3.514-2.449-1.5-.313-2.666,1.533-1.488,3.6-2.014,3.66.118,3.977,1.079-1.5.955-1.074,2.235,2.661,1.4,1.7,2.245-2.98-1.076-4.054,1.478,1.373,3.31,1.048,5.335" transform="translate(-293.863 -266.874)" fill="#8ba9f8"/>
                        <path id="Path_904647" data-name="Path 904647" d="M368.4,265.825c1.642,1.612.624,2.538.481,3.046s2.694,1.908,1.7,2.2-4.109-3.424-6.245-2.643-3.408-.5-3.7,2.627,2.261,3.844,1.4,5.547-3.176,1.411-1.455,3.263a6.559,6.559,0,0,1,2,3.134c.705,1.565,1.844.717,1.837,2.706s-.007,2.132-.014,4.407.847,2.134-1.006,3.549-2.29,4.825-4.135,4.109-2.97-4.7-2.819-6.975-2.162-1.71-3.345-4.132-3.028-2.9-6.86-4.877-5.963-1.988-5.247-3.69,2.989-1.269,1.432-3.264-1.684-2.872-1.538-6.058-.347-3.471-.023-5.175,2.449.434,3.308-1.269,1.428-2.127,4.549-.7,4.538,3.426,6.105,1.584,3.134-1.412,5.4.16,1.842,1.853,3.975,1.718,3.384-.072,4.2.724" transform="translate(-242.207 -257.876)" fill="#8ba9f8"/>
                        <path id="Path_904648" data-name="Path 904648" d="M372.267,397.133c-.754,2.129,2.007,5.762,4.025,7.9s1.481,3.523,1.257,6.719a10.278,10.278,0,0,0,2.533,7.47c1.593,2.031,5.539,1.724,7.211,2.8s.016,4.157,1.5,5.867.633,2.027,2.225,4.592,5.758-.836,6.075.02-1.924,1.485-2.783,3.826,3.084,1.929,4.679,3,.528,1.6-.114,2.665.841,3.413-.442,4.689-1.6,1.166-1.5,4.047-5.979,2.964-5.981,3.6,3.4,2.144,4.8.016,3.526-1.907,5.341-3.179a10.427,10.427,0,0,0,4.067-4.89c1.075-2.449-.1-1.492,1.606-2.34s-.211-.747.009-2.56,2.667-.523,2.682-4.895,3.749-5.957,3.978-10.327,1.84-8.522,3.134-13.528,6.941-2.749,7.269-6.053,6.1-8.294,6.964-10.85-.737-2.56.665-7.247-3.183-4.7-2.749-6.831.223-3.2.657-5.436,1.714-2.339,3.061-1.589,2.376,1.4,5.051-1.8,1.4-5.006,2.581-6.6,5.23-2.329,5.372-3.713,1.573-1.381,2.319-1.166,6.195-3.712,6.841-5.841-1.153-6.293.245-9.593.255-12.472,1.423-11.4.274,14.285,1.34,14.182,1.206-10.444.056-17.164-2-9.173-4.117-12.911-2.326-5.551-4.019-9.715-12.809-20.382-16.792-26.349c-1.643-2.462-8.789-6.567-10.918-8s-3.983,1.053-4.483,1.9,1.06,1.708,1.055,3.059-1.849.419-2.058-.789-1.414-1.922-2.405-3.063-.7-2.064-1.979-3.489-4.328-1.933-5.677-2.72-2.2.136-1.211.92.915,2.705,2.191,4.059,1.844,1.073,2.9,2.852,3.477,1.22,3.972,2.216-.431.994-2.062.135-2.055-1.5-4.043-2.571-3.257-3.352-3.683-3.566-1.849.562-.929,1.489a28.664,28.664,0,0,0,3.826,3.567c1.913,1.428-.5,1.562-2.067,1.556s-4.4-1.79-3.979-.51,2.621,2.568,4.749,3.923,3.34.224,4.474,1.225.636,1.423,1.627,2.136,2.7.151,3.537.226.226.995,1,1.78,4.116,2.215,5.816,3.642,1.549,4.413.268,4.977-.437,2.984-2.286,3.4-2.207,1.2-1.428,2.41a2.806,2.806,0,0,1-.8,3.978c-1.494.777-2.694-2.14-2.63-4.7s-1.969-1.712-3.67-3-.986-2.491-1.62-4.055-2.543-5.126-3.393-5.7-2.849,1.553-3.42,2.4a1.984,1.984,0,0,0-.432,2.132,2.013,2.013,0,0,1-1,2.269c-.713.424-3.263-1.929-3.759-2.073s-.946,6.535-1.448,7.672-3.208,3.4-2.219,5.038,5.037,2.575,7.025,2.865,2.632-.489,4.051.013,4.828,1.58,4.328,2.43-3.833-1.363-4.76-.583.491,1.921,1.126,3.7-3.917,2.474-3.421,3.186,2.27.93,3.833,1.434,1-.423,1.422-.778,1.354-1.2,3.553.084,3.4,3.35,4.82,4.208,1.13,2.065,2.975,3.138a6.123,6.123,0,0,1,3.042,3.99c.634,1.849.418,2.489,3.4,4.558s-.369,4.407.977,5.547,2.4,5.765,4.174,5.841,1.927-2.481,2.072-3.546.578-2.2,2.853-3.047,2.626.649,4.047,1.008,1.215-1.916,2.919-1.838,3.758,2.854,3.611,4.346.987,2.491,1.616,5.833-1.2,7.495-2.049,7.492-1.912-2.459-2.548-3.526-3.3-.543-4.051.2.3,4.9.831,7.039-2.779,1.8-3.847,2.333-1.074,2.875-.553,6.287-3.42,2.761-5.126,2.755-3.417,2.122-3.836.2a3.2,3.2,0,0,0-3.3-2.461c-1.174,0-1.076,2.66-1.5,2.659s-.529-1.067-.952-1.815-1.064-.538-2.556-.542-3.1,1.376-4.484,1.585-1.489-.538-2.77-.328-1.286,2.021-3.1,3.4-2.457,1.378-3.956,3.826-3.1.736-6.831,2.11-2.792,6.279-3.54,7.449-2.558-.861-5.012.2-2.886,2.23-6.194,3.285-4.266.626-5.657,2.326-4.16.841-4.913,2.97m60.427-81.957c-.57.779-2.414-1-3.836-.794s-1.781,1.06-1.639,1.7,2.334,2.779,2.4,4.058-3.117-3.28-3.619-2,.775,1.778-.008,2.486,1.555,2.067,1.483,3.062-8.663-2.516-7.946-4.149,4.329,1.577,4.833-.339-1.7-2.423-.555-3.981,2.282-2.693,2.782-3.616.215-.851,2.274.008c2.475,1.033,4.4,2.787,3.827,3.566" transform="translate(-261.984 -263.161)" fill="#8ba9f8"/>
                        <path id="Path_904649" data-name="Path 904649" d="M52.227,371.333c-.825-8.1,4.806-34.95,8.856-34.936s6.624-4.883,8.326-3.386S65.55,339.4,63.917,339.6s-2.849,1.7-2.862,5.534,3.808,9.18,4.868,10.889,2.122,2.778,3.626-.2,3.221-7.239,4.3-10.006,7.068-10.212,7.066-9.357-4.72,9.151-6.225,13.2-3.657,10.008-6.013,13.148-3.617-1.879-4.831-.016,2.241,9.653,6.914,14.786,5.49,16.221,6.12,19.634,4.671,5.772,6.368,8.336,1.686,6.4,4.445,10.247,8.284,8.769,14.037,10.705,4.9.016,3.845-2.545.23-5.329.458-9.806-.627-3.841.875-7.033-3.377-10.031-3.15-14.721,1.721-4.9,3.009-7.026-2.754-5.553-.61-9.17,3.412-.414,4.8-2.756,9.277.883,13.114,1.536,6.612-.831,11.953-4.437,4.936-9.792,3.029-13.586,1.72-3.882,1.94-6.439-7.858-9.194-8.06-13.033-3.6-5.768-3.814-7.261-2.129-.86-3.41-.651-3.408-.864-4.681-2.36-10.654-1.956-11.934-1.96-.432,2.132-1.09,4.261-2.344,2.551-5.329,3.181a8.688,8.688,0,0,0-5.018,2.436c-1.177,1.061-.634-1.71-1.482-3.63s-2.665.1-5.012.516-7.038.936-8.634-.028-1.792-5.867-.719-7.892,3.622.545,5.328.658,5.45-3.926,5.455-5.419-2.128-1.179-4.041-3.319-4.052.628-5.863.515-1.808-1.924.01-2.984,1.5-3.727,2.575-4.79,1.7.859,1.805,2.032,2.346-.1,2.775-1.271,2.343.968,2.227,3.739-.013,3.944,2.144,4.91,1.246,1.6.282,2.666.73,5.226.842,3.734,1.176-1.383,3.528-3.4.758-3.3,3.209-4.788,5.778-4.99,7.271-4.56,0,1.279-1.184,3.3-5.02,2.649-5.879,4.671.95,2.775,2.5.541,3.265-2.762,7.323-5.092,2.666-.418,5.651-.3,1.477,4.8,3.18,5.554,1.164,2.348,2.116,4.591,6.069,2.259,8.632,1.2.97-3.3.442-5.117,1.823-3.406,1.3-4.792-6.184.192-7.566-.879.543-3.41,2.255-5,1.5-2.02.753-2.13-2.449-1.181-1.057-2.752,2.672-2.04,3.422-3.53-.208-1.387-.1-2.986,3.841-1.16,3.845-2.333-.841-4.053-1.692-3.961-2.354,2.348-3.318,4.051-1.5,1.914-2.89,3.508-1.286,2.021-1.395,2.875-.226,3.622-1.711,1.7-1.7-1.5-2.225-4.166-1.811-.432-2.183-.966.862-2.29,1.024-3.2a2.207,2.207,0,0,0-.809-2.242c-.71-.571-1.287,2.129-2.574,4.114s-2.842.133-4.117-1.293-3.553-.579-4.97-1.5.149-2.07.725-4.485a2.214,2.214,0,0,0-.89-2.342c-.637-.3-.4-.3,0,0,.125.059.272.126.471.209,2.414,1,4.125-.7,6.129-5.1s2.29-4.967,3.562-2.831-.859,1.989-.863,3.126-2,2.551-3.143,4.963-.859,1.844-.44,4.547,1.555,1.995,2.876,1.289,2.39-3.973,3.249-5.25.992.715,1.414,2.137,1.845.577,5.121-1.546,1.718-3.548.017-5.258-1.25-8.534-1.1-9.811-2.55-2.994-3.826-3.567-3.27.132-4.27,1.692-2.7,1.128-5.545.74-1.853,1.8-2.206,2.789,2.055-.276,2.052.717,0,0-1.426,1.274-2.708,2.265-4.573,1.834,1.728-1.133,1.875-2.7,1.711-2.126,1.717-3.927-2.71,3.355-3.405,2.216.988-1.418.71-3.125-1.418-1.142.011-3.554,5.123-1.831,5.55-4.246-.422.71-1.7-.006c-.639-.357-.175-.994.681-1.791s2.1-1.751,3.029-2.744c0,0-44.517,9.377-61.555,41.3s.689,77.18-.138,69.078m16.586-51.756c.647-2.13,3.63-1.453,4.5-5.833s6.749-10.613,6.419-7.348c-.213,2.121-.447,5.97-2.583,7.455s-1.293,3.832-3.217,5.744-5.765,2.115-5.117-.017" transform="translate(-55.835 -257.988)" fill="#8ba9f8"/>
                        <path id="Path_904650" data-name="Path 904650" d="M110.589,623.817c2.127,1.712,5,2.469,5.42,5.242s2.322,6.509,3.595,8.965,2.013,3.631,1.37,4.588-5.634-4.709-7.217-9.405-5.295-11.1-3.168-9.39" transform="translate(-96.792 -486.429)" fill="#8ba9f8"/>
                      </g>
                    </g>
                  </g>
                </g>
              </g>
              <path id="Path_904652" data-name="Path 904652" d="M1456.213,101.412A101.744,101.744,0,1,0,1558.29,0a101.744,101.744,0,0,0-102.077,101.411" transform="translate(-996.06 -86.941)" fill="#9db4fb"/>
              <g id="Group_1113704" data-name="Group 1113704" transform="translate(449.26 -86.941)" opacity="0.9">
                <g id="Group_1113703" data-name="Group 1113703">
                  <g id="Group_1113702" data-name="Group 1113702" clip-path="url(#clip-path-6)">
                    <g id="Group_1113701" data-name="Group 1113701" transform="translate(10.892 0)">
                      <g id="Group_1113700" data-name="Group 1113700" clip-path="url(#clip-path-7)">
                        <path id="Path_904653" data-name="Path 904653" d="M1434.052,118.4c-.825-8.1,4.806-34.949,8.856-34.936s6.625-4.883,8.326-3.386-3.86,6.385-5.493,6.592-2.849,1.7-2.862,5.534,3.808,9.18,4.868,10.889,2.122,2.778,3.626-.2,3.221-7.239,4.3-10.006,7.068-10.212,7.066-9.357-4.72,9.151-6.225,13.2-3.657,10.008-6.013,13.148-3.617-1.879-4.831-.016,2.241,9.653,6.914,14.786,5.49,16.221,6.12,19.634,4.672,5.772,6.368,8.336,1.686,6.4,4.445,10.247,8.284,8.769,14.037,10.705,4.9.016,3.845-2.545.231-5.329.458-9.806-.627-3.841.875-7.033-3.377-10.031-3.15-14.721,1.721-4.9,3.009-7.026-2.754-5.553-.61-9.17,3.412-.414,4.8-2.756,9.277.883,13.114,1.536,6.612-.831,11.953-4.437,4.936-9.792,3.029-13.586,1.72-3.882,1.94-6.439-7.857-9.194-8.06-13.033-3.6-5.768-3.813-7.26-2.129-.86-3.41-.651-3.407-.864-4.681-2.36-10.654-1.956-11.934-1.96-.432,2.132-1.09,4.261-2.344,2.551-5.33,3.181a8.69,8.69,0,0,0-5.019,2.436c-1.177,1.061-.634-1.71-1.482-3.63s-2.665.1-5.012.516-7.038.936-8.634-.028-1.792-5.868-.719-7.892,3.622.545,5.327.659,5.45-3.927,5.455-5.419-2.128-1.179-4.041-3.319-4.052.628-5.864.515-1.807-1.925.01-2.984,1.5-3.727,2.574-4.79,1.7.859,1.8,2.032,2.346-.1,2.776-1.271,2.343.968,2.227,3.739-.013,3.944,2.144,4.91,1.246,1.6.282,2.666.73,5.226.842,3.734,1.176-1.383,3.528-3.4.758-3.3,3.209-4.788,5.778-4.99,7.271-4.56,0,1.279-1.184,3.3-5.021,2.649-5.88,4.671.95,2.775,2.5.541,3.265-2.762,7.323-5.092,2.666-.418,5.651-.3,1.477,4.8,3.18,5.554,1.163,2.348,2.116,4.591,6.069,2.259,8.632,1.2.97-3.3.442-5.117,1.823-3.405,1.3-4.792-6.184.192-7.566-.879.543-3.41,2.255-5,1.5-2.02.752-2.13-2.449-1.181-1.057-2.752,2.672-2.04,3.423-3.53-.208-1.387-.1-2.986,3.841-1.16,3.845-2.333-.841-4.053-1.692-3.96-2.354,2.348-3.318,4.051-1.5,1.914-2.89,3.508-1.286,2.021-1.395,2.875-.226,3.622-1.711,1.7-1.7-1.5-2.225-4.166-1.811-.433-2.183-.966.862-2.29,1.024-3.2a2.207,2.207,0,0,0-.809-2.242c-.71-.571-1.287,2.129-2.573,4.114s-2.843.133-4.117-1.293-3.553-.579-4.969-1.5.149-2.07.725-4.484a2.214,2.214,0,0,0-.89-2.343c-.637-.3-.4-.3,0,0,.125.059.272.126.471.209,2.414,1,4.125-.7,6.129-5.1s2.29-4.967,3.562-2.831-.86,1.988-.864,3.126-2,2.55-3.143,4.963-.859,1.844-.44,4.547,1.555,1.995,2.876,1.289,2.39-3.973,3.249-5.25.992.714,1.413,2.137,1.845.576,5.121-1.546,1.719-3.548.017-5.258-1.25-8.534-1.1-9.811-2.55-2.994-3.826-3.567-3.271.132-4.27,1.692-2.7,1.128-5.545.74-1.854,1.8-2.206,2.789,2.055-.276,2.052.717,0,0-1.426,1.275-2.708,2.265-4.573,1.833,1.729-1.133,1.875-2.7,1.712-2.126,1.718-3.927-2.71,3.355-3.406,2.216.988-1.418.71-3.125-1.418-1.142.011-3.554,5.123-1.831,5.55-4.246-.422.71-1.7-.006c-.639-.357-.175-.994.681-1.791s2.1-1.751,3.029-2.744c0,0-44.517,9.377-61.555,41.3s.689,77.18-.138,69.078m16.586-51.756c.647-2.13,3.63-1.453,4.5-5.833s6.75-10.613,6.419-7.348c-.213,2.121-.447,5.97-2.583,7.455s-1.292,3.832-3.217,5.744-5.765,2.115-5.117-.017" transform="translate(-1437.66 -5.05)" fill="#8ba9f8"/>
                        <path id="Path_904654" data-name="Path 904654" d="M1492.414,370.878c2.127,1.713,5,2.469,5.42,5.242s2.322,6.509,3.595,8.965,2.013,3.631,1.37,4.589-5.634-4.71-7.218-9.405-5.295-11.1-3.168-9.39" transform="translate(-1478.617 -233.49)" fill="#8ba9f8"/>
                      </g>
                    </g>
                  </g>
                </g>
              </g>
            </g>
          </g>
          <g id="Group_1113744" data-name="Group 1113744">
            <g id="Group_1113743" data-name="Group 1113743" clip-path="url(#clip-path-8)">
              <path id="Path_904656" data-name="Path 904656" d="M737.662,717.686v-7.929a19.849,19.849,0,0,0-23.994-19.419c-11.4,2.443-24.8,2.179-36.724-4.447a19.681,19.681,0,0,0-17.924-.5c-8.579,4.037-22.011,7.6-35.577.8a20.142,20.142,0,0,0-17.015-.549c-24.8,10.668-40.646,5.624-49.911-1.131a20,20,0,0,0-23.336-.3c-9.557,6.726-23.845,11.953-40.21,2.063a19.693,19.693,0,0,0-18.126-1.137c-8.725,3.852-22.3,7.245-35.425.789a19.953,19.953,0,0,0-16.684-.289c-24.8,10.672-40.652,5.627-49.918-1.129a20,20,0,0,0-23.336-.3c-9.5,6.685-23.673,11.89-39.914,2.24a20,20,0,0,0-18.634-.908c-8.59,3.974-21.857,7.368-35.254.646a20.142,20.142,0,0,0-17.015-.549c-24.8,10.668-40.646,5.624-49.911-1.131a20.075,20.075,0,0,0-23.411-.249l-.331.23a19.9,19.9,0,0,0-8.628,16.375v16.826a19.857,19.857,0,0,0,19.857,19.857H717.8a19.857,19.857,0,0,0,19.857-19.857" transform="translate(-98.528 -428.805)" fill="#ccdcfd"/>
              <g id="Group_1113709" data-name="Group 1113709" transform="translate(360.999 229.821)" opacity="0.3">
                <g id="Group_1113708" data-name="Group 1113708">
                  <g id="Group_1113707" data-name="Group 1113707" clip-path="url(#clip-path-9)">
                    <path id="Path_904657" data-name="Path 904657" d="M1114.313,628.128c0,3.823-31.009,6.92-69.263,6.92s-69.266-3.1-69.266-6.92,31.01-6.92,69.266-6.92,69.263,3.1,69.263,6.92" transform="translate(-975.784 -621.208)" fill="#a5d4f6"/>
                  </g>
                </g>
              </g>
              <path id="Path_904658" data-name="Path 904658" d="M1051.165,624.785c0,3.819-26.315,6.92-58.776,6.92s-58.774-3.1-58.774-6.92,26.316-6.92,58.774-6.92,58.776,3.1,58.776,6.92" transform="translate(-588.217 -389.281)" fill="#ccdcfd"/>
              <path id="Path_904659" data-name="Path 904659" d="M922.567,658.732c0,1.912-9.554,3.46-21.337,3.46s-21.337-1.548-21.337-3.46,9.554-3.455,21.337-3.455,21.337,1.548,21.337,3.455" transform="translate(-554.37 -412.852)" fill="#ccdcfd"/>
              <path id="Path_904660" data-name="Path 904660" d="M894.178,614.4c0,1.126-5.625,2.038-12.562,2.038s-12.563-.912-12.563-2.038,5.623-2.037,12.563-2.037,12.562.914,12.562,2.037" transform="translate(-547.541 -385.813)" fill="#ccdcfd"/>
              <path id="Path_904661" data-name="Path 904661" d="M1046.459,309.481c-2.891-7.565,11.191-12.137,5.894-17.432s-12.957,9.385-5.894,17.432" transform="translate(-657.521 -183.295)" fill="#ccdcfd"/>
              <path id="Path_904662" data-name="Path 904662" d="M1015.991,291c-1.771-4.645,6.873-7.451,3.622-10.7s-7.953,5.762-3.622,10.7" transform="translate(-639.018 -176.165)" fill="#ccdcfd"/>
              <path id="Path_904663" data-name="Path 904663" d="M919.918,323.509c-3.8-3.987-10.724,3.315-12.422-1.482s9.551-5.205,12.422,1.482" transform="translate(-571.652 -200.638)" fill="#ccdcfd"/>
              <path id="Path_904664" data-name="Path 904664" d="M968.074,398.995c-5.5.171-4.684,10.2-9.39,8.266s2.491-10.585,9.39-8.266" transform="translate(-603.061 -251.137)" fill="#ccdcfd"/>
              <path id="Path_904665" data-name="Path 904665" d="M908.761,342.33c-5.858.524-11.273,2.264-15.379,6.97-3.381,3.875-7.22,13-.5,16.046s10.4-7.57,12.772-12.587c4.078-8.633,16.262-3.946,16.4-5.429.274-3.061-7.259-5.542-13.29-5" transform="translate(-560.223 -215.635)" fill="#ccdcfd"/>
              <path id="Path_904666" data-name="Path 904666" d="M922.508,433.965a2.609,2.609,0,1,1-2.608-2.608,2.61,2.61,0,0,1,2.608,2.608" transform="translate(-577.932 -271.773)" fill="#ccdcfd"/>
              <path id="Path_904667" data-name="Path 904667" d="M980.571,497.333a3.878,3.878,0,1,1-3.878-3.877,3.876,3.876,0,0,1,3.878,3.877" transform="translate(-612.915 -310.898)" fill="#ccdcfd"/>
              <path id="Path_904668" data-name="Path 904668" d="M1274.632,409.072a2.521,2.521,0,1,1-2.522-2.525,2.521,2.521,0,0,1,2.522,2.525" transform="translate(-799.896 -256.142)" fill="#ccdcfd"/>
              <path id="Path_904669" data-name="Path 904669" d="M881.862,296.321a1.859,1.859,0,1,1-1.861-1.86,1.86,1.86,0,0,1,1.861,1.86" transform="translate(-553.268 -185.523)" fill="#ccdcfd"/>
              <path id="Path_904670" data-name="Path 904670" d="M1112.533,297.566a4.08,4.08,0,1,1-4.082-4.08,4.08,4.08,0,0,1,4.082,4.08" transform="translate(-695.802 -184.909)" fill="#ccdcfd"/>
              <path id="Path_904671" data-name="Path 904671" d="M1247.979,557.266a4.08,4.08,0,1,1-4.081-4.08,4.079,4.079,0,0,1,4.081,4.08" transform="translate(-781.139 -348.531)" fill="#ccdcfd"/>
              <path id="Path_904672" data-name="Path 904672" d="M1377.649,453.427a2.039,2.039,0,1,1-2.039-2.042,2.04,2.04,0,0,1,2.039,2.042" transform="translate(-865.408 -284.392)" fill="#ccdcfd"/>
              <path id="Path_904673" data-name="Path 904673" d="M929.5,582.11a2.7,2.7,0,1,1-2.7-2.7,2.7,2.7,0,0,1,2.7,2.7" transform="translate(-582.219 -365.051)" fill="#ccdcfd"/>
              <path id="Path_904674" data-name="Path 904674" d="M1040.334,344.567c-24.165,2.6-43.509,7.013-43.2,9.841l27.533,98.469a5.329,5.329,0,0,0,5.7,3.862l21.814-2.353L1074,452.031a5.327,5.327,0,0,0,4.749-4.987l5.9-102.076c-.3-2.829-20.139-3.007-44.305-.4" transform="translate(-628.234 -215.93)" fill="#fff"/>
              <path id="Path_904675" data-name="Path 904675" d="M995.164,331.451a33.566,33.566,0,0,1-5.927-6.251c-12.444-17.827-23.756-27.807-31.71-14.692-3.187,6.629,16.09,2.619,16.09,19.54,6.972,2.565,13.872,1.037,21.547,1.4" transform="translate(-603.059 -191.855)" fill="#ccdcfd"/>
              <path id="Path_904676" data-name="Path 904676" d="M990.586,334.7c-9.692,3.124-15.023-5.878-21.035-11.694-2.327-2.328-4.653-1.552-7.757-3.1-3.1-.774-3.487-1.935-3.3-3.1-.328.451-.653.924-.969,1.446-3.187,6.629,16.09,2.619,16.09,19.54,6.972,2.565,13.872,1.037,21.547,1.4a38.859,38.859,0,0,1-4.578-4.5" transform="translate(-603.059 -199.603)" fill="#ccdcfd"/>
              <path id="Path_904677" data-name="Path 904677" d="M1073.267,383.576c-9.71,4.444-24.85-8.149-30.843-.708-3.279,3.561-11.411.263-18.559-5.841-7.674-.368-15.269,1.439-22.241-1.121.058.211.127.415.184.639,9.368,36.144,27.886,93.938,27.886,93.938a4.827,4.827,0,0,0,5.169,3.5l19.779-2.134,19.781-2.134a4.825,4.825,0,0,0,4.3-4.522l5-86.6c-3.409,1.1-6.755,3.019-10.462,4.984" transform="translate(-631.066 -236.836)" fill="#ccdcfd"/>
              <path id="Path_904678" data-name="Path 904678" d="M1059.62,395.925c-14.217-1.423-27.117-6.771-35.149-18.4-.2-.169-.405-.328-.607-.5-7.674-.368-15.269,1.439-22.242-1.121.059.211.127.415.185.639,9.368,36.144,27.885,93.938,27.885,93.938a4.827,4.827,0,0,0,5.169,3.5l19.779-2.134,19.781-2.134a4.825,4.825,0,0,0,4.3-4.522l3.095-53.568a46.417,46.417,0,0,1-8.235-1.736c-7.759,0-7.759-13.964-13.965-13.964" transform="translate(-631.065 -236.836)" fill="#ccdcfd"/>
              <path id="Path_904679" data-name="Path 904679" d="M1011.164,411.291c9.83,35.575,24.541,81.485,24.541,81.485a4.827,4.827,0,0,0,5.169,3.5l19.779-2.134,19.781-2.135a4.825,4.825,0,0,0,4.3-4.522l2.829-48.921c-16.674.081-30.943-7.262-45.207-17.244-7.426-6.186-21.758-3.5-31.194-10.032" transform="translate(-637.077 -259.131)" fill="#ccdcfd"/>
              <path id="Path_904680" data-name="Path 904680" d="M1084.639,344.967c.307,2.828-19.036,7.233-43.2,9.842s-44,2.428-44.3-.4,19.036-7.236,43.2-9.84,44-2.428,44.305.4" transform="translate(-628.234 -215.93)" fill="#fff"/>
              <path id="Path_904681" data-name="Path 904681" d="M1069.881,347.083c-9.79,1.054-18.93,2.341-26.036,3.652a52.3,52.3,0,0,0,5.927,6.251c6.423-.316,12.972-.909,20.985-1.772,23.328-2.519,42.044-6.38,41.8-8.624s-19.348-2.023-42.673.493" transform="translate(-657.667 -217.391)" fill="#fff"/>
              <path id="Path_904682" data-name="Path 904682" d="M1112.554,346.59c-.241-2.243-19.348-2.023-42.673.493-9.79,1.054-18.93,2.341-26.036,3.652.685.837,1.3,1.56,1.887,2.213,2.28-.232,35.062-4.656,45.882-.527,12.657-2.073,21.1-4.319,20.94-5.832" transform="translate(-657.667 -217.391)" fill="#fff"/>
              <g id="Group_1113712" data-name="Group 1113712" transform="translate(368.894 137.983)" opacity="0.2" style="mix-blend-mode: multiply;isolation: isolate">
                <g id="Group_1113711" data-name="Group 1113711">
                  <g id="Group_1113710" data-name="Group 1113710" clip-path="url(#clip-path-10)">
                    <path id="Path_904683" data-name="Path 904683" d="M1008.788,375.412a33.333,33.333,0,0,1-11.523-2.443.769.769,0,0,0-.133.495l27.533,98.469a5.328,5.328,0,0,0,5.7,3.862l21.814-2.352,21.812-2.355a5.327,5.327,0,0,0,4.748-4.987l2.815-48.72c-34.078,11.6-65.735-6.707-72.77-41.968" transform="translate(-997.127 -372.969)" fill="#a5d4f6"/>
                  </g>
                </g>
              </g>
              <g id="Group_1113715" data-name="Group 1113715" transform="translate(376.872 166.993)" opacity="0.2" style="mix-blend-mode: multiply;isolation: isolate">
                <g id="Group_1113714" data-name="Group 1113714">
                  <g id="Group_1113713" data-name="Group 1113713" clip-path="url(#clip-path-11)">
                    <path id="Path_904684" data-name="Path 904684" d="M1018.69,451.385l19.56,69.953a5.328,5.328,0,0,0,5.7,3.862l21.814-2.353,21.812-2.355a5.326,5.326,0,0,0,4.748-4.987l.587-10.19c-36.665,5.036-58.09-24-74.225-53.93" transform="translate(-1018.69 -451.385)" fill="#a5d4f6"/>
                  </g>
                </g>
              </g>
              <g id="Group_1113718" data-name="Group 1113718" transform="translate(405.673 134.39)" opacity="0.5">
                <g id="Group_1113717" data-name="Group 1113717">
                  <g id="Group_1113716" data-name="Group 1113716" clip-path="url(#clip-path-12)">
                    <path id="Path_904685" data-name="Path 904685" d="M1141.619,363.258s-3.392,80.2-5.906,91.676c-1.492,6.813-39.177,9.438-39.177,9.438s19.042-3.683,26.664-25.738c6.816-19.713,3.36-69.276,3.36-69.276,5.435.23,15.058-6.1,15.058-6.1" transform="translate(-1096.538 -363.258)" fill="#fff"/>
                  </g>
                </g>
              </g>
              <path id="Path_904686" data-name="Path 904686" d="M1182.2,576.282c-.008,9.892-12.8,16.875-12.8,16.875,15.128-4.267,12.8-16.875,12.8-16.875" transform="translate(-736.774 -363.082)" fill="#fff"/>
              <g id="Group_1113721" data-name="Group 1113721" transform="translate(377.094 151.917)" opacity="0.5">
                <g id="Group_1113720" data-name="Group 1113720">
                  <g id="Group_1113719" data-name="Group 1113719" clip-path="url(#clip-path-13)">
                    <path id="Path_904687" data-name="Path 904687" d="M1019.295,410.633s13.774,54.5,16.972,57.6,9.147,4.566,9.147,2.153-17.569-50.253-19-52.839-7.118-6.913-7.118-6.913" transform="translate(-1019.293 -410.633)" fill="#fff"/>
                  </g>
                </g>
              </g>
              <g id="Group_1113724" data-name="Group 1113724" transform="translate(394.674 214.358)" opacity="0.5">
                <g id="Group_1113723" data-name="Group 1113723">
                  <g id="Group_1113722" data-name="Group 1113722" clip-path="url(#clip-path-14)">
                    <path id="Path_904688" data-name="Path 904688" d="M1066.847,580.128s2.814,8.568,3.492,8.764,6.5,1.648,6.69,0-.935-6.885-1.678-7.468-9.169-3.273-8.5-1.3" transform="translate(-1066.81 -579.413)" fill="#fff"/>
                  </g>
                </g>
              </g>
              <g id="Group_1113727" data-name="Group 1113727" transform="translate(1.247 306.43)" opacity="0.3">
                <g id="Group_1113726" data-name="Group 1113726">
                  <g id="Group_1113725" data-name="Group 1113725" clip-path="url(#clip-path-15)">
                    <path id="Path_904689" data-name="Path 904689" d="M3.383,830.682c-.862,4.955,38.632,15.959,88.216,24.58s90.477,11.6,91.339,6.641-38.634-15.959-88.22-24.581-90.474-11.594-91.335-6.64" transform="translate(-3.369 -828.286)" fill="#a5d4f6"/>
                  </g>
                </g>
              </g>
              <path id="Path_904690" data-name="Path 904690" d="M132.287,848.025c-.861,4.95,32.548,14.9,74.624,22.217s76.879,9.226,77.74,4.276-32.55-14.9-74.62-22.216-76.883-9.23-77.744-4.277" transform="translate(-83.336 -532.558)" fill="#ccdcfd"/>
              <path id="Path_904691" data-name="Path 904691" d="M457.94,943.787c-.431,2.478,11.6,6.637,26.877,9.293s28.005,2.8,28.436.325-11.6-6.632-26.877-9.287-28.005-2.8-28.435-.33" transform="translate(-288.515 -593.516)" fill="#ccdcfd"/>
              <path id="Path_904692" data-name="Path 904692" d="M544.019,897.556c-.254,1.46,6.831,3.909,15.823,5.473s16.489,1.65,16.743.19-6.83-3.907-15.825-5.471-16.488-1.646-16.741-.192" transform="translate(-342.751 -564.844)" fill="#ccdcfd"/>
              <path id="Path_904693" data-name="Path 904693" d="M448.165,472.413c5.452-9.154-11.769-18.253-3.711-23.923s14.68,15.085,3.711,23.923" transform="translate(-278.648 -281.959)" fill="#ccdcfd"/>
              <path id="Path_904694" data-name="Path 904694" d="M500.875,456.3c3.342-5.621-7.229-11.207-2.282-14.688s9.01,9.261,2.282,14.688" transform="translate(-313.289 -277.859)" fill="#ccdcfd"/>
              <path id="Path_904695" data-name="Path 904695" d="M602.726,519.688c5.817-4.312,13.152,6.714,16.435.879s-11.207-8.9-16.435-.879" transform="translate(-379.743 -324.364)" fill="#ccdcfd"/>
              <path id="Path_904696" data-name="Path 904696" d="M528.831,605.109c7.1,1.462,3.772,14.278,10.308,12.831s-.843-14.281-10.308-12.831" transform="translate(-333.186 -381.173)" fill="#ccdcfd"/>
              <path id="Path_904697" data-name="Path 904697" d="M568.184,539.63c7.475,2,14.1,5.475,18.362,12.5,3.509,5.784,6.429,18.48-2.97,20.911s-11.773-12.156-13.717-19.193c-3.341-12.109-20.189-8.78-20.028-10.732.335-4.03,10.657-5.548,18.353-3.486" transform="translate(-346.416 -339.412)" fill="#ccdcfd"/>
              <path id="Path_904698" data-name="Path 904698" d="M591.612,663.129a3.432,3.432,0,1,0,3.969-2.793,3.434,3.434,0,0,0-3.969,2.793" transform="translate(-372.709 -416.008)" fill="#ccdcfd"/>
              <path id="Path_904699" data-name="Path 904699" d="M495.938,731.649a5.1,5.1,0,1,0,5.9-4.152,5.1,5.1,0,0,0-5.9,4.152" transform="translate(-312.414 -458.307)" fill="#ccdcfd"/>
              <path id="Path_904700" data-name="Path 904700" d="M149.078,552.523a3.317,3.317,0,1,0,3.838-2.7,3.317,3.317,0,0,0-3.838,2.7" transform="translate(-93.894 -346.378)" fill="#ccdcfd"/>
              <path id="Path_904701" data-name="Path 904701" d="M673.8,547.338a2.446,2.446,0,1,0,2.831-1.991,2.447,2.447,0,0,0-2.831,1.991" transform="translate(-424.499 -343.569)" fill="#ccdcfd"/>
              <path id="Path_904702" data-name="Path 904702" d="M368.943,442.893a5.368,5.368,0,1,0,6.21-4.368,5.367,5.367,0,0,0-6.21,4.368" transform="translate(-232.399 -276.239)" fill="#ccdcfd"/>
              <path id="Path_904703" data-name="Path 904703" d="M88.718,704.9a5.368,5.368,0,1,0,6.21-4.369,5.367,5.367,0,0,0-6.21,4.369" transform="translate(-55.846 -441.317)" fill="#ccdcfd"/>
              <path id="Path_904704" data-name="Path 904704" d="M.04,586.014a2.683,2.683,0,1,0,3.1-2.187,2.684,2.684,0,0,0-3.1,2.188" transform="translate(0 -367.811)" fill="#ccdcfd"/>
              <path id="Path_904705" data-name="Path 904705" d="M548.712,853.536a3.555,3.555,0,1,0,4.113-2.895,3.557,3.557,0,0,0-4.113,2.895" transform="translate(-345.679 -535.907)" fill="#ccdcfd"/>
              <path id="Path_904706" data-name="Path 904706" d="M251.372,490.972c30.735,8.822,54.814,18.9,53.778,22.491L247.27,634.89a7.01,7.01,0,0,1-8.262,3.72l-27.744-7.965-27.741-7.969a7.008,7.008,0,0,1-5.031-7.535L193.856,481.5c1.032-3.6,26.781.642,57.517,9.467" transform="translate(-112.428 -302.561)" fill="#fff"/>
              <path id="Path_904707" data-name="Path 904707" d="M438.946,511.288a44.163,44.163,0,0,0,9.091-6.767c20.148-20.3,37.06-30.689,44.413-11.9,2.637,9.31-21.445-.232-25.259,21.7-9.615,1.753-18.214-1.782-28.244-3.037" transform="translate(-276.555 -304.168)" fill="#ccdcfd"/>
              <path id="Path_904708" data-name="Path 904708" d="M445.893,519.707c11.858,6.234,20.8-4.232,29.9-10.417,3.541-2.493,6.381-.962,10.753-2.274,4.189-.3,4.956-1.721,4.973-3.269.324.658.638,1.345.929,2.092,2.637,9.311-21.445-.232-25.259,21.7-9.615,1.753-18.213-1.782-28.244-3.037a51.1,51.1,0,0,0,6.947-4.8" transform="translate(-276.555 -317.382)" fill="#ccdcfd"/>
              <path id="Path_904709" data-name="Path 904709" d="M215.632,539.343c11.585,7.948,34.046-4.962,40.138,6.033,3.448,5.356,14.732,2.913,25.371-3.389,10.03,1.253,19.467,5.307,29.081,3.56-.124.26-.258.509-.383.786-20.288,44.736-57.316,115.473-57.316,115.473a6.351,6.351,0,0,1-7.489,3.376l-25.155-7.224-25.159-7.225a6.347,6.347,0,0,1-4.557-6.831l13.032-113.378c4.171,2.2,8.076,5.436,12.438,8.818" transform="translate(-119.784 -334.253)" fill="#ccdcfd"/>
              <path id="Path_904710" data-name="Path 904710" d="M230.537,577.947c18.748,1.36,36.674-2.664,49.705-15.928.3-.173.6-.334.9-.51,10.029,1.253,19.467,5.307,29.081,3.56-.124.26-.258.509-.383.786-20.288,44.737-57.316,115.474-57.316,115.474a6.351,6.351,0,0,1-7.489,3.375l-25.155-7.224-25.159-7.225a6.347,6.347,0,0,1-4.557-6.831l8.062-70.131c3.545.413,7.514-.136,11.064-.394,10.057,1.749,13.2-16.351,21.248-14.952" transform="translate(-119.784 -353.775)" fill="#ccdcfd"/>
              <path id="Path_904711" data-name="Path 904711" d="M302.7,614.848c-20.76,43.9-50.174,100.086-50.174,100.086a6.351,6.351,0,0,1-7.489,3.376l-25.155-7.224-25.159-7.225a6.348,6.348,0,0,1-4.557-6.831l7.359-64.047c21.594,3.863,41.743-2.438,62.482-12.163,11.02-6.345,28.991.367,42.694-5.972" transform="translate(-119.784 -387.381)" fill="#ccdcfd"/>
              <path id="Path_904712" data-name="Path 904712" d="M220.044,481.5c-1.036,3.6,23.044,13.666,53.779,22.493s56.483,13.064,57.516,9.465-23.043-13.67-53.778-22.492-56.484-13.065-57.517-9.467" transform="translate(-138.617 -302.561)" fill="#fff"/>
              <path id="Path_904713" data-name="Path 904713" d="M280.482,493.994c12.452,3.572,24.009,7.3,32.924,10.6a68.839,68.839,0,0,1-9.091,6.766c-8.254-1.857-16.608-4.1-26.8-7.027-29.669-8.522-53.058-17.745-52.233-20.6s25.534,1.739,55.2,10.257" transform="translate(-141.924 -304.241)" fill="#fff"/>
              <path id="Path_904714" data-name="Path 904714" d="M225.282,483.737c.817-2.854,25.534,1.739,55.2,10.257,12.452,3.573,24.009,7.3,32.924,10.6-1.076.931-2.04,1.728-2.944,2.442-2.9-.814-44.4-13.937-59.352-11.024-15.938-5.54-26.38-10.355-25.827-12.278" transform="translate(-141.924 -304.241)" fill="#fff"/>
              <g id="Group_1113730" data-name="Group 1113730" transform="translate(66.017 210.23)" opacity="0.2" style="mix-blend-mode: multiply;isolation: isolate">
                <g id="Group_1113729" data-name="Group 1113729">
                  <g id="Group_1113728" data-name="Group 1113728" clip-path="url(#clip-path-16)">
                    <path id="Path_904715" data-name="Path 904715" d="M289.6,568.826a43.85,43.85,0,0,0,15.486-.57,1.009,1.009,0,0,1,.061.671L247.27,690.354a7.01,7.01,0,0,1-8.262,3.72l-27.744-7.966-27.741-7.969a7.008,7.008,0,0,1-5.031-7.535l7.331-63.783c41.555,22.722,86.715,6.123,103.78-38" transform="translate(-178.446 -568.256)" fill="#a5d4f6"/>
                  </g>
                </g>
              </g>
              <g id="Group_1113733" data-name="Group 1113733" transform="translate(66.017 246.066)" opacity="0.2" style="mix-blend-mode: multiply;isolation: isolate">
                <g id="Group_1113732" data-name="Group 1113732">
                  <g id="Group_1113731" data-name="Group 1113731" clip-path="url(#clip-path-17)">
                    <path id="Path_904716" data-name="Path 904716" d="M288.389,665.121l-41.12,86.262a7.01,7.01,0,0,1-8.262,3.721l-27.744-7.966-27.742-7.969a7.008,7.008,0,0,1-5.031-7.535l1.536-13.34c46.389,14.791,80.7-18.019,108.362-53.174" transform="translate(-178.446 -665.121)" fill="#a5d4f6"/>
                  </g>
                </g>
              </g>
              <g id="Group_1113736" data-name="Group 1113736" transform="translate(74.514 187.156)" opacity="0.5">
                <g id="Group_1113735" data-name="Group 1113735">
                  <g id="Group_1113734" data-name="Group 1113734" clip-path="url(#clip-path-18)">
                    <path id="Path_904717" data-name="Path 904717" d="M214.445,505.885S200.767,610.6,201.437,626.043c.4,9.167,48.653,21.063,48.653,21.063s-23.851-9.066-28.76-39.371c-4.391-27.087,11.258-90.551,11.258-90.551-7.1-.926-18.143-11.3-18.143-11.3" transform="translate(-201.413 -505.885)" fill="#fff"/>
                  </g>
                </g>
              </g>
              <path id="Path_904718" data-name="Path 904718" d="M205.793,785.241C203.575,798.064,218.582,810,218.582,810c-18.647-8.941-12.789-24.758-12.789-24.758" transform="translate(-129.109 -494.735)" fill="#fff"/>
              <g id="Group_1113739" data-name="Group 1113739" transform="translate(131.721 226.474)" opacity="0.5">
                <g id="Group_1113738" data-name="Group 1113738">
                  <g id="Group_1113737" data-name="Group 1113737" clip-path="url(#clip-path-19)">
                    <path id="Path_904719" data-name="Path 904719" d="M403.393,612.163S373.258,679.693,368.413,683s-12.885,3.856-12.341.728,34.1-61.176,36.536-64.205,10.785-7.357,10.785-7.357" transform="translate(-356.045 -612.163)" fill="#fff"/>
                  </g>
                </g>
              </g>
              <g id="Group_1113742" data-name="Group 1113742" transform="translate(126.828 303.069)" opacity="0.5">
                <g id="Group_1113741" data-name="Group 1113741">
                  <g id="Group_1113740" data-name="Group 1113740" clip-path="url(#clip-path-20)">
                    <path id="Path_904720" data-name="Path 904720" d="M357.992,820.5s-5.578,10.472-6.5,10.573-8.792.672-8.671-1.508,2.764-8.714,3.859-9.3,12.623-2.176,11.313.237" transform="translate(-342.818 -819.201)" fill="#fff"/>
                  </g>
                </g>
              </g>
            </g>
          </g>
        </g>
      </g>
      <g id="Group_1113747" data-name="Group 1113747" transform="translate(133.45 383.005)">
        <g id="Group_1113753" data-name="Group 1113753" transform="translate(86.384 12367)">
          <g id="Group_1113752" data-name="Group 1113752" clip-path="url(#clip-path-21)">
            <g id="Group_1113751" data-name="Group 1113751" transform="translate(0 0)">
              <g id="Group_1113750" data-name="Group 1113750" clip-path="url(#clip-path-22)">
                <path id="Path_904721" data-name="Path 904721" d="M486.547,110.979s-5.825-2.45-6.642-1.068,6.911,6.911,6.911,6.911Z" transform="translate(-287.154 -65.521)" fill="#c74d4d"/>
                <path id="Path_904722" data-name="Path 904722" d="M183.361,827.49H290.921l-8.526-117.529h-87.95Z" transform="translate(-109.729 -424.863)" fill="#273c4f"/>
                <path id="Path_904723" data-name="Path 904723" d="M317.406,880.408l.647-82.019,7.968,82.019Z" transform="translate(-189.946 -477.78)" fill="#1f2e3d"/>
                <path id="Path_904724" data-name="Path 904724" d="M296.863,714.646,206.97,726.961l1.6-17h87.95Z" transform="translate(-123.857 -424.862)" fill="#1f2e3d"/>
                <path id="Path_904725" data-name="Path 904725" d="M257.714,709.961l-7.33,117.529h21.923V709.961Z" transform="translate(-149.837 -424.862)" fill="#1f2e3d"/>
                <path id="Path_904726" data-name="Path 904726" d="M329.9,709.961v17.755c0,6.958-8.193,12.353-8.193,12.353" transform="translate(-192.519 -424.862)" fill="none" stroke="#3e6386" stroke-miterlimit="10" stroke-width="1.113"/>
                <path id="Path_904727" data-name="Path 904727" d="M317.285,827.491l.647-82.019s3.709-14.318,3.709-35.51" transform="translate(-189.873 -424.863)" fill="none" stroke="#3e6386" stroke-miterlimit="10" stroke-width="1.113"/>
                <line id="Line_785" data-name="Line 785" y1="1.508" x2="20.482" transform="translate(118.239 336.534)" fill="none" stroke="#3e6386" stroke-miterlimit="10" stroke-width="1.113"/>
                <path id="Path_904728" data-name="Path 904728" d="M224.415,318.741l12.879-11.274,34.569-1.885,15.6,13.159L298.494,470.75l-88.568,1.629Z" transform="translate(-125.626 -182.869)" fill="#5284b6"/>
                <path id="Path_904729" data-name="Path 904729" d="M268.019,474.76l14.841-.273V448.349l-10.8-138.072-.959,115.08Z" transform="translate(-160.391 -185.679)" fill="#3e6386"/>
                <path id="Path_904730" data-name="Path 904730" d="M377.286,221c-4.7-.258-18.787,1.129-18.787,1.129l-3.8,137.676,7.643,142.239h65.542L404.26,361.526l8.545-79.12s26.639,12.565,52.272,23.12,38.7,3.016,44.732-5.026,18.028-28.193-10.555-65.208c-14.073-18.225-54.617-69.157-54.617-69.157l-24.125,13.28,23.455,62.112-2.345,1.34s-26.806-11.351-37.864-16.063a71.968,71.968,0,0,0-26.471-5.8" transform="translate(-212.262 -99.42)" fill="#faefdf"/>
                <path id="Path_904731" data-name="Path 904731" d="M532.32,215.78c26.125-17.763,10.392-49.646,10.392-49.646l-24.125,13.28Z" transform="translate(-310.338 -99.419)" fill="#dbcab0"/>
                <path id="Path_904732" data-name="Path 904732" d="M358.5,305.582l-3.8,137.676,4.806,89.434,18.626-108.541-15.788-39.7,21.647-26.974Z" transform="translate(-212.262 -182.869)" fill="#dbcab0"/>
                <path id="Path_904733" data-name="Path 904733" d="M358.5,305.582l-3.8,137.676,4.806,89.434,16.128-123.071-13.291-25.169,19.793-35.832Z" transform="translate(-212.262 -182.869)" fill="#fff"/>
                <g id="Group_1113749" data-name="Group 1113749" transform="translate(131.768 184.326)" opacity="0.21">
                  <g id="Group_1113748" data-name="Group 1113748">
                    <g id="Group_1113747-2" data-name="Group 1113747" clip-path="url(#clip-path-23)">
                      <path id="Path_904734" data-name="Path 904734" d="M395.824,551.746H328.133l20.127-92.732h67.691Z" transform="translate(-328.133 -459.014)"/>
                    </g>
                  </g>
                </g>
                <path id="Path_904735" data-name="Path 904735" d="M146.122,310.276,150.18,452.1l-7.162,136.208H57.573L84.212,470.777l35.937-159.034Z" transform="translate(-34.454 -185.678)" fill="#faefdf"/>
                <path id="Path_904736" data-name="Path 904736" d="M133.977,471.472l-9.09-.6-21.7,96.01-13.9,61.336,78.848-60.579L169.16,548.2l-1.13-39.488-42.346,7.739Z" transform="translate(-53.434 -281.784)" fill="#dbcab0"/>
                <path id="Path_904737" data-name="Path 904737" d="M243.26,310.276l-23.365,48.7,20.249,30.8L224.4,416.593l18.461,120.29,4.458-84.784Z" transform="translate(-131.592 -185.678)" fill="#dbcab0"/>
                <path id="Path_904738" data-name="Path 904738" d="M246.739,310.276l-21.031,39.289,17.915,40.209-11.213,19.1,13.929,128.009L250.8,452.1Z" transform="translate(-135.071 -185.678)" fill="#fff"/>
                <path id="Path_904739" data-name="Path 904739" d="M246.739,310.276l-21.031,39.289,17.915,40.209-11.213,19.1,13.929,128.009L250.8,452.1Z" transform="translate(-135.071 -185.678)" fill="#fff"/>
                <line id="Line_786" data-name="Line 786" x2="12.063" y2="28.565" transform="translate(231.704 142.107)" fill="none" stroke="#867d6d" stroke-miterlimit="10" stroke-width="1.113"/>
                <path id="Path_904740" data-name="Path 904740" d="M499.4,418.227s19.09,9,40.5,18.171h0L502.16,393.1Z" transform="translate(-298.854 -235.24)" fill="#dbcab0"/>
                <line id="Line_787" data-name="Line 787" x1="0.503" y1="25.298" transform="translate(229.358 143.447)" fill="none" stroke="#867d6d" stroke-miterlimit="10" stroke-width="1.113"/>
                <line id="Line_788" data-name="Line 788" y1="24.988" x2="2.787" transform="translate(201.608 148.306)" fill="none" stroke="#867d6d" stroke-miterlimit="10" stroke-width="1.113"/>
                <line id="Line_789" data-name="Line 789" x1="9.938" y2="22.45" transform="translate(203.002 153.834)" fill="none" stroke="#867d6d" stroke-miterlimit="10" stroke-width="1.113"/>
                <path id="Path_904741" data-name="Path 904741" d="M399.32,868.275h32.694s0,18.543-16.347,18.543S399.32,868.275,399.32,868.275Z" transform="translate(-238.965 -519.602)" fill="none" stroke="#867d6d" stroke-miterlimit="10" stroke-width="1.113"/>
                <path id="Path_904742" data-name="Path 904742" d="M132.171,868.275h32.694s0,18.543-16.347,18.543S132.171,868.275,132.171,868.275Z" transform="translate(-79.095 -519.602)" fill="none" stroke="#867d6d" stroke-miterlimit="10" stroke-width="1.113"/>
                <path id="Path_904743" data-name="Path 904743" d="M207.433,439.721s-2.91,5.859-10.173,15.495" transform="translate(-118.046 -263.142)" fill="none" stroke="#867d6d" stroke-miterlimit="10" stroke-width="1.113"/>
                <line id="Line_790" data-name="Line 790" x1="11.107" y2="7.04" transform="translate(80.543 185.873)" fill="none" stroke="#867d6d" stroke-miterlimit="10" stroke-width="1.113"/>
                <path id="Path_904744" data-name="Path 904744" d="M476.467,114.861V101.829a2.3,2.3,0,0,1,1.155-2.035c.638-.346,1-.741,1-1.161,0-1.365-3.807-2.471-8.5-2.471s-8.5,1.106-8.5,2.471c0,.42.364.815,1,1.161a2.3,2.3,0,0,1,1.155,2.035v13.029a4.465,4.465,0,0,1-2.957,4.183,27.042,27.042,0,1,0,18.542-.023,4.418,4.418,0,0,1-2.894-4.158" transform="translate(-265.152 -57.546)" fill="#faefdf"/>
                <path id="Path_904745" data-name="Path 904745" d="M480.042,124.137a26.91,26.91,0,0,0-4.84,2.369c6.29-3.4,25.914-3.887,35.264,6.164a27.094,27.094,0,0,0-11.882-8.556,4.418,4.418,0,0,1-2.894-4.158V106.924a2.3,2.3,0,0,1,1.155-2.035,3.649,3.649,0,0,0,.339-.214c-3.755,2.146-10.216,2.3-15.34.214A2.3,2.3,0,0,1,483,106.924v13.029a4.464,4.464,0,0,1-2.957,4.183" transform="translate(-284.375 -62.641)" fill="#abc6db"/>
                <path id="Path_904746" data-name="Path 904746" d="M507.687,100.891c0,.33-2.5.6-5.576.6s-5.576-.267-5.576-.6,2.5-.6,5.576-.6,5.576.267,5.576.6" transform="translate(-297.142 -60.019)" fill="#5284b6"/>
                <path id="Path_904747" data-name="Path 904747" d="M507.832,128.092a5.287,5.287,0,0,0-4.5-.565c-3.149,1.04-8.4,2.672-8.964,2.191-.817-.691,6.61-5.026,6.61-5.026s-12.442,2.191-13.61.938,12.215-5.085,12.215-5.085-7.135-2.2-11.372-2.136-3.308-3.113-.445-3.427,12.382.914,12.382.914-13.005-4.586-12.5-6.848,11.623,1.633,15.329,3.455c0,0,9.3,5.46,10.712,19.316Z" transform="translate(-290.431 -64.847)" fill="#df6969"/>
                <path id="Path_904748" data-name="Path 904748" d="M296.908,119.5a76.946,76.946,0,0,1,12.923.5c8.418.879,13.665,8.164,14.953,12.565,1.507,5.152.754,11.775-3.141,18.893s-2.513,11.641,1.885,18.552,9.3,18.6-9.8,18.6H287.967l-24.5-19.1,4.91-35.56Z" transform="translate(-157.666 -71.462)" fill="#273c4f"/>
                <path id="Path_904749" data-name="Path 904749" d="M377.2,272.42c1.941-2.657,2.269-6.433.7-10.173a15,15,0,0,0-1.536-2.774l-.733.512a14.094,14.094,0,0,1,1.445,2.609c1.549,3.7,1.105,7.412-1.024,9.827Z" transform="translate(-224.792 -155.276)" fill="#1f2e3d"/>
                <path id="Path_904750" data-name="Path 904750" d="M395.21,246.6c.445-.13.861-.272,1.25-.426a9.059,9.059,0,0,0,.737-2.235,12.458,12.458,0,0,0-2.351-9.385l-.477-.681c-3.518-5.03-6.841-9.78-6.605-16.009l-.893-.034c-.246,6.53,3.16,11.4,6.767,16.555l.475.681a11.572,11.572,0,0,1,2.206,8.707,8.022,8.022,0,0,1-1.109,2.827" transform="translate(-231.508 -130.353)" fill="#1f2e3d"/>
                <path id="Path_904751" data-name="Path 904751" d="M388.782,269.638q.6-.015,1.172-.047a8.831,8.831,0,0,0,1.48-3.494,12.455,12.455,0,0,0-2.351-9.385l-1.292-1.852-.734.51,1.294,1.854a11.572,11.572,0,0,1,2.206,8.707,7.836,7.836,0,0,1-1.774,3.707" transform="translate(-231.626 -152.516)" fill="#1f2e3d"/>
                <path id="Path_904752" data-name="Path 904752" d="M297.1,134a13.221,13.221,0,0,1,12.014,6.957c3.986,7.513,4.525,11.192,4.525,11.192s7.084,8.615,4.891,20.086c-2.148,11.235-10,13.66-14.322,13.491l-1.6,14a2.833,2.833,0,0,0,2.8,3.155l2.6.018s-1.348,16.252-16.527,16.252-17.889-8.645-18.042-14.367l1.457-.082a1.13,1.13,0,0,0,1.062-1.033l2.185-25.914L270.32,162.73l19.625-23.311Z" transform="translate(-161.768 -80.181)" fill="#df6969"/>
                <line id="Line_791" data-name="Line 791" x2="9.298" y2="2.639" transform="translate(115.726 126.065)" fill="none" stroke="#922a23" stroke-miterlimit="10" stroke-width="1.113"/>
                <path id="Path_904753" data-name="Path 904753" d="M330.684,249.777c-6.647-.124-12.26-2.407-16.113-8.753,0,0-.422,14.231,15.286,15.995Z" transform="translate(-188.249 -144.236)" fill="#c74d4d"/>
                <path id="Path_904754" data-name="Path 904754" d="M334.272,172.47c.779,3.748-1.03,7.293-4.04,7.919s-6.081-1.906-6.859-5.655,1.03-7.293,4.04-7.919S333.493,168.722,334.272,172.47Z" transform="translate(-193.408 -99.771)" fill="none" stroke="#fff" stroke-miterlimit="10" stroke-width="1.113"/>
                <path id="Path_904755" data-name="Path 904755" d="M369.245,165.205c.779,3.748-1.03,7.293-4.04,7.919s-6.081-1.906-6.859-5.654,1.03-7.293,4.04-7.919S368.466,161.457,369.245,165.205Z" transform="translate(-214.337 -95.423)" fill="none" stroke="#fff" stroke-miterlimit="10" stroke-width="1.113"/>
                <line id="Line_792" data-name="Line 792" y1="0.677" x2="3.257" transform="translate(140.572 70.966)" fill="none" stroke="#fff" stroke-miterlimit="10" stroke-width="1.113"/>
                <line id="Line_793" data-name="Line 793" x1="10.872" y2="5.724" transform="translate(118.962 74.129)" fill="none" stroke="#fff" stroke-miterlimit="10" stroke-width="1.113"/>
                <path id="Path_904756" data-name="Path 904756" d="M338.612,178.453c.365,1.465.011,2.814-.791,3.014s-1.748-.826-2.113-2.29-.011-2.814.791-3.014,1.748.826,2.113,2.29" transform="translate(-200.812 -105.406)" fill="#273c4f"/>
                <path id="Path_904757" data-name="Path 904757" d="M368.933,170.9c.365,1.465.011,2.814-.791,3.014s-1.748-.826-2.113-2.29-.011-2.814.791-3.014,1.748.826,2.113,2.29" transform="translate(-218.957 -100.884)" fill="#273c4f"/>
                <path id="Path_904758" data-name="Path 904758" d="M358.167,190.235l1.927,3.728s2.513-1.173,3.058,0-2.89,3.476-2.89,3.476" transform="translate(-214.338 -113.842)" fill="none" stroke="#922a23" stroke-linecap="round" stroke-linejoin="round" stroke-width="2.094"/>
                <path id="Path_904759" data-name="Path 904759" d="M337.212,214.778,354.4,212.7s-1.791,10.968-8.776,10.968-8.415-8.9-8.415-8.9" transform="translate(-201.798 -127.289)" fill="#fff"/>
                <path id="Path_904760" data-name="Path 904760" d="M326.645,208a4.523,4.523,0,1,1-4.524-4.524A4.524,4.524,0,0,1,326.645,208" transform="translate(-190.06 -121.765)" fill="#c74d4d"/>
                <path id="Path_904761" data-name="Path 904761" d="M361.409,246.094c.106.512-.868,1.146-2.176,1.418s-2.454.078-2.56-.434.868-1.146,2.176-1.418,2.454-.078,2.561.434" transform="translate(-213.439 -146.937)" fill="#e69494"/>
                <path id="Path_904762" data-name="Path 904762" d="M294.393,211.027s-2.136.942-2.513-.377.879-2.764.879-2.764-1.193-3.244-3.581-2.49-.544,5.192-.544,5.192" transform="translate(-172.321 -122.847)" fill="none" stroke="#c74d4d" stroke-miterlimit="10" stroke-width="1.113"/>
                <path id="Path_904763" data-name="Path 904763" d="M257.79,117.664s-.377,8.921-6.785,13.445-7.665,9.173-8.042,13.7a4.451,4.451,0,0,0-5.277-1.005c-3.141,1.508-1.885,6.911,0,10.932s6.408,4.021,8.293.754c0,0,2.262,7.288-1.508,12.439s-.879,13.068-.879,13.068H221.1c-9.8,0-16.461-1.006-16.461-9.424,0-6.66,6.408-11.686,11.811-18.722s2.89-11.937,5.529-22.618c1.262-5.108,4.2-14.476,13.905-19.267,10.566-5.217,20.652-6.466,25.821.921Z" transform="translate(-122.462 -63.85)" fill="#273c4f"/>
                <path id="Path_904764" data-name="Path 904764" d="M216.978,232.212c-.584-4.551,1.85-8.432,3.353-10.341.725-.921,1.509-1.872,2.314-2.848,3.86-4.683,8.236-9.991,9.085-15.58l-.883-.134c-.812,5.346-5.1,10.552-8.891,15.146-.81.981-1.6,1.938-2.327,2.864-1.589,2.019-4.162,6.133-3.536,11.007a12.843,12.843,0,0,0,2.3,5.723c.418.1.855.186,1.305.262a12.338,12.338,0,0,1-2.717-6.1" transform="translate(-129.258 -121.665)" fill="#1f2e3d"/>
                <path id="Path_904765" data-name="Path 904765" d="M250.254,259.052c-.584-4.551,1.85-8.432,3.353-10.341l-.7-.552c-1.589,2.018-4.162,6.132-3.536,11.007a13.174,13.174,0,0,0,2.859,6.483h1.157a12.607,12.607,0,0,1-3.129-6.6" transform="translate(-149.172 -148.506)" fill="#1f2e3d"/>
                <path id="Path_904766" data-name="Path 904766" d="M233.617,247.326c-.584-4.551,1.849-8.432,3.352-10.341.727-.923,1.512-1.876,2.318-2.854,1.336-1.62,2.716-3.3,4-5.038l-.719-.53c-1.269,1.722-2.643,3.388-3.971,5-.811.983-1.6,1.941-2.331,2.87-1.589,2.018-4.162,6.132-3.536,11.007a13.168,13.168,0,0,0,2.839,6.457c.383.008.774.014,1.169.018a12.6,12.6,0,0,1-3.122-6.589" transform="translate(-139.216 -136.779)" fill="#1f2e3d"/>
                <path id="Path_904767" data-name="Path 904767" d="M356.085,156.206s1.873-2.346,6.465-2.01" transform="translate(-213.092 -92.256)" fill="none" stroke="#273c4f" stroke-miterlimit="10" stroke-width="4.45"/>
                <path id="Path_904768" data-name="Path 904768" d="M327.24,159.572a11.082,11.082,0,0,0-10.738,1.7" transform="translate(-189.405 -95.078)" fill="none" stroke="#273c4f" stroke-miterlimit="10" stroke-width="4.45"/>
                <path id="Path_904769" data-name="Path 904769" d="M450.387,194.907a24.519,24.519,0,1,0,46.988,0,3.752,3.752,0,0,0-3.6-2.661H453.987a3.753,3.753,0,0,0-3.6,2.661" transform="translate(-268.913 -115.046)" fill="#5284b6"/>
                <path id="Path_904770" data-name="Path 904770" d="M500.777,205.139a3.644,3.644,0,1,1-3.644-3.644,3.644,3.644,0,0,1,3.644,3.644" transform="translate(-295.319 -120.58)" fill="#faefdf"/>
                <path id="Path_904771" data-name="Path 904771" d="M487.442,233.057a1.194,1.194,0,1,1-1.194-1.194,1.194,1.194,0,0,1,1.194,1.194" transform="translate(-290.272 -138.754)" fill="#faefdf"/>
                <path id="Path_904772" data-name="Path 904772" d="M524.924,238.507a5.776,5.776,0,1,1-5.776-5.776,5.776,5.776,0,0,1,5.776,5.776" transform="translate(-307.218 -139.273)" fill="#faefdf"/>
                <path id="Path_904773" data-name="Path 904773" d="M406.429,544.654H338.738l20.128-92.732h67.691Z" transform="translate(-202.711 -270.444)" fill="#dc9a3f"/>
                <path id="Path_904774" data-name="Path 904774" d="M341.954,544.654h-3.216l20.127-92.732h3.216Z" transform="translate(-202.712 -270.444)" fill="#edc692"/>
                <path id="Path_904775" data-name="Path 904775" d="M294.964,567.928l9.717-2.346s4.356-7.874,8.712-11.225a118.054,118.054,0,0,1,10.929-7.112l-.87,4.008a2.832,2.832,0,0,0,3.594,3.31l5.624-1.714s12.535-7.2,13.718-5.7-11.382,9.215-17.749,12.4l11.007-3.671s9.1-5.879,10.6-4.2-9.717,8.554-19.267,11.9l9.885-1.6s6.869-3.769,7.706-1.927-11.057,6.534-17.592,7.874h7.084s5.649-3.183,7.157-2.346-7.2,6.2-13.4,7.707-23.539,3.015-23.539,3.015l-13.32,10.723Z" transform="translate(-176.516 -327.309)" fill="#df6969"/>
                <path id="Path_904776" data-name="Path 904776" d="M464.808,438.883l.327-1.4a1.174,1.174,0,0,0-1.144-1.442h-3.872a1.174,1.174,0,0,0-1.144.908l-.456,1.952a2.7,2.7,0,0,1-2.624,2.082H452.79a.913.913,0,0,0-.889.706l-1.447,6.211a.729.729,0,0,0,.71.895h16.577a.913.913,0,0,0,.889-.706l1.447-6.211a.729.729,0,0,0-.71-.895h-2.892a1.712,1.712,0,0,1-1.667-2.1" transform="translate(-269.554 -260.941)" fill="#273c4f"/>
                <path id="Path_904777" data-name="Path 904777" d="M120.375,426.138l2.094,33.508S81.925,479.415,56.795,488.8,6.2,493.153.837,468.693s16.419-65.848,25.8-83.855,28.984-67.85,59.057-70.908l-5.152,63.623-19.308,58.3Z" transform="translate(0 -187.865)" fill="#faefdf"/>
                <line id="Line_794" data-name="Line 794" x1="33.592" y2="6.701" transform="translate(27.643 247.991)" fill="none" stroke="#867d6d" stroke-miterlimit="10" stroke-width="1.113"/>
                <path id="Path_904778" data-name="Path 904778" d="M106.061,595.525s-3.141-6.66-28.774-10.932" transform="translate(-46.251 -349.838)" fill="none" stroke="#867d6d" stroke-miterlimit="10" stroke-width="1.113"/>
                <line id="Line_795" data-name="Line 795" x1="16.167" y1="16.13" transform="translate(43.057 221.771)" fill="none" stroke="#867d6d" stroke-miterlimit="10" stroke-width="1.113"/>
                <line id="Line_796" data-name="Line 796" x1="48.327" y2="17.718" transform="translate(73.632 263.613)" fill="none" stroke="#867d6d" stroke-miterlimit="10" stroke-width="1.113"/>
                <path id="Path_904779" data-name="Path 904779" d="M261.614,649.092a2.334,2.334,0,1,1-2.334-2.334,2.334,2.334,0,0,1,2.334,2.334" transform="translate(-153.764 -387.039)" fill="#273c4f"/>
                <path id="Path_904780" data-name="Path 904780" d="M218.751,663.309a2.334,2.334,0,1,1-2.334-2.334,2.334,2.334,0,0,1,2.334,2.334" transform="translate(-128.114 -395.547)" fill="#273c4f"/>
                <path id="Path_904781" data-name="Path 904781" d="M507.435,71.274A2.436,2.436,0,1,1,505,68.838a2.436,2.436,0,0,1,2.436,2.436" transform="translate(-300.749 -41.194)" fill="#c8e6fd"/>
                <path id="Path_904782" data-name="Path 904782" d="M492.016,41.388a4.778,4.778,0,1,1-4.778-4.779,4.778,4.778,0,0,1,4.778,4.779" transform="translate(-288.718 -21.908)" fill="#c8e6fd"/>
                <path id="Path_904783" data-name="Path 904783" d="M520.781,7.261A7.261,7.261,0,1,1,513.519,0a7.262,7.262,0,0,1,7.262,7.262" transform="translate(-302.96 0.001)" fill="#c8e6fd"/>
              </g>
            </g>
          </g>
        </g>
      </g>
    </g>
  </g>
</svg>
