<svg xmlns="http://www.w3.org/2000/svg" xmlns:xlink="http://www.w3.org/1999/xlink" width="108.914" height="108.914" viewBox="0 0 108.914 108.914">
  <defs>
    <filter id="Path_874925" x="0" y="0" width="108.914" height="108.914" filterUnits="userSpaceOnUse">
      <feOffset dy="3" input="SourceAlpha"/>
      <feGaussianBlur stdDeviation="3" result="blur"/>
      <feFlood flood-opacity="0.161"/>
      <feComposite operator="in" in2="blur"/>
      <feComposite in="SourceGraphic"/>
    </filter>
  </defs>
  <g id="Group_1113676" data-name="Group 1113676" transform="translate(-1621.001 1235)">
    <g id="Group_1109835" data-name="Group 1109835" transform="translate(821.5 -3181.211)">
      <g id="Group_1107913" data-name="Group 1107913" transform="translate(808.5 1952.211)">
        <g transform="matrix(1, 0, 0, 1, -9, -6)" filter="url(#Path_874925)">
          <g id="Path_874925-2" data-name="Path 874925" transform="translate(9 6)" fill="#65a532" opacity="0.859">
            <path d="M 45.45676803588867 89.41407012939453 C 39.52198028564453 89.41407012939453 33.76551818847656 88.25206756591797 28.34726715087891 85.96034240722656 C 23.11311721801758 83.74648284912109 18.41204261779785 80.57682800292969 14.37464332580566 76.5394287109375 C 10.33724308013916 72.50202941894531 7.167593002319336 67.80095672607422 4.953730583190918 62.56679534912109 C 2.662005424499512 57.14855575561523 1.500005483627319 51.39208221435547 1.500005483627319 45.45729446411133 C 1.500005483627319 39.52198028564453 2.662005424499512 33.76551818847656 4.953730583190918 28.34726905822754 C 7.167593002319336 23.11310577392578 10.33724308013916 18.41203117370605 14.37464332580566 14.37464332580566 C 18.41204261779785 10.33724403381348 23.11311721801758 7.167593955993652 28.34726715087891 4.953731060028076 C 33.76551818847656 2.662006139755249 39.52198028564453 1.500006198883057 45.45676803588867 1.500006198883057 C 51.39155578613281 1.500006198883057 57.14802932739258 2.662006139755249 62.56626892089844 4.953731060028076 C 67.80043029785156 7.167593955993652 72.50150299072266 10.33724403381348 76.53890228271484 14.37464332580566 C 80.57630920410156 18.41203117370605 83.74595642089844 23.11310577392578 85.95981597900391 28.34726905822754 C 88.25154113769531 33.76551818847656 89.41354370117188 39.52198028564453 89.41354370117188 45.45676803588867 C 89.41354370117188 51.39208221435547 88.25154113769531 57.14855575561523 85.95981597900391 62.56679534912109 C 83.74595642089844 67.80095672607422 80.57630920410156 72.50202941894531 76.53890228271484 76.5394287109375 C 72.50150299072266 80.57682800292969 67.80043029785156 83.74648284912109 62.56626892089844 85.96034240722656 C 57.14802932739258 88.25206756591797 51.39155578613281 89.41407012939453 45.45676803588867 89.41407012939453 Z" stroke="none"/>
            <path d="M 45.45676803588867 3 C 39.72381210327148 3 34.1639404296875 4.12213134765625 28.93159484863281 6.335227966308594 C 23.87622833251953 8.473472595214844 19.33542633056641 11.53517150878906 15.43529510498047 15.435302734375 C 11.53517150878906 19.33543395996094 8.473464965820312 23.87622833251953 6.335227966308594 28.93160247802734 C 4.122123718261719 34.16394424438477 3 39.72381591796875 3 45.4572868347168 C 3 51.19024658203125 4.122123718261719 56.75011825561523 6.335227966308594 61.98246002197266 C 8.473464965820312 67.03782653808594 11.53517150878906 71.57862854003906 15.43529510498047 75.478759765625 C 19.33542633056641 79.37889099121094 23.87622833251953 82.44058990478516 28.93159484863281 84.57883453369141 C 34.1639404296875 86.79193115234375 39.72381210327148 87.9140625 45.45676803588867 87.9140625 C 51.18972396850586 87.9140625 56.74959564208984 86.79193115234375 61.98194122314453 84.57883453369141 C 67.03730773925781 82.44058990478516 71.57810974121094 79.37889099121094 75.47824096679688 75.478759765625 C 79.37837219238281 71.57862854003906 82.44007110595703 67.03782653808594 84.57830810546875 61.98246002197266 C 86.79141235351562 56.75011825561523 87.91353607177734 51.19024658203125 87.91353607177734 45.4567756652832 C 87.91353607177734 39.72381591796875 86.79141235351562 34.16394424438477 84.57830810546875 28.93160247802734 C 82.44007110595703 23.87622833251953 79.37837219238281 19.33543395996094 75.47824096679688 15.435302734375 C 71.57810974121094 11.53517150878906 67.03730773925781 8.473472595214844 61.98194122314453 6.335227966308594 C 56.74959564208984 4.12213134765625 51.18972396850586 3 45.45676803588867 3 M 45.45676803588867 0 C 70.56185150146484 0 90.91353607177734 20.35169219970703 90.91353607177734 45.4567756652832 L 90.91353607177734 45.4572868347168 C 90.91353607177734 70.5623779296875 70.56185150146484 90.9140625 45.45676803588867 90.9140625 C 20.3516845703125 90.9140625 0 70.5623779296875 0 45.4572868347168 L 0 45.4567756652832 C 0 20.35169219970703 20.3516845703125 0 45.45676803588867 0 Z" stroke="none" fill="#fff"/>
          </g>
        </g>
        <g id="Path_874923" data-name="Path 874923" transform="translate(0 0)" fill="none">
          <path d="M45.457,0A45.457,45.457,0,0,1,90.914,45.457h0A45.457,45.457,0,0,1,0,45.457H0A45.457,45.457,0,0,1,45.457,0Z" stroke="none"/>
          <path d="M 45.45676803588867 3 C 39.72381210327148 3 34.1639404296875 4.12213134765625 28.93159484863281 6.335227966308594 C 23.87622833251953 8.473472595214844 19.33542633056641 11.53517150878906 15.43529510498047 15.435302734375 C 11.53517150878906 19.33543395996094 8.473464965820312 23.87622833251953 6.335227966308594 28.93160247802734 C 4.122123718261719 34.16394424438477 3 39.72381591796875 3 45.4572868347168 C 3 51.19024658203125 4.122123718261719 56.75011825561523 6.335227966308594 61.98246002197266 C 8.473464965820312 67.03782653808594 11.53517150878906 71.57862854003906 15.43529510498047 75.478759765625 C 19.33542633056641 79.37889099121094 23.87622833251953 82.44058990478516 28.93159484863281 84.57883453369141 C 34.1639404296875 86.79193115234375 39.72381210327148 87.9140625 45.45676803588867 87.9140625 C 51.18972396850586 87.9140625 56.74959564208984 86.79193115234375 61.98194122314453 84.57883453369141 C 67.03730773925781 82.44058990478516 71.57810974121094 79.37889099121094 75.47824096679688 75.478759765625 C 79.37837219238281 71.57862854003906 82.44007110595703 67.03782653808594 84.57830810546875 61.98246002197266 C 86.79141235351562 56.75011825561523 87.91353607177734 51.19024658203125 87.91353607177734 45.4567756652832 C 87.91353607177734 39.72381591796875 86.79141235351562 34.16394424438477 84.57830810546875 28.93160247802734 C 82.44007110595703 23.87622833251953 79.37837219238281 19.33543395996094 75.47824096679688 15.435302734375 C 71.57810974121094 11.53517150878906 67.03730773925781 8.473472595214844 61.98194122314453 6.335227966308594 C 56.74959564208984 4.12213134765625 51.18972396850586 3 45.45676803588867 3 M 45.45676803588867 0 C 70.56185150146484 0 90.91353607177734 20.35169219970703 90.91353607177734 45.4567756652832 L 90.91353607177734 45.4572868347168 C 90.91353607177734 70.5623779296875 70.56185150146484 90.9140625 45.45676803588867 90.9140625 C 20.3516845703125 90.9140625 0 70.5623779296875 0 45.4572868347168 L 0 45.4567756652832 C 0 20.35169219970703 20.3516845703125 0 45.45676803588867 0 Z" stroke="none" fill="#fff"/>
        </g>
      </g>
    </g>
    <g id="Group_1113675" data-name="Group 1113675" transform="translate(1646 -1285.656)">
      <g id="Group_1113667" data-name="Group 1113667" transform="translate(4.457 118.51)">
        <path id="Path_904485" data-name="Path 904485" d="M87.016,396.011H39.243a1.661,1.661,0,0,1-1.661-1.661V392.4h51.1v1.949A1.661,1.661,0,0,1,87.016,396.011Z" transform="translate(-37.582 -392.4)" fill="#7191f0"/>
      </g>
      <g id="Group_1113668" data-name="Group 1113668" transform="translate(0.889 82.545)">
        <path id="Path_904486" data-name="Path 904486" d="M65.573,125.12H8.371a.87.87,0,0,1-.871-.871V90.027a.87.87,0,0,1,.871-.871h57.2a.87.87,0,0,1,.871.871V124.25A.87.87,0,0,1,65.573,125.12Z" transform="translate(-7.5 -89.156)" fill="#b6edff"/>
      </g>
      <g id="Group_1113669" data-name="Group 1113669" transform="translate(5.149 82.545)">
        <path id="Path_904487" data-name="Path 904487" d="M92.062,97.638H45.2a1.781,1.781,0,0,1-1.781-1.781v-6.7H93.843v6.7A1.781,1.781,0,0,1,92.062,97.638Z" transform="translate(-43.419 -89.156)" fill="#fdfcfc"/>
      </g>
      <g id="Group_1113670" data-name="Group 1113670" transform="translate(55.405 82.545)">
        <path id="Path_904488" data-name="Path 904488" d="M470.718,89.156H467.16a.87.87,0,0,1,.871.871V124.25a.87.87,0,0,1-.871.871h3.558a.87.87,0,0,0,.871-.871V90.027A.87.87,0,0,0,470.718,89.156Z" transform="translate(-467.16 -89.156)" fill="#92edfc"/>
      </g>
      <g id="Group_1113671" data-name="Group 1113671" transform="translate(50.235 82.545)">
        <path id="Path_904489" data-name="Path 904489" d="M425.348,89.156v6.7a1.781,1.781,0,0,1-1.781,1.781h3.558a1.781,1.781,0,0,0,1.781-1.781v-6.7Z" transform="translate(-423.567 -89.156)" fill="#eef0f0"/>
      </g>
      <g id="Group_1113672" data-name="Group 1113672" transform="translate(3.304 90.526)">
        <circle id="Ellipse_11867" data-name="Ellipse 11867" cx="10.109" cy="10.109" r="10.109" transform="translate(0 14.294) rotate(-45)" fill="#fdfcfc"/>
      </g>
      <g id="Group_1113673" data-name="Group 1113673" transform="translate(15.825 94.713)">
        <path id="Path_904490" data-name="Path 904490" d="M135.209,191.747a10.155,10.155,0,0,0-1.779.159,10.107,10.107,0,0,1,0,19.9,10.108,10.108,0,1,0,1.779-20.059Z" transform="translate(-133.43 -191.747)" fill="#eef0f0"/>
      </g>
      <g id="Group_1113674" data-name="Group 1113674" transform="translate(0 81.656)">
        <path id="Path_904491" data-name="Path 904491" d="M58.963,81.656H1.76A1.762,1.762,0,0,0,0,83.416v34.223a1.762,1.762,0,0,0,1.76,1.76H3.568v1.06a2.554,2.554,0,0,0,2.551,2.551H53.892a2.554,2.554,0,0,0,2.551-2.551V119.4h2.52a1.762,1.762,0,0,0,1.76-1.76V83.416a1.762,1.762,0,0,0-1.76-1.76Zm-29.62,8.482v-6.7H31.38v6.7Zm-23.3-6.7H27.564v6.7H6.93a.892.892,0,0,1-.891-.891ZM58.944,117.62H28.454a.889.889,0,1,0,0,1.779h26.21v1.06a.773.773,0,0,1-.772.772H6.119a.773.773,0,0,1-.772-.772V119.4H24.9a.889.889,0,1,0,0-1.779H1.779V83.435H4.26v5.812a2.673,2.673,0,0,0,2.67,2.67H38.322a.889.889,0,0,0,0-1.779H33.159v-6.7H54.684v5.812a.892.892,0,0,1-.891.891H41.881a.889.889,0,0,0,0,1.779H53.793a2.673,2.673,0,0,0,2.67-2.67V83.435h2.481Z" transform="translate(0 -81.656)"/>
        <path id="Path_904492" data-name="Path 904492" d="M66.692,184.247a11,11,0,1,0,11,11,11.011,11.011,0,0,0-11-11Zm0,20.218a9.22,9.22,0,1,1,9.22-9.22A9.23,9.23,0,0,1,66.692,204.465Z" transform="translate(-49.088 -172.08)"/>
        <path id="Path_904493" data-name="Path 904493" d="M101.976,223.5l.4-.4a.889.889,0,0,0-1.258-1.258L99.46,223.5H97.242v-2.219l1.656-1.656a.889.889,0,0,0-1.258-1.258l-.4.4V218.2a.889.889,0,0,0-1.779,0v.563l-.4-.4a.889.889,0,0,0-1.258,1.258l1.656,1.656V223.5H93.244l-1.656-1.656A.889.889,0,0,0,90.33,223.1l.4.4h-.563a.889.889,0,1,0,0,1.779h.563l-.4.4a.889.889,0,1,0,1.258,1.258l1.656-1.656h2.219V227.5l-1.656,1.656a.889.889,0,1,0,1.258,1.258l.4-.4v.563a.889.889,0,1,0,1.779,0v-.563l.4.4a.889.889,0,0,0,1.258-1.258L97.242,227.5V225.28H99.46l1.656,1.656a.889.889,0,0,0,1.258-1.258l-.4-.4h.563a.889.889,0,1,0,0-1.779Z" transform="translate(-78.687 -201.225)"/>
        <path id="Path_904494" data-name="Path 904494" d="M390.491,268.849h-7.98a.889.889,0,1,0,0,1.779h7.98a.889.889,0,1,0,0-1.779Z" transform="translate(-336.362 -246.648)"/>
        <path id="Path_904495" data-name="Path 904495" d="M390.491,299.527h-7.98a.889.889,0,0,0,0,1.779h7.98a.889.889,0,1,0,0-1.779Z" transform="translate(-336.362 -273.688)"/>
        <path id="Path_904496" data-name="Path 904496" d="M390.491,330.205h-7.98a.889.889,0,1,0,0,1.779h7.98a.889.889,0,1,0,0-1.779Z" transform="translate(-336.362 -300.727)"/>
      </g>
    </g>
  </g>
</svg>
