<svg xmlns="http://www.w3.org/2000/svg" xmlns:xlink="http://www.w3.org/1999/xlink" width="108.914" height="108.914" viewBox="0 0 108.914 108.914">
  <defs>
    <filter id="Path_874925" x="0" y="0" width="108.914" height="108.914" filterUnits="userSpaceOnUse">
      <feOffset dy="3" input="SourceAlpha"/>
      <feGaussianBlur stdDeviation="3" result="blur"/>
      <feFlood flood-opacity="0.161"/>
      <feComposite operator="in" in2="blur"/>
      <feComposite in="SourceGraphic"/>
    </filter>
  </defs>
  <g id="Group_1113583" data-name="Group 1113583" transform="translate(270.999 1235)">
    <g id="Group_1109835" data-name="Group 1109835" transform="translate(-1070.5 -3181.211)">
      <g id="Group_1107913" data-name="Group 1107913" transform="translate(808.5 1952.211)">
        <g transform="matrix(1, 0, 0, 1, -9, -6)" filter="url(#Path_874925)">
          <g id="Path_874925-2" data-name="Path 874925" transform="translate(9 6)" fill="#65a532" opacity="0.859">
            <path d="M 45.45676803588867 89.41407012939453 C 39.52198028564453 89.41407012939453 33.76551818847656 88.25206756591797 28.34726715087891 85.96034240722656 C 23.11311721801758 83.74648284912109 18.41204261779785 80.57682800292969 14.37464332580566 76.5394287109375 C 10.33724308013916 72.50202941894531 7.167593002319336 67.80095672607422 4.953730583190918 62.56679534912109 C 2.662005424499512 57.14855575561523 1.500005483627319 51.39208221435547 1.500005483627319 45.45729446411133 C 1.500005483627319 39.52198028564453 2.662005424499512 33.76551818847656 4.953730583190918 28.34726905822754 C 7.167593002319336 23.11310577392578 10.33724308013916 18.41203117370605 14.37464332580566 14.37464332580566 C 18.41204261779785 10.33724403381348 23.11311721801758 7.167593955993652 28.34726715087891 4.953731060028076 C 33.76551818847656 2.662006139755249 39.52198028564453 1.500006198883057 45.45676803588867 1.500006198883057 C 51.39155578613281 1.500006198883057 57.14802932739258 2.662006139755249 62.56626892089844 4.953731060028076 C 67.80043029785156 7.167593955993652 72.50150299072266 10.33724403381348 76.53890228271484 14.37464332580566 C 80.57630920410156 18.41203117370605 83.74595642089844 23.11310577392578 85.95981597900391 28.34726905822754 C 88.25154113769531 33.76551818847656 89.41354370117188 39.52198028564453 89.41354370117188 45.45676803588867 C 89.41354370117188 51.39208221435547 88.25154113769531 57.14855575561523 85.95981597900391 62.56679534912109 C 83.74595642089844 67.80095672607422 80.57630920410156 72.50202941894531 76.53890228271484 76.5394287109375 C 72.50150299072266 80.57682800292969 67.80043029785156 83.74648284912109 62.56626892089844 85.96034240722656 C 57.14802932739258 88.25206756591797 51.39155578613281 89.41407012939453 45.45676803588867 89.41407012939453 Z" stroke="none"/>
            <path d="M 45.45676803588867 3 C 39.72381210327148 3 34.1639404296875 4.12213134765625 28.93159484863281 6.335227966308594 C 23.87622833251953 8.473472595214844 19.33542633056641 11.53517150878906 15.43529510498047 15.435302734375 C 11.53517150878906 19.33543395996094 8.473464965820312 23.87622833251953 6.335227966308594 28.93160247802734 C 4.122123718261719 34.16394424438477 3 39.72381591796875 3 45.4572868347168 C 3 51.19024658203125 4.122123718261719 56.75011825561523 6.335227966308594 61.98246002197266 C 8.473464965820312 67.03782653808594 11.53517150878906 71.57862854003906 15.43529510498047 75.478759765625 C 19.33542633056641 79.37889099121094 23.87622833251953 82.44058990478516 28.93159484863281 84.57883453369141 C 34.1639404296875 86.79193115234375 39.72381210327148 87.9140625 45.45676803588867 87.9140625 C 51.18972396850586 87.9140625 56.74959564208984 86.79193115234375 61.98194122314453 84.57883453369141 C 67.03730773925781 82.44058990478516 71.57810974121094 79.37889099121094 75.47824096679688 75.478759765625 C 79.37837219238281 71.57862854003906 82.44007110595703 67.03782653808594 84.57830810546875 61.98246002197266 C 86.79141235351562 56.75011825561523 87.91353607177734 51.19024658203125 87.91353607177734 45.4567756652832 C 87.91353607177734 39.72381591796875 86.79141235351562 34.16394424438477 84.57830810546875 28.93160247802734 C 82.44007110595703 23.87622833251953 79.37837219238281 19.33543395996094 75.47824096679688 15.435302734375 C 71.57810974121094 11.53517150878906 67.03730773925781 8.473472595214844 61.98194122314453 6.335227966308594 C 56.74959564208984 4.12213134765625 51.18972396850586 3 45.45676803588867 3 M 45.45676803588867 0 C 70.56185150146484 0 90.91353607177734 20.35169219970703 90.91353607177734 45.4567756652832 L 90.91353607177734 45.4572868347168 C 90.91353607177734 70.5623779296875 70.56185150146484 90.9140625 45.45676803588867 90.9140625 C 20.3516845703125 90.9140625 0 70.5623779296875 0 45.4572868347168 L 0 45.4567756652832 C 0 20.35169219970703 20.3516845703125 0 45.45676803588867 0 Z" stroke="none" fill="#fff"/>
          </g>
        </g>
        <g id="Path_874923" data-name="Path 874923" transform="translate(0 0)" fill="none">
          <path d="M45.457,0A45.457,45.457,0,0,1,90.914,45.457h0A45.457,45.457,0,0,1,0,45.457H0A45.457,45.457,0,0,1,45.457,0Z" stroke="none"/>
          <path d="M 45.45676803588867 3 C 39.72381210327148 3 34.1639404296875 4.12213134765625 28.93159484863281 6.335227966308594 C 23.87622833251953 8.473472595214844 19.33542633056641 11.53517150878906 15.43529510498047 15.435302734375 C 11.53517150878906 19.33543395996094 8.473464965820312 23.87622833251953 6.335227966308594 28.93160247802734 C 4.122123718261719 34.16394424438477 3 39.72381591796875 3 45.4572868347168 C 3 51.19024658203125 4.122123718261719 56.75011825561523 6.335227966308594 61.98246002197266 C 8.473464965820312 67.03782653808594 11.53517150878906 71.57862854003906 15.43529510498047 75.478759765625 C 19.33542633056641 79.37889099121094 23.87622833251953 82.44058990478516 28.93159484863281 84.57883453369141 C 34.1639404296875 86.79193115234375 39.72381210327148 87.9140625 45.45676803588867 87.9140625 C 51.18972396850586 87.9140625 56.74959564208984 86.79193115234375 61.98194122314453 84.57883453369141 C 67.03730773925781 82.44058990478516 71.57810974121094 79.37889099121094 75.47824096679688 75.478759765625 C 79.37837219238281 71.57862854003906 82.44007110595703 67.03782653808594 84.57830810546875 61.98246002197266 C 86.79141235351562 56.75011825561523 87.91353607177734 51.19024658203125 87.91353607177734 45.4567756652832 C 87.91353607177734 39.72381591796875 86.79141235351562 34.16394424438477 84.57830810546875 28.93160247802734 C 82.44007110595703 23.87622833251953 79.37837219238281 19.33543395996094 75.47824096679688 15.435302734375 C 71.57810974121094 11.53517150878906 67.03730773925781 8.473472595214844 61.98194122314453 6.335227966308594 C 56.74959564208984 4.12213134765625 51.18972396850586 3 45.45676803588867 3 M 45.45676803588867 0 C 70.56185150146484 0 90.91353607177734 20.35169219970703 90.91353607177734 45.4567756652832 L 90.91353607177734 45.4572868347168 C 90.91353607177734 70.5623779296875 70.56185150146484 90.9140625 45.45676803588867 90.9140625 C 20.3516845703125 90.9140625 0 70.5623779296875 0 45.4572868347168 L 0 45.4567756652832 C 0 20.35169219970703 20.3516845703125 0 45.45676803588867 0 Z" stroke="none" fill="#fff"/>
        </g>
      </g>
    </g>
    <g id="Group_1113582" data-name="Group 1113582" transform="translate(-242 -1207.121)">
      <path id="Path_904374" data-name="Path 904374" d="M8,12.34,33.576,9.527l5.068,26.73L13.068,40.675Zm0,0" transform="translate(-7.152 -8.409)" fill="#fff"/>
      <path id="Path_904375" data-name="Path 904375" d="M5.916,34.37a.848.848,0,0,1-.834-.7L.013,5.335a.848.848,0,0,1,.742-.992L26.331,1.53a.848.848,0,0,1,.927.685l5.068,26.73a.848.848,0,0,1-.689.994L6.061,34.358A.9.9,0,0,1,5.916,34.37ZM1.844,5.93,6.6,32.542l23.9-4.127L25.737,3.3Zm0,0" transform="translate(0 -1.255)"/>
      <path id="Path_904376" data-name="Path 904376" d="M46.074,73.875l4.587-.774.8,4.444-4.588.773Zm0,0" transform="translate(-41.189 -65.242)" fill="#45c9a5"/>
      <path id="Path_904377" data-name="Path 904377" d="M39.721,72.017a.848.848,0,0,1-.834-.7l-.8-4.443a.849.849,0,0,1,.694-.987l4.587-.774a.848.848,0,0,1,.976.686l.8,4.443a.849.849,0,0,1-.694.987L39.863,72A.868.868,0,0,1,39.721,72.017Zm.189-4.6.5,2.773,2.914-.492-.5-2.773Zm0,0" transform="translate(-34.037 -58.091)"/>
      <path id="Path_904378" data-name="Path 904378" d="M62.3,124.4l19-3.282.289,1.672-19,3.282Zm0,0" transform="translate(-55.698 -108.166)"/>
      <path id="Path_904379" data-name="Path 904379" d="M226.89,11.8,201.314,9.527l-5.068,26.73,25.576,4.418Zm0,0" transform="translate(-175.437 -8.409)" fill="#fff"/>
      <path id="Path_904380" data-name="Path 904380" d="M214.67,34.37a.918.918,0,0,1-.145-.012L188.949,29.94a.847.847,0,0,1-.689-.994l5.068-26.73a.849.849,0,0,1,.909-.687l25.576,2.277a.848.848,0,0,1,.76.992L215.5,33.669A.848.848,0,0,1,214.67,34.37Zm-24.583-5.955,23.893,4.127,4.762-27.128L194.852,3.287Zm0,0" transform="translate(-168.284 -1.255)"/>
      <path id="Path_904381" data-name="Path 904381" d="M400.884,72.229,396.1,71.4l-.834,4.75,4.789.827Zm0,0" transform="translate(-353.35 -63.723)" fill="#45c9a5"/>
      <path id="Path_904382" data-name="Path 904382" d="M392.9,70.675a.873.873,0,0,1-.145-.013l-4.789-.827a.848.848,0,0,1-.691-.982l.834-4.75a.847.847,0,0,1,.98-.689l4.789.827a.848.848,0,0,1,.691.982l-.834,4.75A.849.849,0,0,1,392.9,70.675Zm-3.807-2.367,3.117.538.541-3.079-3.118-.539Zm0,0" transform="translate(-346.197 -56.57)"/>
      <path id="Path_904383" data-name="Path 904383" d="M249.023,122.8l.289-1.672,19,3.282-.289,1.672Zm0,0" transform="translate(-222.618 -108.177)"/>
      <path id="Path_904384" data-name="Path 904384" d="M126.75,8.121h25.961V37.427H126.75Zm0,0" transform="translate(-113.31 -7.152)" fill="#fff"/>
      <path id="Path_904385" data-name="Path 904385" d="M145.559,31.124H119.6a.849.849,0,0,1-.848-.848V.969A.849.849,0,0,1,119.6.121h25.961a.849.849,0,0,1,.848.848V30.276A.849.849,0,0,1,145.559,31.124Zm-25.112-1.7h24.264V1.818H120.447Zm0,0" transform="translate(-106.158)"/>
      <path id="Path_904386" data-name="Path 904386" d="M160.867,42.391h9.371v9.3h-9.371Zm0,0" transform="translate(-143.81 -37.787)" fill="#f86252"/>
      <path id="Path_904387" data-name="Path 904387" d="M163.086,45.383h-9.371a.849.849,0,0,1-.848-.848v-9.3a.848.848,0,0,1,.848-.848h9.371a.849.849,0,0,1,.848.848v9.3A.848.848,0,0,1,163.086,45.383Zm-8.523-1.7h7.674v-7.6h-7.674Zm0,0" transform="translate(-136.658 -30.636)"/>
      <path id="Path_904388" data-name="Path 904388" d="M176.867,58.387h5.978v5.9h-5.978Zm0,0" transform="translate(-158.113 -52.087)" fill="#fff"/>
      <g id="Group_1113581" data-name="Group 1113581" transform="translate(16.664 5.509)">
        <path id="Path_904389" data-name="Path 904389" d="M287.773,50.934h6.232v1.7h-6.232Zm0,0" transform="translate(-273.924 -50.934)"/>
        <path id="Path_904390" data-name="Path 904390" d="M287.773,93.992h6.232v1.7h-6.232Zm0,0" transform="translate(-273.924 -89.426)"/>
        <path id="Path_904391" data-name="Path 904391" d="M157.16,167.473h10.311v1.7H157.16Zm0,0" transform="translate(-157.16 -155.115)"/>
      </g>
      <path id="Path_904392" data-name="Path 904392" d="M74.575,177.953H57.684a2.166,2.166,0,0,0-1.482.585l-4.513,4.231H28.809a.537.537,0,0,0-.539.566l1.556,21.912a.538.538,0,0,0,.539.5H73.01a.537.537,0,0,0,.538-.509l1.566-26.729A.538.538,0,0,0,74.575,177.953Zm0,0" transform="translate(-25.271 -158.976)" fill="#fff"/>
      <path id="Path_904393" data-name="Path 904393" d="M65.862,199.452H23.217a1.387,1.387,0,0,1-1.385-1.3l-1.556-21.9a1.385,1.385,0,0,1,1.385-1.474H44.206l4.268-4a3,3,0,0,1,2.062-.814H67.428a1.386,1.386,0,0,1,1.386,1.453l-1.566,26.736A1.382,1.382,0,0,1,65.862,199.452Zm-.308-1.4v.006Zm-42.03-.015v.007S23.524,198.035,23.524,198.032Zm-.02-.277H65.572l1.529-26.1H50.537a1.312,1.312,0,0,0-.9.355l-4.757,4.461H21.993Zm0,0" transform="translate(-18.124 -151.827)"/>
      <path id="Path_904394" data-name="Path 904394" d="M46.466,218.359l-1.391-19.59h22.31l5-4.69a.471.471,0,0,1,.322-.126H88.372l-1.43,24.406Zm0,0" transform="translate(-40.295 -173.279)" fill="#f8bc5c"/>
      <path id="Path_904395" data-name="Path 904395" d="M184.5,294.664H168.306c-.138,0-.246.168-.233.363l.425,6.4c.012.171.112.3.233.3h15.34c.121,0,.222-.13.233-.3l.425-6.4C184.742,294.832,184.634,294.664,184.5,294.664Zm0,0" transform="translate(-150.251 -263.311)" fill="#fff"/>
      <path id="Path_904396" data-name="Path 904396" d="M176.925,295.419H161.584a1.115,1.115,0,0,1-1.079-1.093l-.424-6.4A1.243,1.243,0,0,1,160.4,287a1.033,1.033,0,0,1,.76-.336H177.35a1.032,1.032,0,0,1,.76.335,1.243,1.243,0,0,1,.32.932l-.425,6.4A1.115,1.115,0,0,1,176.925,295.419Zm-14.76-1.7h14.179l.356-5.363H161.809Zm0,0" transform="translate(-143.104 -256.159)"/>
      <path id="Path_904397" data-name="Path 904397" d="M198.953,319.949h10.11v1.7h-10.11Zm0,0" transform="translate(-177.857 -285.915)"/>
    </g>
  </g>
</svg>
