<svg xmlns="http://www.w3.org/2000/svg" width="79" height="79" viewBox="0 0 79 79">
  <g id="Group_1113926" data-name="Group 1113926" transform="translate(-295.384 -8220)">
    <circle id="Ellipse_11783" data-name="Ellipse 11783" cx="39.5" cy="39.5" r="39.5" transform="translate(295.384 8220)" fill="#fff"/>
    <g id="_x32_58_x2C__Book_x2C__Contacts_x2C__Phone_Book" transform="translate(307.175 8231.791)">
      <g id="Group_1113924" data-name="Group 1113924" transform="translate(0 0)">
        <path id="Path_904954" data-name="Path 904954" d="M147.175,52.176h5.294V33.667A2.667,2.667,0,0,0,149.8,31H118.667A2.667,2.667,0,0,0,116,33.667V78.919a2.667,2.667,0,0,0,2.667,2.667H149.8a2.667,2.667,0,0,0,2.667-2.667V60.411h-5.294a4.117,4.117,0,1,1,0-8.235Z" transform="translate(-104.236 -29.824)" fill="#30c9b0"/>
        <g id="Group_1113923" data-name="Group 1113923" transform="translate(1.176 7.059)">
          <path id="Path_904955" data-name="Path 904955" d="M457.765,81A1.765,1.765,0,1,1,456,82.765,1.765,1.765,0,0,1,457.765,81Z" transform="translate(-405.414 -81)" fill="#ff4f4f"/>
          <path id="Path_904956" data-name="Path 904956" d="M37.765,171A1.765,1.765,0,1,1,36,172.765,1.765,1.765,0,0,1,37.765,171Z" transform="translate(-34.824 -160.412)" fill="#ff4f4f"/>
          <path id="Path_904957" data-name="Path 904957" d="M28.941,431A2.941,2.941,0,1,1,26,433.941,2.941,2.941,0,0,1,28.941,431Z" transform="translate(-26 -389.825)" fill="#ff4f4f"/>
        </g>
        <path id="Path_904958" data-name="Path 904958" d="M355.411,211h-5.294a4.117,4.117,0,0,0,0,8.235h8.823V211Z" transform="translate(-307.178 -188.648)" fill="#27a089"/>
        <path id="Path_904959" data-name="Path 904959" d="M196,86.882V81h21.176v9.411H196Z" transform="translate(-174.824 -73.941)" fill="#fbc640"/>
        <path id="Path_904960" data-name="Path 904960" d="M467.176,321A1.176,1.176,0,1,1,466,322.176,1.177,1.177,0,0,1,467.176,321Z" transform="translate(-413.061 -285.707)"/>
        <path id="Path_904961" data-name="Path 904961" d="M447.176,431A1.176,1.176,0,1,1,446,432.176,1.177,1.177,0,0,1,447.176,431Z" transform="translate(-395.414 -382.767)"/>
        <path id="Path_904962" data-name="Path 904962" d="M377.176,236A1.176,1.176,0,1,1,376,237.176,1.177,1.177,0,0,1,377.176,236Z" transform="translate(-333.649 -210.707)"/>
        <path id="Path_904963" data-name="Path 904963" d="M317.176,391A1.176,1.176,0,1,1,316,392.176,1.177,1.177,0,0,1,317.176,391Z" transform="translate(-280.707 -347.472)"/>
        <path id="Path_904964" data-name="Path 904964" d="M37.176,31A1.176,1.176,0,1,1,36,32.176,1.177,1.177,0,0,1,37.176,31Z" transform="translate(-33.647 -29.824)"/>
        <path id="Path_904965" data-name="Path 904965" d="M37.176,271A1.176,1.176,0,1,1,36,272.176,1.177,1.177,0,0,1,37.176,271Z" transform="translate(-33.647 -241.589)"/>
        <path id="Path_904966" data-name="Path 904966" d="M140.979,73.939H109.843A3.848,3.848,0,0,1,106,70.1V24.843A3.848,3.848,0,0,1,109.843,21h31.135a3.848,3.848,0,0,1,3.843,3.843V43.352a1.176,1.176,0,0,1-2.353,0V24.843a1.492,1.492,0,0,0-1.491-1.491H109.843a1.492,1.492,0,0,0-1.491,1.491V70.1a1.492,1.492,0,0,0,1.491,1.491h31.135a1.492,1.492,0,0,0,1.491-1.491V51.587a1.176,1.176,0,0,1,2.353,0V70.1a3.848,3.848,0,0,1-3.843,3.843Z" transform="translate(-95.412 -21)"/>
        <path id="Path_904967" data-name="Path 904967" d="M84.235,76.882H78.941a2.941,2.941,0,0,1,0-5.882h1.765a1.176,1.176,0,1,1,0,2.353H78.941a.588.588,0,0,0,0,1.176h5.294a.579.579,0,0,0,.416-.173.588.588,0,0,0-.416-1,1.176,1.176,0,1,1,0-2.353,2.941,2.941,0,0,1,0,5.882Z" transform="translate(-68.941 -65.118)"/>
        <path id="Path_904968" data-name="Path 904968" d="M84.235,136.882H78.941a2.941,2.941,0,0,1,0-5.882h1.765a1.176,1.176,0,0,1,0,2.353H78.941a.588.588,0,0,0,0,1.176h5.294a.579.579,0,0,0,.416-.173.588.588,0,0,0-.416-1,1.176,1.176,0,0,1,0-2.353,2.941,2.941,0,0,1,0,5.882Z" transform="translate(-68.941 -118.059)"/>
        <path id="Path_904969" data-name="Path 904969" d="M84.235,196.882H78.941a2.941,2.941,0,0,1,0-5.882h1.765a1.176,1.176,0,1,1,0,2.353H78.941a.588.588,0,1,0,0,1.176h5.294a.579.579,0,0,0,.416-.173.588.588,0,0,0-.416-1,1.176,1.176,0,1,1,0-2.353,2.941,2.941,0,0,1,0,5.882Z" transform="translate(-68.941 -171.001)"/>
        <path id="Path_904970" data-name="Path 904970" d="M84.235,256.882H78.941a2.941,2.941,0,0,1,0-5.882h1.765a1.176,1.176,0,1,1,0,2.353H78.941a.588.588,0,0,0,0,1.176h5.294a.578.578,0,0,0,.416-.173.588.588,0,0,0-.416-1,1.176,1.176,0,0,1,0-2.353,2.941,2.941,0,0,1,0,5.882Z" transform="translate(-68.941 -223.942)"/>
        <path id="Path_904971" data-name="Path 904971" d="M84.235,316.882H78.941a2.941,2.941,0,0,1,0-5.882h1.765a1.176,1.176,0,1,1,0,2.353H78.941a.588.588,0,1,0,0,1.176h5.294a.578.578,0,0,0,.416-.173.588.588,0,0,0-.416-1,1.176,1.176,0,1,1,0-2.353,2.941,2.941,0,0,1,0,5.882Z" transform="translate(-68.941 -276.884)"/>
        <path id="Path_904972" data-name="Path 904972" d="M84.235,376.882H78.941a2.941,2.941,0,0,1,0-5.882h1.765a1.176,1.176,0,1,1,0,2.353H78.941a.588.588,0,1,0,0,1.176h5.294a.578.578,0,0,0,.416-.173.588.588,0,0,0-.416-1,1.176,1.176,0,1,1,0-2.353,2.941,2.941,0,0,1,0,5.882Z" transform="translate(-68.941 -329.825)"/>
        <path id="Path_904973" data-name="Path 904973" d="M20.117,429.235a4.117,4.117,0,1,1,4.117-4.117A4.122,4.122,0,0,1,20.117,429.235Zm0-5.882a1.765,1.765,0,1,0,1.765,1.765A1.767,1.767,0,0,0,20.117,423.353Z" transform="translate(-16 -373.943)"/>
        <path id="Path_904974" data-name="Path 904974" d="M28.941,166.882a2.941,2.941,0,1,1,2.941-2.941A2.944,2.944,0,0,1,28.941,166.882Zm0-3.529a.588.588,0,1,0,.588.588A.589.589,0,0,0,28.941,163.353Z" transform="translate(-24.824 -144.53)"/>
        <path id="Path_904975" data-name="Path 904975" d="M448.941,76.882a2.941,2.941,0,1,1,2.941-2.941A2.944,2.944,0,0,1,448.941,76.882Zm0-3.529a.588.588,0,1,0,.588.588A.589.589,0,0,0,448.941,73.353Z" transform="translate(-395.414 -65.118)"/>
        <path id="Path_904976" data-name="Path 904976" d="M350.117,211.588h-8.823a5.294,5.294,0,1,1,0-10.588h8.823a1.176,1.176,0,0,1,1.176,1.176v8.235A1.176,1.176,0,0,1,350.117,211.588Zm-8.823-8.235a2.941,2.941,0,1,0,0,5.882h7.647v-5.882Z" transform="translate(-298.354 -179.824)"/>
        <path id="Path_904977" data-name="Path 904977" d="M208.352,82.764H187.176A1.176,1.176,0,0,1,186,81.588V72.176A1.176,1.176,0,0,1,187.176,71h21.176a1.176,1.176,0,0,1,1.176,1.176v9.411A1.176,1.176,0,0,1,208.352,82.764Zm-20-2.353h18.823V73.353H188.353Z" transform="translate(-166.001 -65.118)"/>
        <path id="Path_904978" data-name="Path 904978" d="M217.176,333.353h-20a1.176,1.176,0,0,1,0-2.353h20a1.176,1.176,0,1,1,0,2.353Z" transform="translate(-174.824 -294.531)"/>
        <path id="Path_904979" data-name="Path 904979" d="M217.176,363.353h-20a1.176,1.176,0,1,1,0-2.353h20a1.176,1.176,0,0,1,0,2.353Z" transform="translate(-174.824 -321.002)"/>
        <path id="Path_904980" data-name="Path 904980" d="M207.764,393.353H197.176a1.176,1.176,0,1,1,0-2.353h10.588a1.176,1.176,0,1,1,0,2.353Z" transform="translate(-174.824 -347.472)"/>
        <path id="Path_904981" data-name="Path 904981" d="M198.941,123.353H187.176a1.176,1.176,0,0,1,0-2.353h11.764a1.176,1.176,0,0,1,0,2.353Z" transform="translate(-166.001 -109.236)"/>
      </g>
    </g>
  </g>
</svg>
