<svg xmlns="http://www.w3.org/2000/svg" xmlns:xlink="http://www.w3.org/1999/xlink" width="108.914" height="108.914" viewBox="0 0 108.914 108.914">
  <defs>
    <filter id="Path_874925" x="0" y="0" width="108.914" height="108.914" filterUnits="userSpaceOnUse">
      <feOffset dy="3" input="SourceAlpha"/>
      <feGaussianBlur stdDeviation="3" result="blur"/>
      <feFlood flood-opacity="0.161"/>
      <feComposite operator="in" in2="blur"/>
      <feComposite in="SourceGraphic"/>
    </filter>
  </defs>
  <g id="Group_1113657" data-name="Group 1113657" transform="translate(-357.001 1235)">
    <g id="Group_1109835" data-name="Group 1109835" transform="translate(-442.5 -3181.211)">
      <g id="Group_1107913" data-name="Group 1107913" transform="translate(808.5 1952.211)">
        <g transform="matrix(1, 0, 0, 1, -9, -6)" filter="url(#Path_874925)">
          <g id="Path_874925-2" data-name="Path 874925" transform="translate(9 6)" fill="#65a532" opacity="0.859">
            <path d="M 45.45676803588867 89.41407012939453 C 39.52198028564453 89.41407012939453 33.76551818847656 88.25206756591797 28.34726715087891 85.96034240722656 C 23.11311721801758 83.74648284912109 18.41204261779785 80.57682800292969 14.37464332580566 76.5394287109375 C 10.33724308013916 72.50202941894531 7.167593002319336 67.80095672607422 4.953730583190918 62.56679534912109 C 2.662005424499512 57.14855575561523 1.500005483627319 51.39208221435547 1.500005483627319 45.45729446411133 C 1.500005483627319 39.52198028564453 2.662005424499512 33.76551818847656 4.953730583190918 28.34726905822754 C 7.167593002319336 23.11310577392578 10.33724308013916 18.41203117370605 14.37464332580566 14.37464332580566 C 18.41204261779785 10.33724403381348 23.11311721801758 7.167593955993652 28.34726715087891 4.953731060028076 C 33.76551818847656 2.662006139755249 39.52198028564453 1.500006198883057 45.45676803588867 1.500006198883057 C 51.39155578613281 1.500006198883057 57.14802932739258 2.662006139755249 62.56626892089844 4.953731060028076 C 67.80043029785156 7.167593955993652 72.50150299072266 10.33724403381348 76.53890228271484 14.37464332580566 C 80.57630920410156 18.41203117370605 83.74595642089844 23.11310577392578 85.95981597900391 28.34726905822754 C 88.25154113769531 33.76551818847656 89.41354370117188 39.52198028564453 89.41354370117188 45.45676803588867 C 89.41354370117188 51.39208221435547 88.25154113769531 57.14855575561523 85.95981597900391 62.56679534912109 C 83.74595642089844 67.80095672607422 80.57630920410156 72.50202941894531 76.53890228271484 76.5394287109375 C 72.50150299072266 80.57682800292969 67.80043029785156 83.74648284912109 62.56626892089844 85.96034240722656 C 57.14802932739258 88.25206756591797 51.39155578613281 89.41407012939453 45.45676803588867 89.41407012939453 Z" stroke="none"/>
            <path d="M 45.45676803588867 3 C 39.72381210327148 3 34.1639404296875 4.12213134765625 28.93159484863281 6.335227966308594 C 23.87622833251953 8.473472595214844 19.33542633056641 11.53517150878906 15.43529510498047 15.435302734375 C 11.53517150878906 19.33543395996094 8.473464965820312 23.87622833251953 6.335227966308594 28.93160247802734 C 4.122123718261719 34.16394424438477 3 39.72381591796875 3 45.4572868347168 C 3 51.19024658203125 4.122123718261719 56.75011825561523 6.335227966308594 61.98246002197266 C 8.473464965820312 67.03782653808594 11.53517150878906 71.57862854003906 15.43529510498047 75.478759765625 C 19.33542633056641 79.37889099121094 23.87622833251953 82.44058990478516 28.93159484863281 84.57883453369141 C 34.1639404296875 86.79193115234375 39.72381210327148 87.9140625 45.45676803588867 87.9140625 C 51.18972396850586 87.9140625 56.74959564208984 86.79193115234375 61.98194122314453 84.57883453369141 C 67.03730773925781 82.44058990478516 71.57810974121094 79.37889099121094 75.47824096679688 75.478759765625 C 79.37837219238281 71.57862854003906 82.44007110595703 67.03782653808594 84.57830810546875 61.98246002197266 C 86.79141235351562 56.75011825561523 87.91353607177734 51.19024658203125 87.91353607177734 45.4567756652832 C 87.91353607177734 39.72381591796875 86.79141235351562 34.16394424438477 84.57830810546875 28.93160247802734 C 82.44007110595703 23.87622833251953 79.37837219238281 19.33543395996094 75.47824096679688 15.435302734375 C 71.57810974121094 11.53517150878906 67.03730773925781 8.473472595214844 61.98194122314453 6.335227966308594 C 56.74959564208984 4.12213134765625 51.18972396850586 3 45.45676803588867 3 M 45.45676803588867 0 C 70.56185150146484 0 90.91353607177734 20.35169219970703 90.91353607177734 45.4567756652832 L 90.91353607177734 45.4572868347168 C 90.91353607177734 70.5623779296875 70.56185150146484 90.9140625 45.45676803588867 90.9140625 C 20.3516845703125 90.9140625 0 70.5623779296875 0 45.4572868347168 L 0 45.4567756652832 C 0 20.35169219970703 20.3516845703125 0 45.45676803588867 0 Z" stroke="none" fill="#fff"/>
          </g>
        </g>
        <g id="Path_874923" data-name="Path 874923" transform="translate(0 0)" fill="none">
          <path d="M45.457,0A45.457,45.457,0,0,1,90.914,45.457h0A45.457,45.457,0,0,1,0,45.457H0A45.457,45.457,0,0,1,45.457,0Z" stroke="none"/>
          <path d="M 45.45676803588867 3 C 39.72381210327148 3 34.1639404296875 4.12213134765625 28.93159484863281 6.335227966308594 C 23.87622833251953 8.473472595214844 19.33542633056641 11.53517150878906 15.43529510498047 15.435302734375 C 11.53517150878906 19.33543395996094 8.473464965820312 23.87622833251953 6.335227966308594 28.93160247802734 C 4.122123718261719 34.16394424438477 3 39.72381591796875 3 45.4572868347168 C 3 51.19024658203125 4.122123718261719 56.75011825561523 6.335227966308594 61.98246002197266 C 8.473464965820312 67.03782653808594 11.53517150878906 71.57862854003906 15.43529510498047 75.478759765625 C 19.33542633056641 79.37889099121094 23.87622833251953 82.44058990478516 28.93159484863281 84.57883453369141 C 34.1639404296875 86.79193115234375 39.72381210327148 87.9140625 45.45676803588867 87.9140625 C 51.18972396850586 87.9140625 56.74959564208984 86.79193115234375 61.98194122314453 84.57883453369141 C 67.03730773925781 82.44058990478516 71.57810974121094 79.37889099121094 75.47824096679688 75.478759765625 C 79.37837219238281 71.57862854003906 82.44007110595703 67.03782653808594 84.57830810546875 61.98246002197266 C 86.79141235351562 56.75011825561523 87.91353607177734 51.19024658203125 87.91353607177734 45.4567756652832 C 87.91353607177734 39.72381591796875 86.79141235351562 34.16394424438477 84.57830810546875 28.93160247802734 C 82.44007110595703 23.87622833251953 79.37837219238281 19.33543395996094 75.47824096679688 15.435302734375 C 71.57810974121094 11.53517150878906 67.03730773925781 8.473472595214844 61.98194122314453 6.335227966308594 C 56.74959564208984 4.12213134765625 51.18972396850586 3 45.45676803588867 3 M 45.45676803588867 0 C 70.56185150146484 0 90.91353607177734 20.35169219970703 90.91353607177734 45.4567756652832 L 90.91353607177734 45.4572868347168 C 90.91353607177734 70.5623779296875 70.56185150146484 90.9140625 45.45676803588867 90.9140625 C 20.3516845703125 90.9140625 0 70.5623779296875 0 45.4572868347168 L 0 45.4567756652832 C 0 20.35169219970703 20.3516845703125 0 45.45676803588867 0 Z" stroke="none" fill="#fff"/>
        </g>
      </g>
    </g>
    <g id="Group_1113656" data-name="Group 1113656" transform="translate(381.4 -1214)">
      <g id="Group_1113592" data-name="Group 1113592">
        <g id="Group_1113588" data-name="Group 1113588">
          <g id="Group_1113587" data-name="Group 1113587">
            <g id="Group_1113586" data-name="Group 1113586">
              <path id="Path_904420" data-name="Path 904420" d="M19.12,34.95V48.43a5.57,5.57,0,0,1-11.14,0V35.12a16.07,16.07,0,0,1,2.48-.21c2.16,0,2.16.51,4.32.51,2.03,0,2.51-.42,4.34-.47Z" fill="#2ba4f5"/>
            </g>
          </g>
        </g>
        <g id="Group_1113591" data-name="Group 1113591">
          <g id="Group_1113590" data-name="Group 1113590">
            <g id="Group_1113589" data-name="Group 1113589">
              <path id="Path_904421" data-name="Path 904421" d="M13.55,55a6.581,6.581,0,0,1-6.57-6.57V35.12a1.008,1.008,0,0,1,.84-.99,17.3,17.3,0,0,1,2.64-.22,9.167,9.167,0,0,1,2.39.28,7.193,7.193,0,0,0,1.93.23,10.7,10.7,0,0,0,2.18-.22,12.727,12.727,0,0,1,2.13-.25,1.048,1.048,0,0,1,.72.28,1.022,1.022,0,0,1,.3.72V48.43A6.566,6.566,0,0,1,13.55,55ZM8.98,35.99V48.43a4.57,4.57,0,0,0,9.14,0V36.03c-.28.04-.53.08-.79.13a11.962,11.962,0,0,1-2.54.25,9.167,9.167,0,0,1-2.39-.28,7.193,7.193,0,0,0-1.93-.23c-.54.01-1.06.05-1.49.09Z"/>
            </g>
          </g>
        </g>
      </g>
      <g id="Group_1113599" data-name="Group 1113599">
        <g id="Group_1113595" data-name="Group 1113595">
          <g id="Group_1113594" data-name="Group 1113594">
            <g id="Group_1113593" data-name="Group 1113593">
              <path id="Path_904422" data-name="Path 904422" d="M19.12,16.33V34.95c-1.83.05-2.31.47-4.34.47-2.16,0-2.16-.51-4.32-.51a16.07,16.07,0,0,0-2.48.21V16.33Z" fill="#e7eef9"/>
            </g>
          </g>
        </g>
        <g id="Group_1113598" data-name="Group 1113598">
          <g id="Group_1113597" data-name="Group 1113597">
            <g id="Group_1113596" data-name="Group 1113596">
              <path id="Path_904423" data-name="Path 904423" d="M14.78,36.42a9.167,9.167,0,0,1-2.39-.28,7.193,7.193,0,0,0-1.93-.23,14.277,14.277,0,0,0-2.32.2,1.039,1.039,0,0,1-.81-.23,1.011,1.011,0,0,1-.35-.76V16.33a1,1,0,0,1,1-1H19.12a1,1,0,0,1,1,1V34.95a1,1,0,0,1-.97,1,10.281,10.281,0,0,0-1.82.22,12.864,12.864,0,0,1-2.55.25Zm-4.32-2.51a9.167,9.167,0,0,1,2.39.28,7.193,7.193,0,0,0,1.93.23,10.7,10.7,0,0,0,2.18-.22c.36-.07.72-.13,1.16-.18V17.33H8.98V33.98c.45-.04.96-.07,1.48-.07Z"/>
            </g>
          </g>
        </g>
      </g>
      <g id="Group_1113606" data-name="Group 1113606">
        <g id="Group_1113602" data-name="Group 1113602">
          <g id="Group_1113601" data-name="Group 1113601">
            <g id="Group_1113600" data-name="Group 1113600">
              <path id="Path_904424" data-name="Path 904424" d="M20.29,14.16a2.185,2.185,0,0,1-2.18,2.17H8.77A2.168,2.168,0,0,1,6.6,14.16a2.185,2.185,0,0,1,2.17-2.18h9.34A2.185,2.185,0,0,1,20.29,14.16Z" fill="#e7eef9"/>
            </g>
          </g>
        </g>
        <g id="Group_1113605" data-name="Group 1113605">
          <g id="Group_1113604" data-name="Group 1113604">
            <g id="Group_1113603" data-name="Group 1113603">
              <path id="Path_904425" data-name="Path 904425" d="M18.11,17.33H8.77a3.175,3.175,0,0,1,0-6.35h9.34a3.188,3.188,0,0,1,3.18,3.18,3.175,3.175,0,0,1-3.18,3.17ZM8.77,12.98a1.12,1.12,0,0,0-.82.35,1.142,1.142,0,0,0-.35.83,1.165,1.165,0,0,0,1.17,1.17h9.34a1.116,1.116,0,0,0,.82-.34,1.169,1.169,0,0,0,.36-.83,1.182,1.182,0,0,0-1.18-1.18Z"/>
            </g>
          </g>
        </g>
      </g>
      <g id="Group_1113613" data-name="Group 1113613">
        <g id="Group_1113609" data-name="Group 1113609">
          <g id="Group_1113608" data-name="Group 1113608">
            <g id="Group_1113607" data-name="Group 1113607">
              <path id="Path_904426" data-name="Path 904426" d="M41.4,7.97a1.963,1.963,0,0,1-1.96,1.96H29.04a1.963,1.963,0,0,1-1.96-1.96,1.941,1.941,0,0,1,.58-1.39A1.918,1.918,0,0,1,29.04,6h10.4A1.959,1.959,0,0,1,41.4,7.97Z" fill="#e7eef9"/>
            </g>
          </g>
        </g>
        <g id="Group_1113612" data-name="Group 1113612">
          <g id="Group_1113611" data-name="Group 1113611">
            <g id="Group_1113610" data-name="Group 1113610">
              <path id="Path_904427" data-name="Path 904427" d="M39.44,10.93H29.04a2.963,2.963,0,0,1-2.08-5.07A2.893,2.893,0,0,1,29.04,5h10.4a2.965,2.965,0,1,1,0,5.93ZM29.04,7a.907.907,0,0,0-.66.28.948.948,0,0,0-.3.69.96.96,0,0,0,.96.96h10.4a.913.913,0,0,0,.67-.28A.962.962,0,0,0,39.44,7Z"/>
            </g>
          </g>
        </g>
      </g>
      <g id="Group_1113620" data-name="Group 1113620">
        <g id="Group_1113616" data-name="Group 1113616">
          <g id="Group_1113615" data-name="Group 1113615">
            <g id="Group_1113614" data-name="Group 1113614">
              <path id="Path_904428" data-name="Path 904428" d="M53.4,49.84v1.91A2.247,2.247,0,0,1,51.15,54H13.55a5.565,5.565,0,0,0,5.57-5.57V38.72l2.1-3.81c2.02.02,2.06.51,4.17.51,2.15,0,2.15-.51,4.31-.51s2.15.51,4.31.51,2.16-.51,4.31-.51,2.16.51,4.32.51c2.12,0,2.16-.49,4.18-.51l5.73,11.36A7.917,7.917,0,0,1,53.4,49.84Z" fill="#f9d403"/>
            </g>
          </g>
        </g>
        <g id="Group_1113619" data-name="Group 1113619">
          <g id="Group_1113618" data-name="Group 1113618">
            <g id="Group_1113617" data-name="Group 1113617">
              <path id="Path_904429" data-name="Path 904429" d="M51.15,55H13.55a1,1,0,0,1,0-2,4.575,4.575,0,0,0,4.57-4.57V38.72a1,1,0,0,1,.12-.48l2.1-3.81a1.068,1.068,0,0,1,.89-.52,8.689,8.689,0,0,1,2.24.28,8.129,8.129,0,0,0,3.84,0,10.3,10.3,0,0,1,4.77,0,8.213,8.213,0,0,0,3.86,0,10.3,10.3,0,0,1,4.77,0,7.193,7.193,0,0,0,1.93.23,7.077,7.077,0,0,0,1.93-.23,8.689,8.689,0,0,1,2.24-.28.968.968,0,0,1,.9.55l5.73,11.36a8.914,8.914,0,0,1,.96,4.02v1.91A3.256,3.256,0,0,1,51.15,55ZM18.27,53H51.15a1.25,1.25,0,0,0,1.25-1.25V49.84a7.02,7.02,0,0,0-.74-3.12L46.22,35.93a7.559,7.559,0,0,0-1.18.2,10.34,10.34,0,0,1-4.78,0,7.193,7.193,0,0,0-1.93-.23,7.107,7.107,0,0,0-1.92.23,10.34,10.34,0,0,1-4.78,0,7.107,7.107,0,0,0-1.92-.23,7.193,7.193,0,0,0-1.93.23,9.139,9.139,0,0,1-2.38.28,9.076,9.076,0,0,1-2.38-.28,6.09,6.09,0,0,0-1.21-.2l-1.68,3.04v9.45A6.636,6.636,0,0,1,18.27,53Z"/>
            </g>
          </g>
        </g>
      </g>
      <g id="Group_1113627" data-name="Group 1113627">
        <g id="Group_1113623" data-name="Group 1113623">
          <g id="Group_1113622" data-name="Group 1113622">
            <g id="Group_1113621" data-name="Group 1113621">
              <path id="Path_904430" data-name="Path 904430" d="M46.82,34.91c-2.02.02-2.06.51-4.18.51-2.16,0-2.16-.51-4.32-.51s-2.15.51-4.31.51-2.16-.51-4.31-.51-2.16.51-4.31.51c-2.11,0-2.15-.49-4.17-.51L28.88,21V9.93H39.6V20.58Z" fill="#e7eef9"/>
            </g>
          </g>
        </g>
        <g id="Group_1113626" data-name="Group 1113626">
          <g id="Group_1113625" data-name="Group 1113625">
            <g id="Group_1113624" data-name="Group 1113624">
              <path id="Path_904431" data-name="Path 904431" d="M42.64,36.42a9.167,9.167,0,0,1-2.39-.28,7.193,7.193,0,0,0-1.93-.23,7.107,7.107,0,0,0-1.92.23,10.34,10.34,0,0,1-4.78,0,7.107,7.107,0,0,0-1.92-.23,7.193,7.193,0,0,0-1.93.23,9.139,9.139,0,0,1-2.38.28,9.076,9.076,0,0,1-2.38-.28,6.79,6.79,0,0,0-1.8-.23.972.972,0,0,1-.85-.5,1.025,1.025,0,0,1-.01-.99l7.54-13.69V9.93a1,1,0,0,1,1-1H39.6a1,1,0,0,1,1,1V20.34l7.11,14.12a.986.986,0,0,1-.04.97,1,1,0,0,1-.84.48,6.853,6.853,0,0,0-1.8.23,9.167,9.167,0,0,1-2.39.28Zm-4.32-2.51a9.167,9.167,0,0,1,2.39.28,7.193,7.193,0,0,0,1.93.23,7.077,7.077,0,0,0,1.93-.23c.21-.05.43-.1.69-.15L38.7,21.03a1,1,0,0,1-.11-.45V10.93H29.87V21a1,1,0,0,1-.12.48L22.83,34.05c.24.04.44.09.64.14a8.129,8.129,0,0,0,3.84,0,10.3,10.3,0,0,1,4.77,0,8.213,8.213,0,0,0,3.86,0,9.139,9.139,0,0,1,2.38-.28Z"/>
            </g>
          </g>
        </g>
      </g>
      <g id="Group_1113631" data-name="Group 1113631">
        <g id="Group_1113630" data-name="Group 1113630">
          <g id="Group_1113629" data-name="Group 1113629">
            <g id="Group_1113628" data-name="Group 1113628">
              <path id="Path_904432" data-name="Path 904432" d="M21.22,35.91a1,1,0,1,1,.99-1A.994.994,0,0,1,21.22,35.91Z"/>
            </g>
          </g>
        </g>
      </g>
      <g id="Group_1113635" data-name="Group 1113635">
        <g id="Group_1113634" data-name="Group 1113634">
          <g id="Group_1113633" data-name="Group 1113633">
            <g id="Group_1113632" data-name="Group 1113632">
              <path id="Path_904433" data-name="Path 904433" d="M10.4,21.34H7.98a1,1,0,0,1,0-2H10.4a1,1,0,0,1,0,2Z"/>
            </g>
          </g>
        </g>
      </g>
      <g id="Group_1113639" data-name="Group 1113639">
        <g id="Group_1113638" data-name="Group 1113638">
          <g id="Group_1113637" data-name="Group 1113637">
            <g id="Group_1113636" data-name="Group 1113636">
              <path id="Path_904434" data-name="Path 904434" d="M10.4,25.85H7.98a1,1,0,1,1,0-2H10.4a1,1,0,0,1,0,2Z"/>
            </g>
          </g>
        </g>
      </g>
      <g id="Group_1113643" data-name="Group 1113643">
        <g id="Group_1113642" data-name="Group 1113642">
          <g id="Group_1113641" data-name="Group 1113641">
            <g id="Group_1113640" data-name="Group 1113640">
              <path id="Path_904435" data-name="Path 904435" d="M10.4,30.36H7.98a1,1,0,0,1,0-2H10.4a1,1,0,0,1,0,2Z"/>
            </g>
          </g>
        </g>
      </g>
      <g id="Group_1113647" data-name="Group 1113647">
        <g id="Group_1113646" data-name="Group 1113646">
          <g id="Group_1113645" data-name="Group 1113645">
            <g id="Group_1113644" data-name="Group 1113644">
              <path id="Path_904436" data-name="Path 904436" d="M31.27,20.67H28.88a1,1,0,0,1,0-2h2.39a1,1,0,1,1,0,2Z"/>
            </g>
          </g>
        </g>
      </g>
      <g id="Group_1113651" data-name="Group 1113651">
        <g id="Group_1113650" data-name="Group 1113650">
          <g id="Group_1113649" data-name="Group 1113649">
            <g id="Group_1113648" data-name="Group 1113648">
              <path id="Path_904437" data-name="Path 904437" d="M31.27,17.38H28.88a1,1,0,0,1,0-2h2.39a1,1,0,1,1,0,2Z"/>
            </g>
          </g>
        </g>
      </g>
      <g id="Group_1113655" data-name="Group 1113655">
        <g id="Group_1113654" data-name="Group 1113654">
          <g id="Group_1113653" data-name="Group 1113653">
            <g id="Group_1113652" data-name="Group 1113652">
              <path id="Path_904438" data-name="Path 904438" d="M31.27,14.09H28.88a1,1,0,0,1,0-2h2.39a1,1,0,1,1,0,2Z"/>
            </g>
          </g>
        </g>
      </g>
    </g>
  </g>
</svg>
