<svg xmlns="http://www.w3.org/2000/svg" xmlns:xlink="http://www.w3.org/1999/xlink" width="295" height="341.044" viewBox="0 0 295 341.044">
  <defs>
    <clipPath id="clip-path">
      <rect id="Rectangle_406780" data-name="Rectangle 406780" width="295" height="341.044" rx="8" transform="translate(179.149 1656.62)" fill="#e2dacc"/>
    </clipPath>
    <clipPath id="clip-path-2">
      <rect id="Rectangle_406803" data-name="Rectangle 406803" width="332.741" height="113.563" fill="none"/>
    </clipPath>
    <clipPath id="clip-path-4">
      <rect id="Rectangle_406781" data-name="Rectangle 406781" width="136.214" height="100.616" fill="none"/>
    </clipPath>
    <clipPath id="clip-path-5">
      <rect id="Rectangle_406782" data-name="Rectangle 406782" width="9.726" height="9.113" fill="none"/>
    </clipPath>
    <clipPath id="clip-path-6">
      <rect id="Rectangle_406783" data-name="Rectangle 406783" width="25.711" height="26.748" fill="none"/>
    </clipPath>
    <clipPath id="clip-path-7">
      <rect id="Rectangle_406784" data-name="Rectangle 406784" width="21.629" height="12.33" fill="none"/>
    </clipPath>
    <clipPath id="clip-path-8">
      <rect id="Rectangle_406785" data-name="Rectangle 406785" width="119.403" height="35.729" fill="none"/>
    </clipPath>
    <clipPath id="clip-path-9">
      <rect id="Rectangle_406786" data-name="Rectangle 406786" width="232.675" height="26.009" fill="none"/>
    </clipPath>
    <clipPath id="clip-path-10">
      <rect id="Rectangle_406787" data-name="Rectangle 406787" width="28.914" height="9.401" fill="none"/>
    </clipPath>
    <clipPath id="clip-path-11">
      <rect id="Rectangle_406788" data-name="Rectangle 406788" width="137.519" height="15.622" fill="none"/>
    </clipPath>
    <clipPath id="clip-path-12">
      <rect id="Rectangle_406789" data-name="Rectangle 406789" width="8.936" height="3.174" fill="none"/>
    </clipPath>
    <clipPath id="clip-path-13">
      <rect id="Rectangle_406790" data-name="Rectangle 406790" width="5.71" height="4.035" fill="none"/>
    </clipPath>
    <clipPath id="clip-path-14">
      <rect id="Rectangle_406791" data-name="Rectangle 406791" width="214.346" height="102.446" fill="none"/>
    </clipPath>
    <clipPath id="clip-path-15">
      <rect id="Rectangle_406792" data-name="Rectangle 406792" width="205.581" height="24.727" fill="none"/>
    </clipPath>
    <clipPath id="clip-path-16">
      <rect id="Rectangle_406793" data-name="Rectangle 406793" width="12.341" height="19.787" fill="none"/>
    </clipPath>
    <clipPath id="clip-path-17">
      <rect id="Rectangle_406794" data-name="Rectangle 406794" width="7.498" height="8.794" fill="none"/>
    </clipPath>
    <clipPath id="clip-path-18">
      <rect id="Rectangle_406795" data-name="Rectangle 406795" width="4.948" height="4.456" fill="none"/>
    </clipPath>
    <clipPath id="clip-path-19">
      <rect id="Rectangle_406796" data-name="Rectangle 406796" width="11.529" height="15.643" fill="none"/>
    </clipPath>
    <clipPath id="clip-path-20">
      <rect id="Rectangle_406797" data-name="Rectangle 406797" width="147.804" height="11.621" fill="none"/>
    </clipPath>
    <clipPath id="clip-path-21">
      <rect id="Rectangle_406798" data-name="Rectangle 406798" width="332.741" height="24.757" fill="none"/>
    </clipPath>
    <clipPath id="clip-path-22">
      <rect id="Rectangle_406799" data-name="Rectangle 406799" width="115.798" height="15.523" fill="none"/>
    </clipPath>
    <clipPath id="clip-path-23">
      <rect id="Rectangle_406800" data-name="Rectangle 406800" width="101.619" height="19.378" fill="none"/>
    </clipPath>
    <clipPath id="clip-path-24">
      <rect id="Rectangle_406801" data-name="Rectangle 406801" width="75.254" height="10.628" fill="none"/>
    </clipPath>
    <clipPath id="clip-path-25">
      <rect id="Rectangle_406812" data-name="Rectangle 406812" width="84.102" height="138.33" fill="none"/>
    </clipPath>
    <clipPath id="clip-path-28">
      <rect id="Rectangle_406805" data-name="Rectangle 406805" width="74.47" height="130.852" fill="none"/>
    </clipPath>
    <clipPath id="clip-path-29">
      <rect id="Rectangle_406806" data-name="Rectangle 406806" width="62.23" height="118.925" fill="none"/>
    </clipPath>
    <clipPath id="clip-path-30">
      <rect id="Rectangle_406807" data-name="Rectangle 406807" width="50.65" height="15.044" fill="none"/>
    </clipPath>
    <clipPath id="clip-path-31">
      <rect id="Rectangle_406808" data-name="Rectangle 406808" width="36.504" height="28.802" fill="none"/>
    </clipPath>
    <clipPath id="clip-path-32">
      <rect id="Rectangle_406809" data-name="Rectangle 406809" width="14.224" height="13.269" fill="none"/>
    </clipPath>
    <clipPath id="clip-path-33">
      <rect id="Rectangle_406810" data-name="Rectangle 406810" width="20.799" height="6.49" fill="none"/>
    </clipPath>
  </defs>
  <g id="Group_1113955" data-name="Group 1113955" transform="translate(-179.149 -1657)">
    <g id="Group_1113852" data-name="Group 1113852">
      <rect id="Rectangle_406536" data-name="Rectangle 406536" width="295" height="341.044" rx="8" transform="translate(179.149 1657)" fill="#557499"/>
      <g id="Mask_Group_1098752" data-name="Mask Group 1098752" transform="translate(0 0.38)" clip-path="url(#clip-path)">
        <g id="Group_1113759" data-name="Group 1113759" transform="translate(111.61 1676.203)">
          <g id="Group_1113760" data-name="Group 1113760">
            <path id="Path_904785" data-name="Path 904785" d="M243.643,76.464c7.075,0,12.811.988,12.811,2.207v49.5a12.811,12.811,0,1,1-25.623,0v-49.5c0-1.218,5.736-2.207,12.811-2.207" transform="translate(-16.987 -46.518)" fill="#fff"/>
            <path id="Path_904786" data-name="Path 904786" d="M257.852,104.078V144.45a10.286,10.286,0,0,1-20.572,0V104.078Z" transform="translate(-20.91 -63.317)" fill="#8dc0ff"/>
            <path id="Path_904790" data-name="Path 904790" d="M107.255,226.955,116.04,248.7l34.821-4.226-21.8-24Z" transform="translate(137.003 -134.126)" fill="#e27c7c"/>
            <rect id="Rectangle_406779" data-name="Rectangle 406779" width="54.759" height="133.297" transform="translate(143.348 307.991)" fill="#a8ad99"/>
            <path id="Path_904791" data-name="Path 904791" d="M250.389,865.631h67.826l20.4-122.66,11.836,122.66H400.9L373.049,697.512h-85.27Z" transform="translate(-169.088 -424.343)" fill="#4e60ed"/>
            <path id="Path_904792" data-name="Path 904792" d="M250.388,723.067l5.414-25.554h85.27l27.848,168.119H341.073L315.616,711.294Z" transform="translate(-137.112 -424.343)" fill="#3e4cb8"/>
            <line id="Line_797" data-name="Line 797" x1="1.435" y1="45.46" transform="translate(168.095 273.169)" fill="none" stroke="#3e4cb8" stroke-miterlimit="10" stroke-width="1.467"/>
            <path id="Path_904793" data-name="Path 904793" d="M399.389,733.749v10.287c0,5.38-7.087,8.751-7.087,8.751" transform="translate(-223.158 -446.388)" fill="none" stroke="#3e4cb8" stroke-miterlimit="10" stroke-width="1.467"/>
            <path id="Path_904794" data-name="Path 904794" d="M475.891,824.6,411.243,942.948h44.962Z" transform="translate(-307.079 -501.659)" fill="#3e4cb8"/>
            <path id="Path_904795" data-name="Path 904795" d="M327.683,270.976l-6.187,4.463v160.7h85.27L362.338,267.877l-10.405,2.83Z" transform="translate(-202.805 -162.967)" fill="#dd4b8e"/>
            <path id="Path_904796" data-name="Path 904796" d="M441.25,301.709s-6.521,8.293-15.965,6.052c-13.034-3.094-13.034-32.544-13.034-32.544l3.175-2.291,30.037-1.843s17,20.762,12.85,29.011S441.25,301.709,441.25,301.709Z" transform="translate(-290.549 -164.918)" fill="none" stroke="#a1295f" stroke-miterlimit="10" stroke-width="2.419"/>
            <path id="Path_904797" data-name="Path 904797" d="M311.764,489.412l-3.688-29.5,3.688-52-11.332-52.459h11.332l35.979,133.508Z" transform="translate(-135.533 -216.243)" fill="#a1295f"/>
            <path id="Path_904798" data-name="Path 904798" d="M568.68,275.1s-27.078,5.918-39.273,9.325S499.46,297.7,486.548,324.6,450.324,397.4,450.324,397.4l63.3,1.972,17.395-42.909,9.863,59.049L489.6,608.651h65.6a35.048,35.048,0,0,0,34.967-32.67l10.911-160.466Z" transform="translate(-447.569 -167.363)" fill="#dfe6cb"/>
            <path id="Path_904799" data-name="Path 904799" d="M451.208,334.542c-5.511-19.219,16.517-35.6,16.856-35.854l30.265,131.176-.428,6.29c-7.494-8.7-29-34.812-31.435-50.913a29.374,29.374,0,0,1,6.635-23.352,46.3,46.3,0,0,1-21.893-27.347" transform="translate(-344.821 -181.712)" fill="#c3cda8"/>
            <path id="Path_904800" data-name="Path 904800" d="M477.4,541.909l-9.863-59.049,24.209,34.84,36.714-15.371,4.751,20.594L498.2,548.312s1.345,25.069-1.883,34.483l-34.809,18.952Z" transform="translate(-384.083 -293.756)" fill="#c3cda8"/>
            <path id="Path_904801" data-name="Path 904801" d="M599.428,600.682c7.711-2.51-1.614-42.142-1.614-42.142l-24.03,4.3Z" transform="translate(-497.325 -339.797)" fill="#a8ad99"/>
            <path id="Path_904802" data-name="Path 904802" d="M0,260.574l27.011,89.815-1.345,50.917L54.18,597.718h71.552L63.146,393.425l.9-43.559,3.046-11.455s13.18,16.139,32.01,37.928,50.3,17.215,62.137,9.414,21.788-31.19,6.456-61.189-33.624-62.816-33.624-62.816L90.493,267.4,99.1,299.138s-21.97-17.815-32.73-27.767S32.571,251.8,0,260.574" transform="translate(154.354 -156.429)" fill="#dfe6cb"/>
            <path id="Path_904803" data-name="Path 904803" d="M367.243,328.537c10.076,19.974-1.98,32.855-1.98,32.855s27.55,16.7-5.975,77.463l-1.46-10.052,1.345-50.917L336.45,302.33c7.565,3.142,23.207,11.167,30.793,26.207" transform="translate(-177.807 -183.927)" fill="#c3cda8"/>
            <path id="Path_904804" data-name="Path 904804" d="M223.256,389.583c2.959,7.8,4.438,15.332,7.128,20.981,2.313,4.857,11.641,17.694,9.882,29.553C223.583,420.7,212.227,406.8,212.227,406.8c2.152-7.8,2.152-19.232-7.532-37.255,0,0,12.5,4.053,18.561,20.04" transform="translate(9.218 -224.817)" fill="#c3cda8"/>
            <path id="Path_904805" data-name="Path 904805" d="M551.006,800.768H503.3s-13.44,40.528,8.08,40.528,35.676-13.271,39.622-40.528" transform="translate(-416.624 -487.16)" fill="#c3cda8"/>
            <path id="Path_904806" data-name="Path 904806" d="M243.851,839.07a11.26,11.26,0,0,1-7.2,2.225c-21.519,0-35.676-13.27-39.622-40.528h35.084" transform="translate(8.854 -487.16)" fill="#c3cda8"/>
            <path id="Path_904807" data-name="Path 904807" d="M550.9,547.364l26-4.392,3.945,15.6L552.159,574Z" transform="translate(-466.734 -330.326)" fill="#e27c7c"/>
            <path id="Path_904808" data-name="Path 904808" d="M473.1,338.315a46.3,46.3,0,0,1-21.893-27.347C445.654,291.6,468.08,275.1,468.08,275.1l32.4,140.414s-31.051-34.311-34.01-53.848a29.374,29.374,0,0,1,6.635-23.352" transform="translate(-346.968 -167.363)" fill="#fff"/>
            <path id="Path_904809" data-name="Path 904809" d="M336.443,265.923s24.859,7.54,35.081,27.8c10.076,19.974-1.98,32.855-1.98,32.855s28.341,17.178-7.435,80.073l1.345-50.917Z" transform="translate(-182.089 -161.778)" fill="#fff"/>
            <line id="Line_798" data-name="Line 798" x2="12.912" y2="57.295" transform="translate(253.455 142.708)" fill="none" stroke="#a8ad99" stroke-miterlimit="10" stroke-width="1.119"/>
            <path id="Path_904810" data-name="Path 904810" d="M177.314,463.285a40.164,40.164,0,0,1,4.393-19.722" transform="translate(78.735 -269.849)" fill="none" stroke="#a8ad99" stroke-miterlimit="10" stroke-width="1.119"/>
            <line id="Line_799" data-name="Line 799" x2="13.539" y2="38.121" transform="translate(265.015 108.353)" fill="none" stroke="#a8ad99" stroke-miterlimit="10" stroke-width="1.119"/>
            <path id="Path_904811" data-name="Path 904811" d="M129.866,297.312a2.062,2.062,0,1,0,2.062-2.062,2.063,2.063,0,0,0-2.062,2.062" transform="translate(145.019 -179.62)" fill="#dd4b8e"/>
            <path id="Path_904812" data-name="Path 904812" d="M114.756,338.522a2.062,2.062,0,1,0,2.062-2.062,2.062,2.062,0,0,0-2.062,2.062" transform="translate(166.046 -204.691)" fill="#dd4b8e"/>
            <line id="Line_800" data-name="Line 800" x1="4.304" y1="28.642" transform="translate(79.149 160.462)" fill="none" stroke="#a8ad99" stroke-miterlimit="10" stroke-width="1.119"/>
            <path id="Path_904813" data-name="Path 904813" d="M629.943,423.919s4.978,13.07,15.132,21.151" transform="translate(-561.912 -257.898)" fill="none" stroke="#a8ad99" stroke-miterlimit="10" stroke-width="1.119"/>
            <path id="Path_904814" data-name="Path 904814" d="M576.315,422.165h4.573V408.92a2.287,2.287,0,1,0-4.573,0Z" transform="translate(-476.723 -247.382)" fill="none" stroke="#fff" stroke-miterlimit="10" stroke-width="1.119"/>
            <path id="Path_904815" data-name="Path 904815" d="M590.888,420.027c-3.766,3.766-3.363,8.328-1.614,12.1s2.824,10.222-.807,12.443" transform="translate(-491.297 -255.53)" fill="none" stroke="#fff" stroke-miterlimit="10" stroke-width="1.119"/>
            <path id="Path_904816" data-name="Path 904816" d="M573.786,442.849H545.407a62.052,62.052,0,0,1,15.464-2.217A34.336,34.336,0,0,1,573.786,442.849Z" transform="translate(-457.516 -268.066)" fill="none" stroke="#fff" stroke-miterlimit="10" stroke-width="1.119"/>
            <path id="Path_904817" data-name="Path 904817" d="M196.2,161.452,167.87,167.19l-5.738-15.366V141.643s-3.766-4.176-6.59-4.31-7.4.672-7.532-1.076,6.859-3.094,11.836-1.883c0,0-5.111-2.287-9.011-1.749s-5.514.135-5.649-1.076,7.935-3.5,14.391-1.076a15.292,15.292,0,0,0-7.935-2.824c-4.707-.269-7.532.672-7.8-.807s5.918-5.38,16.274-1.076c0,0-3.766-4.17-8.608-4.17s-6.187-2.421-4.573-3.228,12.1,0,16.543,2.152,8.608,7.263,9.549,16.409Z" transform="translate(77.336 -71.824)" fill="#e3ba33"/>
            <path id="Path_904818" data-name="Path 904818" d="M218.419,177.342a9.116,9.116,0,0,1-7.886,5.021v5.526s8.779-2.567,7.886-10.547" transform="translate(28.935 -107.889)" fill="#9a8025"/>
            <path id="Path_904819" data-name="Path 904819" d="M358.794,529.4h29.18a9.35,9.35,0,0,0,9.35-9.35v-49.1a19.235,19.235,0,0,1,5.389-13.352l1.688-1.75H349.444v64.2a9.35,9.35,0,0,0,9.35,9.35" transform="translate(-211.386 -277.324)" fill="#7080fa"/>
            <path id="Path_904820" data-name="Path 904820" d="M382.963,540.9h28.554a5.939,5.939,0,0,0,5.939-5.939v-48.3a4.612,4.612,0,0,0-2.268-4.02c-6.5-3.711-14.336,2.895-38.163,1.772v50.547a5.939,5.939,0,0,0,5.939,5.939" transform="translate(-235.242 -292.926)" fill="#fff"/>
            <path id="Path_904821" data-name="Path 904821" d="M425.391,556.969a7.861,7.861,0,1,0,7.862-7.861,7.861,7.861,0,0,0-7.862,7.861" transform="translate(-277.842 -334.059)" fill="#dfe6cb"/>
            <path id="Path_904822" data-name="Path 904822" d="M403.973,586.357a2.556,2.556,0,1,0,2.556-2.556,2.556,2.556,0,0,0-2.556,2.556" transform="translate(-237.425 -355.165)" fill="#dfe6cb"/>
            <path id="Path_904823" data-name="Path 904823" d="M399.207,517.979a4.93,4.93,0,1,0,4.93-4.93,4.93,4.93,0,0,0-4.93,4.93" transform="translate(-235.541 -312.122)" fill="#dfe6cb"/>
            <path id="Path_904824" data-name="Path 904824" d="M261.1,333.92h1.913V317.183a3.461,3.461,0,0,1,3.457-3.457h24.564a5.619,5.619,0,1,0,0-11.238h-24.4a3.616,3.616,0,1,1,0-7.233h61.789a6.336,6.336,0,0,0,0-12.673H305.994a3.078,3.078,0,0,1,0-6.157h23.14a5.63,5.63,0,0,0,5.623-5.623V241.218h-1.913V270.8a3.714,3.714,0,0,1-3.71,3.71h-23.14a4.991,4.991,0,0,0,0,9.983h22.427a4.423,4.423,0,0,1,0,8.847H266.632a5.529,5.529,0,1,0,0,11.059h24.4a3.706,3.706,0,0,1,0,7.412H266.472a5.376,5.376,0,0,0-5.37,5.37Z" transform="translate(-107.144 -146.749)" fill="#7080fa"/>
            <line id="Line_801" data-name="Line 801" y2="14.627" transform="translate(156.297 178.526)" fill="none" stroke="#fff" stroke-miterlimit="10" stroke-width="1.209"/>
            <line id="Line_802" data-name="Line 802" y2="14.627" transform="translate(153.507 178.526)" fill="none" stroke="#fff" stroke-miterlimit="10" stroke-width="1.209"/>
            <line id="Line_803" data-name="Line 803" x2="11.214" transform="translate(174.724 195.285)" fill="none" stroke="#3e4cb8" stroke-miterlimit="10" stroke-width="1.467"/>
            <line id="Line_804" data-name="Line 804" x2="7.565" transform="translate(178.373 199.081)" fill="none" stroke="#3e4cb8" stroke-miterlimit="10" stroke-width="1.467"/>
            <line id="Line_805" data-name="Line 805" x2="7.565" transform="translate(178.373 202.877)" fill="none" stroke="#3e4cb8" stroke-miterlimit="10" stroke-width="1.467"/>
            <line id="Line_806" data-name="Line 806" x2="11.214" transform="translate(174.724 206.674)" fill="none" stroke="#3e4cb8" stroke-miterlimit="10" stroke-width="1.467"/>
            <line id="Line_807" data-name="Line 807" x2="7.565" transform="translate(178.373 210.47)" fill="none" stroke="#3e4cb8" stroke-miterlimit="10" stroke-width="1.467"/>
            <line id="Line_808" data-name="Line 808" x2="7.565" transform="translate(178.373 214.267)" fill="none" stroke="#3e4cb8" stroke-miterlimit="10" stroke-width="1.467"/>
            <line id="Line_809" data-name="Line 809" x2="11.214" transform="translate(174.724 218.063)" fill="none" stroke="#3e4cb8" stroke-miterlimit="10" stroke-width="1.467"/>
            <line id="Line_810" data-name="Line 810" x2="7.565" transform="translate(178.373 221.86)" fill="none" stroke="#3e4cb8" stroke-miterlimit="10" stroke-width="1.467"/>
            <line id="Line_811" data-name="Line 811" x2="7.565" transform="translate(178.373 225.656)" fill="none" stroke="#3e4cb8" stroke-miterlimit="10" stroke-width="1.467"/>
            <line id="Line_812" data-name="Line 812" x2="11.214" transform="translate(174.724 229.453)" fill="none" stroke="#3e4cb8" stroke-miterlimit="10" stroke-width="1.467"/>
            <line id="Line_813" data-name="Line 813" x2="7.565" transform="translate(178.373 233.249)" fill="none" stroke="#3e4cb8" stroke-miterlimit="10" stroke-width="1.467"/>
            <line id="Line_814" data-name="Line 814" x2="7.565" transform="translate(178.373 237.046)" fill="none" stroke="#3e4cb8" stroke-miterlimit="10" stroke-width="1.467"/>
            <line id="Line_815" data-name="Line 815" x2="11.214" transform="translate(174.724 240.842)" fill="none" stroke="#3e4cb8" stroke-miterlimit="10" stroke-width="1.467"/>
            <path id="Path_904825" data-name="Path 904825" d="M592.537,163.975s-4.275-5.783-13.018-2.824-9.146,13.315-7.4,21.116,7.8,21.385-7.262,25.285c12.911,6.994,27.7-1.969,30.261-14.795a50.245,50.245,0,0,0-2.584-28.782" transform="translate(-487.459 -97.526)" fill="#e3ba33"/>
            <path id="Path_904826" data-name="Path 904826" d="M568.972,162.46l-3.4,1.629a3.874,3.874,0,0,0-2.146,2.742,7.223,7.223,0,0,0,.669,4.946,3.818,3.818,0,0,0,3.743,1.843l3.822-.4Z" transform="translate(-462.386 -98.835)" fill="#fff"/>
            <path id="Path_904827" data-name="Path 904827" d="M444.275,84.148s-6.1,3.587-14.7,9.146-8.787,16.319-8.07,20.443,3.9,15.6,22.058,15.557l13.091-2.466-1.973-11.3s6.635-13.27,3.048-21.7l16.857,8.249s8.172-4.812,5.065-16.767c-4.124-15.871-29.838-15.941-35.371-1.166" transform="translate(-315.453 -44.553)" fill="#e3ba33"/>
            <path id="Path_904828" data-name="Path 904828" d="M433.032,94.788c3.228-4.394,12.774-7.622,19.388-2.959s4.38,13.457,1.059,16.86" transform="translate(-296.409 -54.475)" fill="none" stroke="#9a8025" stroke-miterlimit="10" stroke-width="1.467"/>
            <path id="Path_904829" data-name="Path 904829" d="M442.145,103.623s7.225-7.138,13.537-3.482c5.626,3.258,3.511,10.272,1.864,12.274" transform="translate(-302.631 -60.288)" fill="none" stroke="#9a8025" stroke-miterlimit="10" stroke-width="1.467"/>
            <path id="Path_904830" data-name="Path 904830" d="M421.531,155.392a1,1,0,0,0-.42-1.794c-4.788-.778-6.56-3.735-6.834-7.153-.359-4.483,3.068-6.115,6.1-4.55s6.725,9.123,6.725,9.123l-1.435-6.993c6.782-8.887,3.049-22.775,3.049-22.775a54.123,54.123,0,0,1,12.705,2.046,11.728,11.728,0,0,1,8.217,9.476c.287,1.928.454,3.592.551,4.842a17.932,17.932,0,0,1-7.638,31.464l-1.6,16.193-1.211,25.285-25.823-28.782,3.228-23.267Z" transform="translate(-289.042 -73.763)" fill="#e27c7c"/>
            <path id="Path_904831" data-name="Path 904831" d="M437.6,170.015l2.824,5.313-4.058,1.156" transform="translate(-281.456 -103.431)" fill="none" stroke="#ac3a3a" stroke-linecap="round" stroke-linejoin="round" stroke-width="2.419"/>
            <path id="Path_904832" data-name="Path 904832" d="M468.473,237.43c-9.029-.77-16.351-6.607-18.149-14.206a17.915,17.915,0,0,0,18.771,7.89Z" transform="translate(-315.588 -135.802)" fill="#ac3a3a"/>
            <path id="Path_904833" data-name="Path 904833" d="M506.928,184.9c0-1.974-2.981-7.353-5.94-5.514-1.923,1.195-1.031,4.438.7,5.514" transform="translate(-372.838 -108.905)" fill="none" stroke="#e06b6b" stroke-miterlimit="10" stroke-width="2.419"/>
            <path id="Path_904834" data-name="Path 904834" d="M443.177,145.747l-23.521,7.074s1.2,5.031,2.273,8.527,6.187,7.3,10.132,2.126,5.948-4.646,9.086-4.2,5.945-2.048,4.991-5.281C445.342,151.3,443.177,145.747,443.177,145.747Z" transform="translate(-280.809 -88.667)" fill="none" stroke="#fff" stroke-miterlimit="10" stroke-width="1.467"/>
            <line id="Line_816" data-name="Line 816" y1="1.52" x2="5.639" transform="translate(134.736 70.108)" fill="none" stroke="#fff" stroke-miterlimit="10" stroke-width="1.467"/>
            <path id="Path_904835" data-name="Path 904835" d="M434.94,198.056c0,2.21,1.159,4,2.589,4s2.589-1.791,2.589-4-1.159-4-2.589-4-2.589,1.791-2.589,4" transform="translate(-280.586 -118.056)" fill="#fff"/>
            <path id="Path_904836" data-name="Path 904836" d="M439.558,218.61s-1.614,1.95-4.618.672" transform="translate(-280.026 -132.995)" fill="none" stroke="#e06b6b" stroke-linecap="round" stroke-linejoin="round" stroke-width="2.419"/>
            <path id="Path_904837" data-name="Path 904837" d="M459.258,166.3c.386,1.319,1.291,2.215,2.022,2s1.01-1.456.625-2.775-1.291-2.215-2.021-2-1.011,1.456-.625,2.775" transform="translate(-312.001 -99.464)" fill="#2a1e53"/>
            <path id="Path_904838" data-name="Path 904838" d="M435.113,159.239c.386,1.319,1.291,2.215,2.022,2s1.01-1.456.625-2.775-1.291-2.215-2.022-2-1.01,1.456-.625,2.775" transform="translate(-278.4 -95.168)" fill="#2a1e53"/>
            <line id="Line_817" data-name="Line 817" x1="6.77" y2="2.69" transform="translate(141.599 55.645)" fill="none" stroke="#e3ba33" stroke-miterlimit="10" stroke-width="4.884"/>
            <line id="Line_818" data-name="Line 818" y1="0.679" x2="5.921" transform="translate(153.051 53.874)" fill="none" stroke="#e3ba33" stroke-miterlimit="10" stroke-width="4.884"/>
            <path id="Path_904839" data-name="Path 904839" d="M427.215,516.95s-.005,13.98,6.451,24.385l21.161-12.906s7.613.387,10.76-1.885,6.456-4.752,6.456-4.752,11.029.987,11.3,0-11.836-3.407-11.836-3.407a22.793,22.793,0,0,1,6.366-1.883c2.69-.179,6.994.09,6.725-1.166s-8.616-2.959-13.409-1.524l7.492-3.945s6.211.09,5.93-1.345-7.992-2.242-14.9.9l5.2-4.483s5.648-.179,5.47-1.166-3.318-1.389-6.456-1.143-22.057,12.44-22.057,12.44Z" transform="translate(-322.059 -305.738)" fill="#e3ba33"/>
            <path id="Path_904840" data-name="Path 904840" d="M584.336,565.006c-8.608,17.933,1.842,54.874,47.188,44.473s52.16-13.629,52.16-13.629-9.368-18.7-9.368-45.253Z" transform="translate(-581.581 -334.965)" fill="#dfe6cb"/>
            <line id="Line_819" data-name="Line 819" x1="45.298" y2="7.253" transform="translate(26.009 219.064)" fill="none" stroke="#a8ad99" stroke-miterlimit="10" stroke-width="1.119"/>
            <line id="Line_820" data-name="Line 820" x1="22.99" y1="2.459" transform="translate(23.333 219.063)" fill="none" stroke="#a8ad99" stroke-miterlimit="10" stroke-width="1.119"/>
            <line id="Line_821" data-name="Line 821" x2="15.199" y2="8.359" transform="translate(36.514 213.842)" fill="none" stroke="#a8ad99" stroke-miterlimit="10" stroke-width="1.119"/>
            <line id="Line_822" data-name="Line 822" x1="35.603" y2="7.414" transform="translate(61.395 246.742)" fill="none" stroke="#a8ad99" stroke-miterlimit="10" stroke-width="1.119"/>
            <path id="Path_904841" data-name="Path 904841" d="M610.422,647.141a1.83,1.83,0,1,0,1.83-1.831,1.83,1.83,0,0,0-1.83,1.831" transform="translate(-523.275 -392.585)" fill="#dd4b8e"/>
            <path id="Path_904842" data-name="Path 904842" d="M642.387,653.7a1.83,1.83,0,1,0,1.83-1.83,1.83,1.83,0,0,0-1.83,1.83" transform="translate(-567.759 -396.576)" fill="#dd4b8e"/>
          </g>
        </g>
        <g id="Group_1113761" data-name="Group 1113761" transform="translate(151.228 1893.8)">
          <g id="Group_1113826" data-name="Group 1113826" clip-path="url(#clip-path-2)">
            <g id="Group_1113825" data-name="Group 1113825">
              <g id="Group_1113824" data-name="Group 1113824" clip-path="url(#clip-path-2)">
                <path id="Path_904843" data-name="Path 904843" d="M97.227,76.817c-7.169-14.358-1.84-34.2,10.833-39.2C122.808,31.8,125.331,57.8,144.736,61.1c19.519,3.318,29.361-9.237,34.347-25.227,3.105-9.957-.194-33.377,13.2-33.377,10.09,0,10.284,13.972,5.239,23.42C192,36.243,191.25,52.591,195.966,58.188s14.653-7.958,24.838-6.914,5.046,22.227,8.927,26.019S214.6,99.112,170.157,102.5c-31.078,2.366-60.738-1.265-72.93-25.679" transform="translate(-1.782 -0.047)" fill="#407bff"/>
                <g id="Group_1113763" data-name="Group 1113763" transform="translate(92.227 2.448)" opacity="0.5">
                  <g id="Group_1113762" data-name="Group 1113762">
                    <g id="Group_1113761-2" data-name="Group 1113761" clip-path="url(#clip-path-4)">
                      <path id="Path_904844" data-name="Path 904844" d="M97.227,76.817c-7.169-14.358-1.84-34.2,10.833-39.2C122.808,31.8,125.331,57.8,144.736,61.1c19.519,3.318,29.361-9.237,34.347-25.227,3.105-9.957-.194-33.377,13.2-33.377,10.09,0,10.284,13.972,5.239,23.42C192,36.243,191.25,52.591,195.966,58.188s14.653-7.958,24.838-6.914,5.046,22.227,8.927,26.019S214.6,99.112,170.157,102.5c-31.078,2.366-60.738-1.265-72.93-25.679" transform="translate(-94.009 -2.495)" fill="#fff"/>
                    </g>
                  </g>
                </g>
                <g id="Group_1113766" data-name="Group 1113766" transform="translate(183.417 2.908)" opacity="0.2">
                  <g id="Group_1113765" data-name="Group 1113765">
                    <g id="Group_1113764" data-name="Group 1113764" clip-path="url(#clip-path-5)">
                      <path id="Path_904845" data-name="Path 904845" d="M196.176,4.25c-1.878-3.2-7.762-.072-9.121,5.495s12.42.132,9.121-5.495" transform="translate(-186.961 -2.964)" fill="#fff"/>
                    </g>
                  </g>
                </g>
                <g id="Group_1113769" data-name="Group 1113769" transform="translate(97.449 38.143)" opacity="0.2">
                  <g id="Group_1113768" data-name="Group 1113768">
                    <g id="Group_1113767" data-name="Group 1113767" clip-path="url(#clip-path-6)">
                      <path id="Path_904846" data-name="Path 904846" d="M99.493,61.246c-.641-4.375.5-13.372,5.916-18.71,6.721-6.621,14.4-4.4,19.635,7.878,0,0-6.468-11-12.516-9.39-5.609,1.5-11.092,7.5-9.716,20.608.689,6.56-2.67,4.037-3.318-.387" transform="translate(-99.332 -38.88)" fill="#fff"/>
                    </g>
                  </g>
                </g>
                <g id="Group_1113772" data-name="Group 1113772" transform="translate(202.464 52.57)" opacity="0.2">
                  <g id="Group_1113771" data-name="Group 1113771">
                    <g id="Group_1113770" data-name="Group 1113770" clip-path="url(#clip-path-7)">
                      <path id="Path_904847" data-name="Path 904847" d="M227.981,63.426s-.259-8.183-5.562-9.654-16.042,6.29-16.042,6.29,8.9-6.038,13.584-5.563,4.552,11.126,6.157,11.384,2-1.072,1.864-2.458" transform="translate(-206.376 -53.586)" fill="#fff"/>
                    </g>
                  </g>
                </g>
                <path id="Path_904848" data-name="Path 904848" d="M98.771,70.911s9.994,5.563,13.406,4.4,4.106-11.441,14.409-11.9,22.9,9.055,28.461,9.314,15.912-16.017,26.132-12.86,10.349,9.108,15.783,8.72,9.541-6.312,15.265-4.011,12.291,17.346-6.468,25.362S116.882,100.292,98.771,70.911" transform="translate(-1.872 -1.127)" fill="#407bff"/>
                <g id="Group_1113775" data-name="Group 1113775" transform="translate(96.899 58.329)" opacity="0.4">
                  <g id="Group_1113774" data-name="Group 1113774">
                    <g id="Group_1113773" data-name="Group 1113773" clip-path="url(#clip-path-8)">
                      <path id="Path_904849" data-name="Path 904849" d="M98.771,70.911s9.994,5.563,13.406,4.4,4.106-11.441,14.409-11.9,22.9,9.055,28.461,9.314,15.912-16.017,26.132-12.86,10.349,9.108,15.783,8.72,9.541-6.312,15.265-4.011,12.291,17.346-6.468,25.362S116.882,100.292,98.771,70.911" transform="translate(-98.771 -59.456)" fill="#fff"/>
                    </g>
                  </g>
                </g>
                <path id="Path_904850" data-name="Path 904850" d="M42.727,102.848s3.881-11.486,15.265-9.8,11,5.93,14.49,1.445,6.986-4.114,19.146-1.615,40.067,6.54,83.572,5.18,70.992-10.488,77.411-10.336S254.633,91.5,258,93.311s9.315-5.614,17.077,7.414S150.62,113.733,150.62,113.733,46.608,112.385,42.727,102.848" transform="translate(-0.81 -1.663)" fill="#407bff"/>
                <g id="Group_1113778" data-name="Group 1113778" transform="translate(41.917 86.06)" opacity="0.5">
                  <g id="Group_1113777" data-name="Group 1113777">
                    <g id="Group_1113776" data-name="Group 1113776" clip-path="url(#clip-path-9)">
                      <path id="Path_904851" data-name="Path 904851" d="M42.727,102.848s3.881-11.486,15.265-9.8,11,5.93,14.49,1.445,6.986-4.114,19.146-1.615,40.067,6.54,83.572,5.18,70.992-10.488,77.411-10.336S254.633,91.5,258,93.311s9.315-5.614,17.077,7.414S150.62,113.733,150.62,113.733,46.608,112.385,42.727,102.848" transform="translate(-42.727 -87.723)" fill="#fff"/>
                    </g>
                  </g>
                </g>
                <g id="Group_1113781" data-name="Group 1113781" transform="translate(50.779 92.724)" opacity="0.2">
                  <g id="Group_1113780" data-name="Group 1113780">
                    <g id="Group_1113779" data-name="Group 1113779" clip-path="url(#clip-path-10)">
                      <path id="Path_904852" data-name="Path 904852" d="M51.76,95.444c3.482-2.414,13,.341,17.27,2.984s11.643,4.423,11.643,4.423-4.373,3.418-11.643-1.994-17.27-5.412-17.27-5.412" transform="translate(-51.76 -94.515)" fill="#fff"/>
                    </g>
                  </g>
                </g>
                <g id="Group_1113784" data-name="Group 1113784" transform="translate(75.1 91.354)" opacity="0.2">
                  <g id="Group_1113783" data-name="Group 1113783">
                    <g id="Group_1113782" data-name="Group 1113782" clip-path="url(#clip-path-11)">
                      <path id="Path_904853" data-name="Path 904853" d="M76.551,94.489a6.65,6.65,0,0,1,4.137-1.364A18.352,18.352,0,0,1,85.1,93.6a30.022,30.022,0,0,1,8.29,3.208,50.094,50.094,0,0,0,15.835,7.02,61.021,61.021,0,0,0,8.553,1.409,69.758,69.758,0,0,0,8.676.2c2.911-.137,5.823-.294,8.727-.585l8.749-.923c2.936-.283,5.9-.474,8.873-.488,2.967.006,5.93.122,8.875.388,1.474.12,2.937.306,4.406.456l4.384.58,8.7,1.35a145.993,145.993,0,0,0,17.449,1.543,71.123,71.123,0,0,0,17.456-1.351,45.175,45.175,0,0,1-8.642,1.729c-2.925.332-5.87.532-8.817.585a129.71,129.71,0,0,1-17.646-.987c-11.644-1.615-23.245-3.24-34.844-1.853-5.8.589-11.7,1.271-17.6,1.409a61.7,61.7,0,0,1-17.674-1.988,47.221,47.221,0,0,1-8.353-3.124c-1.339-.648-2.641-1.369-3.912-2.135s-2.5-1.628-3.691-2.427A29.325,29.325,0,0,0,84.978,94.1a18.185,18.185,0,0,0-4.288-.682,6.5,6.5,0,0,0-4.139,1.068" transform="translate(-76.551 -93.119)" fill="#fff"/>
                    </g>
                  </g>
                </g>
                <g id="Group_1113787" data-name="Group 1113787" transform="translate(257.162 91.611)" opacity="0.2">
                  <g id="Group_1113786" data-name="Group 1113786">
                    <g id="Group_1113785" data-name="Group 1113785" clip-path="url(#clip-path-12)">
                      <path id="Path_904854" data-name="Path 904854" d="M271.037,94.161c-.606-2.031-7.653.388-8.817,1.746s9.484.486,8.817-1.746" transform="translate(-262.131 -93.381)" fill="#fff"/>
                    </g>
                  </g>
                </g>
                <g id="Group_1113790" data-name="Group 1113790" transform="translate(247.418 86.834)" opacity="0.2">
                  <g id="Group_1113789" data-name="Group 1113789">
                    <g id="Group_1113788" data-name="Group 1113788" clip-path="url(#clip-path-13)">
                      <path id="Path_904855" data-name="Path 904855" d="M257.278,88.636c1.878-1-.776,4.439-3.493,3.869s-1.553-1.334.582-1.923,1.639-1.268,2.911-1.946" transform="translate(-252.199 -88.512)" fill="#fff"/>
                    </g>
                  </g>
                </g>
                <path id="Path_904856" data-name="Path 904856" d="M63.576,21.012C74.509,10.042,83.3,39.924,90.528,53.484c9.434,17.691,21.929,29.284,31.98,23.762S123.762,38.78,136.7,36.364s6.727,33.026,22.769,36.262,20.7-28.093,32.083-27.435,5.693,22.128,11.385,27.435,42.95-30.254,45.537-55.941S267.621-.282,265.551,11.4s-24.321,32.52-30.014,49.268,24.839.153,36.741,6.381-35.857,35.4-101.242,35.4S64.253,87.425,60.113,77.245,89.2,82.384,90.644,74.829c3.039-15.852-36.986-43.865-27.068-53.817" transform="translate(-1.133 0)" fill="#407bff"/>
                <g id="Group_1113793" data-name="Group 1113793" transform="translate(58.624 0.002)" opacity="0.6">
                  <g id="Group_1113792" data-name="Group 1113792">
                    <g id="Group_1113791" data-name="Group 1113791" clip-path="url(#clip-path-14)">
                      <path id="Path_904857" data-name="Path 904857" d="M237.545,92.058a214.9,214.9,0,0,1-66.5,10.389c-34.366,0-62.11-4.15-81.3-9.565C72.425,88,62.075,82.071,60.113,77.245c-4.14-10.173,29.078,5.141,30.53-2.413,3.041-15.854-36.985-43.863-27.067-53.82C74.505,10.043,83.3,39.926,90.525,53.484c9.438,17.688,21.936,29.284,31.982,23.761s1.256-38.467,14.2-40.88,6.72,33.022,22.77,36.259,20.69-28.087,32.08-27.43,5.69,22.123,11.38,27.43,42.95-30.255,45.54-55.939,19.15-16.962,17.08-5.288-24.32,32.522-30.02,49.268,24.84.157,36.74,6.387c7.22,3.777-7.476,15.971-34.729,25.007" transform="translate(-59.756 -0.002)" fill="#fff"/>
                    </g>
                  </g>
                </g>
                <g id="Group_1113796" data-name="Group 1113796" transform="translate(64.588 60.509)" opacity="0.2">
                  <g id="Group_1113795" data-name="Group 1113795">
                    <g id="Group_1113794" data-name="Group 1113794" clip-path="url(#clip-path-15)">
                      <path id="Path_904858" data-name="Path 904858" d="M67.745,82.725a15.782,15.782,0,0,1-1.353-1.846,4.474,4.474,0,0,1-.484-1.052,1.176,1.176,0,0,1,.187-1.169,1.888,1.888,0,0,1,1.1-.475,6.656,6.656,0,0,1,1.166-.053,18.626,18.626,0,0,1,2.295.247,84.421,84.421,0,0,1,8.9,2.2c2.871.879,5.915,1.539,8.725.848,4.075-1,4.856-4.7,6.009-8.134.361-1.074,1.321-2.146,2.435-1.938a2.915,2.915,0,0,1,1.3.757c1.923,1.658,3.363,3.751,5.514,5.054a78.47,78.47,0,0,0,7.965,4.538,20.045,20.045,0,0,0,8.421,1.977,18.6,18.6,0,0,0,4.27-.518,9.048,9.048,0,0,0,3.626-1.8c2.108-1.727,3.327-4.421,4.2-7.216.439-1.409.811-2.862,1.207-4.345a28.813,28.813,0,0,1,1.5-4.543,7.526,7.526,0,0,1,1.534-2.272,4.543,4.543,0,0,1,2.831-1.291,5.016,5.016,0,0,1,2.948.686,8.439,8.439,0,0,1,2.066,1.741,25.751,25.751,0,0,1,2.746,3.967l2.269,3.986a38.756,38.756,0,0,0,5,7.224,12.4,12.4,0,0,0,6.974,4.04,10.33,10.33,0,0,0,7.6-1.964,36.507,36.507,0,0,0,6.444-5.926c2.03-2.223,3.97-4.584,6.3-6.78A14.69,14.69,0,0,1,185.6,65.79a6.793,6.793,0,0,1,2.822-.549,4.589,4.589,0,0,1,3.032,1.163,5.538,5.538,0,0,1,1.485,2.655,14.007,14.007,0,0,1,.4,2.517c.123,1.613.1,3.143.158,4.631a18.919,18.919,0,0,0,.5,4.2,4.177,4.177,0,0,0,1.886,2.758c1.886,1.181,4.752-.082,7.238-1.5a63.4,63.4,0,0,0,7.3-5.147c2.365-1.874,4.684-3.836,7.032-5.788a79.863,79.863,0,0,1,7.383-5.626,15.169,15.169,0,0,1,2.178-1.172,6.016,6.016,0,0,1,1.339-.408,2.929,2.929,0,0,1,1.809.211,3.867,3.867,0,0,1,2,2.367,6.069,6.069,0,0,1,.008,2.756c-.317,1.619-.864,3.043-.987,4.356a2.725,2.725,0,0,0,.248,1.624,2.078,2.078,0,0,0,1.181.919,12.279,12.279,0,0,0,4.165-.026c1.473-.19,2.956-.469,4.437-.769,2.964-.607,5.926-1.316,8.9-1.991s5.974-1.29,9-1.77c1.517-.234,3.042-.434,4.585-.533a18.632,18.632,0,0,1,4.664.186,6.187,6.187,0,0,1,2.266.86,1.758,1.758,0,0,1,.771,1.131,2.007,2.007,0,0,1-.306,1.3,11.479,11.479,0,0,1-3.487,3.1,60.048,60.048,0,0,1-8.138,4.19,59.816,59.816,0,0,0,7.89-4.556,11.263,11.263,0,0,0,3.2-3.029,1.388,1.388,0,0,0,.2-.887,1.085,1.085,0,0,0-.525-.672,5.5,5.5,0,0,0-2.007-.665,17.886,17.886,0,0,0-4.446,0c-6.667.693-13.145,3.268-19.229,6-4.67,2.095-9.886,3.9-14.822,2.547a4.283,4.283,0,0,1-1.734-.826c-1.542-1.358-1.1-4.12-2.664-5.45-1.437-1.219-3.624-.515-5.319.306-5.622,2.725-10.238,6.646-15.537,9.8a19.784,19.784,0,0,1-4.461,2.035,8.63,8.63,0,0,1-2.692.365,6.657,6.657,0,0,1-2.782-.775,6.073,6.073,0,0,1-2.167-1.974c-1.438-2.131-1.656-4.878-3.15-7.13a3.979,3.979,0,0,0-.85-.994,3.467,3.467,0,0,0-1.752-.6c-3.37-.367-6.609,1.4-9.28,3.483-3.665,2.866-6.944,6.254-11.579,7.507a11.826,11.826,0,0,1-5.148.25,13.768,13.768,0,0,1-4.745-1.781c0-.462-3.708-2.814-4.248-3.292-1.59-1.413-3.014-3.044-4.487-4.582a11.332,11.332,0,0,0-1.364-1.276c-2.75-2.059-5.512-1.088-7.525,1.279-1.229,1.446-2.218,3.086-3.487,4.5-6.306,7.019-16.3,6.085-24.037,2.358-5.483-2.645-13.884-12.249-16.858-2.125-.409,1.388-1.033,2.87-2.329,3.514a5.627,5.627,0,0,1-3.56.128,55,55,0,0,1-9.191-2.784l-2.432-.911c-2.524-.945-5.3-2.59-8-2.735a3.034,3.034,0,0,0-2.095.351.989.989,0,0,0-.184.976,4.331,4.331,0,0,0,.42,1.038,15.642,15.642,0,0,0,1.257,1.9" transform="translate(-65.836 -61.678)" fill="#fff"/>
                    </g>
                  </g>
                </g>
                <g id="Group_1113799" data-name="Group 1113799" transform="translate(62.76 20.501)" opacity="0.2">
                  <g id="Group_1113798" data-name="Group 1113798">
                    <g id="Group_1113797" data-name="Group 1113797" clip-path="url(#clip-path-16)">
                      <path id="Path_904859" data-name="Path 904859" d="M71.979,40.685S61.307,27.86,64.606,23.018s9.9-.574,11.449,4.665-4.32,4.587-6.041,4.331,1.966,8.67,1.966,8.67" transform="translate(-63.972 -20.898)" fill="#fff"/>
                    </g>
                  </g>
                </g>
                <g id="Group_1113802" data-name="Group 1113802" transform="translate(131.3 37.403)" opacity="0.2">
                  <g id="Group_1113801" data-name="Group 1113801">
                    <g id="Group_1113800" data-name="Group 1113800" clip-path="url(#clip-path-17)">
                      <path id="Path_904860" data-name="Path 904860" d="M141.028,39.458c-1.073-3.608-6.792.776-7.18,5.24s9.315,1.941,7.18-5.24" transform="translate(-133.837 -38.125)" fill="#fff"/>
                    </g>
                  </g>
                </g>
                <g id="Group_1113805" data-name="Group 1113805" transform="translate(135.034 49.677)" opacity="0.2">
                  <g id="Group_1113804" data-name="Group 1113804">
                    <g id="Group_1113803" data-name="Group 1113803" clip-path="url(#clip-path-18)">
                      <path id="Path_904861" data-name="Path 904861" d="M137.658,52.186c-.284-1.638,3.528-2.452,4.746,0s-3.864,5.084-4.746,0" transform="translate(-137.643 -50.637)" fill="#fff"/>
                    </g>
                  </g>
                </g>
                <g id="Group_1113808" data-name="Group 1113808" transform="translate(248.904 1.359)" opacity="0.2">
                  <g id="Group_1113807" data-name="Group 1113807">
                    <g id="Group_1113806" data-name="Group 1113806" clip-path="url(#clip-path-19)">
                      <path id="Path_904862" data-name="Path 904862" d="M261.285,1.5c3.832-1.028,5.627,4.851,1.941,9.508s-5.628-6.039-6.211-4.766-3.3,6.319-3.3,10.782c0,0-.388-13.389,7.568-15.524" transform="translate(-253.713 -1.385)" fill="#fff"/>
                    </g>
                  </g>
                </g>
                <path id="Path_904863" data-name="Path 904863" d="M238.124,93.813a214.9,214.9,0,0,1-66.5,10.389c-34.366,0-62.11-4.15-81.3-9.565,3.13.383,6.563.422,8.937-.589,5.435-2.325,9.32-1.942,14.362,1.55s13.97,5.975,24.065,5.219,7.76-5.023,19.591-3.08,10.34,5.229,24.291,5.2,21.622-6.347,30.1-8.1c7.221-1.491,10.124,3.345,26.459-1.02" transform="translate(-1.712 -1.755)" fill="#407bff"/>
                <g id="Group_1113811" data-name="Group 1113811" transform="translate(88.608 90.827)" opacity="0.5">
                  <g id="Group_1113810" data-name="Group 1113810">
                    <g id="Group_1113809" data-name="Group 1113809" clip-path="url(#clip-path-20)">
                      <path id="Path_904864" data-name="Path 904864" d="M238.124,93.813a214.9,214.9,0,0,1-66.5,10.389c-34.366,0-62.11-4.15-81.3-9.565,3.13.383,6.563.422,8.937-.589,5.435-2.325,9.32-1.942,14.362,1.55s13.97,5.975,24.065,5.219,7.76-5.023,19.591-3.08,10.34,5.229,24.291,5.2,21.622-6.347,30.1-8.1c7.221-1.491,10.124,3.345,26.459-1.02" transform="translate(-90.32 -92.582)" fill="#fff"/>
                    </g>
                  </g>
                </g>
                <path id="Path_904865" data-name="Path 904865" d="M289.565,102.126a5.709,5.709,0,0,1-4.125-6.875c.585-2.261.219-4.252-5.224-4.6-5.513-.343-9.634,3.041-13.637,5.778-3.316,2.276-6.552,4.1-10.428,2.973-5.846-1.717-7.485-5.759-12.41-7.75a17.022,17.022,0,0,0-6.141-1.128,33.175,33.175,0,0,0-3.443.128c-13.882,1.226-27.42,16.678-49.415,18.748s-48.905-1.805-69.34-6.249-27.165.039-35.965,2.109c-6.268,1.472-18.915-1.638-29.077-5.15a110.809,110.809,0,0,1-10.508-4.16c-9.457-4.434-13.2-1.295-13.656,1.913-.441,3.13,6.769,6.642-3.12,9.86-.059.02-.108.039-.167.059-.216.069-.45.137-.687.206C8.339,112.218,0,115.279,0,115.279H332.741s-17.163-6.218-43.176-13.153" transform="translate(0 -1.716)" fill="#407bff"/>
                <g id="Group_1113814" data-name="Group 1113814" transform="translate(0 88.806)" opacity="0.7">
                  <g id="Group_1113813" data-name="Group 1113813">
                    <g id="Group_1113812" data-name="Group 1113812" clip-path="url(#clip-path-21)">
                      <path id="Path_904866" data-name="Path 904866" d="M289.565,102.126a5.709,5.709,0,0,1-4.125-6.875c.585-2.261.219-4.252-5.224-4.6-5.513-.343-9.634,3.041-13.637,5.778-3.316,2.276-6.552,4.1-10.428,2.973-5.846-1.717-7.485-5.759-12.41-7.75a17.022,17.022,0,0,0-6.141-1.128,33.175,33.175,0,0,0-3.443.128c-13.882,1.226-27.42,16.678-49.415,18.748s-48.905-1.805-69.34-6.249-27.165.039-35.965,2.109c-6.268,1.472-18.915-1.638-29.077-5.15a110.809,110.809,0,0,1-10.508-4.16c-9.457-4.434-13.2-1.295-13.656,1.913-.441,3.13,6.769,6.642-3.12,9.86-.059.02-.108.039-.167.059-.216.069-.45.137-.687.206C8.339,112.218,0,115.279,0,115.279H332.741s-17.163-6.218-43.176-13.153" transform="translate(0 -90.522)" fill="#fff"/>
                    </g>
                  </g>
                </g>
                <g id="Group_1113817" data-name="Group 1113817" transform="translate(28.32 94.517)" opacity="0.5">
                  <g id="Group_1113816" data-name="Group 1113816">
                    <g id="Group_1113815" data-name="Group 1113815" clip-path="url(#clip-path-22)">
                      <path id="Path_904867" data-name="Path 904867" d="M28.881,99.036a2.361,2.361,0,0,1,.525-1.837,3.026,3.026,0,0,1,1.841-.814,11.738,11.738,0,0,1,3.9.387,36.583,36.583,0,0,1,7.14,2.779c2.211,1.049,4.539,1.949,6.868,2.8q3.489,1.3,7.049,2.4a72.172,72.172,0,0,0,14.267,3.2,51.312,51.312,0,0,0,7.214,0,42.029,42.029,0,0,0,7.08-1.235c4.724-1.193,9.71-2.815,14.965-3.248a70.532,70.532,0,0,1,15.375,1.012c10.02,1.507,19.748,4.006,29.565,6.179-5.036-.256-10.03-.945-15.015-1.527-4.98-.627-9.955-1.224-14.911-1.706-2.477-.235-4.957-.4-7.414-.5a47.673,47.673,0,0,0-7.243.157,65.808,65.808,0,0,0-7.112,1.424c-2.372.606-4.752,1.36-7.254,2.01a43.814,43.814,0,0,1-7.75,1.256,45.046,45.046,0,0,1-7.826-.165,49.972,49.972,0,0,1-7.657-1.559c-2.475-.676-4.891-1.486-7.275-2.371A96.055,96.055,0,0,1,41.3,101.412c-1.143-.645-2.115-1.3-3.216-1.889a29.072,29.072,0,0,0-3.32-1.578,10.889,10.889,0,0,0-3.487-.893,2.665,2.665,0,0,0-1.646.4,2.188,2.188,0,0,0-.754,1.587" transform="translate(-28.868 -96.343)" fill="#fff"/>
                    </g>
                  </g>
                </g>
                <g id="Group_1113820" data-name="Group 1113820" transform="translate(181.636 91.371)" opacity="0.5">
                  <g id="Group_1113819" data-name="Group 1113819">
                    <g id="Group_1113818" data-name="Group 1113818" clip-path="url(#clip-path-23)">
                      <path id="Path_904868" data-name="Path 904868" d="M185.145,112.3a69.733,69.733,0,0,0,13.344-2.72c2.174-.632,4.329-1.316,6.45-2.095,1.065-.371,2.13-.746,3.178-1.163q1.585-.592,3.136-1.265A118.154,118.154,0,0,0,223.39,99.19c3.93-2.205,8.312-4.576,13.213-5.366a20.032,20.032,0,0,1,7.532.1A17.824,17.824,0,0,1,251,97.061c.5.367.987.753,1.455,1.155l1.261,1.1a15.534,15.534,0,0,0,2.548,1.712,11.7,11.7,0,0,0,2.836,1.112,10.551,10.551,0,0,0,3.013.347,11.2,11.2,0,0,0,5.863-1.772c.852-.561,1.825-1.294,2.748-1.977.944-.677,1.915-1.32,2.9-1.934a28.2,28.2,0,0,1,6.31-2.976,14.731,14.731,0,0,1,3.43-.669,6.761,6.761,0,0,1,3.4.514,6.836,6.836,0,0,0-3.35-.1,16.006,16.006,0,0,0-3.207,1A30.13,30.13,0,0,0,274.425,98q-1.354,1.007-2.644,2.1c-.859.746-1.651,1.467-2.626,2.28a13.161,13.161,0,0,1-10.669,2.658,14.7,14.7,0,0,1-3.624-1.123,15.786,15.786,0,0,1-3.247-1.925l-1.375-1.095c-.414-.326-.838-.635-1.27-.923a15.376,15.376,0,0,0-11.7-2.321,31.072,31.072,0,0,0-6.107,1.888c-1,.418-1.993.89-2.974,1.391l-3.009,1.59a95.384,95.384,0,0,1-12.8,5.508q-1.644.574-3.312,1.068c-1.1.352-2.223.658-3.341.96-2.244.583-4.512,1.062-6.785,1.486a50.143,50.143,0,0,1-13.8.763" transform="translate(-185.145 -93.136)" fill="#fff"/>
                    </g>
                  </g>
                </g>
                <g id="Group_1113823" data-name="Group 1113823" transform="translate(228.441 102.313)" opacity="0.5">
                  <g id="Group_1113822" data-name="Group 1113822">
                    <g id="Group_1113821" data-name="Group 1113821" clip-path="url(#clip-path-24)">
                      <path id="Path_904869" data-name="Path 904869" d="M308.109,109.148c-3.2-1.009-6.4-2-9.657-2.7a31.98,31.98,0,0,0-4.867-.777c-.4-.037-.795-.008-1.19-.023a9.746,9.746,0,0,0-1.132.132,3.934,3.934,0,0,0-1.9.74,4.443,4.443,0,0,0-.508.908,3.833,3.833,0,0,1-.977,1.2,9.015,9.015,0,0,1-2.439,1.332,12.64,12.64,0,0,1-5.281.9c-1.805-.1-3.423-.522-5.015-.646a14.243,14.243,0,0,0-2.355-.057,11.305,11.305,0,0,0-2.261.426c-3.08.88-6.06,2.473-9.339,3.569a18.392,18.392,0,0,1-2.568.652,8.97,8.97,0,0,1-2.773.027,16.63,16.63,0,0,1-4.941-1.8c-1.512-.77-2.963-1.57-4.462-2.17a9.524,9.524,0,0,0-4.644-.78c-3.215.344-6.247,2.039-8.946,3.975a21.137,21.137,0,0,1,4.034-3.04,15.093,15.093,0,0,1,4.781-1.888,10.567,10.567,0,0,1,5.214.524,48.828,48.828,0,0,1,4.683,2,16.672,16.672,0,0,0,4.519,1.479,9.734,9.734,0,0,0,4.51-.737c3.066-1.071,6.032-2.688,9.4-3.7a13.221,13.221,0,0,1,2.672-.474,16,16,0,0,1,2.664.085c1.748.168,3.4.584,4.943.7a10.826,10.826,0,0,0,4.574-.656,7.857,7.857,0,0,0,1.992-.99,2.2,2.2,0,0,0,.637-.705,3.641,3.641,0,0,1,3.539-2.261,10.851,10.851,0,0,1,1.368-.1c.44.03.891.037,1.319.1a31.643,31.643,0,0,1,4.994,1.126,78.556,78.556,0,0,1,9.414,3.63" transform="translate(-232.855 -104.29)" fill="#fff"/>
                    </g>
                  </g>
                </g>
              </g>
            </g>
          </g>
        </g>
      </g>
      <g id="Group_1113851" data-name="Group 1113851" transform="translate(365.164 1680.49)">
        <g id="Group_1113850" data-name="Group 1113850" clip-path="url(#clip-path-25)">
          <g id="Group_1113849" data-name="Group 1113849">
            <g id="Group_1113848" data-name="Group 1113848" clip-path="url(#clip-path-25)">
              <path id="Path_904870" data-name="Path 904870" d="M42.051,0s-79.5,106.45-19.876,133.977a47.561,47.561,0,0,0,39.751,0C121.553,106.45,42.051,0,42.051,0" transform="translate(0)" fill="#407bff"/>
              <g id="Group_1113829" data-name="Group 1113829" transform="translate(0)" opacity="0.6">
                <g id="Group_1113828" data-name="Group 1113828">
                  <g id="Group_1113827" data-name="Group 1113827" clip-path="url(#clip-path-25)">
                    <path id="Path_904871" data-name="Path 904871" d="M42.051,0s-79.5,106.45-19.876,133.977a47.561,47.561,0,0,0,39.751,0C121.553,106.45,42.051,0,42.051,0" transform="translate(0)" fill="#fff"/>
                  </g>
                </g>
              </g>
              <path id="Path_904872" data-name="Path 904872" d="M42.587,1.343S81.2,50.823,77.836,95.962,31.851,136.624,15.915,122.2C-23.011,86.949,42.587,1.343,42.587,1.343" transform="translate(-0.536 -0.201)" fill="#407bff"/>
              <g id="Group_1113832" data-name="Group 1113832" transform="translate(3.039 1.142)" opacity="0.7">
                <g id="Group_1113831" data-name="Group 1113831">
                  <g id="Group_1113830" data-name="Group 1113830" clip-path="url(#clip-path-28)">
                    <path id="Path_904873" data-name="Path 904873" d="M42.587,1.343S-23.011,86.949,15.916,122.2C31.851,136.624,74.474,141.1,77.837,95.962S42.587,1.343,42.587,1.343" transform="translate(-3.574 -1.343)" fill="#fff"/>
                  </g>
                </g>
              </g>
              <path id="Path_904874" data-name="Path 904874" d="M43.061,4.152S75.131,66.4,67.909,99.63,15.277,128.382,8.15,101.143C-1.681,63.569,43.061,4.152,43.061,4.152" transform="translate(-1.01 -0.622)" fill="#407bff"/>
              <path id="Path_904875" data-name="Path 904875" d="M44.437,146.843c14.2,0,23.316-4.032,24.98-2.527,2.315,2.1-7.65,13.737-24.98,13.737-15.489,0-26.49-11.516-25.242-14.3s11.489,3.086,25.242,3.086" transform="translate(-2.863 -21.435)" fill="#407bff"/>
              <g id="Group_1113835" data-name="Group 1113835" transform="translate(5.729 3.53)" opacity="0.8">
                <g id="Group_1113834" data-name="Group 1113834">
                  <g id="Group_1113833" data-name="Group 1113833" clip-path="url(#clip-path-29)">
                    <path id="Path_904876" data-name="Path 904876" d="M43.061,4.152S75.131,66.4,67.909,99.63,15.277,128.382,8.15,101.143C-1.681,63.569,43.061,4.152,43.061,4.152" transform="translate(-6.739 -4.152)" fill="#fff"/>
                  </g>
                </g>
              </g>
              <g id="Group_1113838" data-name="Group 1113838" transform="translate(16.236 121.574)" opacity="0.8">
                <g id="Group_1113837" data-name="Group 1113837">
                  <g id="Group_1113836" data-name="Group 1113836" clip-path="url(#clip-path-30)">
                    <path id="Path_904877" data-name="Path 904877" d="M44.437,146.843c14.2,0,23.316-4.032,24.98-2.527,2.315,2.1-7.65,13.737-24.98,13.737-15.489,0-26.49-11.516-25.242-14.3s11.489,3.086,25.242,3.086" transform="translate(-19.099 -143.009)" fill="#fff"/>
                  </g>
                </g>
              </g>
              <g id="Group_1113841" data-name="Group 1113841" transform="translate(19.082 90)" opacity="0.5">
                <g id="Group_1113840" data-name="Group 1113840">
                  <g id="Group_1113839" data-name="Group 1113839" clip-path="url(#clip-path-31)">
                    <path id="Path_904878" data-name="Path 904878" d="M38.673,106c24.936-2.3,28.231,26.129,2.262,28.528S18.362,107.877,38.673,106" transform="translate(-22.447 -105.868)" fill="#fff"/>
                  </g>
                </g>
              </g>
              <g id="Group_1113844" data-name="Group 1113844" transform="translate(24.11 75.41)" opacity="0.4">
                <g id="Group_1113843" data-name="Group 1113843">
                  <g id="Group_1113842" data-name="Group 1113842" clip-path="url(#clip-path-32)">
                    <path id="Path_904879" data-name="Path 904879" d="M34.417,101.965c9.516.451,12.185-16.14,0-12.821-8.79,2.395-7.325,12.474,0,12.821" transform="translate(-28.361 -88.706)" fill="#fff"/>
                  </g>
                </g>
              </g>
              <g id="Group_1113847" data-name="Group 1113847" transform="translate(31.652 126.47)" opacity="0.5">
                <g id="Group_1113846" data-name="Group 1113846">
                  <g id="Group_1113845" data-name="Group 1113845" clip-path="url(#clip-path-33)">
                    <path id="Path_904880" data-name="Path 904880" d="M46.117,148.873c6.941.524,11.557-1.009,11.893.9S54.647,156.833,44,154.787c-8.952-1.72-9.775-6.81,2.119-5.913" transform="translate(-37.232 -148.768)" fill="#fff"/>
                  </g>
                </g>
              </g>
            </g>
          </g>
        </g>
      </g>
    </g>
  </g>
</svg>
