<svg xmlns="http://www.w3.org/2000/svg" xmlns:xlink="http://www.w3.org/1999/xlink" width="108" height="108" viewBox="0 0 108 108">
  <defs>
    <filter id="Path_896985" x="0" y="0" width="108" height="108" filterUnits="userSpaceOnUse">
      <feOffset dy="3" input="SourceAlpha"/>
      <feGaussianBlur stdDeviation="3" result="blur"/>
      <feFlood flood-opacity="0.161"/>
      <feComposite operator="in" in2="blur"/>
      <feComposite in="SourceGraphic"/>
    </filter>
  </defs>
  <g id="Group_1113095" data-name="Group 1113095" transform="translate(-1165.667 -3343)">
    <g id="Group_1109827" data-name="Group 1109827" transform="translate(417.886 -484)">
      <g id="Group_1098742" data-name="Group 1098742" transform="translate(-446.539 3444.258)">
        <g transform="matrix(1, 0, 0, 1, 1194.32, 382.74)" filter="url(#Path_896985)">
          <g id="Path_896985-2" data-name="Path 896985" transform="translate(9 6)" fill="#8dc0ff" opacity="0.859">
            <path d="M 44.99993896484375 88.5 C 39.12682723999023 88.5 33.4301872253418 87.35007476806641 28.06826400756836 85.08217620849609 C 22.88850212097168 82.89132690429688 18.23627662658691 79.75461578369141 14.2408390045166 75.75916290283203 C 10.24540138244629 71.76372528076172 7.108676433563232 67.11151123046875 4.917826652526855 61.9317512512207 C 2.649926424026489 56.56982421875 1.500001430511475 50.87317657470703 1.500001430511475 45.00006103515625 C 1.500001430511475 39.12682342529297 2.649926424026489 33.4301872253418 4.917826652526855 28.06826210021973 C 7.108676433563232 22.88850021362305 10.24540138244629 18.23628807067871 14.2408390045166 14.24083709716797 C 18.23628807067871 10.24540042877197 22.88850212097168 7.108675003051758 28.06826400756836 4.917825222015381 C 33.4301872253418 2.649924993515015 39.12682723999023 1.5 44.99993896484375 1.5 C 50.87305068969727 1.5 56.5697021484375 2.649924993515015 61.93162536621094 4.917825222015381 C 67.11138916015625 7.108675003051758 71.76360321044922 10.24540042877197 75.75904083251953 14.24083709716797 C 79.75448608398438 18.23627471923828 82.89120483398438 22.88850021362305 85.08205413818359 28.06826210021973 C 87.34995269775391 33.4301872253418 88.4998779296875 39.12682342529297 88.4998779296875 44.99993896484375 C 88.4998779296875 50.87317657470703 87.34995269775391 56.56982421875 85.08205413818359 61.9317512512207 C 82.89120483398438 67.11151123046875 79.75448608398438 71.76372528076172 75.75904083251953 75.75916290283203 C 71.76360321044922 79.75461578369141 67.11138916015625 82.89132690429688 61.93162536621094 85.08217620849609 C 56.5697021484375 87.35007476806641 50.87305068969727 88.5 44.99993896484375 88.5 Z" stroke="none"/>
            <path d="M 44.99993896484375 3 C 39.32865142822266 3 33.82860946655273 4.110054016113281 28.65258026123047 6.299331665039062 C 23.65162658691406 8.414558410644531 19.15966796875 11.44332885742188 15.30149841308594 15.30149841308594 C 11.44332122802734 19.15966796875 8.41455078125 23.65162658691406 6.299324035644531 28.65258407592773 C 4.110054016113281 33.82861328125 2.999992370605469 39.32865524291992 2.999992370605469 45.00005722045898 C 2.999992370605469 50.67134475708008 4.110054016113281 56.17138671875 6.299324035644531 61.347412109375 C 8.41455078125 66.34837341308594 11.44332122802734 70.84033203125 15.30149841308594 74.69850158691406 C 19.15966796875 78.55667114257812 23.65162658691406 81.58544158935547 28.65258026123047 83.70066833496094 C 33.82860946655273 85.88994598388672 39.32865142822266 87 44.99993896484375 87 C 50.67122650146484 87 56.17126846313477 85.88994598388672 61.34729766845703 83.70066833496094 C 66.34825134277344 81.58544158935547 70.8402099609375 78.55667114257812 74.69837951660156 74.69850158691406 C 78.55654907226562 70.84033203125 81.5853271484375 66.34837341308594 83.70055389404297 61.347412109375 C 85.88982391357422 56.17138671875 86.9998779296875 50.67134475708008 86.9998779296875 44.99994277954102 C 86.9998779296875 39.32865524291992 85.88982391357422 33.82861328125 83.70055389404297 28.65258407592773 C 81.5853271484375 23.65162658691406 78.55654907226562 19.15966796875 74.69837951660156 15.30149841308594 C 70.8402099609375 11.44332885742188 66.34825134277344 8.414558410644531 61.34729766845703 6.299331665039062 C 56.17126846313477 4.110054016113281 50.67122650146484 3 44.99993896484375 3 M 44.99993896484375 0 C 69.85272216796875 0 89.99988555908203 20.14715576171875 89.99988555908203 44.99994277954102 L 89.99988555908203 45.00005722045898 C 89.99988555908203 69.85284423828125 69.85272216796875 90 44.99993896484375 90 C 20.14715576171875 90 -7.62939453125e-06 69.85284423828125 -7.62939453125e-06 45.00005722045898 L -7.62939453125e-06 44.99994277954102 C -7.62939453125e-06 20.14715576171875 20.14715576171875 0 44.99993896484375 0 Z" stroke="none" fill="#fff"/>
          </g>
        </g>
        <g id="Rectangle_400907" data-name="Rectangle 400907" transform="translate(1203.32 388.742)" fill="none" stroke="#fff" stroke-width="3">
          <rect width="90" height="90" rx="45" stroke="none"/>
          <rect x="1.5" y="1.5" width="87" height="87" rx="43.5" fill="none"/>
        </g>
      </g>
    </g>
    <g id="Group_1113094" data-name="Group 1113094" transform="translate(1185.667 3359)">
      <path id="Path_901200" data-name="Path 901200" d="M232.163,185.908,228.914,167.5h-2.166L223.5,185.908" transform="translate(-193.248 -144.828)" fill="#b89458"/>
      <path id="Path_901201" data-name="Path 901201" d="M249.666,167.5H247.5l3.249,18.408h2.166Z" transform="translate(-213.999 -144.828)" fill="#a0804c"/>
      <path id="Path_901202" data-name="Path 901202" d="M170.846,316.494a19.421,19.421,0,0,0,13.252-5.2,15.163,15.163,0,0,0-26.5,0A19.421,19.421,0,0,0,170.846,316.494Z" transform="translate(-136.263 -262.419)" fill="#ffb655"/>
      <path id="Path_901203" data-name="Path 901203" d="M245.124,303.5a15.337,15.337,0,0,0-1.624.087,15.165,15.165,0,0,1,11.628,7.708,19.418,19.418,0,0,1-11.628,5.132c.536.044,1.077.068,1.624.068a19.421,19.421,0,0,0,13.252-5.2A15.155,15.155,0,0,0,245.124,303.5Z" transform="translate(-210.541 -262.419)" fill="#ff7956"/>
      <path id="Path_901204" data-name="Path 901204" d="M68.891,36.737A28,28,0,0,0,63.8,24.46l4.338-4.338L62.014,14l-4.338,4.338A28.005,28.005,0,0,0,45.4,13.246V7.5H36.737v5.746A28,28,0,0,0,24.46,18.335L20.123,14,14,20.123l4.338,4.338a28.005,28.005,0,0,0-5.089,12.277H7.5V45.4h5.746a28,28,0,0,0,5.089,12.277L14,62.014l6.126,6.126L24.46,63.8a28,28,0,0,0,12.277,5.089v5.746H45.4V68.891A28,28,0,0,0,57.676,63.8l4.338,4.338,6.126-6.126L63.8,57.676A28,28,0,0,0,68.891,45.4h5.746V36.737ZM41.068,60.56A19.491,19.491,0,1,1,60.56,41.068,19.491,19.491,0,0,1,41.068,60.56Z" transform="translate(-6.485 -6.485)" fill="#c6d2db"/>
      <path id="Path_901205" data-name="Path 901205" d="M117.157,95.5a21.657,21.657,0,1,0,21.657,21.657A21.657,21.657,0,0,0,117.157,95.5Zm0,41.148a19.491,19.491,0,1,1,19.491-19.491A19.491,19.491,0,0,1,117.157,136.648Z" transform="translate(-82.573 -82.573)" fill="#a9baca"/>
      <path id="Path_901206" data-name="Path 901206" d="M259.836,43.837c-4.778,4.778-4.326,12.977-4.326,12.977s8.2.452,12.977-4.326,4.326-12.977,4.326-12.977S264.615,39.059,259.836,43.837Z" transform="translate(-220.916 -34.153)" fill="#d7fc7e"/>
      <path id="Path_901207" data-name="Path 901207" d="M272.862,39.512a19.9,19.9,0,0,0-2.7.095c.032.925.147,8.405-4.33,12.882-3.037,3.037-7.457,3.961-10.274,4.231,0,.062,0,.095,0,.095s8.2.452,12.977-4.326S272.862,39.512,272.862,39.512Z" transform="translate(-220.964 -34.154)" fill="#55e072"/>
      <path id="Path_901208" data-name="Path 901208" d="M140.489,43.837c4.778,4.778,4.326,12.977,4.326,12.977s-8.2.452-12.977-4.326-4.326-12.977-4.326-12.977S135.711,39.059,140.489,43.837Z" transform="translate(-110.242 -34.153)" fill="#d7fc7e"/>
      <path id="Path_901209" data-name="Path 901209" d="M134.544,52.489c-4.477-4.477-4.362-11.957-4.33-12.882a19.9,19.9,0,0,0-2.7-.095s-.452,8.2,4.326,12.977,12.977,4.326,12.977,4.326,0-.033,0-.095C142,56.45,137.581,55.527,134.544,52.489Z" transform="translate(-110.241 -34.154)" fill="#55e072"/>
      <g id="Group_1113087" data-name="Group 1113087" transform="translate(23.033 11.127)">
        <path id="Path_901210" data-name="Path 901210" d="M0,0H2.03V2.166H0Z" transform="translate(0 1.435) rotate(-45)" fill="#fff"/>
      </g>
      <path id="Path_901211" data-name="Path 901211" d="M63.263,29.237a29.208,29.208,0,0,0-4.622-11.149l4.45-4.45L55.529,6.077,52.742,8.864A21.667,21.667,0,0,0,52.911,5.3l-.05-.908-.908-.05a22.522,22.522,0,0,0-10.024,2c-.659-.171-1.328-.32-2-.444V0H29.237V5.9c-.671.125-1.34.273-2,.444a22.527,22.527,0,0,0-10.024-2l-.908.05-.05.908a21.668,21.668,0,0,0,.169,3.562L13.638,6.077,6.077,13.638l4.45,4.45A29.206,29.206,0,0,0,5.9,29.237H0V39.93H5.9a29.209,29.209,0,0,0,4.622,11.15l-4.45,4.45,7.561,7.561,4.45-4.45a29.2,29.2,0,0,0,11.149,4.622v5.9H39.93v-5.9a29.2,29.2,0,0,0,11.149-4.622l4.45,4.45,7.561-7.561-4.45-4.45a29.2,29.2,0,0,0,4.622-11.15h5.9V29.237h-5.9ZM46.854,17.617c-2.833,2.833-7.058,3.69-9.72,3.94l5.929-5.929-1.436-1.436L35.7,20.121c.25-2.662,1.107-6.887,3.94-9.72C43.11,6.93,48.671,6.426,50.886,6.369c-.057,2.216-.561,7.776-4.032,11.248ZM30.407,7.764l.86-.133V2.03H37.9v5.6l.86.133q.342.053.683.115A12.718,12.718,0,0,0,38.2,8.966a15.141,15.141,0,0,0-3.619,6.266,15.14,15.14,0,0,0-3.619-6.266,12.718,12.718,0,0,0-1.24-1.087q.341-.062.683-.115ZM29.528,10.4c2.832,2.833,3.69,7.057,3.94,9.72L27.54,14.192,26.1,15.628l5.929,5.929c-2.662-.25-6.887-1.107-9.72-3.94-3.471-3.472-3.975-9.032-4.032-11.248,2.216.057,7.776.561,11.247,4.032ZM67.137,37.9h-5.6l-.133.86a27.138,27.138,0,0,1-4.9,11.832l-.514.7,4.235,4.235-4.69,4.69-4.235-4.235-.7.514A27.134,27.134,0,0,1,38.76,61.4l-.86.133v5.6H31.267v-5.6l-.86-.133a27.137,27.137,0,0,1-11.832-4.9l-.7-.514-4.235,4.235-4.69-4.69,4.235-4.235-.514-.7a27.135,27.135,0,0,1-4.9-11.832l-.133-.86H2.03V31.267h5.6l.133-.86a27.139,27.139,0,0,1,4.9-11.832l.514-.7L8.948,13.638l4.69-4.69,3.525,3.525a15.315,15.315,0,0,0,3.714,6.58c4.272,4.272,10.924,4.636,13.07,4.636.32,0,.54-.008.636-.013.048,0,.126.005.231.008l2.946,16.7a16.212,16.212,0,0,0-6.354,0L33.927,26.1l-2-.353L29.252,40.9l.12.021a16.052,16.052,0,0,0-2.867,1.3,16.278,16.278,0,0,0-5.366,5.02,18.46,18.46,0,0,1-.327-24.978L19.3,20.912a20.507,20.507,0,1,0,30.569,0l-1.513,1.354a18.46,18.46,0,0,1-.327,24.978,16.278,16.278,0,0,0-5.366-5.02,16.052,16.052,0,0,0-2.867-1.3l.12-.021L36.866,23.627c2.921-.213,7.957-1.107,11.424-4.574A15.316,15.316,0,0,0,52,12.473l3.525-3.525,4.69,4.69-4.235,4.235.514.7a27.134,27.134,0,0,1,4.9,11.832l.133.86h5.6ZM46.532,48.666a18.442,18.442,0,0,1-23.9,0,14.149,14.149,0,0,1,23.9,0Z"/>
      <g id="Group_1113088" data-name="Group 1113088" transform="translate(43.158 11.131)">
        <path id="Path_901212" data-name="Path 901212" d="M0,0H2.166V2.03H0Z" transform="translate(0 1.531) rotate(-45)" fill="#fff"/>
      </g>
      <g id="Group_1113089" data-name="Group 1113089" transform="translate(27.004 47.645)">
        <path id="Path_901213" data-name="Path 901213" d="M199.5,352h2.166v2.03H199.5Z" transform="translate(-199.5 -352)" fill="#fff"/>
      </g>
      <g id="Group_1113090" data-name="Group 1113090" transform="translate(30.252 44.397)">
        <path id="Path_901214" data-name="Path 901214" d="M223.5,328h2.166v2.03H223.5Z" transform="translate(-223.5 -328)" fill="#fff"/>
      </g>
      <g id="Group_1113091" data-name="Group 1113091" transform="translate(59.489 33.568)">
        <path id="Path_901215" data-name="Path 901215" d="M439.5,248h2.166v2.03H439.5Z" transform="translate(-439.5 -248)" fill="#fff"/>
      </g>
      <g id="Group_1113092" data-name="Group 1113092" transform="translate(7.512 33.568)">
        <path id="Path_901216" data-name="Path 901216" d="M55.5,248h2.166v2.03H55.5Z" transform="translate(-55.5 -248)" fill="#fff"/>
      </g>
      <g id="Group_1113093" data-name="Group 1113093" transform="translate(33.501 60.64)">
        <path id="Path_901217" data-name="Path 901217" d="M247.5,448h2.166v2.03H247.5Z" transform="translate(-247.5 -448)" fill="#fff"/>
      </g>
    </g>
  </g>
</svg>
