<svg xmlns="http://www.w3.org/2000/svg" xmlns:xlink="http://www.w3.org/1999/xlink" width="108.914" height="108.914" viewBox="0 0 108.914 108.914">
  <defs>
    <filter id="Path_874925" x="0" y="0" width="108.914" height="108.914" filterUnits="userSpaceOnUse">
      <feOffset dy="3" input="SourceAlpha"/>
      <feGaussianBlur stdDeviation="3" result="blur"/>
      <feFlood flood-opacity="0.161"/>
      <feComposite operator="in" in2="blur"/>
      <feComposite in="SourceGraphic"/>
    </filter>
  </defs>
  <g id="Group_1113659" data-name="Group 1113659" transform="translate(-675 1235)">
    <g id="Group_1109835" data-name="Group 1109835" transform="translate(-124.5 -3181.211)">
      <g id="Group_1107913" data-name="Group 1107913" transform="translate(808.5 1952.211)">
        <g transform="matrix(1, 0, 0, 1, -9, -6)" filter="url(#Path_874925)">
          <g id="Path_874925-2" data-name="Path 874925" transform="translate(9 6)" fill="#65a532" opacity="0.859">
            <path d="M 45.45676803588867 89.41407012939453 C 39.52198028564453 89.41407012939453 33.76551818847656 88.25206756591797 28.34726715087891 85.96034240722656 C 23.11311721801758 83.74648284912109 18.41204261779785 80.57682800292969 14.37464332580566 76.5394287109375 C 10.33724308013916 72.50202941894531 7.167593002319336 67.80095672607422 4.953730583190918 62.56679534912109 C 2.662005424499512 57.14855575561523 1.500005483627319 51.39208221435547 1.500005483627319 45.45729446411133 C 1.500005483627319 39.52198028564453 2.662005424499512 33.76551818847656 4.953730583190918 28.34726905822754 C 7.167593002319336 23.11310577392578 10.33724308013916 18.41203117370605 14.37464332580566 14.37464332580566 C 18.41204261779785 10.33724403381348 23.11311721801758 7.167593955993652 28.34726715087891 4.953731060028076 C 33.76551818847656 2.662006139755249 39.52198028564453 1.500006198883057 45.45676803588867 1.500006198883057 C 51.39155578613281 1.500006198883057 57.14802932739258 2.662006139755249 62.56626892089844 4.953731060028076 C 67.80043029785156 7.167593955993652 72.50150299072266 10.33724403381348 76.53890228271484 14.37464332580566 C 80.57630920410156 18.41203117370605 83.74595642089844 23.11310577392578 85.95981597900391 28.34726905822754 C 88.25154113769531 33.76551818847656 89.41354370117188 39.52198028564453 89.41354370117188 45.45676803588867 C 89.41354370117188 51.39208221435547 88.25154113769531 57.14855575561523 85.95981597900391 62.56679534912109 C 83.74595642089844 67.80095672607422 80.57630920410156 72.50202941894531 76.53890228271484 76.5394287109375 C 72.50150299072266 80.57682800292969 67.80043029785156 83.74648284912109 62.56626892089844 85.96034240722656 C 57.14802932739258 88.25206756591797 51.39155578613281 89.41407012939453 45.45676803588867 89.41407012939453 Z" stroke="none"/>
            <path d="M 45.45676803588867 3 C 39.72381210327148 3 34.1639404296875 4.12213134765625 28.93159484863281 6.335227966308594 C 23.87622833251953 8.473472595214844 19.33542633056641 11.53517150878906 15.43529510498047 15.435302734375 C 11.53517150878906 19.33543395996094 8.473464965820312 23.87622833251953 6.335227966308594 28.93160247802734 C 4.122123718261719 34.16394424438477 3 39.72381591796875 3 45.4572868347168 C 3 51.19024658203125 4.122123718261719 56.75011825561523 6.335227966308594 61.98246002197266 C 8.473464965820312 67.03782653808594 11.53517150878906 71.57862854003906 15.43529510498047 75.478759765625 C 19.33542633056641 79.37889099121094 23.87622833251953 82.44058990478516 28.93159484863281 84.57883453369141 C 34.1639404296875 86.79193115234375 39.72381210327148 87.9140625 45.45676803588867 87.9140625 C 51.18972396850586 87.9140625 56.74959564208984 86.79193115234375 61.98194122314453 84.57883453369141 C 67.03730773925781 82.44058990478516 71.57810974121094 79.37889099121094 75.47824096679688 75.478759765625 C 79.37837219238281 71.57862854003906 82.44007110595703 67.03782653808594 84.57830810546875 61.98246002197266 C 86.79141235351562 56.75011825561523 87.91353607177734 51.19024658203125 87.91353607177734 45.4567756652832 C 87.91353607177734 39.72381591796875 86.79141235351562 34.16394424438477 84.57830810546875 28.93160247802734 C 82.44007110595703 23.87622833251953 79.37837219238281 19.33543395996094 75.47824096679688 15.435302734375 C 71.57810974121094 11.53517150878906 67.03730773925781 8.473472595214844 61.98194122314453 6.335227966308594 C 56.74959564208984 4.12213134765625 51.18972396850586 3 45.45676803588867 3 M 45.45676803588867 0 C 70.56185150146484 0 90.91353607177734 20.35169219970703 90.91353607177734 45.4567756652832 L 90.91353607177734 45.4572868347168 C 90.91353607177734 70.5623779296875 70.56185150146484 90.9140625 45.45676803588867 90.9140625 C 20.3516845703125 90.9140625 0 70.5623779296875 0 45.4572868347168 L 0 45.4567756652832 C 0 20.35169219970703 20.3516845703125 0 45.45676803588867 0 Z" stroke="none" fill="#fff"/>
          </g>
        </g>
        <g id="Path_874923" data-name="Path 874923" transform="translate(0 0)" fill="none">
          <path d="M45.457,0A45.457,45.457,0,0,1,90.914,45.457h0A45.457,45.457,0,0,1,0,45.457H0A45.457,45.457,0,0,1,45.457,0Z" stroke="none"/>
          <path d="M 45.45676803588867 3 C 39.72381210327148 3 34.1639404296875 4.12213134765625 28.93159484863281 6.335227966308594 C 23.87622833251953 8.473472595214844 19.33542633056641 11.53517150878906 15.43529510498047 15.435302734375 C 11.53517150878906 19.33543395996094 8.473464965820312 23.87622833251953 6.335227966308594 28.93160247802734 C 4.122123718261719 34.16394424438477 3 39.72381591796875 3 45.4572868347168 C 3 51.19024658203125 4.122123718261719 56.75011825561523 6.335227966308594 61.98246002197266 C 8.473464965820312 67.03782653808594 11.53517150878906 71.57862854003906 15.43529510498047 75.478759765625 C 19.33542633056641 79.37889099121094 23.87622833251953 82.44058990478516 28.93159484863281 84.57883453369141 C 34.1639404296875 86.79193115234375 39.72381210327148 87.9140625 45.45676803588867 87.9140625 C 51.18972396850586 87.9140625 56.74959564208984 86.79193115234375 61.98194122314453 84.57883453369141 C 67.03730773925781 82.44058990478516 71.57810974121094 79.37889099121094 75.47824096679688 75.478759765625 C 79.37837219238281 71.57862854003906 82.44007110595703 67.03782653808594 84.57830810546875 61.98246002197266 C 86.79141235351562 56.75011825561523 87.91353607177734 51.19024658203125 87.91353607177734 45.4567756652832 C 87.91353607177734 39.72381591796875 86.79141235351562 34.16394424438477 84.57830810546875 28.93160247802734 C 82.44007110595703 23.87622833251953 79.37837219238281 19.33543395996094 75.47824096679688 15.435302734375 C 71.57810974121094 11.53517150878906 67.03730773925781 8.473472595214844 61.98194122314453 6.335227966308594 C 56.74959564208984 4.12213134765625 51.18972396850586 3 45.45676803588867 3 M 45.45676803588867 0 C 70.56185150146484 0 90.91353607177734 20.35169219970703 90.91353607177734 45.4567756652832 L 90.91353607177734 45.4572868347168 C 90.91353607177734 70.5623779296875 70.56185150146484 90.9140625 45.45676803588867 90.9140625 C 20.3516845703125 90.9140625 0 70.5623779296875 0 45.4572868347168 L 0 45.4567756652832 C 0 20.35169219970703 20.3516845703125 0 45.45676803588867 0 Z" stroke="none" fill="#fff"/>
        </g>
      </g>
    </g>
    <g id="Layer_x0020_1" transform="translate(705.25 -1224)">
      <path id="Path_904439" data-name="Path 904439" d="M10.434,49.627A4.582,4.582,0,0,1,5.952,45.06V36.011H1.5a.756.756,0,0,1,0-1.513H5.952V28.589a2.284,2.284,0,1,1-.086-4.567h3.8V21.453A4.521,4.521,0,0,1,14.145,17H34.326a4.5,4.5,0,0,1,4.453,4.453v7.821h1.713a.743.743,0,0,1,.742.913l-.742,3.254H42.6a.771.771,0,0,1,0,1.541h-.771v7.507a11.361,11.361,0,0,1,7.622,10.761A11.472,11.472,0,1,1,26.933,50.2a11.364,11.364,0,0,1,7.193-7.707V41.435H21.481v16.1a.771.771,0,0,1-1.541,0V38.409a2.353,2.353,0,0,0-2.284-2.4H15V45.06A4.581,4.581,0,0,1,10.434,49.627Zm0,12.76a3.085,3.085,0,0,1-2.512-1.57c-.885-1.656-.257-4.253,1.855-7.764a.762.762,0,0,1,1.313,0c2.141,3.482,2.8,6.109,1.913,7.764A3.107,3.107,0,0,1,10.434,62.387Zm0-7.45c-3.368,6.251.428,6.68,1.227,5.138C11.975,59.475,12.175,58.076,10.434,54.936Zm18.554,9.819H1.5a.756.756,0,0,1,0-1.513H28.988A.756.756,0,0,1,28.988,64.756ZM11.2,24.022h3.882a2.309,2.309,0,0,1,2.284,2.284A2.385,2.385,0,0,1,15,28.589V34.5h2.655a3.863,3.863,0,0,1,3.825,3.911v1.513H34.126V34.983c-.542,0-1.513.114-1.513-.771a.762.762,0,0,1,.742-.771h2.112c-1.028-4.482-1.427-4.168,1.8-4.168V21.453a3.012,3.012,0,0,0-2.94-2.94H14.145a3.012,3.012,0,0,0-2.94,2.94Zm2.284,11.989H7.494V45.06a3,3,0,1,0,5.994,0ZM7.494,34.5h5.994V28.589H7.494ZM38.95,33.442l.6-2.655H36.41l.6,2.655Zm-.828,27.032a2.284,2.284,0,0,1,0-4.567,2.285,2.285,0,1,1,0,4.567Zm0-3.054a.771.771,0,0,0,0,1.541A.771.771,0,1,0,38.123,57.42Zm4.482-1.8a2.328,2.328,0,0,1-2.284-2.369A2.254,2.254,0,0,1,42.6,50.969a2.328,2.328,0,0,1,2.369,2.284A2.44,2.44,0,0,1,42.6,55.621Zm0-3.14c-1.085,0-.942,1.627,0,1.627A.814.814,0,1,0,42.6,52.481Zm-9.534,3.14a2.328,2.328,0,0,1-2.284-2.369,2.254,2.254,0,0,1,2.284-2.284,2.353,2.353,0,0,1,2.4,2.284A2.445,2.445,0,0,1,33.07,55.621Zm0-3.14c-1.085,0-.913,1.627,0,1.627A.814.814,0,1,0,33.07,52.481ZM47.257,51.34c-1.8,0-3.368-2.084-4.653-2.084-1.17,0-2.769,2.084-4.567,2.084-1.913,0-3.511-2.084-4.681-2.084-1.427,0-2.969,2.4-5.138,2.055a9.96,9.96,0,1,0,19.525,0C47.571,51.311,47.428,51.34,47.257,51.34ZM28.646,49.8c1.2.057,2.8-2.084,4.738-2.084,1.8,0,3.368,2.084,4.653,2.084,1.17,0,2.769-2.084,4.567-2.084,1.913,0,3.482,2.112,4.71,2.084A9.679,9.679,0,0,0,40.863,43.8a.762.762,0,0,1-.542-.771v-8.05H35.639v8.164a.768.768,0,0,1-.542.657A9.679,9.679,0,0,0,28.646,49.8ZM5.867,25.564a.756.756,0,0,0,0,1.513h9.22a.908.908,0,0,0,.771-.771.78.78,0,0,0-.771-.742Z" fill="#333" fill-rule="evenodd"/>
      <path id="Path_904440" data-name="Path 904440" d="M237,428.909h5.994V423H237Z" transform="translate(-229.506 -394.411)" fill="#ccc" fill-rule="evenodd"/>
      <path id="Path_904441" data-name="Path 904441" d="M242.994,683H237v9.049a3,3,0,1,0,5.994,0Z" transform="translate(-229.506 -646.989)" fill="#1aa1ff" fill-rule="evenodd"/>
      <path id="Path_904442" data-name="Path 904442" d="M154.479,318.513h9.22a.908.908,0,0,0,.771-.771A.78.78,0,0,0,163.7,317h-9.22A.756.756,0,0,0,154.479,318.513Z" transform="translate(-148.612 -291.436)" fill="#c06000" fill-rule="evenodd"/>
      <path id="Path_904443" data-name="Path 904443" d="M1250,500l.6,2.655h1.941l.6-2.655Z" transform="translate(-1213.59 -469.213)" fill="#c06000" fill-rule="evenodd"/>
      <path id="Path_904444" data-name="Path 904444" d="M989.675,647h-4.681v8.164a.768.768,0,0,1-.542.657A9.679,9.679,0,0,0,978,661.815c1.2.057,2.8-2.084,4.738-2.084,1.8,0,3.368,2.084,4.653,2.084,1.17,0,2.769-2.084,4.567-2.084,1.913,0,3.483,2.112,4.71,2.084a9.679,9.679,0,0,0-6.451-5.994.762.762,0,0,1-.542-.771Z" transform="translate(-949.354 -612.017)" fill="#ccc" fill-rule="evenodd"/>
      <path id="Path_904445" data-name="Path 904445" d="M970.768,1147c-1.17,0-2.769,2.084-4.567,2.084-1.912,0-3.511-2.084-4.681-2.084-1.427,0-2.969,2.4-5.138,2.055a9.96,9.96,0,1,0,19.525,0c-.171,0-.314.029-.485.029C973.623,1149.084,972.053,1147,970.768,1147Zm-4.482,11.218a2.284,2.284,0,0,1,0-4.567,2.285,2.285,0,1,1,0,4.567Zm4.482-4.853a2.328,2.328,0,0,1-2.284-2.369,2.254,2.254,0,0,1,2.284-2.284,2.328,2.328,0,0,1,2.369,2.284A2.44,2.44,0,0,1,970.768,1153.365ZM963.632,1151a2.445,2.445,0,0,1-2.4,2.369A2.328,2.328,0,0,1,958.95,1151a2.254,2.254,0,0,1,2.284-2.284A2.353,2.353,0,0,1,963.632,1151Z" transform="translate(-928.164 -1097.744)" fill="#1aa1ff" fill-rule="evenodd"/>
      <g id="Group_1113658" data-name="Group 1113658" transform="translate(32.319 52.481)">
        <path id="Path_904446" data-name="Path 904446" d="M1107.453,1261.627a.814.814,0,1,0,0-1.627C1106.368,1260,1106.539,1261.627,1107.453,1261.627Z" transform="translate(-1106.702 -1260)" fill="#ccc" fill-rule="evenodd"/>
        <path id="Path_904447" data-name="Path 904447" d="M1284.5,1433a.771.771,0,0,0,0,1.542A.771.771,0,1,0,1284.5,1433Z" transform="translate(-1278.696 -1428.062)" fill="#ccc" fill-rule="evenodd"/>
        <path id="Path_904448" data-name="Path 904448" d="M1441.1,1260c-1.085,0-.942,1.627,0,1.627A.814.814,0,1,0,1441.1,1260Z" transform="translate(-1430.818 -1260)" fill="#ccc" fill-rule="evenodd"/>
      </g>
      <path id="Path_904449" data-name="Path 904449" d="M294.555,1351.138c.314-.6.514-2-1.227-5.138C289.959,1352.251,293.756,1352.68,294.555,1351.138Z" transform="translate(-282.894 -1291.064)" fill="#1aa1ff" fill-rule="evenodd"/>
    </g>
  </g>
</svg>
