<svg xmlns="http://www.w3.org/2000/svg" xmlns:xlink="http://www.w3.org/1999/xlink" width="108" height="108" viewBox="0 0 108 108">
  <defs>
    <filter id="Path_896985" x="0" y="0" width="108" height="108" filterUnits="userSpaceOnUse">
      <feOffset dy="3" input="SourceAlpha"/>
      <feGaussianBlur stdDeviation="3" result="blur"/>
      <feFlood flood-opacity="0.161"/>
      <feComposite operator="in" in2="blur"/>
      <feComposite in="SourceGraphic"/>
    </filter>
  </defs>
  <g id="Group_1113084" data-name="Group 1113084" transform="translate(-203.667 -3075)">
    <g id="Group_1109826" data-name="Group 1109826" transform="translate(-544.114 -752)">
      <g id="Group_1098742" data-name="Group 1098742" transform="translate(-446.539 3444.258)">
        <g transform="matrix(1, 0, 0, 1, 1194.32, 382.74)" filter="url(#Path_896985)">
          <g id="Path_896985-2" data-name="Path 896985" transform="translate(9 6)" fill="#65a532" opacity="0.859">
            <path d="M 44.99993896484375 88.5 C 39.12682723999023 88.5 33.4301872253418 87.35007476806641 28.06826400756836 85.08217620849609 C 22.88850212097168 82.89132690429688 18.23627662658691 79.75461578369141 14.2408390045166 75.75916290283203 C 10.24540138244629 71.76372528076172 7.108676433563232 67.11151123046875 4.917826652526855 61.9317512512207 C 2.649926424026489 56.56982421875 1.500001430511475 50.87317657470703 1.500001430511475 45.00006103515625 C 1.500001430511475 39.12682342529297 2.649926424026489 33.4301872253418 4.917826652526855 28.06826210021973 C 7.108676433563232 22.88850021362305 10.24540138244629 18.23628807067871 14.2408390045166 14.24083709716797 C 18.23628807067871 10.24540042877197 22.88850212097168 7.108675003051758 28.06826400756836 4.917825222015381 C 33.4301872253418 2.649924993515015 39.12682723999023 1.5 44.99993896484375 1.5 C 50.87305068969727 1.5 56.5697021484375 2.649924993515015 61.93162536621094 4.917825222015381 C 67.11138916015625 7.108675003051758 71.76360321044922 10.24540042877197 75.75904083251953 14.24083709716797 C 79.75448608398438 18.23627471923828 82.89120483398438 22.88850021362305 85.08205413818359 28.06826210021973 C 87.34995269775391 33.4301872253418 88.4998779296875 39.12682342529297 88.4998779296875 44.99993896484375 C 88.4998779296875 50.87317657470703 87.34995269775391 56.56982421875 85.08205413818359 61.9317512512207 C 82.89120483398438 67.11151123046875 79.75448608398438 71.76372528076172 75.75904083251953 75.75916290283203 C 71.76360321044922 79.75461578369141 67.11138916015625 82.89132690429688 61.93162536621094 85.08217620849609 C 56.5697021484375 87.35007476806641 50.87305068969727 88.5 44.99993896484375 88.5 Z" stroke="none"/>
            <path d="M 44.99993896484375 3 C 39.32865142822266 3 33.82860946655273 4.110054016113281 28.65258026123047 6.299331665039062 C 23.65162658691406 8.414558410644531 19.15966796875 11.44332885742188 15.30149841308594 15.30149841308594 C 11.44332122802734 19.15966796875 8.41455078125 23.65162658691406 6.299324035644531 28.65258407592773 C 4.110054016113281 33.82861328125 2.999992370605469 39.32865524291992 2.999992370605469 45.00005722045898 C 2.999992370605469 50.67134475708008 4.110054016113281 56.17138671875 6.299324035644531 61.347412109375 C 8.41455078125 66.34837341308594 11.44332122802734 70.84033203125 15.30149841308594 74.69850158691406 C 19.15966796875 78.55667114257812 23.65162658691406 81.58544158935547 28.65258026123047 83.70066833496094 C 33.82860946655273 85.88994598388672 39.32865142822266 87 44.99993896484375 87 C 50.67122650146484 87 56.17126846313477 85.88994598388672 61.34729766845703 83.70066833496094 C 66.34825134277344 81.58544158935547 70.8402099609375 78.55667114257812 74.69837951660156 74.69850158691406 C 78.55654907226562 70.84033203125 81.5853271484375 66.34837341308594 83.70055389404297 61.347412109375 C 85.88982391357422 56.17138671875 86.9998779296875 50.67134475708008 86.9998779296875 44.99994277954102 C 86.9998779296875 39.32865524291992 85.88982391357422 33.82861328125 83.70055389404297 28.65258407592773 C 81.5853271484375 23.65162658691406 78.55654907226562 19.15966796875 74.69837951660156 15.30149841308594 C 70.8402099609375 11.44332885742188 66.34825134277344 8.414558410644531 61.34729766845703 6.299331665039062 C 56.17126846313477 4.110054016113281 50.67122650146484 3 44.99993896484375 3 M 44.99993896484375 0 C 69.85272216796875 0 89.99988555908203 20.14715576171875 89.99988555908203 44.99994277954102 L 89.99988555908203 45.00005722045898 C 89.99988555908203 69.85284423828125 69.85272216796875 90 44.99993896484375 90 C 20.14715576171875 90 -7.62939453125e-06 69.85284423828125 -7.62939453125e-06 45.00005722045898 L -7.62939453125e-06 44.99994277954102 C -7.62939453125e-06 20.14715576171875 20.14715576171875 0 44.99993896484375 0 Z" stroke="none" fill="#fff"/>
          </g>
        </g>
        <g id="Rectangle_400907" data-name="Rectangle 400907" transform="translate(1203.32 388.742)" fill="none" stroke="#fff" stroke-width="3">
          <rect width="90" height="90" rx="45" stroke="none"/>
          <rect x="1.5" y="1.5" width="87" height="87" rx="43.5" fill="none"/>
        </g>
      </g>
    </g>
    <g id="Group_1113083" data-name="Group 1113083" transform="translate(227.667 3096)">
      <g id="Group_1113081" data-name="Group 1113081" transform="translate(18.259 8.85)">
        <path id="Path_901167" data-name="Path 901167" d="M258.687,264.338a8.867,8.867,0,0,0-2.235,8.941A8.957,8.957,0,0,0,267.629,262.1,8.868,8.868,0,0,0,258.687,264.338Z" transform="translate(-244.064 -239.638)" fill="#ffc66c"/>
        <path id="Path_901168" data-name="Path 901168" d="M154.967,262.1a8.957,8.957,0,0,0,11.177,11.177A8.957,8.957,0,0,0,154.967,262.1Z" transform="translate(-154.566 -239.638)" fill="#ffc66c"/>
        <path id="Path_901169" data-name="Path 901169" d="M258.687,171.266a8.867,8.867,0,0,0-2.235,8.941,8.957,8.957,0,0,0,11.177-11.177A8.868,8.868,0,0,0,258.687,171.266Z" transform="translate(-244.064 -157.561)" fill="#ffc66c"/>
        <path id="Path_901170" data-name="Path 901170" d="M215.912,82.817a8.867,8.867,0,0,0,4.742,7.9,8.957,8.957,0,0,0,0-15.806A8.868,8.868,0,0,0,215.912,82.817Z" transform="translate(-208.665 -74.914)" fill="#ffc66c"/>
        <path id="Path_901171" data-name="Path 901171" d="M154.967,169.03a8.957,8.957,0,0,0,11.177,11.177,8.957,8.957,0,0,0-11.177-11.177Z" transform="translate(-154.566 -157.561)" fill="#ffc66c"/>
      </g>
      <g id="Group_1113082" data-name="Group 1113082" transform="translate(6.858 5.912)">
        <circle id="Ellipse_11786" data-name="Ellipse 11786" cx="3.308" cy="3.308" r="3.308" transform="translate(40.153)" fill="#ff5d5d"/>
        <circle id="Ellipse_11787" data-name="Ellipse 11787" cx="3.308" cy="3.308" r="3.308" transform="translate(0 42.043)" fill="#ff5d5d"/>
      </g>
      <path id="Path_901172" data-name="Path 901172" d="M145.049,88.226a10.035,10.035,0,0,0,2.534,10.109,9.8,9.8,0,0,0,7.09,2.986,10.566,10.566,0,0,0,1.9-.173v7.73a1.181,1.181,0,1,0,2.363,0v-7.733a10.583,10.583,0,0,0,1.918.176,9.8,9.8,0,0,0,7.09-2.986,10.035,10.035,0,0,0,2.534-10.109,1.181,1.181,0,0,0-.728-.777,8.4,8.4,0,0,0-1.559-.365,10.037,10.037,0,0,0,2.287-9.853,1.181,1.181,0,0,0-.728-.778,10.167,10.167,0,0,0-6.353.066A10.613,10.613,0,0,0,163.694,74a10.034,10.034,0,0,0-5.356-8.94,1.181,1.181,0,0,0-1.065-.035A10,10,0,0,0,151.848,74a10.612,10.612,0,0,0,.3,2.528,10.166,10.166,0,0,0-6.367-.071,1.181,1.181,0,0,0-.728.778,10.037,10.037,0,0,0,2.287,9.853,8.4,8.4,0,0,0-1.559.365A1.182,1.182,0,0,0,145.049,88.226Zm21.226,8.438a7.625,7.625,0,0,1-7.145,2.113,7.662,7.662,0,0,1,2.11-7.148,7.8,7.8,0,0,1,2.664-1.774q.252-.081.508-.179a7.852,7.852,0,0,1,3.969-.16A7.617,7.617,0,0,1,166.276,96.665Zm2.106-18.144a7.617,7.617,0,0,1-2.106,7.149,7.8,7.8,0,0,1-2.657,1.772q-.257.083-.518.183a7.847,7.847,0,0,1-3.973.158,7.931,7.931,0,0,1-.183-1.664c0-.01,0-.02,0-.03a7.478,7.478,0,0,1,1.826-4.946c.174-.173.349-.359.522-.559A7.624,7.624,0,0,1,168.381,78.52ZM157.765,67.453A7.617,7.617,0,0,1,161.332,74a7.535,7.535,0,0,1-1.768,4.972c-.191.192-.37.385-.539.58a7.932,7.932,0,0,1-1.252.995,8.031,8.031,0,0,1-1.446-1.195c-.055-.061-.111-.121-.169-.182A7.536,7.536,0,0,1,154.21,74,7.625,7.625,0,0,1,157.765,67.453Zm-10.617,11.07a7.662,7.662,0,0,1,7.142,2.112l.05.052q.155.174.311.334a7.481,7.481,0,0,1,1.925,4.662v.788a7.872,7.872,0,0,1-.173,1.311,7.85,7.85,0,0,1-3.977-.159q-.256-.1-.509-.18a7.8,7.8,0,0,1-2.662-1.774A7.617,7.617,0,0,1,147.148,78.523Zm0,10.995a7.921,7.921,0,0,1,4.059.192q.169.063.338.119a7.744,7.744,0,0,1,2.745,1.8,7.531,7.531,0,0,1,2.286,5.048v.788a7.875,7.875,0,0,1-.173,1.311,7.794,7.794,0,0,1-9.254-9.259Z" transform="translate(-127.523 -57.244)"/>
      <path id="Path_901173" data-name="Path 901173" d="M10.165,46.774a4.468,4.468,0,0,0-2.013.475,27.892,27.892,0,0,1,27.9-44.28,1.181,1.181,0,1,0,.49-2.311A30.445,30.445,0,0,0,30.242,0,30.241,30.241,0,0,0,6.39,48.833a4.489,4.489,0,1,0,3.775-2.059Zm1.5,5.993h0a2.126,2.126,0,1,1,.623-1.5A2.129,2.129,0,0,1,11.669,52.767Z" transform="translate(0)"/>
      <path id="Path_901174" data-name="Path 901174" d="M232.721,46.97a4.483,4.483,0,1,0-1.762,1.584,27.892,27.892,0,0,1-27.014,44.454,1.181,1.181,0,0,0-.415,2.326,30.523,30.523,0,0,0,5.339.47A30.241,30.241,0,0,0,232.721,46.97Zm-5.278-.926a2.126,2.126,0,1,1,3.007,0h0a2.126,2.126,0,0,1-3.007,0Z" transform="translate(-178.628 -35.32)"/>
      <path id="Path_901175" data-name="Path 901175" d="M155.983,474.448l-.446,1.094.443-1.1a1.181,1.181,0,0,0-.885,2.19l.036.014a1.181,1.181,0,1,0,.852-2.2Z" transform="translate(-136.121 -418.323)"/>
      <path id="Path_901176" data-name="Path 901176" d="M338.672,20.032l.013.005a1.181,1.181,0,1,0,.885-2.191l-.021-.008a1.181,1.181,0,1,0-.878,2.194Z" transform="translate(-298.009 -15.656)"/>
    </g>
  </g>
</svg>
