<svg xmlns="http://www.w3.org/2000/svg" xmlns:xlink="http://www.w3.org/1999/xlink" width="108.914" height="108.914" viewBox="0 0 108.914 108.914">
  <defs>
    <filter id="Path_874925" x="0" y="0" width="108.914" height="108.914" filterUnits="userSpaceOnUse">
      <feOffset dy="3" input="SourceAlpha"/>
      <feGaussianBlur stdDeviation="3" result="blur"/>
      <feFlood flood-opacity="0.161"/>
      <feComposite operator="in" in2="blur"/>
      <feComposite in="SourceGraphic"/>
    </filter>
  </defs>
  <g id="Group_1113550" data-name="Group 1113550" transform="translate(-742.385 -10370.666)">
    <g id="Group_1109835" data-name="Group 1109835" transform="translate(-57.115 8424.455)">
      <g id="Group_1107913" data-name="Group 1107913" transform="translate(808.5 1952.211)">
        <g transform="matrix(1, 0, 0, 1, -9, -6)" filter="url(#Path_874925)">
          <g id="Path_874925-2" data-name="Path 874925" transform="translate(9 6)" fill="#65a532" opacity="0.859">
            <path d="M 45.45676803588867 89.41407012939453 C 39.52198028564453 89.41407012939453 33.76551818847656 88.25206756591797 28.34726715087891 85.96034240722656 C 23.11311721801758 83.74648284912109 18.41204261779785 80.57682800292969 14.37464332580566 76.5394287109375 C 10.33724308013916 72.50202941894531 7.167593002319336 67.80095672607422 4.953730583190918 62.56679534912109 C 2.662005424499512 57.14855575561523 1.500005483627319 51.39208221435547 1.500005483627319 45.45729446411133 C 1.500005483627319 39.52198028564453 2.662005424499512 33.76551818847656 4.953730583190918 28.34726905822754 C 7.167593002319336 23.11310577392578 10.33724308013916 18.41203117370605 14.37464332580566 14.37464332580566 C 18.41204261779785 10.33724403381348 23.11311721801758 7.167593955993652 28.34726715087891 4.953731060028076 C 33.76551818847656 2.662006139755249 39.52198028564453 1.500006198883057 45.45676803588867 1.500006198883057 C 51.39155578613281 1.500006198883057 57.14802932739258 2.662006139755249 62.56626892089844 4.953731060028076 C 67.80043029785156 7.167593955993652 72.50150299072266 10.33724403381348 76.53890228271484 14.37464332580566 C 80.57630920410156 18.41203117370605 83.74595642089844 23.11310577392578 85.95981597900391 28.34726905822754 C 88.25154113769531 33.76551818847656 89.41354370117188 39.52198028564453 89.41354370117188 45.45676803588867 C 89.41354370117188 51.39208221435547 88.25154113769531 57.14855575561523 85.95981597900391 62.56679534912109 C 83.74595642089844 67.80095672607422 80.57630920410156 72.50202941894531 76.53890228271484 76.5394287109375 C 72.50150299072266 80.57682800292969 67.80043029785156 83.74648284912109 62.56626892089844 85.96034240722656 C 57.14802932739258 88.25206756591797 51.39155578613281 89.41407012939453 45.45676803588867 89.41407012939453 Z" stroke="none"/>
            <path d="M 45.45676803588867 3 C 39.72381210327148 3 34.1639404296875 4.12213134765625 28.93159484863281 6.335227966308594 C 23.87622833251953 8.473472595214844 19.33542633056641 11.53517150878906 15.43529510498047 15.435302734375 C 11.53517150878906 19.33543395996094 8.473464965820312 23.87622833251953 6.335227966308594 28.93160247802734 C 4.122123718261719 34.16394424438477 3 39.72381591796875 3 45.4572868347168 C 3 51.19024658203125 4.122123718261719 56.75011825561523 6.335227966308594 61.98246002197266 C 8.473464965820312 67.03782653808594 11.53517150878906 71.57862854003906 15.43529510498047 75.478759765625 C 19.33542633056641 79.37889099121094 23.87622833251953 82.44058990478516 28.93159484863281 84.57883453369141 C 34.1639404296875 86.79193115234375 39.72381210327148 87.9140625 45.45676803588867 87.9140625 C 51.18972396850586 87.9140625 56.74959564208984 86.79193115234375 61.98194122314453 84.57883453369141 C 67.03730773925781 82.44058990478516 71.57810974121094 79.37889099121094 75.47824096679688 75.478759765625 C 79.37837219238281 71.57862854003906 82.44007110595703 67.03782653808594 84.57830810546875 61.98246002197266 C 86.79141235351562 56.75011825561523 87.91353607177734 51.19024658203125 87.91353607177734 45.4567756652832 C 87.91353607177734 39.72381591796875 86.79141235351562 34.16394424438477 84.57830810546875 28.93160247802734 C 82.44007110595703 23.87622833251953 79.37837219238281 19.33543395996094 75.47824096679688 15.435302734375 C 71.57810974121094 11.53517150878906 67.03730773925781 8.473472595214844 61.98194122314453 6.335227966308594 C 56.74959564208984 4.12213134765625 51.18972396850586 3 45.45676803588867 3 M 45.45676803588867 0 C 70.56185150146484 0 90.91353607177734 20.35169219970703 90.91353607177734 45.4567756652832 L 90.91353607177734 45.4572868347168 C 90.91353607177734 70.5623779296875 70.56185150146484 90.9140625 45.45676803588867 90.9140625 C 20.3516845703125 90.9140625 0 70.5623779296875 0 45.4572868347168 L 0 45.4567756652832 C 0 20.35169219970703 20.3516845703125 0 45.45676803588867 0 Z" stroke="none" fill="#fff"/>
          </g>
        </g>
        <g id="Path_874923" data-name="Path 874923" transform="translate(0 0)" fill="none">
          <path d="M45.457,0A45.457,45.457,0,0,1,90.914,45.457h0A45.457,45.457,0,0,1,0,45.457H0A45.457,45.457,0,0,1,45.457,0Z" stroke="none"/>
          <path d="M 45.45676803588867 3 C 39.72381210327148 3 34.1639404296875 4.12213134765625 28.93159484863281 6.335227966308594 C 23.87622833251953 8.473472595214844 19.33542633056641 11.53517150878906 15.43529510498047 15.435302734375 C 11.53517150878906 19.33543395996094 8.473464965820312 23.87622833251953 6.335227966308594 28.93160247802734 C 4.122123718261719 34.16394424438477 3 39.72381591796875 3 45.4572868347168 C 3 51.19024658203125 4.122123718261719 56.75011825561523 6.335227966308594 61.98246002197266 C 8.473464965820312 67.03782653808594 11.53517150878906 71.57862854003906 15.43529510498047 75.478759765625 C 19.33542633056641 79.37889099121094 23.87622833251953 82.44058990478516 28.93159484863281 84.57883453369141 C 34.1639404296875 86.79193115234375 39.72381210327148 87.9140625 45.45676803588867 87.9140625 C 51.18972396850586 87.9140625 56.74959564208984 86.79193115234375 61.98194122314453 84.57883453369141 C 67.03730773925781 82.44058990478516 71.57810974121094 79.37889099121094 75.47824096679688 75.478759765625 C 79.37837219238281 71.57862854003906 82.44007110595703 67.03782653808594 84.57830810546875 61.98246002197266 C 86.79141235351562 56.75011825561523 87.91353607177734 51.19024658203125 87.91353607177734 45.4567756652832 C 87.91353607177734 39.72381591796875 86.79141235351562 34.16394424438477 84.57830810546875 28.93160247802734 C 82.44007110595703 23.87622833251953 79.37837219238281 19.33543395996094 75.47824096679688 15.435302734375 C 71.57810974121094 11.53517150878906 67.03730773925781 8.473472595214844 61.98194122314453 6.335227966308594 C 56.74959564208984 4.12213134765625 51.18972396850586 3 45.45676803588867 3 M 45.45676803588867 0 C 70.56185150146484 0 90.91353607177734 20.35169219970703 90.91353607177734 45.4567756652832 L 90.91353607177734 45.4572868347168 C 90.91353607177734 70.5623779296875 70.56185150146484 90.9140625 45.45676803588867 90.9140625 C 20.3516845703125 90.9140625 0 70.5623779296875 0 45.4572868347168 L 0 45.4567756652832 C 0 20.35169219970703 20.3516845703125 0 45.45676803588867 0 Z" stroke="none" fill="#fff"/>
        </g>
      </g>
    </g>
    <g id="Group_1113549" data-name="Group 1113549" transform="translate(765.32 10397.745)">
      <g id="Group_1113547" data-name="Group 1113547" transform="translate(12.733 0.954)">
        <path id="Path_904337" data-name="Path 904337" d="M59.617,447.895a2.526,2.526,0,1,0,0,5.052h32.5l.037-5.161Z" transform="translate(-57.091 -406.099)" fill="#fff"/>
        <path id="Path_904338" data-name="Path 904338" d="M57.092,54.342V13.3a3.28,3.28,0,0,1,3.28-3.28H93.5a1.017,1.017,0,0,1,1.017,1.017V50.862a.954.954,0,0,1-.954.954l-33.453,0S57.092,51.575,57.092,54.342Z" transform="translate(-57.092 -10.02)" fill="#5cd0b3"/>
        <path id="Path_904339" data-name="Path 904339" d="M177.95,146.226H165.5a.952.952,0,0,1-.952-.952v-5.738a.952.952,0,0,1,.952-.952H177.95a.952.952,0,0,1,.952.952v5.738A.952.952,0,0,1,177.95,146.226Z" transform="translate(-154.311 -126.34)" fill="#ffee80"/>
        <path id="Path_904340" data-name="Path 904340" d="M454.25,63.83H451.2v7.119h4.068v-6.1A1.017,1.017,0,0,0,454.25,63.83Z" transform="translate(-413.669 -58.706)" fill="#ff7d97"/>
        <path id="Path_904341" data-name="Path 904341" d="M451.2,138.583V145.7h3.051a1.017,1.017,0,0,0,1.017-1.017v-6.1Z" transform="translate(-413.669 -126.34)" fill="#ffee80"/>
        <path id="Path_904342" data-name="Path 904342" d="M454.25,333.915H451.2v7.119h3.051a1.017,1.017,0,0,0,1.017-1.017v-5.085A1.017,1.017,0,0,0,454.25,333.915Z" transform="translate(-413.669 -303.071)" fill="#d1a184"/>
      </g>
      <g id="Group_1113548" data-name="Group 1113548" transform="translate(8.064 0)">
        <path id="Path_904343" data-name="Path 904343" d="M170.79,136.206v-5.735a1.91,1.91,0,0,0-1.908-1.908H156.431a1.911,1.911,0,0,0-1.908,1.908v5.735a1.911,1.911,0,0,0,1.908,1.908h12.451A1.91,1.91,0,0,0,170.79,136.206Zm-14.359-5.735h12.451v5.735H156.431Z" transform="translate(-140.576 -116.32)"/>
        <path id="Path_904344" data-name="Path 904344" d="M53.314,5.124h-2.2V1.972A1.973,1.973,0,0,0,49.144,0H16.013a4.239,4.239,0,0,0-4.234,4.234V6.455h-.727a2.988,2.988,0,1,0,0,5.976h.727V15.2h-.727a2.988,2.988,0,0,0,0,5.976h.727v2.768h-.727a2.988,2.988,0,1,0,0,5.976h.727v2.768h-.727a2.988,2.988,0,1,0,0,5.976h.727v6.614a3.484,3.484,0,0,0,3.48,3.48h34.9a.954.954,0,0,0,0-1.908H48.75V43.7h.457A1.91,1.91,0,0,0,51.115,41.8V39.871h2.2A1.973,1.973,0,0,0,55.285,37.9V32.815a1.973,1.973,0,0,0-1.971-1.971h-2.2V21.27h2.2A1.973,1.973,0,0,0,55.285,19.3V7.1a1.973,1.973,0,0,0-1.971-1.971Zm0,1.908a.063.063,0,0,1,.063.063v5.148H51.115V7.032Zm-42.262,3.49a1.08,1.08,0,0,1,0-2.16h.727v2.16Zm0,8.744a1.08,1.08,0,0,1,0-2.16h.727v2.159h-.727Zm0,8.744a1.08,1.08,0,1,1,0-2.16h.727V28.01h-.727Zm0,8.744a1.08,1.08,0,1,1,0-2.16h.727v2.159h-.727Zm35.79,10.094H15.259a1.572,1.572,0,0,1,0-3.144l10.609,0h0a.954.954,0,0,0,0-1.908l-10.609,0a3.457,3.457,0,0,0-1.572.377V34.594h.727a1.081,1.081,0,0,1,1.08,1.08.954.954,0,0,0,1.908,0,2.991,2.991,0,0,0-2.988-2.988h-.727V25.851h.727a1.081,1.081,0,0,1,1.08,1.08.954.954,0,0,0,1.908,0,2.991,2.991,0,0,0-2.988-2.988h-.727V17.107h.727a1.081,1.081,0,0,1,1.08,1.08.954.954,0,1,0,1.908,0A2.991,2.991,0,0,0,14.414,15.2h-.727V8.363h.727a1.081,1.081,0,0,1,1.08,1.08.954.954,0,0,0,1.908,0,2.991,2.991,0,0,0-2.988-2.988h-.727V4.234a2.328,2.328,0,0,1,2.326-2.326H43.106V41.8h-8.66a.954.954,0,1,0,0,1.908h12.4v3.144ZM49.207,41.8H45.014V1.909h4.131a.063.063,0,0,1,.063.063Zm4.107-9.044a.063.063,0,0,1,.063.063V37.9a.063.063,0,0,1-.063.063h-2.2v-5.21ZM53.376,19.3a.063.063,0,0,1-.063.063h-2.2v-5.21h2.261Z" transform="translate(-8.064 0)"/>
        <circle id="Ellipse_11863" data-name="Ellipse 11863" cx="0.952" cy="0.952" r="0.952" transform="translate(21.128 41.801)"/>
      </g>
    </g>
  </g>
</svg>
