<svg xmlns="http://www.w3.org/2000/svg" xmlns:xlink="http://www.w3.org/1999/xlink" width="108.914" height="108.914" viewBox="0 0 108.914 108.914">
  <defs>
    <filter id="Path_874925" x="0" y="0" width="108.914" height="108.914" filterUnits="userSpaceOnUse">
      <feOffset dy="3" input="SourceAlpha"/>
      <feGaussianBlur stdDeviation="3" result="blur"/>
      <feFlood flood-opacity="0.161"/>
      <feComposite operator="in" in2="blur"/>
      <feComposite in="SourceGraphic"/>
    </filter>
  </defs>
  <g id="Group_1113577" data-name="Group 1113577" transform="translate(-1057.385 -10371)">
    <g id="Group_1109835" data-name="Group 1109835" transform="translate(257.885 8424.789)">
      <g id="Group_1107913" data-name="Group 1107913" transform="translate(808.5 1952.211)">
        <g transform="matrix(1, 0, 0, 1, -9, -6)" filter="url(#Path_874925)">
          <g id="Path_874925-2" data-name="Path 874925" transform="translate(9 6)" fill="#65a532" opacity="0.859">
            <path d="M 45.45676803588867 89.41407012939453 C 39.52198028564453 89.41407012939453 33.76551818847656 88.25206756591797 28.34726715087891 85.96034240722656 C 23.11311721801758 83.74648284912109 18.41204261779785 80.57682800292969 14.37464332580566 76.5394287109375 C 10.33724308013916 72.50202941894531 7.167593002319336 67.80095672607422 4.953730583190918 62.56679534912109 C 2.662005424499512 57.14855575561523 1.500005483627319 51.39208221435547 1.500005483627319 45.45729446411133 C 1.500005483627319 39.52198028564453 2.662005424499512 33.76551818847656 4.953730583190918 28.34726905822754 C 7.167593002319336 23.11310577392578 10.33724308013916 18.41203117370605 14.37464332580566 14.37464332580566 C 18.41204261779785 10.33724403381348 23.11311721801758 7.167593955993652 28.34726715087891 4.953731060028076 C 33.76551818847656 2.662006139755249 39.52198028564453 1.500006198883057 45.45676803588867 1.500006198883057 C 51.39155578613281 1.500006198883057 57.14802932739258 2.662006139755249 62.56626892089844 4.953731060028076 C 67.80043029785156 7.167593955993652 72.50150299072266 10.33724403381348 76.53890228271484 14.37464332580566 C 80.57630920410156 18.41203117370605 83.74595642089844 23.11310577392578 85.95981597900391 28.34726905822754 C 88.25154113769531 33.76551818847656 89.41354370117188 39.52198028564453 89.41354370117188 45.45676803588867 C 89.41354370117188 51.39208221435547 88.25154113769531 57.14855575561523 85.95981597900391 62.56679534912109 C 83.74595642089844 67.80095672607422 80.57630920410156 72.50202941894531 76.53890228271484 76.5394287109375 C 72.50150299072266 80.57682800292969 67.80043029785156 83.74648284912109 62.56626892089844 85.96034240722656 C 57.14802932739258 88.25206756591797 51.39155578613281 89.41407012939453 45.45676803588867 89.41407012939453 Z" stroke="none"/>
            <path d="M 45.45676803588867 3 C 39.72381210327148 3 34.1639404296875 4.12213134765625 28.93159484863281 6.335227966308594 C 23.87622833251953 8.473472595214844 19.33542633056641 11.53517150878906 15.43529510498047 15.435302734375 C 11.53517150878906 19.33543395996094 8.473464965820312 23.87622833251953 6.335227966308594 28.93160247802734 C 4.122123718261719 34.16394424438477 3 39.72381591796875 3 45.4572868347168 C 3 51.19024658203125 4.122123718261719 56.75011825561523 6.335227966308594 61.98246002197266 C 8.473464965820312 67.03782653808594 11.53517150878906 71.57862854003906 15.43529510498047 75.478759765625 C 19.33542633056641 79.37889099121094 23.87622833251953 82.44058990478516 28.93159484863281 84.57883453369141 C 34.1639404296875 86.79193115234375 39.72381210327148 87.9140625 45.45676803588867 87.9140625 C 51.18972396850586 87.9140625 56.74959564208984 86.79193115234375 61.98194122314453 84.57883453369141 C 67.03730773925781 82.44058990478516 71.57810974121094 79.37889099121094 75.47824096679688 75.478759765625 C 79.37837219238281 71.57862854003906 82.44007110595703 67.03782653808594 84.57830810546875 61.98246002197266 C 86.79141235351562 56.75011825561523 87.91353607177734 51.19024658203125 87.91353607177734 45.4567756652832 C 87.91353607177734 39.72381591796875 86.79141235351562 34.16394424438477 84.57830810546875 28.93160247802734 C 82.44007110595703 23.87622833251953 79.37837219238281 19.33543395996094 75.47824096679688 15.435302734375 C 71.57810974121094 11.53517150878906 67.03730773925781 8.473472595214844 61.98194122314453 6.335227966308594 C 56.74959564208984 4.12213134765625 51.18972396850586 3 45.45676803588867 3 M 45.45676803588867 0 C 70.56185150146484 0 90.91353607177734 20.35169219970703 90.91353607177734 45.4567756652832 L 90.91353607177734 45.4572868347168 C 90.91353607177734 70.5623779296875 70.56185150146484 90.9140625 45.45676803588867 90.9140625 C 20.3516845703125 90.9140625 0 70.5623779296875 0 45.4572868347168 L 0 45.4567756652832 C 0 20.35169219970703 20.3516845703125 0 45.45676803588867 0 Z" stroke="none" fill="#fff"/>
          </g>
        </g>
        <g id="Path_874923" data-name="Path 874923" transform="translate(0 0)" fill="none">
          <path d="M45.457,0A45.457,45.457,0,0,1,90.914,45.457h0A45.457,45.457,0,0,1,0,45.457H0A45.457,45.457,0,0,1,45.457,0Z" stroke="none"/>
          <path d="M 45.45676803588867 3 C 39.72381210327148 3 34.1639404296875 4.12213134765625 28.93159484863281 6.335227966308594 C 23.87622833251953 8.473472595214844 19.33542633056641 11.53517150878906 15.43529510498047 15.435302734375 C 11.53517150878906 19.33543395996094 8.473464965820312 23.87622833251953 6.335227966308594 28.93160247802734 C 4.122123718261719 34.16394424438477 3 39.72381591796875 3 45.4572868347168 C 3 51.19024658203125 4.122123718261719 56.75011825561523 6.335227966308594 61.98246002197266 C 8.473464965820312 67.03782653808594 11.53517150878906 71.57862854003906 15.43529510498047 75.478759765625 C 19.33542633056641 79.37889099121094 23.87622833251953 82.44058990478516 28.93159484863281 84.57883453369141 C 34.1639404296875 86.79193115234375 39.72381210327148 87.9140625 45.45676803588867 87.9140625 C 51.18972396850586 87.9140625 56.74959564208984 86.79193115234375 61.98194122314453 84.57883453369141 C 67.03730773925781 82.44058990478516 71.57810974121094 79.37889099121094 75.47824096679688 75.478759765625 C 79.37837219238281 71.57862854003906 82.44007110595703 67.03782653808594 84.57830810546875 61.98246002197266 C 86.79141235351562 56.75011825561523 87.91353607177734 51.19024658203125 87.91353607177734 45.4567756652832 C 87.91353607177734 39.72381591796875 86.79141235351562 34.16394424438477 84.57830810546875 28.93160247802734 C 82.44007110595703 23.87622833251953 79.37837219238281 19.33543395996094 75.47824096679688 15.435302734375 C 71.57810974121094 11.53517150878906 67.03730773925781 8.473472595214844 61.98194122314453 6.335227966308594 C 56.74959564208984 4.12213134765625 51.18972396850586 3 45.45676803588867 3 M 45.45676803588867 0 C 70.56185150146484 0 90.91353607177734 20.35169219970703 90.91353607177734 45.4567756652832 L 90.91353607177734 45.4572868347168 C 90.91353607177734 70.5623779296875 70.56185150146484 90.9140625 45.45676803588867 90.9140625 C 20.3516845703125 90.9140625 0 70.5623779296875 0 45.4572868347168 L 0 45.4567756652832 C 0 20.35169219970703 20.3516845703125 0 45.45676803588867 0 Z" stroke="none" fill="#fff"/>
        </g>
      </g>
    </g>
    <g id="Group_1113576" data-name="Group 1113576" transform="translate(1035.855 10393)">
      <g id="Group_1113558" data-name="Group 1113558" transform="translate(53.371 0.842)">
        <g id="Group_1113551" data-name="Group 1113551" transform="translate(3.402)">
          <path id="Path_904345" data-name="Path 904345" d="M92.6,7.5a1.4,1.4,0,0,0-1.365,1.11l-.9,4.333H94.87l-.9-4.333A1.4,1.4,0,0,0,92.6,7.5Z" transform="translate(-90.334 -7.5)" fill="#ac80dd"/>
        </g>
        <g id="Group_1113552" data-name="Group 1113552" transform="translate(0 13.608)">
          <path id="Path_904346" data-name="Path 904346" d="M71.368,163.873H60.028v-34.02a1.134,1.134,0,0,1,1.134-1.134h9.072a1.134,1.134,0,0,1,1.134,1.134Z" transform="translate(-60.028 -128.719)" fill="#ac80dd"/>
        </g>
        <g id="Group_1113553" data-name="Group 1113553" transform="translate(7.371 13.608)">
          <path id="Path_904347" data-name="Path 904347" d="M128.524,128.72h-2.835a1.134,1.134,0,0,1,1.134,1.134v34.019h2.835v-34.02A1.134,1.134,0,0,0,128.524,128.72Z" transform="translate(-125.689 -128.72)" fill="#9d66d5"/>
        </g>
        <g id="Group_1113554" data-name="Group 1113554" transform="translate(1.134 9.072)">
          <path id="Path_904348" data-name="Path 904348" d="M79.2,92.849H70.13v-3.4a1.134,1.134,0,0,1,1.134-1.134h6.8A1.134,1.134,0,0,1,79.2,89.447v3.4Z" transform="translate(-70.13 -88.313)" fill="#b1e4f9"/>
        </g>
        <g id="Group_1113555" data-name="Group 1113555" transform="translate(0 48.761)">
          <path id="Path_904349" data-name="Path 904349" d="M69.1,448.9H62.3a2.268,2.268,0,0,1-2.268-2.268V441.87h11.34v4.763A2.268,2.268,0,0,1,69.1,448.9Z" transform="translate(-60.028 -441.87)" fill="#dddaec"/>
        </g>
        <g id="Group_1113556" data-name="Group 1113556" transform="translate(6.237 48.761)">
          <path id="Path_904350" data-name="Path 904350" d="M117.856,441.87v4.763a2.268,2.268,0,0,1-2.268,2.268h2.835a2.268,2.268,0,0,0,2.268-2.268V441.87Z" transform="translate(-115.588 -441.87)" fill="#beb9dd"/>
        </g>
        <g id="Group_1113557" data-name="Group 1113557" transform="translate(2.268 5.443)">
          <path id="Path_904351" data-name="Path 904351" d="M87.035,59.616h-6.8V57.121a1.134,1.134,0,0,1,1.134-1.134H85.9a1.134,1.134,0,0,1,1.134,1.134v2.495Z" transform="translate(-80.231 -55.987)" fill="#e4fbef"/>
        </g>
      </g>
      <g id="Group_1113566" data-name="Group 1113566" transform="translate(86.03 0.842)">
        <g id="Group_1113559" data-name="Group 1113559" transform="translate(3.402)">
          <path id="Path_904352" data-name="Path 904352" d="M383.528,7.5a1.4,1.4,0,0,0-1.365,1.11l-.9,4.333H385.8l-.9-4.333A1.394,1.394,0,0,0,383.528,7.5Z" transform="translate(-381.26 -7.5)" fill="#ffe07d"/>
        </g>
        <g id="Group_1113560" data-name="Group 1113560" transform="translate(0 13.608)">
          <path id="Path_904353" data-name="Path 904353" d="M362.295,163.873h-11.34v-34.02a1.134,1.134,0,0,1,1.134-1.134h9.072a1.134,1.134,0,0,1,1.134,1.134Z" transform="translate(-350.955 -128.719)" fill="#ffe07d"/>
        </g>
        <g id="Group_1113561" data-name="Group 1113561" transform="translate(7.371 13.608)">
          <path id="Path_904354" data-name="Path 904354" d="M419.451,128.72h-2.835a1.134,1.134,0,0,1,1.134,1.134v34.019h2.835v-34.02A1.134,1.134,0,0,0,419.451,128.72Z" transform="translate(-416.616 -128.72)" fill="#ffd064"/>
        </g>
        <g id="Group_1113562" data-name="Group 1113562" transform="translate(1.134 9.072)">
          <path id="Path_904355" data-name="Path 904355" d="M370.129,92.849h-9.072v-3.4a1.134,1.134,0,0,1,1.134-1.134h6.8a1.134,1.134,0,0,1,1.134,1.134v3.4Z" transform="translate(-361.057 -88.313)" fill="#b1e4f9"/>
        </g>
        <g id="Group_1113563" data-name="Group 1113563" transform="translate(0 48.761)">
          <path id="Path_904356" data-name="Path 904356" d="M360.027,448.9h-6.8a2.268,2.268,0,0,1-2.268-2.268V441.87h11.34v4.763A2.268,2.268,0,0,1,360.027,448.9Z" transform="translate(-350.955 -441.87)" fill="#fbf4c6"/>
        </g>
        <g id="Group_1113564" data-name="Group 1113564" transform="translate(6.237 48.761)">
          <path id="Path_904357" data-name="Path 904357" d="M408.782,441.87v4.763a2.268,2.268,0,0,1-2.268,2.268h2.835a2.268,2.268,0,0,0,2.268-2.268V441.87Z" transform="translate(-406.514 -441.87)" fill="#f6e781"/>
        </g>
        <g id="Group_1113565" data-name="Group 1113565" transform="translate(2.268 5.443)">
          <path id="Path_904358" data-name="Path 904358" d="M377.962,59.616h-6.8V57.121a1.134,1.134,0,0,1,1.134-1.134h4.536a1.134,1.134,0,0,1,1.134,1.134Z" transform="translate(-371.158 -55.987)" fill="#e4fbef"/>
        </g>
      </g>
      <g id="Group_1113574" data-name="Group 1113574" transform="translate(69.7 0.842)">
        <g id="Group_1113567" data-name="Group 1113567" transform="translate(3.402)">
          <path id="Path_904359" data-name="Path 904359" d="M238.065,7.5A1.4,1.4,0,0,0,236.7,8.61l-.9,4.333h4.536l-.9-4.333A1.4,1.4,0,0,0,238.065,7.5Z" transform="translate(-235.797 -7.5)" fill="#df75a5"/>
        </g>
        <g id="Group_1113568" data-name="Group 1113568" transform="translate(0 13.608)">
          <path id="Path_904360" data-name="Path 904360" d="M216.832,163.873h-11.34v-34.02a1.134,1.134,0,0,1,1.134-1.134H215.7a1.134,1.134,0,0,1,1.134,1.134v34.02Z" transform="translate(-205.492 -128.719)" fill="#df75a5"/>
        </g>
        <g id="Group_1113569" data-name="Group 1113569" transform="translate(7.371 13.608)">
          <path id="Path_904361" data-name="Path 904361" d="M273.987,128.72h-2.835a1.134,1.134,0,0,1,1.134,1.134v34.019h2.835v-34.02A1.134,1.134,0,0,0,273.987,128.72Z" transform="translate(-271.152 -128.72)" fill="#dd5790"/>
        </g>
        <g id="Group_1113570" data-name="Group 1113570" transform="translate(1.134 9.072)">
          <path id="Path_904362" data-name="Path 904362" d="M224.665,92.849h-9.072v-3.4a1.134,1.134,0,0,1,1.134-1.134h6.8a1.134,1.134,0,0,1,1.134,1.134v3.4Z" transform="translate(-215.593 -88.313)" fill="#b1e4f9"/>
        </g>
        <g id="Group_1113571" data-name="Group 1113571" transform="translate(0 48.761)">
          <path id="Path_904363" data-name="Path 904363" d="M214.564,448.9h-6.8a2.268,2.268,0,0,1-2.268-2.268V441.87h11.34v4.763A2.268,2.268,0,0,1,214.564,448.9Z" transform="translate(-205.492 -441.87)" fill="#f9c6da"/>
        </g>
        <g id="Group_1113572" data-name="Group 1113572" transform="translate(6.237 48.761)">
          <path id="Path_904364" data-name="Path 904364" d="M263.319,441.87v4.763a2.268,2.268,0,0,1-2.268,2.268h2.835a2.268,2.268,0,0,0,2.268-2.268V441.87Z" transform="translate(-261.051 -441.87)" fill="#efa5c3"/>
        </g>
        <g id="Group_1113573" data-name="Group 1113573" transform="translate(2.268 5.443)">
          <path id="Path_904365" data-name="Path 904365" d="M232.5,59.616h-6.8V57.121a1.134,1.134,0,0,1,1.134-1.134h4.536a1.134,1.134,0,0,1,1.134,1.134Z" transform="translate(-225.695 -55.987)" fill="#e4fbef"/>
        </g>
      </g>
      <g id="Group_1113575" data-name="Group 1113575" transform="translate(52.529 0)">
        <path id="Path_904366" data-name="Path 904366" d="M65.552,15.584A1.976,1.976,0,0,0,64.419,13.8V11.048a1.977,1.977,0,0,0-1.134-1.785V7.419a1.978,1.978,0,0,0-1.263-1.841l-.791-3.8a2.236,2.236,0,0,0-4.379,0l-.791,3.8A1.978,1.978,0,0,0,54.8,7.419V9.263a1.977,1.977,0,0,0-1.134,1.785V13.8a1.976,1.976,0,0,0-1.134,1.785v8.929a.842.842,0,1,0,1.684,0V15.584a.292.292,0,0,1,.292-.292h9.072a.292.292,0,0,1,.292.292V48.761H54.213V28.442a.842.842,0,1,0-1.684,0V54.366a3.113,3.113,0,0,0,3.11,3.11h6.8a3.113,3.113,0,0,0,3.11-3.11ZM55.347,11.048a.292.292,0,0,1,.292-.292h6.8a.292.292,0,0,1,.292.292v2.56H55.347Zm1.134-3.629a.292.292,0,0,1,.292-.292h4.536a.292.292,0,0,1,.292.292V9.072h-5.12Zm2.019-5.3a.553.553,0,0,1,1.082,0l.692,3.319H57.808Zm3.943,53.668h-6.8a1.428,1.428,0,0,1-1.426-1.426V50.445h9.656v3.921A1.428,1.428,0,0,1,62.443,55.792Z" transform="translate(-52.529 0)"/>
        <path id="Path_904367" data-name="Path 904367" d="M356.479,22.638a.842.842,0,1,0-1.684,0V48.761h-9.655V15.584a.292.292,0,0,1,.292-.292H354.5a.292.292,0,0,1,.292.292v3.125a.842.842,0,1,0,1.684,0V15.584a1.976,1.976,0,0,0-1.134-1.785V11.048a1.977,1.977,0,0,0-1.134-1.785V7.419a1.978,1.978,0,0,0-1.263-1.841l-.791-3.8a2.237,2.237,0,0,0-4.379,0l-.791,3.8a1.978,1.978,0,0,0-1.263,1.841V9.263a1.976,1.976,0,0,0-1.134,1.785V13.8a1.977,1.977,0,0,0-1.133,1.785V54.366a3.113,3.113,0,0,0,3.11,3.11h6.8a3.113,3.113,0,0,0,3.11-3.11Zm-10.206-11.59a.292.292,0,0,1,.292-.292h6.8a.292.292,0,0,1,.292.292v2.56h-7.388Zm1.134-3.629a.292.292,0,0,1,.292-.292h4.536a.292.292,0,0,1,.292.292V9.072h-5.12V7.419Zm2.019-5.3a.553.553,0,0,1,1.082,0l.692,3.319h-2.465Zm3.943,53.668h-6.8a1.428,1.428,0,0,1-1.426-1.426V50.445h9.656v3.921A1.428,1.428,0,0,1,353.369,55.792Z" transform="translate(-310.796 0)"/>
        <path id="Path_904368" data-name="Path 904368" d="M209.881,13.8V11.048a1.977,1.977,0,0,0-1.134-1.785V7.419a1.978,1.978,0,0,0-1.263-1.841l-.791-3.8a2.237,2.237,0,0,0-4.379,0l-.791,3.8a1.978,1.978,0,0,0-1.263,1.841V9.263a1.977,1.977,0,0,0-1.134,1.785V13.8a1.976,1.976,0,0,0-1.134,1.785V54.366a3.113,3.113,0,0,0,3.11,3.11h6.8a3.113,3.113,0,0,0,3.11-3.11v-21.7a.842.842,0,0,0-1.684,0V48.761h-9.656V15.584a.292.292,0,0,1,.292-.292h9.073a.292.292,0,0,1,.292.292V28.738a.842.842,0,0,0,1.684,0V15.584a1.976,1.976,0,0,0-1.134-1.785Zm-9.072-2.751a.292.292,0,0,1,.292-.292h6.8a.292.292,0,0,1,.292.292v2.56h-7.388Zm1.134-3.629a.292.292,0,0,1,.292-.292h4.536a.292.292,0,0,1,.292.292V9.072h-5.12V7.419Zm2.019-5.3a.553.553,0,0,1,1.082,0l.692,3.319H203.27ZM207.9,55.792h-6.8a1.428,1.428,0,0,1-1.426-1.426V50.445h9.656v3.921A1.428,1.428,0,0,1,207.9,55.792Z" transform="translate(-181.662 0)"/>
      </g>
    </g>
  </g>
</svg>
