<svg xmlns="http://www.w3.org/2000/svg" xmlns:xlink="http://www.w3.org/1999/xlink" width="98" height="98" viewBox="0 0 98 98">
  <defs>
    <filter id="Path_896985" x="0" y="0" width="98" height="98" filterUnits="userSpaceOnUse">
      <feOffset dy="3" input="SourceAlpha"/>
      <feGaussianBlur stdDeviation="3" result="blur"/>
      <feFlood flood-opacity="0.161"/>
      <feComposite operator="in" in2="blur"/>
      <feComposite in="SourceGraphic"/>
    </filter>
  </defs>
  <g id="Group_1113863" data-name="Group 1113863" transform="translate(-278.336 -3237)">
    <g id="Group_1113043" data-name="Group 1113043" transform="translate(287.336 3243)" style="isolation: isolate">
      <g id="Group_1098742" data-name="Group 1098742">
        <g transform="matrix(1, 0, 0, 1, -9, -6)" filter="url(#Path_896985)">
          <g id="Path_896985-2" data-name="Path 896985" transform="translate(9 6)" fill="#8dc0ff">
            <path d="M 40.00000381469727 78.50012969970703 C 34.80187225341797 78.50012969970703 29.76003646850586 77.48240661621094 25.0145263671875 75.47523498535156 C 20.43014907836914 73.53620147705078 16.31264877319336 70.75999450683594 12.77639293670654 67.22373962402344 C 9.240137100219727 63.68747711181641 6.463937282562256 59.56997680664062 4.524903774261475 54.98559951782227 C 2.517725944519043 50.24008560180664 1.500003814697266 45.1982421875 1.500003814697266 40.0001106262207 C 1.500003814697266 34.80195236206055 2.517725944519043 29.76008796691895 4.524914741516113 25.01456451416016 C 6.463937282562256 20.43017578125 9.240137100219727 16.31266403198242 12.77639293670654 12.77639865875244 C 16.31264877319336 9.240142822265625 20.43014907836914 6.463931560516357 25.0145263671875 4.524909496307373 C 29.76003646850586 2.517720460891724 34.80187225341797 1.499998211860657 40.00000381469727 1.499998211860657 C 45.19813537597656 1.499998211860657 50.23998260498047 2.517720460891724 54.98548126220703 4.524898052215576 C 59.56985855102539 6.463931560516357 63.68735885620117 9.240131378173828 67.22361755371094 12.77638721466064 C 70.75987243652344 16.31264305114746 73.53607177734375 20.43015289306641 75.47510528564453 25.0145206451416 C 77.48228454589844 29.76003074645996 78.5 34.80187606811523 78.5 40.00000762939453 C 78.5 45.19816589355469 77.48228454589844 50.24003219604492 75.47510528564453 54.98555374145508 C 73.53607177734375 59.56994247436523 70.75987243652344 63.68746566772461 67.22361755371094 67.22373199462891 C 63.68735885620117 70.75998687744141 59.56985855102539 73.53620147705078 54.98548126220703 75.4752197265625 C 50.23998260498047 77.48240661621094 45.19813537597656 78.50012969970703 40.00000381469727 78.50012969970703 Z" stroke="none"/>
            <path d="M 40.00000381469727 3 C 35.00371170043945 3 30.15847015380859 3.977851867675781 25.59885787963867 5.906410217285156 C 21.19327163696289 7.769813537597656 17.23603057861328 10.43806457519531 13.83704376220703 13.83705139160156 C 10.43807220458984 17.23603820800781 7.769813537597656 21.19327926635742 5.906417846679688 25.59885025024414 C 3.977859497070312 30.15846633911133 3.000007629394531 35.00370407104492 3.000007629394531 40.00011825561523 C 3.000007629394531 44.99641036987305 3.977859497070312 49.84166717529297 5.906417846679688 54.40127563476562 C 7.769813537597656 58.80685424804688 10.43807220458984 62.76409149169922 13.83704376220703 66.16307830810547 C 17.23603057861328 69.56206512451172 21.19327163696289 72.23031616210938 25.59885787963867 74.09371948242188 C 30.1584587097168 76.02227783203125 35.00371170043945 77.00012969970703 40.00000381469727 77.00012969970703 C 44.99629592895508 77.00012969970703 49.841552734375 76.02227783203125 54.40114974975586 74.09371948242188 C 58.80673980712891 72.23031616210938 62.76397705078125 69.56206512451172 66.1629638671875 66.16307830810547 C 69.56193542480469 62.76409149169922 72.23019409179688 58.80685424804688 74.09358978271484 54.40127563476562 C 76.02214813232422 49.84166717529297 77 44.99641036987305 77 40 C 77 35.00370407104492 76.02214813232422 30.15846633911133 74.09358978271484 25.59885025024414 C 72.23019409179688 21.19327926635742 69.56193542480469 17.23603820800781 66.1629638671875 13.83705139160156 C 62.76397705078125 10.43806457519531 58.80673980712891 7.769813537597656 54.40114974975586 5.906410217285156 C 49.84153747558594 3.977851867675781 44.99629592895508 3 40.00000381469727 3 M 40.00000381469727 0 C 62.09140396118164 0 80 17.90861129760742 80 40 L 80 40.00011825561523 C 80 62.09151840209961 62.09140396118164 80.00012969970703 40.00000381469727 80.00012969970703 C 17.90860366821289 80.00012969970703 7.62939453125e-06 62.09151840209961 7.62939453125e-06 40.00011825561523 L 7.62939453125e-06 40 C 7.62939453125e-06 17.90861129760742 17.90860366821289 0 40.00000381469727 0 Z" stroke="none" fill="#fff"/>
          </g>
        </g>
        <g id="Rectangle_400907" data-name="Rectangle 400907" transform="translate(0 0)" fill="none" stroke="#fff" stroke-width="3">
          <rect width="80" height="80" rx="40" stroke="none"/>
          <rect x="1.5" y="1.5" width="77" height="77" rx="38.5" fill="none"/>
        </g>
      </g>
    </g>
    <g id="Group_1113862" data-name="Group 1113862" transform="translate(133.954 3229)">
      <g id="Group_1113853" data-name="Group 1113853" transform="translate(186.35 29.045)">
        <path id="Path_904881" data-name="Path 904881" d="M220.106,71.42v9.545c-2.4,1.243-5.045.61-7.313-.4a5.91,5.91,0,0,0-5.033.363V71.42Z" transform="translate(-206.736 -70.396)" fill="#e2f4fd"/>
        <path id="Path_904882" data-name="Path 904882" d="M210.224,75.7a11.9,11.9,0,0,1-4.823-1.173l-.013-.006a3.637,3.637,0,0,0-1.535-.32,5.992,5.992,0,0,0-2.615.671,1.024,1.024,0,0,1-1.478-.917V64.444a1.024,1.024,0,0,1,1.024-1.024h12.346a1.024,1.024,0,0,1,1.024,1.024v9.545a1.024,1.024,0,0,1-.553.909A7.262,7.262,0,0,1,210.224,75.7Zm-3.986-3.042a9.921,9.921,0,0,0,3.986.994,5.289,5.289,0,0,0,1.882-.326V65.467h-10.3v6.99a7.356,7.356,0,0,1,2.046-.3A5.67,5.67,0,0,1,206.238,72.658Z" transform="translate(-199.759 -63.42)"/>
      </g>
      <g id="Group_1113854" data-name="Group 1113854" transform="translate(186.35 37.778)">
        <path id="Path_904883" data-name="Path 904883" d="M220.106,140.475v30.967l-4.592,11.773h-3.163l-4.592-11.773v-31a5.91,5.91,0,0,1,5.033-.363C215.062,141.086,217.708,141.718,220.106,140.475Z" transform="translate(-206.736 -138.639)" fill="#8dc0ff"/>
        <path id="Path_904884" data-name="Path 904884" d="M208.539,177.263h-3.163a1.024,1.024,0,0,1-.954-.652l-4.591-11.773a1.026,1.026,0,0,1-.07-.372v-31a1.023,1.023,0,0,1,.569-.917,8.039,8.039,0,0,1,3.524-.884,5.67,5.67,0,0,1,2.385.505,9.921,9.921,0,0,0,3.986.994,5.165,5.165,0,0,0,2.435-.573,1.024,1.024,0,0,1,1.495.909v30.967a1.026,1.026,0,0,1-.07.372l-4.592,11.773A1.024,1.024,0,0,1,208.539,177.263Zm-2.464-2.047h1.764l4.267-10.942v-29.3a7.556,7.556,0,0,1-1.882.232,11.9,11.9,0,0,1-4.823-1.173l-.013-.006a3.637,3.637,0,0,0-1.535-.32,5.649,5.649,0,0,0-2.046.419v30.144Z" transform="translate(-199.76 -131.663)"/>
      </g>
      <g id="Group_1113855" data-name="Group 1113855" transform="translate(184.382 24)">
        <path id="Path_904885" data-name="Path 904885" d="M192.382,32h16.282v5.045H192.382Z" transform="translate(-191.358 -30.976)" fill="#b4e4fa"/>
        <path id="Path_904886" data-name="Path 904886" d="M201.688,31.092H185.406a1.024,1.024,0,0,1-1.024-1.024V25.024A1.024,1.024,0,0,1,185.406,24h16.282a1.024,1.024,0,0,1,1.024,1.024v5.045A1.024,1.024,0,0,1,201.688,31.092Zm-15.258-2.048h14.235v-3H186.429Z" transform="translate(-184.382 -24)"/>
      </g>
      <g id="Group_1113857" data-name="Group 1113857" transform="translate(195.437 43.577)">
        <g id="Group_1113856" data-name="Group 1113856" transform="translate(0)">
          <path id="Path_904887" data-name="Path 904887" d="M275.055,179.026H271.8a1.024,1.024,0,1,1,0-2.047h3.259a1.024,1.024,0,1,1,0,2.047Z" transform="translate(-270.773 -176.979)"/>
        </g>
      </g>
      <g id="Group_1113859" data-name="Group 1113859" transform="translate(195.437 53.016)">
        <g id="Group_1113858" data-name="Group 1113858" transform="translate(0 0)">
          <path id="Path_904888" data-name="Path 904888" d="M275.055,252.794H271.8a1.024,1.024,0,0,1,0-2.048h3.259a1.024,1.024,0,0,1,0,2.048Z" transform="translate(-270.773 -250.746)"/>
        </g>
      </g>
      <g id="Group_1113861" data-name="Group 1113861" transform="translate(195.437 62.456)">
        <g id="Group_1113860" data-name="Group 1113860" transform="translate(0)">
          <path id="Path_904889" data-name="Path 904889" d="M275.055,326.56H271.8a1.024,1.024,0,0,1,0-2.047h3.259a1.024,1.024,0,1,1,0,2.047Z" transform="translate(-270.773 -324.513)"/>
        </g>
      </g>
    </g>
  </g>
</svg>
