<svg xmlns="http://www.w3.org/2000/svg" xmlns:xlink="http://www.w3.org/1999/xlink" width="98" height="98" viewBox="0 0 98 98">
  <defs>
    <filter id="Path_896985" x="0" y="0" width="98" height="98" filterUnits="userSpaceOnUse">
      <feOffset dy="3" input="SourceAlpha"/>
      <feGaussianBlur stdDeviation="3" result="blur"/>
      <feFlood flood-opacity="0.161"/>
      <feComposite operator="in" in2="blur"/>
      <feComposite in="SourceGraphic"/>
    </filter>
  </defs>
  <g id="Group_1113919" data-name="Group 1113919" transform="translate(-908.336 -3237)">
    <g id="Group_1113046" data-name="Group 1113046" transform="translate(917.336 3243)" style="isolation: isolate">
      <g id="Group_1098742" data-name="Group 1098742">
        <g transform="matrix(1, 0, 0, 1, -9, -6)" filter="url(#Path_896985)">
          <g id="Path_896985-2" data-name="Path 896985" transform="translate(9 6)" fill="#8dc0ff">
            <path d="M 40.00000381469727 78.50012969970703 C 34.80187225341797 78.50012969970703 29.76003646850586 77.48240661621094 25.0145263671875 75.47523498535156 C 20.43014907836914 73.53620147705078 16.31264877319336 70.75999450683594 12.77639293670654 67.22373962402344 C 9.240137100219727 63.68747711181641 6.463937282562256 59.56997680664062 4.524903774261475 54.98559951782227 C 2.517725944519043 50.24008560180664 1.500003814697266 45.1982421875 1.500003814697266 40.0001106262207 C 1.500003814697266 34.80195236206055 2.517725944519043 29.76008796691895 4.524914741516113 25.01456451416016 C 6.463937282562256 20.43017578125 9.240137100219727 16.31266403198242 12.77639293670654 12.77639865875244 C 16.31264877319336 9.240142822265625 20.43014907836914 6.463931560516357 25.0145263671875 4.524909496307373 C 29.76003646850586 2.517720460891724 34.80187225341797 1.499998211860657 40.00000381469727 1.499998211860657 C 45.19813537597656 1.499998211860657 50.23998260498047 2.517720460891724 54.98548126220703 4.524898052215576 C 59.56985855102539 6.463931560516357 63.68735885620117 9.240131378173828 67.22361755371094 12.77638721466064 C 70.75987243652344 16.31264305114746 73.53607177734375 20.43015289306641 75.47510528564453 25.0145206451416 C 77.48228454589844 29.76003074645996 78.5 34.80187606811523 78.5 40.00000762939453 C 78.5 45.19816589355469 77.48228454589844 50.24003219604492 75.47510528564453 54.98555374145508 C 73.53607177734375 59.56994247436523 70.75987243652344 63.68746566772461 67.22361755371094 67.22373199462891 C 63.68735885620117 70.75998687744141 59.56985855102539 73.53620147705078 54.98548126220703 75.4752197265625 C 50.23998260498047 77.48240661621094 45.19813537597656 78.50012969970703 40.00000381469727 78.50012969970703 Z" stroke="none"/>
            <path d="M 40.00000381469727 3 C 35.00371170043945 3 30.15847015380859 3.977851867675781 25.59885787963867 5.906410217285156 C 21.19327163696289 7.769813537597656 17.23603057861328 10.43806457519531 13.83704376220703 13.83705139160156 C 10.43807220458984 17.23603820800781 7.769813537597656 21.19327926635742 5.906417846679688 25.59885025024414 C 3.977859497070312 30.15846633911133 3.000007629394531 35.00370407104492 3.000007629394531 40.00011825561523 C 3.000007629394531 44.99641036987305 3.977859497070312 49.84166717529297 5.906417846679688 54.40127563476562 C 7.769813537597656 58.80685424804688 10.43807220458984 62.76409149169922 13.83704376220703 66.16307830810547 C 17.23603057861328 69.56206512451172 21.19327163696289 72.23031616210938 25.59885787963867 74.09371948242188 C 30.1584587097168 76.02227783203125 35.00371170043945 77.00012969970703 40.00000381469727 77.00012969970703 C 44.99629592895508 77.00012969970703 49.841552734375 76.02227783203125 54.40114974975586 74.09371948242188 C 58.80673980712891 72.23031616210938 62.76397705078125 69.56206512451172 66.1629638671875 66.16307830810547 C 69.56193542480469 62.76409149169922 72.23019409179688 58.80685424804688 74.09358978271484 54.40127563476562 C 76.02214813232422 49.84166717529297 77 44.99641036987305 77 40 C 77 35.00370407104492 76.02214813232422 30.15846633911133 74.09358978271484 25.59885025024414 C 72.23019409179688 21.19327926635742 69.56193542480469 17.23603820800781 66.1629638671875 13.83705139160156 C 62.76397705078125 10.43806457519531 58.80673980712891 7.769813537597656 54.40114974975586 5.906410217285156 C 49.84153747558594 3.977851867675781 44.99629592895508 3 40.00000381469727 3 M 40.00000381469727 0 C 62.09140396118164 0 80 17.90861129760742 80 40 L 80 40.00011825561523 C 80 62.09151840209961 62.09140396118164 80.00012969970703 40.00000381469727 80.00012969970703 C 17.90860366821289 80.00012969970703 7.62939453125e-06 62.09151840209961 7.62939453125e-06 40.00011825561523 L 7.62939453125e-06 40 C 7.62939453125e-06 17.90861129760742 17.90860366821289 0 40.00000381469727 0 Z" stroke="none" fill="#fff"/>
          </g>
        </g>
        <g id="Rectangle_400907" data-name="Rectangle 400907" transform="translate(0 0)" fill="none" stroke="#fff" stroke-width="3">
          <rect width="80" height="80" rx="40" stroke="none"/>
          <rect x="1.5" y="1.5" width="77" height="77" rx="38.5" fill="none"/>
        </g>
      </g>
    </g>
    <g id="Group_1113918" data-name="Group 1113918" transform="translate(925.916 3252)">
      <g id="Group_1113885" data-name="Group 1113885" transform="translate(7.42 36.422)">
        <g id="Group_1113870" data-name="Group 1113870" transform="translate(0.412 6.418)">
          <path id="Path_904903" data-name="Path 904903" d="M55.9,58.245v7.169H7.92V58.245l4.842-7.375H51.048Z" transform="translate(-7.92 -50.87)" fill="#e6e6e6"/>
        </g>
        <g id="Group_1113871" data-name="Group 1113871" transform="translate(3.819 9.264)">
          <path id="Path_904904" data-name="Path 904904" d="M31.783,58.849,28.8,54.32H15.02l-2.97,4.529Z" transform="translate(-12.05 -54.32)" fill="#5cc1e6"/>
        </g>
        <g id="Group_1113872" data-name="Group 1113872" transform="translate(3.406 8.852)">
          <path id="Path_904905" data-name="Path 904905" d="M31.695,59.174H11.962a.42.42,0,0,1-.363-.214.406.406,0,0,1,.017-.421l2.97-4.529a.416.416,0,0,1,.346-.19H28.708a.4.4,0,0,1,.346.19l2.978,4.529a.406.406,0,0,1,.016.421A.4.4,0,0,1,31.695,59.174Zm-18.965-.825H30.936l-2.434-3.7H15.155Z" transform="translate(-11.548 -53.82)"/>
        </g>
        <g id="Group_1113873" data-name="Group 1113873" transform="translate(0 6.006)">
          <path id="Path_904906" data-name="Path 904906" d="M55.811,65.739H7.832a.408.408,0,0,1-.412-.412V58.157a.415.415,0,0,1,.066-.223l4.842-7.375a.416.416,0,0,1,.346-.19H50.96a.4.4,0,0,1,.346.19l4.851,7.375a.437.437,0,0,1,.066.223v7.169A.408.408,0,0,1,55.811,65.739ZM8.245,64.914H55.407V58.281l-4.661-7.086H12.9L8.245,58.281Z" transform="translate(-7.42 -50.37)"/>
        </g>
        <g id="Group_1113874" data-name="Group 1113874" transform="translate(2.747 0.412)">
          <path id="Path_904907" data-name="Path 904907" d="M10.75,43.59H54.059v3H10.75Z" transform="translate(-10.75 -43.59)" fill="#515151"/>
        </g>
        <g id="Group_1113875" data-name="Group 1113875" transform="translate(2.335)">
          <path id="Path_904908" data-name="Path 904908" d="M53.972,46.918H10.662a.408.408,0,0,1-.412-.412v-3a.408.408,0,0,1,.412-.412H53.972a.408.408,0,0,1,.412.412v3A.414.414,0,0,1,53.972,46.918Zm-42.9-.825H53.559V43.915H11.075Z" transform="translate(-10.25 -43.09)"/>
        </g>
        <g id="Group_1113876" data-name="Group 1113876" transform="translate(9.47 3.415)">
          <path id="Path_904909" data-name="Path 904909" d="M18.9,47.23H48.763v3H18.9Z" transform="translate(-18.9 -47.23)" fill="#343434"/>
        </g>
        <g id="Group_1113877" data-name="Group 1113877" transform="translate(9.058 3.003)">
          <path id="Path_904910" data-name="Path 904910" d="M48.675,50.558H18.812a.408.408,0,0,1-.412-.412v-3a.408.408,0,0,1,.412-.412H48.675a.408.408,0,0,1,.412.412v3A.414.414,0,0,1,48.675,50.558Zm-29.45-.825H48.263V47.555H19.225Z" transform="translate(-18.4 -46.73)"/>
        </g>
        <g id="Group_1113878" data-name="Group 1113878" transform="translate(3.786 18.058)">
          <path id="Path_904911" data-name="Path 904911" d="M15.483,65.8H12.422a.412.412,0,0,1,0-.825h3.061a.412.412,0,0,1,0,.825Z" transform="translate(-12.01 -64.98)"/>
        </g>
        <g id="Group_1113879" data-name="Group 1113879" transform="translate(10.567 18.058)">
          <path id="Path_904912" data-name="Path 904912" d="M23.7,65.8H20.642a.412.412,0,0,1,0-.825H23.7a.408.408,0,0,1,.412.412.414.414,0,0,1-.412.412Z" transform="translate(-20.23 -64.98)"/>
        </g>
        <g id="Group_1113880" data-name="Group 1113880" transform="translate(17.34 18.058)">
          <path id="Path_904913" data-name="Path 904913" d="M31.913,65.8H28.852a.412.412,0,0,1,0-.825h3.061a.412.412,0,1,1,0,.825Z" transform="translate(-28.44 -64.98)"/>
        </g>
        <g id="Group_1113881" data-name="Group 1113881" transform="translate(38.723 9.281)">
          <path id="Path_904914" data-name="Path 904914" d="M58.171,56.237a1.906,1.906,0,1,1-1.9-1.9A1.9,1.9,0,0,1,58.171,56.237Z" transform="translate(-54.36 -54.34)" fill="#ffe200"/>
        </g>
        <g id="Group_1113882" data-name="Group 1113882" transform="translate(38.318 8.868)">
          <path id="Path_904915" data-name="Path 904915" d="M56.188,58.46a2.31,2.31,0,1,1,2.31-2.31A2.318,2.318,0,0,1,56.188,58.46Zm0-3.8a1.485,1.485,0,1,0,1.485,1.485A1.491,1.491,0,0,0,56.188,54.657Z" transform="translate(-53.87 -53.84)"/>
        </g>
        <g id="Group_1113883" data-name="Group 1113883" transform="translate(31.067 9.281)">
          <path id="Path_904916" data-name="Path 904916" d="M48.891,56.237a1.906,1.906,0,1,1-1.9-1.9A1.9,1.9,0,0,1,48.891,56.237Z" transform="translate(-45.08 -54.34)" fill="#ff003b"/>
        </g>
        <g id="Group_1113884" data-name="Group 1113884" transform="translate(30.655 8.868)">
          <path id="Path_904917" data-name="Path 904917" d="M46.906,58.46a2.31,2.31,0,1,1,2.31-2.31A2.325,2.325,0,0,1,46.906,58.46Zm0-3.8a1.485,1.485,0,1,0,1.485,1.485A1.5,1.5,0,0,0,46.906,54.657Z" transform="translate(-44.58 -53.84)"/>
        </g>
      </g>
      <g id="Group_1113901" data-name="Group 1113901" transform="translate(22.327 5)">
        <g id="Group_1113886" data-name="Group 1113886" transform="translate(0.414 3.588)">
          <path id="Path_904918" data-name="Path 904918" d="M53.593,37.6H27.9a1.9,1.9,0,0,1-1.617-2.9L36.954,17.459V9.35h7.581v8.109L55.21,34.692A1.9,1.9,0,0,1,53.593,37.6Z" transform="translate(-25.992 -9.35)" fill="#e6e6e6"/>
        </g>
        <g id="Group_1113887" data-name="Group 1113887" transform="translate(0.405 16.466)">
          <path id="Path_904919" data-name="Path 904919" d="M47.486,24.96H33.99L26.269,37.425a1.9,1.9,0,0,0,1.617,2.9h25.7a1.9,1.9,0,0,0,1.617-2.9Z" transform="translate(-25.981 -24.96)" fill="#5cc1e6"/>
        </g>
        <g id="Group_1113890" data-name="Group 1113890" transform="translate(12.464 24.608)">
          <g id="Group_1113888" data-name="Group 1113888" transform="translate(0.412 0.412)">
            <path id="Path_904920" data-name="Path 904920" d="M43.616,36.592a1.258,1.258,0,1,1-1.262-1.262A1.255,1.255,0,0,1,43.616,36.592Z" transform="translate(-41.1 -35.33)" fill="#e6e6e6"/>
          </g>
          <g id="Group_1113889" data-name="Group 1113889">
            <path id="Path_904921" data-name="Path 904921" d="M42.266,38.171A1.671,1.671,0,1,1,43.941,36.5,1.672,1.672,0,0,1,42.266,38.171Zm0-2.516a.846.846,0,1,0,.85.85A.838.838,0,0,0,42.266,35.655Z" transform="translate(-40.6 -34.83)"/>
          </g>
        </g>
        <g id="Group_1113893" data-name="Group 1113893" transform="translate(18.767 26.423)">
          <g id="Group_1113891" data-name="Group 1113891" transform="translate(0.412 0.412)">
            <path id="Path_904922" data-name="Path 904922" d="M51.256,38.792a1.258,1.258,0,1,1-1.262-1.262A1.255,1.255,0,0,1,51.256,38.792Z" transform="translate(-48.74 -37.53)" fill="#e6e6e6"/>
          </g>
          <g id="Group_1113892" data-name="Group 1113892">
            <path id="Path_904923" data-name="Path 904923" d="M49.906,40.371A1.671,1.671,0,1,1,51.581,38.7,1.672,1.672,0,0,1,49.906,40.371Zm0-2.516a.846.846,0,1,0,.85.85A.838.838,0,0,0,49.906,37.855Z" transform="translate(-48.24 -37.03)"/>
          </g>
        </g>
        <g id="Group_1113896" data-name="Group 1113896" transform="translate(17.678 20.087)">
          <g id="Group_1113894" data-name="Group 1113894" transform="translate(0.412 0.421)">
            <path id="Path_904924" data-name="Path 904924" d="M50.728,31.518A1.654,1.654,0,1,1,49.07,29.86,1.651,1.651,0,0,1,50.728,31.518Z" transform="translate(-47.42 -29.86)" fill="#e6e6e6"/>
          </g>
          <g id="Group_1113895" data-name="Group 1113895">
            <path id="Path_904925" data-name="Path 904925" d="M48.982,33.483a2.066,2.066,0,1,1,2.071-2.062A2.063,2.063,0,0,1,48.982,33.483Zm0-3.308a1.242,1.242,0,1,0,1.246,1.246A1.248,1.248,0,0,0,48.982,30.175Z" transform="translate(-46.92 -29.35)"/>
          </g>
        </g>
        <g id="Group_1113897" data-name="Group 1113897" transform="translate(8.001 16.053)">
          <path id="Path_904926" data-name="Path 904926" d="M49.1,25.285H35.6a.412.412,0,1,1,0-.825H49.1a.412.412,0,0,1,0,.825Z" transform="translate(-35.19 -24.46)"/>
        </g>
        <g id="Group_1113898" data-name="Group 1113898" transform="translate(0 3.176)">
          <path id="Path_904927" data-name="Path 904927" d="M53.505,37.921h-25.7a2.31,2.31,0,0,1-1.963-3.531L36.454,17.256V9.262a.408.408,0,0,1,.412-.412h7.581a.408.408,0,0,1,.412.412v7.985L55.468,34.382a2.318,2.318,0,0,1-1.963,3.539ZM37.278,9.675v7.7a.49.49,0,0,1-.058.214L26.538,34.819a1.46,1.46,0,0,0-.033,1.51,1.479,1.479,0,0,0,1.3.767h25.7a1.488,1.488,0,0,0,1.3-.767,1.46,1.46,0,0,0-.033-1.51L44.092,17.586a.4.4,0,0,1-.058-.214v-7.7Z" transform="translate(-25.491 -8.85)"/>
        </g>
        <g id="Group_1113899" data-name="Group 1113899" transform="translate(9.132 0.412)">
          <path id="Path_904928" data-name="Path 904928" d="M36.56,5.5H48.621V8.676H36.56Z" transform="translate(-36.56 -5.5)" fill="#e6e6e6"/>
        </g>
        <g id="Group_1113900" data-name="Group 1113900" transform="translate(8.719)">
          <path id="Path_904929" data-name="Path 904929" d="M48.533,9H36.472a.408.408,0,0,1-.412-.412V5.412A.408.408,0,0,1,36.472,5H48.533a.408.408,0,0,1,.412.412V8.588A.408.408,0,0,1,48.533,9ZM36.885,8.176H48.121V5.825H36.885Z" transform="translate(-36.06 -5)"/>
        </g>
      </g>
      <g id="Group_1113917" data-name="Group 1113917" transform="translate(9.755 5)">
        <g id="Group_1113902" data-name="Group 1113902" transform="translate(0.412 3.234)">
          <path id="Path_904930" data-name="Path 904930" d="M33.378,26.194a11.314,11.314,0,1,1-14.8-10.749V8.92h6.971v6.525A11.29,11.29,0,0,1,33.378,26.194Z" transform="translate(-10.75 -8.92)" fill="#e6e6e6"/>
        </g>
        <g id="Group_1113903" data-name="Group 1113903" transform="translate(0.412 15.657)">
          <path id="Path_904931" data-name="Path 904931" d="M11.847,23.98a11.314,11.314,0,1,0,20.434,0Z" transform="translate(-10.75 -23.98)" fill="#ff003b"/>
        </g>
        <g id="Group_1113906" data-name="Group 1113906" transform="translate(5.7 23.255)">
          <g id="Group_1113904" data-name="Group 1113904" transform="translate(0.421 0.412)">
            <path id="Path_904932" data-name="Path 904932" d="M20.186,34.952a1.258,1.258,0,1,1-1.262-1.262A1.255,1.255,0,0,1,20.186,34.952Z" transform="translate(-17.67 -33.69)" fill="#e6e6e6"/>
          </g>
          <g id="Group_1113905" data-name="Group 1113905">
            <path id="Path_904933" data-name="Path 904933" d="M18.826,36.531A1.671,1.671,0,1,1,20.5,34.865,1.672,1.672,0,0,1,18.826,36.531Zm0-2.516a.846.846,0,0,0,0,1.691.846.846,0,1,0,0-1.691Z" transform="translate(-17.16 -33.19)"/>
          </g>
        </g>
        <g id="Group_1113909" data-name="Group 1113909" transform="translate(12.011 25.078)">
          <g id="Group_1113907" data-name="Group 1113907" transform="translate(0.412 0.412)">
            <path id="Path_904934" data-name="Path 904934" d="M27.826,37.162A1.258,1.258,0,1,1,26.564,35.9,1.255,1.255,0,0,1,27.826,37.162Z" transform="translate(-25.31 -35.9)" fill="#e6e6e6"/>
          </g>
          <g id="Group_1113908" data-name="Group 1113908">
            <path id="Path_904935" data-name="Path 904935" d="M26.476,38.741a1.671,1.671,0,1,1,1.675-1.666A1.672,1.672,0,0,1,26.476,38.741Zm0-2.516a.846.846,0,1,0,.85.85A.847.847,0,0,0,26.476,36.225Z" transform="translate(-24.81 -35.4)"/>
          </g>
        </g>
        <g id="Group_1113912" data-name="Group 1113912" transform="translate(10.914 18.743)">
          <g id="Group_1113910" data-name="Group 1113910" transform="translate(0.412 0.412)">
            <path id="Path_904936" data-name="Path 904936" d="M27.288,29.878A1.654,1.654,0,1,1,25.63,28.22,1.651,1.651,0,0,1,27.288,29.878Z" transform="translate(-23.98 -28.22)" fill="#e6e6e6"/>
          </g>
          <g id="Group_1113911" data-name="Group 1113911">
            <path id="Path_904937" data-name="Path 904937" d="M25.542,31.853a2.066,2.066,0,1,1,2.071-2.062A2.063,2.063,0,0,1,25.542,31.853Zm0-3.308a1.242,1.242,0,1,0,1.246,1.246A1.229,1.229,0,0,0,25.542,28.545Z" transform="translate(-23.48 -27.72)"/>
          </g>
        </g>
        <g id="Group_1113913" data-name="Group 1113913" transform="translate(1.097 15.245)">
          <path id="Path_904938" data-name="Path 904938" d="M32.426,24.3H11.992a.412.412,0,0,1,0-.825H32.426a.408.408,0,0,1,.412.412A.414.414,0,0,1,32.426,24.3Z" transform="translate(-11.58 -23.48)"/>
        </g>
        <g id="Group_1113914" data-name="Group 1113914" transform="translate(0 2.821)">
          <path id="Path_904939" data-name="Path 904939" d="M21.972,37.846a11.721,11.721,0,0,1-3.894-22.777V8.832a.408.408,0,0,1,.412-.412h6.971a.408.408,0,0,1,.412.412v6.228a11.726,11.726,0,0,1-3.9,22.785ZM18.9,9.245v6.113a.416.416,0,0,1-.289.4,10.9,10.9,0,1,0,6.707,0,.416.416,0,0,1-.289-.4V9.245Z" transform="translate(-10.25 -8.42)"/>
        </g>
        <g id="Group_1113915" data-name="Group 1113915" transform="translate(6.377 0.412)">
          <path id="Path_904940" data-name="Path 904940" d="M17.98,5.5h10.7V8.321H17.98Z" transform="translate(-17.98 -5.5)" fill="#e6e6e6"/>
        </g>
        <g id="Group_1113916" data-name="Group 1113916" transform="translate(5.964)">
          <path id="Path_904941" data-name="Path 904941" d="M28.592,8.646h-10.7a.408.408,0,0,1-.412-.412V5.412A.408.408,0,0,1,17.892,5h10.7A.408.408,0,0,1,29,5.412V8.234A.414.414,0,0,1,28.592,8.646ZM18.3,7.821h9.875v-2H18.3Z" transform="translate(-17.48 -5)"/>
        </g>
      </g>
    </g>
  </g>
</svg>
