<svg xmlns="http://www.w3.org/2000/svg" xmlns:xlink="http://www.w3.org/1999/xlink" width="400" height="278" viewBox="0 0 400 278">
  <defs>
    <clipPath id="clip-path">
      <rect id="Rectangle_406357" data-name="Rectangle 406357" width="400" height="278" rx="8" transform="translate(1020.051 2939.316)" fill="#e2dacc"/>
    </clipPath>
    <clipPath id="clip-path-2">
      <path id="Path_901029" data-name="Path 901029" d="M163.671,62.171V353.034H611.057l2.091-37.213V62.171Z" transform="translate(-163.671 -62.171)" fill="none"/>
    </clipPath>
    <linearGradient id="linear-gradient" x1="-0.278" y1="0.84" x2="-0.277" y2="0.84" gradientUnits="objectBoundingBox">
      <stop offset="0" stop-color="#e8edff"/>
      <stop offset="1" stop-color="#dbe3ff"/>
    </linearGradient>
    <clipPath id="clip-path-3">
      <rect id="Rectangle_406582" data-name="Rectangle 406582" width="449.477" height="290.863" fill="none"/>
    </clipPath>
    <clipPath id="clip-path-4">
      <path id="Path_901036" data-name="Path 901036" d="M271.745,1249.231a20.9,20.9,0,0,0-15.222,7.783c-3.551,4.682-4.546,11.362-1.936,16.627a5.312,5.312,0,0,0-5.7-1.667c-1.172.4-2.166,1.2-3.314,1.663a3.028,3.028,0,0,1-3.435-.466,7.747,7.747,0,0,1-.732-1.376c-1.14-2.143-4.145-2.723-6.391-1.8s-3.841,2.946-5.089,5.028c-1.141-4.786-3.247-8.848-6.638-11.638s-8.276-4.073-12.3-2.32a2.181,2.181,0,0,0-1.134.884c-.28.537-.143,1.24-.5,1.731-.627.867-1.956.3-2.966-.051-3.232-1.135-7.046,1.319-7.84,4.651s1.095,6.954,4.031,8.717c.85.51,1.919,1.547,1.213,2.243a1.69,1.69,0,0,1-.835.346,5.776,5.776,0,0,0-3.917,2.906,3.955,3.955,0,0,0,.777,4.622,5.862,5.862,0,0,0-5.409.84,7.333,7.333,0,0,0-7.213-4.133,14.7,14.7,0,0,0-3.17-4.4,5,5,0,0,0-5.072-1.039c-1.385.62-2.319,2.064-3.772,2.5a4.235,4.235,0,0,1-3.738-.964,16.274,16.274,0,0,1-2.618-3.031,35.856,35.856,0,0,0-5.155-5.485v83.7H613.148v-74.719l-1.586,1.56a2.4,2.4,0,1,0-4.359-1.953,7.986,7.986,0,0,0-15.35-2.724,9.444,9.444,0,0,0,.8-3.671,3.611,3.611,0,0,0-2.22-3.374,4.63,4.63,0,0,1-1.536-.512c-1.631-1.274,1.4-4.23.052-5.8a2.509,2.509,0,0,0-1.45-.677,16.4,16.4,0,0,0-10.449,1.133,12.613,12.613,0,0,0-6.709,7.914c-.028-.7-.917-.977-1.617-1.006a12.765,12.765,0,0,0-11.991,7.662,2.372,2.372,0,0,0-2.157-2.976c.891-1.641-.506-3.77-2.284-4.34s-3.7-.064-5.5.443c-.859-2.877,2.273-5.63,1.959-8.616-.33-3.141-4.31-4.618-7.4-3.96s-5.724,2.652-8.718,3.66c.9-1.254-.187-3.143-1.661-3.6a7.093,7.093,0,0,0-4.5.592,33.635,33.635,0,0,0-9.108,4.7,14.423,14.423,0,0,0-5.526,8.414c-.263,1.4-.393,3.079-1.623,3.8-1.678.985-3.587-.673-5.211-1.744a9.389,9.389,0,0,0-6.734-1.39c.268-2.551.382-5.527-1.538-7.228a5.522,5.522,0,0,0-5.588-.645,16.256,16.256,0,0,0-4.806,3.395c-.906-.792-70.553-13.885-70.553-13.885-4.265-2.252-10.327.822-11.03,5.594l-7.709-1.179a4.1,4.1,0,0,1-1.63-.489c-1.289-.828-1.291-2.765-2.333-3.889a4.551,4.551,0,0,0-3.587-1.068,7.76,7.76,0,0,0-4.322,1.291,4.029,4.029,0,0,0-1.691,3.979c.168.72.586,1.372.687,2.1.309,2.253-2.276,3.692-4.419,4.454a6.377,6.377,0,0,0-7.43-8.2c-1.042.229-2.023.718-3.081.853a2.6,2.6,0,0,1-2.744-1.18c-.713-1.56,1.072-3.206.993-4.92a3.042,3.042,0,0,0-2.227-2.563,6.79,6.79,0,0,0-3.572.079,18.865,18.865,0,0,0-11.326,7.978c-.535.823-1.154,1.786-2.132,1.868a4.387,4.387,0,0,1-1.284-.211c-2.414-.529-4.908.977-6.288,3.028a18.35,18.35,0,0,0-2.338,6.98,16.542,16.542,0,0,0-14.31,13.266,3.032,3.032,0,0,0-3.292-3.333c-1.158.178-2.513.991-3.341.162a9.46,9.46,0,0,0,.413-3.85,3.226,3.226,0,0,0-2.412-2.746,4.886,4.886,0,0,0-1-.018,3.182,3.182,0,0,1-1.419-.139,2.369,2.369,0,0,1-1.19-2.37,18.341,18.341,0,0,1,.625-2.753,8.13,8.13,0,0,0-3.131-7.987,9.454,9.454,0,0,0-8.623-1.2c-2.71.944-5.137,3.552-4.692,6.387a9.851,9.851,0,0,0-9.544,10.583,4.622,4.622,0,0,0-6.012-1.781,2.984,2.984,0,0,0-2.121-4.55,5.926,5.926,0,0,0-.958.065,3.339,3.339,0,0,1-1.568-.051c-1.542-.563-1.431-2.794-.822-4.319,1.064-2.665,2.752-5.084,3.475-7.861s.139-6.232-2.362-7.639a6.594,6.594,0,0,0-3.268-.714c-.341,0-.682.014-1.019.037" transform="translate(-163.671 -1249.195)" fill="none"/>
    </clipPath>
    <linearGradient id="linear-gradient-2" x1="-0.057" y1="1.133" x2="-0.056" y2="1.133" gradientUnits="objectBoundingBox">
      <stop offset="0" stop-color="#9fd98d"/>
      <stop offset="0.386" stop-color="#a3db91"/>
      <stop offset="0.836" stop-color="#b1e39f"/>
      <stop offset="1" stop-color="#b9e8a6"/>
    </linearGradient>
    <clipPath id="clip-path-6">
      <path id="Path_901049" data-name="Path 901049" d="M1222.665,1342.943a14.823,14.823,0,0,0-5.678,1.652,68.52,68.52,0,0,0-8.9,4.933c-.778.51-1.818,1.038-2.564.481a6.149,6.149,0,0,1-.794-1.008c-1.14-1.306-3.26-.375-4.868.411-3.149.48-5.825,2.6-7.886,5.026s-3.657,5.219-5.66,7.7l24.664,72.094h38.074a6.086,6.086,0,0,0-4.548-3.256c-.665-.083-1.531-.2-1.662-.858a1.322,1.322,0,0,1,.15-.766c1.832-4.211,6.9-6.992,7.032-11.582a2.172,2.172,0,0,0-.332-1.384,2.5,2.5,0,0,0-1.41-.766,20.735,20.735,0,0,0-12.547.575,10,10,0,0,0,3.081-4.168c.489-1.679-.224-3.843-1.911-4.306,4.621.641,9.337-.6,13.548-2.6,4.054-1.932,8.137-5.219,8.374-9.7a8.461,8.461,0,0,1,.245-2.521,4.491,4.491,0,0,1,1.836-2.028c2.449-1.642,5.445-2.419,7.686-4.336s3.313-5.8,1.042-7.685c.766-3.1,5.187-4.5,5.316-7.691.077-1.917-1.634-3.55-3.5-3.985a10.188,10.188,0,0,0-5.631.7,31.4,31.4,0,0,0-9.157,5.026,4.688,4.688,0,0,0-.289-6.152c-1.909-1.748-4.861-1.5-7.294-2.387-1.57-.569-2.937-1.622-4.53-2.124-4.325-1.365-8.675,1.564-12.628,3.787-1.322.743-3.049,1.4-4.258.484-2.184-1.654.28-5.877-1.8-7.658-.387-.331-.915-.551-1.105-1.023a1.764,1.764,0,0,1,.269-1.431,57.48,57.48,0,0,0,2.906-5.258,6.476,6.476,0,0,0-.111-5.789,5.811,5.811,0,0,0-4.958-2.406c-.067,0-.134,0-.2,0" transform="translate(-1186.318 -1342.94)" fill="none"/>
    </clipPath>
    <linearGradient id="linear-gradient-3" x1="-2.084" y1="1.155" x2="-2.082" y2="1.155" gradientUnits="objectBoundingBox">
      <stop offset="0" stop-color="#9fd98d"/>
      <stop offset="1" stop-color="#b6e6a3"/>
    </linearGradient>
    <clipPath id="clip-path-7">
      <path id="Path_901050" data-name="Path 901050" d="M1757.969,1356.729c-2.171,1.509-4.093,3.549-6.649,4.226a20,20,0,0,1-5.383.207c-6.213-.077-13.021,3.2-14.68,9.19a8.7,8.7,0,0,1-.995,2.833c-.914,1.281-2.641,1.668-3.837,2.692a4.671,4.671,0,0,0,.787,7.3c-3.176.267-3.943-4.34-6.635-5.842-1.488-.83-3.251-.555-5.01-.28-1.8.281-3.588.561-5.079-.333-1.825-1.094-2.371-3.5-3.872-5-2.169-2.177-6.017-1.914-8.42,0s-3.544,5.047-3.86,8.1a20.276,20.276,0,0,0,6.856,17.179c1.088.932,2.4,2.021,2.256,3.446-.141,1.36-1.531,2.161-2.652,2.944s-2.191,2.248-1.459,3.4c.5.8,1.658,1.005,2.119,1.827.922,1.642-1.584,2.975-2.656,4.524a4.473,4.473,0,0,0-.069,4.421,13.185,13.185,0,0,0,2.933,3.558,29.788,29.788,0,0,0-16.071-4.268c-3.539.089-7.708,1.38-8.655,4.791a3.194,3.194,0,0,1-.5,1.282c-.509.592-1.414.548-2.195.558-3.609.05-7.2,2.887-7.386,6.492a11.537,11.537,0,0,0,1.227,5,90.358,90.358,0,0,0,4.682,9.459H1765l2.017-16.386-1.171-62.806a15.589,15.589,0,0,0,1.334-4.884,5.279,5.279,0,0,0-1.844-4.523,4.257,4.257,0,0,0-2.587-.806,8.825,8.825,0,0,0-4.775,1.7" transform="translate(-1666.852 -1355.025)" fill="none"/>
    </clipPath>
    <linearGradient id="linear-gradient-4" x1="-2.584" y1="1.158" x2="-2.582" y2="1.158" xlink:href="#linear-gradient-3"/>
  </defs>
  <g id="Mask_Group_1098727" data-name="Mask Group 1098727" transform="translate(-1020.051 -2939.316)" clip-path="url(#clip-path)">
    <g id="Group_1113080" data-name="Group 1113080" transform="translate(824.441 2870.714)">
      <g id="Group_1113067" data-name="Group 1113067" transform="translate(163.671 62.171)">
        <g id="Group_1113066" data-name="Group 1113066" transform="translate(0 0)" clip-path="url(#clip-path-2)">
          <rect id="Rectangle_406581" data-name="Rectangle 406581" width="321.698" height="468.786" transform="matrix(0.07, -0.998, 0.998, 0.07, -20.367, 289.43)" fill="url(#linear-gradient)"/>
        </g>
      </g>
      <g id="Group_1113069" data-name="Group 1113069" transform="translate(163.671 62.171)">
        <g id="Group_1113068" data-name="Group 1113068" transform="translate(0)" clip-path="url(#clip-path-3)">
          <path id="Path_901030" data-name="Path 901030" d="M562.224,270.823c-5.581.637-9.659-5-14.748-7.381-3.765-1.759-8.155-1.683-12.223-.83s-7.943,2.429-11.931,3.6c-3.081.9-6.894,1.372-9.066-.992-.665-.725-1.087-1.643-1.733-2.386-1.81-2.084-4.97-2.36-7.685-1.863-2.977.545-6.629,1.609-8.584-.7-.461-.544-.746-1.216-1.188-1.776a5.344,5.344,0,0,0-4.877-1.663,15.763,15.763,0,0,0-5.024,1.871c0-4.639-.648-8.586-2.4-12.066a15.179,15.179,0,0,0-8.386-7.71c-3.338-1.128-6.977-.782-10.464-.283a83.841,83.841,0,0,0-18.981,4.752c-12.258,4.846-22.681,13.5-34.8,18.693-3.227,1.383-6.857,2.523-10.2,1.442-2.032-.657-3.723-2.071-5.637-3.02-4.7-2.333-10.451-1.656-15.223.535a34.129,34.129,0,0,0-12.249,10.088c11.043-.812,21.571,4.365,32.5,6.13,12.026,1.942,24.307-.285,36.2-2.934,13.969-3.113,28.163-6.846,42.393-5.322a135.182,135.182,0,0,1,14.316,2.67c13.02,2.838,26.5,5.063,39.622,2.757,5.108-.9,10.191-2.481,15.363-2.106,5.1.37,10.843,2.476,15-1.5" transform="translate(-335.176 -210.746)" fill="#fff"/>
          <path id="Path_901031" data-name="Path 901031" d="M2347.16,201.213a10.9,10.9,0,0,0-7.853-7.859c-2.466-.6-5.057-.3-7.574-.62s-5.213-1.52-6.09-3.9c-.556-1.51-.268-3.191-.512-4.782-.651-4.24-5.074-7.07-9.353-7.377s-8.436,1.3-12.425,2.88l-15.183,6.014c-3.418,1.354-7.037,2.734-10.674,2.191-3.484-.52-6.489-2.744-9.9-3.611-7.124-1.808-14.268,2.516-20.057,7.044a47.579,47.579,0,0,1-7.574,5.281c-4.13,2.094-9.6,3.458-9.581,7.463,14.961,2.3,30.028-2.009,44.988-4.32a48.317,48.317,0,0,1,12.348-.687c4.192.436,8.229,1.808,12.383,2.523,14.8,2.546,30.313-3.319,47.06-.24" transform="translate(-1908.339 -158.8)" fill="#fff"/>
          <path id="Path_901032" data-name="Path 901032" d="M2451.735,554.8a4.364,4.364,0,0,0-2.847-4.147,12.781,12.781,0,0,0-5.3-.659l-9.475.165c-1.98.034-4.288-.087-5.438-1.7-.463-.649-.656-1.452-1.056-2.143-.958-1.659-2.946-2.427-4.835-2.748-8.889-1.511-17.422,4.223-23.551,10.782,8.293.618,16.685-1.219,24.913-.016,3.708.542,7.35,1.7,11.1,1.673,5.321-.035,10.721-2.442,16.5-1.207" transform="translate(-2050.875 -468.348)" fill="#fff"/>
          <path id="Path_901033" data-name="Path 901033" d="M1018.644,645.494c-1.053-2.229-3.547-3.437-5.976-3.854s-4.925-.217-7.372-.514a3.68,3.68,0,0,1-2.487-1.049c-.985-1.2-.32-2.989-.518-4.528a5.141,5.141,0,0,0-3.542-3.914,11.892,11.892,0,0,0-5.5-.265,36.675,36.675,0,0,0-10.555,3.086c-3.54,1.646-7.373,3.923-11.078,2.69-1.205-.4-2.271-1.154-3.482-1.539a10.822,10.822,0,0,0-4.848-.109c-8.29,1.225-16.218,4.809-21.9,11.007,6.758,1,13.713-2.113,20.388-.659,1.846.4,3.6,1.144,5.447,1.558,8.641,1.94,17.753-3.506,26.32-1.262,1.555.407,3.043,1.061,4.62,1.373a21.969,21.969,0,0,0,6.6-.043c4.465-.481,8.93-.962,13.89-1.977" transform="translate(-820.195 -542.513)" fill="#fff"/>
          <path id="Path_901034" data-name="Path 901034" d="M223.324,635.744a19,19,0,0,0-15.377-10.709c-3.259-.265-6.553.331-9.8-.059s-6.686-2.138-7.6-5.278c-.414-1.421-.271-3-.941-4.322-.8-1.584-2.574-2.41-4.273-2.923a23.2,23.2,0,0,0-13.142-.047c-7.862,2.309-14.459,8.767-22.646,9.088a64.183,64.183,0,0,1-6.885-.481,25.909,25.909,0,0,0-24.214,12.22c8.225,1.128,16.749-2.546,24.774-.417,3.378.9,6.43,2.775,9.8,3.688,8.443,2.284,17.181-1.753,25.893-2.518,14.119-1.24,28.739,6.125,44.407,1.757" transform="translate(-125.493 -525.885)" fill="#fff"/>
          <path id="Path_901035" data-name="Path 901035" d="M29.549,1118.614a23.029,23.029,0,0,1,7.543-3.56,3.864,3.864,0,0,0,2.118,1.74c1.1-2.09,4.344-3.078,6.7-2.036a3.68,3.68,0,0,0,1,.368,4.993,4.993,0,0,0,2.081-.594,5.411,5.411,0,0,1,4.218.917c2.29-2.065,5.6-4.3,8.532-2.992.586.262,1.086.649,1.656.935a10.493,10.493,0,0,0,2.242.723l13.89,3.36a10.105,10.105,0,0,1,11.451-.023c1.388-.619,2.109-1.953,3.151-2.962,3.133-3.031,9.718-2.321,11.9,1.283.4.662.771,1.468,1.6,1.675.918.229,1.8-.429,2.734-.586,1.752-.294,3.2,1.162,4.056,2.523s1.765,2.964,3.5,3.314c1.685.34,3.322-.7,4.453-1.836s2.114-2.484,3.682-3.118,3.942-.019,4.071,1.479c1.422-3.4,7.184-4.643,10.274-2.221a13.027,13.027,0,0,1,5.882-5.461,7.8,7.8,0,0,1,5.083-.808c1.7.415,3.1,1.983,2.629,3.463-.4,1.254-1.932,2.583-.976,3.584a15.7,15.7,0,0,1,11.44,1.411c2.612-1.141,5.986-2.223,8.226-.592a15.186,15.186,0,0,0,1.505,1.206c1.22.675,2.8.344,4.247.361s3.212.85,3.274,2.377a12.228,12.228,0,0,1,10.984-1.406c-.3-1,.75-1.994,1.908-2.221a7.658,7.658,0,0,1,3.485.408c-.3-2.153,1.639-4.179,3.971-4.954a15.48,15.48,0,0,1,7.387-.138,5.526,5.526,0,0,1,3.042,1.209,1.55,1.55,0,0,1-.332,2.54,3.794,3.794,0,0,1,4.64.708c.385.484.674,1.122,1.327,1.276a2.581,2.581,0,0,0,1.525-.322,10.408,10.408,0,0,1,5.931-.56c.766.154,1.381,1.3.6,1.251a9.769,9.769,0,0,1,8.719,1.9,12.6,12.6,0,0,1,8.066-4.342,2.966,2.966,0,0,1,.124,2.188,10.357,10.357,0,0,1,4.927-2.318c1.886-.175,4.058,1.035,3.917,2.678l26.4-14.205,47.266,10.084s44.5-.331,46.662-1.123a40.1,40.1,0,0,1,24.668-1.328,8.164,8.164,0,0,1,9.113.353,28.958,28.958,0,0,1,14.679-6c1.594-.185,3.565-.083,4.323,1.15a11.817,11.817,0,0,1,.594,2.056,4.848,4.848,0,0,0,2.768,2.3,17.67,17.67,0,0,0,11.874.635c1.99-.606,3.831-1.567,5.869-2.036s4.456-.339,5.925.975c2.915-2.415,8.569-1.217,9.875,2.093,3.315-2.674,9.25-2.265,11.877.6,1.483-1.24,2.241-3.085,3.931-4.106a5.5,5.5,0,0,1,5.169-.147c-.432-1.368.963-2.733,2.516-3.17a20.89,20.89,0,0,1,4.865-.312c1.631-.061,3.428-.484,4.271-1.7a3.509,3.509,0,0,1,1.741,1.58l-6.337,133.54L18.02,1238.595Z" transform="translate(-40.716 -943.541)" fill="#c2edaf"/>
        </g>
      </g>
      <g id="Group_1113071" data-name="Group 1113071" transform="translate(163.671 247.138)">
        <g id="Group_1113070" data-name="Group 1113070" transform="translate(0)" clip-path="url(#clip-path-4)">
          <rect id="Rectangle_406583" data-name="Rectangle 406583" width="449.477" height="105.896" transform="translate(0 0)" fill="url(#linear-gradient-2)"/>
        </g>
      </g>
      <g id="Group_1113073" data-name="Group 1113073" transform="translate(163.671 62.171)">
        <g id="Group_1113072" data-name="Group 1113072" transform="translate(0)" clip-path="url(#clip-path-3)">
          <path id="Path_901037" data-name="Path 901037" d="M1803.307,562.1a11.215,11.215,0,0,0-5.12,3.405c-4.353,8.274-5.063,17.922-5.53,27.259-1.281,25.616-1.317,51.727,5.862,76.35.824,2.825,1.8,5.732,3.864,7.834,4.224,4.312,11.468,3.712,16.913,1.107,9.349-4.472,15.866-13.658,18.891-23.571s2.9-20.53,1.659-30.82c-1.887-15.686-6.281-31.1-6.535-46.9-.036-2.25,0-4.575-.875-6.649a12.41,12.41,0,0,0-2.425-3.519c-2.767-3-6.469-5.428-10.546-5.53-2.661-.067-5.237.854-7.873,1.225a37.776,37.776,0,0,1-8.287-.192" transform="translate(-1538.269 -483.326)" fill="#fff1e6"/>
          <path id="Path_901038" data-name="Path 901038" d="M1557.072,1208.583c-8.786,12.624-17.422,25.455-23.829,39.438s-10.538,29.269-9.849,44.634l51.64-2.507s56.364-2.505,56.454-4.352a254.984,254.984,0,0,0,5.774-73.034,43.532,43.532,0,0,0-1.848-11.346c-1.477-4.3-4.144-8.069-6.777-11.773,0,0-27.837-4.885-27.121-4.778-7.333.066-14.811,1.5-21.072,5.317s-11.162,10.252-11.993,17.538a17.977,17.977,0,0,0-11.379.863" transform="translate(-1311.453 -1009.921)" fill="#5b5a94"/>
          <path id="Path_901039" data-name="Path 901039" d="M1537.654,533.619a51.4,51.4,0,0,0-21.817,3.556,15.94,15.94,0,0,0-5.943,3.639c-1.824,1.964-2.717,4.593-3.561,7.137l-19.046,57.42a49.438,49.438,0,0,0-2.646,10.488,18.684,18.684,0,0,0,2.968,12.706c2.585,3.617,7.081,5.989,11.487,5.4a16.1,16.1,0,0,0,8.126-4.155,23.294,23.294,0,0,0,6.243-8.121,41.873,41.873,0,0,0,2.9-12.514l3.464,24.866a14.567,14.567,0,0,1,.175,4.205c-.2,1.284-.734,2.491-1.035,3.755-1.775,7.462,4.722,15.893,1.511,22.294a25.436,25.436,0,0,1,15.906-5.215c.157-3.829,1.471-7.6,4.566-12.082-3.035-8.488,1.666-17.859.587-26.808a63.515,63.515,0,0,0-2.432-9.515,59.074,59.074,0,0,1-1.092-27.7,58.473,58.473,0,0,0,.286-15.356,68.932,68.932,0,0,1-.8-8.191c.047-7.695,4.166-15.23,2.708-22.785-.258-1.338-.759-2.923-2.553-3.023" transform="translate(-1278.705 -460.089)" fill="#ae5a4f"/>
          <path id="Path_901040" data-name="Path 901040" d="M1956.8,530.3c-3.7,7.111-4.629,15.289-5.5,23.256q-.937,8.6-1.876,17.2a87.9,87.9,0,0,0-.768,15.688c.44,6.226,2.2,12.3,2.615,18.531.6,9.126-2.214,18.491,1.6,26.94,4.666-.6,10.852.142,15.942,1.431,7.606,1.926,16.641,4.126,22.346,7.989,5-.993,8.077-3.39,9.779-8.2s1.663-10.037,1.508-15.135a399.351,399.351,0,0,0-5.294-53.754,40.53,40.53,0,0,0-2.4-9.405c-2.557-5.942-7.732-10.451-13.466-13.447s-12.058-4.644-18.189-6.585c.359-1.319-.918-2.495-2.131-3.124s-2.659-1.244-3.055-2.552c-.853.719-1.377,1.811-1.11,1.161" transform="translate(-1670.416 -456.377)" fill="#ae5a4f"/>
          <path id="Path_901041" data-name="Path 901041" d="M1819.16,435.139a16.055,16.055,0,0,0-1.125,7.52c-.266,2.333-2.063,5.618-.888,7.651,1.786,3.09.129,3.989.847,6.12.453,1.345,2.172,1.845,2.922,3.05a6.577,6.577,0,0,0,7.167,3.977c3.517,1.746,6.443.617,10.029-1.025,4.352-.507,4.081-2.909,5.779-5.77,2.261-1.346,3.916-2.577,4.068-5.358.174-3.176,2.206-3.593,2.206-9.223Z" transform="translate(-1559.162 -377.022)" fill="#4d303d"/>
          <path id="Path_901042" data-name="Path 901042" d="M1821.938,344.57c-.3,1.252-.469,2.533-.658,3.893a1.1,1.1,0,0,0-1.863-.482,4.461,4.461,0,0,0-.888,2.143,10.291,10.291,0,0,0,.259,3.8,5.139,5.139,0,0,0,2.427,3.142,12.717,12.717,0,0,0,1.945,6.115c1,1.577,2.343,2.93,3.194,4.591a3,3,0,0,0,.709,1.054c.722.57,1.783.221,2.586-.229a3.613,3.613,0,0,1,2.574-.758c1.2.328,1.575,1.84,2.514,2.651a2.445,2.445,0,0,0,3.328-.143c2.084-1.119,4.253-2.085,6.267-3.326a16.756,16.756,0,0,0,5.15-4.65,6.447,6.447,0,0,0,3.414-1.442,10.15,10.15,0,0,0,3-2.924c.723-1.207,1.766-3.764,1.5-5.146a2.121,2.121,0,0,0-3.388-1.468c-1.121.787-1.987,2.3-2.558,2.76l1.736-5.023a5.688,5.688,0,0,0,.217-4.179,9.109,9.109,0,0,0-1.818-4.247c-1.322-1.421-3.385-1.839-5.315-2.04-3.813-.4-7.669-.239-11.478-.676a18.668,18.668,0,0,0-4.585-.242,9.68,9.68,0,0,0-4.81,2.268c-1.381,1.148-2.948,2.408-3.46,4.563" transform="translate(-1560.603 -294.737)" fill="#ff9780"/>
          <path id="Path_901043" data-name="Path 901043" d="M1847.683,266.765a4.554,4.554,0,0,0-1.942,1.059,9.609,9.609,0,0,1-5.38,1.8,5.511,5.511,0,0,1-2.516-.46c-1.532-.74-2.6-2.487-4.29-2.638a8.988,8.988,0,0,0-2.927.678,2.52,2.52,0,0,1-2.794-.812,8.554,8.554,0,0,1-4.113,3.171,2.28,2.28,0,0,0-.951.5,2.011,2.011,0,0,0-.387.831c-.221.764-.442,2.937-.663,3.7-.882-.786-1.239-3.519-.871-4.641.174-.532.487-1.14.172-1.6a1.946,1.946,0,0,0-.645-.481,3.4,3.4,0,0,1-1.461-2.792,7.263,7.263,0,0,1,.758-3.163,15.056,15.056,0,0,1,6.254-7.118c.09-1.8,1.757-3.082,3.363-3.9a21.94,21.94,0,0,1,21.283,1.06,13.567,13.567,0,0,1,4.086,3.809,8.018,8.018,0,0,1,1.321,5.635,2.473,2.473,0,0,1,2.627,1.627,6.232,6.232,0,0,1,.146,3.315,19.37,19.37,0,0,1-2.714,7.631c-1.141,1.747-2.684,3.28-3.357,5.255-.157.461-.437,1.057-.915.965-.417-.08-.526-.631-.468-1.051.19-1.359,1.144-2.7.675-3.991-.523-1.438-2.415-1.761-3.5-2.84-1.323-1.315-1.208-3.448-.792-5.551" transform="translate(-1560.985 -219.588)" fill="#4d303d"/>
          <path id="Path_901044" data-name="Path 901044" d="M1876.5,502.614a1.672,1.672,0,0,0-1.436-.63,4.169,4.169,0,0,0-1.561.45,17.722,17.722,0,0,0-1.714.9,3.451,3.451,0,0,0-1.042.843,1.342,1.342,0,0,0-.234,1.27,1.735,1.735,0,0,0,1.359.877,5.5,5.5,0,0,0,2.68-.149,3.723,3.723,0,0,1,1.8-.35,2.817,2.817,0,0,1,1.019.528,8.12,8.12,0,0,0,2.1,1.173,2.926,2.926,0,0,0,2.342-.138,1.236,1.236,0,0,0,.686-.992,1.256,1.256,0,0,0-.642-.99c-.344-.223-.742-.352-1.1-.555a17.891,17.891,0,0,1-2.03-1.775c-.707-.559-1.782-.872-2.229-.459" transform="translate(-1604.48 -433.449)" fill="#4d303d"/>
          <path id="Path_901045" data-name="Path 901045" d="M1731.485,772.629c-4.262-1.5-8.877-1.584-13.393-1.484a5.53,5.53,0,0,1-2.163-.235,1.846,1.846,0,0,1-1.254-1.632c.024-.944.974-1.565,1.837-1.948a19.167,19.167,0,0,1,10.948-1.361c3.987.686,7.805,2.642,11.859,2.6.976,0,1.406,1.269,2.266,1.732a7.871,7.871,0,0,0,2.2.335,5,5,0,0,1,2.105,1.26c3.751,3.193,11.779,11.223,14.585,13.612,0,3.6-.279,12.515-3.083,17.219,0,0-6.622-7.247-7.5-7.758a9.741,9.741,0,0,1-6.967-2.531c-1.5-1.379-2.664-3.3-4.61-3.9a13.1,13.1,0,0,1-1.8-.5c-1.11-.527-1.69-1.789-2.711-2.482a4.716,4.716,0,0,1-3.65-1.63,6.851,6.851,0,0,1-2.166-6.247,10.026,10.026,0,0,1,2.9-4.291,3.577,3.577,0,0,0,.6-.767" transform="translate(-1472.991 -656.071)" fill="#ff9780"/>
          <path id="Path_901046" data-name="Path 901046" d="M1404.338,629.513q12.091,24.1,23.583,48.488a1.69,1.69,0,0,0,1.572.969l35.574-.9a1.693,1.693,0,0,0,1.484-2.424l-23.408-48.859a1.693,1.693,0,0,0-1.586-.96l-35.768,1.242a1.69,1.69,0,0,0-1.452,2.449" transform="translate(-1210.859 -537.992)" fill="#4d303d"/>
          <path id="Path_901047" data-name="Path 901047" d="M1468.593,683.674a.2.2,0,0,1-.185-.116L1445.137,635.5a2.016,2.016,0,0,0-1.879-1.139l-34.811,1.029a.209.209,0,0,1-.212-.2.206.206,0,0,1,.2-.212l34.811-1.029a2.431,2.431,0,0,1,2.261,1.371l23.271,48.055a.205.205,0,0,1-.185.295" transform="translate(-1214.302 -544.855)" fill="#635261"/>
          <path id="Path_901048" data-name="Path 901048" d="M1471.993,784.9a7.441,7.441,0,0,1-11.092,6.408,14.919,14.919,0,0,1-3.27-2.789c-2.006-2.077-4.012-4.154-5.73-6.125a7.863,7.863,0,0,1-3.877-6.172,7.926,7.926,0,0,0-.444-3.219c-.583-1.1-1.9-1.7-2.4-2.837-.528-1.205.016-2.611-.194-3.91-.224-1.38-1.255-2.463-1.983-3.656a9.166,9.166,0,0,1-.126-9.131,3.785,3.785,0,0,1,1.278-1.434,4.5,4.5,0,0,1,3.546-.007,31.629,31.629,0,0,1,7.63,3.443,2.531,2.531,0,0,1,1.146,1.145,1.769,1.769,0,0,1-1.071,2.066,4.472,4.472,0,0,1-2.523.136,20.161,20.161,0,0,1-5.607-1.726c.733,1.474,1.419,2.972,2.074,4.547,3.571.281,6.4,3.037,8.736,5.755a10.743,10.743,0,0,1,2.42,3.88,2.225,2.225,0,0,1,0,1.5,1.876,1.876,0,0,1-2,.916,5.492,5.492,0,0,1-2.127-.987,12.484,12.484,0,0,1,2.565,3.329,3.109,3.109,0,0,1,.454,2.274c-.227.76-1.228,1.3-1.851.808,2.271,1.27,4.654,3.991,4.07,5.868,3.394.156,6.645.038,10.373-.082" transform="translate(-1242.572 -644.222)" fill="#ff9780"/>
        </g>
      </g>
      <g id="Group_1113075" data-name="Group 1113075" transform="translate(323.024 261.746)">
        <g id="Group_1113074" data-name="Group 1113074" clip-path="url(#clip-path-6)">
          <rect id="Rectangle_406585" data-name="Rectangle 406585" width="88.715" height="91.289" fill="url(#linear-gradient-3)"/>
        </g>
      </g>
      <g id="Group_1113077" data-name="Group 1113077" transform="translate(397.903 263.629)">
        <g id="Group_1113076" data-name="Group 1113076" transform="translate(0)" clip-path="url(#clip-path-7)">
          <rect id="Rectangle_406586" data-name="Rectangle 406586" width="100.486" height="89.405" transform="translate(-0.081)" fill="url(#linear-gradient-4)"/>
        </g>
      </g>
      <g id="Group_1113079" data-name="Group 1113079" transform="translate(163.671 62.171)">
        <g id="Group_1113078" data-name="Group 1113078" transform="translate(0)" clip-path="url(#clip-path-3)">
          <path id="Path_901051" data-name="Path 901051" d="M3.915,1690.578a11.735,11.735,0,0,1,2.717-10.246c1.451-1.6,3.349-2.793,4.562-4.579.832-1.225,1.294-2.664,2.043-3.942A10.24,10.24,0,0,1,23.425,1667a10.24,10.24,0,0,1,8.181,7.748c1.082,5-1.641,10.744,1.062,15.089,2.325,3.738,7.527,4.459,10.7,7.513,3.275,3.154,3.8,8.128,4.141,12.662a4.673,4.673,0,0,0,.828,2.789,2.948,2.948,0,0,0,3.959.081,5.282,5.282,0,0,0,1.655-3.919c.152-4-2.317-7.541-4.04-11.151s-2.553-8.415.3-11.224c.82-.809,1.868-1.356,2.7-2.149,2.829-2.684,2.738-7.629,5.864-9.96,3.288-2.452,8.367-.272,10.312,3.339s1.612,7.983,1.042,12.045a9.333,9.333,0,0,0,0,3.984,12.427,12.427,0,0,0,1.855,3.168,16.789,16.789,0,0,1-1.13,19.673L0,1716.812Z" transform="translate(-25.504 -1416.833)" fill="#83c97d"/>
          <path id="Path_901052" data-name="Path 901052" d="M546.228,1705.317a9.156,9.156,0,0,1-4.99-9.371c.238-1.575.894-3.068,1.085-4.649.258-2.145-.355-4.331-.039-6.469a7.512,7.512,0,0,1,13.829-2.837c1.147,1.865,1.958,4.58,4.144,4.686,1.925.094,3.159-2.133,3.231-4.059s-.511-3.892-.034-5.76c.816-3.2,4.268-4.808,6.638-7.1,2.231-2.161,3.564-5.055,5.208-7.69s3.855-5.194,6.869-5.942,6.793,1.2,6.892,4.307c.091,2.832-2.666,5.809-1.08,8.157.515.762,1.39,1.209,1.967,1.926,1.187,1.477.818,3.661.076,5.4s-1.809,3.433-1.861,5.328,1.537,4,3.382,3.572c2.006-.469,2.467-3.277,4.249-4.31,1.1-.638,2.465-.468,3.73-.59,2.872-.276,5.334-2.1,7.565-3.927s4.512-3.8,7.317-4.474,6.293.464,7.185,3.208c1.687,5.19-6.6,9.094-6.113,14.529a21.169,21.169,0,0,0,1.111,3.774c1.635,5.771-2.582,11.413-6.521,15.937Z" transform="translate(-482.328 -1407.612)" fill="#83c97d"/>
          <path id="Path_901053" data-name="Path 901053" d="M1083.7,1884.288a12.436,12.436,0,0,1-1.672-4.9,4.911,4.911,0,0,1,2.045-4.525c.88-.536,1.99-.707,2.715-1.44,1.065-1.077.845-2.831,1.246-4.292.848-3.084,4.681-4.593,7.777-3.792s5.472,3.3,7.222,5.975a29.081,29.081,0,0,1,3.069,6.2,6.291,6.291,0,0,1,.46,3.433,4.749,4.749,0,0,1-2.962,3.135,14.029,14.029,0,0,1-4.4.77c-5.558.371-11.115.741-15.5-.559" transform="translate(-938.918 -1584.182)" fill="#83c97d"/>
          <path id="Path_901054" data-name="Path 901054" d="M1329.465,1731.648c-.06-3.695-2.069-7.025-3.613-10.382s-2.635-7.382-.911-10.651c1.036-1.965,2.935-3.325,4.2-5.149,2.354-3.385,2.245-7.826,3.084-11.862s3.654-8.454,7.772-8.255c3.457.168,5.881,3.589,6.794,6.928s.891,6.93,2.243,10.117a3,3,0,0,0,.988,1.391c2.029,1.355,3.958-2.226,6.357-2.669,1.218-.225,2.423.42,3.66.5,2.013.133,3.783-1.2,5.431-2.365,1.846-1.3,3.916-2.5,6.175-2.52s4.668,1.581,4.79,3.836c.117,2.155-1.715,3.839-3.256,5.35-2.388,2.34-4.547,5.606-3.636,8.823,2.538.649,4.879-1.6,7.467-2a5.434,5.434,0,0,1,2.934,10.383,20.062,20.062,0,0,0-2.769,1.026c-3.2,1.938-1.788,7.445-4.59,9.927Z" transform="translate(-1143.246 -1432.414)" fill="#83c97d"/>
          <path id="Path_901055" data-name="Path 901055" d="M1938.108,1817.284a73.792,73.792,0,0,1-6.026-6.957,4.534,4.534,0,0,1-1.27-3.133c.151-1.181,1.16-2.045,1.683-3.115,2.091-4.278-4.1-8.82-3.067-13.468.8-3.606,5.386-4.843,9.064-4.5a23.951,23.951,0,0,1,17.651,10.733c1.487,2.315,2.693,5.019,5.084,6.38,2.954,1.681,6.618.737,10.01.527s7.629,1.147,8.045,4.521c1.529-3.285-1.11-7.377.336-10.7a5.73,5.73,0,0,1,6.283-2.966,8.986,8.986,0,0,1,5.764,4.452c.71,1.208,1.351,2.654,2.673,3.115a8.6,8.6,0,0,0,2.185.214c3.339.263,5.78,3.575,6.22,6.9s-.635,6.634-1.695,9.812c-11.364-3.269-23.342,1.048-35.106,2.239-9.16.928-20.738,3.181-27.836-4.049" transform="translate(-1654.181 -1517.433)" fill="#83c97d"/>
          <path id="Path_901056" data-name="Path 901056" d="M2458.8,1843.732c-1.524-2.418-2.768-5.176-2.571-8.028s2.228-5.728,5.066-6.066c2.16-.258,2.927-2.9,3.721-4.925a13.605,13.605,0,0,1,6.906-7.31,6.5,6.5,0,0,1,4.314-.632c2.5.667,3.867,3.547,3.688,6.125s-1.522,4.912-2.847,7.132c-2.034,3.405,2.888,7.636,1.587,11.383-.885,2.549-4.057,3.306-6.73,3.675-3.656.5-7.493.991-10.946-.314-.172-.065-.181.3,0,.322s.319-.16-2.191-1.362" transform="translate(-2098.979 -1543.234)" fill="#83c97d"/>
          <path id="Path_901057" data-name="Path 901057" d="M2728.872,1794.357c-1.058-2.4-2.1-4.921-1.932-7.535s1.91-5.32,4.5-5.689a5.673,5.673,0,0,0,2.6-.521,3.734,3.734,0,0,0,1.1-2.517,23.3,23.3,0,0,1,10.4-15.376c1.428-.9,3.4-1.6,4.688-.508.559.473.854,1.2,1.411,1.675,1.028.879,2.618.641,3.818.021,2.194-1.134,3.676-3.252,5.5-4.922s4.478-2.945,6.714-1.9c2.441,1.146,3.013,4.521,2.112,7.063s-2.836,4.554-4.357,6.781a23.339,23.339,0,0,0-4,11.643,11.085,11.085,0,0,1,4.23-1.2,3.773,3.773,0,0,1,3.6,2.088,5.274,5.274,0,0,1,.036,2.872,51.514,51.514,0,0,1-2.6,9.222Z" transform="translate(-2327.507 -1492.659)" fill="#83c97d"/>
          <path id="Path_901058" data-name="Path 901058" d="M1419.818,1517.822a.205.205,0,0,1-.2-.192,7.152,7.152,0,0,1,1.993-5.377c.1-.1.2-.2.3-.3a3.444,3.444,0,0,0,.928-1.192,3.528,3.528,0,0,0,.016-1.732c-.015-.1-.03-.2-.044-.3a10.583,10.583,0,0,1,13.347-11.637l.252.073a4.245,4.245,0,0,0,1.145.228h.02c1.4,0,2.322-1.323,3.213-2.6.157-.226.313-.449.468-.661a10.71,10.71,0,0,1,12.147-3.557.205.205,0,1,1-.148.383,10.291,10.291,0,0,0-11.668,3.417c-.154.209-.307.43-.463.653-.907,1.3-1.936,2.779-3.55,2.779h-.024a4.606,4.606,0,0,1-1.257-.245l-.247-.072a10.172,10.172,0,0,0-12.828,11.185c.013.1.028.194.043.292a2.914,2.914,0,0,1-1.066,3.281c-.1.1-.2.192-.295.29a6.735,6.735,0,0,0-1.877,5.063.206.206,0,0,1-.192.218h-.013" transform="translate(-1223.896 -1267.445)" fill="#3e9459"/>
          <path id="Path_901059" data-name="Path 901059" d="M1099.866,1607.861l-.035,0c-3.378-.576-5.6-3.721-6.877-6.259-.383-.763-.74-1.558-1.085-2.326a15.765,15.765,0,0,0-6.015-8.128c-.532-.415-1.082-.844-1.6-1.3a7.879,7.879,0,0,1-2.944-4.684c-.25-1.834.85-4.108,2.828-4.439a7.631,7.631,0,0,1,2.462.157c1.349.23,2.515.429,3.124-.521a3.032,3.032,0,0,0,.19-2.028l-1.169-8.87c-.279-2.119-.453-4.326.73-5.98a5.342,5.342,0,0,1,5.521-1.774,9.952,9.952,0,0,1,4.971,3.256l.217.24a4.893,4.893,0,0,0,2.446,1.809,4.669,4.669,0,0,0,1.139.032c.225-.011.458-.024.69-.017a6.053,6.053,0,0,1,5.038,3.761,17.134,17.134,0,0,1,1.182,6.325,4.025,4.025,0,0,0,3.1,4.418c.271.126.542.252.8.385,3.66,1.875,6.217,6.161,6.674,11.184.412,4.528-.7,8.973-1.773,13.272a.206.206,0,0,1-.4-.1c1.066-4.266,2.168-8.677,1.762-13.135-.348-3.828-2.226-8.69-6.452-10.856-.257-.131-.523-.255-.79-.378a4.406,4.406,0,0,1-3.333-4.768,16.842,16.842,0,0,0-1.145-6.174,5.644,5.644,0,0,0-4.676-3.524c-.217,0-.441.006-.658.017a5.059,5.059,0,0,1-1.239-.039,5.19,5.19,0,0,1-2.673-1.937l-.216-.238a9.56,9.56,0,0,0-4.762-3.133,4.927,4.927,0,0,0-5.093,1.613c-1.1,1.534-.936,3.566-.657,5.687l1.169,8.871a3.348,3.348,0,0,1-.252,2.3c-.755,1.178-2.17.937-3.539.7a7.319,7.319,0,0,0-2.324-.157c-1.746.292-2.713,2.332-2.489,3.979a7.491,7.491,0,0,0,2.808,4.431c.509.445,1.054.871,1.582,1.282a16.155,16.155,0,0,1,6.137,8.284c.344.765.7,1.556,1.077,2.311,1.23,2.452,3.37,5.491,6.579,6.037a.206.206,0,0,1-.034.408" transform="translate(-938.29 -1327.909)" fill="#3e9459"/>
          <path id="Path_901060" data-name="Path 901060" d="M1296.645,1574.682a.206.206,0,0,1-.2-.145,20.2,20.2,0,0,1-1.152-5.437,6.946,6.946,0,0,1,1.863-5.2,10.353,10.353,0,0,1,2.129-1.459,6.034,6.034,0,0,0,3.6-4.3,10.048,10.048,0,0,1,1.062-2.355c1.352-1.993,3.84-2.731,6.327-3.232,1.707-.344,3.474-.537,4.827.366a4.608,4.608,0,0,1,1.807,3.824,14.2,14.2,0,0,1-.527,3.508c-.054.226-.107.451-.158.676a34.56,34.56,0,0,0-.792,9.8.205.205,0,0,1-.193.218.212.212,0,0,1-.218-.192,34.976,34.976,0,0,1,.8-9.915c.051-.226.105-.453.159-.68a13.892,13.892,0,0,0,.517-3.406,4.2,4.2,0,0,0-1.624-3.49c-1.289-.861-3.007-.609-4.517-.3-2.4.483-4.8,1.188-6.068,3.059a9.717,9.717,0,0,0-1.014,2.26,6.417,6.417,0,0,1-3.782,4.517,10.047,10.047,0,0,0-2.047,1.4,6.539,6.539,0,0,0-1.737,4.9,19.891,19.891,0,0,0,1.134,5.326.205.205,0,0,1-.135.257.2.2,0,0,1-.061.009" transform="translate(-1118.959 -1320.075)" fill="#3e9459"/>
          <path id="Path_901061" data-name="Path 901061" d="M1382.529,1408.737a.206.206,0,0,1-.151-.345,8.3,8.3,0,0,0,1.645-3.8,10.247,10.247,0,0,1,1.407-3.6,9.968,9.968,0,0,1,4.424-2.919,22.775,22.775,0,0,0,2.227-1.056,10.442,10.442,0,0,0,4.575-5.31,3.681,3.681,0,0,0,.242-2.528,2.308,2.308,0,0,0-1.275-1.333,4.1,4.1,0,0,0-3.07-.045,11.354,11.354,0,0,0-3.12,2.153c-.385.335-.785.681-1.193,1-1.188.927-2.816,1.44-3.773.492a3.1,3.1,0,0,1-.71-1.753,3.605,3.605,0,0,0-.432-1.36c-.721-1.092-2.428-.939-3.67-.476a12.7,12.7,0,0,0-5.353,3.813c-.3.368-.6.766-.881,1.15a7.434,7.434,0,0,1-5.569,3.8c-.454.106-.923.216-1.369.353a10.28,10.28,0,0,0-6.819,11.1.205.205,0,0,1-.405.07,10.568,10.568,0,0,1,7.1-11.562c.46-.142.936-.253,1.4-.36a9.408,9.408,0,0,0,2.725-.932,9.571,9.571,0,0,0,2.607-2.714c.287-.389.583-.791.894-1.168a13.112,13.112,0,0,1,5.527-3.936c1.383-.516,3.3-.659,4.156.635a3.962,3.962,0,0,1,.493,1.512,2.761,2.761,0,0,0,.595,1.535c.891.882,2.45.086,3.231-.524.4-.312.795-.655,1.176-.986a11.663,11.663,0,0,1,3.239-2.225,4.471,4.471,0,0,1,3.392.053,2.71,2.71,0,0,1,1.492,1.571,4.06,4.06,0,0,1-.247,2.811,10.857,10.857,0,0,1-4.755,5.519,23.025,23.025,0,0,1-2.268,1.076c-1.671.72-3.25,1.4-4.254,2.783a9.934,9.934,0,0,0-1.341,3.458,8.718,8.718,0,0,1-1.742,3.978.206.206,0,0,1-.151.066" transform="translate(-1172.845 -1180.645)" fill="#3e9459"/>
          <path id="Path_901062" data-name="Path 901062" d="M1321.73,1509.771h-.005a.2.2,0,0,1-.2-.21,23.572,23.572,0,0,1,1.173-7.617,10.044,10.044,0,0,1,5-5.766c.349-.157.711-.288,1.062-.416a8.165,8.165,0,0,0,3.568-2.254,12.445,12.445,0,0,1,2.068-1.628,4.983,4.983,0,0,1,3.526-.652,3.6,3.6,0,0,1,2.693,2.332,6.015,6.015,0,0,1-.04,2.85,5.833,5.833,0,0,0-.074,2.6.206.206,0,0,1-.4.113,6.224,6.224,0,0,1,.065-2.781,5.632,5.632,0,0,0,.053-2.657,3.182,3.182,0,0,0-2.387-2.053,4.636,4.636,0,0,0-3.234.605,12.141,12.141,0,0,0-2,1.577,8.551,8.551,0,0,1-3.7,2.336c-.343.125-.7.254-1.033.4a9.637,9.637,0,0,0-4.788,5.534,22.863,22.863,0,0,0-1.148,7.483.205.205,0,0,1-.205.2" transform="translate(-1141.103 -1268.467)" fill="#3e9459"/>
          <path id="Path_901063" data-name="Path 901063" d="M1212.445,1431.666a.206.206,0,0,1-.191-.13c-1.1-2.752-2.463-6.177-1.751-9.508a16.69,16.69,0,0,1,1.268-3.408c.157-.344.315-.687.464-1.033.609-1.41,1.1-2.906,1.582-4.353a30.767,30.767,0,0,1,3.115-7.26,8.026,8.026,0,0,1,3.532-3.218,4.268,4.268,0,0,1,4.622.752,6.534,6.534,0,0,1,1.343,2.854,7.029,7.029,0,0,0,1.082,2.512,6.787,6.787,0,0,0,1,.948c.2.164.4.329.585.5,2.534,2.352,2.884,6.108,3.025,9.754a.206.206,0,0,1-.2.213.2.2,0,0,1-.213-.2c-.138-3.56-.475-7.223-2.894-9.468-.183-.169-.376-.329-.568-.488a7.166,7.166,0,0,1-1.062-1.008,7.341,7.341,0,0,1-1.157-2.656,6.137,6.137,0,0,0-1.245-2.682,3.851,3.851,0,0,0-4.169-.656,7.629,7.629,0,0,0-3.343,3.062,30.445,30.445,0,0,0-3.07,7.165c-.481,1.455-.979,2.959-1.6,4.386-.151.349-.309.7-.468,1.042a16.424,16.424,0,0,0-1.24,3.323c-.686,3.209.655,6.57,1.731,9.27a.206.206,0,0,1-.115.267.208.208,0,0,1-.076.015" transform="translate(-1047.216 -1193.562)" fill="#3e9459"/>
          <path id="Path_901064" data-name="Path 901064" d="M1057.542,1468.395a.2.2,0,0,1-.077-.015,7.928,7.928,0,0,1-4.733-5.778,16.881,16.881,0,0,1-.208-2.261c-.074-1.562-.143-3.038-1.044-4.177a7.026,7.026,0,0,0-1.52-1.3c-.284-.2-.577-.408-.852-.633a7.711,7.711,0,0,1-1.024-10.464,1.886,1.886,0,0,1,1.018-.725,2.066,2.066,0,0,1,1.1.171l4.29,1.532a11.157,11.157,0,0,1,7.106,5.223,10.1,10.1,0,0,0,5.14,4.431,17.8,17.8,0,0,1,2.111,1.12,9.016,9.016,0,0,1,3.743,5.175.206.206,0,0,1-.4.105,8.6,8.6,0,0,0-3.57-4.936,17.473,17.473,0,0,0-2.062-1.094,10.473,10.473,0,0,1-5.3-4.564,14.585,14.585,0,0,0-2.413-2.852,14.4,14.4,0,0,0-4.5-2.223l-4.29-1.533a1.691,1.691,0,0,0-.879-.155,1.5,1.5,0,0,0-.782.583,7.3,7.3,0,0,0,.968,9.885c.263.216.55.419.828.615a7.428,7.428,0,0,1,1.605,1.384c.983,1.242,1.059,2.854,1.132,4.412a16.393,16.393,0,0,0,.2,2.205,7.507,7.507,0,0,0,4.482,5.472.205.205,0,0,1-.077.4" transform="translate(-908.932 -1227.846)" fill="#3e9459"/>
          <path id="Path_901065" data-name="Path 901065" d="M922.99,1605.558a.207.207,0,0,1-.088-.02,12.342,12.342,0,0,1-6.944-10.184c-.041-.608-.036-1.225-.032-1.822a13.013,13.013,0,0,0-1.252-6.323,20.291,20.291,0,0,1-1.11-3.531,5.5,5.5,0,0,1,.266-3.333c1.107-2.388,4.4-2.949,6.821-2.1a17.614,17.614,0,0,1,4.637,2.8c.563.425,1.144.864,1.73,1.264a3.223,3.223,0,0,0,1.57.676,3.505,3.505,0,0,0,1.987-.808c.251-.166.51-.337.775-.481a5.2,5.2,0,0,1,6.754,1.956,9.828,9.828,0,0,1,.619,1.463,8.542,8.542,0,0,0,.657,1.516,9.724,9.724,0,0,0,2.968,2.706c1.559,1.078,3.17,2.193,3.366,4.091a.205.205,0,1,1-.409.042c-.176-1.71-1.641-2.723-3.191-3.8a10.029,10.029,0,0,1-3.088-2.833,8.964,8.964,0,0,1-.691-1.588,9.473,9.473,0,0,0-.591-1.4,4.773,4.773,0,0,0-6.2-1.795c-.25.136-.5.3-.745.463a3.8,3.8,0,0,1-2.234.876,3.565,3.565,0,0,1-1.78-.747c-.594-.406-1.18-.848-1.746-1.276a17.3,17.3,0,0,0-4.525-2.744c-2.25-.789-5.3-.292-6.312,1.886a5.1,5.1,0,0,0-.234,3.086,19.969,19.969,0,0,0,1.09,3.459,13.4,13.4,0,0,1,1.279,6.474c0,.589-.01,1.2.031,1.79a12.087,12.087,0,0,0,6.71,9.84.206.206,0,0,1-.088.391" transform="translate(-796.602 -1341.689)" fill="#3e9459"/>
          <path id="Path_901066" data-name="Path 901066" d="M1074.587,1766.789a.205.205,0,0,1-.2-.163,7.308,7.308,0,0,0-1.7-3.341,14.985,14.985,0,0,0-1.075-1.049,14.8,14.8,0,0,1-1.139-1.117,7.554,7.554,0,0,1-1.869-5.135,6.137,6.137,0,0,1,.753-2.877,5.356,5.356,0,0,1,6.559-2.18.205.205,0,1,1-.164.377,4.929,4.929,0,0,0-6.037,2.007,5.73,5.73,0,0,0-.7,2.683,7.141,7.141,0,0,0,1.766,4.853,14.428,14.428,0,0,0,1.108,1.085,15.35,15.35,0,0,1,1.105,1.079,7.718,7.718,0,0,1,1.792,3.529.205.205,0,0,1-.158.244.209.209,0,0,1-.043,0" transform="translate(-927.594 -1487.445)" fill="#3e9459"/>
          <path id="Path_901067" data-name="Path 901067" d="M989.935,1535.259a.2.2,0,0,1-.179-.1,11.506,11.506,0,0,1-1.62-4.645,5.9,5.9,0,0,1,1.477-4.664,4.1,4.1,0,0,1,4.7-.894,6.61,6.61,0,0,1,2.253,2.489,7.571,7.571,0,0,0,1.779,2.163,7.232,7.232,0,0,0,1.883.87c.384.135.782.276,1.16.45,1,.459,2.134,1.445,2.038,2.711a.205.205,0,0,1-.41-.031c.08-1.056-.92-1.9-1.8-2.307-.361-.166-.75-.3-1.125-.436a7.649,7.649,0,0,1-1.987-.925,7.857,7.857,0,0,1-1.885-2.276,6.218,6.218,0,0,0-2.1-2.347,3.68,3.68,0,0,0-4.211.819,5.564,5.564,0,0,0-1.363,4.341,11.126,11.126,0,0,0,1.569,4.479.205.205,0,0,1-.078.28.2.2,0,0,1-.1.026" transform="translate(-859.641 -1296.68)" fill="#3e9459"/>
          <path id="Path_901068" data-name="Path 901068" d="M742.823,1517.662a.205.205,0,0,1-.085-.393c2.547-1.158,3.119-4.537,3.149-7.167l.005-.625c.02-2.636.042-5.624,1.89-7.606a11.045,11.045,0,0,1,1.66-1.368,4.265,4.265,0,0,0,2.487-4.624,8.771,8.771,0,0,1,.065-1.747,8.59,8.59,0,0,1,1.86-3.54c.265-.357.539-.726.785-1.1.893-1.342,1.548-3.37.456-4.668-1.114-1.325-3.3-.993-4.854-.123-.486.271-.967.591-1.432.9a7.166,7.166,0,0,1-6.061,1.683,12.727,12.727,0,0,0-1.812-.086c-3.484.17-6.064,3.158-7.615,5.634-.489.781-.954,1.605-1.4,2.4a22.737,22.737,0,0,1-4.242,5.934,23.344,23.344,0,0,1-2,1.553,12.388,12.388,0,0,0-3.165,2.877c-1.766,2.575-1.353,6.039-.778,9.366a.206.206,0,0,1-.405.07c-.589-3.41-1.009-6.966.844-9.668a12.887,12.887,0,0,1,3.263-2.978,22.928,22.928,0,0,0,1.96-1.525,22.418,22.418,0,0,0,4.159-5.831c.452-.8.919-1.63,1.413-2.419,1.6-2.559,4.282-5.647,7.942-5.826a13.114,13.114,0,0,1,1.871.088,6.782,6.782,0,0,0,5.795-1.616c.472-.313.96-.638,1.459-.917,1.7-.95,4.105-1.286,5.369.218,1.238,1.472.543,3.7-.428,5.16-.251.378-.529.751-.8,1.113a8.286,8.286,0,0,0-1.785,3.364,8.466,8.466,0,0,0-.059,1.665,4.647,4.647,0,0,1-2.658,4.97,10.787,10.787,0,0,0-1.6,1.315c-1.739,1.866-1.76,4.643-1.78,7.329l-.006.627c-.032,2.749-.646,6.289-3.39,7.536a.207.207,0,0,1-.085.018" transform="translate(-634.013 -1262.054)" fill="#3e9459"/>
          <path id="Path_901069" data-name="Path 901069" d="M939.374,1461.577a.206.206,0,0,1-.114-.377,6.223,6.223,0,0,0,2.68-4.212,12.831,12.831,0,0,0,.091-1.847,8.717,8.717,0,0,1,.306-2.793,9.352,9.352,0,0,1,1.815-2.833c.946-1.148,1.839-2.233,1.837-3.606a3.022,3.022,0,0,0-1.211-2.339,4.244,4.244,0,0,0-3.454-.876c-1.92.406-3.621,2.006-4.669,4.392a.206.206,0,0,1-.376-.165c1.1-2.508,2.909-4.2,4.96-4.629a4.664,4.664,0,0,1,3.8.959,3.424,3.424,0,0,1,1.363,2.659c0,1.521-.98,2.714-1.931,3.868a9.052,9.052,0,0,0-1.742,2.7,8.268,8.268,0,0,0-.285,2.663,13.116,13.116,0,0,1-.1,1.907,6.642,6.642,0,0,1-2.86,4.494.206.206,0,0,1-.113.034" transform="translate(-815.874 -1227.161)" fill="#3e9459"/>
          <path id="Path_901070" data-name="Path 901070" d="M755.493,1388.6a.205.205,0,0,1-.2-.166c-.478-2.408-1.02-5.137-.412-7.727.6-2.542,2.216-4.65,3.783-6.689a27.961,27.961,0,0,0,2.893-4.286,27.048,27.048,0,0,0,1.18-2.86,26.661,26.661,0,0,1,1.242-2.989c1.18-2.292,2.937-3.759,4.82-4.026a3.123,3.123,0,0,1,2.554.654,3.425,3.425,0,0,1,.964,2.31,13.191,13.191,0,0,1-.158,2.544c-.189,1.494-.368,2.906.351,4.1a6.311,6.311,0,0,0,.714.908c.184.207.373.421.543.649,1.877,2.528.932,6.055-.24,9.172a.206.206,0,1,1-.385-.145c1.133-3.013,2.054-6.413.3-8.783-.159-.214-.343-.421-.521-.621a6.7,6.7,0,0,1-.758-.968c-.793-1.315-.6-2.864-.407-4.362a12.92,12.92,0,0,0,.156-2.464,3.029,3.029,0,0,0-.83-2.034,2.714,2.714,0,0,0-2.22-.551c-1.75.248-3.395,1.635-4.512,3.807a26.253,26.253,0,0,0-1.222,2.943,27.407,27.407,0,0,1-1.2,2.9,28.268,28.268,0,0,1-2.934,4.351c-1.611,2.1-3.132,4.076-3.709,6.532-.587,2.5-.055,5.186.415,7.553a.205.205,0,0,1-.161.242.209.209,0,0,1-.041,0" transform="translate(-662.527 -1157.611)" fill="#3e9459"/>
          <path id="Path_901071" data-name="Path 901071" d="M670.457,1448.69a.205.205,0,0,1-.191-.13,28.184,28.184,0,0,1-2.081-7.219,10.991,10.991,0,0,1,1.509-7.316,16.835,16.835,0,0,1,1.047-1.356,9.51,9.51,0,0,0,1.537-2.258,9.742,9.742,0,0,0,.514-3.8c0-.337,0-.674.013-1.007.065-2.2.673-3.755,1.808-4.61,1.9-1.427,4.774-.428,6.17,1.364,1.44,1.848,1.8,4.36,2.1,6.379a.205.205,0,1,1-.407.059c-.3-2.073-.642-4.423-2.015-6.185-1.279-1.641-3.893-2.573-5.6-1.288-1.03.776-1.584,2.22-1.645,4.293-.01.33-.011.663-.013,1a7.543,7.543,0,0,1-2.145,6.315,16.538,16.538,0,0,0-1.022,1.322,10.58,10.58,0,0,0-1.442,7.042,27.834,27.834,0,0,0,2.054,7.113.205.205,0,0,1-.115.267.208.208,0,0,1-.076.015" transform="translate(-589.497 -1208.686)" fill="#3e9459"/>
          <path id="Path_901072" data-name="Path 901072" d="M536.761,1454.864a.207.207,0,0,1-.093-.022c-2.148-1.094-2.775-3.5-3.38-5.829a14.806,14.806,0,0,0-1.58-4.264,14.518,14.518,0,0,0-3.716-3.482c-2.009-1.491-4.086-3.032-4.371-5.524a9.861,9.861,0,0,1,.4-3.335c.364-1.532.707-2.98-.015-4.233a5.853,5.853,0,0,0-.972-1.159c-.1-.1-.194-.2-.29-.294a11.743,11.743,0,0,1-2.71-4.569c-.968-3.065.234-5.48,1.954-6.044,1.57-.516,3.175.4,4.245,1.251.281.225.556.462.831.7a8.693,8.693,0,0,0,2.691,1.8,8.491,8.491,0,0,0,2.842.31c.431,0,.879,0,1.317.027a10.581,10.581,0,0,1,9.481,9,.206.206,0,0,1-.409.047,10.154,10.154,0,0,0-9.1-8.638c-.425-.026-.866-.026-1.291-.026a9.117,9.117,0,0,1-2.977-.333,9,9,0,0,1-2.825-1.877c-.271-.234-.542-.469-.819-.69-.991-.792-2.463-1.638-3.86-1.182-1.923.631-2.375,3.362-1.69,5.53a11.326,11.326,0,0,0,2.615,4.408c.093.1.189.193.284.289a6.24,6.24,0,0,1,1.036,1.243c.8,1.395.425,2.991.059,4.534a9.541,9.541,0,0,0-.394,3.193c.265,2.315,2.18,3.736,4.208,5.241a14.817,14.817,0,0,1,3.817,3.59,15.1,15.1,0,0,1,1.631,4.383c.609,2.343,1.185,4.556,3.169,5.566a.206.206,0,0,1-.093.389" transform="translate(-464.216 -1205.005)" fill="#3e9459"/>
          <path id="Path_901073" data-name="Path 901073" d="M640.45,1621.5a.205.205,0,0,1-.143-.058c-1.613-1.566-3.62-3.514-4.2-6.038a12.962,12.962,0,0,1-.177-3.3,16.988,16.988,0,0,0-.041-2.458c-.046-.4-.122-.8-.2-1.193a8.028,8.028,0,0,1-.2-2.637,3.528,3.528,0,0,1,1.638-2.446,2.451,2.451,0,0,1,2.108-.276,3.757,3.757,0,0,1,2.063,2.368c.1.253.192.511.283.769a5.393,5.393,0,0,0,2.665,3.48c.326.228.663.463.977.721,2.916,2.4,3.627,6.474,4.106,10.443a.205.205,0,0,1-.408.049c-.469-3.886-1.161-7.872-3.959-10.174-.3-.247-.631-.478-.951-.7a5.778,5.778,0,0,1-2.817-3.68c-.09-.253-.179-.506-.278-.754a3.379,3.379,0,0,0-1.817-2.132,2.047,2.047,0,0,0-1.758.24,3.153,3.153,0,0,0-1.445,2.153,7.617,7.617,0,0,0,.2,2.5c.075.4.153.811.2,1.221a17.278,17.278,0,0,1,.044,2.517,12.654,12.654,0,0,0,.168,3.193c.549,2.405,2.507,4.306,4.081,5.834a.206.206,0,0,1-.143.353" transform="translate(-561.936 -1362.879)" fill="#3e9459"/>
          <path id="Path_901074" data-name="Path 901074" d="M471.173,1589.7a.2.2,0,0,1-.07-.012c-2.551-.919-5.725-2.063-7.752-4.415a17.7,17.7,0,0,1-1.508-2.149,11.382,11.382,0,0,0-7.318-5.626c-.875-.357-1.779-.727-2.63-1.152a12.93,12.93,0,0,1-5.95-5.605,5.4,5.4,0,0,1-.62-3.333,7.415,7.415,0,0,1,.307-1.071,6.5,6.5,0,0,0,.3-1.085,6.781,6.781,0,0,0-.606-3.239,6.263,6.263,0,0,1-.54-3.725c.546-2.029,2.881-2.978,4.822-2.723a11.189,11.189,0,0,1,5.163,2.624l.131.1a9.846,9.846,0,0,0,2.291,1.469,9.615,9.615,0,0,0,2.674.517,14.7,14.7,0,0,1,1.947.28,7.509,7.509,0,0,1,5.076,4.254.205.205,0,1,1-.377.163,7.093,7.093,0,0,0-4.793-4.017,14.45,14.45,0,0,0-1.893-.271,10.062,10.062,0,0,1-2.787-.545,10.166,10.166,0,0,1-2.391-1.526l-.131-.1a10.846,10.846,0,0,0-4.964-2.54c-1.726-.226-3.89.635-4.372,2.422a5.878,5.878,0,0,0,.531,3.48,7.078,7.078,0,0,1,.624,3.442,6.893,6.893,0,0,1-.321,1.154,6.983,6.983,0,0,0-.291,1.011,5.013,5.013,0,0,0,.585,3.079,12.523,12.523,0,0,0,5.764,5.418c.837.418,1.734.785,2.6,1.139a11.766,11.766,0,0,1,7.511,5.787,17.37,17.37,0,0,0,1.472,2.1c1.956,2.27,4.944,3.347,7.58,4.3a.205.205,0,0,1-.07.4" transform="translate(-400.883 -1322.825)" fill="#3e9459"/>
          <path id="Path_901075" data-name="Path 901075" d="M455.643,1453.816a.205.205,0,0,1-.152-.068c-1.2-1.327-2.7-2.978-3.077-5.007a10.975,10.975,0,0,1-.117-2.125,7.978,7.978,0,0,0-.245-2.571,8.527,8.527,0,0,0-.463-1.074,4.7,4.7,0,0,1-.641-2.1,3.428,3.428,0,0,1,.447-1.553,4.378,4.378,0,0,1,4.238-2.494,6.449,6.449,0,0,1,3.019,1.625,9.231,9.231,0,0,0,2.006,1.328.205.205,0,0,1-.162.378,9.542,9.542,0,0,1-2.1-1.385,6.061,6.061,0,0,0-2.82-1.54,4,4,0,0,0-3.818,2.278,3.03,3.03,0,0,0-.4,1.367,4.337,4.337,0,0,0,.6,1.911,8.788,8.788,0,0,1,.485,1.127,8.419,8.419,0,0,1,.266,2.7,10.655,10.655,0,0,0,.109,2.045c.358,1.915,1.811,3.519,2.978,4.807a.206.206,0,0,1-.152.344" transform="translate(-406.182 -1222.599)" fill="#3e9459"/>
          <path id="Path_901076" data-name="Path 901076" d="M290.921,1618.038a.2.2,0,0,1-.2-.154c-.689-2.635-1.632-6.243-.336-9.3a14.427,14.427,0,0,1,2.614-3.725,18.3,18.3,0,0,0,2.148-2.807,18.6,18.6,0,0,0,1.315-3.133,9.267,9.267,0,0,1,5.4-6.686,14.058,14.058,0,0,0,2.655-1.768c.331-.3.639-.647.938-.98a9.434,9.434,0,0,1,1.526-1.463,2.8,2.8,0,0,1,3.441-.108c1.086,1.012.633,2.508.2,3.954a13.815,13.815,0,0,0-.38,1.431,9.49,9.49,0,0,0,.673,4.5c.135.427.275.87.394,1.305.264.962.964,4.226-1.131,5.816a.205.205,0,1,1-.248-.327c1.889-1.434,1.23-4.481.983-5.38-.117-.428-.256-.866-.39-1.29a9.8,9.8,0,0,1-.685-4.7,14.236,14.236,0,0,1,.39-1.475c.42-1.387.817-2.7-.082-3.534a2.432,2.432,0,0,0-2.924.142,8.995,8.995,0,0,0-1.457,1.4c-.306.341-.621.693-.966,1.009a14.38,14.38,0,0,1-2.731,1.823,12.021,12.021,0,0,0-2.978,2.093,11.8,11.8,0,0,0-2.233,4.37,18.9,18.9,0,0,1-1.346,3.2,18.623,18.623,0,0,1-2.194,2.872,14.14,14.14,0,0,0-2.545,3.615c-1.146,2.706-.486,5.819.355,9.038a.205.205,0,0,1-.147.251.208.208,0,0,1-.052.007" transform="translate(-270.097 -1349.704)" fill="#3e9459"/>
          <path id="Path_901077" data-name="Path 901077" d="M451.7,1722.221a.206.206,0,0,1-.169-.322l1.827-2.668c1.3-1.9,2.456-3.78,2.239-5.8a9.1,9.1,0,0,0-.18-.982,5.455,5.455,0,0,1,.136-3.419l1.252-4.631a1.535,1.535,0,0,0,.065-.907,1.335,1.335,0,0,0-.571-.582,5.623,5.623,0,0,0-8.422,3.244.206.206,0,1,1-.4-.11,6.034,6.034,0,0,1,9.037-3.481,1.7,1.7,0,0,1,.737.786,1.909,1.909,0,0,1-.054,1.157l-1.252,4.631a6.869,6.869,0,0,0-.331,1.946,6.776,6.776,0,0,0,.2,1.276,9.476,9.476,0,0,1,.187,1.027c.231,2.159-.96,4.106-2.309,6.075l-1.827,2.668a.205.205,0,0,1-.17.089" transform="translate(-403.25 -1446.173)" fill="#3e9459"/>
          <path id="Path_901078" data-name="Path 901078" d="M221.147,1676.866a.205.205,0,0,1-.149-.064,10.934,10.934,0,0,1-3.41-7.607,15.347,15.347,0,0,1,.54-3.178,9.971,9.971,0,0,0,.387-4.9,12.393,12.393,0,0,1-.146-1.706,6.427,6.427,0,0,1,3.607-5.663,3.225,3.225,0,0,1,2.843-.139,4.182,4.182,0,0,1,1.62,2.385c.867,2.3,1.845,4.592,2.908,6.807a.206.206,0,1,1-.371.178c-1.068-2.227-2.051-4.528-2.922-6.84a3.884,3.884,0,0,0-1.432-2.17,2.768,2.768,0,0,0-2.47.149,6.01,6.01,0,0,0-3.372,5.294,12.169,12.169,0,0,0,.143,1.65,10.369,10.369,0,0,1-.4,5.048,15.041,15.041,0,0,0-.529,3.092,10.534,10.534,0,0,0,3.3,7.312.205.205,0,0,1-.149.347" transform="translate(-209.184 -1405.391)" fill="#3e9459"/>
          <path id="Path_901079" data-name="Path 901079" d="M80.81,1533.929a.206.206,0,0,1-.036,0c-2.129-.371-3.995-2.24-4.99-5a27.966,27.966,0,0,1-.915-3.415,26.391,26.391,0,0,0-.957-3.519c-.248-.662-.556-1.317-.855-1.95-.333-.709-.678-1.442-.946-2.2a6.329,6.329,0,0,1-.133-4.562,3.406,3.406,0,0,1,3.863-2.105,5.176,5.176,0,0,1,2.205,1.677c.176.192.351.383.532.564.738.74,1.928,1.412,2.849.869a2.962,2.962,0,0,0,.5-.4,4.284,4.284,0,0,1,.418-.359,2.309,2.309,0,0,1,1.984-.339,4.725,4.725,0,0,1,2.853,2.486,16.427,16.427,0,0,1,.74,1.957,8.44,8.44,0,0,0,1.541,3.158,8.646,8.646,0,0,0,3.176,1.9c.376.159.766.323,1.139.5.958.453,3.184,1.739,3.153,3.88a.205.205,0,0,1-.205.2h0a.206.206,0,0,1-.2-.209c.029-1.956-2.226-3.176-2.918-3.5-.365-.173-.75-.335-1.123-.492a6.728,6.728,0,0,1-4.948-5.311,16.065,16.065,0,0,0-.72-1.908,4.357,4.357,0,0,0-2.584-2.266,1.893,1.893,0,0,0-1.643.274,3.965,3.965,0,0,0-.378.326,3.3,3.3,0,0,1-.569.458c-1.122.661-2.506-.088-3.349-.932-.184-.185-.364-.38-.544-.576a4.807,4.807,0,0,0-2.02-1.561,3.022,3.022,0,0,0-3.368,1.872,6.075,6.075,0,0,0,.142,4.265c.261.736.6,1.46.931,2.159.3.641.613,1.3.867,1.981a26.691,26.691,0,0,1,.973,3.574,27.687,27.687,0,0,0,.9,3.365c.944,2.619,2.692,4.389,4.674,4.734a.205.205,0,0,1-.035.408" transform="translate(-85.96 -1285.294)" fill="#3e9459"/>
          <path id="Path_901080" data-name="Path 901080" d="M164.338,1592.822a.2.2,0,0,1-.138-.053c-1.752-1.582-3.627-3.535-4.248-6.027a14.445,14.445,0,0,1-.319-2.387,15.607,15.607,0,0,0-.261-2.117c-.085-.39-.2-.782-.318-1.162a10.719,10.719,0,0,1-.429-1.79,3.073,3.073,0,0,1,1.007-2.926,3.013,3.013,0,0,1,3.528.333,9.239,9.239,0,0,1,1.822,2.125c.15.216.3.432.454.643a6.437,6.437,0,0,0,2.4,2.177,8.345,8.345,0,0,0,1.073.384c.224.069.448.138.668.217a7.519,7.519,0,0,1,4.676,5.146.205.205,0,1,1-.4.1,7.1,7.1,0,0,0-4.418-4.861c-.214-.077-.432-.144-.65-.211a8.765,8.765,0,0,1-1.125-.4,6.821,6.821,0,0,1-2.558-2.306c-.156-.214-.308-.432-.46-.651a8.929,8.929,0,0,0-1.736-2.035,2.634,2.634,0,0,0-3.033-.326,2.756,2.756,0,0,0-.842,2.545,10.39,10.39,0,0,0,.415,1.72c.117.388.238.788.326,1.194a15.916,15.916,0,0,1,.269,2.173,14.13,14.13,0,0,0,.308,2.319c.595,2.385,2.419,4.281,4.125,5.822a.206.206,0,0,1-.138.358" transform="translate(-159.382 -1340.043)" fill="#3e9459"/>
          <path id="Path_901081" data-name="Path 901081" d="M251.115,1513.009a.205.205,0,0,1-.192-.278,5.647,5.647,0,0,0-.095-3.2,6.975,6.975,0,0,1-.2-3.113,6.815,6.815,0,0,1,.678-1.574,6.213,6.213,0,0,0,.65-1.516,6.333,6.333,0,0,0-.2-2.725,3.031,3.031,0,0,0-.734-1.663,2.991,2.991,0,0,0-1.919-.522,4.2,4.2,0,0,1-1.922-.413c-1.323-.77-1.391-2.521-1.281-4.131.134-1.98-.278-3.207-1.227-3.647a2.892,2.892,0,0,0-2.678.557,6.979,6.979,0,0,0-2.665,3.78c-.1.364-.178.747-.251,1.118a6.5,6.5,0,0,1-1.453,3.382c-.19.262-.388.534-.56.81a7.008,7.008,0,0,0,.249,7.625.205.205,0,1,1-.333.24,7.428,7.428,0,0,1-.265-8.083c.18-.288.381-.565.576-.834a6.1,6.1,0,0,0,1.382-3.22c.074-.379.152-.77.259-1.15a7.392,7.392,0,0,1,2.822-4,3.275,3.275,0,0,1,3.09-.6c1.118.519,1.611,1.881,1.463,4.048-.1,1.485-.051,3.091,1.078,3.749a3.846,3.846,0,0,0,1.738.358,3.332,3.332,0,0,1,2.172.628,3.46,3.46,0,0,1,.859,1.879,5.022,5.022,0,0,1-.491,4.524,6.391,6.391,0,0,0-.641,1.477,6.669,6.669,0,0,0,.2,2.929,6.034,6.034,0,0,1,.077,3.429.206.206,0,0,1-.192.133" transform="translate(-224.438 -1267.219)" fill="#3e9459"/>
          <path id="Path_901082" data-name="Path 901082" d="M363.775,1519.034h-.005a.205.205,0,0,1-.2-.21,10.849,10.849,0,0,1,1.483-4.5l.033-.066a9.388,9.388,0,0,0,1.333-4.407c-.053-1.43-1.039-3.059-2.539-3.2a4.7,4.7,0,0,0-2.984,1.21,8.08,8.08,0,0,1-2.233,1.217,7.557,7.557,0,0,1-.84.178c-.153.026-.307.053-.459.085a6.374,6.374,0,0,0-4.9,5.662.208.208,0,0,1-.218.192.205.205,0,0,1-.192-.218,6.8,6.8,0,0,1,5.23-6.038c.157-.033.315-.06.474-.087a7.1,7.1,0,0,0,.794-.167,7.772,7.772,0,0,0,2.115-1.161,5.06,5.06,0,0,1,3.255-1.281c1.746.162,2.851,1.954,2.912,3.593a9.718,9.718,0,0,1-1.376,4.606l-.033.065a10.551,10.551,0,0,0-1.44,4.322.205.205,0,0,1-.205.2" transform="translate(-322.694 -1281.215)" fill="#3e9459"/>
          <path id="Path_901083" data-name="Path 901083" d="M277.127,1593.92a.2.2,0,0,1-.06-.009.206.206,0,0,1-.137-.257,8.69,8.69,0,0,0,.447-3.8,11.614,11.614,0,0,0-.353-1.487,9.643,9.643,0,0,1-.4-4.209,15.6,15.6,0,0,0,.017-2.21,2.126,2.126,0,0,0-.282-1,1.552,1.552,0,0,0-1.853-.4,3.458,3.458,0,0,0-1.534,1.534c-.14.238-.27.483-.4.728a7.569,7.569,0,0,1-1.887,2.51,8.627,8.627,0,0,0-1.157,1.281,4.289,4.289,0,0,0-.321,4.214.206.206,0,0,1-.371.178,4.707,4.707,0,0,1,.353-4.625,9.077,9.077,0,0,1,1.21-1.344,7.171,7.171,0,0,0,1.81-2.406c.132-.251.265-.5.409-.745a3.842,3.842,0,0,1,1.728-1.7,1.949,1.949,0,0,1,2.354.553,2.487,2.487,0,0,1,.351,1.194,15.88,15.88,0,0,1-.016,2.269,9.269,9.269,0,0,0,.381,4.074,11.906,11.906,0,0,1,.364,1.54,9.071,9.071,0,0,1-.461,3.982.206.206,0,0,1-.2.145" transform="translate(-252.076 -1343.478)" fill="#3e9459"/>
          <path id="Path_901084" data-name="Path 901084" d="M145.428,1476.291a.205.205,0,0,1-.2-.185,7.861,7.861,0,0,0-3.866-5.943c-.162-.092-.327-.179-.493-.266a5.752,5.752,0,0,1-1.4-.921,5.893,5.893,0,0,1-1.333-3.379l-.058-.332c-.3-1.676-.876-2.691-1.76-3.1a2.152,2.152,0,0,0-1.746.011,3.349,3.349,0,0,0-1.809,1.884c-.037.1-.07.2-.1.305a2.417,2.417,0,0,1-1.354,1.689c-.139.085-.278.171-.409.265a3.271,3.271,0,0,0-.958,4.043.206.206,0,1,1-.364.19,3.7,3.7,0,0,1,1.082-4.567c.139-.1.286-.191.434-.282a2.035,2.035,0,0,0,1.179-1.466c.035-.107.07-.215.108-.32a3.775,3.775,0,0,1,2.039-2.123,2.559,2.559,0,0,1,2.076,0c1.014.471,1.665,1.584,1.991,3.4l.059.334a5.6,5.6,0,0,0,1.216,3.156,5.365,5.365,0,0,0,1.3.85c.17.089.34.179.506.273a8.277,8.277,0,0,1,4.07,6.258.205.205,0,0,1-.184.225h-.021" transform="translate(-134.562 -1243.512)" fill="#3e9459"/>
          <path id="Path_901085" data-name="Path 901085" d="M1987.946,1608.058a.2.2,0,0,1-.039,0,.206.206,0,0,1-.163-.241,11.505,11.505,0,0,0-2.995-10.036,24.469,24.469,0,0,0-3.146-2.582c-1.932-1.416-3.93-2.879-4.866-5.117a13.954,13.954,0,0,1-.744-5.034c-.056-2.193-.11-4.265-1.365-5.888-1.4-1.812-3.677-2.293-6.086-2.8a13.641,13.641,0,0,1-5.52-2.018,12.875,12.875,0,0,1-3.22-4.3c-.275-.5-.56-1.014-.856-1.5-.716-1.177-2.683-3.9-5.347-3.67a3.831,3.831,0,0,0-2.645,1.445,7.758,7.758,0,0,0-1.52,5.481,25.881,25.881,0,0,0,.785,3.874,14.386,14.386,0,0,1,.449,8.224,19.917,19.917,0,0,0-.378,2.7,10.117,10.117,0,0,0,6.413,9.637.206.206,0,0,1-.141.386,10.4,10.4,0,0,1-6.683-10.043,20.191,20.191,0,0,1,.385-2.758,14,14,0,0,0-.443-8.047,26.285,26.285,0,0,1-.8-3.936,8.191,8.191,0,0,1,1.614-5.784,4.234,4.234,0,0,1,2.927-1.591c2.913-.236,4.976,2.624,5.731,3.866.3.495.587,1.014.864,1.516a12.583,12.583,0,0,0,3.108,4.168,13.341,13.341,0,0,0,5.357,1.944c2.376.5,4.833,1.022,6.326,2.953,1.337,1.73,1.4,3.966,1.451,6.129a13.652,13.652,0,0,0,.712,4.886c.891,2.132,2.756,3.5,4.73,4.944a24.8,24.8,0,0,1,3.2,2.628,11.923,11.923,0,0,1,3.1,10.4.206.206,0,0,1-.2.167" transform="translate(-1670.793 -1330.352)" fill="#3e9459"/>
          <path id="Path_901086" data-name="Path 901086" d="M2059.032,1464.177a.2.2,0,0,1-.133-.049,10.3,10.3,0,0,1-2.714-11.521,20.167,20.167,0,0,1,1.941-3.294,13.812,13.812,0,0,0,2.312-4.477,14.09,14.09,0,0,0,.258-1.732c.038-.352.076-.716.131-1.074a12.052,12.052,0,0,1,4.721-7.817,3.544,3.544,0,0,1,1.643-.764c1.733-.2,2.918,1.682,3.347,2.5l.191.371c.579,1.13,1.178,2.3,2.287,2.722,1.094.417,2.219-.038,3.41-.52a7.173,7.173,0,0,1,2.994-.739c2.058.109,4.207,2.287,4.333,6.238.02.637.007,1.3-.006,1.934-.04,2.043-.082,4.156.971,5.849a10.453,10.453,0,0,0,1.059,1.343,13.667,13.667,0,0,1,.894,1.09,6.923,6.923,0,0,1,1.038,5.723.205.205,0,1,1-.4-.105,6.508,6.508,0,0,0-.975-5.379,13.26,13.26,0,0,0-.868-1.057,10.774,10.774,0,0,1-1.1-1.4c-1.117-1.8-1.074-3.971-1.033-6.074.013-.632.026-1.286.005-1.912-.087-2.734-1.5-5.71-3.944-5.84a6.851,6.851,0,0,0-2.817.71c-1.212.49-2.466,1-3.711.523s-1.921-1.776-2.507-2.919l-.189-.368c-.389-.745-1.453-2.461-2.935-2.285a3.181,3.181,0,0,0-1.446.686,11.64,11.64,0,0,0-4.559,7.548c-.053.349-.092.708-.129,1.056a14.492,14.492,0,0,1-.267,1.783,14.329,14.329,0,0,1-2.372,4.613,19.873,19.873,0,0,0-1.9,3.225,9.879,9.879,0,0,0,2.6,11.046.205.205,0,0,1-.133.362" transform="translate(-1760.655 -1219.757)" fill="#3e9459"/>
          <path id="Path_901087" data-name="Path 901087" d="M2141.539,1568.147a.206.206,0,0,1-.15-.346c1.383-1.482.823-3.868.366-5.158-.135-.382-.285-.763-.435-1.146a9.834,9.834,0,0,1-.988-4.376,11.746,11.746,0,0,1,.4-1.942c.352-1.338.685-2.6-.037-3.6a4.214,4.214,0,0,0-1.614-1.158,7.211,7.211,0,0,1-1.251-.747c-1.305-1.042-1.645-2.726-1.972-4.354a7.684,7.684,0,0,0-1.562-3.937,4.229,4.229,0,0,0-4.353-.9,6.356,6.356,0,0,0-3.435,3.14c-.247.472-.454.979-.653,1.47s-.409,1.005-.662,1.49a17.555,17.555,0,0,1-1.326,2.056,17.927,17.927,0,0,0-1.256,1.93,8.963,8.963,0,0,0,.527,9.116.206.206,0,1,1-.338.234,9.384,9.384,0,0,1-.552-9.544,18.271,18.271,0,0,1,1.284-1.975,17.179,17.179,0,0,0,1.3-2.007c.244-.468.448-.97.646-1.455s.414-1.015.67-1.505a6.771,6.771,0,0,1,3.667-3.339,4.649,4.649,0,0,1,4.782,1.008,7.978,7.978,0,0,1,1.668,4.142c.328,1.628.638,3.166,1.826,4.114a6.934,6.934,0,0,0,1.182.7,4.58,4.58,0,0,1,1.76,1.284c.835,1.159.462,2.577.1,3.949a11.47,11.47,0,0,0-.385,1.873,9.535,9.535,0,0,0,.961,4.191c.152.386.3.772.44,1.159.487,1.378,1.077,3.935-.454,5.575a.206.206,0,0,1-.15.066" transform="translate(-1816.168 -1309.567)" fill="#3e9459"/>
          <path id="Path_901088" data-name="Path 901088" d="M2238.749,1667.341a.206.206,0,0,1-.2-.193c-.2-3.376,2.875-5.9,5.574-7.72,2.732-1.844,5.652-4.074,5.705-7.209a9.978,9.978,0,0,0-.308-2.225,9.606,9.606,0,0,1-.311-2.466c.1-2.2,1.6-3.934,3.045-5.609.308-.356.613-.711.9-1.067,1.7-2.085,2.7-4.991,1.106-6.782-1.369-1.542-3.964-1.264-5.8-.354a22.861,22.861,0,0,0-2.2,1.31,14.946,14.946,0,0,1-3.515,1.854,15.269,15.269,0,0,1-3.778.53,11.416,11.416,0,0,0-4.475.841c-1.99.972-3.126,2.88-4.329,4.9a19.1,19.1,0,0,1-2.714,3.813,18.038,18.038,0,0,1-3.419,2.486,20.4,20.4,0,0,0-2.981,2.081,10.289,10.289,0,0,0-2.348,11.727.205.205,0,1,1-.37.177,10.712,10.712,0,0,1,2.445-12.211,20.679,20.679,0,0,1,3.04-2.125,17.749,17.749,0,0,0,3.343-2.426,18.807,18.807,0,0,0,2.651-3.733c1.181-1.983,2.4-4.032,4.5-5.058a11.9,11.9,0,0,1,4.633-.883,14.967,14.967,0,0,0,3.677-.511,14.663,14.663,0,0,0,3.416-1.807,23.1,23.1,0,0,1,2.239-1.333c2.032-1.012,4.764-1.265,6.286.449,1.751,1.972.712,5.095-1.1,7.315-.292.359-.6.716-.91,1.076-1.4,1.623-2.848,3.3-2.945,5.36a9.144,9.144,0,0,0,.3,2.36,10.257,10.257,0,0,1,.316,2.318c-.056,3.333-3.067,5.641-5.885,7.543-2.608,1.76-5.577,4.186-5.393,7.355a.206.206,0,0,1-.193.217h-.012" transform="translate(-1897.367 -1387.847)" fill="#3e9459"/>
          <path id="Path_901089" data-name="Path 901089" d="M2261.659,1530.519a.206.206,0,0,1-.206-.2,23.919,23.919,0,0,1,.285-5.9,8.16,8.16,0,0,1,3.042-5.034,12.05,12.05,0,0,1,2.149-1.124c.477-.21.971-.427,1.429-.679a17.766,17.766,0,0,0,4.884-4.674c.435-.537.885-1.092,1.343-1.619,1.791-2.06,4.6-4.439,7.816-4.073a2.532,2.532,0,0,1,2.027,1.151,2.713,2.713,0,0,1,.216,1.315c-.015.62-.078,1.252-.139,1.864a9.62,9.62,0,0,0,.175,4.188,9.888,9.888,0,0,0,.507,1.132,6.511,6.511,0,0,1,.705,1.878c.222,1.426-.465,2.773-1.25,4.142l-2.412,4.2a.206.206,0,0,1-.357-.2l2.412-4.2a6.218,6.218,0,0,0,1.2-3.874,6.129,6.129,0,0,0-.667-1.758,10.235,10.235,0,0,1-.528-1.18,10.09,10.09,0,0,1-.2-4.365c.06-.6.123-1.228.137-1.833a2.377,2.377,0,0,0-.171-1.119,2.15,2.15,0,0,0-1.708-.929c-3.043-.343-5.733,1.95-7.459,3.935-.453.521-.9,1.073-1.333,1.607a18.079,18.079,0,0,1-5,4.776c-.475.262-.977.482-1.462.7a11.751,11.751,0,0,0-2.077,1.083,7.754,7.754,0,0,0-2.877,4.785,23.614,23.614,0,0,0-.276,5.795.206.206,0,0,1-.2.212h-.007" transform="translate(-1934.526 -1282.017)" fill="#3e9459"/>
          <path id="Path_901090" data-name="Path 901090" d="M2263.182,1463.949a.205.205,0,0,1-.177-.309,6.751,6.751,0,0,0,.782-4.712c-.042-.2-.092-.4-.143-.6a6.136,6.136,0,0,1-.246-1.476,6.2,6.2,0,0,1,1.219-3.17,5.814,5.814,0,0,0,1.159-2.955,1.377,1.377,0,0,0-.22-.818c-.4-.545-1.274-.478-1.989-.358-1.825.3-3.426.644-4.549,1.727a8.572,8.572,0,0,0-1.151,1.512,4.789,4.789,0,0,1-3.206,2.63c-.209.069-.419.139-.624.218a6.932,6.932,0,0,0-4.241,5.1.206.206,0,0,1-.4-.075,7.353,7.353,0,0,1,4.5-5.408c.211-.081.426-.153.642-.224a4.407,4.407,0,0,0,2.991-2.464,8.819,8.819,0,0,1,1.21-1.584c1.306-1.259,3.225-1.579,4.767-1.837.832-.139,1.854-.2,2.389.52a1.768,1.768,0,0,1,.3,1.06,6.194,6.194,0,0,1-1.219,3.171,5.825,5.825,0,0,0-1.159,2.954,5.76,5.76,0,0,0,.233,1.377c.052.207.1.413.147.62a7.169,7.169,0,0,1-.83,5,.207.207,0,0,1-.178.1" transform="translate(-1924.383 -1232.944)" fill="#3e9459"/>
          <path id="Path_901091" data-name="Path 901091" d="M2507.424,1619.488a.206.206,0,0,1-.206-.2,14.27,14.27,0,0,0-3.782-9.213c-.612-.655-1.3-1.265-1.966-1.856a13.009,13.009,0,0,1-5.111-8.465c-.159-.6-.324-1.214-.507-1.808-.9-2.943-2.29-4.826-4.124-5.6a9.887,9.887,0,0,0-3.114-.575,11.322,11.322,0,0,1-3-.51c-2.4-.872-3.818-3.12-5.188-5.293-.3-.48-.616-.977-.931-1.444-1.729-2.56-4.757-4.734-7.316-3.46-2.334,1.162-2.686,4.531-1.828,7.257.264.837.607,1.678.941,2.491a10.831,10.831,0,0,1,1.176,7.895,15.894,15.894,0,0,0-.268,1.97c-.24,4.74,3.661,8.536,7.913,11.932a.206.206,0,0,1-.257.321c-4.337-3.464-8.316-7.348-8.066-12.274a16.144,16.144,0,0,1,.274-2.021,10.442,10.442,0,0,0-1.152-7.667c-.336-.821-.683-1.67-.952-2.523-.91-2.893-.5-6.483,2.037-7.748,2.779-1.385,6.014.894,7.84,3.6.319.472.634.972.938,1.455,1.333,2.115,2.711,4.3,4.98,5.126a11.023,11.023,0,0,0,2.9.486,10.339,10.339,0,0,1,3.241.606c1.951.82,3.417,2.791,4.358,5.855.185.6.35,1.223.51,1.823a12.625,12.625,0,0,0,4.986,8.263c.673.6,1.369,1.215,1.994,1.884a14.685,14.685,0,0,1,3.893,9.482.205.205,0,0,1-.2.211h-.005" transform="translate(-2110.207 -1343.722)" fill="#3e9459"/>
          <path id="Path_901092" data-name="Path 901092" d="M2639.193,1817.505a.2.2,0,0,1-.166-.083c-1.643-2.225-3.1-4.43-2.9-6.936a10.82,10.82,0,0,1,.256-1.468,7.17,7.17,0,0,0,.254-1.982,7.681,7.681,0,0,0-.26-1.379,4.652,4.652,0,0,1-.183-2.359,3.171,3.171,0,0,1,3.051-2.118,6.462,6.462,0,0,1,3.577,1.239,16.194,16.194,0,0,1,3.336,2.837l.163.183a4.012,4.012,0,0,0,1.64,1.317,3.862,3.862,0,0,0,.948.13c.205.012.417.024.627.055a4.645,4.645,0,0,1,3.087,2.148,11.765,11.765,0,0,1,1.392,3.483.206.206,0,0,1-.4.106,11.415,11.415,0,0,0-1.337-3.362,4.242,4.242,0,0,0-2.8-1.969c-.192-.028-.386-.039-.591-.051a4.218,4.218,0,0,1-1.048-.149,4.315,4.315,0,0,1-1.825-1.437l-.161-.181a15.779,15.779,0,0,0-3.252-2.765,6.047,6.047,0,0,0-3.349-1.174,2.755,2.755,0,0,0-2.66,1.813,4.29,4.29,0,0,0,.184,2.153,7.946,7.946,0,0,1,.272,1.455,7.561,7.561,0,0,1-.263,2.1,10.619,10.619,0,0,0-.248,1.412c-.192,2.364,1.223,4.5,2.817,6.659a.205.205,0,0,1-.165.328" transform="translate(-2250.842 -1530.2)" fill="#3e9459"/>
          <path id="Path_901093" data-name="Path 901093" d="M2748.873,1666.217a.206.206,0,0,1-.2-.154,7.7,7.7,0,0,1,2.165-7.371,14.776,14.776,0,0,1,4.3-2.478,20.648,20.648,0,0,0,3.161-1.594c2.2-1.456,3.778-3.753,5.3-5.976,1.832-2.677,3.728-5.445,6.733-6.721a17.141,17.141,0,0,1,3.64-.947,11.537,11.537,0,0,0,7.316-3.574c.279-.244.558-.487.84-.726a9.252,9.252,0,0,1,4.971-2.482c1.876-.149,4.08,1.017,4.366,2.993a3.943,3.943,0,0,1-.4,2.223,11.58,11.58,0,0,1-1.425,2.135,5.148,5.148,0,0,0-1.623,4.968,11.794,11.794,0,0,1,.109,1.2,2.787,2.787,0,0,1-1.445,2.766.206.206,0,1,1-.146-.384,2.394,2.394,0,0,0,1.18-2.372,11.323,11.323,0,0,0-.106-1.157,5.531,5.531,0,0,1,1.706-5.272,11.255,11.255,0,0,0,1.377-2.057,3.54,3.54,0,0,0,.363-1.989c-.253-1.748-2.231-2.774-3.927-2.642a8.886,8.886,0,0,0-4.739,2.386c-.28.236-.557.479-.834.721a11.921,11.921,0,0,1-7.513,3.669,16.829,16.829,0,0,0-3.554.921c-2.895,1.229-4.672,3.826-6.554,6.575-1.544,2.255-3.14,4.586-5.412,6.086a20.957,20.957,0,0,1-3.224,1.628,14.469,14.469,0,0,0-4.187,2.4,7.278,7.278,0,0,0-2.046,6.967.2.2,0,0,1-.148.25.2.2,0,0,1-.051.006" transform="translate(-2345.682 -1389.226)" fill="#3e9459"/>
          <path id="Path_901094" data-name="Path 901094" d="M2712.533,1557.088a.205.205,0,0,1-.146-.061,12.616,12.616,0,0,1-2.549-13.5,24.76,24.76,0,0,1,1.958-3.484,13.827,13.827,0,0,0,2.8-6.857,18.971,18.971,0,0,1,.509-2.442c1.09-3.6,4.091-6.069,6.993-8.452a46.251,46.251,0,0,0,3.743-3.306c.212-.218.424-.442.636-.667,1.258-1.335,2.559-2.715,4.363-3.041a4.409,4.409,0,0,1,4.667,2.5c.821,1.9.148,3.908-.5,5.85a13.735,13.735,0,0,0-.9,3.865,12.577,12.577,0,0,0,1.368,5.105c.178.421.356.841.522,1.261,1.108,2.815,1.132,5.07.073,6.7a.205.205,0,0,1-.345-.224c.983-1.515.946-3.644-.111-6.329-.164-.417-.341-.834-.517-1.252a12.874,12.874,0,0,1-1.4-5.276,14.038,14.038,0,0,1,.919-3.985c.655-1.955,1.273-3.8.515-5.557a3.985,3.985,0,0,0-4.217-2.26c-1.672.3-2.925,1.632-4.137,2.918-.214.228-.427.453-.641.672a46.357,46.357,0,0,1-3.776,3.336c-2.855,2.344-5.806,4.768-6.861,8.253a18.6,18.6,0,0,0-.5,2.389,14.2,14.2,0,0,1-2.861,7.011,24.5,24.5,0,0,0-1.927,3.425,12.2,12.2,0,0,0,2.464,13.049.206.206,0,0,1-.147.35" transform="translate(-2312.283 -1288.8)" fill="#3e9459"/>
          <path id="Path_901095" data-name="Path 901095" d="M2899.912,1548.833a.206.206,0,0,1-.177-.309,6.648,6.648,0,0,0,.867-3.981c-.026-.259-.067-.518-.108-.778a4.316,4.316,0,0,1,1.335-4.431,9.994,9.994,0,0,0,.948-1.27,4.071,4.071,0,0,0,.1-4.053,3.281,3.281,0,0,0-3.583-1.548,5.941,5.941,0,0,0-2.586,1.951,11.515,11.515,0,0,1-1.51,1.441,10.8,10.8,0,0,1-3.5,1.494,14.1,14.1,0,0,0-2.684.99,6.937,6.937,0,0,0-3.562,5.856.205.205,0,0,1-.206.2h0a.205.205,0,0,1-.2-.208,7.26,7.26,0,0,1,3.779-6.213,14.341,14.341,0,0,1,2.762-1.022,10.357,10.357,0,0,0,3.368-1.43,11.2,11.2,0,0,0,1.455-1.391,6.33,6.33,0,0,1,2.777-2.068,3.7,3.7,0,0,1,4.049,1.737,4.489,4.489,0,0,1-.1,4.469,10.306,10.306,0,0,1-.986,1.325,3.933,3.933,0,0,0-1.245,4.1c.042.267.084.534.11.8a7.059,7.059,0,0,1-.92,4.229.206.206,0,0,1-.178.1" transform="translate(-2460.985 -1302.925)" fill="#3e9459"/>
          <path id="Path_901096" data-name="Path 901096" d="M2545.152,1487.862a.207.207,0,0,1-.133-.049c-1.785-1.518-3.808-3.238-4.848-5.558-1.058-2.359-.958-4.993-.861-7.54a21.4,21.4,0,0,0-.334-6.022c-.125-.494-.291-1-.451-1.494-.485-1.488-.987-3.026-.515-4.535.78-2.491,3.907-3.436,6.226-2.728,1.976.6,3.756,2.154,5.444,4.738.4.607.777,1.24,1.144,1.853a23.735,23.735,0,0,0,2.867,4.1,5.873,5.873,0,0,0,1.812,1.4,8.2,8.2,0,0,0,2.15.54c.171.027.342.054.511.083a18.5,18.5,0,0,1,11.98,7.618.206.206,0,1,1-.337.235,18.091,18.091,0,0,0-11.712-7.447c-.168-.029-.337-.055-.506-.082a8.514,8.514,0,0,1-2.258-.572,6.255,6.255,0,0,1-1.939-1.488,23.986,23.986,0,0,1-2.92-4.169c-.365-.609-.743-1.239-1.135-1.839-1.634-2.5-3.341-3.995-5.221-4.57-2.134-.653-5,.2-5.713,2.457-.433,1.384.027,2.793.514,4.285.163.5.331,1.013.459,1.52a21.721,21.721,0,0,1,.347,6.138c-.1,2.615-.193,5.086.826,7.357,1,2.236,2.987,3.924,4.739,5.413a.206.206,0,0,1-.133.362" transform="translate(-2167.871 -1241.938)" fill="#3e9459"/>
          <path id="Path_901097" data-name="Path 901097" d="M2645.3,1598.844a.2.2,0,0,1-.135-.05,12.286,12.286,0,0,1-4.079-7.569,3.994,3.994,0,0,1,.553-3.073,4.716,4.716,0,0,1,.348-.387,2.335,2.335,0,0,0,.774-1.73c.031-.2.063-.4.107-.6a4.369,4.369,0,0,1,5.3-3.09,7.054,7.054,0,0,1,3.491,2.949c.208.3.409.606.609.913a13.045,13.045,0,0,0,2.079,2.647.205.205,0,1,1-.273.306,13.344,13.344,0,0,1-2.149-2.728c-.2-.3-.4-.607-.6-.9a6.691,6.691,0,0,0-3.271-2.789,3.959,3.959,0,0,0-4.78,2.789c-.042.186-.072.378-.1.569a2.714,2.714,0,0,1-.885,1.952,4.411,4.411,0,0,0-.318.353,3.622,3.622,0,0,0-.471,2.767,11.872,11.872,0,0,0,3.941,7.313.205.205,0,0,1-.134.361" transform="translate(-2254.988 -1345.336)" fill="#3e9459"/>
          <path id="Path_901098" data-name="Path 901098" d="M2736.539,1468.028a.2.2,0,0,1-.176-.1,7.772,7.772,0,0,1,4.027-11.355c.136-.049.272-.093.41-.138a5.565,5.565,0,0,0,1-.4,5.664,5.664,0,0,0,1.239-1.059l.072-.074c3.158-3.259,6.107-4.843,9.015-4.843h.007a1.674,1.674,0,0,1,1.031.261,1.829,1.829,0,0,1,.469,1.686l-.41,5.18a.206.206,0,0,1-.41-.032l.41-5.181c.04-.51.035-1.067-.307-1.326a1.3,1.3,0,0,0-.783-.178h-.006c-2.791,0-5.643,1.543-8.719,4.718l-.072.074a4.517,4.517,0,0,1-2.4,1.56c-.134.044-.267.087-.4.134a7.362,7.362,0,0,0-3.815,10.755.205.205,0,0,1-.175.312" transform="translate(-2334.528 -1233.796)" fill="#3e9459"/>
          <path id="Path_901099" data-name="Path 901099" d="M2654.441,1476.69a.2.2,0,0,1-.175-.1,13.977,13.977,0,0,1-1.834-3.868,4.934,4.934,0,0,1,.687-4.216,3.165,3.165,0,0,1,4.036-.886,4.9,4.9,0,0,1,1.178,1.224,5.655,5.655,0,0,0,3.617,2.346c.27.1.539.193.8.295,1.821.7,2.93,1.725,3.207,2.959a.205.205,0,0,1-.4.09c-.31-1.381-1.778-2.212-2.954-2.666-.261-.1-.528-.2-.794-.291a7.984,7.984,0,0,1-3.137-1.679,8.16,8.16,0,0,1-.669-.806,4.544,4.544,0,0,0-1.075-1.128,2.742,2.742,0,0,0-3.487.793,4.591,4.591,0,0,0-.612,3.867,13.65,13.65,0,0,0,1.785,3.752.205.205,0,0,1-.176.313" transform="translate(-2264.47 -1248.275)" fill="#3e9459"/>
          <path id="Path_901100" data-name="Path 901100" d="M2893.73,1501.221a.205.205,0,0,1-.205-.2,5.47,5.47,0,0,0-1.083-3.512c-1.246-1.368-3.508-1.268-5-.48a12.168,12.168,0,0,0-3.908,3.92.206.206,0,0,1-.333-.242,12.686,12.686,0,0,1,4.049-4.042c1.672-.881,4.1-.97,5.5.567a5.836,5.836,0,0,1,1.19,3.777.206.206,0,0,1-.2.211h-.006" transform="translate(-2459.399 -1272.603)" fill="#3e9459"/>
          <path id="Path_901101" data-name="Path 901101" d="M1782.6,1811.54a.206.206,0,0,1-.1-.025c-2.674-1.457-5.705-3.109-7.767-5.675-1.91-2.377-3.081-6.135-1.391-9.174.153-.274.326-.538.494-.792a5.706,5.706,0,0,0,1.1-4.132,11.758,11.758,0,0,1,.17-2.218,6.044,6.044,0,0,1,6.68-4.579c2.5.418,4.707,2.487,5.913,5.535.1.258.2.525.3.794.647,1.733,1.316,3.524,2.935,4.012a5.32,5.32,0,0,0,1.322.164c.274.011.557.023.836.059a5.05,5.05,0,0,1,4.239,4.195.206.206,0,0,1-.407.057,4.628,4.628,0,0,0-3.884-3.844c-.262-.033-.536-.045-.8-.056a5.72,5.72,0,0,1-1.424-.181c-1.814-.547-2.551-2.521-3.2-4.262-.1-.267-.2-.531-.3-.787-1.152-2.913-3.245-4.887-5.6-5.281a5.615,5.615,0,0,0-6.21,4.257,11.432,11.432,0,0,0-.161,2.141,6.093,6.093,0,0,1-1.17,4.353c-.164.248-.333.505-.478.766-1.6,2.872-.472,6.448,1.352,8.717,2.011,2.5,5,4.133,7.644,5.572a.205.205,0,0,1-.1.386" transform="translate(-1521.833 -1516.434)" fill="#3e9459"/>
          <path id="Path_901102" data-name="Path 901102" d="M1901.03,431.275a.267.267,0,0,1-.238-.146,5.519,5.519,0,0,1-.86-3.16,5.638,5.638,0,0,1,.974-2.161c.065-.1.13-.205.193-.308,2.242-3.63.53-6.589-.689-7.646a.267.267,0,0,1,.35-.4c1.337,1.16,3.223,4.394.793,8.33-.064.1-.13.208-.2.312a5.255,5.255,0,0,0-.9,1.95,5.125,5.125,0,0,0,.807,2.844.267.267,0,0,1-.117.359.264.264,0,0,1-.121.029" transform="translate(-1629.357 -362.035)" fill="#ed311c"/>
          <path id="Path_901103" data-name="Path 901103" d="M1914.977,496.607a.267.267,0,0,1-.217-.111l-.606-.842a.267.267,0,0,1,.434-.312l.606.842a.267.267,0,0,1-.217.423" transform="translate(-1641.345 -427.749)" fill="#ed311c"/>
          <path id="Path_901104" data-name="Path 901104" d="M1873.544,422.921a7.566,7.566,0,0,0-.291,2.185,1.843,1.843,0,0,0,.2.924.933.933,0,0,0,.846.478,1.084,1.084,0,0,0,.775-.66,6.017,6.017,0,0,0,.661-2,2.059,2.059,0,0,0-.086-1.122,1.136,1.136,0,0,0-.938-.692,1.244,1.244,0,0,0-1.162.892" transform="translate(-1606.859 -365.954)" fill="#4d303d"/>
          <path id="Path_901105" data-name="Path 901105" d="M1961.667,442.775a6.634,6.634,0,0,0-.3,2.04,1.685,1.685,0,0,0,.192.875.979.979,0,0,0,.84.481,1.017,1.017,0,0,0,.773-.591,5.27,5.27,0,0,0,.665-1.858,1.842,1.842,0,0,0-.082-1.057,1.109,1.109,0,0,0-2.091.11" transform="translate(-1681.244 -382.795)" fill="#4d303d"/>
          <path id="Path_901106" data-name="Path 901106" d="M1860.981,394.988a8.459,8.459,0,0,1,4.174.6,5.506,5.506,0,0,0,1.358.476,1.307,1.307,0,0,0,1.281-.479,1.173,1.173,0,0,0,.025-1.118,2.285,2.285,0,0,0-.782-.851,6.755,6.755,0,0,0-3.471-1.04,4.947,4.947,0,0,0-3.586.87,1.4,1.4,0,0,0-.536.883c-.033.351.21.807,1.538.66" transform="translate(-1595.199 -341.073)" fill="#4d303d"/>
          <path id="Path_901107" data-name="Path 901107" d="M1955.23,412.244a8.46,8.46,0,0,0-4.152-.735,5.513,5.513,0,0,1-1.439.028,1.307,1.307,0,0,1-1.067-.856,1.172,1.172,0,0,1,.326-1.07,2.281,2.281,0,0,1,1.009-.564,6.752,6.752,0,0,1,3.622.1,4.947,4.947,0,0,1,3.134,1.947,1.4,1.4,0,0,1,.233,1.006c-.078.344-.452.7-1.667.146" transform="translate(-1670.417 -354.821)" fill="#4d303d"/>
          <path id="Path_901108" data-name="Path 901108" d="M2032.928,438.09a.309.309,0,0,1-.282-.433,9.527,9.527,0,0,1,4.227-4.471.308.308,0,0,1,.237.57,8.974,8.974,0,0,0-3.9,4.151.308.308,0,0,1-.282.184" transform="translate(-1741.392 -375.353)" fill="#ed311c"/>
          <path id="Path_901109" data-name="Path 901109" d="M2029.511,449.747a.308.308,0,0,1-.222-.522,9.5,9.5,0,0,0,2.413-5.1.3.3,0,0,1,.329-.286.308.308,0,0,1,.286.329,10.241,10.241,0,0,1-2.583,5.487.306.306,0,0,1-.222.094" transform="translate(-1738.508 -384.363)" fill="#ed311c"/>
          <path id="Path_901110" data-name="Path 901110" d="M1824.68,415.337a.308.308,0,0,1-.307-.285,18.469,18.469,0,0,0-.446-2.855,3.09,3.09,0,0,0-.8-1.66.308.308,0,0,1,.405-.465,3.617,3.617,0,0,1,1,1.982,19.031,19.031,0,0,1,.461,2.952.308.308,0,0,1-.284.331h-.024" transform="translate(-1564.454 -355.797)" fill="#ed311c"/>
          <path id="Path_901111" data-name="Path 901111" d="M1825.507,423.044a.309.309,0,0,1-.286-.194,5.161,5.161,0,0,1,.014-3.836.308.308,0,1,1,.57.233,4.538,4.538,0,0,0-.012,3.374.309.309,0,0,1-.286.423" transform="translate(-1566.005 -363.247)" fill="#ed311c"/>
          <path id="Path_901112" data-name="Path 901112" d="M1820.18,793.621a.308.308,0,0,1-.24-.5,6.709,6.709,0,0,1,2.474-1.678c.208-.1.415-.2.619-.3.419-.213,1.11-.654,1.038-1.211a.308.308,0,1,1,.611-.079c.089.69-.4,1.344-1.37,1.839-.207.106-.419.208-.632.309a6.161,6.161,0,0,0-2.26,1.509.308.308,0,0,1-.24.115" transform="translate(-1561.796 -676.232)" fill="#ed311c"/>
          <path id="Path_901113" data-name="Path 901113" d="M1827.9,822.427a.307.307,0,0,1-.219-.091c-1.4-1.409-2.439-3.763-1.606-5.846a8.137,8.137,0,0,1,3.271-3.365l.3-.208c1.209-.849,2.621-2.024,2.8-3.584a.312.312,0,0,1,.341-.271.308.308,0,0,1,.271.341c-.206,1.8-1.742,3.1-3.057,4.019l-.3.209a7.7,7.7,0,0,0-3.051,3.088c-.729,1.823.213,3.917,1.471,5.183a.308.308,0,0,1-.219.526" transform="translate(-1566.782 -692.676)" fill="#ed311c"/>
          <path id="Path_901114" data-name="Path 901114" d="M1865.474,849.048a3.448,3.448,0,0,1-2.312-1.3,12.958,12.958,0,0,1-2.617-3.557,5.58,5.58,0,0,1-.211-4.452,8.291,8.291,0,0,1,2.785-3.054,10.022,10.022,0,0,0,2.327-2.264.308.308,0,1,1,.517.335,10.459,10.459,0,0,1-2.464,2.414,7.727,7.727,0,0,0-2.6,2.812,4.967,4.967,0,0,0,.207,3.955,12.421,12.421,0,0,0,2.5,3.383c.885.919,1.641,1.27,2.244,1.04a1.4,1.4,0,0,0,.792-1.052,3.231,3.231,0,0,0-.14-1.519,7.888,7.888,0,0,0-1.074-2.279.862.862,0,0,1-.2-.713.845.845,0,0,1,.253-.38l1.9-1.85a.308.308,0,1,1,.431.441l-1.9,1.85a.541.541,0,0,0-.089.1.739.739,0,0,0,.111.2,8.491,8.491,0,0,1,1.158,2.457,3.922,3.922,0,0,1,.153,1.809,1.994,1.994,0,0,1-1.178,1.509,1.663,1.663,0,0,1-.6.11" transform="translate(-1595.641 -713.968)" fill="#ed311c"/>
          <path id="Path_901115" data-name="Path 901115" d="M1463.679,785.367a5.716,5.716,0,0,1-1.812-.294.308.308,0,0,1,.2-.585,5.091,5.091,0,0,0,2.426.2.308.308,0,0,1,.1.609,5.684,5.684,0,0,1-.907.073" transform="translate(-1259.399 -671.92)" fill="#ed311c"/>
          <path id="Path_901116" data-name="Path 901116" d="M1464.413,813.457a2.8,2.8,0,0,1-1.2-.239.308.308,0,1,1,.259-.559,3.613,3.613,0,0,0,2,.087,4.907,4.907,0,0,1,2.059.019.308.308,0,0,1-.175.591,4.383,4.383,0,0,0-1.8,0,8.771,8.771,0,0,1-1.136.1" transform="translate(-1260.561 -695.69)" fill="#ed311c"/>
          <path id="Path_901117" data-name="Path 901117" d="M1488.292,854.291a.307.307,0,0,1-.245-.121,19.45,19.45,0,0,0-3.772-4.076,9.634,9.634,0,0,0-5.028-1.815.308.308,0,0,1,.038-.615,10.26,10.26,0,0,1,5.353,1.932,19.912,19.912,0,0,1,3.9,4.2.308.308,0,0,1-.245.495" transform="translate(-1274.004 -725.264)" fill="#ed311c"/>
          <path id="Path_901118" data-name="Path 901118" d="M1499.913,895.594a.307.307,0,0,1-.2-.074l-5.016-4.277a8.292,8.292,0,0,0-3.7-2.166.308.308,0,0,1,.1-.608,8.755,8.755,0,0,1,3.995,2.3l5.016,4.277a.308.308,0,0,1-.2.543" transform="translate(-1283.953 -759.709)" fill="#ed311c"/>
          <path id="Path_901119" data-name="Path 901119" d="M1521.081,944.359a3.571,3.571,0,0,1-.664-.062,8.356,8.356,0,0,1-3.068-1.482c-1.27-.867-2.517-1.8-3.708-2.781a.308.308,0,1,1,.391-.477c1.177.966,2.409,1.891,3.664,2.748a7.845,7.845,0,0,0,2.836,1.385,2.049,2.049,0,0,0,2.091-.62.308.308,0,1,1,.515.339,2.382,2.382,0,0,1-2.057.949" transform="translate(-1303.189 -802.781)" fill="#ed311c"/>
          <path id="Path_901120" data-name="Path 901120" d="M1783.366,564.494a.308.308,0,0,1-.308-.308,19.2,19.2,0,0,0-.961-5.976c-.116-.354-.444-1.172-.989-1.172h-.011a1.1,1.1,0,0,0-.729.443,3.731,3.731,0,0,0-.912,1.957c-.015.106-.025.213-.036.32a2.864,2.864,0,0,1-.271,1.12,1.309,1.309,0,0,1-.861.64.883.883,0,0,1-.745-.173,1.332,1.332,0,0,1-.407-.817c-.611-3.1.643-6.219,2.09-9.126l.319-.638c1.278-2.549,2.6-5.185,2.609-7.989a.308.308,0,0,1,.308-.307h0a.309.309,0,0,1,.307.309c-.01,2.949-1.365,5.651-2.675,8.263l-.318.636c-1.4,2.81-2.613,5.812-2.037,8.733a.807.807,0,0,0,.192.458.272.272,0,0,0,.236.045.686.686,0,0,0,.438-.329,2.362,2.362,0,0,0,.2-.887c.011-.116.023-.231.039-.345a4.354,4.354,0,0,1,1.064-2.284,1.667,1.667,0,0,1,1.175-.647c.7-.017,1.257.553,1.6,1.6a19.825,19.825,0,0,1,.992,6.167.309.309,0,0,1-.308.309Z" transform="translate(-1525.585 -467.626)" fill="#4d303d"/>
          <path id="Path_901121" data-name="Path 901121" d="M1974.68,590.176a.315.315,0,0,1-.056-.005.308.308,0,0,1-.248-.359,9.027,9.027,0,0,1,1.8-4.624,3.82,3.82,0,0,1,2.735-1.2h.064a2.568,2.568,0,0,1,1.946.866,5.087,5.087,0,0,1,.443.642c.242.393.471.764.83.881a.8.8,0,0,0,.615-.069,1.41,1.41,0,0,0,.672-.813,4.221,4.221,0,0,0-.035-1.9l-.027-.161c-.86-5.257.085-10.536,1-15.641a.308.308,0,0,1,.607.109c-.905,5.054-1.841,10.279-1,15.433l.026.159a4.665,4.665,0,0,1,.016,2.184,2.05,2.05,0,0,1-.978,1.177,1.393,1.393,0,0,1-1.09.107,2.328,2.328,0,0,1-1.163-1.144,4.564,4.564,0,0,0-.387-.566,1.957,1.957,0,0,0-1.489-.65,3.261,3.261,0,0,0-2.333,1,8.556,8.556,0,0,0-1.648,4.317.308.308,0,0,1-.3.253" transform="translate(-1692.221 -488.793)" fill="#4d303d"/>
          <path id="Path_901122" data-name="Path 901122" d="M1966.955,993.215h-.038c-.2-.011-.478-.122-.682-.583a7.563,7.563,0,0,1-.5-2.457c-.21-2.438-.38-4.915-.505-7.36a.308.308,0,0,1,.292-.323.3.3,0,0,1,.323.292c.125,2.439.294,4.908.5,7.339a7.121,7.121,0,0,0,.449,2.261c.078.177.144.217.154.217s.1-.068.188-.3a25.913,25.913,0,0,0,1.448-6.358.308.308,0,1,1,.613.06,26.508,26.508,0,0,1-1.482,6.51c-.211.578-.525.708-.764.708" transform="translate(-1684.504 -839.082)" fill="#4d303d"/>
          <path id="Path_901123" data-name="Path 901123" d="M2052.759,923.389a.308.308,0,0,1-.26-.142c-2.328-3.637-5.01-7.239-8.842-8.95a24.392,24.392,0,0,0-2.765-.975c-.7-.216-1.427-.44-2.129-.709a33.077,33.077,0,0,1-7.7-4.707l-20.784-15.483a.308.308,0,1,1,.368-.494l20.785,15.483a32.6,32.6,0,0,0,7.552,4.626c.682.262,1.4.482,2.09.7a24.887,24.887,0,0,1,2.834,1c3.979,1.777,6.73,5.463,9.109,9.181a.308.308,0,0,1-.259.474" transform="translate(-1722.428 -762.581)" fill="#4d303d"/>
          <path id="Path_901124" data-name="Path 901124" d="M2200.731,1021.445a3.906,3.906,0,0,1-1.614-.4,11.243,11.243,0,0,1-1.214-.7c-.248-.156-.5-.318-.76-.46a14.979,14.979,0,0,0-6.858-1.4.308.308,0,0,1-.054-.61,17.805,17.805,0,0,1,10.979.771c.922.347,1.386.831,1.379,1.437a1.417,1.417,0,0,1-1.045,1.222,2.552,2.552,0,0,1-.812.128m-7.64-3.375a11.848,11.848,0,0,1,4.351,1.285c.271.151.535.317.789.477a10.662,10.662,0,0,0,1.147.658,2.749,2.749,0,0,0,1.969.241c.3-.1.621-.344.624-.644,0-.4-.531-.684-.98-.854a16.591,16.591,0,0,0-7.9-1.165" transform="translate(-1874.238 -868.529)" fill="#4d303d"/>
          <path id="Path_901125" data-name="Path 901125" d="M2003.383,1073.078a.306.306,0,0,1-.171-.052,141.967,141.967,0,0,1-28.146-24.823.308.308,0,0,1,.466-.4,141.332,141.332,0,0,0,28.024,24.715.308.308,0,0,1-.172.564" transform="translate(-1692.743 -894.124)" fill="#4d303d"/>
          <path id="Path_901126" data-name="Path 901126" d="M2021.014,954.821a.308.308,0,0,1-.268-.46,45.1,45.1,0,0,0,5.725-24.194.308.308,0,1,1,.616-.031,45.73,45.73,0,0,1-5.8,24.529.308.308,0,0,1-.269.156" transform="translate(-1731.335 -794.639)" fill="#4d303d"/>
          <path id="Path_901127" data-name="Path 901127" d="M1999.19,1014.4a.306.306,0,0,1-.2-.077,64.069,64.069,0,0,1-6.508-6.613.308.308,0,0,1,.47-.4,63.47,63.47,0,0,0,6.445,6.549.308.308,0,0,1-.2.54" transform="translate(-1707.445 -859.944)" fill="#4d303d"/>
          <path id="Path_901128" data-name="Path 901128" d="M2110.476,815.55a.308.308,0,0,1-.307-.286c-.691-9.481-1.552-19.087-2.561-28.551a.309.309,0,0,1,.614-.065c1.009,9.471,1.871,19.084,2.562,28.572a.308.308,0,0,1-.284.33h-.023" transform="translate(-1804.694 -673.524)" fill="#4d303d"/>
          <path id="Path_901129" data-name="Path 901129" d="M2094,855.188a.308.308,0,0,1-.282-.185,47.017,47.017,0,0,0-4.276-7.7.308.308,0,1,1,.509-.348,47.571,47.571,0,0,1,4.332,7.8.309.309,0,0,1-.282.432" transform="translate(-1789.312 -724.552)" fill="#4d303d"/>
          <path id="Path_901130" data-name="Path 901130" d="M2064.7,597.769a.307.307,0,0,1-.269-.157,21.06,21.06,0,0,0-6.735-7.24,42.447,42.447,0,0,0-9.413-4.205l-7.176-2.529a.308.308,0,1,1,.2-.581l7.177,2.53a42.892,42.892,0,0,1,9.548,4.272,21.679,21.679,0,0,1,6.932,7.453.308.308,0,0,1-.268.459" transform="translate(-1748.387 -501.874)" fill="#4d303d"/>
          <path id="Path_901131" data-name="Path 901131" d="M2134.382,681.687a.309.309,0,0,1-.287-.422,11.972,11.972,0,0,1,15.884-6.584.308.308,0,1,1-.245.566,11.356,11.356,0,0,0-15.066,6.245.308.308,0,0,1-.287.195" transform="translate(-1827.037 -578.411)" fill="#4d303d"/>
          <path id="Path_901132" data-name="Path 901132" d="M1641.978,596.215a.308.308,0,0,1-.308-.305,15.66,15.66,0,0,0-1.121-5.639.308.308,0,0,1,.572-.23,16.06,16.06,0,0,1,1.167,5.863.308.308,0,0,1-.305.311Z" transform="translate(-1410.396 -507.622)" fill="#4d303d"/>
          <path id="Path_901133" data-name="Path 901133" d="M1647.894,556.059a.308.308,0,0,1-.193-.549,39.456,39.456,0,0,1,24.223-8.651h0a.308.308,0,0,1,0,.617,38.836,38.836,0,0,0-23.843,8.516.307.307,0,0,1-.193.068" transform="translate(-1416.356 -471.333)" fill="#4d303d"/>
          <path id="Path_901134" data-name="Path 901134" d="M1683.722,973.442a.308.308,0,0,1-.308-.3l-.136-8.7a.308.308,0,0,1,.3-.313h0a.308.308,0,0,1,.308.3l.136,8.7a.308.308,0,0,1-.3.313Z" transform="translate(-1446.487 -823.581)" fill="#4d303d"/>
          <path id="Path_901135" data-name="Path 901135" d="M1640.37,980.452h-.023a.308.308,0,0,1-.285-.33,44.368,44.368,0,0,0-.449-10.394.308.308,0,0,1,.609-.1,44.953,44.953,0,0,1,.455,10.539.307.307,0,0,1-.307.285" transform="translate(-1409.623 -828.006)" fill="#4d303d"/>
          <path id="Path_901136" data-name="Path 901136" d="M1521.268,999.482a9.108,9.108,0,0,1-7.369-4.65c-1.636-2.665-2.265-5.88-2.819-8.716a.308.308,0,1,1,.6-.118c.572,2.921,1.162,5.942,2.74,8.512,1.705,2.778,4.5,4.486,7.136,4.348a8.323,8.323,0,0,0,6.071-3.781,25.264,25.264,0,0,0,3.031-6.924.308.308,0,1,1,.586.19,25.718,25.718,0,0,1-3.114,7.09,8.94,8.94,0,0,1-6.542,4.041c-.107.005-.216.008-.324.008" transform="translate(-1301.116 -841.833)" fill="#4d303d"/>
          <path id="Path_901137" data-name="Path 901137" d="M1545.6,1013.3a.309.309,0,0,1-.3-.391l1.945-6.991a.308.308,0,1,1,.594.165l-1.945,6.991a.308.308,0,0,1-.3.226" transform="translate(-1330 -858.671)" fill="#4d303d"/>
          <path id="Path_901138" data-name="Path 901138" d="M1640.42,1039.227h-.017a.308.308,0,0,1-.291-.324l.309-5.727a.308.308,0,1,1,.615.033l-.309,5.726a.308.308,0,0,1-.307.292" transform="translate(-1410.046 -881.624)" fill="#4d303d"/>
          <path id="Path_901139" data-name="Path 901139" d="M1643.921,1011.675a.308.308,0,0,1-.3-.24l-1.787-7.909a.308.308,0,0,1,.6-.136l1.787,7.909a.308.308,0,0,1-.233.369.3.3,0,0,1-.068.008" transform="translate(-1411.494 -856.523)" fill="#4d303d"/>
          <path id="Path_901140" data-name="Path 901140" d="M1722.564,1066.724a.3.3,0,0,1-.125-.027.309.309,0,0,1-.156-.407l13.238-29.694a.308.308,0,0,1,.563.251l-13.238,29.694a.308.308,0,0,1-.282.183" transform="translate(-1479.391 -884.603)" fill="#4d303d"/>
          <path id="Path_901141" data-name="Path 901141" d="M1810.6,1185.009h-.025a.308.308,0,0,1-.283-.332,90.392,90.392,0,0,1,1.677-11.479.308.308,0,1,1,.6.128,89.787,89.787,0,0,0-1.664,11.4.308.308,0,0,1-.307.283" transform="translate(-1553.712 -999.867)" fill="#4d303d"/>
          <path id="Path_901142" data-name="Path 901142" d="M2002.542,813.733a.308.308,0,0,1-.3-.229,51.072,51.072,0,0,1-1.528-8.725.308.308,0,1,1,.614-.053,50.46,50.46,0,0,0,1.51,8.619.309.309,0,0,1-.3.388" transform="translate(-1714.46 -688.781)" fill="#4d303d"/>
          <path id="Path_901143" data-name="Path 901143" d="M1814.74,1356.627a.309.309,0,0,1-.3-.23c-2.042-7.778-4.154-15.821-3.448-24.039a.312.312,0,0,1,.333-.281.308.308,0,0,1,.281.334c-.7,8.112,1.4,16.1,3.431,23.83a.308.308,0,0,1-.3.387" transform="translate(-1554.184 -1134.195)" fill="#4d303d"/>
          <path id="Path_901144" data-name="Path 901144" d="M2045.158,1333.391a.308.308,0,0,1-.306-.275c-.841-7.74-1.951-15.556-3.3-23.232a.308.308,0,1,1,.607-.107c1.353,7.689,2.466,15.519,3.307,23.272a.308.308,0,0,1-.273.34h-.034" transform="translate(-1748.928 -1115.155)" fill="#4d303d"/>
          <path id="Path_901145" data-name="Path 901145" d="M2063.494,1348.917a.316.316,0,0,1-.068-.007.309.309,0,0,1-.233-.368,69.02,69.02,0,0,0,1.623-12.487.308.308,0,0,1,.616.023,69.614,69.614,0,0,1-1.638,12.6.308.308,0,0,1-.3.241" transform="translate(-1767.195 -1137.302)" fill="#4d303d"/>
          <path id="Path_901146" data-name="Path 901146" d="M1803.207,1644.591a.308.308,0,0,1-.268-.46,133.667,133.667,0,0,1,10.671-16.059.308.308,0,1,1,.487.377,133.092,133.092,0,0,0-10.622,15.985.307.307,0,0,1-.269.157" transform="translate(-1547.468 -1383.967)" fill="#4d303d"/>
          <path id="Path_901147" data-name="Path 901147" d="M924.081,1371.247a1.052,1.052,0,0,0,0,2.1,1.052,1.052,0,0,0,0-2.1" transform="translate(-804.718 -1167.262)" fill="#5b5a94"/>
          <path id="Path_901148" data-name="Path 901148" d="M928.251,762.1a.308.308,0,0,1-.308-.308V648.378a.308.308,0,0,1,.308-.308h67.971a.308.308,0,1,1,0,.616H928.56V761.794a.308.308,0,0,1-.308.308" transform="translate(-808.851 -556.773)" fill="#5b5a94"/>
          <path id="Path_901149" data-name="Path 901149" d="M1067.964,793.591a.313.313,0,0,1-.066-.007c-5.054-1.1-7.809-4.781-7.967-10.636a.308.308,0,0,1,.386-.307c5.422,1.421,8.247,5.206,7.954,10.658a.308.308,0,0,1-.307.292m-7.4-10.242c.257,5.23,2.647,8.439,7.108,9.549.128-4.8-2.381-8.166-7.108-9.549" transform="translate(-920.272 -670.366)" fill="#5b5a94"/>
          <path id="Path_901150" data-name="Path 901150" d="M1110.71,793.59a.308.308,0,0,1-.308-.292c-.293-5.452,2.532-9.237,7.955-10.658a.308.308,0,0,1,.386.306c-.158,5.855-2.914,9.533-7.967,10.636a.317.317,0,0,1-.066.007m7.4-10.242c-4.727,1.383-7.235,4.752-7.108,9.549,4.462-1.109,6.851-4.319,7.108-9.549" transform="translate(-962.861 -670.365)" fill="#5b5a94"/>
          <path id="Path_901151" data-name="Path 901151" d="M1096.311,741.5h0a.307.307,0,0,1-.234-.11c-3.5-4.186-3.515-8.909-.03-13.3a.311.311,0,0,1,.25-.116.306.306,0,0,1,.243.13c3.386,4.779,3.388,9.374.006,13.289a.307.307,0,0,1-.233.107m-.038-12.7c-2.952,3.941-2.937,8.143.042,11.9,2.9-3.564,2.891-7.565-.042-11.9" transform="translate(-948.558 -624.227)" fill="#5b5a94"/>
          <path id="Path_901152" data-name="Path 901152" d="M1041.336,736.1a12.972,12.972,0,1,1,12.972-12.972,12.987,12.987,0,0,1-12.972,12.972m0-25.328a12.356,12.356,0,1,0,12.355,12.356,12.369,12.369,0,0,0-12.355-12.356" transform="translate(-893.624 -609.18)" fill="#5b5a94"/>
          <path id="Path_901153" data-name="Path 901153" d="M1027.768,725.031a15.477,15.477,0,1,1,15.477-15.477,15.494,15.494,0,0,1-15.477,15.477m0-30.337a14.86,14.86,0,1,0,14.86,14.86,14.877,14.877,0,0,0-14.86-14.86" transform="translate(-880.056 -595.612)" fill="#5b5a94"/>
          <path id="Path_901154" data-name="Path 901154" d="M1042.083,978.1a12.972,12.972,0,1,1,12.972-12.972,12.987,12.987,0,0,1-12.972,12.972m0-25.328a12.356,12.356,0,1,0,12.355,12.356,12.37,12.37,0,0,0-12.355-12.356" transform="translate(-894.255 -813.476)" fill="#5b5a94"/>
          <path id="Path_901155" data-name="Path 901155" d="M1028.515,967.037a15.477,15.477,0,1,1,15.477-15.477,15.494,15.494,0,0,1-15.477,15.477m0-30.337a14.86,14.86,0,1,0,14.86,14.86,14.877,14.877,0,0,0-14.86-14.86" transform="translate(-880.686 -799.907)" fill="#5b5a94"/>
          <path id="Path_901156" data-name="Path 901156" d="M1041.336,1220.106a12.972,12.972,0,1,1,12.972-12.972,12.987,12.987,0,0,1-12.972,12.972m0-25.328a12.356,12.356,0,1,0,12.355,12.355,12.369,12.369,0,0,0-12.355-12.355" transform="translate(-893.624 -1017.771)" fill="#5b5a94"/>
          <path id="Path_901157" data-name="Path 901157" d="M1027.768,1209.042a15.477,15.477,0,1,1,15.477-15.477,15.494,15.494,0,0,1-15.477,15.477m0-30.337a14.86,14.86,0,1,0,14.86,14.86,14.877,14.877,0,0,0-14.86-14.86" transform="translate(-880.056 -1004.202)" fill="#5b5a94"/>
          <path id="Path_901158" data-name="Path 901158" d="M1095.513,981.733a2.971,2.971,0,0,1-3.133-2.844c-.092-1.573,1.1-3.515,2.159-5.228.239-.389.472-.765.679-1.123a.307.307,0,0,1,.255-.153.3.3,0,0,1,.266.134l.033.048c1.147,1.675,2.881,4.206,2.881,6.231a2.958,2.958,0,0,1-3.036,2.934h-.1m-.01-8.466c-.141.234-.289.474-.439.718-1.007,1.636-2.149,3.489-2.068,4.868a2.367,2.367,0,0,0,2.6,2.262,2.336,2.336,0,0,0,2.438-2.317c0-1.7-1.489-4-2.533-5.531" transform="translate(-947.661 -830.552)" fill="#5b5a94"/>
          <path id="Path_901159" data-name="Path 901159" d="M1122.674,1039.094a3.024,3.024,0,0,1-3.2-2.94c0-1.612,1.2-3.608,2.265-5.369.2-.332.4-.655.574-.964a.308.308,0,0,1,.255-.153.315.315,0,0,1,.266.134l.033.049c1.147,1.675,2.881,4.205,2.881,6.229a2.9,2.9,0,0,1-.966,2.277,3.205,3.205,0,0,1-2.1.737m-.078-8.544c-.108.181-.219.365-.332.552-1.02,1.693-2.176,3.61-2.176,5.051a2.394,2.394,0,0,0,2.586,2.324,2.59,2.59,0,0,0,1.7-.587,2.3,2.3,0,0,0,.752-1.81c0-1.7-1.489-4-2.533-5.53" transform="translate(-970.534 -878.909)" fill="#5b5a94"/>
          <path id="Path_901160" data-name="Path 901160" d="M1065.107,1039.056a2.993,2.993,0,0,1-3.136-2.885c-.083-1.577,1.113-3.523,2.168-5.24.236-.384.465-.756.67-1.109a.308.308,0,0,1,.255-.153.316.316,0,0,1,.266.134l.173.251c1.12,1.629,2.812,4.09,2.741,6.038a3,3,0,0,1-3.108,2.963h-.028m-.012-8.506c-.138.229-.283.465-.43.7-1.008,1.64-2.151,3.5-2.078,4.884a2.4,2.4,0,0,0,2.521,2.3h.023a2.381,2.381,0,0,0,2.5-2.369c.061-1.692-1.462-3.961-2.533-5.521" transform="translate(-921.991 -878.909)" fill="#5b5a94"/>
          <path id="Path_901161" data-name="Path 901161" d="M1092.651,1237.162a3.5,3.5,0,0,1-1.956-6.4V1220.9a1.958,1.958,0,0,1,3.915,0v9.864a3.5,3.5,0,0,1-1.96,6.4m0-17.606a1.341,1.341,0,0,0-1.339,1.339v10.032a.308.308,0,0,1-.149.264,2.884,2.884,0,1,0,4.371,2.471,2.907,2.907,0,0,0-1.392-2.471.308.308,0,0,1-.148-.264V1220.9a1.344,1.344,0,0,0-1.343-1.339" transform="translate(-944.939 -1038.688)" fill="#5b5a94"/>
          <path id="Path_901162" data-name="Path 901162" d="M1139.719,1246.522a2.077,2.077,0,1,1,.547-4.073.308.308,0,1,1-.17.592,1.464,1.464,0,1,0,.1,2.781.308.308,0,0,1,.213.578,2,2,0,0,1-.693.122" transform="translate(-985.858 -1058.469)" fill="#5b5a94"/>
          <path id="Path_901163" data-name="Path 901163" d="M1129.478,1243.917a.772.772,0,1,1,.771-.772.773.773,0,0,1-.771.772m0-.927a.155.155,0,1,0,.155.155.155.155,0,0,0-.155-.155" transform="translate(-978.331 -1058.47)" fill="#5b5a94"/>
          <path id="Path_901164" data-name="Path 901164" d="M938.111,794.505h-9.86a.308.308,0,1,1,0-.616h9.86a.308.308,0,1,1,0,.616" transform="translate(-808.85 -679.87)" fill="#5b5a94"/>
          <path id="Path_901165" data-name="Path 901165" d="M938.111,1034.043h-9.86a.308.308,0,1,1,0-.617h9.86a.308.308,0,1,1,0,.617" transform="translate(-808.85 -882.082)" fill="#5b5a94"/>
          <path id="Path_901166" data-name="Path 901166" d="M938.111,1273.579h-9.86a.308.308,0,1,1,0-.617h9.86a.308.308,0,1,1,0,.617" transform="translate(-808.85 -1084.292)" fill="#5b5a94"/>
        </g>
      </g>
    </g>
  </g>
</svg>
