<svg xmlns="http://www.w3.org/2000/svg" xmlns:xlink="http://www.w3.org/1999/xlink" width="108.914" height="108.914" viewBox="0 0 108.914 108.914">
  <defs>
    <filter id="Path_874925" x="0" y="0" width="108.914" height="108.914" filterUnits="userSpaceOnUse">
      <feOffset dy="3" input="SourceAlpha"/>
      <feGaussianBlur stdDeviation="3" result="blur"/>
      <feFlood flood-opacity="0.161"/>
      <feComposite operator="in" in2="blur"/>
      <feComposite in="SourceGraphic"/>
    </filter>
  </defs>
  <g id="Group_1113546" data-name="Group 1113546" transform="translate(-429.385 -10371)">
    <g id="Group_1109835" data-name="Group 1109835" transform="translate(-370.115 8424.789)">
      <g id="Group_1107913" data-name="Group 1107913" transform="translate(808.5 1952.211)">
        <g transform="matrix(1, 0, 0, 1, -9, -6)" filter="url(#Path_874925)">
          <g id="Path_874925-2" data-name="Path 874925" transform="translate(9 6)" fill="#65a532" opacity="0.859">
            <path d="M 45.45676803588867 89.41407012939453 C 39.52198028564453 89.41407012939453 33.76551818847656 88.25206756591797 28.34726715087891 85.96034240722656 C 23.11311721801758 83.74648284912109 18.41204261779785 80.57682800292969 14.37464332580566 76.5394287109375 C 10.33724308013916 72.50202941894531 7.167593002319336 67.80095672607422 4.953730583190918 62.56679534912109 C 2.662005424499512 57.14855575561523 1.500005483627319 51.39208221435547 1.500005483627319 45.45729446411133 C 1.500005483627319 39.52198028564453 2.662005424499512 33.76551818847656 4.953730583190918 28.34726905822754 C 7.167593002319336 23.11310577392578 10.33724308013916 18.41203117370605 14.37464332580566 14.37464332580566 C 18.41204261779785 10.33724403381348 23.11311721801758 7.167593955993652 28.34726715087891 4.953731060028076 C 33.76551818847656 2.662006139755249 39.52198028564453 1.500006198883057 45.45676803588867 1.500006198883057 C 51.39155578613281 1.500006198883057 57.14802932739258 2.662006139755249 62.56626892089844 4.953731060028076 C 67.80043029785156 7.167593955993652 72.50150299072266 10.33724403381348 76.53890228271484 14.37464332580566 C 80.57630920410156 18.41203117370605 83.74595642089844 23.11310577392578 85.95981597900391 28.34726905822754 C 88.25154113769531 33.76551818847656 89.41354370117188 39.52198028564453 89.41354370117188 45.45676803588867 C 89.41354370117188 51.39208221435547 88.25154113769531 57.14855575561523 85.95981597900391 62.56679534912109 C 83.74595642089844 67.80095672607422 80.57630920410156 72.50202941894531 76.53890228271484 76.5394287109375 C 72.50150299072266 80.57682800292969 67.80043029785156 83.74648284912109 62.56626892089844 85.96034240722656 C 57.14802932739258 88.25206756591797 51.39155578613281 89.41407012939453 45.45676803588867 89.41407012939453 Z" stroke="none"/>
            <path d="M 45.45676803588867 3 C 39.72381210327148 3 34.1639404296875 4.12213134765625 28.93159484863281 6.335227966308594 C 23.87622833251953 8.473472595214844 19.33542633056641 11.53517150878906 15.43529510498047 15.435302734375 C 11.53517150878906 19.33543395996094 8.473464965820312 23.87622833251953 6.335227966308594 28.93160247802734 C 4.122123718261719 34.16394424438477 3 39.72381591796875 3 45.4572868347168 C 3 51.19024658203125 4.122123718261719 56.75011825561523 6.335227966308594 61.98246002197266 C 8.473464965820312 67.03782653808594 11.53517150878906 71.57862854003906 15.43529510498047 75.478759765625 C 19.33542633056641 79.37889099121094 23.87622833251953 82.44058990478516 28.93159484863281 84.57883453369141 C 34.1639404296875 86.79193115234375 39.72381210327148 87.9140625 45.45676803588867 87.9140625 C 51.18972396850586 87.9140625 56.74959564208984 86.79193115234375 61.98194122314453 84.57883453369141 C 67.03730773925781 82.44058990478516 71.57810974121094 79.37889099121094 75.47824096679688 75.478759765625 C 79.37837219238281 71.57862854003906 82.44007110595703 67.03782653808594 84.57830810546875 61.98246002197266 C 86.79141235351562 56.75011825561523 87.91353607177734 51.19024658203125 87.91353607177734 45.4567756652832 C 87.91353607177734 39.72381591796875 86.79141235351562 34.16394424438477 84.57830810546875 28.93160247802734 C 82.44007110595703 23.87622833251953 79.37837219238281 19.33543395996094 75.47824096679688 15.435302734375 C 71.57810974121094 11.53517150878906 67.03730773925781 8.473472595214844 61.98194122314453 6.335227966308594 C 56.74959564208984 4.12213134765625 51.18972396850586 3 45.45676803588867 3 M 45.45676803588867 0 C 70.56185150146484 0 90.91353607177734 20.35169219970703 90.91353607177734 45.4567756652832 L 90.91353607177734 45.4572868347168 C 90.91353607177734 70.5623779296875 70.56185150146484 90.9140625 45.45676803588867 90.9140625 C 20.3516845703125 90.9140625 0 70.5623779296875 0 45.4572868347168 L 0 45.4567756652832 C 0 20.35169219970703 20.3516845703125 0 45.45676803588867 0 Z" stroke="none" fill="#fff"/>
          </g>
        </g>
        <g id="Path_874923" data-name="Path 874923" transform="translate(0 0)" fill="none">
          <path d="M45.457,0A45.457,45.457,0,0,1,90.914,45.457h0A45.457,45.457,0,0,1,0,45.457H0A45.457,45.457,0,0,1,45.457,0Z" stroke="none"/>
          <path d="M 45.45676803588867 3 C 39.72381210327148 3 34.1639404296875 4.12213134765625 28.93159484863281 6.335227966308594 C 23.87622833251953 8.473472595214844 19.33542633056641 11.53517150878906 15.43529510498047 15.435302734375 C 11.53517150878906 19.33543395996094 8.473464965820312 23.87622833251953 6.335227966308594 28.93160247802734 C 4.122123718261719 34.16394424438477 3 39.72381591796875 3 45.4572868347168 C 3 51.19024658203125 4.122123718261719 56.75011825561523 6.335227966308594 61.98246002197266 C 8.473464965820312 67.03782653808594 11.53517150878906 71.57862854003906 15.43529510498047 75.478759765625 C 19.33542633056641 79.37889099121094 23.87622833251953 82.44058990478516 28.93159484863281 84.57883453369141 C 34.1639404296875 86.79193115234375 39.72381210327148 87.9140625 45.45676803588867 87.9140625 C 51.18972396850586 87.9140625 56.74959564208984 86.79193115234375 61.98194122314453 84.57883453369141 C 67.03730773925781 82.44058990478516 71.57810974121094 79.37889099121094 75.47824096679688 75.478759765625 C 79.37837219238281 71.57862854003906 82.44007110595703 67.03782653808594 84.57830810546875 61.98246002197266 C 86.79141235351562 56.75011825561523 87.91353607177734 51.19024658203125 87.91353607177734 45.4567756652832 C 87.91353607177734 39.72381591796875 86.79141235351562 34.16394424438477 84.57830810546875 28.93160247802734 C 82.44007110595703 23.87622833251953 79.37837219238281 19.33543395996094 75.47824096679688 15.435302734375 C 71.57810974121094 11.53517150878906 67.03730773925781 8.473472595214844 61.98194122314453 6.335227966308594 C 56.74959564208984 4.12213134765625 51.18972396850586 3 45.45676803588867 3 M 45.45676803588867 0 C 70.56185150146484 0 90.91353607177734 20.35169219970703 90.91353607177734 45.4567756652832 L 90.91353607177734 45.4572868347168 C 90.91353607177734 70.5623779296875 70.56185150146484 90.9140625 45.45676803588867 90.9140625 C 20.3516845703125 90.9140625 0 70.5623779296875 0 45.4572868347168 L 0 45.4567756652832 C 0 20.35169219970703 20.3516845703125 0 45.45676803588867 0 Z" stroke="none" fill="#fff"/>
        </g>
      </g>
    </g>
    <g id="Group_1113545" data-name="Group 1113545" transform="translate(455.384 10382.027)">
      <g id="Group_1113544" data-name="Group 1113544" transform="translate(0.828 14.801)">
        <path id="Path_904320" data-name="Path 904320" d="M276.283,80.284l1.422-2.315a7.633,7.633,0,0,1,13.314.549l6.24,12.329H274.269V87.411A13.612,13.612,0,0,1,276.283,80.284Z" transform="translate(-244.824 -68.498)" fill="#009356"/>
        <path id="Path_904321" data-name="Path 904321" d="M357.739,78.522a7.611,7.611,0,0,0-8.473-4.007,7.527,7.527,0,0,1,5.162,4.007l6.24,12.329h3.311Z" transform="translate(-311.543 -68.502)" fill="#007d45"/>
        <path id="Path_904322" data-name="Path 904322" d="M40.784,30.558a1.455,1.455,0,0,1-2.613-.04l-3.253-6.9a3.735,3.735,0,0,0-6.708-.1L16.837,45.856H54.655l-7.163-15.2a3.736,3.736,0,0,0-6.708-.1Z" transform="translate(-15.806 -21.473)" fill="#aff297"/>
        <path id="Path_904323" data-name="Path 904323" d="M40.784,30.558a1.455,1.455,0,0,1-2.613-.04l-3.253-6.9a3.735,3.735,0,0,0-6.708-.1L16.837,45.856H54.655l-7.163-15.2a3.736,3.736,0,0,0-6.708-.1Z" transform="translate(-15.806 -21.473)" fill="#aff297"/>
        <path id="Path_904324" data-name="Path 904324" d="M262.286,100.628h3.291L259.361,87.44a3.723,3.723,0,0,0-4.368-2.012,3.821,3.821,0,0,1,.5.8Z" transform="translate(-227.676 -78.254)" fill="#8ded74"/>
        <path id="Path_904325" data-name="Path 904325" d="M61.026,286.3H8.623A1.123,1.123,0,0,1,7.5,285.177V261.2H62.148v23.981A1.123,1.123,0,0,1,61.026,286.3Z" transform="translate(-7.5 -234.736)" fill="#ffc861"/>
        <path id="Path_904326" data-name="Path 904326" d="M61.026,286.3H8.623A1.123,1.123,0,0,1,7.5,285.177V261.2H62.148v23.981A1.123,1.123,0,0,1,61.026,286.3Z" transform="translate(-7.5 -234.736)" fill="#ffc861"/>
        <path id="Path_904327" data-name="Path 904327" d="M58.837,261.2V281.2a1.123,1.123,0,0,1-1.123,1.123H7.5v2.851A1.123,1.123,0,0,0,8.623,286.3h52.4a1.123,1.123,0,0,0,1.123-1.123V261.2Z" transform="translate(-7.5 -234.736)" fill="#ffb959"/>
        <path id="Path_904328" data-name="Path 904328" d="M62.148,227.71H7.5V225.1a1.542,1.542,0,0,1,1.542-1.542H60.606a1.542,1.542,0,0,1,1.542,1.542Z" transform="translate(-7.5 -201.25)" fill="#00c190"/>
        <path id="Path_904329" data-name="Path 904329" d="M461.947,223.555h-3.311a1.542,1.542,0,0,1,1.542,1.542v2.612h3.311V225.1A1.542,1.542,0,0,0,461.947,223.555Z" transform="translate(-408.841 -201.25)" fill="#00b67b"/>
        <path id="Path_904330" data-name="Path 904330" d="M105.1,261.2v5.044a2.6,2.6,0,0,1-.136.83l-.39,1.154a2.592,2.592,0,0,1-2.179,1.748l-5.855.628a2.593,2.593,0,0,0-2.219,1.877l-.592,2.112a1.082,1.082,0,0,1-1.042.79h-.944a1.082,1.082,0,0,1-1.055-.84l-.851-3.7a1.794,1.794,0,0,1,.191-1.292l1.122-1.963a1.794,1.794,0,0,0,.061-1.663L88.957,261.2h-4.6l2.528,4.557a1.794,1.794,0,0,1-.022,1.779l-.624,1.061a1.794,1.794,0,0,0-.2,1.337l1.009,4.109A1.082,1.082,0,0,1,86,275.379H83.289a1.082,1.082,0,0,1-1.042-.79l-.593-2.112a2.592,2.592,0,0,0-2.219-1.877l-5.855-.628a2.592,2.592,0,0,1-2.179-1.748l-.39-1.154a2.594,2.594,0,0,1-.136-.829V261.2h-3.5v6.83a2.59,2.59,0,0,0,.11.747l.861,2.86a2.592,2.592,0,0,0,2.229,1.832l5.318.521a2.592,2.592,0,0,1,2.339,2.58,4.682,4.682,0,0,0,2.941,4.347,18.315,18.315,0,0,0,13.625,0,4.682,4.682,0,0,0,2.941-4.347,2.592,2.592,0,0,1,2.339-2.58l5.318-.521a2.592,2.592,0,0,0,2.229-1.832l.861-2.86a2.591,2.591,0,0,0,.11-.748V261.2h-3.5Z" transform="translate(-60.769 -234.736)" fill="#00d2fe"/>
        <g id="Group_1113543" data-name="Group 1113543" transform="translate(0.828 6.662)">
          <path id="Path_904331" data-name="Path 904331" d="M37.75,233.553H67.993v-1.785a.715.715,0,0,0-.715-.715H15.715a.715.715,0,0,0-.715.715v1.785Z" transform="translate(-15 -214.584)" fill="none"/>
          <path id="Path_904332" data-name="Path 904332" d="M75.815,278.067a1.758,1.758,0,0,0,1.517,1.247l5.318.521a3.408,3.408,0,0,1,3.086,3.4,3.837,3.837,0,0,0,2.421,3.578,17.41,17.41,0,0,0,13.009,0,3.837,3.837,0,0,0,2.421-3.578,3.408,3.408,0,0,1,3.086-3.4l5.318-.521a1.758,1.758,0,0,0,1.517-1.247l.861-2.86a1.764,1.764,0,0,0,.075-.509v-6H112.6v4.216a.828.828,0,0,1-1.656,0V268.7H96.942l1.691,3.542a2.622,2.622,0,0,1-.09,2.431l-1.122,1.963a.964.964,0,0,0-.1.7l.851,3.7a.253.253,0,0,0,.248.2h.944a.255.255,0,0,0,.245-.186l.593-2.112a3.4,3.4,0,0,1,2.928-2.477l5.141-.552a.828.828,0,1,1,.177,1.646l-5.142.552a1.756,1.756,0,0,0-1.511,1.278l-.593,2.112a1.916,1.916,0,0,1-1.839,1.394h-.944a1.9,1.9,0,0,1-1.862-1.482l-.851-3.7a2.614,2.614,0,0,1,.279-1.889l1.122-1.963a.966.966,0,0,0,.033-.9L95.108,268.7h-2.67l1.846,3.327a2.632,2.632,0,0,1-.032,2.6l-.624,1.061a.961.961,0,0,0-.105.72l1.009,4.109a1.91,1.91,0,0,1-1.855,2.366H89.962a1.917,1.917,0,0,1-1.839-1.394l-.592-2.112a1.756,1.756,0,0,0-1.511-1.278l-5.855-.628a3.43,3.43,0,0,1-2.875-2.306l-.39-1.154a3.413,3.413,0,0,1-.18-1.094V268.7H74.879v6a1.765,1.765,0,0,0,.075.509Z" transform="translate(-68.27 -248.071)" fill="none"/>
          <path id="Path_904333" data-name="Path 904333" d="M320.718,85.564a6.805,6.805,0,0,0-11.869-.487l-.366.6,5.223,10.977h12.573Z" transform="translate(-276.09 -81.834)" fill="none"/>
          <path id="Path_904334" data-name="Path 904334" d="M65.957,286.517a2.027,2.027,0,0,1-2.092.493l-.948-.326a.363.363,0,0,0-.457.219l-1,2.764A.828.828,0,1,1,59.9,289.1l1-2.764a2.025,2.025,0,0,1,2.552-1.222l.948.326a.363.363,0,0,0,.375-.088l3.215-3.267V275.56a2.709,2.709,0,0,0-1.207,1.007l-1.094,1.664a.828.828,0,1,1-1.383-.91l1.094-1.664a4.358,4.358,0,0,1,1.989-1.641l.509-.21a.853.853,0,0,1,.092-.031v-5.08H62.83v6a3.418,3.418,0,0,1-.145.986l-.861,2.86a3.409,3.409,0,0,1-2.941,2.417l-5.318.521a1.758,1.758,0,0,0-1.592,1.756,5.485,5.485,0,0,1-3.461,5.115,19.06,19.06,0,0,1-14.241,0,5.485,5.485,0,0,1-3.461-5.115,1.758,1.758,0,0,0-1.592-1.756L23.9,280.96a3.409,3.409,0,0,1-2.941-2.417l-.861-2.86a3.417,3.417,0,0,1-.145-.986v-6H15v11.484l1.211-.466a2.04,2.04,0,0,1,2.436.793l.972,1.5a.828.828,0,1,1-1.39.9l-.972-1.5a.378.378,0,0,0-.451-.147l-1.806.7v9.895a.3.3,0,0,0,.295.295h7.923l.9-.881a.334.334,0,0,0,.074-.37l-.951-2.26a.828.828,0,1,1,1.526-.642l.951,2.26a1.979,1.979,0,0,1-.19,1.893H67.7a.3.3,0,0,0,.295-.295v-7.4Z" transform="translate(-15 -248.07)" fill="none"/>
          <path id="Path_904335" data-name="Path 904335" d="M106.649,273.475l.39,1.154a1.77,1.77,0,0,0,1.483,1.19l5.855.628a3.4,3.4,0,0,1,2.928,2.477l.592,2.112a.255.255,0,0,0,.245.186h2.715a.255.255,0,0,0,.247-.315L120.1,276.8a2.607,2.607,0,0,1,.286-1.954l.623-1.061a.97.97,0,0,0,.012-.958l-2.291-4.13H106.556v4.216A1.763,1.763,0,0,0,106.649,273.475Z" transform="translate(-96.45 -248.069)" fill="none"/>
        </g>
      </g>
      <path id="Path_904336" data-name="Path 904336" d="M53.934,36.278H53.7l-5.935-11.83a8.46,8.46,0,0,0-14.556-.921,4.53,4.53,0,0,0-4-2.51h-.072a4.532,4.532,0,0,0-4.064,2.493.628.628,0,0,1-1.127-.017l-3.253-6.9a4.533,4.533,0,0,0-4.058-2.617h-.072a4.535,4.535,0,0,0-4.067,2.5L4.666,32.137a.828.828,0,1,0,1.481.74l7.821-15.659a2.851,2.851,0,0,1,2.587-1.589H16.6A2.852,2.852,0,0,1,19.19,17.3l3.253,6.9a2.268,2.268,0,0,0,2.031,1.31h.036a2.268,2.268,0,0,0,2.033-1.247,2.851,2.851,0,0,1,2.587-1.589h.048a2.852,2.852,0,0,1,2.586,1.668l.6,1.263h0l5.077,10.672H2.37A2.373,2.373,0,0,0,0,38.648V65.242a1.953,1.953,0,0,0,1.951,1.951h52.4a1.953,1.953,0,0,0,1.95-1.951V38.648a2.373,2.373,0,0,0-2.37-2.37ZM34.049,25.3l.366-.6a6.805,6.805,0,0,1,11.869.487l5.561,11.085H39.272ZM1.656,38.648a.715.715,0,0,1,.715-.715H53.934a.715.715,0,0,1,.715.715v1.785H1.656Zm6.609,3.44h1.841V46.3a3.412,3.412,0,0,0,.18,1.094l.39,1.154a3.431,3.431,0,0,0,2.875,2.306l5.855.628a1.756,1.756,0,0,1,1.511,1.278l.592,2.112a1.917,1.917,0,0,0,1.839,1.394h2.715a1.91,1.91,0,0,0,1.855-2.366L26.908,49.8a.961.961,0,0,1,.105-.72l.624-1.061a2.632,2.632,0,0,0,.032-2.6l-1.846-3.327h2.67l2.032,4.255a.966.966,0,0,1-.033.9L29.371,49.2a2.613,2.613,0,0,0-.279,1.889l.851,3.7A1.9,1.9,0,0,0,31.8,56.271h.944a1.916,1.916,0,0,0,1.839-1.394l.593-2.112a1.756,1.756,0,0,1,1.511-1.278l5.142-.552a.828.828,0,1,0-.177-1.646l-5.141.552a3.4,3.4,0,0,0-2.928,2.477l-.593,2.112a.255.255,0,0,1-.245.186H31.8a.253.253,0,0,1-.248-.2l-.851-3.7a.964.964,0,0,1,.1-.7L31.93,48.06a2.622,2.622,0,0,0,.09-2.431l-1.691-3.542H44.334V46.3a.828.828,0,1,0,1.656,0V42.088h1.841v6a1.763,1.763,0,0,1-.075.509l-.861,2.86a1.759,1.759,0,0,1-1.517,1.247l-5.318.521a3.408,3.408,0,0,0-3.086,3.4,3.837,3.837,0,0,1-2.421,3.578,17.41,17.41,0,0,1-13.009,0,3.837,3.837,0,0,1-2.421-3.578,3.408,3.408,0,0,0-3.086-3.4l-5.318-.521A1.758,1.758,0,0,1,9.2,51.459L8.34,48.6a1.765,1.765,0,0,1-.075-.509v-6Zm15.666,0,2.291,4.131a.97.97,0,0,1-.012.958l-.623,1.061a2.607,2.607,0,0,0-.286,1.954L26.31,54.3a.255.255,0,0,1-.247.315H23.348a.255.255,0,0,1-.245-.186l-.593-2.112a3.4,3.4,0,0,0-2.928-2.477l-5.855-.628a1.77,1.77,0,0,1-1.483-1.19l-.39-1.154a1.763,1.763,0,0,1-.093-.564V42.089H23.931ZM54.354,65.537H12.179a1.979,1.979,0,0,0,.19-1.893l-.951-2.26a.828.828,0,1,0-1.526.642l.951,2.26a.334.334,0,0,1-.074.37l-.9.881H1.95a.3.3,0,0,1-.295-.295V55.347l1.806-.7a.378.378,0,0,1,.451.147l.972,1.5a.828.828,0,1,0,1.39-.9L5.3,53.9a2.04,2.04,0,0,0-2.436-.793l-1.211.466V42.088H6.609v6a3.419,3.419,0,0,0,.145.986l.861,2.86a3.409,3.409,0,0,0,2.941,2.417l5.318.521a1.758,1.758,0,0,1,1.592,1.756,5.485,5.485,0,0,0,3.461,5.115,19.059,19.059,0,0,0,14.241,0,5.485,5.485,0,0,0,3.461-5.115,1.758,1.758,0,0,1,1.592-1.756l5.318-.521a3.409,3.409,0,0,0,2.941-2.417l.861-2.86a3.417,3.417,0,0,0,.145-.986v-6h5.162v5.08a.817.817,0,0,0-.092.031l-.509.209a4.358,4.358,0,0,0-1.989,1.641l-1.094,1.664a.828.828,0,1,0,1.383.91l1.094-1.664a2.708,2.708,0,0,1,1.207-1.007v6.528l-3.215,3.267a.363.363,0,0,1-.375.088l-.948-.326a2.025,2.025,0,0,0-2.552,1.222l-1,2.764a.828.828,0,1,0,1.557.562l1-2.764a.363.363,0,0,1,.457-.219l.948.326a2.027,2.027,0,0,0,2.092-.493l2.035-2.068v7.4a.3.3,0,0,1-.3.295Z" transform="translate(0 0)"/>
    </g>
  </g>
</svg>
