<svg xmlns="http://www.w3.org/2000/svg" xmlns:xlink="http://www.w3.org/1999/xlink" width="108.914" height="108.914" viewBox="0 0 108.914 108.914">
  <defs>
    <filter id="Path_874925" x="0" y="0" width="108.914" height="108.914" filterUnits="userSpaceOnUse">
      <feOffset dy="3" input="SourceAlpha"/>
      <feGaussianBlur stdDeviation="3" result="blur"/>
      <feFlood flood-opacity="0.161"/>
      <feComposite operator="in" in2="blur"/>
      <feComposite in="SourceGraphic"/>
    </filter>
  </defs>
  <g id="Group_1113580" data-name="Group 1113580" transform="translate(603.999 1235.036)">
    <g id="Group_1109835" data-name="Group 1109835" transform="translate(-1403.5 -3181.247)">
      <g id="Group_1107913" data-name="Group 1107913" transform="translate(808.5 1952.211)">
        <g transform="matrix(1, 0, 0, 1, -9, -6)" filter="url(#Path_874925)">
          <g id="Path_874925-2" data-name="Path 874925" transform="translate(9 6)" fill="#65a532" opacity="0.859">
            <path d="M 45.45676803588867 89.41407012939453 C 39.52198028564453 89.41407012939453 33.76551818847656 88.25206756591797 28.34726715087891 85.96034240722656 C 23.11311721801758 83.74648284912109 18.41204261779785 80.57682800292969 14.37464332580566 76.5394287109375 C 10.33724308013916 72.50202941894531 7.167593002319336 67.80095672607422 4.953730583190918 62.56679534912109 C 2.662005424499512 57.14855575561523 1.500005483627319 51.39208221435547 1.500005483627319 45.45729446411133 C 1.500005483627319 39.52198028564453 2.662005424499512 33.76551818847656 4.953730583190918 28.34726905822754 C 7.167593002319336 23.11310577392578 10.33724308013916 18.41203117370605 14.37464332580566 14.37464332580566 C 18.41204261779785 10.33724403381348 23.11311721801758 7.167593955993652 28.34726715087891 4.953731060028076 C 33.76551818847656 2.662006139755249 39.52198028564453 1.500006198883057 45.45676803588867 1.500006198883057 C 51.39155578613281 1.500006198883057 57.14802932739258 2.662006139755249 62.56626892089844 4.953731060028076 C 67.80043029785156 7.167593955993652 72.50150299072266 10.33724403381348 76.53890228271484 14.37464332580566 C 80.57630920410156 18.41203117370605 83.74595642089844 23.11310577392578 85.95981597900391 28.34726905822754 C 88.25154113769531 33.76551818847656 89.41354370117188 39.52198028564453 89.41354370117188 45.45676803588867 C 89.41354370117188 51.39208221435547 88.25154113769531 57.14855575561523 85.95981597900391 62.56679534912109 C 83.74595642089844 67.80095672607422 80.57630920410156 72.50202941894531 76.53890228271484 76.5394287109375 C 72.50150299072266 80.57682800292969 67.80043029785156 83.74648284912109 62.56626892089844 85.96034240722656 C 57.14802932739258 88.25206756591797 51.39155578613281 89.41407012939453 45.45676803588867 89.41407012939453 Z" stroke="none"/>
            <path d="M 45.45676803588867 3 C 39.72381210327148 3 34.1639404296875 4.12213134765625 28.93159484863281 6.335227966308594 C 23.87622833251953 8.473472595214844 19.33542633056641 11.53517150878906 15.43529510498047 15.435302734375 C 11.53517150878906 19.33543395996094 8.473464965820312 23.87622833251953 6.335227966308594 28.93160247802734 C 4.122123718261719 34.16394424438477 3 39.72381591796875 3 45.4572868347168 C 3 51.19024658203125 4.122123718261719 56.75011825561523 6.335227966308594 61.98246002197266 C 8.473464965820312 67.03782653808594 11.53517150878906 71.57862854003906 15.43529510498047 75.478759765625 C 19.33542633056641 79.37889099121094 23.87622833251953 82.44058990478516 28.93159484863281 84.57883453369141 C 34.1639404296875 86.79193115234375 39.72381210327148 87.9140625 45.45676803588867 87.9140625 C 51.18972396850586 87.9140625 56.74959564208984 86.79193115234375 61.98194122314453 84.57883453369141 C 67.03730773925781 82.44058990478516 71.57810974121094 79.37889099121094 75.47824096679688 75.478759765625 C 79.37837219238281 71.57862854003906 82.44007110595703 67.03782653808594 84.57830810546875 61.98246002197266 C 86.79141235351562 56.75011825561523 87.91353607177734 51.19024658203125 87.91353607177734 45.4567756652832 C 87.91353607177734 39.72381591796875 86.79141235351562 34.16394424438477 84.57830810546875 28.93160247802734 C 82.44007110595703 23.87622833251953 79.37837219238281 19.33543395996094 75.47824096679688 15.435302734375 C 71.57810974121094 11.53517150878906 67.03730773925781 8.473472595214844 61.98194122314453 6.335227966308594 C 56.74959564208984 4.12213134765625 51.18972396850586 3 45.45676803588867 3 M 45.45676803588867 0 C 70.56185150146484 0 90.91353607177734 20.35169219970703 90.91353607177734 45.4567756652832 L 90.91353607177734 45.4572868347168 C 90.91353607177734 70.5623779296875 70.56185150146484 90.9140625 45.45676803588867 90.9140625 C 20.3516845703125 90.9140625 0 70.5623779296875 0 45.4572868347168 L 0 45.4567756652832 C 0 20.35169219970703 20.3516845703125 0 45.45676803588867 0 Z" stroke="none" fill="#fff"/>
          </g>
        </g>
        <g id="Path_874923" data-name="Path 874923" transform="translate(0 0)" fill="none">
          <path d="M45.457,0A45.457,45.457,0,0,1,90.914,45.457h0A45.457,45.457,0,0,1,0,45.457H0A45.457,45.457,0,0,1,45.457,0Z" stroke="none"/>
          <path d="M 45.45676803588867 3 C 39.72381210327148 3 34.1639404296875 4.12213134765625 28.93159484863281 6.335227966308594 C 23.87622833251953 8.473472595214844 19.33542633056641 11.53517150878906 15.43529510498047 15.435302734375 C 11.53517150878906 19.33543395996094 8.473464965820312 23.87622833251953 6.335227966308594 28.93160247802734 C 4.122123718261719 34.16394424438477 3 39.72381591796875 3 45.4572868347168 C 3 51.19024658203125 4.122123718261719 56.75011825561523 6.335227966308594 61.98246002197266 C 8.473464965820312 67.03782653808594 11.53517150878906 71.57862854003906 15.43529510498047 75.478759765625 C 19.33542633056641 79.37889099121094 23.87622833251953 82.44058990478516 28.93159484863281 84.57883453369141 C 34.1639404296875 86.79193115234375 39.72381210327148 87.9140625 45.45676803588867 87.9140625 C 51.18972396850586 87.9140625 56.74959564208984 86.79193115234375 61.98194122314453 84.57883453369141 C 67.03730773925781 82.44058990478516 71.57810974121094 79.37889099121094 75.47824096679688 75.478759765625 C 79.37837219238281 71.57862854003906 82.44007110595703 67.03782653808594 84.57830810546875 61.98246002197266 C 86.79141235351562 56.75011825561523 87.91353607177734 51.19024658203125 87.91353607177734 45.4567756652832 C 87.91353607177734 39.72381591796875 86.79141235351562 34.16394424438477 84.57830810546875 28.93160247802734 C 82.44007110595703 23.87622833251953 79.37837219238281 19.33543395996094 75.47824096679688 15.435302734375 C 71.57810974121094 11.53517150878906 67.03730773925781 8.473472595214844 61.98194122314453 6.335227966308594 C 56.74959564208984 4.12213134765625 51.18972396850586 3 45.45676803588867 3 M 45.45676803588867 0 C 70.56185150146484 0 90.91353607177734 20.35169219970703 90.91353607177734 45.4567756652832 L 90.91353607177734 45.4572868347168 C 90.91353607177734 70.5623779296875 70.56185150146484 90.9140625 45.45676803588867 90.9140625 C 20.3516845703125 90.9140625 0 70.5623779296875 0 45.4572868347168 L 0 45.4567756652832 C 0 20.35169219970703 20.3516845703125 0 45.45676803588867 0 Z" stroke="none" fill="#fff"/>
        </g>
      </g>
    </g>
    <g id="Group_1113579" data-name="Group 1113579" transform="translate(-630.9 -1209.211)">
      <g id="Group_1113578" data-name="Group 1113578" transform="translate(63.651 0.75)">
        <path id="Path_904369" data-name="Path 904369" d="M100.674,7.5H98.4a1.5,1.5,0,0,0-1.488,1.7l1.14,8.368a1.5,1.5,0,0,1-1.488,1.7h-15a1.5,1.5,0,0,1-1.494-1.656l.876-8.465A1.5,1.5,0,0,0,79.457,7.5H77.192A1.5,1.5,0,0,0,75.7,8.848L71.37,50.684l-.216,2.091L93.086,40.857l10.632-20.645L102.162,8.8a1.5,1.5,0,0,0-1.488-1.3Z" transform="translate(-71.078 -7.501)" fill="#9dc6fb"/>
        <path id="Path_904370" data-name="Path 904370" d="M103.038,134.443,70.474,167.007l-.056.543a3.579,3.579,0,0,0,3.56,3.947h30.01a3.579,3.579,0,0,0,3.545-4.068Z" transform="translate(-70.399 -121.732)" fill="#9dc6fb"/>
        <path id="Path_904371" data-name="Path 904371" d="M352,8.8a1.5,1.5,0,0,0-1.488-1.3h-1.721l1.382,10.14h0l.985,7.226,2.4-4.655L352,8.8Z" transform="translate(-320.92 -7.501)" fill="#9dc6fb"/>
      </g>
      <path id="Path_904372" data-name="Path 904372" d="M103.451,134.443l-2.668,2.668,4.187,30.728a.575.575,0,0,1-.569.653H70.858a3.58,3.58,0,0,0,3.533,3H104.4a3.579,3.579,0,0,0,3.545-4.068Z" transform="translate(-7.161 -120.982)" fill="#80b4fb"/>
      <path id="Path_904373" data-name="Path 904373" d="M101.528,46.347v0a.752.752,0,0,0-.743-.649.7.7,0,0,0-.1.007.75.75,0,0,0-.643.845h0a2.913,2.913,0,0,1,.027.394,2.829,2.829,0,0,1-2.828,2.821H67.229A2.827,2.827,0,0,1,64.4,46.941c0-.1.005-.2.015-.3l.056-.544C65,41.017,68.338,8.746,68.986,2.481c.011-.111.022-.213.032-.307a.747.747,0,0,1,.746-.673h2.265a.753.753,0,0,1,.752.748.735.735,0,0,1-.005.081L71.9,10.79h0a2.311,2.311,0,0,0-.012.237,2.255,2.255,0,0,0,2.253,2.251h15a2.253,2.253,0,0,0,2.253-2.251,2.364,2.364,0,0,0-.02-.306l-1.14-8.368v0a.829.829,0,0,1-.007-.1.753.753,0,0,1,.752-.748h2.274a.754.754,0,0,1,.744.65l5.644,41.42a.753.753,0,0,0,.743.65.714.714,0,0,0,.1-.007.751.751,0,0,0,.643-.845L95.479,1.948A2.254,2.254,0,0,0,93.247,0H90.973a2.249,2.249,0,0,0-2.232,2.556h0l1.139,8.368a.724.724,0,0,1,.007.1.753.753,0,0,1-.751.749h-15a.753.753,0,0,1-.751-.749.594.594,0,0,1,0-.076l.876-8.469c.007-.076.011-.154.011-.234A2.251,2.251,0,0,0,72.029,0H69.764A2.254,2.254,0,0,0,67.523,2.02c-.008.086-.018.178-.028.278l0,.029c-.649,6.265-3.987,38.535-4.513,43.62l-.056.543c-.015.151-.023.3-.023.452a4.287,4.287,0,0,0,.336,1.671,4.336,4.336,0,0,0,3.993,2.652H97.24a4.328,4.328,0,0,0,4.329-4.322,4.385,4.385,0,0,0-.041-.6Z"/>
    </g>
  </g>
</svg>
