<svg xmlns="http://www.w3.org/2000/svg" xmlns:xlink="http://www.w3.org/1999/xlink" width="108" height="108" viewBox="0 0 108 108">
  <defs>
    <filter id="Path_896985" x="0" y="0" width="108" height="108" filterUnits="userSpaceOnUse">
      <feOffset dy="3" input="SourceAlpha"/>
      <feGaussianBlur stdDeviation="3" result="blur"/>
      <feFlood flood-opacity="0.161"/>
      <feComposite operator="in" in2="blur"/>
      <feComposite in="SourceGraphic"/>
    </filter>
  </defs>
  <g id="Group_1113098" data-name="Group 1113098" transform="translate(-836.667 -4113)">
    <g id="Group_1111419" data-name="Group 1111419" transform="translate(504.886 267)">
      <g id="Group_1098742" data-name="Group 1098742" transform="translate(-862.539 3463.258)">
        <g transform="matrix(1, 0, 0, 1, 1194.32, 382.74)" filter="url(#Path_896985)">
          <g id="Path_896985-2" data-name="Path 896985" transform="translate(9 6)" fill="#f3d82a" opacity="0.859">
            <path d="M 44.99993896484375 88.5 C 39.12682723999023 88.5 33.4301872253418 87.35007476806641 28.06826400756836 85.08217620849609 C 22.88850212097168 82.89132690429688 18.23627662658691 79.75461578369141 14.2408390045166 75.75916290283203 C 10.24540138244629 71.76372528076172 7.108676433563232 67.11151123046875 4.917826652526855 61.9317512512207 C 2.649926424026489 56.56982421875 1.500001430511475 50.87317657470703 1.500001430511475 45.00006103515625 C 1.500001430511475 39.12682342529297 2.649926424026489 33.4301872253418 4.917826652526855 28.06826210021973 C 7.108676433563232 22.88850021362305 10.24540138244629 18.23628807067871 14.2408390045166 14.24083709716797 C 18.23628807067871 10.24540042877197 22.88850212097168 7.108675003051758 28.06826400756836 4.917825222015381 C 33.4301872253418 2.649924993515015 39.12682723999023 1.5 44.99993896484375 1.5 C 50.87305068969727 1.5 56.5697021484375 2.649924993515015 61.93162536621094 4.917825222015381 C 67.11138916015625 7.108675003051758 71.76360321044922 10.24540042877197 75.75904083251953 14.24083709716797 C 79.75448608398438 18.23627471923828 82.89120483398438 22.88850021362305 85.08205413818359 28.06826210021973 C 87.34995269775391 33.4301872253418 88.4998779296875 39.12682342529297 88.4998779296875 44.99993896484375 C 88.4998779296875 50.87317657470703 87.34995269775391 56.56982421875 85.08205413818359 61.9317512512207 C 82.89120483398438 67.11151123046875 79.75448608398438 71.76372528076172 75.75904083251953 75.75916290283203 C 71.76360321044922 79.75461578369141 67.11138916015625 82.89132690429688 61.93162536621094 85.08217620849609 C 56.5697021484375 87.35007476806641 50.87305068969727 88.5 44.99993896484375 88.5 Z" stroke="none"/>
            <path d="M 44.99993896484375 3 C 39.32865142822266 3 33.82860946655273 4.110054016113281 28.65258026123047 6.299331665039062 C 23.65162658691406 8.414558410644531 19.15966796875 11.44332885742188 15.30149841308594 15.30149841308594 C 11.44332122802734 19.15966796875 8.41455078125 23.65162658691406 6.299324035644531 28.65258407592773 C 4.110054016113281 33.82861328125 2.999992370605469 39.32865524291992 2.999992370605469 45.00005722045898 C 2.999992370605469 50.67134475708008 4.110054016113281 56.17138671875 6.299324035644531 61.347412109375 C 8.41455078125 66.34837341308594 11.44332122802734 70.84033203125 15.30149841308594 74.69850158691406 C 19.15966796875 78.55667114257812 23.65162658691406 81.58544158935547 28.65258026123047 83.70066833496094 C 33.82860946655273 85.88994598388672 39.32865142822266 87 44.99993896484375 87 C 50.67122650146484 87 56.17126846313477 85.88994598388672 61.34729766845703 83.70066833496094 C 66.34825134277344 81.58544158935547 70.8402099609375 78.55667114257812 74.69837951660156 74.69850158691406 C 78.55654907226562 70.84033203125 81.5853271484375 66.34837341308594 83.70055389404297 61.347412109375 C 85.88982391357422 56.17138671875 86.9998779296875 50.67134475708008 86.9998779296875 44.99994277954102 C 86.9998779296875 39.32865524291992 85.88982391357422 33.82861328125 83.70055389404297 28.65258407592773 C 81.5853271484375 23.65162658691406 78.55654907226562 19.15966796875 74.69837951660156 15.30149841308594 C 70.8402099609375 11.44332885742188 66.34825134277344 8.414558410644531 61.34729766845703 6.299331665039062 C 56.17126846313477 4.110054016113281 50.67122650146484 3 44.99993896484375 3 M 44.99993896484375 0 C 69.85272216796875 0 89.99988555908203 20.14715576171875 89.99988555908203 44.99994277954102 L 89.99988555908203 45.00005722045898 C 89.99988555908203 69.85284423828125 69.85272216796875 90 44.99993896484375 90 C 20.14715576171875 90 -7.62939453125e-06 69.85284423828125 -7.62939453125e-06 45.00005722045898 L -7.62939453125e-06 44.99994277954102 C -7.62939453125e-06 20.14715576171875 20.14715576171875 0 44.99993896484375 0 Z" stroke="none" fill="#fff"/>
          </g>
        </g>
        <g id="Rectangle_400907" data-name="Rectangle 400907" transform="translate(1203.32 388.742)" fill="none" stroke="#fff" stroke-width="3">
          <rect width="90" height="90" rx="45" stroke="none"/>
          <rect x="1.5" y="1.5" width="87" height="87" rx="43.5" fill="none"/>
        </g>
      </g>
    </g>
    <g id="Group_1113097" data-name="Group 1113097" transform="translate(860.667 4134)">
      <circle id="Ellipse_11788" data-name="Ellipse 11788" cx="28" cy="28" r="28" transform="translate(4 4)" fill="#99aece"/>
      <circle id="Ellipse_11789" data-name="Ellipse 11789" cx="21" cy="21" r="21" transform="translate(11 11)" fill="#cd1b1b"/>
      <circle id="Ellipse_11790" data-name="Ellipse 11790" cx="15" cy="15" r="15" transform="translate(17 17)" fill="#f2f2f2"/>
      <circle id="Ellipse_11791" data-name="Ellipse 11791" cx="3" cy="3" r="3" transform="translate(6 13)" fill="#fbac31"/>
      <circle id="Ellipse_11792" data-name="Ellipse 11792" cx="3" cy="3" r="3" transform="translate(52 13)" fill="#fbac31"/>
      <path id="Path_901218" data-name="Path 901218" d="M32,8l-5.36,7a18.39,18.39,0,0,0,0,22L32,54l5.36-17a18.39,18.39,0,0,0,0-22Z" fill="#a0d34f"/>
      <path id="Path_901219" data-name="Path 901219" d="M31.52,60l-1.28-5.62A20.42,20.42,0,0,0,15.58,39.73l-3.73-.85A18.23,18.23,0,0,1,9.7,33.63L8,26l7.64,1.74a19.32,19.32,0,0,1,7.74,3.88A20.1,20.1,0,0,1,30.3,42.4l.44,2L32,49.93v-.01l1.28-5.59.44-2a20.1,20.1,0,0,1,6.92-10.78,19.32,19.32,0,0,1,7.74-3.88L56,26l-1.74,7.64a18.23,18.23,0,0,1-2.15,5.25l-3.75.85A20.42,20.42,0,0,0,33.7,54.39L32.42,60" fill="#a0d34f"/>
      <path id="Path_901220" data-name="Path 901220" d="M31.54,60l-1.28-5.63A20.42,20.42,0,0,0,15.6,39.7l-3.73-.85L8,38l1.7,7.6A18.62,18.62,0,0,0,13,52.53,27.87,27.87,0,0,0,31.54,60h.9A27.89,27.89,0,0,0,51,52.61a18.94,18.94,0,0,0,3.31-7L56,38l-3.89.89-3.75.85A20.42,20.42,0,0,0,33.72,54.36L32.44,60" fill="#81b944"/>
      <path id="Path_901221" data-name="Path 901221" d="M37.36,15,32,8l3.57,7a26,26,0,0,1,0,22L32,54l5.36-17A18.39,18.39,0,0,0,37.36,15Z" fill="#70a030"/>
      <path id="Path_901222" data-name="Path 901222" d="M28.43,15,32,8l-5.36,7a18.39,18.39,0,0,0,0,22L32,54,28.43,37a26,26,0,0,1,0-22Z" fill="#70a030"/>
      <path id="Path_901223" data-name="Path 901223" d="M23.34,35.63A20,20,0,0,1,30.26,46.4l.44,2L32,54l1.28-5.6.44-2a20,20,0,0,1,6.92-10.77,19.21,19.21,0,0,1,7.74-3.89L55,30.22,56,26l-7.64,1.74a19.21,19.21,0,0,0-7.74,3.89A20.06,20.06,0,0,0,33.7,42.39l-.44,1.94L32,49.93l-1.28-5.6-.44-1.94a20.06,20.06,0,0,0-6.92-10.78,19.21,19.21,0,0,0-7.74-3.89L8,26l1,4.24,6.68,1.52a19.21,19.21,0,0,1,7.66,3.87Z" fill="#7ba835"/>
      <g id="Group_1113096" data-name="Group 1113096">
        <path id="Path_901224" data-name="Path 901224" d="M15.6,42.72A20.42,20.42,0,0,1,30.26,57.38L30.85,60h.69l-1.28-5.63A20.42,20.42,0,0,0,15.6,39.7l-3.73-.85L8,38l.73,3.19,3.18.72Z" fill="#70a030"/>
        <path id="Path_901225" data-name="Path 901225" fill="#70a030"/>
        <path id="Path_901226" data-name="Path 901226" d="M33.72,57.38A20.42,20.42,0,0,1,48.38,42.72l3.75-.85,3.16-.72L56,38l-3.89.89-3.75.85A20.42,20.42,0,0,0,33.72,54.36L32.44,60h.69Z" fill="#70a030"/>
      </g>
      <path id="Path_901227" data-name="Path 901227" d="M12.21,53.18a.24.24,0,0,0,.08.09A28.87,28.87,0,0,0,31.48,61h1A29.009,29.009,0,0,0,58.79,20.89L57,21.65a27,27,0,0,1-1.65,24L57,38.18A.984.984,0,0,0,55.8,37l-1.78.4a18.41,18.41,0,0,0,1.23-3.57L57,26.18A1,1,0,0,0,55.8,25l-2.8.61a22.08,22.08,0,0,0-18-15.4L32.79,7.39a1,1,0,0,0-1.58,0l-2.16,2.82A22.08,22.08,0,0,0,11,25.61L8.2,25A1,1,0,0,0,7,26.18l1.75,7.64A17.89,17.89,0,0,0,10,37.4L8.18,37A1,1,0,0,0,7,38.18l1.68,7.37a27,27,0,0,1-1.61-23.9l-1.84-.76a29,29,0,0,0,7,32.29ZM11.12,39.71l4.26,1a19.34,19.34,0,0,1,13.9,13.91l1,4.33a26.87,26.87,0,0,1-16.52-7,17.46,17.46,0,0,1-3.07-6.51l-1-4.26,14.6,14.53,1.42-1.42Zm28.59,16L54.27,41.12l-1,4.26a17.63,17.63,0,0,1-3.09,6.56,27,27,0,0,1-16.51,7l1-4.36a19.31,19.31,0,0,1,13.9-13.9l4.26-1L38.29,54.27ZM51.09,26.06l-2.93.67c-.33.07-.66.16-1,.25a16.13,16.13,0,0,0-6.7-8.53,19,19,0,0,0-2.33-4l-1.39-1.82A20.09,20.09,0,0,1,51.09,26.06ZM32.74,42.14,32,45.41l-.75-3.27A20.86,20.86,0,0,0,25,31.66a17.69,17.69,0,0,1,.3-12.17,16.41,16.41,0,0,1,2.19-3.86L31,11V36h2V11l3.56,4.66a16.67,16.67,0,0,1,2.19,3.87,17.69,17.69,0,0,1,.3,12.17A21,21,0,0,0,32.74,42.14ZM22.36,29.61a20.88,20.88,0,0,0-3.66-2,14.16,14.16,0,0,1,3.79-5.9,19.81,19.81,0,0,0-.13,7.9Zm19.15-7.86a14.16,14.16,0,0,1,3.79,5.9,20.24,20.24,0,0,0-3.66,2,19.81,19.81,0,0,0-.13-7.9ZM27.24,12.59l-1.4,1.83a19.06,19.06,0,0,0-2.32,4A16.13,16.13,0,0,0,16.82,27c-.33-.09-.65-.18-1-.25l-2.93-.67A20.09,20.09,0,0,1,27.24,12.59ZM10.7,33.38l-1-4.48L21.32,39.73l1.36-1.46L11.39,27.76l4,.91a18.35,18.35,0,0,1,7.33,3.69A19.1,19.1,0,0,1,29.3,42.58L31,50a1,1,0,0,0,2,0l1.68-7.37a19,19,0,0,1,6.57-10.21,18.1,18.1,0,0,1,7.33-3.69l4-.92L41.32,38.25l1.36,1.46L54.32,28.9l-1,4.48A17,17,0,0,1,51.47,38l-3.31.76A21.44,21.44,0,0,0,32.75,54.14L32,57.46l-.76-3.32A21.44,21.44,0,0,0,15.82,38.73L12.53,38a16.68,16.68,0,0,1-1.83-4.62Z"/>
      <path id="Path_901228" data-name="Path 901228" d="M32,5a27,27,0,0,1,18.381,7.221L51.74,10.76a29,29,0,0,0-39.48,0l1.36,1.46A27,27,0,0,1,32,5Z"/>
      <path id="Path_901229" data-name="Path 901229" d="M9,20a4,4,0,1,0-4-4,4,4,0,0,0,4,4Zm0-6a2,2,0,1,1-2,2A2,2,0,0,1,9,14Z"/>
      <path id="Path_901230" data-name="Path 901230" d="M55,20a4,4,0,1,0-4-4A4,4,0,0,0,55,20Zm0-6a2,2,0,1,1-2,2A2,2,0,0,1,55,14Z"/>
    </g>
  </g>
</svg>
