<svg xmlns="http://www.w3.org/2000/svg" xmlns:xlink="http://www.w3.org/1999/xlink" width="98" height="98" viewBox="0 0 98 98">
  <defs>
    <filter id="Path_896985" x="0" y="0" width="98" height="98" filterUnits="userSpaceOnUse">
      <feOffset dy="3" input="SourceAlpha"/>
      <feGaussianBlur stdDeviation="3" result="blur"/>
      <feFlood flood-opacity="0.161"/>
      <feComposite operator="in" in2="blur"/>
      <feComposite in="SourceGraphic"/>
    </filter>
  </defs>
  <g id="Group_1113114" data-name="Group 1113114" transform="translate(-711.667 -4860)">
    <g id="Group_1111422" data-name="Group 1111422" transform="translate(720.667 4866)" style="isolation: isolate">
      <g id="Group_1098742" data-name="Group 1098742">
        <g transform="matrix(1, 0, 0, 1, -9, -6)" filter="url(#Path_896985)">
          <g id="Path_896985-2" data-name="Path 896985" transform="translate(9 6)" fill="#8dc0ff">
            <path d="M 40.00000381469727 78.50012969970703 C 34.80187225341797 78.50012969970703 29.76003646850586 77.48240661621094 25.0145263671875 75.47523498535156 C 20.43014907836914 73.53620147705078 16.31264877319336 70.75999450683594 12.77639293670654 67.22373962402344 C 9.240137100219727 63.68747711181641 6.463937282562256 59.56997680664062 4.524903774261475 54.98559951782227 C 2.517725944519043 50.24008560180664 1.500003814697266 45.1982421875 1.500003814697266 40.0001106262207 C 1.500003814697266 34.80195236206055 2.517725944519043 29.76008796691895 4.524914741516113 25.01456451416016 C 6.463937282562256 20.43017578125 9.240137100219727 16.31266403198242 12.77639293670654 12.77639865875244 C 16.31264877319336 9.240142822265625 20.43014907836914 6.463931560516357 25.0145263671875 4.524909496307373 C 29.76003646850586 2.517720460891724 34.80187225341797 1.499998211860657 40.00000381469727 1.499998211860657 C 45.19813537597656 1.499998211860657 50.23998260498047 2.517720460891724 54.98548126220703 4.524898052215576 C 59.56985855102539 6.463931560516357 63.68735885620117 9.240131378173828 67.22361755371094 12.77638721466064 C 70.75987243652344 16.31264305114746 73.53607177734375 20.43015289306641 75.47510528564453 25.0145206451416 C 77.48228454589844 29.76003074645996 78.5 34.80187606811523 78.5 40.00000762939453 C 78.5 45.19816589355469 77.48228454589844 50.24003219604492 75.47510528564453 54.98555374145508 C 73.53607177734375 59.56994247436523 70.75987243652344 63.68746566772461 67.22361755371094 67.22373199462891 C 63.68735885620117 70.75998687744141 59.56985855102539 73.53620147705078 54.98548126220703 75.4752197265625 C 50.23998260498047 77.48240661621094 45.19813537597656 78.50012969970703 40.00000381469727 78.50012969970703 Z" stroke="none"/>
            <path d="M 40.00000381469727 3 C 35.00371170043945 3 30.15847015380859 3.977851867675781 25.59885787963867 5.906410217285156 C 21.19327163696289 7.769813537597656 17.23603057861328 10.43806457519531 13.83704376220703 13.83705139160156 C 10.43807220458984 17.23603820800781 7.769813537597656 21.19327926635742 5.906417846679688 25.59885025024414 C 3.977859497070312 30.15846633911133 3.000007629394531 35.00370407104492 3.000007629394531 40.00011825561523 C 3.000007629394531 44.99641036987305 3.977859497070312 49.84166717529297 5.906417846679688 54.40127563476562 C 7.769813537597656 58.80685424804688 10.43807220458984 62.76409149169922 13.83704376220703 66.16307830810547 C 17.23603057861328 69.56206512451172 21.19327163696289 72.23031616210938 25.59885787963867 74.09371948242188 C 30.1584587097168 76.02227783203125 35.00371170043945 77.00012969970703 40.00000381469727 77.00012969970703 C 44.99629592895508 77.00012969970703 49.841552734375 76.02227783203125 54.40114974975586 74.09371948242188 C 58.80673980712891 72.23031616210938 62.76397705078125 69.56206512451172 66.1629638671875 66.16307830810547 C 69.56193542480469 62.76409149169922 72.23019409179688 58.80685424804688 74.09358978271484 54.40127563476562 C 76.02214813232422 49.84166717529297 77 44.99641036987305 77 40 C 77 35.00370407104492 76.02214813232422 30.15846633911133 74.09358978271484 25.59885025024414 C 72.23019409179688 21.19327926635742 69.56193542480469 17.23603820800781 66.1629638671875 13.83705139160156 C 62.76397705078125 10.43806457519531 58.80673980712891 7.769813537597656 54.40114974975586 5.906410217285156 C 49.84153747558594 3.977851867675781 44.99629592895508 3 40.00000381469727 3 M 40.00000381469727 0 C 62.09140396118164 0 80 17.90861129760742 80 40 L 80 40.00011825561523 C 80 62.09151840209961 62.09140396118164 80.00012969970703 40.00000381469727 80.00012969970703 C 17.90860366821289 80.00012969970703 7.62939453125e-06 62.09151840209961 7.62939453125e-06 40.00011825561523 L 7.62939453125e-06 40 C 7.62939453125e-06 17.90861129760742 17.90860366821289 0 40.00000381469727 0 Z" stroke="none" fill="#fff"/>
          </g>
        </g>
        <g id="Rectangle_400907" data-name="Rectangle 400907" transform="translate(0 0)" fill="none" stroke="#fff" stroke-width="3">
          <rect width="80" height="80" rx="40" stroke="none"/>
          <rect x="1.5" y="1.5" width="77" height="77" rx="38.5" fill="none"/>
        </g>
      </g>
    </g>
    <g id="Group_1113113" data-name="Group 1113113" transform="translate(735.677 4881)">
      <g id="Group_1113111" data-name="Group 1113111" transform="translate(0.773 4.696)">
        <path id="Path_901259" data-name="Path 901259" d="M53.1,40.91a4.3,4.3,0,0,1,0,6.09L47.35,52.752a4.306,4.306,0,0,0-6.09-6.09l5.753-5.753A4.3,4.3,0,0,1,53.1,40.91Z" transform="translate(-9.74 -13.311)" fill="#6ebed6"/>
        <path id="Path_901260" data-name="Path 901260" d="M47,48.26a4.306,4.306,0,1,1-6.09,0A4.318,4.318,0,0,1,47,48.26Z" transform="translate(-9.39 -14.908)" fill="#4c9ac1"/>
        <path id="Path_901261" data-name="Path 901261" d="M21.283,47.139l2.34,4.688-9.377-.016a3.123,3.123,0,1,1-5.166-2.34,3.119,3.119,0,1,1,5.166-2.348Z" transform="translate(-2.513 -14.257)" fill="#b3b3b3"/>
        <circle id="Ellipse_11803" data-name="Ellipse 11803" cx="1.957" cy="1.957" r="1.957" transform="translate(5.487 20.351)" fill="#ffcc3e"/>
        <path id="Path_901262" data-name="Path 901262" d="M26.827,33.914,33.089,30,37,30.783l-.783,5.479-7.827,3.914L19,37.044l3.131-4.7Z" transform="translate(-4.903 -11.215)" fill="#68aa22"/>
        <path id="Path_901263" data-name="Path 901263" d="M49.526,25V51.612A3.13,3.13,0,0,1,46.4,54.743H4.129A3.137,3.137,0,0,1,.99,51.612H1V25ZM44.353,43.817a4.306,4.306,0,0,0-6.09-6.09L32.51,43.48a4.306,4.306,0,0,0,6.09,6.09ZM32.307,35.175l.783-5.479-3.914-.783-6.262,3.914-4.7-1.565-3.131,4.7,9.393,3.131ZM22.1,47.7,19.76,43.01l-7.037-.016a3.123,3.123,0,1,0-5.166,2.348,3.088,3.088,0,0,0-1.08,2.34,3.123,3.123,0,1,0,6.246,0ZM10.39,32.436a1.957,1.957,0,1,0-1.957,1.957A1.958,1.958,0,0,0,10.39,32.436Z" transform="translate(-0.99 -10.128)" fill="#f7a539"/>
        <g id="Group_1113110" data-name="Group 1113110" transform="translate(3.921)">
          <path id="Path_901264" data-name="Path 901264" d="M52.7,6h3.131a4.7,4.7,0,0,1-4.7,4.7H48A4.7,4.7,0,0,1,52.7,6Z" transform="translate(-15.126 -6)" fill="#ffcc3e"/>
          <path id="Path_901265" data-name="Path 901265" d="M39.348,10S41.7,11.565,41.7,13.914s-2.348,3.914-2.348,3.914S37,16.262,37,13.914,39.348,10,39.348,10Z" transform="translate(-12.736 -6.869)" fill="#ffcc3e"/>
          <path id="Path_901266" data-name="Path 901266" d="M25.348,6S27.7,7.565,27.7,9.914s-2.348,3.914-2.348,3.914S23,12.262,23,9.914,25.348,6,25.348,6Z" transform="translate(-9.694 -6)" fill="#ffcc3e"/>
          <path id="Path_901267" data-name="Path 901267" d="M13.827,18.7H10.7A4.7,4.7,0,0,1,6,14H9.131A4.7,4.7,0,0,1,13.827,18.7Z" transform="translate(-6 -7.738)" fill="#ffcc3e"/>
        </g>
      </g>
      <g id="Group_1113112" data-name="Group 1113112" transform="translate(-0.01)">
        <path id="Path_901268" data-name="Path 901268" d="M49.309,18.785H38.351v-8.61H40.7a5.407,5.407,0,0,0,3.87-1.6A5.414,5.414,0,0,0,46.178,4.7a.782.782,0,0,0-.783-.783H42.265a5.458,5.458,0,0,0-3.914,1.652V3.914a3.914,3.914,0,0,0-7.827,0V7.438a5.868,5.868,0,0,0-2.348,4.3c0,2.736,2.587,4.491,2.7,4.565a.783.783,0,0,0,.869,0c.11-.074,2.7-1.829,2.7-4.565a5.866,5.866,0,0,0-2.348-4.3V3.914a2.348,2.348,0,1,1,4.7,0V18.785H13.3V4.7a3.123,3.123,0,0,1,6.226-.359A5.84,5.84,0,0,0,17.218,8.61c0,2.736,2.587,4.491,2.7,4.565a.783.783,0,0,0,.869,0c.11-.074,2.7-1.829,2.7-4.565a5.886,5.886,0,0,0-2.369-4.32,4.695,4.695,0,0,0-9.372.406v7.131a5.461,5.461,0,0,0-3.914-1.652H4.694a.782.782,0,0,0-.783.783A5.486,5.486,0,0,0,9.39,16.437h2.348v2.348H.781A.782.782,0,0,0,0,19.568v26.5a.733.733,0,0,0-.008.11,3.922,3.922,0,0,0,3.921,3.914H32.089a.783.783,0,0,0,0-1.565H3.911a2.355,2.355,0,0,1-2.354-2.253c0-.031.005-.063.005-.1V20.351H48.526V46.18a2.351,2.351,0,0,1-2.348,2.348H35.22a.783.783,0,1,0,0,1.565H46.178a3.918,3.918,0,0,0,3.914-3.914V19.568A.782.782,0,0,0,49.309,18.785ZM42.265,5.479h2.271A3.927,3.927,0,0,1,40.7,8.61H38.43a3.92,3.92,0,0,1,3.835-3.131Zm-9.393,6.262a4.187,4.187,0,0,1-1.565,2.915,4.189,4.189,0,0,1-1.565-2.915,4.189,4.189,0,0,1,1.565-2.915A4.189,4.189,0,0,1,32.872,11.741ZM21.914,8.61a4.187,4.187,0,0,1-1.565,2.915A4.189,4.189,0,0,1,18.783,8.61,4.189,4.189,0,0,1,20.349,5.7,4.189,4.189,0,0,1,21.914,8.61ZM9.39,14.872a3.927,3.927,0,0,1-3.836-3.131H7.825a3.92,3.92,0,0,1,3.835,3.131Z" transform="translate(0.01)" fill="#252525"/>
        <path id="Path_901269" data-name="Path 901269" d="M9.74,32.565a1.176,1.176,0,0,1,1.174,1.174.783.783,0,1,0,1.565,0,2.74,2.74,0,1,0-2.74,2.74.783.783,0,1,0,0-1.565,1.174,1.174,0,1,1,0-2.348Z" transform="translate(-1.513 -6.736)" fill="#252525"/>
        <path id="Path_901270" data-name="Path 901270" d="M10.906,55.5a3.914,3.914,0,0,0,3.827-3.121l8.671.015h0a.783.783,0,0,0,.7-1.133l-2.34-4.688a.782.782,0,0,0-.7-.434l-6.334-.014A3.906,3.906,0,0,0,7,46.906a3.871,3.871,0,0,0,.8,2.347A3.863,3.863,0,0,0,7,51.594a3.91,3.91,0,0,0,3.906,3.9ZM9.376,48.664a2.336,2.336,0,1,1,3.87-1.757.782.782,0,0,0,.781.783l6.553.015,1.558,3.121-8.108-.013h0a.783.783,0,0,0-.783.783,2.34,2.34,0,0,1-4.681,0,2.292,2.292,0,0,1,.811-1.749.783.783,0,0,0,0-1.182Z" transform="translate(-1.513 -9.343)" fill="#252525"/>
        <path id="Path_901271" data-name="Path 901271" d="M36.777,36.156l.783-5.479a.782.782,0,0,0-.621-.878l-3.914-.783a.785.785,0,0,0-.569.1l-5.949,3.718L22.16,31.389a.778.778,0,0,0-.9.308l-3.131,4.7a.782.782,0,0,0,.4,1.176L27.927,40.7a.769.769,0,0,0,.6-.042l7.827-3.914a.785.785,0,0,0,.425-.589Zm-1.492-.628-7.17,3.585L20,36.409l2.231-3.346,4.129,1.376c.015,0,.03,0,.045,0s.031.017.049.02l3.914.783a.742.742,0,0,0,.154.016.783.783,0,0,0,.153-1.551l-1.981-.4,4.327-2.7,2.883.576Z" transform="translate(-3.903 -6.301)" fill="#252525"/>
        <path id="Path_901272" data-name="Path 901272" d="M43.729,54.58h.006a5.057,5.057,0,0,0,3.6-1.491l5.753-5.753a5.088,5.088,0,0,0-7.2-7.2l-5.754,5.754a5.089,5.089,0,0,0,3.59,8.687Zm0-1.565a3.484,3.484,0,0,1-2.484-1.032,3.527,3.527,0,0,1,0-4.982l0,0a3.483,3.483,0,0,1,2.483-1.031h0A3.5,3.5,0,0,1,46.228,47a3.54,3.54,0,0,1,0,4.984,3.5,3.5,0,0,1-2.495,1.033h0ZM47,41.246a3.527,3.527,0,0,1,4.984,0,3.522,3.522,0,0,1,0,4.981L48.813,49.4a5.064,5.064,0,0,0-4.973-4.991Z" transform="translate(-8.39 -8.398)" fill="#252525"/>
        <circle id="Ellipse_11804" data-name="Ellipse 11804" cx="1.174" cy="1.174" r="1.174" transform="translate(25.055 38.353)" fill="#252525"/>
        <circle id="Ellipse_11805" data-name="Ellipse 11805" cx="1.174" cy="1.174" r="1.174" transform="translate(38.361 24.264)" fill="#252525"/>
      </g>
    </g>
  </g>
</svg>
