<svg xmlns="http://www.w3.org/2000/svg" xmlns:xlink="http://www.w3.org/1999/xlink" width="98" height="98" viewBox="0 0 98 98">
  <defs>
    <filter id="Path_896985" x="0" y="0" width="98" height="98" filterUnits="userSpaceOnUse">
      <feOffset dy="3" input="SourceAlpha"/>
      <feGaussianBlur stdDeviation="3" result="blur"/>
      <feFlood flood-opacity="0.161"/>
      <feComposite operator="in" in2="blur"/>
      <feComposite in="SourceGraphic"/>
    </filter>
  </defs>
  <g id="Group_1113109" data-name="Group 1113109" transform="translate(-1026.667 -4735)">
    <g id="Group_1111421" data-name="Group 1111421" transform="translate(1035.667 4741)" style="isolation: isolate">
      <g id="Group_1098742" data-name="Group 1098742">
        <g transform="matrix(1, 0, 0, 1, -9, -6)" filter="url(#Path_896985)">
          <g id="Path_896985-2" data-name="Path 896985" transform="translate(9 6)" fill="#8dc0ff">
            <path d="M 40.00000381469727 78.50012969970703 C 34.80187225341797 78.50012969970703 29.76003646850586 77.48240661621094 25.0145263671875 75.47523498535156 C 20.43014907836914 73.53620147705078 16.31264877319336 70.75999450683594 12.77639293670654 67.22373962402344 C 9.240137100219727 63.68747711181641 6.463937282562256 59.56997680664062 4.524903774261475 54.98559951782227 C 2.517725944519043 50.24008560180664 1.500003814697266 45.1982421875 1.500003814697266 40.0001106262207 C 1.500003814697266 34.80195236206055 2.517725944519043 29.76008796691895 4.524914741516113 25.01456451416016 C 6.463937282562256 20.43017578125 9.240137100219727 16.31266403198242 12.77639293670654 12.77639865875244 C 16.31264877319336 9.240142822265625 20.43014907836914 6.463931560516357 25.0145263671875 4.524909496307373 C 29.76003646850586 2.517720460891724 34.80187225341797 1.499998211860657 40.00000381469727 1.499998211860657 C 45.19813537597656 1.499998211860657 50.23998260498047 2.517720460891724 54.98548126220703 4.524898052215576 C 59.56985855102539 6.463931560516357 63.68735885620117 9.240131378173828 67.22361755371094 12.77638721466064 C 70.75987243652344 16.31264305114746 73.53607177734375 20.43015289306641 75.47510528564453 25.0145206451416 C 77.48228454589844 29.76003074645996 78.5 34.80187606811523 78.5 40.00000762939453 C 78.5 45.19816589355469 77.48228454589844 50.24003219604492 75.47510528564453 54.98555374145508 C 73.53607177734375 59.56994247436523 70.75987243652344 63.68746566772461 67.22361755371094 67.22373199462891 C 63.68735885620117 70.75998687744141 59.56985855102539 73.53620147705078 54.98548126220703 75.4752197265625 C 50.23998260498047 77.48240661621094 45.19813537597656 78.50012969970703 40.00000381469727 78.50012969970703 Z" stroke="none"/>
            <path d="M 40.00000381469727 3 C 35.00371170043945 3 30.15847015380859 3.977851867675781 25.59885787963867 5.906410217285156 C 21.19327163696289 7.769813537597656 17.23603057861328 10.43806457519531 13.83704376220703 13.83705139160156 C 10.43807220458984 17.23603820800781 7.769813537597656 21.19327926635742 5.906417846679688 25.59885025024414 C 3.977859497070312 30.15846633911133 3.000007629394531 35.00370407104492 3.000007629394531 40.00011825561523 C 3.000007629394531 44.99641036987305 3.977859497070312 49.84166717529297 5.906417846679688 54.40127563476562 C 7.769813537597656 58.80685424804688 10.43807220458984 62.76409149169922 13.83704376220703 66.16307830810547 C 17.23603057861328 69.56206512451172 21.19327163696289 72.23031616210938 25.59885787963867 74.09371948242188 C 30.1584587097168 76.02227783203125 35.00371170043945 77.00012969970703 40.00000381469727 77.00012969970703 C 44.99629592895508 77.00012969970703 49.841552734375 76.02227783203125 54.40114974975586 74.09371948242188 C 58.80673980712891 72.23031616210938 62.76397705078125 69.56206512451172 66.1629638671875 66.16307830810547 C 69.56193542480469 62.76409149169922 72.23019409179688 58.80685424804688 74.09358978271484 54.40127563476562 C 76.02214813232422 49.84166717529297 77 44.99641036987305 77 40 C 77 35.00370407104492 76.02214813232422 30.15846633911133 74.09358978271484 25.59885025024414 C 72.23019409179688 21.19327926635742 69.56193542480469 17.23603820800781 66.1629638671875 13.83705139160156 C 62.76397705078125 10.43806457519531 58.80673980712891 7.769813537597656 54.40114974975586 5.906410217285156 C 49.84153747558594 3.977851867675781 44.99629592895508 3 40.00000381469727 3 M 40.00000381469727 0 C 62.09140396118164 0 80 17.90861129760742 80 40 L 80 40.00011825561523 C 80 62.09151840209961 62.09140396118164 80.00012969970703 40.00000381469727 80.00012969970703 C 17.90860366821289 80.00012969970703 7.62939453125e-06 62.09151840209961 7.62939453125e-06 40.00011825561523 L 7.62939453125e-06 40 C 7.62939453125e-06 17.90861129760742 17.90860366821289 0 40.00000381469727 0 Z" stroke="none" fill="#fff"/>
          </g>
        </g>
        <g id="Rectangle_400907" data-name="Rectangle 400907" transform="translate(0 0)" fill="none" stroke="#fff" stroke-width="3">
          <rect width="80" height="80" rx="40" stroke="none"/>
          <rect x="1.5" y="1.5" width="77" height="77" rx="38.5" fill="none"/>
        </g>
      </g>
    </g>
    <g id="Group_1113108" data-name="Group 1113108" transform="translate(1048.667 4753)">
      <path id="Path_901244" data-name="Path 901244" d="M46.2,44v4.621a2.1,2.1,0,1,1-4.2,0V44Z" transform="translate(-6.714 -6.234)" fill="#c99e85"/>
      <path id="Path_901245" data-name="Path 901245" d="M21.2,44v4.621a2.1,2.1,0,1,1-4.2,0V44Z" transform="translate(-2.717 -6.234)" fill="#c99e85"/>
      <path id="Path_901246" data-name="Path 901246" d="M53.089,44v7.561a4.2,4.2,0,0,1-4.2,4.2H5.2a4.2,4.2,0,0,1-4.2-4.2V44H14.442v4.621a2.1,2.1,0,1,0,4.2,0V44h16.8v4.621a2.1,2.1,0,1,0,4.2,0V44Z" transform="translate(-0.16 -6.234)" fill="#956143"/>
      <path id="Path_901247" data-name="Path 901247" d="M10.242,30.361l4.2,10.922H1V27Z" transform="translate(-0.16 -3.517)" fill="#c99e85"/>
      <path id="Path_901248" data-name="Path 901248" d="M35.643,32.84l2.52,9.242h-16.8L18,32l8.4,2.52Z" transform="translate(-2.877 -4.316)" fill="#c99e85"/>
      <path id="Path_901249" data-name="Path 901249" d="M38.885,30.881l2.52,10.082H37.2l-2.52-9.242L25.442,33.4l-8.4-2.52L20.4,40.963H16.2L12,30.041l2.52-3.361L25.442,29.2,40.565,25l.823,4.94Z" transform="translate(-1.918 -3.197)" fill="#b28364"/>
      <path id="Path_901250" data-name="Path 901250" d="M46.5,30.579,50.721,29l9.242,5.041V41.6H46.52L44,31.52Z" transform="translate(-7.033 -3.836)" fill="#c99e85"/>
      <path id="Path_901251" data-name="Path 901251" d="M61.242,27.361v5.881L52,28.2,53.68,24Z" transform="translate(-8.312 -3.037)" fill="#b28364"/>
      <path id="Path_901252" data-name="Path 901252" d="M61.561,18v8.4L54,23.041Z" transform="translate(-8.632 -2.078)" fill="#c99e85"/>
      <path id="Path_901253" data-name="Path 901253" d="M42.529,9.209,44.361,6H55.283l4.2,5.041L47.721,17.762,41,11.881Z" transform="translate(-6.554 -0.16)" fill="#c99e85"/>
      <path id="Path_901254" data-name="Path 901254" d="M36.123,6l-3.361,4.2-10.082.84L21,6Z" transform="translate(-3.357 -0.16)" fill="#c99e85"/>
      <path id="Path_901255" data-name="Path 901255" d="M53.089,11.041v5.041l-7.561,5.041-1.68,4.2L39.63,26.9l-.823-4.94-7.561-8.4-12.6,1.68-5.881,8.4L10.242,27,1,23.643v-4.2l8.4,1.68,5.881-8.4-.84-3.361L17.8,6l1.68,5.041,10.082-.84L32.926,6l3.209,3.209-1.529,2.672,6.721,5.881Z" transform="translate(-0.16 -0.16)" fill="#956143"/>
      <path id="Path_901256" data-name="Path 901256" d="M33.483,15l7.561,8.4L25.922,27.6,15,25.082l5.881-8.4Z" transform="translate(-2.398 -1.599)" fill="#c99e85"/>
      <path id="Path_901257" data-name="Path 901257" d="M14.442,9.361l.84,3.361L9.4,21.123,1,19.442V10.2L6.881,6H13.6Z" transform="translate(-0.16 -0.16)" fill="#c99e85"/>
      <g id="Group_1113107" data-name="Group 1113107" transform="translate(7.561 8.361)">
        <ellipse id="Ellipse_11795" data-name="Ellipse 11795" cx="1" cy="1.5" rx="1" ry="1.5" transform="translate(0.439 -0.36)" fill="#b28364"/>
        <ellipse id="Ellipse_11796" data-name="Ellipse 11796" cx="1.5" cy="1" rx="1.5" ry="1" transform="translate(34.439 19.639)" fill="#b28364"/>
        <ellipse id="Ellipse_11797" data-name="Ellipse 11797" cx="1" cy="1.5" rx="1" ry="1.5" transform="translate(10.439 11.639)" fill="#b28364"/>
        <ellipse id="Ellipse_11798" data-name="Ellipse 11798" cx="1" cy="0.5" rx="1" ry="0.5" transform="translate(0.439 25.639)" fill="#b28364"/>
        <ellipse id="Ellipse_11799" data-name="Ellipse 11799" cx="1" cy="0.5" rx="1" ry="0.5" transform="translate(32.439 4.64)" fill="#b28364"/>
      </g>
      <ellipse id="Ellipse_11800" data-name="Ellipse 11800" cx="1.5" cy="1" rx="1.5" ry="1" transform="translate(26 43)" fill="#252525"/>
      <circle id="Ellipse_11801" data-name="Ellipse 11801" cx="0.5" cy="0.5" r="0.5" transform="translate(7 43)" fill="#252525"/>
      <ellipse id="Ellipse_11802" data-name="Ellipse 11802" cx="1" cy="0.5" rx="1" ry="0.5" transform="translate(45 43)" fill="#252525"/>
      <path id="Path_901258" data-name="Path 901258" d="M53.575,10.343,49.374,5.3a.84.84,0,0,0-.645-.3H37.807a.84.84,0,0,0-.73.42L35.79,7.676,33.36,5.246A.84.84,0,0,0,32.766,5H17.643a.84.84,0,0,0-.594.246L14.738,7.557l-.481-1.921A.84.84,0,0,0,13.442,5H6.721a.833.833,0,0,0-.488.157L.352,9.358A.84.84,0,0,0,0,10.041V45.327a5.046,5.046,0,0,0,5.041,5.041H48.729a5.046,5.046,0,0,0,5.041-5.041V10.881a.84.84,0,0,0-.195-.539ZM40.143,36.926l-2.18-8.719,5.659-2.119L52.089,30.7v6.222ZM33.577,28.3a.84.84,0,0,0-.961-.6l-9.043,1.644-8.208-2.463a.84.84,0,0,0-1.038,1.07l3.331,9.816-.013,4.621a1.26,1.26,0,1,1-2.52,0V37.766c0-.1-4.09-10.79-4.09-10.79l1.913-2.551s10.383,2.419,10.446,2.419a.607.607,0,0,0,.357-.03l6.049-1.68a.841.841,0,1,0-.449-1.62L23.5,25.138,14,22.945l4.957-7.078,11.8-1.574,6.358,7.064-3.736,1.034a.841.841,0,1,0,.45,1.62l4.141-1.151.556,3.339-1.858.7a.84.84,0,0,0-.519.991l2.5,9.881v4.621a1.26,1.26,0,0,1-2.52,0V37.766C36.126,37.691,33.577,28.3,33.577,28.3ZM19.089,36.926l-2.657-7.971,6.851,2.055a.812.812,0,0,0,.392.021l8.486-1.543,2.026,7.438ZM1.68,24.682,9.435,27.5l3.624,9.423H1.68Zm44.144-2.6,6.265,2.784v3.919l-7.345-4.006Zm1.28-1.27,4.985-3.324V23.03ZM31.017,6.68,28.975,9.234l-9.064.756-1.1-3.309ZM6.99,6.68h5.8l1.428,5.713-1.46,2.087a.84.84,0,1,0,1.376.964l1.68-2.4a.84.84,0,0,0,.127-.685l-.725-2.9L17.277,7.4l1.25,3.751a.84.84,0,0,0,.8.575.661.661,0,0,0,.071,0l10.082-.84a.84.84,0,0,0,.588-.312L32.836,7.1l2.09,2.09-1.21,2.11a.84.84,0,0,0,.176,1.05l6.721,5.881a.84.84,0,0,0,.97.1l8.4-4.8a.84.84,0,0,0-.833-1.458l-7.881,4.5-5.754-5.034L38.295,6.68H48.335l3.754,4.5V15.47L44.9,20.259a1.6,1.6,0,0,0-.314.387L43.045,24.5l-2.914,1.092-.656-3.934a1.468,1.468,0,0,0-.2-.42l-7.561-8.4a.84.84,0,0,0-.735-.271l-12.6,1.68a.84.84,0,0,0-.577.351L11.914,23,9.781,25.845,1.68,22.9V20.308s7.507,1.5,7.561,1.5a.84.84,0,0,0,.688-.359l1.764-2.52a.84.84,0,1,0-1.376-.963L8.869,20.032,1.68,18.594v-8.12ZM48.729,48.688H5.041A3.361,3.361,0,0,1,1.68,45.327V38.606H13.442v3.781a2.941,2.941,0,1,0,5.881,0V38.606H34.446v3.781a2.941,2.941,0,0,0,5.881,0V38.606H52.089v6.721A3.361,3.361,0,0,1,48.729,48.688Z" transform="translate(0 0)" fill="#252525"/>
    </g>
  </g>
</svg>
