<svg xmlns="http://www.w3.org/2000/svg" xmlns:xlink="http://www.w3.org/1999/xlink" width="98" height="98" viewBox="0 0 98 98">
  <defs>
    <filter id="Path_896985" x="0" y="0" width="98" height="98" filterUnits="userSpaceOnUse">
      <feOffset dy="3" input="SourceAlpha"/>
      <feGaussianBlur stdDeviation="3" result="blur"/>
      <feFlood flood-opacity="0.161"/>
      <feComposite operator="in" in2="blur"/>
      <feComposite in="SourceGraphic"/>
    </filter>
  </defs>
  <g id="Group_1113106" data-name="Group 1113106" transform="translate(-711.667 -4735)">
    <g id="Group_1111420" data-name="Group 1111420" transform="translate(720.667 4741)" style="isolation: isolate">
      <g id="Group_1098742" data-name="Group 1098742">
        <g transform="matrix(1, 0, 0, 1, -9, -6)" filter="url(#Path_896985)">
          <g id="Path_896985-2" data-name="Path 896985" transform="translate(9 6)" fill="#8dc0ff">
            <path d="M 40.00000381469727 78.50012969970703 C 34.80187225341797 78.50012969970703 29.76003646850586 77.48240661621094 25.0145263671875 75.47523498535156 C 20.43014907836914 73.53620147705078 16.31264877319336 70.75999450683594 12.77639293670654 67.22373962402344 C 9.240137100219727 63.68747711181641 6.463937282562256 59.56997680664062 4.524903774261475 54.98559951782227 C 2.517725944519043 50.24008560180664 1.500003814697266 45.1982421875 1.500003814697266 40.0001106262207 C 1.500003814697266 34.80195236206055 2.517725944519043 29.76008796691895 4.524914741516113 25.01456451416016 C 6.463937282562256 20.43017578125 9.240137100219727 16.31266403198242 12.77639293670654 12.77639865875244 C 16.31264877319336 9.240142822265625 20.43014907836914 6.463931560516357 25.0145263671875 4.524909496307373 C 29.76003646850586 2.517720460891724 34.80187225341797 1.499998211860657 40.00000381469727 1.499998211860657 C 45.19813537597656 1.499998211860657 50.23998260498047 2.517720460891724 54.98548126220703 4.524898052215576 C 59.56985855102539 6.463931560516357 63.68735885620117 9.240131378173828 67.22361755371094 12.77638721466064 C 70.75987243652344 16.31264305114746 73.53607177734375 20.43015289306641 75.47510528564453 25.0145206451416 C 77.48228454589844 29.76003074645996 78.5 34.80187606811523 78.5 40.00000762939453 C 78.5 45.19816589355469 77.48228454589844 50.24003219604492 75.47510528564453 54.98555374145508 C 73.53607177734375 59.56994247436523 70.75987243652344 63.68746566772461 67.22361755371094 67.22373199462891 C 63.68735885620117 70.75998687744141 59.56985855102539 73.53620147705078 54.98548126220703 75.4752197265625 C 50.23998260498047 77.48240661621094 45.19813537597656 78.50012969970703 40.00000381469727 78.50012969970703 Z" stroke="none"/>
            <path d="M 40.00000381469727 3 C 35.00371170043945 3 30.15847015380859 3.977851867675781 25.59885787963867 5.906410217285156 C 21.19327163696289 7.769813537597656 17.23603057861328 10.43806457519531 13.83704376220703 13.83705139160156 C 10.43807220458984 17.23603820800781 7.769813537597656 21.19327926635742 5.906417846679688 25.59885025024414 C 3.977859497070312 30.15846633911133 3.000007629394531 35.00370407104492 3.000007629394531 40.00011825561523 C 3.000007629394531 44.99641036987305 3.977859497070312 49.84166717529297 5.906417846679688 54.40127563476562 C 7.769813537597656 58.80685424804688 10.43807220458984 62.76409149169922 13.83704376220703 66.16307830810547 C 17.23603057861328 69.56206512451172 21.19327163696289 72.23031616210938 25.59885787963867 74.09371948242188 C 30.1584587097168 76.02227783203125 35.00371170043945 77.00012969970703 40.00000381469727 77.00012969970703 C 44.99629592895508 77.00012969970703 49.841552734375 76.02227783203125 54.40114974975586 74.09371948242188 C 58.80673980712891 72.23031616210938 62.76397705078125 69.56206512451172 66.1629638671875 66.16307830810547 C 69.56193542480469 62.76409149169922 72.23019409179688 58.80685424804688 74.09358978271484 54.40127563476562 C 76.02214813232422 49.84166717529297 77 44.99641036987305 77 40 C 77 35.00370407104492 76.02214813232422 30.15846633911133 74.09358978271484 25.59885025024414 C 72.23019409179688 21.19327926635742 69.56193542480469 17.23603820800781 66.1629638671875 13.83705139160156 C 62.76397705078125 10.43806457519531 58.80673980712891 7.769813537597656 54.40114974975586 5.906410217285156 C 49.84153747558594 3.977851867675781 44.99629592895508 3 40.00000381469727 3 M 40.00000381469727 0 C 62.09140396118164 0 80 17.90861129760742 80 40 L 80 40.00011825561523 C 80 62.09151840209961 62.09140396118164 80.00012969970703 40.00000381469727 80.00012969970703 C 17.90860366821289 80.00012969970703 7.62939453125e-06 62.09151840209961 7.62939453125e-06 40.00011825561523 L 7.62939453125e-06 40 C 7.62939453125e-06 17.90861129760742 17.90860366821289 0 40.00000381469727 0 Z" stroke="none" fill="#fff"/>
          </g>
        </g>
        <g id="Rectangle_400907" data-name="Rectangle 400907" transform="translate(0 0)" fill="none" stroke="#fff" stroke-width="3">
          <rect width="80" height="80" rx="40" stroke="none"/>
          <rect x="1.5" y="1.5" width="77" height="77" rx="38.5" fill="none"/>
        </g>
      </g>
    </g>
    <g id="Group_1113105" data-name="Group 1113105" transform="translate(735.667 4728.544)">
      <g id="Group_1113104" data-name="Group 1113104" transform="translate(0.743 31.199)">
        <g id="Group_1113099" data-name="Group 1113099" transform="translate(0 0)">
          <path id="Path_901231" data-name="Path 901231" d="M7.5,37.956H54.781V72.395H7.5Z" transform="translate(-7.5 -37.956)" fill="#f9f7f8"/>
          <path id="Path_901232" data-name="Path 901232" d="M445.052,37.956h3.96V72.395h-3.96Z" transform="translate(-401.731 -37.956)" fill="#efedef"/>
          <path id="Path_901233" data-name="Path 901233" d="M0,0H28.739V41.573H0Z" transform="translate(44.427 2.85) rotate(90)" fill="#f6a96c"/>
        </g>
        <path id="Path_901234" data-name="Path 901234" d="M176.136,190.862c-5.379-.726-8.218,2.772-6.087,5.119,2.038,2.244,6.879-.861,10.938,1.416s6.435,7.03,9.8,4.95,3.267-10-.792-12.475S182.562,191.729,176.136,190.862Z" transform="translate(-153.315 -174.134)" fill="#bbf49b"/>
        <g id="Group_1113100" data-name="Group 1113100" transform="translate(2.854 2.85)">
          <path id="Path_901235" data-name="Path 901235" d="M49.788,224.835c-5.811.1-4.146-7.529-8.159-8.812-2.092-.669-3.85.371-5.3,1.8V229.8H62.72C61.385,223.429,55.432,224.739,49.788,224.835Z" transform="translate(-36.325 -201.057)" fill="#fee45a"/>
          <path id="Path_901236" data-name="Path 901236" d="M38.9,71.694c4.13-.184,5.124,2.962,8.8,2.128,3.479-.791,3.808-4.457,6.92-4.7,2.479-.2,3.289-1.3,3.651-2.376H36.326v4.72A8.083,8.083,0,0,0,38.9,71.694Z" transform="translate(-36.326 -66.744)" fill="#f6a96c"/>
          <path id="Path_901237" data-name="Path 901237" d="M268.328,69.269c-3.036,2.046-1.188,4.29,2.145,2.97,3.178-1.259,8.726-4.377,15.072.312V66.744H270.686A5.5,5.5,0,0,1,268.328,69.269Z" transform="translate(-243.971 -66.744)" fill="#fee45a"/>
          <path id="Path_901238" data-name="Path 901238" d="M62.828,72.239c-3.333,1.32-5.181-.924-2.145-2.97a5.5,5.5,0,0,0,2.358-2.525H58.27c-.363,1.078-1.172,2.181-3.651,2.376-3.111.245-3.441,3.911-6.92,4.7-3.673.835-4.667-2.311-8.8-2.128a8.081,8.081,0,0,1-2.576-.23v5.4c1.981-1.452,4.8-1.112,7.261,1.206,3.6,3.394,5.132-1.834,10.33-1.4,4.706.388,6.9.2,12.772-2.178C72.951,71.95,77.9,75.869,77.9,86.364V72.551C71.554,67.862,66.006,70.98,62.828,72.239Z" transform="translate(-36.326 -66.744)" fill="#bb5d4c"/>
        </g>
        <g id="Group_1113103" data-name="Group 1113103" transform="translate(8.588 30.199)">
          <g id="Group_1113101" data-name="Group 1113101" transform="translate(3.035)">
            <path id="Path_901239" data-name="Path 901239" d="M178.445,342.97H144.8v6.48h33.641c1.089,0,1.972-1.451,1.972-3.24S179.534,342.97,178.445,342.97Z" transform="translate(-142.832 -342.97)" fill="#fef0ae"/>
            <path id="Path_901240" data-name="Path 901240" d="M448.547,342.97h-3.96c1.089,0,1.971,1.451,1.971,3.24s-.883,3.24-1.971,3.24h3.96c1.089,0,1.971-1.451,1.971-3.24S449.636,342.97,448.547,342.97Z" transform="translate(-412.935 -342.97)" fill="#fee97d"/>
            <ellipse id="Ellipse_11793" data-name="Ellipse 11793" cx="1.972" cy="3.24" rx="1.972" ry="3.24" fill="#fed402"/>
          </g>
          <g id="Group_1113102" data-name="Group 1113102" transform="translate(0 6.48)">
            <path id="Path_901241" data-name="Path 901241" d="M147.794,408.419H114.153v6.48h33.641c1.089,0,1.972-1.451,1.972-3.24S148.883,408.419,147.794,408.419Z" transform="translate(-112.181 -408.419)" fill="#f9f7f8"/>
            <path id="Path_901242" data-name="Path 901242" d="M417.9,408.419h-3.96c1.089,0,1.972,1.451,1.972,3.24s-.883,3.24-1.972,3.24h3.96c1.089,0,1.972-1.451,1.972-3.24S418.985,408.419,417.9,408.419Z" transform="translate(-382.284 -408.419)" fill="#efedef"/>
            <ellipse id="Ellipse_11794" data-name="Ellipse 11794" cx="1.972" cy="3.24" rx="1.972" ry="3.24" fill="#e5e1e5"/>
          </g>
        </g>
      </g>
      <path id="Path_901243" data-name="Path 901243" d="M48.766,60.819V31.2a.743.743,0,0,0-.743-.743H.743A.743.743,0,0,0,0,31.2V35.65a.743.743,0,0,0,1.485,0V31.941h45.8V60.655H45.912V34.049a.743.743,0,0,0-.743-.743H3.6a.743.743,0,0,0-.743.743V62.787a.743.743,0,0,0,.743.743h8.128a6.034,6.034,0,0,0-.1,1.365H1.485V39.148a.743.743,0,0,0-1.485,0v26.49a.743.743,0,0,0,.743.743H11.887a4.493,4.493,0,0,0,.321.755H11.3c-1.522,0-2.714,1.749-2.714,3.982S9.78,75.1,11.3,75.1H36.765a.743.743,0,0,0,0-1.485H13.431a5.689,5.689,0,0,0,0-4.995H44.943c.58,0,1.229,1.068,1.229,2.5s-.649,2.5-1.229,2.5H40.615a.743.743,0,0,0,0,1.485h4.328c2.53-.02,3.4-4.291,2.129-6.48h.905c3.265-.089,3.611-6.625.789-7.8Zm-11.891-.164a3.959,3.959,0,0,0,1.732-.612c1.7-1.053,2.759-3.465,2.751-6.294-.011-3.9-1.839-6.406-3.547-7.447-4.489-2.694-8.576,1.859-14.148.888a9.309,9.309,0,0,0-4.571.428,4.993,4.993,0,0,0-2.687,2.21,3.163,3.163,0,0,0,.522,3.716c1.248,1.374,3.166,1.168,5.2.95,4.514-.623,6.147.291,9.46,3.338,1.475,1.32,2.985,2.671,4.669,2.822H30.071C28.15,56.592,23.691,56.8,19.374,57c-.765.036-1.557.072-2.327.085C14.3,57.131,13.559,55.17,12.7,52.9c-.727-1.927-1.479-3.92-3.575-4.59a5.167,5.167,0,0,0-4.788.908V44.561c1.736-1.041,4-.543,6.009,1.349,2.41,2.273,4.22,1.225,5.971.212,5.441-3.468,6.892,1.169,17.919-3.647,7.276-2.735,10.126,3.263,10.189,11.144v7.035H36.875Zm-4.3-3.929a21.927,21.927,0,0,0-3.8-2.912c-2.176-1.222-4.56-1.048-6.812-.8-1.787.192-3.2.344-3.939-.472a1.689,1.689,0,0,1-.307-2.026c.643-1.224,2.668-2.273,5.744-1.857a16.685,16.685,0,0,0,7.708-.991c2.316-.723,3.989-1.245,5.866-.1,1.714,1.045,2.827,3.472,2.835,6.183.007,2.316-.777,4.242-2.046,5.026C36.159,59.809,34.812,58.727,32.575,56.726ZM41.41,41.476c-2.125-1.432-4.8-1.563-7.729-.377-5.667,2.293-7.743,2.514-12.432,2.127-5.218-.51-6.973,4.538-9.881,1.6-2.219-2.094-4.851-2.778-7.028-1.919V39.676a10.7,10.7,0,0,0,1.866.065,7.043,7.043,0,0,1,4.042,1.143,6.7,6.7,0,0,0,4.887.967,7.207,7.207,0,0,0,3.97-2.765c.881-1.018,1.578-1.821,2.844-1.921,2.069-.163,3.414-.941,4.093-2.374h2.921a8.279,8.279,0,0,1-1.424,1.167c-1.921,1.295-2.116,2.685-1.658,3.554.835,1.585,3.132,1.261,4.491.723,4.85-1.921,9.352-3.295,14.055,0v5.005A8.726,8.726,0,0,0,41.41,41.476Zm3.018-3.013c-4.951-3-9.657-1.568-14.6.39-1.475.584-2.442.325-2.631-.034-.131-.249.073-.888,1.174-1.63a7.15,7.15,0,0,0,2.422-2.4H44.427Zm-20.16-3.672c-2.122,1.778-3.338-.339-6.286,3.322A5.837,5.837,0,0,1,14.8,40.4c-3.293.742-4.534-2.413-8.665-2.145a8.755,8.755,0,0,1-1.8-.082V34.791ZM4.339,62.045V51.133c1.525-1.419,2.909-1.867,4.336-1.411,1.412.451,1.98,1.957,2.637,3.7.867,2.3,1.942,5.149,5.636,5.149,3.951-.021,9.482-1.049,11.419,2.084H14.337a2.465,2.465,0,0,0-2.076,1.39H4.339Zm8.769,2.592c0-.61.255-2.5,1.229-2.5.58,0,1.229,1.068,1.229,2.5s-.649,2.5-1.229,2.5S13.108,66.066,13.108,64.637Zm-.577,6.48c0,1.429-.649,2.5-1.229,2.5s-1.229-1.068-1.229-2.5.649-2.5,1.229-2.5S12.531,69.688,12.531,71.117Zm35.447-3.982H16.466a5.689,5.689,0,0,0,0-4.995H47.978c.58,0,1.229,1.068,1.229,2.5S48.558,67.135,47.978,67.135Z"/>
    </g>
  </g>
</svg>
