<svg id="Group_1111475" data-name="Group 1111475" xmlns="http://www.w3.org/2000/svg" width="400" height="261" viewBox="0 0 400 261">
  <g id="Rectangle_406381" data-name="Rectangle 406381" fill="#fff" stroke="#12263f" stroke-width="1">
    <rect width="400" height="261" stroke="none"/>
    <rect x="0.5" y="0.5" width="399" height="260" fill="none"/>
  </g>
  <g id="Group_1111474" data-name="Group 1111474" transform="translate(9 13)">
    <path id="Path_900328" data-name="Path 900328" d="M-7438.574-4206.33v-31.822l-29.039-60.512,40.27-64.9-32.268-75.3,82.561,33.449v60.285l66.031-14.408,14.523-72.539,49.094,20.043,3.262,60.717,65.006-14.895,12.084-62.426,46.232,16.6,25.566,48.475-39.486,76.01,26.838,67.635-66-18.232-26.721-60.512h-55.857l15.98,74.426h-70.52l-20.863-74.426h-31.338l-33.83,55.941v36.393" transform="translate(7473 4443)" fill="none" stroke="#12263f" stroke-width="2"/>
    <g id="Ellipse_11665" data-name="Ellipse 11665" transform="translate(28 199)" fill="#fff" stroke="#12263f" stroke-width="2">
      <circle cx="5.5" cy="5.5" r="5.5" stroke="none"/>
      <circle cx="5.5" cy="5.5" r="4.5" fill="none"/>
    </g>
    <g id="Ellipse_11666" data-name="Ellipse 11666" transform="translate(0 139)" fill="#fff" stroke="#12263f" stroke-width="2">
      <circle cx="5.5" cy="5.5" r="5.5" stroke="none"/>
      <circle cx="5.5" cy="5.5" r="4.5" fill="none"/>
    </g>
    <g id="Ellipse_11667" data-name="Ellipse 11667" transform="translate(41 74)" fill="#fff" stroke="#12263f" stroke-width="2">
      <circle cx="5.5" cy="5.5" r="5.5" stroke="none"/>
      <circle cx="5.5" cy="5.5" r="4.5" fill="none"/>
    </g>
    <g id="Ellipse_11668" data-name="Ellipse 11668" transform="translate(9)" fill="#fff" stroke="#12263f" stroke-width="2">
      <circle cx="5.5" cy="5.5" r="5.5" stroke="none"/>
      <circle cx="5.5" cy="5.5" r="4.5" fill="none"/>
    </g>
    <g id="Ellipse_11669" data-name="Ellipse 11669" transform="translate(90 34)" fill="#fff" stroke="#12263f" stroke-width="2">
      <circle cx="5.5" cy="5.5" r="5.5" stroke="none"/>
      <circle cx="5.5" cy="5.5" r="4.5" fill="none"/>
    </g>
    <g id="Ellipse_11670" data-name="Ellipse 11670" transform="translate(91 93)" fill="#fff" stroke="#12263f" stroke-width="2">
      <circle cx="5.5" cy="5.5" r="5.5" stroke="none"/>
      <circle cx="5.5" cy="5.5" r="4.5" fill="none"/>
    </g>
    <g id="Ellipse_11671" data-name="Ellipse 11671" transform="translate(156 78)" fill="#fff" stroke="#12263f" stroke-width="2">
      <circle cx="5.5" cy="5.5" r="5.5" stroke="none"/>
      <circle cx="5.5" cy="5.5" r="4.5" fill="none"/>
    </g>
    <g id="Ellipse_11672" data-name="Ellipse 11672" transform="translate(170 6)" fill="#fff" stroke="#12263f" stroke-width="2">
      <circle cx="5.5" cy="5.5" r="5.5" stroke="none"/>
      <circle cx="5.5" cy="5.5" r="4.5" fill="none"/>
    </g>
    <g id="Ellipse_11673" data-name="Ellipse 11673" transform="translate(220 25)" fill="#fff" stroke="#12263f" stroke-width="2">
      <circle cx="5.5" cy="5.5" r="5.5" stroke="none"/>
      <circle cx="5.5" cy="5.5" r="4.5" fill="none"/>
    </g>
    <g id="Ellipse_11674" data-name="Ellipse 11674" transform="translate(224 85)" fill="#fff" stroke="#12263f" stroke-width="2">
      <circle cx="5.5" cy="5.5" r="5.5" stroke="none"/>
      <circle cx="5.5" cy="5.5" r="4.5" fill="none"/>
    </g>
    <g id="Ellipse_11675" data-name="Ellipse 11675" transform="translate(289 70)" fill="#fff" stroke="#12263f" stroke-width="2">
      <circle cx="5.5" cy="5.5" r="5.5" stroke="none"/>
      <circle cx="5.5" cy="5.5" r="4.5" fill="none"/>
    </g>
    <g id="Ellipse_11676" data-name="Ellipse 11676" transform="translate(300 9)" fill="#fff" stroke="#12263f" stroke-width="2">
      <circle cx="5.5" cy="5.5" r="5.5" stroke="none"/>
      <circle cx="5.5" cy="5.5" r="4.5" fill="none"/>
    </g>
    <g id="Ellipse_11677" data-name="Ellipse 11677" transform="translate(347 26)" fill="#fff" stroke="#12263f" stroke-width="2">
      <circle cx="5.5" cy="5.5" r="5.5" stroke="none"/>
      <circle cx="5.5" cy="5.5" r="4.5" fill="none"/>
    </g>
    <g id="Ellipse_11678" data-name="Ellipse 11678" transform="translate(372 76)" fill="#fff" stroke="#12263f" stroke-width="2">
      <circle cx="5.5" cy="5.5" r="5.5" stroke="none"/>
      <circle cx="5.5" cy="5.5" r="4.5" fill="none"/>
    </g>
    <g id="Ellipse_11679" data-name="Ellipse 11679" transform="translate(333 150)" fill="#fff" stroke="#12263f" stroke-width="2">
      <circle cx="5.5" cy="5.5" r="5.5" stroke="none"/>
      <circle cx="5.5" cy="5.5" r="4.5" fill="none"/>
    </g>
    <g id="Ellipse_11680" data-name="Ellipse 11680" transform="translate(360 218)" fill="#fff" stroke="#12263f" stroke-width="2">
      <circle cx="5.5" cy="5.5" r="5.5" stroke="none"/>
      <circle cx="5.5" cy="5.5" r="4.5" fill="none"/>
    </g>
    <g id="Ellipse_11681" data-name="Ellipse 11681" transform="translate(295 199)" fill="#fff" stroke="#12263f" stroke-width="2">
      <circle cx="5.5" cy="5.5" r="5.5" stroke="none"/>
      <circle cx="5.5" cy="5.5" r="4.5" fill="none"/>
    </g>
    <g id="Ellipse_11682" data-name="Ellipse 11682" transform="translate(268 139)" fill="#fff" stroke="#12263f" stroke-width="2">
      <circle cx="5.5" cy="5.5" r="5.5" stroke="none"/>
      <circle cx="5.5" cy="5.5" r="4.5" fill="none"/>
    </g>
    <g id="Ellipse_11683" data-name="Ellipse 11683" transform="translate(211 139)" fill="#fff" stroke="#12263f" stroke-width="2">
      <circle cx="5.5" cy="5.5" r="5.5" stroke="none"/>
      <circle cx="5.5" cy="5.5" r="4.5" fill="none"/>
    </g>
    <g id="Ellipse_11684" data-name="Ellipse 11684" transform="translate(227 213)" fill="#fff" stroke="#12263f" stroke-width="2">
      <circle cx="5.5" cy="5.5" r="5.5" stroke="none"/>
      <circle cx="5.5" cy="5.5" r="4.5" fill="none"/>
    </g>
    <g id="Ellipse_11685" data-name="Ellipse 11685" transform="translate(159 213)" fill="#fff" stroke="#12263f" stroke-width="2">
      <circle cx="5.5" cy="5.5" r="5.5" stroke="none"/>
      <circle cx="5.5" cy="5.5" r="4.5" fill="none"/>
    </g>
    <g id="Ellipse_11686" data-name="Ellipse 11686" transform="translate(135 139)" fill="#fff" stroke="#12263f" stroke-width="2">
      <circle cx="5.5" cy="5.5" r="5.5" stroke="none"/>
      <circle cx="5.5" cy="5.5" r="4.5" fill="none"/>
    </g>
    <g id="Ellipse_11687" data-name="Ellipse 11687" transform="translate(104 139)" fill="#fff" stroke="#12263f" stroke-width="2">
      <circle cx="5.5" cy="5.5" r="5.5" stroke="none"/>
      <circle cx="5.5" cy="5.5" r="4.5" fill="none"/>
    </g>
    <g id="Ellipse_11688" data-name="Ellipse 11688" transform="translate(72 194)" fill="#fff" stroke="#12263f" stroke-width="2">
      <circle cx="5.5" cy="5.5" r="5.5" stroke="none"/>
      <circle cx="5.5" cy="5.5" r="4.5" fill="none"/>
    </g>
    <rect id="Rectangle_406379" data-name="Rectangle 406379" width="6" height="11" transform="translate(31 213)" fill="#58c957"/>
    <rect id="Rectangle_406380" data-name="Rectangle 406380" width="6" height="11" transform="translate(73 213)" fill="#58c957"/>
  </g>
</svg>
