<svg xmlns="http://www.w3.org/2000/svg" xmlns:xlink="http://www.w3.org/1999/xlink" width="108.914" height="108.914" viewBox="0 0 108.914 108.914">
  <defs>
    <filter id="Path_874925" x="0" y="0" width="108.914" height="108.914" filterUnits="userSpaceOnUse">
      <feOffset dy="3" input="SourceAlpha"/>
      <feGaussianBlur stdDeviation="3" result="blur"/>
      <feFlood flood-opacity="0.161"/>
      <feComposite operator="in" in2="blur"/>
      <feComposite in="SourceGraphic"/>
    </filter>
  </defs>
  <g id="Group_1113141" data-name="Group 1113141" transform="translate(-1112.667 -8418)">
    <g id="Group_1109835" data-name="Group 1109835" transform="translate(313.167 6471.789)">
      <g id="Group_1107913" data-name="Group 1107913" transform="translate(808.5 1952.211)">
        <g transform="matrix(1, 0, 0, 1, -9, -6)" filter="url(#Path_874925)">
          <g id="Path_874925-2" data-name="Path 874925" transform="translate(9 6)" fill="#f3d82a" opacity="0.859">
            <path d="M 45.45676803588867 89.41407012939453 C 39.52198028564453 89.41407012939453 33.76551818847656 88.25206756591797 28.34726715087891 85.96034240722656 C 23.11311721801758 83.74648284912109 18.41204261779785 80.57682800292969 14.37464332580566 76.5394287109375 C 10.33724308013916 72.50202941894531 7.167593002319336 67.80095672607422 4.953730583190918 62.56679534912109 C 2.662005424499512 57.14855575561523 1.500005483627319 51.39208221435547 1.500005483627319 45.45729446411133 C 1.500005483627319 39.52198028564453 2.662005424499512 33.76551818847656 4.953730583190918 28.34726905822754 C 7.167593002319336 23.11310577392578 10.33724308013916 18.41203117370605 14.37464332580566 14.37464332580566 C 18.41204261779785 10.33724403381348 23.11311721801758 7.167593955993652 28.34726715087891 4.953731060028076 C 33.76551818847656 2.662006139755249 39.52198028564453 1.500006198883057 45.45676803588867 1.500006198883057 C 51.39155578613281 1.500006198883057 57.14802932739258 2.662006139755249 62.56626892089844 4.953731060028076 C 67.80043029785156 7.167593955993652 72.50150299072266 10.33724403381348 76.53890228271484 14.37464332580566 C 80.57630920410156 18.41203117370605 83.74595642089844 23.11310577392578 85.95981597900391 28.34726905822754 C 88.25154113769531 33.76551818847656 89.41354370117188 39.52198028564453 89.41354370117188 45.45676803588867 C 89.41354370117188 51.39208221435547 88.25154113769531 57.14855575561523 85.95981597900391 62.56679534912109 C 83.74595642089844 67.80095672607422 80.57630920410156 72.50202941894531 76.53890228271484 76.5394287109375 C 72.50150299072266 80.57682800292969 67.80043029785156 83.74648284912109 62.56626892089844 85.96034240722656 C 57.14802932739258 88.25206756591797 51.39155578613281 89.41407012939453 45.45676803588867 89.41407012939453 Z" stroke="none"/>
            <path d="M 45.45676803588867 3 C 39.72381210327148 3 34.1639404296875 4.12213134765625 28.93159484863281 6.335227966308594 C 23.87622833251953 8.473472595214844 19.33542633056641 11.53517150878906 15.43529510498047 15.435302734375 C 11.53517150878906 19.33543395996094 8.473464965820312 23.87622833251953 6.335227966308594 28.93160247802734 C 4.122123718261719 34.16394424438477 3 39.72381591796875 3 45.4572868347168 C 3 51.19024658203125 4.122123718261719 56.75011825561523 6.335227966308594 61.98246002197266 C 8.473464965820312 67.03782653808594 11.53517150878906 71.57862854003906 15.43529510498047 75.478759765625 C 19.33542633056641 79.37889099121094 23.87622833251953 82.44058990478516 28.93159484863281 84.57883453369141 C 34.1639404296875 86.79193115234375 39.72381210327148 87.9140625 45.45676803588867 87.9140625 C 51.18972396850586 87.9140625 56.74959564208984 86.79193115234375 61.98194122314453 84.57883453369141 C 67.03730773925781 82.44058990478516 71.57810974121094 79.37889099121094 75.47824096679688 75.478759765625 C 79.37837219238281 71.57862854003906 82.44007110595703 67.03782653808594 84.57830810546875 61.98246002197266 C 86.79141235351562 56.75011825561523 87.91353607177734 51.19024658203125 87.91353607177734 45.4567756652832 C 87.91353607177734 39.72381591796875 86.79141235351562 34.16394424438477 84.57830810546875 28.93160247802734 C 82.44007110595703 23.87622833251953 79.37837219238281 19.33543395996094 75.47824096679688 15.435302734375 C 71.57810974121094 11.53517150878906 67.03730773925781 8.473472595214844 61.98194122314453 6.335227966308594 C 56.74959564208984 4.12213134765625 51.18972396850586 3 45.45676803588867 3 M 45.45676803588867 0 C 70.56185150146484 0 90.91353607177734 20.35169219970703 90.91353607177734 45.4567756652832 L 90.91353607177734 45.4572868347168 C 90.91353607177734 70.5623779296875 70.56185150146484 90.9140625 45.45676803588867 90.9140625 C 20.3516845703125 90.9140625 0 70.5623779296875 0 45.4572868347168 L 0 45.4567756652832 C 0 20.35169219970703 20.3516845703125 0 45.45676803588867 0 Z" stroke="none" fill="#fff"/>
          </g>
        </g>
        <g id="Path_874923" data-name="Path 874923" transform="translate(0 0)" fill="none">
          <path d="M45.457,0A45.457,45.457,0,0,1,90.914,45.457h0A45.457,45.457,0,0,1,0,45.457H0A45.457,45.457,0,0,1,45.457,0Z" stroke="none"/>
          <path d="M 45.45676803588867 3 C 39.72381210327148 3 34.1639404296875 4.12213134765625 28.93159484863281 6.335227966308594 C 23.87622833251953 8.473472595214844 19.33542633056641 11.53517150878906 15.43529510498047 15.435302734375 C 11.53517150878906 19.33543395996094 8.473464965820312 23.87622833251953 6.335227966308594 28.93160247802734 C 4.122123718261719 34.16394424438477 3 39.72381591796875 3 45.4572868347168 C 3 51.19024658203125 4.122123718261719 56.75011825561523 6.335227966308594 61.98246002197266 C 8.473464965820312 67.03782653808594 11.53517150878906 71.57862854003906 15.43529510498047 75.478759765625 C 19.33542633056641 79.37889099121094 23.87622833251953 82.44058990478516 28.93159484863281 84.57883453369141 C 34.1639404296875 86.79193115234375 39.72381210327148 87.9140625 45.45676803588867 87.9140625 C 51.18972396850586 87.9140625 56.74959564208984 86.79193115234375 61.98194122314453 84.57883453369141 C 67.03730773925781 82.44058990478516 71.57810974121094 79.37889099121094 75.47824096679688 75.478759765625 C 79.37837219238281 71.57862854003906 82.44007110595703 67.03782653808594 84.57830810546875 61.98246002197266 C 86.79141235351562 56.75011825561523 87.91353607177734 51.19024658203125 87.91353607177734 45.4567756652832 C 87.91353607177734 39.72381591796875 86.79141235351562 34.16394424438477 84.57830810546875 28.93160247802734 C 82.44007110595703 23.87622833251953 79.37837219238281 19.33543395996094 75.47824096679688 15.435302734375 C 71.57810974121094 11.53517150878906 67.03730773925781 8.473472595214844 61.98194122314453 6.335227966308594 C 56.74959564208984 4.12213134765625 51.18972396850586 3 45.45676803588867 3 M 45.45676803588867 0 C 70.56185150146484 0 90.91353607177734 20.35169219970703 90.91353607177734 45.4567756652832 L 90.91353607177734 45.4572868347168 C 90.91353607177734 70.5623779296875 70.56185150146484 90.9140625 45.45676803588867 90.9140625 C 20.3516845703125 90.9140625 0 70.5623779296875 0 45.4572868347168 L 0 45.4567756652832 C 0 20.35169219970703 20.3516845703125 0 45.45676803588867 0 Z" stroke="none" fill="#fff"/>
        </g>
      </g>
    </g>
    <g id="Group_1113140" data-name="Group 1113140" transform="translate(1141.667 8443)">
      <path id="Path_901346" data-name="Path 901346" d="M33.52,5,28.065,15.455H1V29.932H50.864V5Z" transform="translate(-0.196 -0.783)" fill="#d19b80"/>
      <path id="Path_901347" data-name="Path 901347" d="M34.107,5,28.652,15.455H4V29.932H51.451V5Z" transform="translate(-0.783 -0.783)" fill="#be7860"/>
      <path id="Path_901348" data-name="Path 901348" d="M50.864,34c-3.121,0-3.121,1.609-6.233,1.609S41.511,34,38.39,34s-3.112,1.609-6.233,1.609S29.045,34,25.932,34s-3.112,1.609-6.225,1.609S16.587,34,13.474,34s-3.121,1.609-6.241,1.609S4.121,34,1,34v9.651H50.864Z" transform="translate(-0.196 -6.459)" fill="#647896"/>
      <path id="Path_901349" data-name="Path 901349" d="M45.218,35.609C42.1,35.609,42.1,34,38.977,34s-3.112,1.609-6.233,1.609S29.632,34,26.519,34s-3.112,1.609-6.225,1.609S17.174,34,14.061,34s-3.121,1.609-6.241,1.609A7.378,7.378,0,0,1,4,34.46v7.583H51.451V34C48.331,34,48.331,35.609,45.218,35.609Z" transform="translate(-0.783 -6.459)" fill="#506480"/>
      <path id="Path_901350" data-name="Path 901350" d="M50.864,40c-3.121,0-3.121,1.609-6.233,1.609S41.511,40,38.39,40s-3.112,1.609-6.233,1.609S29.045,40,25.932,40s-3.112,1.609-6.225,1.609S16.587,40,13.474,40s-3.121,1.609-6.241,1.609S4.121,40,1,40v8.043H50.864Z" transform="translate(-0.196 -7.634)" fill="#506480"/>
      <path id="Path_901351" data-name="Path 901351" d="M38.977,40c-3.112,0-3.112,1.609-6.233,1.609S29.632,40,26.519,40s-3.112,1.609-6.225,1.609S17.174,40,14.061,40s-3.121,1.609-6.241,1.609A7.378,7.378,0,0,1,4,40.46v7.583H51.451V40c-3.121,0-3.121,1.609-6.233,1.609S42.1,40,38.977,40Z" transform="translate(-0.783 -7.634)" fill="#3c5064"/>
      <path id="Path_901352" data-name="Path 901352" d="M28.065,17.281H1V12.455H26.6L31.381,3.3A2.413,2.413,0,0,1,33.52,2H50.864V6.826H34.982L30.2,15.984a2.413,2.413,0,0,1-2.139,1.3Z" transform="translate(-0.196 -0.196)" fill="#aafa82"/>
      <path id="Path_901353" data-name="Path 901353" d="M33.169,5.865l-5,9.591H4v2.413H28.652a2.413,2.413,0,0,0,2.139-1.3L35.57,7.413H51.451V5H34.595a1.608,1.608,0,0,0-1.426.864Z" transform="translate(-0.783 -0.783)" fill="#8ceb6e"/>
      <path id="Path_901354" data-name="Path 901354" d="M0,0H3.217V9.651A1.609,1.609,0,0,1,0,9.651V0Z" transform="translate(20.167 41.288) rotate(45)" fill="#d19b80"/>
      <path id="Path_901355" data-name="Path 901355" d="M17.47,60.893a1.609,1.609,0,0,0,1.553-.417l6.825-6.824L24.71,52.515l-6.825,6.824a1.609,1.609,0,0,0-.416,1.554Z" transform="translate(-3.409 -10.084)" fill="#be7860"/>
      <path id="Path_901356" data-name="Path 901356" d="M0,0H3.217V1.609A1.609,1.609,0,1,1,0,1.609Z" transform="translate(14.481 46.975) rotate(45)" fill="#aafa82"/>
      <path id="Path_901357" data-name="Path 901357" d="M17.885,60.723a1.609,1.609,0,0,0-.416,1.554,1.609,1.609,0,0,0,1.553-.417l1.137-1.137-1.137-1.137Z" transform="translate(-3.409 -11.468)" fill="#8ceb6e"/>
      <circle id="Ellipse_11823" data-name="Ellipse 11823" cx="7.238" cy="7.238" r="7.238" transform="translate(18.044 31.212)" fill="#f6f6fd"/>
      <path id="Path_901358" data-name="Path 901358" d="M29.478,37.565a8.043,8.043,0,1,0,8.043,8.043,8.043,8.043,0,0,0-8.043-8.043Zm0,14.477a6.434,6.434,0,1,1,6.434-6.434,6.434,6.434,0,0,1-6.434,6.434Z" transform="translate(-4.196 -7.157)" fill="#f5646e"/>
      <circle id="Ellipse_11824" data-name="Ellipse 11824" cx="1" cy="1" r="1" transform="translate(6.473 22)"/>
      <circle id="Ellipse_11825" data-name="Ellipse 11825" cx="1" cy="1" r="1" transform="translate(13.473 21)"/>
      <ellipse id="Ellipse_11826" data-name="Ellipse 11826" cx="1" cy="0.5" rx="1" ry="0.5" transform="translate(18.473 24)"/>
      <circle id="Ellipse_11827" data-name="Ellipse 11827" cx="1" cy="1" r="1" transform="translate(26.473 20)"/>
      <ellipse id="Ellipse_11828" data-name="Ellipse 11828" cx="1" cy="0.5" rx="1" ry="0.5" transform="translate(35.473 14)"/>
      <ellipse id="Ellipse_11829" data-name="Ellipse 11829" cx="0.5" cy="1" rx="0.5" ry="1" transform="translate(44.473 15)"/>
      <path id="Path_901359" data-name="Path 901359" d="M41.473,23.358a.8.8,0,0,0-1.338.893l1.609,2.413a.8.8,0,0,0,1.338-.893Z" transform="translate(-7.83 -4.306)"/>
      <path id="Path_901360" data-name="Path 901360" d="M52.373,15.981l1.609-1.609a.8.8,0,1,0-1.137-1.137l-1.608,1.609a.8.8,0,1,0,1.137,1.137Z" transform="translate(-9.983 -2.349)"/>
      <path id="Path_901361" data-name="Path 901361" d="M55.236,28.981a.8.8,0,0,0,1.137,0l1.609-1.609a.8.8,0,1,0-1.137-1.137l-1.608,1.609A.8.8,0,0,0,55.236,28.981Z" transform="translate(-10.766 -4.893)"/>
      <path id="Path_901362" data-name="Path 901362" d="M50.668,1H33.325a3.2,3.2,0,0,0-2.852,1.729L25.92,11.455H.8a.8.8,0,0,0-.8.8V40.409a.8.8,0,0,0,.8.8H17.736a7.962,7.962,0,0,0,.415.957l-5.381,5.38a2.413,2.413,0,1,0,3.412,3.413l5.381-5.381a8.019,8.019,0,0,0,11.26-4.369H50.668a.8.8,0,0,0,.8-.8V1.8a.8.8,0,0,0-.8-.8ZM1.609,13.064h24.8a.8.8,0,0,0,.713-.433L31.9,3.473a1.6,1.6,0,0,1,1.426-.865h16.54V5.826H34.787a.8.8,0,0,0-.713.433L29.3,15.416a1.6,1.6,0,0,1-1.426.865H1.609Zm29.7,20.072c-.11-.125-.216-.252-.336-.372a8.051,8.051,0,0,0-11.374,0c-.129.129-.248.262-.366.4a5.1,5.1,0,0,1-2.47-.707,6.675,6.675,0,0,0-3.481-.893,6.691,6.691,0,0,0-3.489.894,5.124,5.124,0,0,1-2.752.715,5.1,5.1,0,0,1-2.743-.714A6.73,6.73,0,0,0,1.609,31.6v-3.21a5.219,5.219,0,0,1,1.948.668,6.675,6.675,0,0,0,3.481.893,6.691,6.691,0,0,0,3.489-.894,5.122,5.122,0,0,1,2.752-.715,5.1,5.1,0,0,1,2.743.714,6.691,6.691,0,0,0,3.49.894,6.675,6.675,0,0,0,3.482-.894,5.094,5.094,0,0,1,2.743-.715,5.094,5.094,0,0,1,2.743.715,7.242,7.242,0,0,0,6.971,0,5.64,5.64,0,0,1,5.5,0,7.246,7.246,0,0,0,6.97,0,5.219,5.219,0,0,1,1.948-.667V31.6a6.73,6.73,0,0,0-2.685.853,5.64,5.64,0,0,1-5.5,0,7.246,7.246,0,0,0-6.97,0,5.112,5.112,0,0,1-2.752.714,6.486,6.486,0,0,1-.656-.035Zm18.559-6.358a6.73,6.73,0,0,0-2.685.853,5.64,5.64,0,0,1-5.5,0,7.246,7.246,0,0,0-6.97,0,5.635,5.635,0,0,1-5.5,0,6.675,6.675,0,0,0-3.482-.894,6.675,6.675,0,0,0-3.482.894,5.094,5.094,0,0,1-2.743.715,5.112,5.112,0,0,1-2.752-.716,6.675,6.675,0,0,0-3.481-.893,6.691,6.691,0,0,0-3.489.894,5.124,5.124,0,0,1-2.752.715,5.1,5.1,0,0,1-2.743-.714,6.73,6.73,0,0,0-2.685-.853V17.889H27.869a3.206,3.206,0,0,0,2.854-1.729l4.551-8.726h14.59ZM1.609,39.6V33.215a5.223,5.223,0,0,1,1.948.671,6.675,6.675,0,0,0,3.481.893,6.691,6.691,0,0,0,3.489-.894,5.122,5.122,0,0,1,2.752-.715,5.1,5.1,0,0,1,2.743.714,6.983,6.983,0,0,0,2.172.786,8.056,8.056,0,0,0-.861,4.934ZM15.045,49.825a.8.8,0,1,1-1.137-1.137l.569-.569,1.137,1.136Zm1.707-1.706-1.138-1.137,3.441-3.441a7.831,7.831,0,0,0,.54.6c.192.192.392.372.6.54ZM29.832,43a6.434,6.434,0,1,1,0-9.1A6.434,6.434,0,0,1,29.832,43Zm20.033-3.4H33.229a8.071,8.071,0,0,0-.8-4.842,6.675,6.675,0,0,0,3.024-.878,5.64,5.64,0,0,1,5.5,0,7.246,7.246,0,0,0,6.97,0,5.223,5.223,0,0,1,1.95-.669Z" transform="translate(0 0)"/>
    </g>
  </g>
</svg>
