<svg xmlns="http://www.w3.org/2000/svg" xmlns:xlink="http://www.w3.org/1999/xlink" width="108.914" height="108.914" viewBox="0 0 108.914 108.914">
  <defs>
    <filter id="Path_874925" x="0" y="0" width="108.914" height="108.914" filterUnits="userSpaceOnUse">
      <feOffset dy="3" input="SourceAlpha"/>
      <feGaussianBlur stdDeviation="3" result="blur"/>
      <feFlood flood-opacity="0.161"/>
      <feComposite operator="in" in2="blur"/>
      <feComposite in="SourceGraphic"/>
    </filter>
  </defs>
  <g id="Group_1113159" data-name="Group 1113159" transform="translate(5398 3190)">
    <g id="Group_1111494" data-name="Group 1111494" transform="translate(-6197.5 -5136.211)">
      <g id="Group_1107913" data-name="Group 1107913" transform="translate(808.5 1952.211)">
        <g transform="matrix(1, 0, 0, 1, -9, -6)" filter="url(#Path_874925)">
          <g id="Path_874925-2" data-name="Path 874925" transform="translate(9 6)" fill="#f3d82a" opacity="0.859">
            <path d="M 45.45676803588867 89.41407012939453 C 39.52198028564453 89.41407012939453 33.76551818847656 88.25206756591797 28.34726715087891 85.96034240722656 C 23.11311721801758 83.74648284912109 18.41204261779785 80.57682800292969 14.37464332580566 76.5394287109375 C 10.33724308013916 72.50202941894531 7.167593002319336 67.80095672607422 4.953730583190918 62.56679534912109 C 2.662005424499512 57.14855575561523 1.500005483627319 51.39208221435547 1.500005483627319 45.45729446411133 C 1.500005483627319 39.52198028564453 2.662005424499512 33.76551818847656 4.953730583190918 28.34726905822754 C 7.167593002319336 23.11310577392578 10.33724308013916 18.41203117370605 14.37464332580566 14.37464332580566 C 18.41204261779785 10.33724403381348 23.11311721801758 7.167593955993652 28.34726715087891 4.953731060028076 C 33.76551818847656 2.662006139755249 39.52198028564453 1.500006198883057 45.45676803588867 1.500006198883057 C 51.39155578613281 1.500006198883057 57.14802932739258 2.662006139755249 62.56626892089844 4.953731060028076 C 67.80043029785156 7.167593955993652 72.50150299072266 10.33724403381348 76.53890228271484 14.37464332580566 C 80.57630920410156 18.41203117370605 83.74595642089844 23.11310577392578 85.95981597900391 28.34726905822754 C 88.25154113769531 33.76551818847656 89.41354370117188 39.52198028564453 89.41354370117188 45.45676803588867 C 89.41354370117188 51.39208221435547 88.25154113769531 57.14855575561523 85.95981597900391 62.56679534912109 C 83.74595642089844 67.80095672607422 80.57630920410156 72.50202941894531 76.53890228271484 76.5394287109375 C 72.50150299072266 80.57682800292969 67.80043029785156 83.74648284912109 62.56626892089844 85.96034240722656 C 57.14802932739258 88.25206756591797 51.39155578613281 89.41407012939453 45.45676803588867 89.41407012939453 Z" stroke="none"/>
            <path d="M 45.45676803588867 3 C 39.72381210327148 3 34.1639404296875 4.12213134765625 28.93159484863281 6.335227966308594 C 23.87622833251953 8.473472595214844 19.33542633056641 11.53517150878906 15.43529510498047 15.435302734375 C 11.53517150878906 19.33543395996094 8.473464965820312 23.87622833251953 6.335227966308594 28.93160247802734 C 4.122123718261719 34.16394424438477 3 39.72381591796875 3 45.4572868347168 C 3 51.19024658203125 4.122123718261719 56.75011825561523 6.335227966308594 61.98246002197266 C 8.473464965820312 67.03782653808594 11.53517150878906 71.57862854003906 15.43529510498047 75.478759765625 C 19.33542633056641 79.37889099121094 23.87622833251953 82.44058990478516 28.93159484863281 84.57883453369141 C 34.1639404296875 86.79193115234375 39.72381210327148 87.9140625 45.45676803588867 87.9140625 C 51.18972396850586 87.9140625 56.74959564208984 86.79193115234375 61.98194122314453 84.57883453369141 C 67.03730773925781 82.44058990478516 71.57810974121094 79.37889099121094 75.47824096679688 75.478759765625 C 79.37837219238281 71.57862854003906 82.44007110595703 67.03782653808594 84.57830810546875 61.98246002197266 C 86.79141235351562 56.75011825561523 87.91353607177734 51.19024658203125 87.91353607177734 45.4567756652832 C 87.91353607177734 39.72381591796875 86.79141235351562 34.16394424438477 84.57830810546875 28.93160247802734 C 82.44007110595703 23.87622833251953 79.37837219238281 19.33543395996094 75.47824096679688 15.435302734375 C 71.57810974121094 11.53517150878906 67.03730773925781 8.473472595214844 61.98194122314453 6.335227966308594 C 56.74959564208984 4.12213134765625 51.18972396850586 3 45.45676803588867 3 M 45.45676803588867 0 C 70.56185150146484 0 90.91353607177734 20.35169219970703 90.91353607177734 45.4567756652832 L 90.91353607177734 45.4572868347168 C 90.91353607177734 70.5623779296875 70.56185150146484 90.9140625 45.45676803588867 90.9140625 C 20.3516845703125 90.9140625 0 70.5623779296875 0 45.4572868347168 L 0 45.4567756652832 C 0 20.35169219970703 20.3516845703125 0 45.45676803588867 0 Z" stroke="none" fill="#fff"/>
          </g>
        </g>
        <g id="Path_874923" data-name="Path 874923" transform="translate(0 0)" fill="none">
          <path d="M45.457,0A45.457,45.457,0,0,1,90.914,45.457h0A45.457,45.457,0,0,1,0,45.457H0A45.457,45.457,0,0,1,45.457,0Z" stroke="none"/>
          <path d="M 45.45676803588867 3 C 39.72381210327148 3 34.1639404296875 4.12213134765625 28.93159484863281 6.335227966308594 C 23.87622833251953 8.473472595214844 19.33542633056641 11.53517150878906 15.43529510498047 15.435302734375 C 11.53517150878906 19.33543395996094 8.473464965820312 23.87622833251953 6.335227966308594 28.93160247802734 C 4.122123718261719 34.16394424438477 3 39.72381591796875 3 45.4572868347168 C 3 51.19024658203125 4.122123718261719 56.75011825561523 6.335227966308594 61.98246002197266 C 8.473464965820312 67.03782653808594 11.53517150878906 71.57862854003906 15.43529510498047 75.478759765625 C 19.33542633056641 79.37889099121094 23.87622833251953 82.44058990478516 28.93159484863281 84.57883453369141 C 34.1639404296875 86.79193115234375 39.72381210327148 87.9140625 45.45676803588867 87.9140625 C 51.18972396850586 87.9140625 56.74959564208984 86.79193115234375 61.98194122314453 84.57883453369141 C 67.03730773925781 82.44058990478516 71.57810974121094 79.37889099121094 75.47824096679688 75.478759765625 C 79.37837219238281 71.57862854003906 82.44007110595703 67.03782653808594 84.57830810546875 61.98246002197266 C 86.79141235351562 56.75011825561523 87.91353607177734 51.19024658203125 87.91353607177734 45.4567756652832 C 87.91353607177734 39.72381591796875 86.79141235351562 34.16394424438477 84.57830810546875 28.93160247802734 C 82.44007110595703 23.87622833251953 79.37837219238281 19.33543395996094 75.47824096679688 15.435302734375 C 71.57810974121094 11.53517150878906 67.03730773925781 8.473472595214844 61.98194122314453 6.335227966308594 C 56.74959564208984 4.12213134765625 51.18972396850586 3 45.45676803588867 3 M 45.45676803588867 0 C 70.56185150146484 0 90.91353607177734 20.35169219970703 90.91353607177734 45.4567756652832 L 90.91353607177734 45.4572868347168 C 90.91353607177734 70.5623779296875 70.56185150146484 90.9140625 45.45676803588867 90.9140625 C 20.3516845703125 90.9140625 0 70.5623779296875 0 45.4572868347168 L 0 45.4567756652832 C 0 20.35169219970703 20.3516845703125 0 45.45676803588867 0 Z" stroke="none" fill="#fff"/>
        </g>
      </g>
    </g>
    <g id="Group_1113158" data-name="Group 1113158" transform="translate(-5373.529 -3233.89)">
      <path id="Path_901413" data-name="Path 901413" d="M7.97,313.96H66.352v13.671H7.97Z" transform="translate(-7.447 -211.816)" fill="#ad5f25"/>
      <path id="Path_901414" data-name="Path 901414" d="M59.315,321.544H.942A.942.942,0,0,1,0,320.6V306.941A.942.942,0,0,1,.942,306H59.315a.942.942,0,0,1,.942.941v13.666A.942.942,0,0,1,59.315,321.544ZM1.875,319.67H58.382v-11.8H1.875Z" transform="translate(-0.415 -204.793)"/>
      <path id="Path_901415" data-name="Path 901415" d="M7.97,197.06H66.352v13.758H7.97Z" transform="translate(-7.447 -108.674)" fill="#b57443"/>
      <path id="Path_901416" data-name="Path 901416" d="M59.315,204.7H.942A.942.942,0,0,1,0,203.755V190a.942.942,0,0,1,.942-.941H59.315a.942.942,0,0,1,.942.941v13.763A.942.942,0,0,1,59.315,204.7Zm-57.44-1.874H58.382V190.936H1.875Z" transform="translate(-0.415 -101.616)"/>
      <path id="Path_901417" data-name="Path 901417" d="M7.97,81.89H66.352V95.445H7.97Z" transform="translate(-7.447 -7.058)" fill="#895f3d"/>
      <g id="Group_1113157" data-name="Group 1113157" transform="translate(-0.471 73.89)">
        <path id="Path_901418" data-name="Path 901418" d="M59.315,89.32H.942A.942.942,0,0,1,0,88.379V74.832a.942.942,0,0,1,.942-.942H59.315a.942.942,0,0,1,.942.942V88.386A.942.942,0,0,1,59.315,89.32ZM1.875,87.449H58.382V75.768H1.875Z" transform="translate(0.055 -73.89)"/>
        <path id="Path_901419" data-name="Path 901419" d="M85.124,352.733h-.361a.979.979,0,0,1,0-1.957h.361a.979.979,0,1,1,0,1.957Zm-5.782,0H78.98a.979.979,0,0,1,0-1.957h.361a.979.979,0,0,1,0,1.957Zm-5.782,0H73.2a.979.979,0,0,1,0-1.957h.361a.979.979,0,1,1,0,1.957Zm-5.782,0h-.361a.979.979,0,1,1,0-1.957h.361a.979.979,0,0,1,0,1.957Zm-5.782,0h-.361a.979.979,0,0,1,0-1.957H62a.979.979,0,1,1,0,1.957Zm-5.782,0h-.361a.979.979,0,0,1,0-1.957h.361a.979.979,0,0,1,0,1.957Zm-5.782,0H50.07a.979.979,0,0,1,0-1.957h.361a.979.979,0,0,1,0,1.957Zm-5.782,0h-.364a.979.979,0,0,1,0-1.957h.361a.979.979,0,0,1,0,1.957Zm-5.782,0H38.5a.979.979,0,0,1,0-1.957h.361a.979.979,0,0,1,0,1.957Z" transform="translate(-33.083 -318.189)"/>
        <path id="Path_901420" data-name="Path 901420" d="M85.245,387.663h-.361a.979.979,0,0,1,0-1.957h.361a.979.979,0,0,1,0,1.957Zm-5.782,0H79.1a.979.979,0,0,1,0-1.957h.361a.979.979,0,0,1,0,1.957Zm-5.782,0h-.361a.979.979,0,0,1,0-1.957h.361a.979.979,0,1,1,0,1.957Zm-5.782,0h-.361a.979.979,0,0,1,0-1.957H67.9a.979.979,0,0,1,0,1.957Zm-5.782,0h-.361a.979.979,0,0,1,0-1.957h.361a.979.979,0,0,1,0,1.957Zm-5.782,0h-.361a.979.979,0,0,1,0-1.957h.361a.979.979,0,0,1,0,1.957Zm-5.782,0h-.361a.979.979,0,0,1,0-1.957h.361a.979.979,0,1,1,0,1.957Zm-5.782,0h-.364a.979.979,0,0,1,0-1.957h.361a.979.979,0,0,1,0,1.957Zm-5.782,0h-.365a.979.979,0,0,1,0-1.957h.361a.979.979,0,0,1,0,1.957Z" transform="translate(-33.189 -349.008)"/>
        <path id="Path_901421" data-name="Path 901421" d="M20.58,126.256a21.02,21.02,0,0,1-6.687-.992,21.8,21.8,0,0,0-13.048,0A.942.942,0,1,1,.2,123.5a23.453,23.453,0,0,1,14.285-.018c4.5,1.493,9.353.806,14.045.141a52.733,52.733,0,0,1,7.253-.706,58.071,58.071,0,0,1,8.6.738,54.7,54.7,0,0,0,8.141.706c3.988,0,5.1-.81,5.348-1.059l.032-.033.024-.027.018-.022.012-.016.011-.02a.942.942,0,0,1,.922-.812H58.9a.942.942,0,0,1,.942.93,1.92,1.92,0,0,1-.628,1.322c-1.059,1.07-3.308,1.611-6.679,1.611a56.761,56.761,0,0,1-8.4-.726,56.584,56.584,0,0,0-8.343-.72,51.372,51.372,0,0,0-6.99.683,57.085,57.085,0,0,1-8.219.787Z" transform="translate(0.471 -116.664)"/>
        <path id="Path_901422" data-name="Path 901422" d="M127.254,83.6h-.082c-7.306-.638-12.454-7.4-12.669-7.691a.942.942,0,0,1,1.5-1.125c.048.064,4.871,6.385,11.332,6.944a.942.942,0,0,1-.08,1.871Z" transform="translate(-100.85 -74.407)"/>
        <path id="Path_901423" data-name="Path 901423" d="M263.828,142.161a.942.942,0,0,1-.1-1.87c.1-.009,9.548-1.046,12-6.061a.941.941,0,0,1,1.684.824c-2.909,5.949-13.063,7.061-13.492,7.1A.951.951,0,0,1,263.828,142.161Z" transform="translate(-231.938 -126.73)"/>
      </g>
      <path id="Path_901424" data-name="Path 901424" d="M44.9,231.563H38.185a.979.979,0,1,1,0-1.957H44.9a.979.979,0,1,1,0,1.957Z" transform="translate(-33.212 -137.389)" fill="#fff"/>
    </g>
  </g>
</svg>
