<svg xmlns="http://www.w3.org/2000/svg" xmlns:xlink="http://www.w3.org/1999/xlink" width="108.914" height="108.914" viewBox="0 0 108.914 108.914">
  <defs>
    <filter id="Path_874925" x="0" y="0" width="108.914" height="108.914" filterUnits="userSpaceOnUse">
      <feOffset dy="3" input="SourceAlpha"/>
      <feGaussianBlur stdDeviation="3" result="blur"/>
      <feFlood flood-opacity="0.161"/>
      <feComposite operator="in" in2="blur"/>
      <feComposite in="SourceGraphic"/>
    </filter>
  </defs>
  <g id="Group_1113170" data-name="Group 1113170" transform="translate(4772 3190)">
    <g id="Group_1111496" data-name="Group 1111496" transform="translate(-5571.5 -5136.211)">
      <g id="Group_1107913" data-name="Group 1107913" transform="translate(808.5 1952.211)">
        <g transform="matrix(1, 0, 0, 1, -9, -6)" filter="url(#Path_874925)">
          <g id="Path_874925-2" data-name="Path 874925" transform="translate(9 6)" fill="#f3d82a" opacity="0.859">
            <path d="M 45.45676803588867 89.41407012939453 C 39.52198028564453 89.41407012939453 33.76551818847656 88.25206756591797 28.34726715087891 85.96034240722656 C 23.11311721801758 83.74648284912109 18.41204261779785 80.57682800292969 14.37464332580566 76.5394287109375 C 10.33724308013916 72.50202941894531 7.167593002319336 67.80095672607422 4.953730583190918 62.56679534912109 C 2.662005424499512 57.14855575561523 1.500005483627319 51.39208221435547 1.500005483627319 45.45729446411133 C 1.500005483627319 39.52198028564453 2.662005424499512 33.76551818847656 4.953730583190918 28.34726905822754 C 7.167593002319336 23.11310577392578 10.33724308013916 18.41203117370605 14.37464332580566 14.37464332580566 C 18.41204261779785 10.33724403381348 23.11311721801758 7.167593955993652 28.34726715087891 4.953731060028076 C 33.76551818847656 2.662006139755249 39.52198028564453 1.500006198883057 45.45676803588867 1.500006198883057 C 51.39155578613281 1.500006198883057 57.14802932739258 2.662006139755249 62.56626892089844 4.953731060028076 C 67.80043029785156 7.167593955993652 72.50150299072266 10.33724403381348 76.53890228271484 14.37464332580566 C 80.57630920410156 18.41203117370605 83.74595642089844 23.11310577392578 85.95981597900391 28.34726905822754 C 88.25154113769531 33.76551818847656 89.41354370117188 39.52198028564453 89.41354370117188 45.45676803588867 C 89.41354370117188 51.39208221435547 88.25154113769531 57.14855575561523 85.95981597900391 62.56679534912109 C 83.74595642089844 67.80095672607422 80.57630920410156 72.50202941894531 76.53890228271484 76.5394287109375 C 72.50150299072266 80.57682800292969 67.80043029785156 83.74648284912109 62.56626892089844 85.96034240722656 C 57.14802932739258 88.25206756591797 51.39155578613281 89.41407012939453 45.45676803588867 89.41407012939453 Z" stroke="none"/>
            <path d="M 45.45676803588867 3 C 39.72381210327148 3 34.1639404296875 4.12213134765625 28.93159484863281 6.335227966308594 C 23.87622833251953 8.473472595214844 19.33542633056641 11.53517150878906 15.43529510498047 15.435302734375 C 11.53517150878906 19.33543395996094 8.473464965820312 23.87622833251953 6.335227966308594 28.93160247802734 C 4.122123718261719 34.16394424438477 3 39.72381591796875 3 45.4572868347168 C 3 51.19024658203125 4.122123718261719 56.75011825561523 6.335227966308594 61.98246002197266 C 8.473464965820312 67.03782653808594 11.53517150878906 71.57862854003906 15.43529510498047 75.478759765625 C 19.33542633056641 79.37889099121094 23.87622833251953 82.44058990478516 28.93159484863281 84.57883453369141 C 34.1639404296875 86.79193115234375 39.72381210327148 87.9140625 45.45676803588867 87.9140625 C 51.18972396850586 87.9140625 56.74959564208984 86.79193115234375 61.98194122314453 84.57883453369141 C 67.03730773925781 82.44058990478516 71.57810974121094 79.37889099121094 75.47824096679688 75.478759765625 C 79.37837219238281 71.57862854003906 82.44007110595703 67.03782653808594 84.57830810546875 61.98246002197266 C 86.79141235351562 56.75011825561523 87.91353607177734 51.19024658203125 87.91353607177734 45.4567756652832 C 87.91353607177734 39.72381591796875 86.79141235351562 34.16394424438477 84.57830810546875 28.93160247802734 C 82.44007110595703 23.87622833251953 79.37837219238281 19.33543395996094 75.47824096679688 15.435302734375 C 71.57810974121094 11.53517150878906 67.03730773925781 8.473472595214844 61.98194122314453 6.335227966308594 C 56.74959564208984 4.12213134765625 51.18972396850586 3 45.45676803588867 3 M 45.45676803588867 0 C 70.56185150146484 0 90.91353607177734 20.35169219970703 90.91353607177734 45.4567756652832 L 90.91353607177734 45.4572868347168 C 90.91353607177734 70.5623779296875 70.56185150146484 90.9140625 45.45676803588867 90.9140625 C 20.3516845703125 90.9140625 0 70.5623779296875 0 45.4572868347168 L 0 45.4567756652832 C 0 20.35169219970703 20.3516845703125 0 45.45676803588867 0 Z" stroke="none" fill="#fff"/>
          </g>
        </g>
        <g id="Path_874923" data-name="Path 874923" transform="translate(0 0)" fill="none">
          <path d="M45.457,0A45.457,45.457,0,0,1,90.914,45.457h0A45.457,45.457,0,0,1,0,45.457H0A45.457,45.457,0,0,1,45.457,0Z" stroke="none"/>
          <path d="M 45.45676803588867 3 C 39.72381210327148 3 34.1639404296875 4.12213134765625 28.93159484863281 6.335227966308594 C 23.87622833251953 8.473472595214844 19.33542633056641 11.53517150878906 15.43529510498047 15.435302734375 C 11.53517150878906 19.33543395996094 8.473464965820312 23.87622833251953 6.335227966308594 28.93160247802734 C 4.122123718261719 34.16394424438477 3 39.72381591796875 3 45.4572868347168 C 3 51.19024658203125 4.122123718261719 56.75011825561523 6.335227966308594 61.98246002197266 C 8.473464965820312 67.03782653808594 11.53517150878906 71.57862854003906 15.43529510498047 75.478759765625 C 19.33542633056641 79.37889099121094 23.87622833251953 82.44058990478516 28.93159484863281 84.57883453369141 C 34.1639404296875 86.79193115234375 39.72381210327148 87.9140625 45.45676803588867 87.9140625 C 51.18972396850586 87.9140625 56.74959564208984 86.79193115234375 61.98194122314453 84.57883453369141 C 67.03730773925781 82.44058990478516 71.57810974121094 79.37889099121094 75.47824096679688 75.478759765625 C 79.37837219238281 71.57862854003906 82.44007110595703 67.03782653808594 84.57830810546875 61.98246002197266 C 86.79141235351562 56.75011825561523 87.91353607177734 51.19024658203125 87.91353607177734 45.4567756652832 C 87.91353607177734 39.72381591796875 86.79141235351562 34.16394424438477 84.57830810546875 28.93160247802734 C 82.44007110595703 23.87622833251953 79.37837219238281 19.33543395996094 75.47824096679688 15.435302734375 C 71.57810974121094 11.53517150878906 67.03730773925781 8.473472595214844 61.98194122314453 6.335227966308594 C 56.74959564208984 4.12213134765625 51.18972396850586 3 45.45676803588867 3 M 45.45676803588867 0 C 70.56185150146484 0 90.91353607177734 20.35169219970703 90.91353607177734 45.4567756652832 L 90.91353607177734 45.4572868347168 C 90.91353607177734 70.5623779296875 70.56185150146484 90.9140625 45.45676803588867 90.9140625 C 20.3516845703125 90.9140625 0 70.5623779296875 0 45.4572868347168 L 0 45.4567756652832 C 0 20.35169219970703 20.3516845703125 0 45.45676803588867 0 Z" stroke="none" fill="#fff"/>
        </g>
      </g>
    </g>
    <g id="Group_1113169" data-name="Group 1113169" transform="translate(-4746 -3167)">
      <g id="Group_1113167" data-name="Group 1113167" transform="translate(0.921 0.921)">
        <g id="Group_1113162" data-name="Group 1113162">
          <path id="Path_901438" data-name="Path 901438" d="M30.488,6.529a1.843,1.843,0,1,0-1.843,1.843A1.848,1.848,0,0,0,30.488,6.529Zm1.843,26.723a11.867,11.867,0,0,0,1.843,6.377V55.368a.924.924,0,0,1-.921.921H6.529A5.533,5.533,0,0,1,1,50.761V40.081a3.147,3.147,0,0,1,.921-2.221A3.147,3.147,0,0,1,1,35.639V18.508A17.512,17.512,0,0,1,18.508,1H33.252a.924.924,0,0,1,.921.921V26.8l.037.018A11.879,11.879,0,0,0,32.331,33.252Z" transform="translate(-1 -1)" fill="#f0d0b4"/>
        </g>
        <g id="Group_1113163" data-name="Group 1113163" transform="translate(40.546 43.909)">
          <path id="Path_901439" data-name="Path 901439" d="M50.529,48.65v9.537a1.848,1.848,0,0,1-1.843,1.843H46.843A1.848,1.848,0,0,1,45,58.187V48.65a12.009,12.009,0,0,0,5.529,0Z" transform="translate(-45 -48.65)" fill="#969faa"/>
        </g>
        <g id="Group_1113164" data-name="Group 1113164" transform="translate(31.331 20.273)">
          <path id="Path_901440" data-name="Path 901440" d="M46.979,23a11.994,11.994,0,1,1-10.1,5.547A11.979,11.979,0,0,1,46.979,23Z" transform="translate(-35 -23)" fill="#fcd770"/>
        </g>
        <g id="Group_1113165" data-name="Group 1113165" transform="translate(35.017 23.959)">
          <ellipse id="Ellipse_11848" data-name="Ellipse 11848" cx="8.5" cy="8" rx="8.5" ry="8" transform="translate(0.062 0.12)" fill="#69d6f4"/>
        </g>
        <g id="Group_1113166" data-name="Group 1113166" transform="translate(5.529 14.744)">
          <path id="Path_901441" data-name="Path 901441" d="M29.116,17.921v1.843a.924.924,0,0,1-.921.921H7.921A.924.924,0,0,1,7,19.764V17.921A.924.924,0,0,1,7.921,17H28.194A.924.924,0,0,1,29.116,17.921Z" transform="translate(-7 -17)" fill="#b4dd7f"/>
        </g>
      </g>
      <g id="Group_1113168" data-name="Group 1113168" transform="translate(0 0)">
        <path id="Path_901442" data-name="Path 901442" d="M57.133,33.174a12.813,12.813,0,0,0-2.03-6.919l1.738-1.622-1.258-1.348L54,24.766a12.858,12.858,0,0,0-18.979-.6V7.372H49.761a1.843,1.843,0,1,1,0,3.686H42.389a3.686,3.686,0,1,0,0,7.372h1.843V16.587H42.389a1.843,1.843,0,1,1,0-3.686h7.372a3.686,3.686,0,1,0,0-7.372H35.017V1.843A1.845,1.845,0,0,0,33.174,0H18.43A18.451,18.451,0,0,0,0,18.43V35.557a4.039,4.039,0,0,0,.661,2.224A4.039,4.039,0,0,0,0,40.006V50.682a6.459,6.459,0,0,0,6.45,6.45H33.174a1.845,1.845,0,0,0,1.843-1.843v-13.1a12.905,12.905,0,0,0,5.529,3.346v8.837a2.768,2.768,0,0,0,2.764,2.764h1.843a2.768,2.768,0,0,0,2.764-2.764V45.531a12.919,12.919,0,0,0,9.215-12.357ZM33.174,55.29H6.45a4.613,4.613,0,0,1-4.607-4.607V40.006a2.21,2.21,0,0,1,.651-1.573l.651-.652-.651-.651a2.211,2.211,0,0,1-.651-1.573V18.43A16.606,16.606,0,0,1,18.43,1.843H33.174V5.529H31.161a2.765,2.765,0,1,0,0,1.843h2.013V26.563a12.778,12.778,0,0,0,0,13.222ZM29.488,6.45a.921.921,0,1,1-.921-.921A.922.922,0,0,1,29.488,6.45ZM46.075,54.368a.922.922,0,0,1-.921.921H43.31a.922.922,0,0,1-.921-.921V45.927a12.927,12.927,0,0,0,1.843.147,12.794,12.794,0,0,0,1.843-.147ZM44.232,44.232a11.058,11.058,0,1,1,8.419-18.211l-1.345,1.256a9.19,9.19,0,1,0,1.046,1.545l1.378-1.285a11.036,11.036,0,0,1-9.5,16.695Zm-1.865-6.09,8.575-8a7.371,7.371,0,1,1-.987-1.6l-7.544,7.041-2.135-2.134-1.3,1.3Z" transform="translate(0 0)"/>
        <path id="Path_901443" data-name="Path 901443" d="M50,18h1.843v1.843H50Z" transform="translate(-3.925 -1.413)"/>
        <path id="Path_901444" data-name="Path 901444" d="M54,18h1.843v1.843H54Z" transform="translate(-4.239 -1.413)"/>
        <path id="Path_901445" data-name="Path 901445" d="M5,40H8.686v1.843H5Z" transform="translate(-0.393 -3.14)"/>
        <path id="Path_901446" data-name="Path 901446" d="M11,40h3.686v1.843H11Z" transform="translate(-0.864 -3.14)"/>
        <path id="Path_901447" data-name="Path 901447" d="M17,40h3.686v1.843H17Z" transform="translate(-1.335 -3.14)"/>
        <path id="Path_901448" data-name="Path 901448" d="M23,40h3.686v1.843H23Z" transform="translate(-1.806 -3.14)"/>
        <path id="Path_901449" data-name="Path 901449" d="M29,40h3.686v1.843H29Z" transform="translate(-2.277 -3.14)"/>
        <path id="Path_901450" data-name="Path 901450" d="M9,44h1.843v8.293H9Z" transform="translate(-0.707 -3.454)"/>
        <path id="Path_901451" data-name="Path 901451" d="M9,54h1.843v1.843H9Z" transform="translate(-0.707 -4.239)"/>
        <path id="Path_901452" data-name="Path 901452" d="M18,44h1.843v8.293H18Z" transform="translate(-1.413 -3.454)"/>
        <path id="Path_901453" data-name="Path 901453" d="M18,54h1.843v1.843H18Z" transform="translate(-1.413 -4.239)"/>
        <path id="Path_901454" data-name="Path 901454" d="M21,44h1.843v8.293H21Z" transform="translate(-1.649 -3.454)"/>
        <path id="Path_901455" data-name="Path 901455" d="M21,54h1.843v1.843H21Z" transform="translate(-1.649 -4.239)"/>
        <path id="Path_901456" data-name="Path 901456" d="M12,44h1.843V55.058H12Z" transform="translate(-0.942 -3.454)"/>
        <path id="Path_901457" data-name="Path 901457" d="M6,44H7.843V55.058H6Z" transform="translate(-0.471 -3.454)"/>
        <path id="Path_901458" data-name="Path 901458" d="M27,44h1.843v8.293H27Z" transform="translate(-2.12 -3.454)"/>
        <path id="Path_901459" data-name="Path 901459" d="M27,54h1.843v1.843H27Z" transform="translate(-2.12 -4.239)"/>
        <path id="Path_901460" data-name="Path 901460" d="M24,44h1.843V55.058H24Z" transform="translate(-1.884 -3.454)"/>
        <path id="Path_901461" data-name="Path 901461" d="M30,44h1.843V55.058H30Z" transform="translate(-2.355 -3.454)"/>
        <path id="Path_901462" data-name="Path 901462" d="M15,44h1.843V55.058H15Z" transform="translate(-1.178 -3.454)"/>
        <path id="Path_901463" data-name="Path 901463" d="M7.843,21.529H28.116a1.845,1.845,0,0,0,1.843-1.843V17.843A1.845,1.845,0,0,0,28.116,16H7.843A1.845,1.845,0,0,0,6,17.843v1.843A1.845,1.845,0,0,0,7.843,21.529Zm12.9-1.843H18.9V17.843h1.843Zm1.843-1.843H24.43v1.843H22.587Zm-5.529,1.843H15.215V17.843h1.843Zm-3.686,0H11.529V17.843h1.843Zm14.746,0H26.273V17.843h1.843ZM7.843,17.843H9.686v1.843H7.843Z" transform="translate(-0.471 -1.256)"/>
        <path id="Path_901464" data-name="Path 901464" d="M6,12H29.959v1.843H6Z" transform="translate(-0.471 -0.942)"/>
        <path id="Path_901465" data-name="Path 901465" d="M8,26H9.843v1.843H8Z" transform="translate(-0.628 -2.041)"/>
        <path id="Path_901466" data-name="Path 901466" d="M12,26H28.587v1.843H12Z" transform="translate(-0.942 -2.041)"/>
        <path id="Path_901467" data-name="Path 901467" d="M8,30H9.843v1.843H8Z" transform="translate(-0.628 -2.355)"/>
        <path id="Path_901468" data-name="Path 901468" d="M12,30H28.587v1.843H12Z" transform="translate(-0.942 -2.355)"/>
        <path id="Path_901469" data-name="Path 901469" d="M8,34H9.843v1.843H8Z" transform="translate(-0.628 -2.669)"/>
        <path id="Path_901470" data-name="Path 901470" d="M12,34H28.587v1.843H12Z" transform="translate(-0.942 -2.669)"/>
      </g>
    </g>
  </g>
</svg>
