<svg xmlns="http://www.w3.org/2000/svg" xmlns:xlink="http://www.w3.org/1999/xlink" width="295" height="208" viewBox="0 0 295 208">
  <defs>
    <clipPath id="clip-path">
      <rect id="Rectangle_406589" data-name="Rectangle 406589" width="226" height="208" transform="translate(-0.319 0)" fill="none"/>
    </clipPath>
  </defs>
  <g id="Group_1113176" data-name="Group 1113176" transform="translate(-180 -10223)">
    <rect id="Rectangle_406425" data-name="Rectangle 406425" width="295" height="138.13" rx="8" transform="translate(180 10265)" fill="#c1dbad"/>
    <g id="Group_1113175" data-name="Group 1113175" transform="translate(217.409 10223.025)">
      <g id="Group_1113174" data-name="Group 1113174" transform="translate(-0.423 -0.025)" clip-path="url(#clip-path)">
        <path id="Path_901635" data-name="Path 901635" d="M36.924,1624.024c5.381,1.883,10.816,3.779,16.529,4.584,6.6.93,13.381.375,19.982,1.309,7.43,1.051,14.408,3.957,21.844,4.975,6.278.859,12.734.349,18.978,1.386,7.784,1.292,15.6,4.962,23.21,3.028,3.717-.944,6.852-3.136,10.347-4.606,12.847-5.4,28.615-.475,41.983-4.766,8.65-2.776,15.46-9.176,24.292-11.455,3.156-.815,6.542-1.094,9.414-2.512,4.044-2,6.391-5.925,7.775-9.844,1.03-2.918,1.65-5.934,2.645-8.861.234-.689.489-1.372.775-2.046a5.28,5.28,0,0,0,.4-.95,2.489,2.489,0,0,0-.117-1.118,1.053,1.053,0,0,0-.241-.456.907.907,0,0,0-.693-.236,1.206,1.206,0,0,0-.684.283c-.122.1-.223.224-.355.316-.34.234-.6-.019-.929-.143q-.569-.216-1.15-.408-1.161-.385-2.358-.677a37.771,37.771,0,0,0-4.9-.849,56.655,56.655,0,0,0-9.6-.155c-7.23.442-14.371,1.808-21.613,2.016-14.232.408-28.144-3.657-42.35-4.531-12.651-.778-25.321.985-38,1.055-12.3.068-24.627-1.457-36.862-.354-11.02.994-21.642,4.09-32.162,7.167l-23.549,6.888c-5.457,1.6-12.139,6.077-6.945,11.332,5.061,5.12,17.406,7.2,24.331,9.626" transform="translate(-9.372 -1432.432)" fill="#cb6531"/>
        <path id="Path_901636" data-name="Path 901636" d="M26.55,1450.312q-1.07.011-2.143-.041c-1.985-.1-4.06-.366-5.893.406-2.959,1.247-4.22,4.655-5.677,7.526a29.026,29.026,0,0,1-5.081,7.1,9.253,9.253,0,0,0-1.9,2.342c-.9,1.882-.24,4.25-1.215,6.092-.667,1.259-1.964,2.023-3.026,2.97s-1.973,2.4-1.483,3.735c1.115,3.044,10.165,2.883,12.792,3.184a83.291,83.291,0,0,0,18.993-.007c8.6-.992,17.572-3.3,25.712-1.135,4.081,1.086,7.57,3.237,11.841,3.862,6.082.89,12.066-1.485,18.134-2.458,12.093-1.939,23.978,1.686,35.52,3.693,5.674.986,11.211,1.83,16.94.97,6.367-.955,12.452-2.737,18.848-3.656,7.963-1.144,16.081-1.211,24.159-1.484,3.707-.125,8.157.089,11.64-.831,2.429-.641,3-2.057,6.278-1.753,2.242.208,4.331.9,6.536,1.256,4.507.722,9.972-.379,11.949-3.355,2.145-3.231-.379-7.479,2.506-10.406,1.344-1.365,3.861-2.6,3.222-4.2-.483-1.207-2.5-1.655-4.2-1.988-4.6-.9-9.279-2.481-11.663-5.412-1.54-1.894-2.274-4.419-5.095-5.3a11.124,11.124,0,0,0-3.434-.336c-9.559.156-18.769,2.8-28.321,3.121-13.248.447-25.94-3.733-38.868-5.91-13.2-2.224-26.651-1.906-40.067-2.219-16.9-.395-33.913-.781-50.584,2.005-5.453.912-10.912,2.165-16.42,2.223" transform="translate(0.296 -1304.078)" fill="#66cb00"/>
        <path id="Path_901637" data-name="Path 901637" d="M755.253,1871a6.923,6.923,0,0,1-6.172-3.035,11.483,11.483,0,0,1-1.716-4.369c-.119-.588-.922-3.262.175-2.956.963.269,1.5,2.348,1.8,3.045a19.058,19.058,0,0,0,2.237,3.868,15.2,15.2,0,0,0,1.695,1.894c.291.274,1.545,1.6,1.98,1.554" transform="translate(-673.453 -1678.22)"/>
        <path id="Path_901638" data-name="Path 901638" d="M1265.718,1887.869a41.239,41.239,0,0,1-10.967,21.159,23.4,23.4,0,0,0,8.393-8.7,44.791,44.791,0,0,0,3.952-11.017,1.676,1.676,0,0,0-.01-1.2,1.081,1.081,0,0,0-1.367-.251" transform="translate(-1131.459 -1702.671)"/>
        <path id="Path_901639" data-name="Path 901639" d="M1837.2,1844.778a10.257,10.257,0,0,0,4.436-2.807c3.975-3.881,7.547-9.916,7.316-15.308-1.863.014-1.909.577-2.207,1.959a37.01,37.01,0,0,1-5.9,12.486c-.732.925-2.37,3.338-3.646,3.67" transform="translate(-1656.811 -1647.6)"/>
        <path id="Path_901640" data-name="Path 901640" d="M2212,1799.309a.371.371,0,0,0,.38,0,.885.885,0,0,0,.27-.265,8.313,8.313,0,0,0,1.516-3c.157-.654.377-1.836-.109-2.414-.459.376-.446,1.527-.556,2.053a9.567,9.567,0,0,1-1.5,3.621" transform="translate(-1994.872 -1617.81)"/>
        <path id="Path_901641" data-name="Path 901641" d="M318.443,1851.482a39.16,39.16,0,0,0,7.685,4.347,40.435,40.435,0,0,1-6.126-1.922,12.414,12.414,0,0,1-3.841-1.965,7.516,7.516,0,0,1-2.231-6.457c.78.673,1.053,2.167,1.658,3.031a14.251,14.251,0,0,0,2.856,2.966" transform="translate(-282.801 -1664.577)"/>
        <path id="Path_901642" data-name="Path 901642" d="M1356.971,557.119v23.156a8.46,8.46,0,0,1-2.348,6.3c-2.687,2.822-7.619,3.1-11.228,3.9-4.641,1.037-9.288,2.05-13.953,2.969-1.961.386-4.083.738-5.887-.125-.065-2.1.075-4.364-.172-6.431-.068-.567-1.617-5.029-2.408-4.784q5.934-1.836,11.912-3.526c1.99-.563,3.981-1.18,5.993-1.656,1.767-.418,2.037-.986,2.6-2.806,1.1-3.553,1.642-7.257,2.578-10.858s2.327-7.192,4.844-9.924" transform="translate(-1191.191 -499.086)" fill="#31cdfe"/>
        <path id="Path_901643" data-name="Path 901643" d="M1324.132,592.051a6.164,6.164,0,0,1-2.705-.557.218.218,0,0,1-.125-.191c-.022-.731-.021-1.495-.018-2.234a35.214,35.214,0,0,0-.152-4.178c-.093-.779-1.6-4.6-2.116-4.6h-.009a.22.22,0,1,1-.13-.42h0c3.918-1.214,7.927-2.4,11.916-3.528.538-.151,1.075-.308,1.613-.464,1.434-.416,2.916-.846,4.39-1.2,1.677-.4,1.891-.877,2.444-2.656.646-2.081,1.106-4.254,1.552-6.356.312-1.477.636-3.005,1.022-4.493,1.161-4.469,2.717-7.653,4.9-10.02a.22.22,0,0,1,.323.3c-2.128,2.31-3.651,5.434-4.793,9.83-.384,1.477-.706,3-1.017,4.474-.447,2.111-.91,4.3-1.563,6.4-.574,1.846-.869,2.506-2.763,2.955-1.463.346-2.94.774-4.369,1.189-.538.156-1.077.313-1.614.464-3.813,1.078-7.642,2.209-11.393,3.366a15.154,15.154,0,0,1,2.046,4.706,35.529,35.529,0,0,1,.156,4.231c0,.69,0,1.4.014,2.083,1.667.738,3.614.447,5.629.052,4.95-.974,9.829-2.047,13.948-2.967.751-.167,1.545-.31,2.387-.461,3.117-.559,6.648-1.194,8.73-3.378a8.212,8.212,0,0,0,2.287-6.13V555.1a.22.22,0,1,1,.44,0v23.156a8.644,8.644,0,0,1-2.409,6.449c-2.18,2.289-5.788,2.938-8.97,3.509-.837.15-1.627.292-2.368.458-4.122.92-9,1.994-13.959,2.971a17.636,17.636,0,0,1-3.32.413" transform="translate(-1189.16 -497.064)"/>
        <path id="Path_901644" data-name="Path 901644" d="M1100.093,972.258a9.844,9.844,0,0,0-2.335.848,11.271,11.271,0,0,0-3.422,3.313c-1.708,2.2-3.458,4.491-4.154,7.195-1.2,4.654,2.659,10.268,4.725,14.238q4.643,8.92,9.735,17.594c.953,1.624,2.013,3.329,3.708,4.139a9.044,9.044,0,0,0,4.83.444,70.3,70.3,0,0,0,11.706-2.2c6.4-1.782,12.7-4.622,17.293-9.437,3.612-3.786,7.056-10.251,5.965-15.708-.959-4.8-8.6-8.6-12.626-10.949a72.355,72.355,0,0,0-18.311-7.541c-4.566-1.182-11.858-3.167-17.116-1.936" transform="translate(-982.817 -876.597)"/>
        <path id="Path_901645" data-name="Path 901645" d="M1056.755,1471.592a4.849,4.849,0,0,0-2.12,3.789c.156,2.595,3.387,3.914,4.23,6.372a5.194,5.194,0,0,1-.391,3.835,18.225,18.225,0,0,1-2.209,3.264,7.013,7.013,0,0,0-1.246,2.109c-.733,2.328.978,4.762,3,6.123,3.287,2.216,6.521,2.1,10.308,1.81,3.9-.3,7.772-.813,11.636-1.388,7.738-1.152,15.454-2.566,23.272-3.048,4.229-.26,8.672-.2,12.42,1.781a32.783,32.783,0,0,0,3.95,2.144c2.212.8,4.65.495,6.981.176l10.757-1.473c4.258-.583,8.954-1.407,11.611-4.8a4.379,4.379,0,0,0,1.091-3.159c-.29-2.223-2.95-3.47-3.449-5.656-.41-1.8.76-3.521,1.676-5.118s1.566-3.784.33-5.147a4.3,4.3,0,0,0-2.155-1.106c-5.587-1.48-11.475-.109-17.141,1.034-6.458,1.3-13.112,2.267-19.706,1.631-5.029-.485-12.532-1.748-14.937-6.745a1.63,1.63,0,0,0-.523-.716,1.6,1.6,0,0,0-.9-.159l-16.716.305c-2.34.043-4.681.086-7.019.194a29.477,29.477,0,0,0-7.112.982,16.74,16.74,0,0,0-5.269,2.666q-.189.142-.375.3" transform="translate(-950.954 -1323.326)" fill="#6ba32b"/>
        <path id="Path_901646" data-name="Path 901646" d="M1120.759,1126.91c-5.5,4.652-6.39,13.506-3.517,19.829,2.368,5.213,9.541,5.089,14.349,5.361,5.938.337,11.8-.044,17.731-.044,1.056-.065,12.487-.487,12.531-.942q.889-9.148,1.779-18.3a96.658,96.658,0,0,0,29.057-3.554,27.507,27.507,0,0,0,6.694-2.627c8.316-4.946,8.859-15.749,9.365-24.4.147-2.513-.09-5.587-2.334-6.711a6.626,6.626,0,0,0-2.371-.525l-22.673-2.148c-10.967-1.039-21.035,6.634-30.129,12.149q-10.166,6.164-19.687,13.324c-3.226,2.427-6.32,5.006-9.48,7.515-.433.344-.875.7-1.315,1.072" transform="translate(-1005.986 -985.633)"/>
        <path id="Path_901647" data-name="Path 901647" d="M1607.1,561.43c-3.584-.191-7.25-1.249-10.733-.378a16.434,16.434,0,0,1-3.381.8c-1.7.055-3.2-1.405-4.958-1.728-2.244-.412-4.5-.912-6.1-2.7-1.672-1.875-2.036-4.548-2.324-7.048-1.9-16.471-4.5-32.863-2.044-49.432.363-2.446,2.1-3.564,4-4.911,3.538-2.513,7.446-5.04,11.779-4.958a13.485,13.485,0,0,1,8.642,3.773c3.122,2.859,5.134,6.709,7.031,10.5,8.054,16.093,16.281,33.018,19.892,50.766a5.174,5.174,0,0,1,.125,2.12c-.448,2.057-3.086,2.791-5.148,2.408s-4-1.463-6.1-1.448c-2.323.017-4.41,1.367-6.666,1.926a13.575,13.575,0,0,1-4.016.306" transform="translate(-1421.72 -442.933)" fill="#31cdfe"/>
        <path id="Path_901648" data-name="Path 901648" d="M1499.469,1475.174a.22.22,0,0,1-.007-.44l8.447-.265a.233.233,0,0,1,.227.213.22.22,0,0,1-.213.227l-8.447.265Z" transform="translate(-1351.99 -1329.93)" fill="#fff"/>
        <path id="Path_901649" data-name="Path 901649" d="M1568.471,1438.461a1.172,1.172,0,0,0-.024.142l-2.356,22.251a36.473,36.473,0,0,0,9.967-2.265l17.977-5.9c.04,3.86-3.259,8.135-6.69,9.877-1.008.512-2.294,1.145-2.236,2.277.068,1.323,1.833,1.681,3.153,1.653l4.756-.1a17.847,17.847,0,0,0,4.858-.55c4.267-1.3,6.913-5.526,8.743-9.61a65.133,65.133,0,0,0,3.546-10.047,14.648,14.648,0,0,0,.541-7c-.538-2.3-2.35-4.457-4.7-4.675s-4.4,1.442-6.5,2.519c-3.578,1.833-7.732,2.049-11.745,2.229-6.234.279-13.178.45-19.293-.8" transform="translate(-1412.28 -1293.874)" fill="#ff9a32"/>
        <path id="Path_901650" data-name="Path 901650" d="M1586.081,1464.651c-1.54,0-3.152-.487-3.224-1.863-.065-1.257,1.251-1.925,2.308-2.46,3.156-1.6,6.481-5.592,6.615-9.4l-17.684,5.809a36.616,36.616,0,0,1-10.028,2.274.232.232,0,0,1-.169-.07.221.221,0,0,1-.058-.172l2.356-22.249a1.51,1.51,0,0,1,.029-.172.214.214,0,0,1,.258-.163c6.143,1.254,13.151,1.066,19.24.794,3.774-.168,8.051-.359,11.654-2.2.479-.246.966-.528,1.437-.8,1.624-.943,3.3-1.937,5.183-1.741,2.639.244,4.385,2.683,4.89,4.844a14.883,14.883,0,0,1-.542,7.106,65.5,65.5,0,0,1-3.558,10.08c-2.486,5.547-5.308,8.64-8.88,9.731a18.138,18.138,0,0,1-4.918.559l-4.756.1h-.153M1592,1450.4a.215.215,0,0,1,.128.041.222.222,0,0,1,.092.177c.041,4.066-3.5,8.4-6.811,10.076-.991.5-2.166,1.1-2.115,2.068.055,1.072,1.507,1.447,2.791,1.447.046,0,.092,0,.138,0l4.755-.1a17.616,17.616,0,0,0,4.8-.538c3.442-1.053,6.177-4.068,8.606-9.49a64.991,64.991,0,0,0,3.534-10.014,14.5,14.5,0,0,0,.54-6.892c-.471-2.012-2.081-4.28-4.5-4.507-1.732-.167-3.357.777-4.921,1.686-.476.275-.968.561-1.457.812-3.688,1.889-8.016,2.081-11.836,2.251-6.037.27-12.981.459-19.118-.759l-2.32,21.9a37.2,37.2,0,0,0,9.652-2.243l17.977-5.9a.234.234,0,0,1,.069-.01" transform="translate(-1410.25 -1291.809)" fill="#231f20"/>
        <path id="Path_901651" data-name="Path 901651" d="M1227.268,1175.022a.22.22,0,0,1-.143-.387c12.692-10.8,21.787-16.64,36.041-23.134a.219.219,0,1,1,.182.4c-14.212,6.476-23.281,12.3-35.938,23.068a.215.215,0,0,1-.143.053" transform="translate(-1106.471 -1038.602)" fill="#fff"/>
        <path id="Path_901652" data-name="Path 901652" d="M1069.811,722.111c-.006-.014-.058-.019-.071-.022a8.355,8.355,0,0,0-1.067-.156c-.712-.09-1.429-.173-2.149-.255q-1.487-.169-2.994-.331-1.787-.194-3.6-.384-1.962-.207-3.954-.414l-4.033-.416-3.812-.39-3.263-.331-2.368-.239-.738-.074c-.374-.039-.515-.061-.8.244l-.739.806.566.259,1.047.59a1.9,1.9,0,0,1,.639.411,4.879,4.879,0,0,1,.289.594l.655,1.345,1.573,3.228,1.828,3.752,1.961,4.024,1.959,4.021,1.81,3.715,1.5,3.08,1.024,2.1.378.775c.036.074.6.036.679.041l1.968.117,2.907.173,3.5.208,3.757.224,3.707.221,3.371.2,1.477.088.672.04a1.849,1.849,0,0,1,.612.056,2.669,2.669,0,0,1,.4.3l.586.443.761.575.451-.507a4.572,4.572,0,0,0,.518-.583.18.18,0,0,0,.006-.208c-.037-.094-.075-.187-.113-.28l-.4-1-.6-1.5-.767-1.9-.889-2.206-.973-2.414-1.02-2.531-1.032-2.562-1.013-2.512-.962-2.388-.884-2.194-.78-1.935-.65-1.613-.5-1.23-.317-.785-.112-.277" transform="translate(-937.964 -648.584)" fill="#fff"/>
        <path id="Path_901653" data-name="Path 901653" d="M1077.827,748.933a.226.226,0,0,1-.133-.045l-1.347-1.018c-.045-.034-.09-.072-.136-.112a1.171,1.171,0,0,0-.225-.167,1.072,1.072,0,0,0-.348-.034c-.064,0-.125,0-.182,0l-21.358-1.273a.8.8,0,0,0-.107,0c-.456.01-.673.01-.759-.169l-12.686-26.037c-.034-.067-.064-.138-.095-.21a2.349,2.349,0,0,0-.18-.359,1.084,1.084,0,0,0-.378-.244c-.066-.033-.13-.065-.187-.1-.348-.2-.7-.394-1.046-.59l-.549-.253a.217.217,0,0,1-.125-.155.22.22,0,0,1,.053-.193l.739-.807a.908.908,0,0,1,.957-.316l14.238,1.454q1.992.206,3.954.413l3.6.385q1.507.162,2.995.33c.722.083,1.439.165,2.152.255l.276.031a5.739,5.739,0,0,1,.819.131.267.267,0,0,1,.217.148.013.013,0,0,0,0,.005l11.014,27.329a.389.389,0,0,1-.023.4,2.522,2.522,0,0,1-.375.442c-.058.058-.115.115-.165.172l-.451.507a.223.223,0,0,1-.165.074m-2.123-1.816a1.1,1.1,0,0,1,.471.077,1.494,1.494,0,0,1,.322.229c.04.034.077.067.115.1l1.185.895.316-.354c.054-.062.118-.125.182-.191a2.154,2.154,0,0,0,.311-.359l-.524-1.287-10.461-25.954a5.961,5.961,0,0,0-.717-.107l-.283-.033c-.711-.089-1.427-.172-2.147-.255q-1.485-.168-2.992-.33l-3.6-.385q-1.962-.206-3.954-.413l-14.216-1.45c-.361-.041-.413-.043-.609.174l-.535.583.292.134c.365.2.714.4,1.062.6.051.028.108.055.165.084a1.355,1.355,0,0,1,.549.4,2.59,2.59,0,0,1,.219.43c.028.064.056.129.086.191l12.647,25.956a3.253,3.253,0,0,0,.389,0c.071,0,.125,0,.146,0l21.358,1.273c.047,0,.1,0,.153,0Z" transform="translate(-935.94 -646.562)"/>
        <path id="Path_901654" data-name="Path 901654" d="M1067,731.551c-.273-.23-28.811-3.005-28.811-3.005l14.137,29.353,25.735,1.437Z" transform="translate(-936.124 -657.125)" fill="#ff98cb"/>
        <path id="Path_901655" data-name="Path 901655" d="M1307.075,925.406a65.262,65.262,0,0,1,6.837.6,1.971,1.971,0,0,0-.235-2.2c-.356-.508-.858-1.056-.693-1.655.143-.521.739-.795.946-1.294a1.3,1.3,0,0,0-.261-1.271,3.4,3.4,0,0,0-1.09-.8c-4.618-2.443-9.9-1.518-14.314-4.607-1.2-.838-2.269-1.855-3.514-2.619a5.676,5.676,0,0,0-4.165-.932c.508,1.067,2.669,3.882,2.22,4.956-.332.795-1.346.768-2.055.7a16.964,16.964,0,0,1-5.185-1.811c-.782-.356-1.614-.706-2.371-1.093a9.685,9.685,0,0,0-2.462-1.271,2.133,2.133,0,0,0-2.424,1.106,1.021,1.021,0,0,0-.069.52,1.255,1.255,0,0,0,.465.705,3.605,3.605,0,0,0,1.116.663c-.6.369-.587,1.456-.235,2.063a2.163,2.163,0,0,0,1.767.974,1.61,1.61,0,0,0,.208,2.039,2.55,2.55,0,0,0,2,.5,3.183,3.183,0,0,0,1.548,2.59,7.1,7.1,0,0,0,2.961.845c3.075.343,6.16-.047,9.248.183,3.266.242,6.506.741,9.761,1.093" transform="translate(-1152.637 -821.273)" fill="#ffc69f"/>
        <path id="Path_901656" data-name="Path 901656" d="M1311.884,924.21a.211.211,0,0,1-.031,0,64.926,64.926,0,0,0-6.812-.6.061.061,0,0,1-.017,0c-1.183-.127-2.365-.275-3.547-.423-2.031-.253-4.133-.516-6.207-.669-1.4-.1-2.833-.077-4.215-.055a38.959,38.959,0,0,1-5.041-.129,7.254,7.254,0,0,1-3.051-.875,3.4,3.4,0,0,1-1.633-2.553,2.531,2.531,0,0,1-1.949-.571,1.91,1.91,0,0,1-.423-2.021,2.294,2.294,0,0,1-1.589-1.041,2.046,2.046,0,0,1,.027-2.1,3.691,3.691,0,0,1-.863-.568,1.457,1.457,0,0,1-.538-.836,1.218,1.218,0,0,1,.081-.631,2.374,2.374,0,0,1,2.672-1.245,4.962,4.962,0,0,1,1.729.817,9.15,9.15,0,0,0,.791.475c.533.274,1.115.532,1.676.781l.685.306.594.273a14.44,14.44,0,0,0,4.52,1.521c.764.07,1.57.058,1.832-.566.283-.679-.8-2.422-1.514-3.574-.3-.485-.56-.9-.7-1.2a.221.221,0,0,1,0-.189.224.224,0,0,1,.148-.12,5.951,5.951,0,0,1,4.331.96,21.156,21.156,0,0,1,2.087,1.526c.465.372.946.755,1.439,1.1,2.363,1.655,5.05,2.152,7.65,2.632a22.539,22.539,0,0,1,6.64,1.961,3.576,3.576,0,0,1,1.158.852,1.519,1.519,0,0,1,.293,1.495,2.162,2.162,0,0,1-.507.672,1.51,1.51,0,0,0-.431.6c-.113.411.2.838.5,1.249.055.074.108.148.16.22a2.186,2.186,0,0,1,.233,2.455.224.224,0,0,1-.179.091m-6.821-1.044a65.253,65.253,0,0,1,6.711.586,1.865,1.865,0,0,0-.305-1.835c-.049-.069-.1-.141-.154-.212a1.954,1.954,0,0,1-.571-1.627,1.849,1.849,0,0,1,.542-.788,1.8,1.8,0,0,0,.413-.531,1.071,1.071,0,0,0-.228-1.048,3.2,3.2,0,0,0-1.022-.741,22.2,22.2,0,0,0-6.514-1.916c-2.645-.488-5.381-.994-7.823-2.7-.5-.353-.99-.74-1.46-1.115a20.693,20.693,0,0,0-2.043-1.5,5.659,5.659,0,0,0-3.718-.96c.14.249.333.561.546.9.854,1.376,1.916,3.088,1.546,3.975-.423,1.011-1.722.891-2.279.834a14.76,14.76,0,0,1-4.664-1.557l-.591-.272c-.224-.1-.452-.2-.682-.306-.567-.253-1.153-.513-1.7-.791-.292-.15-.565-.327-.829-.5a4.52,4.52,0,0,0-1.575-.753,1.9,1.9,0,0,0-2.176.967.8.8,0,0,0-.057.406,1.013,1.013,0,0,0,.391.575,3.312,3.312,0,0,0,1.047.622.22.22,0,0,1,.04.394c-.462.285-.474,1.226-.161,1.766a1.936,1.936,0,0,0,1.588.863.22.22,0,0,1,.156.363,1.4,1.4,0,0,0,.194,1.739,2.406,2.406,0,0,0,1.836.442h.007a.219.219,0,0,1,.219.207,2.947,2.947,0,0,0,1.444,2.417,6.9,6.9,0,0,0,2.87.814,38.709,38.709,0,0,0,4.984.126c1.392-.024,2.832-.05,4.255.055,2.086.155,4.192.418,6.228.672,1.177.148,2.353.294,3.532.421" transform="translate(-1150.609 -819.253)"/>
        <path id="Path_901657" data-name="Path 901657" d="M1298.046,957.245h-.016a16.731,16.731,0,0,1-6.646-1.9.22.22,0,0,1-.091-.3.225.225,0,0,1,.3-.091,16.277,16.277,0,0,0,6.47,1.846.22.22,0,0,1-.015.44" transform="translate(-1164.396 -861.322)"/>
        <path id="Path_901658" data-name="Path 901658" d="M1313.615,987.075a20.365,20.365,0,0,1-4.728-.556.221.221,0,0,1-.163-.267.224.224,0,0,1,.265-.163,19.934,19.934,0,0,0,5.957.5.2.2,0,0,1,.234.206.22.22,0,0,1-.2.234q-.68.044-1.359.045" transform="translate(-1180.135 -889.419)"/>
        <path id="Path_901659" data-name="Path 901659" d="M1338.1,1013.439h0a40.217,40.217,0,0,1-5.743-.506.22.22,0,0,1-.182-.251.227.227,0,0,1,.253-.182,40.055,40.055,0,0,0,5.679.5.22.22,0,0,1,0,.44" transform="translate(-1201.287 -913.243)"/>
        <path id="Path_901660" data-name="Path 901660" d="M1595.236,712.627v23.156a8.461,8.461,0,0,1-2.348,6.3c-2.687,2.822-7.619,3.1-11.228,3.9-4.641,1.037-9.288,2.05-13.953,2.969-1.961.386-4.083.738-5.888-.125-.1-3.189-.219-6.4-.448-9.488a3.437,3.437,0,0,1,.641-2.837,3.213,3.213,0,0,1,1.428-.646c4.579-1.181,9.384-1.5,13.832-3.11l-1.7-18.031" transform="translate(-1407.992 -642.767)" fill="#31cdfe"/>
        <path id="Path_901661" data-name="Path 901661" d="M1562.4,747.553a6.191,6.191,0,0,1-2.7-.556.222.222,0,0,1-.126-.193c-.094-3.06-.213-6.326-.446-9.479a3.592,3.592,0,0,1,.71-3.015,3.4,3.4,0,0,1,1.524-.7c1.84-.475,3.743-.815,5.583-1.146a51.242,51.242,0,0,0,8.066-1.9l-1.685-17.861a.219.219,0,0,1,.2-.239c.11-.038.228.077.24.2l1.7,18.032a.218.218,0,0,1-.144.227,50.594,50.594,0,0,1-8.3,1.978c-1.833.329-3.728.667-5.552,1.139a3,3,0,0,0-1.334.594,3.256,3.256,0,0,0-.571,2.659c.23,3.113.35,6.337.444,9.362,1.674.74,3.618.451,5.629.05,4.951-.973,9.83-2.047,13.948-2.967.752-.169,1.547-.311,2.389-.461,3.115-.559,6.646-1.192,8.728-3.378a8.215,8.215,0,0,0,2.288-6.13V710.6a.22.22,0,0,1,.44,0v23.156a8.644,8.644,0,0,1-2.409,6.449c-2.18,2.291-5.786,2.938-8.969,3.509-.837.15-1.628.291-2.37.458-4.122.92-9,1.994-13.96,2.971a17.472,17.472,0,0,1-3.32.415" transform="translate(-1405.96 -640.737)"/>
        <path id="Path_901662" data-name="Path 901662" d="M1344.652,1206.239a.214.214,0,0,1-.159-.069l-5-5.241a.22.22,0,1,1,.318-.3l5,5.241a.22.22,0,0,1-.007.311.225.225,0,0,1-.152.06" transform="translate(-1207.84 -1082.868)" fill="#fff"/>
        <path id="Path_901663" data-name="Path 901663" d="M1760.182,1222.964a.22.22,0,0,1-.22-.21,6.988,6.988,0,0,1,.255-2.792,6.472,6.472,0,0,1,3.413-3.124,47.027,47.027,0,0,1,7.119-2.969.22.22,0,0,1,.136.42,46.339,46.339,0,0,0-7.051,2.942,6.1,6.1,0,0,0-3.2,2.886,6.629,6.629,0,0,0-.228,2.616.22.22,0,0,1-.21.23Z" transform="translate(-1587.121 -1094.867)" fill="#fff"/>
        <path id="Path_901664" data-name="Path 901664" d="M1616.293,437.347q.688,1.767,1.365,3.539a18.411,18.411,0,0,1,.832,2.544.906.906,0,0,0,.559.743c.4.192.9.01,1.266.231a.663.663,0,0,1,.278.633c-.089.913-1.771,1.79-2.468,2.245a17.536,17.536,0,0,1-3.386,1.719,7.73,7.73,0,0,1-4.917.466c-.383-.117-.815-.375-.8-.776a1.44,1.44,0,0,1,.372-.693c.575-.837.141-1.716-.161-2.555q-.5-1.382-1-2.763l-1.172-3.254" transform="translate(-1449.239 -394.471)" fill="#ffc69f"/>
        <path id="Path_901665" data-name="Path 901665" d="M1385.842,254.47c.187,1.208-11.593,4.913-26.683,7.272s-27.475,3.291-27.662,2.083,11.894-4.1,26.984-6.458,27.174-4.1,27.361-2.9" transform="translate(-1200.68 -229.165)"/>
        <path id="Path_901666" data-name="Path 901666" d="M1490.35,234.421c6.579-4.5,8.217-13.152,3.672-19.3s-13.585-7.487-20.164-2.991a13.685,13.685,0,0,0-4.608,17.783,5.656,5.656,0,0,1,.589,2.585c-.006.458-.124.987.19,1.3a1.145,1.145,0,0,0,1.149.138c.378-.129.8-.468,1.14-.3.352.175.7.7,1.033.942a10.809,10.809,0,0,0,2.483,1.32,16.388,16.388,0,0,0,12.864-.178" transform="translate(-1323.502 -188.927)" fill="#ffc69f"/>
        <path id="Path_901667" data-name="Path 901667" d="M1468.12,354.3a.22.22,0,0,1-.147-.384,5.747,5.747,0,0,1,4.7-1.388,1.209,1.209,0,0,1,.758.356.22.22,0,1,1-.339.282.84.84,0,0,0-.494-.2,5.4,5.4,0,0,0-4.333,1.281.22.22,0,0,1-.147.057" transform="translate(-1323.714 -317.9)"/>
        <path id="Path_901668" data-name="Path 901668" d="M1704.63,437.172a.221.221,0,0,1-.057-.433,5.353,5.353,0,0,0,2.142-1.551.224.224,0,0,1,.312-.009.221.221,0,0,1,.01.311,5.659,5.659,0,0,1-2.351,1.675.216.216,0,0,1-.056.007" transform="translate(-1537.041 -392.461)"/>
        <path id="Path_901669" data-name="Path 901669" d="M1490.549,371.737c.322.73.208,1.491-.256,1.7s-1.1-.216-1.424-.946-.208-1.491.256-1.7,1.1.216,1.424.946" transform="translate(-1342.462 -334.391)"/>
        <path id="Path_901670" data-name="Path 901670" d="M1513.35,448.6a.22.22,0,0,1-.11-.411l.708-.408a.22.22,0,1,1,.22.382l-.708.408a.212.212,0,0,1-.11.029" transform="translate(-1364.511 -403.853)"/>
        <path id="Path_901671" data-name="Path 901671" d="M1618.787,265.548l-.705-.783a28.27,28.27,0,0,0-3.807-3.712,11.066,11.066,0,0,0-2.279-1.363c-.425-.184-1.7-.371-1.647-1.068.017-.2.212-.341.389-.444a19.989,19.989,0,0,1,8.689-2.664,7.415,7.415,0,0,1,6.3,2.41c.724.828,1.5,2.5.574,3.475a.35.35,0,0,0-.1.148.318.318,0,0,0,.034.187,8.159,8.159,0,0,1-.106,5.319,9.383,9.383,0,0,1-1.223,2.318,22.1,22.1,0,0,0-1.578,2,19.733,19.733,0,0,0-3.315-4.467l-1.222-1.358" transform="translate(-1452.197 -230.441)"/>
        <path id="Path_901672" data-name="Path 901672" d="M1631.056,293.242a6.019,6.019,0,0,1,1.661-2.191,3.4,3.4,0,0,1,2.631-.733,3.031,3.031,0,0,1,2.236,2.116,3.975,3.975,0,0,1-.968,3.864,4.41,4.41,0,0,1-3.95,1.226" transform="translate(-1470.877 -261.814)" fill="#ffc69f"/>
        <path id="Path_901673" data-name="Path 901673" d="M1631.458,295.808a4.26,4.26,0,0,1-.862-.086.219.219,0,1,1,.088-.43,4.165,4.165,0,0,0,3.748-1.165,3.736,3.736,0,0,0,.917-3.645,2.8,2.8,0,0,0-2.067-1.964,3.172,3.172,0,0,0-2.455.69,5.738,5.738,0,0,0-1.6,2.112.217.217,0,0,1-.294.1.22.22,0,0,1-.1-.294,6.157,6.157,0,0,1,1.725-2.267,3.611,3.611,0,0,1,2.806-.776,3.242,3.242,0,0,1,2.406,2.267,4.178,4.178,0,0,1-1.02,4.082,4.628,4.628,0,0,1-3.291,1.374" transform="translate(-1468.851 -259.796)"/>
        <path id="Path_901674" data-name="Path 901674" d="M1652.795,323.039a.218.218,0,0,1-.193-.115.221.221,0,0,1,.089-.3,1.025,1.025,0,0,0,.539-.7.679.679,0,0,0-.311-.7,1.241,1.241,0,0,0-.61-.11,1.435,1.435,0,0,0-.652.143.6.6,0,0,0-.334.418.215.215,0,0,1-.248.189.221.221,0,0,1-.189-.248,1.035,1.035,0,0,1,.562-.748,1.862,1.862,0,0,1,.848-.194,1.652,1.652,0,0,1,.841.168,1.126,1.126,0,0,1,.525,1.152,1.455,1.455,0,0,1-.765,1.013.226.226,0,0,1-.1.026" transform="translate(-1488.763 -289.239)"/>
        <path id="Path_901675" data-name="Path 901675" d="M1378.261,212.726c-4.407.678-8.728,1.79-13.114,2.583-6.224,1.124-12.53,1.828-18.828,2.382-.229.02-.458.037-.687.06-.791.083-1.58.187-2.363.325-3.847.678-7.649,1.662-11.548,2.011,6.432-6.99,15.548-11.071,24.868-12.8,1.234-.229,2.44-.757,3.675-.873,1.347-.126,2.692-.3,4.04-.435a47.421,47.421,0,0,1,8.837-.174,29.148,29.148,0,0,1,7.248,1.51,23.51,23.51,0,0,1,3.3,1.455c.278.149,2.72,1.822,2.355,2.039a15.576,15.576,0,0,1-6.094,1.68q-.847.109-1.69.239" transform="translate(-1200.883 -185.503)" fill="#fe3231"/>
        <path id="Path_901676" data-name="Path 901676" d="M1329.7,218.3a.22.22,0,0,1-.162-.37c7.547-8.2,17.755-11.525,24.99-12.87.51-.095,1.03-.244,1.531-.39a11.648,11.648,0,0,1,2.164-.483c.761-.072,1.522-.158,2.283-.244.585-.065,1.17-.132,1.755-.191a47.822,47.822,0,0,1,8.878-.175,29.419,29.419,0,0,1,7.3,1.522,23.743,23.743,0,0,1,3.333,1.469c.025.014,2.495,1.576,2.508,2.16a.292.292,0,0,1-.145.261,15.58,15.58,0,0,1-6.178,1.71q-.845.108-1.684.237s0,0,0,0c-2.534.389-5.084.932-7.55,1.457-1.818.387-3.7.786-5.559,1.123-5.421.98-11.234,1.715-18.849,2.386l-.26.021c-.141.012-.282.024-.423.038-.846.089-1.615.194-2.348.323-1.249.22-2.515.476-3.739.726a71.093,71.093,0,0,1-7.827,1.287.083.083,0,0,1-.02,0m38.148-14.416a54.644,54.644,0,0,0-5.542.3c-.584.06-1.167.126-1.75.191-.765.086-1.527.172-2.292.244a11.446,11.446,0,0,0-2.082.47c-.512.148-1.042.3-1.573.4-7.043,1.309-16.926,4.508-24.35,12.311,2.426-.256,4.85-.748,7.2-1.225,1.227-.249,2.5-.507,3.751-.728.743-.131,1.521-.237,2.377-.327.145-.015.289-.028.434-.04l.256-.021c7.6-.669,13.4-1.4,18.808-2.381,1.856-.335,3.733-.735,5.547-1.121,2.472-.526,5.029-1.07,7.574-1.462q.845-.131,1.7-.239a15.565,15.565,0,0,0,5.893-1.584,13.365,13.365,0,0,0-2.231-1.722,23.182,23.182,0,0,0-3.271-1.441,28.8,28.8,0,0,0-7.193-1.5c-1.04-.09-2.122-.132-3.254-.132m8.393,6.836h0Z" transform="translate(-1198.859 -183.5)" fill="#231f20"/>
        <path id="Path_901677" data-name="Path 901677" d="M1446.593,87.826c-1.988.393-3.985-.852-5.222-2.464-1.981-2.579-2.937-5.8-5.076-8.26-5.432-6.244-14.459-5.681-20.657-1.011a18.822,18.822,0,0,0-3.982,4.068,20.663,20.663,0,0,0-2.788,5.379,37.319,37.319,0,0,0-1.066,4.814c-.331,1.688-.828,3.579-2.331,4.406" transform="translate(-1267.405 -65.389)" fill="#fe3231"/>
        <path id="Path_901678" data-name="Path 901678" d="M1403.451,93.137a.22.22,0,0,1-.106-.413c1.366-.752,1.874-2.491,2.221-4.257.074-.377.143-.755.212-1.134a26.047,26.047,0,0,1,.862-3.708,20.874,20.874,0,0,1,2.818-5.436,18.992,18.992,0,0,1,4.028-4.116c5.871-4.422,15.212-5.559,20.955,1.042a22.494,22.494,0,0,1,2.8,4.452,25.989,25.989,0,0,0,2.288,3.819c1.036,1.352,2.977,2.8,5,2.382a.227.227,0,0,1,.259.174.221.221,0,0,1-.173.26c-2.234.437-4.273-1.027-5.44-2.547a26.341,26.341,0,0,1-2.329-3.884,22.284,22.284,0,0,0-2.739-4.366c-5.568-6.4-14.646-5.282-20.358-.98a18.569,18.569,0,0,0-3.935,4.02,20.434,20.434,0,0,0-2.758,5.322,25.767,25.767,0,0,0-.847,3.645c-.069.382-.138.762-.213,1.142-.366,1.871-.916,3.717-2.441,4.556a.213.213,0,0,1-.106.028" transform="translate(-1265.384 -63.548)" fill="#231f20"/>
        <path id="Path_901679" data-name="Path 901679" d="M1550.128,452.553a4.866,4.866,0,0,0,2.648-2.067s1.883,3.6-2.648,2.067" transform="translate(-1397.856 -406.322)"/>
        <path id="Path_901680" data-name="Path 901680" d="M1578.727,568.549a.221.221,0,0,1-.219-.2,53.952,53.952,0,0,1,.035-11.428c.246-2.252.68-4.572,2.17-6.3a.221.221,0,0,1,.334.289c-1.412,1.631-1.828,3.874-2.067,6.055a53.522,53.522,0,0,0-.033,11.335.22.22,0,0,1-.2.241.1.1,0,0,1-.022,0" transform="translate(-1423.221 -496.579)"/>
        <path id="Path_901681" data-name="Path 901681" d="M1579.82,815.492a.22.22,0,0,1-.219-.2c-.008-.077-.753-7.713-.624-11.738a.23.23,0,0,1,.227-.213.22.22,0,0,1,.214.227c-.129,4,.614,11.6.622,11.68a.22.22,0,0,1-.2.241.087.087,0,0,1-.021,0" transform="translate(-1423.89 -724.59)"/>
        <path id="Path_901682" data-name="Path 901682" d="M896.98,1550.435a4.886,4.886,0,0,1-1.829-.219,1.15,1.15,0,0,1,.4.8,2.156,2.156,0,0,1-.224,1.22c-.137.272-.446.795-.788.824a2.264,2.264,0,0,0-.4.016.205.205,0,0,0-.165.161.2.2,0,0,0,.035.116.752.752,0,0,0,.6.255l.615.06a1.218,1.218,0,0,0,.6-.043c.209-.091.362-.3.584-.344a1.073,1.073,0,0,1,.528.082.626.626,0,0,0,.522-.016.361.361,0,0,0,.093-.486c-.113-.163-.324-.214-.447-.369a1.15,1.15,0,0,1-.191-.466,2.358,2.358,0,0,1,.062-1.594" transform="translate(-806.048 -1398.251)" fill="#6ba32b"/>
        <path id="Path_901683" data-name="Path 901683" d="M889.435,1442.729a6.667,6.667,0,0,1,.623-4.22,14.371,14.371,0,0,0,.767-2.01,2.784,2.784,0,0,0-.127-2,7.367,7.367,0,0,1,3.461,3.633,5.72,5.72,0,0,1-.424,5.195,19.716,19.716,0,0,0-1.425,2.073c-.171.37-.118,1.2-.7.815a5.045,5.045,0,0,1-1.131-1.406,7.407,7.407,0,0,1-1.048-2.074" transform="translate(-801.826 -1293.873)" fill="#6ba32b"/>
        <path id="Path_901684" data-name="Path 901684" d="M838.163,1501.782a4.326,4.326,0,0,0-1.205-.7,6.332,6.332,0,0,0-5.283.272,5.814,5.814,0,0,0,2.53,3.155,9.213,9.213,0,0,0,4.385,1.256,2.456,2.456,0,0,1,1.353.308,6.514,6.514,0,0,1-.511-2.085,4.207,4.207,0,0,0-1.268-2.209" transform="translate(-749.854 -1353.531)" fill="#6ba32b"/>
        <path id="Path_901685" data-name="Path 901685" d="M922.659,1505.151a4.921,4.921,0,0,1-1.21.771,7.549,7.549,0,0,1-5.557.344,5.8,5.8,0,0,1,2.44-3.191,10.973,10.973,0,0,1,4.521-1.637,2.919,2.919,0,0,0,1.394-.43,5.6,5.6,0,0,0-.406,1.979,3.979,3.979,0,0,1-1.182,2.164" transform="translate(-825.816 -1353.867)" fill="#6ba32b"/>
        <path id="Path_901686" data-name="Path 901686" d="M734.508,1807.56a4.888,4.888,0,0,1-1.829-.22,1.15,1.15,0,0,1,.4.8,2.155,2.155,0,0,1-.224,1.22c-.137.272-.446.795-.788.824a2.243,2.243,0,0,0-.4.016.205.205,0,0,0-.164.161.2.2,0,0,0,.035.116.752.752,0,0,0,.6.255l.615.06a1.219,1.219,0,0,0,.6-.043c.208-.091.362-.3.584-.345a1.075,1.075,0,0,1,.528.083.625.625,0,0,0,.522-.016.361.361,0,0,0,.093-.486c-.113-.162-.324-.215-.448-.369a1.151,1.151,0,0,1-.191-.467,2.358,2.358,0,0,1,.062-1.594" transform="translate(-659.502 -1630.171)" fill="#6ba32b"/>
        <path id="Path_901687" data-name="Path 901687" d="M726.963,1699.853a6.664,6.664,0,0,1,.623-4.22,14.393,14.393,0,0,0,.767-2.011,2.784,2.784,0,0,0-.127-2,7.366,7.366,0,0,1,3.461,3.633,5.72,5.72,0,0,1-.424,5.195,19.68,19.68,0,0,0-1.425,2.073c-.171.37-.118,1.2-.7.815a5.032,5.032,0,0,1-1.131-1.406,7.4,7.4,0,0,1-1.048-2.074" transform="translate(-655.281 -1525.793)" fill="#6ba32b"/>
        <path id="Path_901688" data-name="Path 901688" d="M675.691,1758.906a4.326,4.326,0,0,0-1.205-.7,6.331,6.331,0,0,0-5.283.272,5.813,5.813,0,0,0,2.53,3.155,9.214,9.214,0,0,0,4.385,1.256,2.456,2.456,0,0,1,1.353.308,6.513,6.513,0,0,1-.511-2.086,4.207,4.207,0,0,0-1.268-2.209" transform="translate(-603.308 -1585.45)" fill="#6ba32b"/>
        <path id="Path_901689" data-name="Path 901689" d="M760.188,1762.275a4.92,4.92,0,0,1-1.21.771,7.548,7.548,0,0,1-5.557.344,5.8,5.8,0,0,1,2.44-3.19,10.972,10.972,0,0,1,4.521-1.637,2.919,2.919,0,0,0,1.394-.43,5.6,5.6,0,0,0-.405,1.979,3.98,3.98,0,0,1-1.182,2.164" transform="translate(-679.271 -1585.787)" fill="#6ba32b"/>
        <path id="Path_901690" data-name="Path 901690" d="M419.561,1517.078a4.888,4.888,0,0,1-1.829-.219,1.149,1.149,0,0,1,.4.8,2.155,2.155,0,0,1-.224,1.22c-.137.272-.446.795-.788.824a2.253,2.253,0,0,0-.4.016.205.205,0,0,0-.165.161.2.2,0,0,0,.034.116.752.752,0,0,0,.6.255l.615.06a1.216,1.216,0,0,0,.6-.043c.209-.09.362-.3.584-.344a1.074,1.074,0,0,1,.528.082.626.626,0,0,0,.522-.016.361.361,0,0,0,.093-.486c-.113-.163-.324-.214-.447-.369a1.148,1.148,0,0,1-.191-.467,2.358,2.358,0,0,1,.062-1.594" transform="translate(-375.427 -1368.164)" fill="#6ba32b"/>
        <path id="Path_901691" data-name="Path 901691" d="M412.017,1409.371a6.665,6.665,0,0,1,.623-4.22,14.4,14.4,0,0,0,.767-2.011,2.784,2.784,0,0,0-.127-2,7.366,7.366,0,0,1,3.461,3.633,5.72,5.72,0,0,1-.424,5.195,19.7,19.7,0,0,0-1.425,2.073c-.171.37-.118,1.2-.7.815a5.036,5.036,0,0,1-1.131-1.406,7.4,7.4,0,0,1-1.048-2.074" transform="translate(-371.207 -1263.785)" fill="#6ba32b"/>
        <path id="Path_901692" data-name="Path 901692" d="M360.744,1468.424a4.32,4.32,0,0,0-1.205-.7,6.332,6.332,0,0,0-5.283.272,5.814,5.814,0,0,0,2.53,3.155,9.212,9.212,0,0,0,4.385,1.256,2.457,2.457,0,0,1,1.353.308,6.511,6.511,0,0,1-.511-2.085,4.208,4.208,0,0,0-1.268-2.209" transform="translate(-319.233 -1323.443)" fill="#6ba32b"/>
        <path id="Path_901693" data-name="Path 901693" d="M445.241,1471.793a4.931,4.931,0,0,1-1.21.771,7.55,7.55,0,0,1-5.557.344,5.8,5.8,0,0,1,2.44-3.191,10.971,10.971,0,0,1,4.521-1.637,2.919,2.919,0,0,0,1.394-.43,5.6,5.6,0,0,0-.405,1.979,3.981,3.981,0,0,1-1.182,2.164" transform="translate(-395.196 -1323.779)" fill="#6ba32b"/>
        <path id="Path_901694" data-name="Path 901694" d="M661.675,1605.38a4.536,4.536,0,0,1-1.7-.2,1.067,1.067,0,0,1,.371.745,2,2,0,0,1-.207,1.132c-.127.252-.414.737-.731.765a2.081,2.081,0,0,0-.37.015.19.19,0,0,0-.153.149.184.184,0,0,0,.032.108.7.7,0,0,0,.557.237l.57.056a1.129,1.129,0,0,0,.561-.04c.193-.084.336-.274.542-.319a.993.993,0,0,1,.489.077.581.581,0,0,0,.485-.015.335.335,0,0,0,.086-.451c-.1-.151-.3-.2-.415-.343a1.067,1.067,0,0,1-.177-.433,2.187,2.187,0,0,1,.058-1.479" transform="translate(-594.004 -1447.824)" fill="#6ba32b"/>
        <path id="Path_901695" data-name="Path 901695" d="M654.675,1505.456a6.183,6.183,0,0,1,.578-3.915,13.338,13.338,0,0,0,.711-1.865,2.583,2.583,0,0,0-.118-1.86,6.833,6.833,0,0,1,3.211,3.37,5.307,5.307,0,0,1-.393,4.819,18.262,18.262,0,0,0-1.322,1.923c-.158.343-.109,1.114-.646.756a4.673,4.673,0,0,1-1.05-1.3,6.862,6.862,0,0,1-.972-1.925" transform="translate(-590.088 -1350.988)" fill="#6ba32b"/>
        <path id="Path_901696" data-name="Path 901696" d="M607.108,1560.242a4.009,4.009,0,0,0-1.118-.647,5.873,5.873,0,0,0-4.9.252,5.4,5.4,0,0,0,2.347,2.927,8.548,8.548,0,0,0,4.068,1.165,2.281,2.281,0,0,1,1.255.286,6.039,6.039,0,0,1-.474-1.935,3.9,3.9,0,0,0-1.177-2.049" transform="translate(-541.871 -1406.335)" fill="#6ba32b"/>
        <path id="Path_901697" data-name="Path 901697" d="M685.5,1563.367a4.57,4.57,0,0,1-1.123.715,7,7,0,0,1-5.156.319,5.377,5.377,0,0,1,2.264-2.96,10.178,10.178,0,0,1,4.194-1.519,2.708,2.708,0,0,0,1.294-.4,5.2,5.2,0,0,0-.376,1.836,3.694,3.694,0,0,1-1.1,2.008" transform="translate(-612.344 -1406.646)" fill="#6ba32b"/>
        <path id="Path_901698" data-name="Path 901698" d="M2131.139,1706.024a4.888,4.888,0,0,1-1.829-.22,1.151,1.151,0,0,1,.4.8,2.154,2.154,0,0,1-.224,1.221c-.137.272-.446.795-.788.824a2.244,2.244,0,0,0-.4.016.2.2,0,0,0-.165.161.2.2,0,0,0,.034.117.754.754,0,0,0,.6.255l.615.06a1.22,1.22,0,0,0,.6-.043c.208-.091.362-.3.584-.344a1.073,1.073,0,0,1,.527.083.626.626,0,0,0,.522-.016.36.36,0,0,0,.093-.486c-.113-.162-.324-.215-.447-.369a1.149,1.149,0,0,1-.191-.466,2.357,2.357,0,0,1,.063-1.594" transform="translate(-1919.229 -1538.588)" fill="#6ba32b"/>
        <path id="Path_901699" data-name="Path 901699" d="M2123.595,1598.317a6.667,6.667,0,0,1,.623-4.22,14.35,14.35,0,0,0,.767-2.01,2.783,2.783,0,0,0-.127-2,7.365,7.365,0,0,1,3.461,3.633,5.721,5.721,0,0,1-.424,5.195,19.631,19.631,0,0,0-1.425,2.073c-.171.37-.118,1.2-.7.815a5.049,5.049,0,0,1-1.132-1.406,7.412,7.412,0,0,1-1.048-2.075" transform="translate(-1915.009 -1434.21)" fill="#6ba32b"/>
        <path id="Path_901700" data-name="Path 901700" d="M2072.322,1657.37a4.324,4.324,0,0,0-1.205-.7,6.332,6.332,0,0,0-5.283.272,5.814,5.814,0,0,0,2.53,3.155,9.215,9.215,0,0,0,4.385,1.256,2.455,2.455,0,0,1,1.353.308,6.508,6.508,0,0,1-.511-2.086,4.207,4.207,0,0,0-1.268-2.209" transform="translate(-1863.036 -1493.867)" fill="#6ba32b"/>
        <path id="Path_901701" data-name="Path 901701" d="M2156.819,1660.739a4.924,4.924,0,0,1-1.21.771,7.549,7.549,0,0,1-5.557.344,5.8,5.8,0,0,1,2.44-3.191,10.972,10.972,0,0,1,4.521-1.637,2.92,2.92,0,0,0,1.394-.43,5.606,5.606,0,0,0-.405,1.979,3.981,3.981,0,0,1-1.182,2.164" transform="translate(-1938.998 -1494.204)" fill="#6ba32b"/>
        <path id="Path_901702" data-name="Path 901702" d="M251.519,1741.709a4.358,4.358,0,0,0,1.63-.2,1.025,1.025,0,0,0-.357.716,1.923,1.923,0,0,0,.2,1.088c.122.242.4.708.7.735a2.011,2.011,0,0,1,.355.015.183.183,0,0,1,.147.143.176.176,0,0,1-.031.1.67.67,0,0,1-.535.228l-.548.053a1.082,1.082,0,0,1-.539-.038c-.186-.081-.323-.264-.52-.307a.957.957,0,0,0-.47.073.558.558,0,0,1-.466-.014.322.322,0,0,1-.083-.433c.1-.145.289-.191.4-.329a1.025,1.025,0,0,0,.17-.416,2.1,2.1,0,0,0-.055-1.421" transform="translate(-226.059 -1570.797)" fill="#6ba32b"/>
        <path id="Path_901703" data-name="Path 901703" d="M244.644,1645.711a5.94,5.94,0,0,0-.555-3.761,12.816,12.816,0,0,1-.684-1.792,2.481,2.481,0,0,1,.113-1.787,6.565,6.565,0,0,0-3.085,3.238,5.1,5.1,0,0,0,.378,4.63,17.608,17.608,0,0,1,1.27,1.848c.152.33.105,1.071.621.727a4.5,4.5,0,0,0,1.008-1.253,6.6,6.6,0,0,0,.934-1.849" transform="translate(-216.222 -1477.765)" fill="#6ba32b"/>
        <path id="Path_901704" data-name="Path 901704" d="M265.967,1698.345a3.852,3.852,0,0,1,1.074-.621,5.642,5.642,0,0,1,4.709.242,5.182,5.182,0,0,1-2.255,2.812,8.209,8.209,0,0,1-3.908,1.12,2.189,2.189,0,0,0-1.206.275,5.806,5.806,0,0,0,.456-1.859,3.75,3.75,0,0,1,1.13-1.969" transform="translate(-238.169 -1530.938)" fill="#6ba32b"/>
        <path id="Path_901705" data-name="Path 901705" d="M189.942,1701.348a4.4,4.4,0,0,0,1.079.687,6.73,6.73,0,0,0,4.953.306,5.164,5.164,0,0,0-2.175-2.844,9.78,9.78,0,0,0-4.029-1.459,2.6,2.6,0,0,1-1.243-.383,4.992,4.992,0,0,1,.361,1.764,3.549,3.549,0,0,0,1.054,1.929" transform="translate(-169.751 -1531.238)" fill="#6ba32b"/>
        <path id="Path_901706" data-name="Path 901706" d="M555.149,1344.736c0,.867,3.636.867,3.636,0v-43.085h-3.636Z" transform="translate(-500.435 -1174.052)" fill="#fff"/>
        <path id="Path_901707" data-name="Path 901707" d="M554.944,1343.574c-.985,0-2.037-.229-2.037-.87v-43.087a.22.22,0,0,1,.22-.22h3.635a.22.22,0,0,1,.22.22V1342.7c0,.642-1.053.87-2.038.87m-1.6-43.737V1342.7c0,.179.608.43,1.6.43s1.6-.251,1.6-.43v-42.866Z" transform="translate(-498.412 -1172.019)"/>
        <path id="Path_901708" data-name="Path 901708" d="M490.168,1143.791a9.112,9.112,0,1,0,9.078,9.112,9.094,9.094,0,0,0-9.078-9.112m0,14.667a5.555,5.555,0,1,1,5.516-5.555,5.541,5.541,0,0,1-5.516,5.555" transform="translate(-433.636 -1031.666)" fill="#fe3231"/>
        <path id="Path_901709" data-name="Path 901709" d="M560.712,1261.032h.489a1.368,1.368,0,0,0,1.368-1.368v-2.749a1.368,1.368,0,0,0-1.368-1.368h-.489a1.368,1.368,0,0,0-1.368,1.368v2.749a1.368,1.368,0,0,0,1.368,1.368" transform="translate(-504.219 -1132.467)" fill="#fe3231"/>
        <path id="Path_901710" data-name="Path 901710" d="M1342.6,1453.114c0,.833,3.493.833,3.493,0V1411.72H1342.6Z" transform="translate(-1210.698 -1273.332)" fill="#fff"/>
        <path id="Path_901711" data-name="Path 901711" d="M1342.322,1451.932c-.951,0-1.967-.222-1.967-.844v-41.394a.22.22,0,0,1,.22-.22h3.494a.22.22,0,0,1,.22.22v41.394c0,.623-1.016.844-1.967.844m-1.527-42.018v41.174c0,.165.594.4,1.527.4s1.527-.239,1.527-.4v-41.174Z" transform="translate(-1208.672 -1271.305)"/>
        <path id="Path_901712" data-name="Path 901712" d="M1280.172,1260.059a8.754,8.754,0,1,0,8.721,8.754,8.737,8.737,0,0,0-8.721-8.754m0,14.091a5.337,5.337,0,1,1,5.3-5.337,5.323,5.323,0,0,1-5.3,5.337" transform="translate(-1146.522 -1136.537)" fill="#fe3231"/>
        <path id="Path_901713" data-name="Path 901713" d="M1348.181,1372.7h0a1.549,1.549,0,0,0,1.549-1.549v-2.172a1.549,1.549,0,0,0-3.1,0v2.172a1.549,1.549,0,0,0,1.549,1.549" transform="translate(-1214.333 -1233.381)" fill="#fe3231"/>
        <path id="Path_901714" data-name="Path 901714" d="M284.151,1163.192c0,.833,3.493.833,3.493,0V1121.8h-3.493Z" transform="translate(-256.001 -1011.829)" fill="#fff"/>
        <path id="Path_901715" data-name="Path 901715" d="M283.868,1162.011c-.951,0-1.967-.222-1.967-.845v-41.394a.22.22,0,0,1,.22-.22h3.493a.22.22,0,0,1,.22.22v41.394c0,.623-1.016.845-1.967.845m-1.527-42.019v41.174c0,.165.594.4,1.527.4s1.527-.239,1.527-.4v-41.174Z" transform="translate(-253.972 -1009.803)"/>
        <path id="Path_901716" data-name="Path 901716" d="M221.722,970.137a8.754,8.754,0,1,0,8.721,8.754,8.737,8.737,0,0,0-8.721-8.754m0,14.091a5.337,5.337,0,1,1,5.3-5.337,5.323,5.323,0,0,1-5.3,5.337" transform="translate(-191.826 -875.034)" fill="#fe3231"/>
        <path id="Path_901717" data-name="Path 901717" d="M289.731,1082.776h0a1.549,1.549,0,0,0,1.549-1.549v-2.172a1.549,1.549,0,0,0-3.1,0v2.172a1.549,1.549,0,0,0,1.549,1.549" transform="translate(-259.637 -971.879)" fill="#fe3231"/>
        <path id="Path_901718" data-name="Path 901718" d="M1849.685,1593.871l2.443-3.075" transform="translate(-1668.075 -1434.854)" fill="#ff9a32"/>
        <path id="Path_901719" data-name="Path 901719" d="M1847.659,1592.074a.216.216,0,0,1-.137-.048.22.22,0,0,1-.035-.31l2.442-3.076a.224.224,0,0,1,.309-.034.221.221,0,0,1,.036.309l-2.444,3.076a.222.222,0,0,1-.172.083" transform="translate(-1666.049 -1432.836)" fill="#231f20"/>
        <path id="Path_901720" data-name="Path 901720" d="M398.758,6.1V48.037a3.849,3.849,0,0,1-3.843,3.857h-5.878l-3.088,11.783-9.335-11.783H321.655a3.849,3.849,0,0,1-3.843-3.857V6.1a3.849,3.849,0,0,1,3.843-3.857h73.26A3.849,3.849,0,0,1,398.758,6.1" transform="translate(-286.363 -2.016)" fill="#fff"/>
        <path id="Path_901721" data-name="Path 901721" d="M383.922,61.874a.222.222,0,0,1-.173-.084l-9.269-11.7H319.629a4.076,4.076,0,0,1-4.063-4.078V4.075A4.075,4.075,0,0,1,319.629,0h73.26a4.075,4.075,0,0,1,4.063,4.078V46.013a4.076,4.076,0,0,1-4.063,4.078h-5.708l-3.045,11.617a.22.22,0,0,1-.168.16.211.211,0,0,1-.046.005M319.629.437a3.634,3.634,0,0,0-3.622,3.638V46.013a3.634,3.634,0,0,0,3.622,3.638h54.959a.22.22,0,0,1,.173.084l9.061,11.437L386.8,49.816a.22.22,0,0,1,.213-.165h5.878a3.634,3.634,0,0,0,3.623-3.638V4.075A3.634,3.634,0,0,0,392.889.437Z" transform="translate(-284.337 0.008)"/>
        <path id="Path_901722" data-name="Path 901722" d="M688.318,72.3c-2.059-.637-4.3.28-6.022,1.576s-3.149,2.971-4.93,4.188-4.137,1.932-6.092,1.024c-.849-.394-1.546-1.059-2.37-1.5a5.28,5.28,0,0,0-5.388.293,18.12,18.12,0,0,0-2.979,3.238,4.647,4.647,0,0,1-3.781,1.91c-1.737-.209-2.994-1.976-4.735-2.146-2.037-.2-3.771,1.858-5.812,1.706a50.412,50.412,0,0,0,.025,6.939l42.275-.139Z" transform="translate(-582.471 -65.018)" fill="#66cb00"/>
        <path id="Path_901723" data-name="Path 901723" d="M689.052,50.334H646.8a.22.22,0,0,1-.22-.22V28.644a.22.22,0,0,1,.22-.22h42.257a.22.22,0,0,1,.22.22v21.47a.22.22,0,0,1-.22.22m-42.036-.44h41.816V28.864H647.016Z" transform="translate(-582.899 -25.632)"/>
        <path id="Path_901724" data-name="Path 901724" d="M381.443,284.967a9.859,9.859,0,1,1-9.851-9.463,9.663,9.663,0,0,1,9.851,9.463" transform="translate(-325.987 -248.492)" fill="#31cdfe"/>
        <path id="Path_901725" data-name="Path 901725" d="M436.57,343.145A3.129,3.129,0,1,1,433.441,340a3.135,3.135,0,0,1,3.129,3.141" transform="translate(-387.835 -306.67)" fill="#efcb00"/>
        <path id="Path_901726" data-name="Path 901726" d="M462.826,306.259a.22.22,0,0,1-.22-.22V303.3a.22.22,0,1,1,.44,0v2.74a.22.22,0,0,1-.22.22" transform="translate(-416.963 -273.363)"/>
        <path id="Path_901727" data-name="Path 901727" d="M499.131,369.428a.22.22,0,0,1-.009-.44l2.293-.088h.009a.22.22,0,0,1,.009.44l-2.293.088Z" transform="translate(-449.709 -332.733)"/>
        <path id="Path_901728" data-name="Path 901728" d="M462.826,410.976a.22.22,0,0,1-.22-.22v-2.224a.22.22,0,0,1,.44,0v2.224a.22.22,0,0,1-.22.22" transform="translate(-416.963 -368.282)"/>
        <path id="Path_901729" data-name="Path 901729" d="M401.386,369.34h-2.064a.22.22,0,1,1,0-.44h2.064a.22.22,0,1,1,0,.44" transform="translate(-359.684 -332.733)"/>
        <path id="Path_901730" data-name="Path 901730" d="M416.717,332.67a.218.218,0,0,1-.123-.038l-1.8-1.206a.22.22,0,1,1,.246-.365l1.8,1.206a.22.22,0,0,1-.123.4" transform="translate(-373.754 -298.569)"/>
        <path id="Path_901731" data-name="Path 901731" d="M488.218,326.121a.224.224,0,0,1-.152-.06.22.22,0,0,1-.007-.311l1.834-1.918a.22.22,0,0,1,.318.3l-1.834,1.918a.216.216,0,0,1-.159.069" transform="translate(-439.866 -292.02)"/>
        <path id="Path_901732" data-name="Path 901732" d="M489.783,395.682a.222.222,0,0,1-.148-.057l-1.567-1.421a.22.22,0,1,1,.3-.327l1.567,1.421a.22.22,0,0,1-.148.384" transform="translate(-439.864 -355.212)"/>
        <path id="Path_901733" data-name="Path 901733" d="M418.818,398.094a.219.219,0,0,1-.138-.048.221.221,0,0,1-.034-.31l1.644-2.05a.22.22,0,1,1,.344.275l-1.643,2.05a.218.218,0,0,1-.172.083" transform="translate(-377.269 -356.819)"/>
        <path id="Path_901734" data-name="Path 901734" d="M889.879,292.3a9.859,9.859,0,1,1-9.851-9.463,9.663,9.663,0,0,1,9.851,9.463" transform="translate(-784.583 -255.108)" fill="#fff"/>
        <path id="Path_901735" data-name="Path 901735" d="M878,299.968a9.691,9.691,0,1,1,10.07-9.684A9.895,9.895,0,0,1,878,299.968m0-18.926a9.251,9.251,0,1,0,9.63,9.242,9.453,9.453,0,0,0-9.63-9.242" transform="translate(-782.556 -253.09)"/>
        <path id="Path_901736" data-name="Path 901736" d="M930.956,381.934c.028.278.374,1.119.76.994a.573.573,0,0,0,.2-.141.8.8,0,0,0,.495.863,1.553,1.553,0,0,0,1.055.006,1.02,1.02,0,0,0,.792-.69,2.309,2.309,0,0,0,.035.688.777.777,0,0,0,.4.53.8.8,0,0,0,.411.049,1.356,1.356,0,0,0,1.145-1.043.753.753,0,0,0,.522.387,1.407,1.407,0,0,0,1.259-.449,1.579,1.579,0,0,0,.264-.658c.182-.867.176-2.044-.706-2.546a1.368,1.368,0,0,0-1.591.185c-.039.038-.06.084-.011.107a1.407,1.407,0,0,0-.313-.807,1.017,1.017,0,0,0-1.185-.115,1.081,1.081,0,0,0-.5.541.594.594,0,0,0,.045.629,2.057,2.057,0,0,0-1.285-.882,1.028,1.028,0,0,0-1.038,1.382.631.631,0,0,0,.15.243,1.684,1.684,0,0,0-.586.048.636.636,0,0,0-.319.679" transform="translate(-839.4 -341.985)" fill="#cb6531"/>
        <path id="Path_901737" data-name="Path 901737" d="M932.959,382.432a.912.912,0,0,1-.378-.074.983.983,0,0,1-.528-.676q-.012-.046-.021-.093a1.986,1.986,0,0,1-1.736.234,1.116,1.116,0,0,1-.611-.7.508.508,0,0,1-.368-.086,1.851,1.851,0,0,1-.608-1.111.845.845,0,0,1,.46-.908,1,1,0,0,1,.29-.06,1.271,1.271,0,0,1,.191-1.134,1.312,1.312,0,0,1,1.088-.494,1.666,1.666,0,0,1,.986.482c.01-.031.021-.06.032-.09a1.3,1.3,0,0,1,.605-.654,1.138,1.138,0,0,1,1.727.645,1.6,1.6,0,0,1,1.587-.012c1.127.642.944,2.159.813,2.781a1.8,1.8,0,0,1-.306.75,1.442,1.442,0,0,1-.7.464,1.52,1.52,0,0,1-.777.064,1.071,1.071,0,0,1-.4-.177,1.581,1.581,0,0,1-1.2.836,1.449,1.449,0,0,1-.146.009m-.728-1.713a.124.124,0,0,1,.024,0,.221.221,0,0,1,.2.229,2.086,2.086,0,0,0,.028.623.558.558,0,0,0,.279.384.612.612,0,0,0,.3.031,1.14,1.14,0,0,0,.954-.869.22.22,0,0,1,.189-.174.21.21,0,0,1,.225.124.534.534,0,0,0,.371.267,1.076,1.076,0,0,0,.544-.05,1.025,1.025,0,0,0,.494-.32,1.383,1.383,0,0,0,.222-.568c.112-.53.275-1.811-.6-2.31a1.152,1.152,0,0,0-1.274.1.22.22,0,0,1-.313.2.314.314,0,0,1-.151-.193.263.263,0,0,1,.005-.114,1.044,1.044,0,0,0-.232-.547.8.8,0,0,0-.922-.072.859.859,0,0,0-.4.427.378.378,0,0,0,.019.42.22.22,0,0,1-.346.272,1.863,1.863,0,0,0-1.134-.805.812.812,0,0,0-.7.318.834.834,0,0,0-.113.769.415.415,0,0,0,.094.158.219.219,0,0,1,.055.239.247.247,0,0,1-.244.141l-.206,0a.718.718,0,0,0-.263.036c-.139.052-.2.272-.177.451a1.459,1.459,0,0,0,.409.788c.041.024.055.022.062.017a.4.4,0,0,0,.121-.091.221.221,0,0,1,.365.213.587.587,0,0,0,.369.609,1.319,1.319,0,0,0,.9,0c.135-.04.581-.2.637-.516a.219.219,0,0,1,.217-.182" transform="translate(-837.372 -339.958)" fill="#231f20"/>
        <path id="Path_901738" data-name="Path 901738" d="M963,361.371a5.3,5.3,0,0,1-.051,2.939.959.959,0,0,1,1.1.03,4.768,4.768,0,0,1-.569-2.06,3.552,3.552,0,0,1-.037-.568,2.323,2.323,0,0,1,.273-.949" transform="translate(-868.256 -325.395)" fill="#6ba32b"/>
        <path id="Path_901739" data-name="Path 901739" d="M953.333,317.357a1.977,1.977,0,0,1,.129-1.429,5.7,5.7,0,0,1,.549-.793,2.014,2.014,0,0,0,.415-.862.873.873,0,0,0-.32-.857,1.941,1.941,0,0,1,1.414.731,3.677,3.677,0,0,1,.674,1.558,3.065,3.065,0,0,1,.072.876,2.759,2.759,0,0,1-.679,1.5,6.03,6.03,0,0,1-.824.789c-.062.05-.322.321-.405.279-.047-.024-.009-.169-.014-.22a1.04,1.04,0,0,0-.172-.469c-.078-.1-.214-.15-.306-.237a2.2,2.2,0,0,1-.534-.869" transform="translate(-859.517 -282.688)" fill="#66cb00"/>
        <path id="Path_901740" data-name="Path 901740" d="M636.012,300.117A9.816,9.816,0,1,1,626.2,290.7a9.621,9.621,0,0,1,9.808,9.422" transform="translate(-555.679 -262.194)"/>
        <path id="Path_901741" data-name="Path 901741" d="M672.262,315.158c-.467,2.736-.232,6.3,2.527,7.149a3.81,3.81,0,0,0,3.8-.914,3.236,3.236,0,0,0,.483-3.8,10.369,10.369,0,0,0-1.324-1.486,6.734,6.734,0,0,1-1.177-7.062,7.207,7.207,0,0,0-3.865,4.308,12.5,12.5,0,0,0-.444,1.809" transform="translate(-605.896 -278.742)" fill="#31cdfe"/>
        <path id="Path_901742" data-name="Path 901742" d="M686.712,378.372a4.855,4.855,0,0,0,.763,2.376,1.431,1.431,0,0,0,.676.585.661.661,0,0,0,.792-.261,1.018,1.018,0,0,0,.074-.474,2.313,2.313,0,0,0-.089-.763,2.615,2.615,0,0,0-.453-.707,11.6,11.6,0,0,1-1.58-2.927,3.864,3.864,0,0,0-.183,2.171" transform="translate(-619.045 -339.319)" fill="#fff"/>
        <path id="Path_901743" data-name="Path 901743" d="M1723.491,918.977a8.624,8.624,0,0,0,2.984.767" transform="translate(-1554.251 -828.889)" fill="#31cdfe"/>
        <path id="Path_901744" data-name="Path 901744" d="M1724.446,917.946h-.016a8.839,8.839,0,0,1-3.061-.788.22.22,0,1,1,.184-.4,8.369,8.369,0,0,0,2.908.747.22.22,0,0,1-.015.44" transform="translate(-1552.222 -826.87)"/>
      </g>
    </g>
  </g>
</svg>
