<svg xmlns="http://www.w3.org/2000/svg" xmlns:xlink="http://www.w3.org/1999/xlink" width="108.914" height="108.914" viewBox="0 0 108.914 108.914">
  <defs>
    <filter id="Path_874925" x="0" y="0" width="108.914" height="108.914" filterUnits="userSpaceOnUse">
      <feOffset dy="3" input="SourceAlpha"/>
      <feGaussianBlur stdDeviation="3" result="blur"/>
      <feFlood flood-opacity="0.161"/>
      <feComposite operator="in" in2="blur"/>
      <feComposite in="SourceGraphic"/>
    </filter>
  </defs>
  <g id="Group_1113181" data-name="Group 1113181" transform="translate(-499.668 -10320)">
    <g id="Group_1111510" data-name="Group 1111510" transform="translate(508.667 10326)">
      <g id="Group_1107913" data-name="Group 1107913" transform="translate(0)" style="isolation: isolate">
        <g transform="matrix(1, 0, 0, 1, -9, -6)" filter="url(#Path_874925)">
          <g id="Path_874925-2" data-name="Path 874925" transform="translate(9 6)" fill="#f3d82a">
            <path d="M 45.45676803588867 89.41407012939453 C 39.52198028564453 89.41407012939453 33.76551818847656 88.25206756591797 28.34726715087891 85.96034240722656 C 23.11310577392578 83.74648284912109 18.41203117370605 80.57682800292969 14.37464332580566 76.5394287109375 C 10.33724308013916 72.50202941894531 7.167593002319336 67.80095672607422 4.953730583190918 62.56679534912109 C 2.662005424499512 57.14855575561523 1.500005483627319 51.39208221435547 1.500005483627319 45.45729446411133 C 1.500005483627319 39.52198028564453 2.662005424499512 33.76550674438477 4.953730583190918 28.34726905822754 C 7.167593002319336 23.11310577392578 10.33724308013916 18.41203117370605 14.37464332580566 14.37464332580566 C 18.41203117370605 10.33724403381348 23.11310577392578 7.167593955993652 28.34726715087891 4.953731060028076 C 33.76550674438477 2.662006139755249 39.52198028564453 1.500006198883057 45.45676803588867 1.500006198883057 C 51.39155578613281 1.500006198883057 57.14802932739258 2.662006139755249 62.56626892089844 4.953731060028076 C 67.80043029785156 7.167593955993652 72.50150299072266 10.33724403381348 76.53890228271484 14.37464332580566 C 80.57630920410156 18.41203117370605 83.74595642089844 23.11310577392578 85.95981597900391 28.34726905822754 C 88.25154113769531 33.76551818847656 89.41354370117188 39.52198028564453 89.41354370117188 45.45676803588867 C 89.41354370117188 51.39208221435547 88.25154113769531 57.14855575561523 85.95981597900391 62.56679534912109 C 83.74595642089844 67.80095672607422 80.57630920410156 72.50202941894531 76.53890228271484 76.5394287109375 C 72.50150299072266 80.57682800292969 67.80043029785156 83.74648284912109 62.56626892089844 85.96034240722656 C 57.14802932739258 88.25206756591797 51.39155578613281 89.41407012939453 45.45676803588867 89.41407012939453 Z" stroke="none"/>
            <path d="M 45.45676803588867 3 C 39.72381210327148 3 34.1639404296875 4.12213134765625 28.93159484863281 6.335227966308594 C 23.87622833251953 8.473472595214844 19.33542633056641 11.53517150878906 15.43529510498047 15.435302734375 C 11.53517150878906 19.33543395996094 8.473464965820312 23.87622833251953 6.335227966308594 28.93160247802734 C 4.122123718261719 34.16394424438477 3 39.72381591796875 3 45.4572868347168 C 3 51.19024658203125 4.122123718261719 56.75011825561523 6.335227966308594 61.98246002197266 C 8.473464965820312 67.03782653808594 11.53517150878906 71.57862854003906 15.43529510498047 75.478759765625 C 19.33542633056641 79.37889099121094 23.87622833251953 82.44058990478516 28.93159484863281 84.57883453369141 C 34.1639404296875 86.79193115234375 39.72381210327148 87.9140625 45.45676803588867 87.9140625 C 51.18972396850586 87.9140625 56.74959564208984 86.79193115234375 61.98194122314453 84.57883453369141 C 67.03730773925781 82.44058990478516 71.57810974121094 79.37889099121094 75.47824096679688 75.478759765625 C 79.37837219238281 71.57862854003906 82.44007110595703 67.03782653808594 84.57830810546875 61.98246002197266 C 86.79141235351562 56.75011825561523 87.91353607177734 51.19024658203125 87.91353607177734 45.4567756652832 C 87.91353607177734 39.72381591796875 86.79141235351562 34.16394424438477 84.57830810546875 28.93160247802734 C 82.44007110595703 23.87622833251953 79.37837219238281 19.33543395996094 75.47824096679688 15.435302734375 C 71.57810974121094 11.53517150878906 67.03730773925781 8.473472595214844 61.98194122314453 6.335227966308594 C 56.74959564208984 4.12213134765625 51.18972396850586 3 45.45676803588867 3 M 45.45676803588867 0 C 70.56185150146484 0 90.91353607177734 20.35169219970703 90.91353607177734 45.4567756652832 L 90.91353607177734 45.4572868347168 C 90.91353607177734 70.5623779296875 70.56185150146484 90.9140625 45.45676803588867 90.9140625 C 20.3516845703125 90.9140625 0 70.5623779296875 0 45.4572868347168 L 0 45.4567756652832 C 0 20.35169219970703 20.3516845703125 0 45.45676803588867 0 Z" stroke="none" fill="#fff"/>
          </g>
        </g>
        <g id="Path_874923" data-name="Path 874923" transform="translate(0)" fill="none">
          <path d="M45.457,0A45.457,45.457,0,0,1,90.914,45.457h0A45.457,45.457,0,0,1,0,45.457H0A45.457,45.457,0,0,1,45.457,0Z" stroke="none"/>
          <path d="M 45.45676803588867 3 C 39.72381210327148 3 34.1639404296875 4.12213134765625 28.93159484863281 6.335227966308594 C 23.87622833251953 8.473472595214844 19.33542633056641 11.53517150878906 15.43529510498047 15.435302734375 C 11.53517150878906 19.33543395996094 8.473464965820312 23.87622833251953 6.335227966308594 28.93160247802734 C 4.122123718261719 34.16394424438477 3 39.72381591796875 3 45.4572868347168 C 3 51.19024658203125 4.122123718261719 56.75011825561523 6.335227966308594 61.98246002197266 C 8.473464965820312 67.03782653808594 11.53517150878906 71.57862854003906 15.43529510498047 75.478759765625 C 19.33542633056641 79.37889099121094 23.87622833251953 82.44058990478516 28.93159484863281 84.57883453369141 C 34.1639404296875 86.79193115234375 39.72381210327148 87.9140625 45.45676803588867 87.9140625 C 51.18972396850586 87.9140625 56.74959564208984 86.79193115234375 61.98194122314453 84.57883453369141 C 67.03730773925781 82.44058990478516 71.57810974121094 79.37889099121094 75.47824096679688 75.478759765625 C 79.37837219238281 71.57862854003906 82.44007110595703 67.03782653808594 84.57830810546875 61.98246002197266 C 86.79141235351562 56.75011825561523 87.91353607177734 51.19024658203125 87.91353607177734 45.4567756652832 C 87.91353607177734 39.72381591796875 86.79141235351562 34.16394424438477 84.57830810546875 28.93160247802734 C 82.44007110595703 23.87622833251953 79.37837219238281 19.33543395996094 75.47824096679688 15.435302734375 C 71.57810974121094 11.53517150878906 67.03730773925781 8.473472595214844 61.98194122314453 6.335227966308594 C 56.74959564208984 4.12213134765625 51.18972396850586 3 45.45676803588867 3 M 45.45676803588867 0 C 70.56185150146484 0 90.91353607177734 20.35169219970703 90.91353607177734 45.4567756652832 L 90.91353607177734 45.4572868347168 C 90.91353607177734 70.5623779296875 70.56185150146484 90.9140625 45.45676803588867 90.9140625 C 20.3516845703125 90.9140625 0 70.5623779296875 0 45.4572868347168 L 0 45.4567756652832 C 0 20.35169219970703 20.3516845703125 0 45.45676803588867 0 Z" stroke="none" fill="#fff"/>
        </g>
      </g>
    </g>
    <g id="Group_1113180" data-name="Group 1113180" transform="translate(528.667 10345)">
      <g id="Group_1113178" data-name="Group 1113178" transform="translate(0.822 0.821)">
        <g id="Group_1113177" data-name="Group 1113177" transform="translate(15.621 39.463)">
          <ellipse id="Ellipse_11849" data-name="Ellipse 11849" cx="2.5" cy="2" rx="2.5" ry="2" transform="translate(15.174 5.333)" fill="#896148"/>
          <circle id="Ellipse_11850" data-name="Ellipse 11850" cx="2" cy="2" r="2" transform="translate(0.174 5.333)" fill="#896148"/>
          <circle id="Ellipse_11851" data-name="Ellipse 11851" cx="1.5" cy="1.5" r="1.5" transform="translate(8.174 0.333)" fill="#896148"/>
        </g>
        <path id="Path_901745" data-name="Path 901745" d="M50.04,57.975v2.466H4V57.975A6.575,6.575,0,0,1,10.577,51.4h3.289a7.4,7.4,0,0,1,7.4-7.4h11.51a7.4,7.4,0,0,1,7.4,7.4h3.289A6.575,6.575,0,0,1,50.04,57.975ZM36.886,55.1a2.055,2.055,0,1,0-2.055,2.055A2.056,2.056,0,0,0,36.886,55.1Zm-8.221-5.344A1.644,1.644,0,1,0,27.02,51.4,1.649,1.649,0,0,0,28.664,49.754Zm-7.4,5.344a2.055,2.055,0,1,0-2.055,2.055A2.056,2.056,0,0,0,21.265,55.1Z" transform="translate(-1.534 -8.647)" fill="#9b7868"/>
        <path id="Path_901746" data-name="Path 901746" d="M33.611,22V40.086H29.5V22h4.111Z" transform="translate(-6.069 -4.734)" fill="#7fc94f"/>
        <path id="Path_901747" data-name="Path 901747" d="M57.486,1V5.11A13.151,13.151,0,0,1,44.332,18.264H32C40.221,5.11,57.486,1,57.486,1Z" transform="translate(-6.514 -0.999)" fill="#5eb132"/>
        <path id="Path_901748" data-name="Path 901748" d="M57.486,1S40.221,5.11,32,18.264V14.153A13.151,13.151,0,0,1,45.154,1Z" transform="translate(-6.514 -0.999)" fill="#7fc94f"/>
        <path id="Path_901749" data-name="Path 901749" d="M26.486,14.153v4.111C18.265,5.11,1,1,1,1H13.332A13.137,13.137,0,0,1,26.486,14.153Z" transform="translate(-1 -0.999)" fill="#7fc94f"/>
        <path id="Path_901750" data-name="Path 901750" d="M1,1S18.265,5.11,26.486,18.264H14.154A13.151,13.151,0,0,1,1,5.11Z" transform="translate(-1 -0.999)" fill="#5eb132"/>
      </g>
      <g id="Group_1113179" data-name="Group 1113179" transform="translate(0 0)">
        <path id="Path_901751" data-name="Path 901751" d="M38.641,18.908A13.992,13.992,0,0,0,52.617,4.932V.821A.822.822,0,0,0,51.8,0H39.463a14,14,0,0,0-13.15,9.24A13.969,13.969,0,0,0,13.154,0H.822A.822.822,0,0,0,0,.821V4.932A13.992,13.992,0,0,0,13.976,18.908h9.455V35.351H20.554a8.233,8.233,0,0,0-8.18,7.4H9.866a7.408,7.408,0,0,0-7.4,7.4v1.644a.822.822,0,0,0,1.644,0V50.15a5.761,5.761,0,0,1,5.755-5.755h3.289a.822.822,0,0,0,.822-.822A6.585,6.585,0,0,1,20.554,37h11.51a6.585,6.585,0,0,1,6.577,6.577.822.822,0,0,0,.822.822h3.289a5.761,5.761,0,0,1,5.755,5.755v1.644a.822.822,0,0,0,1.644,0V50.15a7.408,7.408,0,0,0-7.4-7.4H40.244a8.233,8.233,0,0,0-8.18-7.4H29.186V18.908Zm.822-17.265h11.51V4.932A12.346,12.346,0,0,1,38.641,17.264H27.84C32.131,11.151,38.435,7.22,43.11,4.958a.822.822,0,1,0-.716-1.479C37.763,5.72,31.591,9.554,27.132,15.46V13.976A12.346,12.346,0,0,1,39.464,1.644ZM13.976,17.264A12.346,12.346,0,0,1,1.644,4.932V1.643h11.51A12.316,12.316,0,0,1,25.486,13.976v1.487A39.364,39.364,0,0,0,13.205,5.038a.822.822,0,1,0-.81,1.431A37.078,37.078,0,0,1,24.76,17.263H13.976Zm11.1,18.087V18.908h2.466V35.351Z" transform="translate(0 0)" fill="#252525"/>
        <path id="Path_901752" data-name="Path 901752" d="M21.878,54A2.881,2.881,0,0,0,19,56.877a.822.822,0,0,0,1.644,0,1.233,1.233,0,1,1,1.233,1.233.822.822,0,1,0,0,1.644,2.878,2.878,0,0,0,0-5.755Z" transform="translate(-3.379 -9.604)" fill="#252525"/>
        <path id="Path_901753" data-name="Path 901753" d="M40.878,54a2.878,2.878,0,0,0,0,5.755.822.822,0,0,0,0-1.644,1.233,1.233,0,1,1,1.233-1.233.822.822,0,0,0,1.644,0A2.881,2.881,0,0,0,40.878,54Z" transform="translate(-6.759 -9.604)" fill="#252525"/>
        <path id="Path_901754" data-name="Path 901754" d="M31.466,48A2.469,2.469,0,0,0,29,50.465a.822.822,0,0,0,1.644,0,.822.822,0,1,1,1.644,0,.822.822,0,0,0,1.644,0A2.469,2.469,0,0,0,31.466,48Z" transform="translate(-5.158 -8.537)" fill="#252525"/>
        <circle id="Ellipse_11852" data-name="Ellipse 11852" cx="0.822" cy="0.822" r="0.822" transform="translate(9.044 3.395)" fill="#252525"/>
      </g>
    </g>
  </g>
</svg>
