<svg xmlns="http://www.w3.org/2000/svg" xmlns:xlink="http://www.w3.org/1999/xlink" width="295.351" height="341.044" viewBox="0 0 295.351 341.044">
  <defs>
    <clipPath id="clip-path">
      <rect id="Rectangle_406618" data-name="Rectangle 406618" width="295" height="341.044" rx="8" transform="translate(1126.701 12542.62)" fill="#e2dacc"/>
    </clipPath>
    <clipPath id="clip-path-2">
      <rect id="Rectangle_406621" data-name="Rectangle 406621" width="366.625" height="239.991" fill="none"/>
    </clipPath>
    <clipPath id="clip-path-3">
      <rect id="Rectangle_406617" data-name="Rectangle 406617" width="335.571" height="736.753" fill="none"/>
    </clipPath>
    <clipPath id="clip-path-4">
      <rect id="Rectangle_406616" data-name="Rectangle 406616" width="335.57" height="736.753" fill="none"/>
    </clipPath>
    <clipPath id="clip-path-5">
      <rect id="Rectangle_406611" data-name="Rectangle 406611" width="44.966" height="68.951" fill="none"/>
    </clipPath>
    <clipPath id="clip-path-6">
      <rect id="Rectangle_406612" data-name="Rectangle 406612" width="84.439" height="90.879" fill="none"/>
    </clipPath>
    <clipPath id="clip-path-7">
      <rect id="Rectangle_406613" data-name="Rectangle 406613" width="11.923" height="11.924" fill="none"/>
    </clipPath>
    <clipPath id="clip-path-8">
      <rect id="Rectangle_406615" data-name="Rectangle 406615" width="144.935" height="173.644" fill="none"/>
    </clipPath>
  </defs>
  <g id="Group_1113212" data-name="Group 1113212" transform="translate(-1126.667 -12543)">
    <rect id="Rectangle_406440" data-name="Rectangle 406440" width="273.35" height="327" rx="8" transform="translate(1148.667 12557)" fill="#e2dacc"/>
    <g id="Mask_Group_1098736" data-name="Mask Group 1098736" transform="translate(-0.034 0.38)" clip-path="url(#clip-path)">
      <g id="Group_1113210" data-name="Group 1113210" transform="translate(986.093 12554.003)">
        <rect id="Rectangle_406619" data-name="Rectangle 406619" width="366.625" height="221.563" transform="translate(0 18.426)" fill="#d3e5fc"/>
        <g id="Group_1113211" data-name="Group 1113211" transform="translate(0 -0.003)">
          <g id="Group_1113210-2" data-name="Group 1113210" clip-path="url(#clip-path-2)">
            <path id="Path_902018" data-name="Path 902018" d="M646.329,323.558v11.236a5.01,5.01,0,0,1-5.009,5.012H592.829a5.01,5.01,0,0,1-5.009-5.012V323.558a5.008,5.008,0,0,1,5.009-5.009h48.492a5.008,5.008,0,0,1,5.009,5.009" transform="translate(-464.823 -251.894)" fill="#b0cdfc"/>
            <path id="Path_902019" data-name="Path 902019" d="M632.512,332.394v9.067c0,2.233-1.373,4.044-3.067,4.044H599.751c-1.694,0-3.067-1.811-3.067-4.044v-9.067c0-2.233,1.373-4.042,3.067-4.042h29.694c1.694,0,3.067,1.809,3.067,4.042" transform="translate(-471.832 -259.646)" fill="#f44536"/>
            <path id="Path_902020" data-name="Path 902020" d="M646.329,885.136v11.236a5.01,5.01,0,0,1-5.009,5.012H592.829a5.01,5.01,0,0,1-5.009-5.012V885.136a5.008,5.008,0,0,1,5.009-5.009h48.492a5.008,5.008,0,0,1,5.009,5.009" transform="translate(-464.823 -695.966)" fill="#b0cdfc"/>
            <path id="Path_902021" data-name="Path 902021" d="M640.76,893.972v9.067a3.916,3.916,0,0,1-3.773,4.044H600.457a3.916,3.916,0,0,1-3.773-4.044v-9.067a3.914,3.914,0,0,1,3.773-4.042h36.529a3.914,3.914,0,0,1,3.773,4.042" transform="translate(-471.832 -703.718)" fill="#6ed177"/>
            <path id="Path_902022" data-name="Path 902022" d="M1458.518,323.558v11.236a5.01,5.01,0,0,1-5.009,5.012h-48.492a5.01,5.01,0,0,1-5.009-5.012V323.558a5.008,5.008,0,0,1,5.009-5.009h48.492a5.008,5.008,0,0,1,5.009,5.009" transform="translate(-1107.068 -251.894)" fill="#b0cdfc"/>
            <path id="Path_902023" data-name="Path 902023" d="M1455.728,332.394v9.067a4.028,4.028,0,0,1-4.011,4.044h-38.833a4.028,4.028,0,0,1-4.011-4.044v-9.067a4.026,4.026,0,0,1,4.011-4.042h38.833a4.026,4.026,0,0,1,4.011,4.042" transform="translate(-1114.077 -259.646)" fill="#fdbd04"/>
            <path id="Path_902024" data-name="Path 902024" d="M1458.518,885.136v11.236a5.01,5.01,0,0,1-5.009,5.012h-48.492a5.01,5.01,0,0,1-5.009-5.012V885.136a5.008,5.008,0,0,1,5.009-5.009h48.492a5.008,5.008,0,0,1,5.009,5.009" transform="translate(-1107.068 -695.966)" fill="#b0cdfc"/>
            <path id="Path_902025" data-name="Path 902025" d="M1429.041,893.972v9.067c0,2.233-.773,4.044-1.726,4.044H1410.6c-.954,0-1.727-1.811-1.727-4.044v-9.067c0-2.233.773-4.042,1.727-4.042h16.714c.954,0,1.726,1.809,1.726,4.042" transform="translate(-1114.078 -703.718)" fill="#f44536"/>
            <path id="Path_902026" data-name="Path 902026" d="M221.486,210.5a40.438,40.438,0,1,1-40.438-40.438A40.438,40.438,0,0,1,221.486,210.5" transform="translate(-111.188 -134.477)" fill="#fff"/>
            <path id="Path_902027" data-name="Path 902027" d="M160.984,236.185a45.748,45.748,0,1,1,32.348-13.4,45.448,45.448,0,0,1-32.348,13.4m0-89.821a44.074,44.074,0,1,0,44.074,44.074,44.124,44.124,0,0,0-44.074-44.074" transform="translate(-91.124 -114.414)" fill="#fff"/>
            <path id="Path_902028" data-name="Path 902028" d="M222.984,329.536a.418.418,0,0,1-.283-.727l38.077-34.947a.419.419,0,1,1,.566.617l-38.077,34.948a.417.417,0,0,1-.283.11" transform="translate(-175.995 -232.285)" fill="#fdbd04"/>
            <path id="Path_902029" data-name="Path 902029" d="M215.369,320.511c0,8.628-8.161,15.622-8.161,15.622s-8.161-6.994-8.161-15.622,8.161-15.622,8.161-15.622,8.161,6.994,8.161,15.622" transform="translate(-157.399 -241.093)" fill="#fdbd04"/>
            <path id="Path_902030" data-name="Path 902030" d="M284.332,249.618c0,8.628-8.161,15.622-8.161,15.622s-8.161-6.994-8.161-15.622S276.172,234,276.172,234s8.161,6.994,8.161,15.622" transform="translate(-211.932 -185.033)" fill="#fdbd04"/>
            <path id="Path_902031" data-name="Path 902031" d="M319.921,367.464c8.6.66,16.2-6.942,16.2-6.942s-6.349-8.672-14.952-9.331-16.2,6.942-16.2,6.942,6.35,8.672,14.952,9.331" transform="translate(-241.157 -277.674)" fill="#fdbd04"/>
            <path id="Path_902032" data-name="Path 902032" d="M243.963,430.8c8.6.66,16.2-6.942,16.2-6.942s-6.349-8.672-14.952-9.331-16.2,6.942-16.2,6.942,6.349,8.672,14.952,9.331" transform="translate(-181.092 -327.76)" fill="#fdbd04"/>
            <path id="Path_902033" data-name="Path 902033" d="M368.15,251.129c-5.679,6.5-16.426,6.389-16.426,6.389s-1.54-10.637,4.139-17.132S372.289,234,372.289,234s1.54,10.637-4.139,17.132" transform="translate(-277.978 -185.034)" fill="#fdbd04"/>
            <path id="Path_902034" data-name="Path 902034" d="M221.486,716.1a40.438,40.438,0,1,1-40.438-40.438A40.438,40.438,0,0,1,221.486,716.1" transform="translate(-111.188 -534.28)" fill="#fff"/>
            <path id="Path_902035" data-name="Path 902035" d="M160.984,741.779a45.748,45.748,0,1,1,32.348-13.4,45.448,45.448,0,0,1-32.348,13.4m0-89.821a44.074,44.074,0,1,0,44.074,44.074,44.124,44.124,0,0,0-44.074-44.074" transform="translate(-91.124 -514.216)" fill="#fff"/>
            <path id="Path_902036" data-name="Path 902036" d="M318.434,718.7v46.519H307.328V718.7c0-2.46,2.487-4.454,5.555-4.454a6.3,6.3,0,0,1,3.926,1.3,4.059,4.059,0,0,1,1.626,3.151" transform="translate(-243.022 -564.791)" fill="#b0cdfc"/>
            <path id="Path_902037" data-name="Path 902037" d="M308.121,944.3a9.265,9.265,0,1,1-9.265-9.265,9.265,9.265,0,0,1,9.265,9.265" transform="translate(-228.997 -739.389)" fill="#b0cdfc"/>
            <path id="Path_902038" data-name="Path 902038" d="M314.2,952.566a7.079,7.079,0,1,1-7.078-7.078,7.078,7.078,0,0,1,7.078,7.078" transform="translate(-237.259 -747.651)" fill="#f44536"/>
            <path id="Path_902039" data-name="Path 902039" d="M325.114,808.086v31.138h-6.3V808.086a3.069,3.069,0,0,1,3.15-2.981,3.235,3.235,0,0,1,2.227.873,2.9,2.9,0,0,1,.922,2.109" transform="translate(-252.105 -636.642)" fill="#f44536"/>
            <path id="Path_902040" data-name="Path 902040" d="M1013.243,210.5A40.438,40.438,0,1,1,972.8,170.062a40.438,40.438,0,0,1,40.438,40.438" transform="translate(-737.275 -134.477)" fill="#fff"/>
            <path id="Path_902041" data-name="Path 902041" d="M952.74,236.185a45.748,45.748,0,1,1,32.349-13.4,45.448,45.448,0,0,1-32.349,13.4m0-89.821a44.074,44.074,0,1,0,44.074,44.074,44.124,44.124,0,0,0-44.074-44.074" transform="translate(-717.211 -114.414)" fill="#fff"/>
            <path id="Path_902042" data-name="Path 902042" d="M1065.511,262.088c-.731,12.223-9.3,17.984-22.276,17.984S1022.3,271.9,1022.3,262.84c0-16.207,20.936-42.679,20.936-42.679s23.243,25.749,22.276,41.927" transform="translate(-808.391 -174.093)" fill="#b0cdfc"/>
            <path id="Path_902043" data-name="Path 902043" d="M1052.051,305.229s-14.923,24.722-6.983,28.427c9.818,4.581,6.983-28.427,6.983-28.427" transform="translate(-824.555 -241.361)" fill="#fff"/>
            <path id="Path_902044" data-name="Path 902044" d="M1013.243,716.1A40.438,40.438,0,1,1,972.8,675.657a40.438,40.438,0,0,1,40.438,40.438" transform="translate(-737.275 -534.28)" fill="#fff"/>
            <path id="Path_902045" data-name="Path 902045" d="M952.74,741.779a45.748,45.748,0,1,1,32.349-13.4,45.449,45.449,0,0,1-32.349,13.4m0-89.821a44.074,44.074,0,1,0,44.074,44.074,44.124,44.124,0,0,0-44.074-44.074" transform="translate(-717.211 -514.216)" fill="#fff"/>
            <path id="Path_902046" data-name="Path 902046" d="M1089.572,819.889a12.973,12.973,0,1,1-12.974-12.973,12.973,12.973,0,0,1,12.974,12.973" transform="translate(-841.069 -638.074)" fill="#fdbd04"/>
            <path id="Path_902047" data-name="Path 902047" d="M1122.586,729.011v11.04a1.094,1.094,0,0,1-2.188,0v-11.04a1.094,1.094,0,1,1,2.188,0" transform="translate(-885.963 -575.606)" fill="#fdbd04"/>
            <path id="Path_902048" data-name="Path 902048" d="M1122.586,947.8v11.04a1.094,1.094,0,0,1-2.188,0V947.8a1.094,1.094,0,0,1,2.188,0" transform="translate(-885.963 -748.617)" fill="#fdbd04"/>
            <path id="Path_902049" data-name="Path 902049" d="M985.719,863.689h11.04a1.094,1.094,0,0,1,0,2.188h-11.04a1.094,1.094,0,0,1,0-2.188" transform="translate(-778.6 -682.968)" fill="#fdbd04"/>
            <path id="Path_902050" data-name="Path 902050" d="M1204.51,863.689h11.04a1.094,1.094,0,0,1,0,2.188h-11.04a1.094,1.094,0,1,1,0-2.188" transform="translate(-951.611 -682.968)" fill="#fdbd04"/>
            <path id="Path_902051" data-name="Path 902051" d="M1024.709,930.519l7.806-7.806a1.094,1.094,0,0,1,1.547,1.547l-7.806,7.806a1.094,1.094,0,1,1-1.547-1.547" transform="translate(-810.042 -729.388)" fill="#fdbd04"/>
            <path id="Path_902052" data-name="Path 902052" d="M1179.418,775.81l7.806-7.806a1.094,1.094,0,0,1,1.547,1.548l-7.806,7.806a1.094,1.094,0,1,1-1.547-1.547" transform="translate(-932.38 -607.051)" fill="#fdbd04"/>
            <path id="Path_902053" data-name="Path 902053" d="M1187.227,932.066l-7.806-7.806a1.094,1.094,0,0,1,1.547-1.547l7.806,7.806a1.094,1.094,0,1,1-1.547,1.547" transform="translate(-932.383 -729.388)" fill="#fdbd04"/>
            <path id="Path_902054" data-name="Path 902054" d="M1032.518,777.357l-7.807-7.806a1.094,1.094,0,0,1,1.547-1.547l7.806,7.806a1.094,1.094,0,1,1-1.547,1.547" transform="translate(-810.046 -607.051)" fill="#fdbd04"/>
            <rect id="Rectangle_406620" data-name="Rectangle 406620" width="366.625" height="18.5" fill="#f44536"/>
            <path id="Path_902055" data-name="Path 902055" d="M1693.395,31.405a.621.621,0,0,1-.44-.182l-7.964-7.964a.623.623,0,1,1,.881-.881l7.964,7.964a.623.623,0,0,1-.441,1.064" transform="translate(-1332.274 -17.55)" fill="#fff"/>
            <path id="Path_902056" data-name="Path 902056" d="M1685.43,31.405a.623.623,0,0,1-.44-1.064l7.964-7.964a.623.623,0,0,1,.881.881l-7.964,7.964a.621.621,0,0,1-.441.182" transform="translate(-1332.274 -17.55)" fill="#fff"/>
            <path id="Path_902057" data-name="Path 902057" d="M1628.451,31.405h-7.964a.623.623,0,0,1-.623-.623V22.818a.623.623,0,0,1,.623-.623h7.964a.623.623,0,0,1,.623.623v7.964a.623.623,0,0,1-.623.623m-7.341-1.246h6.718V23.441h-6.718Z" transform="translate(-1280.92 -17.55)" fill="#fff"/>
            <path id="Path_902058" data-name="Path 902058" d="M1567.929,61.5h-7.964a.623.623,0,0,1,0-1.246h7.964a.623.623,0,1,1,0,1.246" transform="translate(-1233.061 -47.648)" fill="#fff"/>
          </g>
        </g>
      </g>
      <g id="Group_1113209" data-name="Group 1113209" transform="translate(1147.265 12570)">
        <g id="Group_1113208" data-name="Group 1113208" clip-path="url(#clip-path-3)">
          <g id="Group_1113207" data-name="Group 1113207" transform="translate(0 -0.001)">
            <g id="Group_1113206" data-name="Group 1113206" clip-path="url(#clip-path-4)">
              <path id="Path_901934" data-name="Path 901934" d="M797.37,200.637c-5.345,0-10.038-.983-12.349-2.165a1.1,1.1,0,1,1,1-1.957c4.781,2.445,24.075,4.24,31.437-6,4.267-5.936,1.739-10.841-1.189-16.519-2.225-4.315-4.525-8.778-4.261-14.229.573-11.865-8.354-24.508-8.445-24.634a1.1,1.1,0,0,1,1.789-1.278c.386.541,9.461,13.4,8.851,26.018-.235,4.862,1.928,9.058,4.019,13.116,2.985,5.791,6.072,11.78,1.02,18.809-4.482,6.237-12.312,8.16-18.091,8.676-1.281.114-2.549.167-3.782.167" transform="translate(-568.903 -96.741)" fill="#a63725"/>
              <path id="Path_901935" data-name="Path 901935" d="M583,236.5s-10.156,10.8-25.352,7.939c-6.721-1.265-15.174-7.725-8.839-22.7,1.978-4.676,2.9-31.539,3.082-38.523S584.324,207.7,584.324,207.7l6.688,17.6Z" transform="translate(-396.402 -132.145)" fill="#a63725"/>
              <path id="Path_901936" data-name="Path 901936" d="M725.94,6.945s36.942,7.11,39.255,38.363-4.063,35.107,4.522,45.13-19.193,18.8-30.826,19.245-18.066,4.285-15.542-5.167,3.074-55.023,2.8-56.331-.208-41.239-.208-41.239" transform="translate(-524.214 -5.036)" fill="#a63725"/>
              <path id="Path_901937" data-name="Path 901937" d="M222.943,674.539l-73.336-68.1-23.177,19.37s31.725,66.06,71.918,83.123c13.614,5.779,46.48-7.118,24.6-34.392" transform="translate(-91.693 -439.818)" fill="#f47a62"/>
              <path id="Path_901938" data-name="Path 901938" d="M34.815,523.47a70.782,70.782,0,0,1-13.688-14.341c-5.966-8.065-9.558-18.236-6.819-21.535a1.307,1.307,0,0,1,.838-.519c.368,0,1.638.07,4.666,4.074,3.244,3.863,8.247,11.658,21.075,23.854.316-.373-6.03,8.492-6.072,8.466" transform="translate(-9.7 -353.251)" fill="#f47a62"/>
              <path id="Path_901939" data-name="Path 901939" d="M53.655,506.662a63.568,63.568,0,0,1-13.1-12.388c-5.771-7.064-9.455-16.181-6.793-19.466a1.373,1.373,0,0,1,.821-.543c.358-.022,1.6-.006,4.509,3.766,3.124,3.637,7.924,11.03,20.265,22.652.307-.371-5.663,6.01-5.706,5.978" transform="translate(-23.849 -343.958)" fill="#f47a62"/>
              <path id="Path_901940" data-name="Path 901940" d="M85.531,493.415a55.8,55.8,0,0,1-10.252-11.086c-4.451-6.208-7.131-13.954-4.616-16.753a1.247,1.247,0,0,1,.7-.428c.318-.035,1.379-.006,3.691,3.222,2.481,3.14,6.213,9.479,15.756,20.045.287-.315-5.25,5.028-5.283,5" transform="translate(-50.546 -337.344)" fill="#f47a62"/>
              <path id="Path_901941" data-name="Path 901941" d="M24.208,571.526a69.7,69.7,0,0,1-14.272-10.46C3.39,555-1.564,546.9.458,543.734a2.619,2.619,0,0,1,.893-.921c.46-.245,1.569-.2,4.929,3.251,3.52,3.311,9.29,10.031,22.783,19.841.247-.35-4.819,5.644-4.855,5.621" transform="translate(0 -393.611)" fill="#f47a62"/>
              <path id="Path_901942" data-name="Path 901942" d="M48.153,517.56a.526.526,0,0,1-.32-.108c-9.8-7.474-14.654-18.04-15.528-20.081a.527.527,0,0,1,.969-.415,52.4,52.4,0,0,0,15.2,19.658.527.527,0,0,1-.32.946" transform="translate(-23.398 -360.185)" fill="#131313"/>
              <path id="Path_901943" data-name="Path 901943" d="M119.461,519.309s-5.847-13.66,6.732-23.8c-.124.109-5.836-15.179.317-18.924a2.672,2.672,0,0,1,2.349-.277c1.318.514,2.542,2.607,2.916,7.21.5,3.5,3.388,10.684,7.456,15.652,4.231,4.361,8.6,18.968-.488,26.967L128.076,531.5Z" transform="translate(-85.655 -345.329)" fill="#f47a62"/>
              <path id="Path_901944" data-name="Path 901944" d="M83.725,583.151s-16.134-9.53-21.474-18.069c7.005-7.612,13.519-22.719,25.359-21.926,1.174.467,15.768,21.017,15.768,21.017s-4.9,14.708-19.653,18.978" transform="translate(-45.148 -393.901)" fill="#f47a62"/>
              <path id="Path_901945" data-name="Path 901945" d="M128.292,569.138a.57.57,0,0,1-.438-.2,25.533,25.533,0,0,1-4.3-8.17,16.367,16.367,0,0,1,3.887-16.867.572.572,0,1,1,.828.79c-4.232,4.439-5.454,9.724-3.632,15.708a24.845,24.845,0,0,0,4.093,7.8.572.572,0,0,1-.439.939" transform="translate(-88.986 -394.332)" fill="#131313"/>
              <path id="Path_901946" data-name="Path 901946" d="M123.891,670.129a.962.962,0,0,1-.279-1.882l6.528-1.982a.962.962,0,0,1,.559,1.841l-6.528,1.981a.961.961,0,0,1-.28.042" transform="translate(-89.154 -483.178)" fill="#131313"/>
              <path id="Path_901947" data-name="Path 901947" d="M420.253,595.756c63.548,1.574,86.277-107.871,71.44-144.019-2.173-5.293-39.527-13.44-51.514,47.022-4.332,21.85-14.427,33.146-21.7,45.849,1.93-.4,8.447,38.115,1.772,51.148" transform="translate(-303.504 -324.998)" fill="#ecb104"/>
              <g id="Group_1113196" data-name="Group 1113196" transform="translate(116.749 201.824)" opacity="0.4">
                <g id="Group_1113195" data-name="Group 1113195">
                  <g id="Group_1113194" data-name="Group 1113194" clip-path="url(#clip-path-5)">
                    <path id="Path_901948" data-name="Path 901948" d="M451.847,734.569,426.9,796.5a21.855,21.855,0,0,1-1.97,7c18.376.455,33.338-8.373,44.966-22.027Z" transform="translate(-424.929 -734.569)" fill="#fc7c1a"/>
                  </g>
                </g>
              </g>
              <path id="Path_901949" data-name="Path 901949" d="M689.206,2298.475l-24.505,1.04-29.839,8.424c.2,2.971.41,6.634.563,10.522L688,2314.377c.631-9.025,1.2-15.9,1.2-15.9" transform="translate(-460.434 -1666.968)" fill="#d14a4a"/>
              <path id="Path_901950" data-name="Path 901950" d="M624.671,1221.392s42.593-145.8,8.783-202.219c-7.912-13.2-41.95-16.3-68.372-12.156-17.461,2.737-29.1-6.011-30.04,11.638-3.907,73-2.4,180.071-1.559,200.294a36.949,36.949,0,0,0,2.026,10.675c19.948,56.974,89.162-8.233,89.162-8.233" transform="translate(-386.183 -729.094)" fill="#40467a"/>
              <path id="Path_901951" data-name="Path 901951" d="M628.189,1791.8l-90.856,1.228C544.3,1860.671,559.97,1944.3,559.97,1944.3l65.316-1.515Z" transform="translate(-389.701 -1299.503)" fill="#40467a"/>
              <path id="Path_901952" data-name="Path 901952" d="M792.445,1790.5a.962.962,0,0,1-.013-1.924l20.066-.271h.013a.962.962,0,0,1,.013,1.924l-20.066.271Z" transform="translate(-574.023 -1296.964)" fill="#3a3f6e"/>
              <path id="Path_901953" data-name="Path 901953" d="M617.187,2341.257a.962.962,0,0,1-.022-1.923l65.316-1.514h.023a.962.962,0,0,1,.022,1.923l-65.316,1.514h-.023" transform="translate(-446.918 -1695.503)" fill="#3a3f6e"/>
              <path id="Path_901954" data-name="Path 901954" d="M599.456,2238.137a.962.962,0,0,1-.038-1.923l70.654-2.829a.961.961,0,0,1,.077,1.921l-70.654,2.83h-.039" transform="translate(-434.058 -1619.762)" fill="#3a3f6e"/>
              <g id="Group_1113199" data-name="Group 1113199" transform="translate(146.3 398.404)" opacity="0.4">
                <g id="Group_1113198" data-name="Group 1113198">
                  <g id="Group_1113197" data-name="Group 1113197" clip-path="url(#clip-path-6)">
                    <path id="Path_901955" data-name="Path 901955" d="M533.46,1540.938l83.461-90.88-84.422.29c-.132,42.446.5,78.889.961,90.59" transform="translate(-532.482 -1450.058)" fill="#a63725"/>
                  </g>
                </g>
              </g>
              <path id="Path_901956" data-name="Path 901956" d="M530.84,105.476a12.045,12.045,0,0,1-10.685-5.636c-3.832-5.945-3.548-16.01.632-22.436,2.5-3.84,5.961-5.629,9.751-5.035a1.1,1.1,0,1,1-.34,2.171c-3.691-.578-6.154,1.889-7.568,4.062-3.287,5.052-4.323,14.313-.627,20.047,2.365,3.67,6.3,5.2,11.385,4.426a1.1,1.1,0,0,1,.331,2.173,19.141,19.141,0,0,1-2.879.228" transform="translate(-375.286 -52.404)" fill="#a63725"/>
              <path id="Path_901957" data-name="Path 901957" d="M573.506,6.86c-8.752-.531-18.39-.8-25.26,4.648a18.3,18.3,0,0,0-6.789,14.976c-3.349-.371-6.6,1.87-8.205,4.834s-1.8,6.5-1.444,9.848c.574,5.389,4.894,17.077,14.848,17.915,9.113-12.12,4.4-33.15,16.6-42.158,4.184-3.089,8.313-5.239,10.251-10.064" transform="translate(-385.584 -4.782)" fill="#a63725"/>
              <path id="Path_901958" data-name="Path 901958" d="M599.582,544.578c.941-51.042,21.24-93.155,20.44-118.913-9.231-39.07-42.622-31.708-42.622-31.708s-41.5,14.074-44.55,14.753c0,0-24.909,12.416-35.354,33a50.669,50.669,0,0,0-3.957,10.262c-5.8,22.327,10.433,119.215,10.433,119.215s91.633,2.447,95.284-2.242c-3.308-11.195-1.073-12.63.325-24.367" transform="translate(-357.031 -285.317)" fill="#ff8a6c"/>
              <path id="Path_901959" data-name="Path 901959" d="M584.257,65.645c-17.9-14.61-34.655-23.614-28.087-41.572,7.715-21.1,25.453-27.807,47.862-22.166,21.25,5.349,44.416,43.1,10.127,62.479-20.109,11.366-10.158,17.373-29.9,1.26" transform="translate(-402.306 0.002)" fill="#a63725"/>
              <path id="Path_901960" data-name="Path 901960" d="M668.237,270.285c-3.1-.5-11.2-6.477-11.626-10.437l-3.876-36.214-36.718,3.93,4.44,41.481a10.981,10.981,0,0,1-1.037,5.742,7.067,7.067,0,0,1-4.3,3.631l-1.954.729c-26.673,44.4,55.072-8.861,55.072-8.861" transform="translate(-440.819 -162.19)" fill="#ff8a6c"/>
              <path id="Path_901961" data-name="Path 901961" d="M638,238.417l3.017,28.186c4.763-.506,17.664-7.887,24.729-29.085-.915-.553-20.759,1.543-27.746.9" transform="translate(-462.709 -172.191)" fill="#d14a4a"/>
              <path id="Path_901962" data-name="Path 901962" d="M618.945,101.821a35.174,35.174,0,0,1-36.184,37.123c-10.7-.167-15.617-16.489-16.858-35.434s6.932-32.6,18.865-33.38,32.935,12.746,34.177,31.691" transform="translate(-410.33 -50.838)" fill="#ff8a6c"/>
              <path id="Path_901963" data-name="Path 901963" d="M657.135,174.779c-.1,1.319-.8,2.339-1.562,2.28s-1.289-1.178-1.185-2.5.8-2.34,1.562-2.28,1.289,1.178,1.185,2.5" transform="translate(-474.585 -124.945)" fill="#131313"/>
              <path id="Path_901964" data-name="Path 901964" d="M589.946,182.176c-.1,1.319-.8,2.339-1.562,2.28s-1.289-1.178-1.185-2.5.8-2.34,1.562-2.28,1.289,1.178,1.185,2.5" transform="translate(-425.856 -130.31)" fill="#131313"/>
              <path id="Path_901965" data-name="Path 901965" d="M648.26,153.962a.96.96,0,0,1-.532-.161,9.288,9.288,0,0,0-10.681-.061.962.962,0,0,1-1.168-1.528,11.374,11.374,0,0,1,12.915-.012.962.962,0,0,1-.534,1.762" transform="translate(-460.899 -108.912)" fill="#131313"/>
              <path id="Path_901966" data-name="Path 901966" d="M571.341,159.692a.96.96,0,0,1-.723-1.592c1.225-1.4,4.687-3.263,9.018-.322a.961.961,0,1,1-1.08,1.591c-3.91-2.654-6.244-.276-6.5,0a.966.966,0,0,1-.717.318" transform="translate(-413.668 -113.296)" fill="#131313"/>
              <g id="Group_1113202" data-name="Group 1113202" transform="translate(185.03 52.151)" opacity="0.4">
                <g id="Group_1113201" data-name="Group 1113201">
                  <g id="Group_1113200" data-name="Group 1113200" clip-path="url(#clip-path-7)">
                    <path id="Path_901967" data-name="Path 901967" d="M685.078,197.617a5.96,5.96,0,1,1-3.828-7.509,5.961,5.961,0,0,1,3.828,7.509" transform="translate(-673.448 -189.813)" fill="#d14a4a"/>
                  </g>
                </g>
              </g>
              <path id="Path_901968" data-name="Path 901968" d="M654.193,71.674S676.9,76.3,680.7,100.1c1.249-1.314,9.884-7.435,9.884-7.435s-4.945-21.957-36.386-20.993" transform="translate(-474.453 -51.958)" fill="#a63725"/>
              <path id="Path_901969" data-name="Path 901969" d="M607.042,195.085a.964.964,0,0,1-.15-.012c-1.171-.184-3.35-.526-4.3-2.274a4.271,4.271,0,0,1-.108-3.449,13.067,13.067,0,0,1,.711-1.59c.168-.335.327-.651.463-.971a16.748,16.748,0,0,0,.934-5.748.962.962,0,1,1,1.921.09,18.468,18.468,0,0,1-1.084,6.409c-.161.378-.341.737-.516,1.085a11.421,11.421,0,0,0-.613,1.357,2.518,2.518,0,0,0-.018,1.9c.435.8,1.654,1.094,2.905,1.291a.962.962,0,0,1-.148,1.912" transform="translate(-436.73 -130.634)" fill="#131313"/>
              <path id="Path_901970" data-name="Path 901970" d="M613.867,250.7a7.7,7.7,0,0,1-1.081-.065.962.962,0,0,1,.286-1.9c.243.035,5.985.783,10.571-5.349a.962.962,0,0,1,1.54,1.152c-4.116,5.5-9.14,6.164-11.316,6.164" transform="translate(-443.83 -176.238)" fill="#131313"/>
              <path id="Path_901971" data-name="Path 901971" d="M523.725,908.384c.266-9.89-1.378-33.583,2.03-55.651,25.877,15.81,101.283,12.48,101.283,12.48s-.679,31.307,9.347,57.617c-24.568,18.552-89.084,17.965-112.66-14.446" transform="translate(-379.71 -618.444)" fill="#474e88"/>
              <path id="Path_901972" data-name="Path 901972" d="M642.244,71.081c-4.2,3.223-21.691-3.506-19.615-18.982-4.026,1.337-12.62,2.816-16.031.292a13.521,13.521,0,0,1-5.38-11,22.845,22.845,0,0,1,25.458-4.306c8.31,3.949,22.364,28.781,15.567,34" transform="translate(-436.032 -25.368)" fill="#a63725"/>
              <path id="Path_901973" data-name="Path 901973" d="M757.274,160.822c-1.908,5.874-8.893,12.272-19.437,8.849-5.364-1.742-1.894-9.282.013-15.156s7.8-9.224,13.165-7.483,8.165,7.916,6.258,13.79" transform="translate(-533.041 -106.301)" fill="#ff8a6c"/>
              <path id="Path_901974" data-name="Path 901974" d="M756.288,183.679a.962.962,0,0,1-.616-1.7l9.046-7.531a.962.962,0,0,1,1.23,1.478l-9.045,7.531a.957.957,0,0,1-.615.223" transform="translate(-547.8 -126.356)" fill="#131313"/>
              <path id="Path_901975" data-name="Path 901975" d="M574.69,69.83s-4.557,18.586-14.863,12.677c0-.572-8.006-18.892,14.863-12.677" transform="translate(-405.03 -49.712)" fill="#a63725"/>
              <path id="Path_901976" data-name="Path 901976" d="M584.344,491.779c0-35.95,18.513-83.038,18.513-83.038s-9.971-15.651-31.51-15.324c0,0-16.04,35.908-44.882,46.047a14.176,14.176,0,0,1-18.807-15.086c.741-5.7,3.7-13.147,10.572-22.828,0,0-9.362.3-19.683,10.734a49.719,49.719,0,0,0-13.8,28.773l-.083.661-.266,0c-4.539,5.092-6.087,9.432-7.924,14.076-5.683,14.366,1.192,34.455,1.192,34.455s-1.569,58.38,9.933,65.5c22.739,14.079,53.377,10.732,106.959-2.094,8.416-3.754-6.938-28.192-10.211-61.874" transform="translate(-343.928 -285.321)" fill="#fdbd04"/>
              <path id="Path_901977" data-name="Path 901977" d="M620.614,716.652a49.937,49.937,0,0,1-25.772-7.238,52.009,52.009,0,0,1-13.834-11.828l1.534-1.159h0A51.129,51.129,0,0,0,595.9,707.8a48.083,48.083,0,0,0,37.077,5.367l.466,1.866a52.79,52.79,0,0,1-12.826,1.616" transform="translate(-421.376 -505.083)" fill="#fc7c1a"/>
              <path id="Path_901978" data-name="Path 901978" d="M606.5,459.353a18.6,18.6,0,0,1-5.875-.812v0a12.994,12.994,0,0,1-7.75-8.814c-3.042-12.028,9.758-29.1,10.3-29.821a.962.962,0,0,1,1.533,1.162c-.128.169-12.789,17.058-9.972,28.189a11.158,11.158,0,0,0,6.681,7.533l.026.012c.08.033,10.909,3.8,24.814-7.043a.962.962,0,0,1,1.183,1.517c-8.518,6.643-16.044,8.075-20.944,8.075" transform="translate(-429.641 -304.262)" fill="#fff"/>
              <path id="Path_901979" data-name="Path 901979" d="M563.049,988.027a118.819,118.819,0,0,1-18.132-1.322c-17.012-2.629-24.8-8.21-25.122-8.446a.962.962,0,0,1,1.135-1.553c.112.081,7.879,5.594,24.456,8.126,15.363,2.346,41.64,2.539,79.58-9.867a.962.962,0,1,1,.6,1.828,224.974,224.974,0,0,1-47.816,10.5c-5.054.488-9.962.732-14.7.732" transform="translate(-376.696 -707.058)" fill="#a63725"/>
              <path id="Path_901980" data-name="Path 901980" d="M470.425,1266.22s101.464-101.907,77.692-173.9c-13.556-41.056-43.475-48.142-43.475-48.142l-56.9,19.488c-2.622,4.063-5.4,21.1-10.506,33.2-2.76,6.541-5.158,12.272-6.408,15.049-16.9,31.744-36.04,79.249-47.892,109-28.212,70.82,87.487,45.305,87.487,45.305" transform="translate(-274.512 -757.291)" fill="#474e88"/>
              <path id="Path_901981" data-name="Path 901981" d="M563.62,1255.91a.948.948,0,0,1-.419-.1.961.961,0,0,1-.445-1.284l6.629-13.673a.962.962,0,0,1,1.731.84l-6.629,13.672a.962.962,0,0,1-.866.542" transform="translate(-408.069 -899.537)" fill="#3a3f6e"/>
              <rect id="Rectangle_406614" data-name="Rectangle 406614" width="9.15" height="1.923" transform="translate(138.645 157.058) rotate(-43.235)" fill="#fc7c1a"/>
              <path id="Path_901982" data-name="Path 901982" d="M564.461,826.445s-20.118-33.4-20.5-70.6l-60.352,1.9s-3.037,40.235,9.489,65.666Z" transform="translate(-350.504 -548.175)" fill="#474e88"/>
              <path id="Path_901983" data-name="Path 901983" d="M663.883,492.95s8.547-72.1,52.043-95.89c0,0-6.055-4.021-18.084-3.683,0,0-48.834,46.808-49.205,100.714l4.779,6.287Z" transform="translate(-470.424 -285.282)" fill="#474e88"/>
              <path id="Path_901984" data-name="Path 901984" d="M524.861,423.221s-31.847,51.239-26.863,93.7l-13.534-.411s9.222-54.779,21.572-82.737c0,0,10.576-10.712,18.824-10.548" transform="translate(-351.358 -306.939)" fill="#474e88"/>
              <path id="Path_901985" data-name="Path 901985" d="M311.525,967.453a21.277,21.277,0,0,1-15.91-20.049c.016.171-16.281-4.188-15.7-11.667a2.809,2.809,0,0,1,1.19-2.16c1.229-.81,3.729-.588,7.82,1.866,3.247,1.681,11.023,3.559,17.659,3.1,6.223-.965,21.138,4.121,22.352,16.657l-1.952,12.286Z" transform="translate(-202.996 -676.771)" fill="#ff8a6c"/>
              <path id="Path_901986" data-name="Path 901986" d="M145.482,903.878l-77.113.181L55.716,799.487l77.113-.181Z" transform="translate(-40.408 -579.696)" fill="#6670c3"/>
              <path id="Path_901987" data-name="Path 901987" d="M165.677,794.575l-36.323.085-1.474-12.188,36.322-.085Z" transform="translate(-92.745 -567.426)" fill="#525b9e"/>
              <path id="Path_901988" data-name="Path 901988" d="M807.718,602.492c59.595-5.791,48.183-125.272,22.825-155-3.713-4.353-43.478,12.979-40.165,58.992,1.6,22.218.736,41.964-2.216,56.3,1.711-.977,14.366,40.211,19.556,39.707" transform="translate(-571.614 -324.073)" fill="#fdbd04"/>
              <path id="Path_901989" data-name="Path 901989" d="M786.618,669.647l-1.883-.388c2.978-14.464,3.759-34.365,2.2-56.037a78.908,78.908,0,0,1,.9-19.3l1.894.333a76.966,76.966,0,0,0-.874,18.829c1.573,21.843.78,41.931-2.233,56.563" transform="translate(-569.129 -430.741)" fill="#fc7c1a"/>
              <path id="Path_901990" data-name="Path 901990" d="M561.6,858.874l-94.832,31.981,5.972,29.61s73.193,3.619,107.359-23.571c11.572-9.209,15.91-44.248-18.5-38.02" transform="translate(-338.521 -622.364)" fill="#ff8a6c"/>
              <path id="Path_901991" data-name="Path 901991" d="M392.5,1006.83s-19.7,6.463-30.1,5.853c-2.153-10.532-10.9-25.161-3.065-34.735,1.1-.716,27.2-.727,27.2-.727s11.319,14.511,5.972,29.609" transform="translate(-258.288 -708.729)" fill="#ff8a6c"/>
              <path id="Path_901992" data-name="Path 901992" d="M284.383,1053.838s-34.021,6.121-38.413-1.755a1.541,1.541,0,0,1-.185-1.033c.181-.952,2.119-4.3,35.468-7.43l3.129,10.219" transform="translate(-178.238 -756.873)" fill="#ff8a6c"/>
              <path id="Path_901993" data-name="Path 901993" d="M277.821,1027.741s-32.216,7.911-36.509.15a1.547,1.547,0,0,1-.183-1.032c.181-.952,2.12-4.3,35.469-7.43-.145-.473,1.224,8.313,1.224,8.313" transform="translate(-174.861 -739.327)" fill="#ff8a6c"/>
              <path id="Path_901994" data-name="Path 901994" d="M283.383,998.536s-28.638,7.033-32.328.084a1.325,1.325,0,0,1-.135-.865c.16-.842,1.875-3.8,31.381-6.574-.128-.419,1.083,7.355,1.083,7.355" transform="translate(-181.963 -718.842)" fill="#ff8a6c"/>
              <path id="Path_901995" data-name="Path 901995" d="M336.449,1082.736s-42.538,13.975-47.1,7.574a3.2,3.2,0,0,1-.546-1.232c-.242-1.235,1.674-3.631,30.594-10.1-.18-.4,17.054,3.762,17.054,3.762" transform="translate(-209.44 -782.506)" fill="#ff8a6c"/>
              <path id="Path_901996" data-name="Path 901996" d="M259.4,1050.993a.962.962,0,0,1-.059-1.922c.153-.01,15.438-.974,24.556-3.212a.961.961,0,1,1,.458,1.867c-9.287,2.279-24.263,3.225-24.9,3.264l-.06,0" transform="translate(-187.436 -758.489)" fill="#131313"/>
              <path id="Path_901997" data-name="Path 901997" d="M286.267,1021.731a.962.962,0,0,1-.1-1.918c.1-.01,10.054-1.094,15.22-2.307a.962.962,0,0,1,.44,1.872c-5.282,1.24-15.04,2.3-15.453,2.347a.978.978,0,0,1-.1.006" transform="translate(-206.918 -737.927)" fill="#131313"/>
              <path id="Path_901998" data-name="Path 901998" d="M485.962,1065.771a.962.962,0,0,1-.943-1.155l1.372-6.683a.962.962,0,0,1,1.884.387L486.9,1065a.962.962,0,0,1-.941.768" transform="translate(-351.745 -766.708)" fill="#131313"/>
              <path id="Path_901999" data-name="Path 901999" d="M620.833,2298.475l-54.882,2.327s2.942,33.068.044,43.566c-3.809,13.8-25.408,19.747-25.408,19.747,43.589,52.094,79.6,4.031,79.6,4.031s-1.98-11.787-2.146-15.758c-.565-13.484,2.79-53.912,2.79-53.912" transform="translate(-392.061 -1666.968)" fill="#ff8a6c"/>
              <path id="Path_902000" data-name="Path 902000" d="M508.03,2487.34l4.687,43.293-126.848,3.133-.07-2.821a25.779,25.779,0,0,1,19.972-25.786c13.158-3.012,29.672-9.165,40.142-21.7a3.8,3.8,0,0,1,5.224-.6c7.884,6.015,29,21.478,50.589,2.052a3.8,3.8,0,0,1,6.3,2.434" transform="translate(-279.795 -1800.126)" fill="#fdbd04"/>
              <path id="Path_902001" data-name="Path 902001" d="M508.249,2167.4l4.47,41.307-126.848,3.136-.068-2.823a25.775,25.775,0,0,1,19.972-25.785c9.593-2.2,20.975-6.064,30.493-12.86a.009.009,0,0,1,0-.007l5.54-13.583c.546-13.291,2.233-69.576-5.836-118.587l94.755,5.5-22.16,123.542Z" transform="translate(-279.798 -1478.207)" fill="#fdbd04"/>
              <g id="Group_1113205" data-name="Group 1113205" transform="translate(105.997 559.997)" opacity="0.4">
                <g id="Group_1113204" data-name="Group 1113204">
                  <g id="Group_1113203" data-name="Group 1113203" clip-path="url(#clip-path-8)">
                    <path id="Path_902002" data-name="Path 902002" d="M508.249,2167.4l4.47,41.307-126.848,3.136-.068-2.823a25.775,25.775,0,0,1,19.972-25.785c9.593-2.2,20.975-6.064,30.493-12.86a.009.009,0,0,1,0-.007l5.54-13.583c.546-13.291,2.233-69.576-5.836-118.587l94.755,5.5-22.16,123.542Z" transform="translate(-385.795 -2038.203)" fill="#fc7c1a"/>
                  </g>
                </g>
              </g>
              <path id="Path_902003" data-name="Path 902003" d="M489.66,2583.279a1,1,0,0,1-.2-.021.963.963,0,0,1-.738-1.143c1.543-7.176-8-24.628-8.1-24.8a.962.962,0,1,1,1.684-.928c.409.742,9.99,18.262,8.3,26.136a.962.962,0,0,1-.939.76" transform="translate(-348.481 -1853.656)" fill="#fc7c1a"/>
              <path id="Path_902004" data-name="Path 902004" d="M510.718,2601.306c-44.588,10.277-104.983,10.979-124.807,10.908-1.167,3.7,0,11.137,0,11.137l125.555-.715s1.384-8.564.727-13.468a56.038,56.038,0,0,0-1.475-7.862" transform="translate(-279.506 -1886.597)" fill="#40467a"/>
              <path id="Path_902005" data-name="Path 902005" d="M392.125,2610.688c-4.594,0-7.267-.05-7.4-.053a.962.962,0,0,1,.019-1.923h.021c.733.015,73.8,1.394,124.561-10.882a.962.962,0,0,1,.452,1.87c-41.465,10.028-97.679,10.988-117.649,10.988" transform="translate(-278.336 -1884.057)" fill="#fff"/>
              <path id="Path_902006" data-name="Path 902006" d="M834.615,2093.683l-42.023-8.644,5.235,49.435s25.656,21.068,31.118,30.49c7.181,12.388-3.71,31.965-3.71,31.965,67.71,5.394,58.645-53.976,58.645-53.976s-9.8-6.845-12.75-9.51c-10.017-9.044-36.514-39.76-36.514-39.76" transform="translate(-574.827 -1512.174)" fill="#ff8a6c"/>
              <path id="Path_902007" data-name="Path 902007" d="M921.568,2256.233l32.4,29.09-92.316,87.053-1.935-2.052a25.779,25.779,0,0,1-2.358-32.531c7.781-11.03,15.962-26.639,15.38-42.965a3.8,3.8,0,0,1,3.488-3.936c9.886-.789,35.927-3.381,39.022-32.26a3.8,3.8,0,0,1,6.316-2.4" transform="translate(-618.4 -1635.624)" fill="#fdbd04"/>
              <path id="Path_902008" data-name="Path 902008" d="M901.595,2372.845a45.342,45.342,0,0,0-6.59-18.394,5.354,5.354,0,0,1,2.155-7.584c6.577-3.294,17.813-5.148,24.989,16.432-.549,1.15-20.553,9.546-20.553,9.546" transform="translate(-648.527 -1700.614)" fill="#fdbd04"/>
              <path id="Path_902009" data-name="Path 902009" d="M904.81,2545.561a.961.961,0,0,1-.836-.485c-3.644-6.371-22.407-12.983-22.6-13.049a.962.962,0,1,1,.634-1.816c.8.28,19.632,6.919,23.632,13.91a.963.963,0,0,1-.834,1.439" transform="translate(-638.752 -1834.997)" fill="#fc7c1a"/>
              <path id="Path_902010" data-name="Path 902010" d="M952.366,2326.062c-26.322,37.428-70.8,78.287-85.6,91.475a18.872,18.872,0,0,0,5.112,6.193s30.394-21.684,47.831-39.077c32.985-32.9,44.485-47.977,44.485-47.977a32.363,32.363,0,0,0-5.475-5.748,55.957,55.957,0,0,0-6.349-4.866" transform="translate(-628.619 -1686.976)" fill="#40467a"/>
              <path id="Path_902011" data-name="Path 902011" d="M864.224,2415.958a.961.961,0,0,1-.628-1.69c.555-.478,55.86-48.255,85.439-91.291a.962.962,0,0,1,1.585,1.09c-29.722,43.244-85.213,91.179-85.77,91.658a.954.954,0,0,1-.627.233" transform="translate(-626.08 -1684.437)" fill="#fff"/>
              <path id="Path_902012" data-name="Path 902012" d="M830.016,2180.121l33.1-41.265-7.458-8.291-38.443,37.27Z" transform="translate(-592.688 -1545.192)" fill="#d14a4a"/>
              <path id="Path_902013" data-name="Path 902013" d="M473.121,1696.111l-85.745,29.427c44.708,66.771,122.043,137.735,122.043,137.735l44.917-46.04Z" transform="translate(-280.944 -1230.104)" fill="#474e88"/>
              <path id="Path_902014" data-name="Path 902014" d="M733.017,1791.518h-.033l-12.692-.423a.961.961,0,0,1,.064-1.922l12.692.423a.962.962,0,0,1-.031,1.923" transform="translate(-521.718 -1297.596)" fill="#3a3f6e"/>
              <path id="Path_902015" data-name="Path 902015" d="M900.767,2132.639a.956.956,0,0,1-.654-.257l-18.78-17.417a.962.962,0,1,1,1.308-1.41l18.78,17.417a.962.962,0,0,1-.654,1.667" transform="translate(-638.964 -1532.669)" fill="#3a3f6e"/>
              <path id="Path_902016" data-name="Path 902016" d="M658.737,2011.309l-90.3-93.841a188.015,188.015,0,0,0,68.352-45.738l78.637,106.351-5.663,23.053L693.2,2022.482Z" transform="translate(-412.259 -1357.472)" fill="#fdbd04"/>
              <path id="Path_902017" data-name="Path 902017" d="M565.9,1915.893a.962.962,0,0,1-.286-1.88,131.167,131.167,0,0,0,21.366-9.7,199.05,199.05,0,0,0,46.581-35.784.962.962,0,1,1,1.382,1.337,200.957,200.957,0,0,1-47.093,36.163,132.954,132.954,0,0,1-21.665,9.825.967.967,0,0,1-.286.044" transform="translate(-409.721 -1354.934)" fill="#fc7c1a"/>
            </g>
          </g>
        </g>
      </g>
    </g>
  </g>
</svg>
