<svg xmlns="http://www.w3.org/2000/svg" xmlns:xlink="http://www.w3.org/1999/xlink" width="98" height="98" viewBox="0 0 98 98">
  <defs>
    <filter id="Path_896985" x="0" y="0" width="98" height="98" filterUnits="userSpaceOnUse">
      <feOffset dy="3" input="SourceAlpha"/>
      <feGaussianBlur stdDeviation="3" result="blur"/>
      <feFlood flood-opacity="0.161"/>
      <feComposite operator="in" in2="blur"/>
      <feComposite in="SourceGraphic"/>
    </filter>
  </defs>
  <g id="Group_1113228" data-name="Group 1113228" transform="translate(-1027.384 -1651)">
    <g id="Group_1111527" data-name="Group 1111527" transform="translate(1036.384 1657)" style="isolation: isolate">
      <g id="Group_1098742" data-name="Group 1098742">
        <g transform="matrix(1, 0, 0, 1, -9, -6)" filter="url(#Path_896985)">
          <g id="Path_896985-2" data-name="Path 896985" transform="translate(9 6)" fill="#8dc0ff">
            <path d="M 40.00000381469727 78.50012969970703 C 34.80187225341797 78.50012969970703 29.76003646850586 77.48240661621094 25.0145263671875 75.47523498535156 C 20.43014907836914 73.53620147705078 16.31264877319336 70.75999450683594 12.77639293670654 67.22373962402344 C 9.240137100219727 63.68747711181641 6.463937282562256 59.56997680664062 4.524903774261475 54.98559951782227 C 2.517725944519043 50.24008560180664 1.500003814697266 45.1982421875 1.500003814697266 40.0001106262207 C 1.500003814697266 34.80195236206055 2.517725944519043 29.76008796691895 4.524914741516113 25.01456451416016 C 6.463937282562256 20.43017578125 9.240137100219727 16.31266403198242 12.77639293670654 12.77639865875244 C 16.31264877319336 9.240142822265625 20.43014907836914 6.463931560516357 25.0145263671875 4.524909496307373 C 29.76003646850586 2.517720460891724 34.80187225341797 1.499998211860657 40.00000381469727 1.499998211860657 C 45.19813537597656 1.499998211860657 50.23998260498047 2.517720460891724 54.98548126220703 4.524898052215576 C 59.56985855102539 6.463931560516357 63.68735885620117 9.240131378173828 67.22361755371094 12.77638721466064 C 70.75987243652344 16.31264305114746 73.53607177734375 20.43015289306641 75.47510528564453 25.0145206451416 C 77.48228454589844 29.76003074645996 78.5 34.80187606811523 78.5 40.00000762939453 C 78.5 45.19816589355469 77.48228454589844 50.24003219604492 75.47510528564453 54.98555374145508 C 73.53607177734375 59.56994247436523 70.75987243652344 63.68746566772461 67.22361755371094 67.22373199462891 C 63.68735885620117 70.75998687744141 59.56985855102539 73.53620147705078 54.98548126220703 75.4752197265625 C 50.23998260498047 77.48240661621094 45.19813537597656 78.50012969970703 40.00000381469727 78.50012969970703 Z" stroke="none"/>
            <path d="M 40.00000381469727 3 C 35.00371170043945 3 30.15847015380859 3.977851867675781 25.59885787963867 5.906410217285156 C 21.19327163696289 7.769813537597656 17.23603057861328 10.43806457519531 13.83704376220703 13.83705139160156 C 10.43807220458984 17.23603820800781 7.769813537597656 21.19327926635742 5.906417846679688 25.59885025024414 C 3.977859497070312 30.15846633911133 3.000007629394531 35.00370407104492 3.000007629394531 40.00011825561523 C 3.000007629394531 44.99641036987305 3.977859497070312 49.84166717529297 5.906417846679688 54.40127563476562 C 7.769813537597656 58.80685424804688 10.43807220458984 62.76409149169922 13.83704376220703 66.16307830810547 C 17.23603057861328 69.56206512451172 21.19327163696289 72.23031616210938 25.59885787963867 74.09371948242188 C 30.1584587097168 76.02227783203125 35.00371170043945 77.00012969970703 40.00000381469727 77.00012969970703 C 44.99629592895508 77.00012969970703 49.841552734375 76.02227783203125 54.40114974975586 74.09371948242188 C 58.80673980712891 72.23031616210938 62.76397705078125 69.56206512451172 66.1629638671875 66.16307830810547 C 69.56193542480469 62.76409149169922 72.23019409179688 58.80685424804688 74.09358978271484 54.40127563476562 C 76.02214813232422 49.84166717529297 77 44.99641036987305 77 40 C 77 35.00370407104492 76.02214813232422 30.15846633911133 74.09358978271484 25.59885025024414 C 72.23019409179688 21.19327926635742 69.56193542480469 17.23603820800781 66.1629638671875 13.83705139160156 C 62.76397705078125 10.43806457519531 58.80673980712891 7.769813537597656 54.40114974975586 5.906410217285156 C 49.84153747558594 3.977851867675781 44.99629592895508 3 40.00000381469727 3 M 40.00000381469727 0 C 62.09140396118164 0 80 17.90861129760742 80 40 L 80 40.00011825561523 C 80 62.09151840209961 62.09140396118164 80.00012969970703 40.00000381469727 80.00012969970703 C 17.90860366821289 80.00012969970703 7.62939453125e-06 62.09151840209961 7.62939453125e-06 40.00011825561523 L 7.62939453125e-06 40 C 7.62939453125e-06 17.90861129760742 17.90860366821289 0 40.00000381469727 0 Z" stroke="none" fill="#fff"/>
          </g>
        </g>
        <g id="Rectangle_400907" data-name="Rectangle 400907" transform="translate(0 0)" fill="none" stroke="#fff" stroke-width="3">
          <rect width="80" height="80" rx="40" stroke="none"/>
          <rect x="1.5" y="1.5" width="77" height="77" rx="38.5" fill="none"/>
        </g>
      </g>
    </g>
    <g id="Group_1113227" data-name="Group 1113227" transform="translate(1032.578 1659.081)">
      <g id="Group_1113225" data-name="Group 1113225" transform="translate(24.662 7.783)">
        <path id="Path_902340" data-name="Path 902340" d="M55.637,23.9s-3.1-8.827.741-15.228c2.358,3.335,5.391,3.167,9.869.415.947-.375,1.093,1.963,1.584,5.065a1.482,1.482,0,0,0,1.238,1.239c1.532.224,3.368.139,5.1.9,1.853,1.045-6.6,4.279-10.782,8.355Z" transform="translate(-40.166 -8.668)" fill="#e6eeff"/>
        <ellipse id="Ellipse_11853" data-name="Ellipse 11853" cx="6.244" cy="3.773" rx="6.244" ry="3.773" transform="translate(12.911 12.532)" fill="#5c5f66"/>
        <path id="Path_902341" data-name="Path 902341" d="M63.314,72.447a9.423,9.423,0,0,1-8.2,7.681,90.728,90.728,0,0,1-10.876.363c-4.269.015-7.9.356-10.99.035a8.419,8.419,0,0,1-7.436-6.9C24,63.328,31.172,43.765,44.242,42.89,54.938,42.892,65.248,60.863,63.314,72.447Z" transform="translate(-25.538 -25.98)" fill="#dae2f2"/>
      </g>
      <g id="Group_1113226" data-name="Group 1113226" transform="translate(23.806 6.919)">
        <path id="Path_902342" data-name="Path 902342" d="M87.818,68.093a.865.865,0,0,0-1.543.782c2.777,5.485,3.988,11.441,3.24,15.936a8.6,8.6,0,0,1-7.454,6.967c-.708.09-1.431.159-2.208.208a.865.865,0,0,0,.053,1.729h.055c.815-.049,1.573-.122,2.317-.217a10.339,10.339,0,0,0,8.944-8.4C92.039,80.177,90.8,73.98,87.818,68.093Z" transform="translate(-51.733 -37.625)"/>
        <path id="Path_902343" data-name="Path 902343" d="M55.544,33.563a.865.865,0,0,0,1.4-1.016,25.169,25.169,0,0,0-6.661-6.505,3.371,3.371,0,0,0,.642-1.95,3.289,3.289,0,0,0-.358-1.451c4.532-3.34,9.249-5.049,9.222-6.9a1.278,1.278,0,0,0-.7-1.1.692.692,0,0,0-.077-.039c-1.882-.823-3.8-.741-5.327-.964a.6.6,0,0,1-.5-.515c-.515-3.223-.582-5.063-1.62-5.663A1.285,1.285,0,0,0,50.425,7.4a.863.863,0,0,0-.135.067c-4.966,3.054-7.073,2.136-8.709-.177a.852.852,0,0,0-.738-.365.864.864,0,0,0-.709.419C37.392,11.9,37.961,17.549,38.67,20.867a3.966,3.966,0,0,0-1.96,3.224,3.3,3.3,0,0,0,.42,1.6c-10.072,5.544-14.538,21.406-13.042,29.9a9.332,9.332,0,0,0,8.2,7.6c.21.021.42.041.635.056h.063a.865.865,0,0,0,.061-1.727c-.2-.014-.4-.034-.585-.052a7.6,7.6,0,0,1-6.674-6.178C24.324,46.96,29.14,31.323,38.8,26.774a12.753,12.753,0,0,1,4.6-1.216A10.723,10.723,0,0,1,48.52,27a22.415,22.415,0,0,1,7.024,6.56ZM41.035,9.335c2.98,3.072,6.671,1.674,9.72-.132.247.778.451,2.5.72,4.194a2.342,2.342,0,0,0,1.963,1.958,26.288,26.288,0,0,1,4.29.615c-1.369,1.119-5.161,3.054-8.222,5.319a8.817,8.817,0,0,0-5.69-1.837,10.315,10.315,0,0,0-3.546.6C39.721,17.253,39.361,12.992,41.035,9.335Zm2.331,14.494h-.059a14.412,14.412,0,0,0-4.612,1.1,1.617,1.617,0,0,1-.255-.837,2.594,2.594,0,0,1,1.631-2.05,7.9,7.9,0,0,1,3.746-.859c2.111,0,4.047.7,4.935,1.794a1.61,1.61,0,0,1,.013,2.21,12.127,12.127,0,0,0-5.4-1.356Z" transform="translate(-23.806 -6.919)"/>
        <path id="Path_902344" data-name="Path 902344" d="M60.607,117.19a.825.825,0,0,0-.161.016c-.9,0-1.873,0-2.92,0-1.433,0-2.777.045-4.076.085l-.794.024a.865.865,0,0,0,.025,1.729h.026l.8-.024c1.285-.039,2.619-.08,4.026-.084,1.109,0,2.133,0,3.083,0a.865.865,0,0,0,.86-.865v-.03a.852.852,0,0,0-.865-.851Z" transform="translate(-37.969 -62.701)"/>
        <path id="Path_902345" data-name="Path 902345" d="M34.726,94.209a.882.882,0,0,0-.909.818A17.267,17.267,0,0,0,34,98.882a4.313,4.313,0,0,0,3.842,3.549,50.189,50.189,0,0,0,6.194.039.865.865,0,0,0-.055-1.729,49.635,49.635,0,0,1-5.96-.03A2.6,2.6,0,0,1,35.7,98.579a15.494,15.494,0,0,1-.159-3.459.866.866,0,0,0-.817-.91Z" transform="translate(-28.852 -51.076)"/>
      </g>
    </g>
  </g>
</svg>
