<svg xmlns="http://www.w3.org/2000/svg" xmlns:xlink="http://www.w3.org/1999/xlink" width="108" height="108" viewBox="0 0 108 108">
  <defs>
    <filter id="Path_896985" x="0" y="0" width="108" height="108" filterUnits="userSpaceOnUse">
      <feOffset dy="3" input="SourceAlpha"/>
      <feGaussianBlur stdDeviation="3" result="blur"/>
      <feFlood flood-opacity="0.161"/>
      <feComposite operator="in" in2="blur"/>
      <feComposite in="SourceGraphic"/>
    </filter>
  </defs>
  <g id="Group_1113253" data-name="Group 1113253" transform="translate(-1166.384 -3844)">
    <g id="Group_1109827" data-name="Group 1109827" transform="translate(418.603 17)">
      <g id="Group_1098742" data-name="Group 1098742" transform="translate(-446.539 3444.258)">
        <g transform="matrix(1, 0, 0, 1, 1194.32, 382.74)" filter="url(#Path_896985)">
          <g id="Path_896985-2" data-name="Path 896985" transform="translate(9 6)" fill="#8dc0ff" opacity="0.859">
            <path d="M 44.99993896484375 88.5 C 39.12682723999023 88.5 33.4301872253418 87.35007476806641 28.06826400756836 85.08217620849609 C 22.88850212097168 82.89132690429688 18.23627662658691 79.75461578369141 14.2408390045166 75.75916290283203 C 10.24540138244629 71.76372528076172 7.108676433563232 67.11151123046875 4.917826652526855 61.9317512512207 C 2.649926424026489 56.56982421875 1.500001430511475 50.87317657470703 1.500001430511475 45.00006103515625 C 1.500001430511475 39.12682342529297 2.649926424026489 33.4301872253418 4.917826652526855 28.06826210021973 C 7.108676433563232 22.88850021362305 10.24540138244629 18.23628807067871 14.2408390045166 14.24083709716797 C 18.23628807067871 10.24540042877197 22.88850212097168 7.108675003051758 28.06826400756836 4.917825222015381 C 33.4301872253418 2.649924993515015 39.12682723999023 1.5 44.99993896484375 1.5 C 50.87305068969727 1.5 56.5697021484375 2.649924993515015 61.93162536621094 4.917825222015381 C 67.11138916015625 7.108675003051758 71.76360321044922 10.24540042877197 75.75904083251953 14.24083709716797 C 79.75448608398438 18.23627471923828 82.89120483398438 22.88850021362305 85.08205413818359 28.06826210021973 C 87.34995269775391 33.4301872253418 88.4998779296875 39.12682342529297 88.4998779296875 44.99993896484375 C 88.4998779296875 50.87317657470703 87.34995269775391 56.56982421875 85.08205413818359 61.9317512512207 C 82.89120483398438 67.11151123046875 79.75448608398438 71.76372528076172 75.75904083251953 75.75916290283203 C 71.76360321044922 79.75461578369141 67.11138916015625 82.89132690429688 61.93162536621094 85.08217620849609 C 56.5697021484375 87.35007476806641 50.87305068969727 88.5 44.99993896484375 88.5 Z" stroke="none"/>
            <path d="M 44.99993896484375 3 C 39.32865142822266 3 33.82860946655273 4.110054016113281 28.65258026123047 6.299331665039062 C 23.65162658691406 8.414558410644531 19.15966796875 11.44332885742188 15.30149841308594 15.30149841308594 C 11.44332122802734 19.15966796875 8.41455078125 23.65162658691406 6.299324035644531 28.65258407592773 C 4.110054016113281 33.82861328125 2.999992370605469 39.32865524291992 2.999992370605469 45.00005722045898 C 2.999992370605469 50.67134475708008 4.110054016113281 56.17138671875 6.299324035644531 61.347412109375 C 8.41455078125 66.34837341308594 11.44332122802734 70.84033203125 15.30149841308594 74.69850158691406 C 19.15966796875 78.55667114257812 23.65162658691406 81.58544158935547 28.65258026123047 83.70066833496094 C 33.82860946655273 85.88994598388672 39.32865142822266 87 44.99993896484375 87 C 50.67122650146484 87 56.17126846313477 85.88994598388672 61.34729766845703 83.70066833496094 C 66.34825134277344 81.58544158935547 70.8402099609375 78.55667114257812 74.69837951660156 74.69850158691406 C 78.55654907226562 70.84033203125 81.5853271484375 66.34837341308594 83.70055389404297 61.347412109375 C 85.88982391357422 56.17138671875 86.9998779296875 50.67134475708008 86.9998779296875 44.99994277954102 C 86.9998779296875 39.32865524291992 85.88982391357422 33.82861328125 83.70055389404297 28.65258407592773 C 81.5853271484375 23.65162658691406 78.55654907226562 19.15966796875 74.69837951660156 15.30149841308594 C 70.8402099609375 11.44332885742188 66.34825134277344 8.414558410644531 61.34729766845703 6.299331665039062 C 56.17126846313477 4.110054016113281 50.67122650146484 3 44.99993896484375 3 M 44.99993896484375 0 C 69.85272216796875 0 89.99988555908203 20.14715576171875 89.99988555908203 44.99994277954102 L 89.99988555908203 45.00005722045898 C 89.99988555908203 69.85284423828125 69.85272216796875 90 44.99993896484375 90 C 20.14715576171875 90 -7.62939453125e-06 69.85284423828125 -7.62939453125e-06 45.00005722045898 L -7.62939453125e-06 44.99994277954102 C -7.62939453125e-06 20.14715576171875 20.14715576171875 0 44.99993896484375 0 Z" stroke="none" fill="#fff"/>
          </g>
        </g>
        <g id="Rectangle_400907" data-name="Rectangle 400907" transform="translate(1203.32 388.742)" fill="none" stroke="#fff" stroke-width="3">
          <rect width="90" height="90" rx="45" stroke="none"/>
          <rect x="1.5" y="1.5" width="87" height="87" rx="43.5" fill="none"/>
        </g>
      </g>
    </g>
    <g id="Group_1113252" data-name="Group 1113252" transform="translate(1171.316 3850.786)">
      <path id="Path_903813" data-name="Path 903813" d="M65.046,55.706l-1.089-2.663c-.068-.076-.093-.134-.211-.112a11.766,11.766,0,0,1-2.2.209V68.594a4.032,4.032,0,0,1-4.025,4.025H25.093a4.032,4.032,0,0,1-4.025-4.025V26.307a.642.642,0,0,1,.2-.462L30.7,16.408a.642.642,0,0,1,.472-.195H57.521a4.031,4.031,0,0,1,4.025,4.025V29.4A11.869,11.869,0,0,1,68.12,51.143a.184.184,0,0,0-.069.229l1.088,2.661a.641.641,0,0,1,.544.4L76.05,68.025a3.314,3.314,0,1,1-6.135,2.507l-4.253-12.1c-.239-.621-.486-1.42-.726-2.067a.642.642,0,0,1,.11-.655Z" transform="translate(0)" fill-rule="evenodd"/>
      <g id="Group_1113251" data-name="Group 1113251" transform="translate(22.358 17.505)">
        <g id="Group_1113250" data-name="Group 1113250" transform="translate(0 0)">
          <path id="Path_903814" data-name="Path 903814" d="M69.932,62.752a11.867,11.867,0,0,1,0-23.6V29.92A2.739,2.739,0,0,0,67.2,27.187H41.485v5.422a4.032,4.032,0,0,1-4.025,4.025H32.038V78.275a2.739,2.739,0,0,0,2.733,2.733H67.2a2.739,2.739,0,0,0,2.733-2.733Zm-22.321-30.1a.646.646,0,1,1,0-1.292h6.749a.646.646,0,1,1,0,1.292Zm-3.817,4.109a.646.646,0,0,1,0-1.292H58.177a.646.646,0,1,1,0,1.292ZM40.7,54.693c.793-1.315,1.869-3.023,2.54-4.183a.644.644,0,0,1,1.134.036c.772,1.331,1.624,2.633,2.427,3.948V47.339a2.1,2.1,0,0,1-1.445-1.988V43.017a2.1,2.1,0,0,1,2.091-2.091h9.311a2.1,2.1,0,0,1,2.091,2.091V45.35A2.1,2.1,0,0,1,57.4,47.339V74.556a5.3,5.3,0,1,1-10.6,0v-4.9A7.033,7.033,0,0,1,36.769,63.3c0-.021,0-.042,0-.063a4.654,4.654,0,0,1-3.81-4.576c0-1.821,2.817-5.933,4.095-8.151a.643.643,0,0,1,1.118.005c.813,1.407,1.724,2.751,2.524,4.175Z" transform="translate(-32.038 -27.187)" fill="#e9e5dc" fill-rule="evenodd"/>
          <path id="Path_903815" data-name="Path 903815" d="M308.151,161.882a7.993,7.993,0,1,0,4.279,10.462A7.986,7.986,0,0,0,308.151,161.882Zm-3.451,1.953a.645.645,0,1,1-.086-1.287,6.73,6.73,0,0,1,7.151,7.132.645.645,0,0,1-1.287-.081,5.438,5.438,0,0,0-5.779-5.765Z" transform="translate(-265.889 -145.486)" fill="#a5eeff" fill-rule="evenodd"/>
          <path id="Path_903816" data-name="Path 903816" d="M291.927,162.672l-.9-2.209a1.469,1.469,0,0,1,.549-1.788,10.578,10.578,0,1,0-3.9,1.6,1.466,1.466,0,0,1,1.644.894l.9,2.2a4.215,4.215,0,0,1,1.715-.7Zm-9.745-21.383a9.281,9.281,0,1,1-5.049,5A9.274,9.274,0,0,1,282.182,141.289Z" transform="translate(-246.524 -126.113)" fill="#24809d" fill-rule="evenodd"/>
          <path id="Path_903817" data-name="Path 903817" d="M415.551,369.115a4.875,4.875,0,0,1-2.641,1.087l3.969,11.3a2.04,2.04,0,0,0,3.76-.037,1.823,1.823,0,0,0-.006-1.5Zm2.037,9.155a.644.644,0,1,1,1.176-.525l1.1,2.472a.644.644,0,1,1-1.176.525l-1.1-2.472Z" transform="translate(-368.108 -328.894)" fill="#204a5d" fill-rule="evenodd"/>
          <path id="Path_903818" data-name="Path 903818" d="M407.695,348.394a3.011,3.011,0,0,0-2.395.975l.45,1.281a3.61,3.61,0,0,0,2.518-1.032l-.574-1.225Z" transform="translate(-361.393 -310.609)" fill="#afb6bb" fill-rule="evenodd"/>
          <path id="Path_903819" data-name="Path 903819" d="M39.8,42.193h4.509a2.739,2.739,0,0,0,2.733-2.733V34.951L39.8,42.193Z" transform="translate(-38.887 -34.038)" fill="#204a5d" fill-rule="evenodd"/>
          <path id="Path_903820" data-name="Path 903820" d="M54.222,238.822c-1.239,2.021-3.363,5.391-3.363,6.582a3.361,3.361,0,1,0,6.721,0c0-1.367-2.479-5.16-3.358-6.582Z" transform="translate(-48.645 -213.927)" fill="#fba23d" fill-rule="evenodd"/>
          <path id="Path_903821" data-name="Path 903821" d="M168.5,208.593a24.3,24.3,0,0,1,2.606,5.693h5.416v-1.952H173.4a.646.646,0,1,1,0-1.292h3.128v-1.95h-4.307a.646.646,0,1,1,0-1.292h4.307v-1.95H173.4a.646.646,0,0,1,0-1.292h3.128v-1.95h-4.307a.646.646,0,0,1,0-1.292h4.307v-1.95H168.5v9.225Z" transform="translate(-152.451 -179.114)" fill="#a5eeff" fill-rule="evenodd"/>
          <path id="Path_903822" data-name="Path 903822" d="M171.205,337.131a7.014,7.014,0,0,1-2.724,5.218v5.692a4.012,4.012,0,0,0,8.024,0v-4.425H172.2a.646.646,0,1,1,0-1.292h4.307v-1.95h-3.128a.646.646,0,1,1,0-1.292h3.128v-1.952h-5.3Z" transform="translate(-152.431 -300.672)" fill="#bdd14b" fill-rule="evenodd"/>
          <path id="Path_903823" data-name="Path 903823" d="M83.238,250.1a5.734,5.734,0,1,0,11.468.008c0-2.338-4.265-8.81-5.732-11.212L86.58,242.83a6.948,6.948,0,0,1,.862,2.64,4.653,4.653,0,0,1-4.2,4.631Z" transform="translate(-77.215 -213.994)" fill="#fabc57" fill-rule="evenodd"/>
        </g>
        <rect id="Rectangle_406630" data-name="Rectangle 406630" width="10.909" height="3.931" rx="1.966" transform="translate(14.607 15.031)" fill="#204a5d"/>
      </g>
    </g>
  </g>
</svg>
