<svg xmlns="http://www.w3.org/2000/svg" xmlns:xlink="http://www.w3.org/1999/xlink" width="108" height="108" viewBox="0 0 108 108">
  <defs>
    <filter id="Path_896985" x="0" y="0" width="108" height="108" filterUnits="userSpaceOnUse">
      <feOffset dy="3" input="SourceAlpha"/>
      <feGaussianBlur stdDeviation="3" result="blur"/>
      <feFlood flood-opacity="0.161"/>
      <feComposite operator="in" in2="blur"/>
      <feComposite in="SourceGraphic"/>
    </filter>
  </defs>
  <g id="Group_1113249" data-name="Group 1113249" transform="translate(-747.384 -3844)">
    <g id="Group_1109827" data-name="Group 1109827" transform="translate(-0.397 17)">
      <g id="Group_1098742" data-name="Group 1098742" transform="translate(-446.539 3444.258)">
        <g transform="matrix(1, 0, 0, 1, 1194.32, 382.74)" filter="url(#Path_896985)">
          <g id="Path_896985-2" data-name="Path 896985" transform="translate(9 6)" fill="#8dc0ff" opacity="0.859">
            <path d="M 44.99993896484375 88.5 C 39.12682723999023 88.5 33.4301872253418 87.35007476806641 28.06826400756836 85.08217620849609 C 22.88850212097168 82.89132690429688 18.23627662658691 79.75461578369141 14.2408390045166 75.75916290283203 C 10.24540138244629 71.76372528076172 7.108676433563232 67.11151123046875 4.917826652526855 61.9317512512207 C 2.649926424026489 56.56982421875 1.500001430511475 50.87317657470703 1.500001430511475 45.00006103515625 C 1.500001430511475 39.12682342529297 2.649926424026489 33.4301872253418 4.917826652526855 28.06826210021973 C 7.108676433563232 22.88850021362305 10.24540138244629 18.23628807067871 14.2408390045166 14.24083709716797 C 18.23628807067871 10.24540042877197 22.88850212097168 7.108675003051758 28.06826400756836 4.917825222015381 C 33.4301872253418 2.649924993515015 39.12682723999023 1.5 44.99993896484375 1.5 C 50.87305068969727 1.5 56.5697021484375 2.649924993515015 61.93162536621094 4.917825222015381 C 67.11138916015625 7.108675003051758 71.76360321044922 10.24540042877197 75.75904083251953 14.24083709716797 C 79.75448608398438 18.23627471923828 82.89120483398438 22.88850021362305 85.08205413818359 28.06826210021973 C 87.34995269775391 33.4301872253418 88.4998779296875 39.12682342529297 88.4998779296875 44.99993896484375 C 88.4998779296875 50.87317657470703 87.34995269775391 56.56982421875 85.08205413818359 61.9317512512207 C 82.89120483398438 67.11151123046875 79.75448608398438 71.76372528076172 75.75904083251953 75.75916290283203 C 71.76360321044922 79.75461578369141 67.11138916015625 82.89132690429688 61.93162536621094 85.08217620849609 C 56.5697021484375 87.35007476806641 50.87305068969727 88.5 44.99993896484375 88.5 Z" stroke="none"/>
            <path d="M 44.99993896484375 3 C 39.32865142822266 3 33.82860946655273 4.110054016113281 28.65258026123047 6.299331665039062 C 23.65162658691406 8.414558410644531 19.15966796875 11.44332885742188 15.30149841308594 15.30149841308594 C 11.44332122802734 19.15966796875 8.41455078125 23.65162658691406 6.299324035644531 28.65258407592773 C 4.110054016113281 33.82861328125 2.999992370605469 39.32865524291992 2.999992370605469 45.00005722045898 C 2.999992370605469 50.67134475708008 4.110054016113281 56.17138671875 6.299324035644531 61.347412109375 C 8.41455078125 66.34837341308594 11.44332122802734 70.84033203125 15.30149841308594 74.69850158691406 C 19.15966796875 78.55667114257812 23.65162658691406 81.58544158935547 28.65258026123047 83.70066833496094 C 33.82860946655273 85.88994598388672 39.32865142822266 87 44.99993896484375 87 C 50.67122650146484 87 56.17126846313477 85.88994598388672 61.34729766845703 83.70066833496094 C 66.34825134277344 81.58544158935547 70.8402099609375 78.55667114257812 74.69837951660156 74.69850158691406 C 78.55654907226562 70.84033203125 81.5853271484375 66.34837341308594 83.70055389404297 61.347412109375 C 85.88982391357422 56.17138671875 86.9998779296875 50.67134475708008 86.9998779296875 44.99994277954102 C 86.9998779296875 39.32865524291992 85.88982391357422 33.82861328125 83.70055389404297 28.65258407592773 C 81.5853271484375 23.65162658691406 78.55654907226562 19.15966796875 74.69837951660156 15.30149841308594 C 70.8402099609375 11.44332885742188 66.34825134277344 8.414558410644531 61.34729766845703 6.299331665039062 C 56.17126846313477 4.110054016113281 50.67122650146484 3 44.99993896484375 3 M 44.99993896484375 0 C 69.85272216796875 0 89.99988555908203 20.14715576171875 89.99988555908203 44.99994277954102 L 89.99988555908203 45.00005722045898 C 89.99988555908203 69.85284423828125 69.85272216796875 90 44.99993896484375 90 C 20.14715576171875 90 -7.62939453125e-06 69.85284423828125 -7.62939453125e-06 45.00005722045898 L -7.62939453125e-06 44.99994277954102 C -7.62939453125e-06 20.14715576171875 20.14715576171875 0 44.99993896484375 0 Z" stroke="none" fill="#fff"/>
          </g>
        </g>
        <g id="Rectangle_400907" data-name="Rectangle 400907" transform="translate(1203.32 388.742)" fill="none" stroke="#fff" stroke-width="3">
          <rect width="90" height="90" rx="45" stroke="none"/>
          <rect x="1.5" y="1.5" width="87" height="87" rx="43.5" fill="none"/>
        </g>
      </g>
    </g>
    <g id="Group_1113248" data-name="Group 1113248" transform="translate(773.384 3857.722)">
      <path id="Path_903783" data-name="Path 903783" d="M32.774,146.129a4.927,4.927,0,0,1-4.927-4.927V103.967H37.7V141.2A4.927,4.927,0,0,1,32.774,146.129Z" transform="translate(-24.838 -83.567)" fill="#fdfcfc"/>
      <path id="Path_903784" data-name="Path 903784" d="M61.757,103.967V141.2a4.928,4.928,0,0,1-3.306,4.653A4.927,4.927,0,0,0,65,141.2V103.967Z" transform="translate(-52.136 -83.567)" fill="#eee"/>
      <path id="Path_903785" data-name="Path 903785" d="M215.323,146.129A4.927,4.927,0,0,1,210.4,141.2V103.967h9.854V141.2A4.927,4.927,0,0,1,215.323,146.129Z" transform="translate(-187.665 -83.567)" fill="#fdfcfc"/>
      <path id="Path_903786" data-name="Path 903786" d="M244.307,103.967V141.2A4.928,4.928,0,0,1,241,145.855a4.927,4.927,0,0,0,6.547-4.653V103.967Z" transform="translate(-214.964 -83.567)" fill="#eee"/>
      <path id="Path_903787" data-name="Path 903787" d="M397.873,146.129a4.927,4.927,0,0,1-4.927-4.927V103.967H402.8V141.2A4.927,4.927,0,0,1,397.873,146.129Z" transform="translate(-350.493 -83.567)" fill="#fdfcfc"/>
      <path id="Path_903788" data-name="Path 903788" d="M426.857,103.967V141.2a4.928,4.928,0,0,1-3.306,4.653A4.927,4.927,0,0,0,430.1,141.2V103.967Z" transform="translate(-377.792 -83.567)" fill="#eee"/>
      <path id="Path_903789" data-name="Path 903789" d="M20.533,27.09H8.717A1.217,1.217,0,0,1,7.5,25.873V18.995a1.217,1.217,0,0,1,1.217-1.217H20.533a1.217,1.217,0,0,1,1.217,1.217v6.878A1.217,1.217,0,0,1,20.533,27.09Z" transform="translate(-6.69 -6.69)" fill="#f8e883"/>
      <path id="Path_903790" data-name="Path 903790" d="M27.847,212.127H37.7v20.527H27.847Z" transform="translate(-24.838 -180.042)" fill="#d4cfd5"/>
      <path id="Path_903791" data-name="Path 903791" d="M203.083,27.09H191.267a1.217,1.217,0,0,1-1.217-1.217V18.995a1.217,1.217,0,0,1,1.217-1.217h11.816a1.217,1.217,0,0,1,1.217,1.217v6.878A1.217,1.217,0,0,1,203.083,27.09Z" transform="translate(-169.517 -6.69)" fill="#bed9fd"/>
      <path id="Path_903792" data-name="Path 903792" d="M210.4,212.127h9.854v20.527H210.4Z" transform="translate(-187.666 -180.042)" fill="#d4cfd5"/>
      <path id="Path_903793" data-name="Path 903793" d="M385.632,27.09H373.816a1.217,1.217,0,0,1-1.217-1.217V18.995a1.217,1.217,0,0,1,1.217-1.217h11.816a1.217,1.217,0,0,1,1.217,1.217v6.878A1.217,1.217,0,0,1,385.632,27.09Z" transform="translate(-332.344 -6.69)" fill="#e27f86"/>
      <path id="Path_903794" data-name="Path 903794" d="M392.947,212.127H402.8v20.527h-9.854Z" transform="translate(-350.494 -180.042)" fill="#d4cfd5"/>
      <path id="Path_903795" data-name="Path 903795" d="M101.378,17.778H98.137a1.217,1.217,0,0,1,1.217,1.217v6.878a1.217,1.217,0,0,1-1.217,1.217h3.241a1.217,1.217,0,0,0,1.217-1.217V18.995A1.217,1.217,0,0,0,101.378,17.778Z" transform="translate(-87.535 -6.69)" fill="#f7e365"/>
      <path id="Path_903796" data-name="Path 903796" d="M89.054,212.127H92.3v20.527H89.054Z" transform="translate(-79.433 -180.042)" fill="#c5bec6"/>
      <path id="Path_903797" data-name="Path 903797" d="M283.928,17.778h-3.241a1.217,1.217,0,0,1,1.217,1.217v6.878a1.217,1.217,0,0,1-1.217,1.217h3.241a1.217,1.217,0,0,0,1.217-1.217V18.995A1.217,1.217,0,0,0,283.928,17.778Z" transform="translate(-250.362 -6.69)" fill="#80b6fc"/>
      <path id="Path_903798" data-name="Path 903798" d="M271.6,212.127h3.241v20.527H271.6Z" transform="translate(-242.261 -180.042)" fill="#c5bec6"/>
      <path id="Path_903799" data-name="Path 903799" d="M466.478,17.778h-3.241a1.217,1.217,0,0,1,1.217,1.217v6.878a1.217,1.217,0,0,1-1.217,1.217h3.241a1.217,1.217,0,0,0,1.217-1.217V18.995A1.217,1.217,0,0,0,466.478,17.778Z" transform="translate(-413.19 -6.69)" fill="#df646e"/>
      <path id="Path_903800" data-name="Path 903800" d="M454.154,212.127H457.4v20.527h-3.241Z" transform="translate(-405.088 -180.042)" fill="#c5bec6"/>
      <path id="Path_903801" data-name="Path 903801" d="M13.844,10.278H2.027A2.029,2.029,0,0,0,0,12.305v6.878A2.029,2.029,0,0,0,2.027,21.21H2.2v1.4a.81.81,0,0,0,1.621,0v-1.4h8.233V31.275H3.819V25.851a.81.81,0,0,0-1.621,0V57.635a5.737,5.737,0,0,0,11.474,0V21.21h.171a2.029,2.029,0,0,0,2.027-2.027V12.305a2.03,2.03,0,0,0-2.027-2.027ZM12.052,32.9V51.8H3.819V32.9ZM7.935,61.752a4.121,4.121,0,0,1-4.117-4.117V53.423h8.233v4.213A4.121,4.121,0,0,1,7.935,61.752ZM8.961,11.9h1.873V19.59H8.961ZM7.341,19.59H5.474V11.9H7.341Zm-5.72-.407V12.305a.407.407,0,0,1,.407-.407H3.854V19.59H2.027a.407.407,0,0,1-.407-.407Zm12.63,0a.407.407,0,0,1-.407.407H12.455V11.9h1.388a.407.407,0,0,1,.407.407Z" transform="translate(0 0)"/>
      <path id="Path_903802" data-name="Path 903802" d="M59.683,251.012H62a.81.81,0,1,0,0-1.621H59.683a.81.81,0,1,0,0,1.621Z" transform="translate(-52.513 -213.28)"/>
      <path id="Path_903803" data-name="Path 903803" d="M59.683,296.471H62a.81.81,0,1,0,0-1.621H59.683a.81.81,0,1,0,0,1.621Z" transform="translate(-52.513 -253.828)"/>
      <path id="Path_903804" data-name="Path 903804" d="M62,340.308H59.683a.81.81,0,1,0,0,1.621H62a.81.81,0,1,0,0-1.621Z" transform="translate(-52.513 -294.374)"/>
      <path id="Path_903805" data-name="Path 903805" d="M196.393,10.278H184.577a2.029,2.029,0,0,0-2.027,2.027v6.878a2.029,2.029,0,0,0,2.027,2.027h.171V57.635a5.737,5.737,0,0,0,11.474,0V42.277a.81.81,0,0,0-1.621,0V51.8h-8.233V32.9H194.6v6.14a.81.81,0,0,0,1.621,0V21.21h.171a2.029,2.029,0,0,0,2.027-2.027V12.305a2.03,2.03,0,0,0-2.027-2.027ZM191.36,19.59V11.9h1.873V19.59Zm-3.487,0V11.9h1.867V19.59Zm-3.7-.407V12.305a.407.407,0,0,1,.407-.407h1.675V19.59h-1.675A.407.407,0,0,1,184.171,19.183ZM194.6,53.423v4.213a4.117,4.117,0,0,1-8.233,0V53.423Zm0-22.148h-8.233V21.21H194.6Zm2.2-12.092a.407.407,0,0,1-.407.407h-1.539V11.9h1.539a.407.407,0,0,1,.407.407Z" transform="translate(-162.828)"/>
      <path id="Path_903806" data-name="Path 903806" d="M244.547,249.391h-2.314a.81.81,0,0,0,0,1.621h2.314a.81.81,0,0,0,0-1.621Z" transform="translate(-215.34 -213.28)"/>
      <path id="Path_903807" data-name="Path 903807" d="M244.547,294.85h-2.314a.81.81,0,0,0,0,1.621h2.314a.81.81,0,1,0,0-1.621Z" transform="translate(-215.34 -253.828)"/>
      <path id="Path_903808" data-name="Path 903808" d="M244.547,340.308h-2.314a.81.81,0,0,0,0,1.621h2.314a.81.81,0,1,0,0-1.621Z" transform="translate(-215.34 -294.374)"/>
      <path id="Path_903809" data-name="Path 903809" d="M378.943,10.278H367.126a2.029,2.029,0,0,0-2.027,2.027v6.878a2.029,2.029,0,0,0,2.027,2.027h.171V57.635a5.737,5.737,0,0,0,11.474,0V21.21h.171a2.029,2.029,0,0,0,2.027-2.027V12.305a2.029,2.029,0,0,0-2.027-2.027ZM373.95,19.59V11.9h1.873V19.59Zm-3.487,0V11.9h1.867V19.59Zm-3.743-.407V12.305a.407.407,0,0,1,.407-.407h1.715V19.59h-1.715A.407.407,0,0,1,366.72,19.183ZM377.151,51.8h-8.233V32.9h8.233Zm-4.117,9.95a4.121,4.121,0,0,1-4.117-4.117V53.423h8.233v4.213A4.121,4.121,0,0,1,373.034,61.752Zm4.117-30.477h-8.233V21.21h8.233Zm2.2-12.092a.407.407,0,0,1-.407.407h-1.5V11.9h1.5a.407.407,0,0,1,.407.407Z" transform="translate(-325.655)"/>
      <path id="Path_903810" data-name="Path 903810" d="M424.783,251.012H427.1a.81.81,0,1,0,0-1.621h-2.314a.81.81,0,0,0,0,1.621Z" transform="translate(-378.168 -213.28)"/>
      <path id="Path_903811" data-name="Path 903811" d="M424.783,296.471H427.1a.81.81,0,1,0,0-1.621h-2.314a.81.81,0,0,0,0,1.621Z" transform="translate(-378.168 -253.828)"/>
      <path id="Path_903812" data-name="Path 903812" d="M427.1,340.308h-2.314a.81.81,0,0,0,0,1.621H427.1a.81.81,0,1,0,0-1.621Z" transform="translate(-378.168 -294.374)"/>
    </g>
  </g>
</svg>
