<svg xmlns="http://www.w3.org/2000/svg" xmlns:xlink="http://www.w3.org/1999/xlink" width="295" height="485" viewBox="0 0 295 485">
  <defs>
    <clipPath id="clip-path">
      <rect id="Rectangle_406496" data-name="Rectangle 406496" width="295" height="485" rx="8" transform="translate(915.384 7725.46)" fill="#e2dacc"/>
    </clipPath>
    <clipPath id="clip-path-2">
      <rect id="Rectangle_406727" data-name="Rectangle 406727" width="753.012" height="739.677" fill="none"/>
    </clipPath>
    <clipPath id="clip-path-3">
      <rect id="Rectangle_406728" data-name="Rectangle 406728" width="661.008" height="189.594" fill="none"/>
    </clipPath>
    <clipPath id="clip-path-5">
      <rect id="Rectangle_406730" data-name="Rectangle 406730" width="244.615" height="344.992" fill="none"/>
    </clipPath>
  </defs>
  <g id="Mask_Group_1098744" data-name="Mask Group 1098744" transform="translate(-915.384 -7725.46)" clip-path="url(#clip-path)">
    <g id="Group_1113536" data-name="Group 1113536" transform="translate(526.349 7558.359)">
      <rect id="Rectangle_406726" data-name="Rectangle 406726" width="661.008" height="661.008" transform="translate(30.175 29.521)" fill="#e0eef4"/>
      <g id="Group_1113529" data-name="Group 1113529">
        <g id="Group_1113528" data-name="Group 1113528" clip-path="url(#clip-path-2)">
          <path id="Path_904090" data-name="Path 904090" d="M276.217,80.84c-61.581,27.859,4.593,93.975,37.3,31.642,8.679-16.545,2.906-41.482-37.3-31.642M22.825,22.33H265.1c-3.388,5.04,7.021,116.869-95.224,110.14-46.011-3.029-79.285-11.8-93.673,28.166s-36.576,43.539-53.379,37.718Z" transform="translate(7.35 7.191)" fill="#fff" fill-rule="evenodd"/>
        </g>
      </g>
      <g id="Group_1113531" data-name="Group 1113531" transform="translate(30.175 29.522)">
        <g id="Group_1113530" data-name="Group 1113530" clip-path="url(#clip-path-3)">
          <path id="Path_904091" data-name="Path 904091" d="M434.04,74.809c-3.509,11.067-21.329,85.2-29.005,68.974-10.468-22.128,11.77-55.461,29.005-68.974" transform="translate(99.385 -5.432)" fill="#fff" fill-rule="evenodd"/>
          <path id="Path_904092" data-name="Path 904092" d="M445.621,66.3s-27.46,26.546-49.233,46.056c-24.563,22.006-4.823-36.794,49.233-46.056" transform="translate(94.107 -8.172)" fill="#fff" fill-rule="evenodd"/>
          <path id="Path_904093" data-name="Path 904093" d="M432.2,66.3c-7.319,54.164-4.577,73.832-.537,73.46,6.093-.561,17.01-44.453.537-73.46" transform="translate(107.529 -8.172)" fill="#fff" fill-rule="evenodd"/>
          <path id="Path_904094" data-name="Path 904094" d="M458.692,49.2s-29.846,15.322-54.345,26.71c-33.431,15.536,4.487-37.738,54.345-26.71" transform="translate(95.957 -14.166)" fill="#fff" fill-rule="evenodd"/>
          <path id="Path_904095" data-name="Path 904095" d="M442.186,49.277s1.561,30.25,3.817,56.346c3.854,44.6,30.5-19.021-3.817-56.346" transform="translate(112.216 -13.654)" fill="#fff" fill-rule="evenodd"/>
          <path id="Path_904096" data-name="Path 904096" d="M471.144,37.1s-33.037,5.841-59.805,9.5c-36.525,4.991,15.415-34.736,59.805-9.5" transform="translate(98.309 -20.3)" fill="#fff" fill-rule="evenodd"/>
          <path id="Path_904097" data-name="Path 904097" d="M454.07,35.386s7.951,29.228,15.7,54.25c13.239,42.759,25.767-25.067-15.7-54.25" transform="translate(116.043 -18.127)" fill="#fff" fill-rule="evenodd"/>
          <path id="Path_904098" data-name="Path 904098" d="M475.389,18.738s2.813,30.16,6.149,56.139c5.7,44.4,29.689-20.269-6.149-56.139" transform="translate(122.908 -23.488)" fill="#fff" fill-rule="evenodd"/>
          <path id="Path_904099" data-name="Path 904099" d="M408.515,145.028a.873.873,0,0,0,1.651.566c.11-.32,37.582-111.242,98.064-129.053a.874.874,0,1,0-.5-1.675c-61.349,18.065-99.106,129.839-99.217,130.162" transform="translate(101.358 -24.747)" fill="#fff" fill-rule="evenodd"/>
          <path id="Path_904100" data-name="Path 904100" d="M442.742,67.446a.872.872,0,1,0-.846-1.526,203.331,203.331,0,0,0-24.76,16.032,142.253,142.253,0,0,0-21.871,20.4.874.874,0,1,0,1.329,1.136,140.61,140.61,0,0,1,21.6-20.142,201.48,201.48,0,0,1,24.55-15.9" transform="translate(97.039 -8.33)" fill="#fff" fill-rule="evenodd"/>
          <path id="Path_904101" data-name="Path 904101" d="M432.2,66.678a.875.875,0,0,0-1.72.319A199.249,199.249,0,0,1,433.8,98a139.03,139.03,0,0,1-1.954,27.536.874.874,0,1,0,1.721.307,140.638,140.638,0,0,0,1.979-27.888A200.811,200.811,0,0,0,432.2,66.678" transform="translate(108.443 -8.281)" fill="#fff" fill-rule="evenodd"/>
          <path id="Path_904102" data-name="Path 904102" d="M454.994,49.979a.876.876,0,1,0-.3-1.725,161.048,161.048,0,0,0-28.258,7.461,117.582,117.582,0,0,0-23.6,11.728.877.877,0,0,0,.957,1.47,115.862,115.862,0,0,1,23.242-11.553,159.351,159.351,0,0,1,27.958-7.381" transform="translate(99.416 -13.988)" fill="#fff" fill-rule="evenodd"/>
          <path id="Path_904103" data-name="Path 904103" d="M443.313,49.477a.876.876,0,1,0-1.645.605,159.31,159.31,0,0,1,7.648,27.884,115.924,115.924,0,0,1,1.674,25.9.878.878,0,1,0,1.753.087,117.638,117.638,0,0,0-1.7-26.29,161.28,161.28,0,0,0-7.731-28.191" transform="translate(112.032 -13.774)" fill="#fff" fill-rule="evenodd"/>
          <path id="Path_904104" data-name="Path 904104" d="M466.734,36.443a.879.879,0,1,0,.222-1.744,160.968,160.968,0,0,0-29.21-1.2,117.551,117.551,0,0,0-26,4.249.878.878,0,0,0,.488,1.687,115.86,115.86,0,0,1,25.615-4.187,159.432,159.432,0,0,1,28.886,1.192" transform="translate(102.209 -18.803)" fill="#fff" fill-rule="evenodd"/>
          <path id="Path_904105" data-name="Path 904105" d="M455.177,35.393a.879.879,0,0,0-1.485.94,159.368,159.368,0,0,1,13.4,25.623,115.838,115.838,0,0,1,7.136,24.957.878.878,0,1,0,1.733-.286A117.682,117.682,0,0,0,468.716,61.3a161.15,161.15,0,0,0-13.539-25.906" transform="translate(115.877 -18.256)" fill="#fff" fill-rule="evenodd"/>
          <path id="Path_904106" data-name="Path 904106" d="M476.515,18.9a.877.877,0,0,0-1.619.676A160.977,160.977,0,0,1,483.3,45.355a117.047,117.047,0,0,1,3.137,27.571.879.879,0,1,0,1.757.02,118.733,118.733,0,0,0-3.186-27.984A162.862,162.862,0,0,0,476.515,18.9" transform="translate(122.727 -23.61)" fill="#fff" fill-rule="evenodd"/>
          <path id="Path_904107" data-name="Path 904107" d="M512.87,90.157c-3.511,11.065-21.347,85.195-29.021,68.966-10.464-22.129,11.781-55.459,29.021-68.966" transform="translate(124.765 -0.49)" fill="#6e9745" fill-rule="evenodd"/>
          <path id="Path_904108" data-name="Path 904108" d="M524.451,81.65s-27.464,26.541-49.244,46.046c-24.567,22-4.815-36.794,49.244-46.046" transform="translate(119.488 -3.229)" fill="#6e9745" fill-rule="evenodd"/>
          <path id="Path_904109" data-name="Path 904109" d="M511.028,81.65c-7.331,54.163-4.593,73.831-.554,73.459,6.093-.559,17.021-44.447.554-73.459" transform="translate(132.91 -3.229)" fill="#6e9745" fill-rule="evenodd"/>
          <path id="Path_904110" data-name="Path 904110" d="M537.526,64.557s-29.85,15.316-54.352,26.7c-33.434,15.53,4.5-37.736,54.352-26.7" transform="translate(121.34 -9.223)" fill="#6e9745" fill-rule="evenodd"/>
          <path id="Path_904111" data-name="Path 904111" d="M521.018,64.628s1.555,30.25,3.8,56.347c3.844,44.6,30.507-19.015-3.8-56.347" transform="translate(137.601 -8.711)" fill="#6e9745" fill-rule="evenodd"/>
          <path id="Path_904112" data-name="Path 904112" d="M549.98,52.456s-33.039,5.834-59.807,9.485c-36.527,4.983,15.42-34.733,59.807-9.485" transform="translate(123.694 -15.358)" fill="#6e9745" fill-rule="evenodd"/>
          <path id="Path_904113" data-name="Path 904113" d="M571.408,37.322s-33.55.074-60.548-.924c-36.839-1.363,21.156-31.57,60.548.924" transform="translate(130.544 -22.334)" fill="#6e9745" fill-rule="evenodd"/>
          <path id="Path_904114" data-name="Path 904114" d="M488.986,160.934a.875.875,0,0,1-1.655-.568c.111-.321,37.89-112.084,99.249-130.141a.874.874,0,1,1,.493,1.676C526.592,49.7,489.1,160.614,488.986,160.934" transform="translate(126.738 -19.8)" fill="#0f3d61" fill-rule="evenodd"/>
          <path id="Path_904115" data-name="Path 904115" d="M520.728,81.27a.87.87,0,1,1,.841,1.524,199.29,199.29,0,0,0-26.085,17.074,138.859,138.859,0,0,0-20.071,18.955.873.873,0,0,1-1.327-1.136,140.6,140.6,0,0,1,20.326-19.194A200.984,200.984,0,0,1,520.728,81.27" transform="translate(122.421 -3.387)" fill="#0f3d61" fill-rule="evenodd"/>
          <path id="Path_904116" data-name="Path 904116" d="M509.314,82.34a.872.872,0,1,1,1.716-.308,200.791,200.791,0,0,1,3.333,31.274,140.6,140.6,0,0,1-1.983,27.88.874.874,0,1,1-1.721-.3,139.179,139.179,0,0,0,1.961-27.546,199.146,199.146,0,0,0-3.305-31" transform="translate(133.827 -3.338)" fill="#0f3d61" fill-rule="evenodd"/>
          <path id="Path_904117" data-name="Path 904117" d="M533.528,63.6a.883.883,0,0,1,.3,1.74,159.317,159.317,0,0,0-27.957,7.374,115.84,115.84,0,0,0-23.24,11.544.882.882,0,1,1-.966-1.475,117.5,117.5,0,0,1,23.6-11.725A161.17,161.17,0,0,1,533.528,63.6" transform="translate(124.799 -9.046)" fill="#0f3d61" fill-rule="evenodd"/>
          <path id="Path_904118" data-name="Path 904118" d="M520.5,65.436a.882.882,0,1,1,1.656-.608,161.151,161.151,0,0,1,7.725,28.195,117.6,117.6,0,0,1,1.691,26.291.881.881,0,1,1-1.76-.091,115.824,115.824,0,0,0-1.671-25.9A159.285,159.285,0,0,0,520.5,65.436" transform="translate(137.415 -8.833)" fill="#0f3d61" fill-rule="evenodd"/>
          <path id="Path_904119" data-name="Path 904119" d="M545.791,50.054a.88.88,0,0,1-.222,1.746,159.317,159.317,0,0,0-28.886-1.2,115.8,115.8,0,0,0-25.619,4.183.883.883,0,0,1-.481-1.7,117.62,117.62,0,0,1,26-4.244,161.036,161.036,0,0,1,29.206,1.208" transform="translate(127.594 -13.861)" fill="#0f3d61" fill-rule="evenodd"/>
          <path id="Path_904120" data-name="Path 904120" d="M567.264,34.685a.88.88,0,1,1-.518,1.683,161.068,161.068,0,0,0-26.461-5.915,117.088,117.088,0,0,0-27.746-.5.881.881,0,0,1-.184-1.753,118.8,118.8,0,0,1,28.158.51,162.742,162.742,0,0,1,26.752,5.978" transform="translate(134.557 -20.638)" fill="#0f3d61" fill-rule="evenodd"/>
          <path id="Path_904121" data-name="Path 904121" d="M358.048,81.513c2.965,11.223,27.647,83.364,12.471,73.778-20.7-13.073-19.783-53.133-12.471-73.778" transform="translate(83.598 -3.273)" fill="#6e9745" fill-rule="evenodd"/>
          <path id="Path_904122" data-name="Path 904122" d="M362.95,71.776s-8.957,37.127-16.886,65.269c-8.945,31.742-23.79-28.482,16.886-65.269" transform="translate(77.987 -6.409)" fill="#6e9745" fill-rule="evenodd"/>
          <path id="Path_904123" data-name="Path 904123" d="M356.359,71.776c22.846,49.654,35.7,64.788,38.911,62.309,4.844-3.737-9.459-46.646-38.911-62.309" transform="translate(84.578 -6.409)" fill="#6e9745" fill-rule="evenodd"/>
          <path id="Path_904124" data-name="Path 904124" d="M367,50.981s-16.989,28.93-31.572,51.672C315.531,133.686,319,68.388,367,50.981" transform="translate(74.161 -13.105)" fill="#6e9745" fill-rule="evenodd"/>
          <path id="Path_904125" data-name="Path 904125" d="M356.609,51.454s17.529,24.7,33.415,45.528c27.153,35.587,15.563-32.405-33.415-45.528" transform="translate(84.659 -12.953)" fill="#6e9745" fill-rule="evenodd"/>
          <path id="Path_904126" data-name="Path 904126" d="M372.635,33.332s-24.761,22.634-45.4,40.068c-28.163,23.787-5.6-37.588,45.4-40.068" transform="translate(71.253 -18.789)" fill="#6e9745" fill-rule="evenodd"/>
          <path id="Path_904127" data-name="Path 904127" d="M359.2,33.358s22.375,20.417,42.324,37.392c34.091,29.008,8.323-34.973-42.324-37.392" transform="translate(85.493 -18.78)" fill="#6e9745" fill-rule="evenodd"/>
          <path id="Path_904128" data-name="Path 904128" d="M383.317,7.867s-28.282,18.047-51.609,31.677c-31.829,18.6.937-37.991,51.609-31.677" transform="translate(72.591 -27.148)" fill="#6e9745" fill-rule="evenodd"/>
          <path id="Path_904129" data-name="Path 904129" d="M368.277,7.877s18.536,23.956,35.275,44.1c28.6,34.431,14.2-33.024-35.275-44.1" transform="translate(88.416 -26.985)" fill="#6e9745" fill-rule="evenodd"/>
          <path id="Path_904130" data-name="Path 904130" d="M366.427,162.957a.873.873,0,0,1-1.7.4c-.079-.33-28.1-114.931,14.02-163.063a.873.873,0,0,1,1.314,1.15c-41.521,47.446-13.716,161.181-13.635,161.509" transform="translate(84.309 -29.522)" fill="#0f3d61" fill-rule="evenodd"/>
          <path id="Path_904131" data-name="Path 904131" d="M360.473,71.864a.872.872,0,0,1,1.532.834,199.2,199.2,0,0,0-12.867,28.394,138.962,138.962,0,0,0-6.786,26.764.874.874,0,0,1-1.73-.246,140.726,140.726,0,0,1,6.868-27.1,201.079,201.079,0,0,1,12.983-28.648" transform="translate(79.508 -6.527)" fill="#0f3d61" fill-rule="evenodd"/>
          <path id="Path_904132" data-name="Path 904132" d="M356.141,72.83a.874.874,0,0,1,1.286-1.183A200.932,200.932,0,0,1,377,96.259a140.742,140.742,0,0,1,13.272,24.605.872.872,0,1,1-1.613.664,139.012,139.012,0,0,0-13.108-24.3,199.331,199.331,0,0,0-19.412-24.4" transform="translate(84.434 -6.541)" fill="#0f3d61" fill-rule="evenodd"/>
          <path id="Path_904133" data-name="Path 904133" d="M364.046,50.759a.882.882,0,0,1,1.187,1.3,159.431,159.431,0,0,0-19.648,21.213,115.76,115.76,0,0,0-13.43,22.2.882.882,0,0,1-1.609-.724,117.648,117.648,0,0,1,13.638-22.548,161.054,161.054,0,0,1,19.862-21.447" transform="translate(76.241 -13.251)" fill="#0f3d61" fill-rule="evenodd"/>
          <path id="Path_904134" data-name="Path 904134" d="M356.52,52.565a.882.882,0,0,1,1.071-1.4,161.066,161.066,0,0,1,21.632,19.658,117.648,117.648,0,0,1,15.526,21.291.882.882,0,1,1-1.539.863,115.858,115.858,0,0,0-15.29-20.968,159.4,159.4,0,0,0-21.4-19.443" transform="translate(84.518 -13.105)" fill="#0f3d61" fill-rule="evenodd"/>
          <path id="Path_904135" data-name="Path 904135" d="M369.051,32.891a.88.88,0,0,1,.746,1.594A159.446,159.446,0,0,0,344.77,48.963a115.729,115.729,0,0,0-19.381,17.258.88.88,0,0,1-1.318-1.167,117.554,117.554,0,0,1,19.677-17.526,161.124,161.124,0,0,1,25.3-14.636" transform="translate(74.109 -18.957)" fill="#0f3d61" fill-rule="evenodd"/>
          <path id="Path_904136" data-name="Path 904136" d="M359.31,34.511a.88.88,0,0,1,.744-1.594,160.939,160.939,0,0,1,25.317,14.615,117.625,117.625,0,0,1,19.693,17.506.883.883,0,0,1-1.319,1.173,115.8,115.8,0,0,0-19.4-17.243A159.145,159.145,0,0,0,359.31,34.511" transform="translate(85.365 -18.949)" fill="#0f3d61" fill-rule="evenodd"/>
          <path id="Path_904137" data-name="Path 904137" d="M379.44,7.2a.884.884,0,0,1,.463,1.705,159.178,159.178,0,0,0-27.144,9.96A115.919,115.919,0,0,0,330.7,32.544a.881.881,0,1,1-1.1-1.379A117.439,117.439,0,0,1,352,17.281,161.081,161.081,0,0,1,379.44,7.2" transform="translate(75.856 -27.212)" fill="#0f3d61" fill-rule="evenodd"/>
          <path id="Path_904138" data-name="Path 904138" d="M368.228,9a.88.88,0,0,1,1.007-1.442A161.016,161.016,0,0,1,391.667,26.3a117.466,117.466,0,0,1,16.392,20.629.88.88,0,0,1-1.5.924,115.834,115.834,0,0,0-16.15-20.318A159.273,159.273,0,0,0,368.228,9" transform="translate(88.279 -27.14)" fill="#0f3d61" fill-rule="evenodd"/>
          <path id="Path_904139" data-name="Path 904139" d="M63.667,87.915c3.513,11.064,21.348,85.195,29.021,68.966,10.462-22.129-11.782-55.457-29.021-68.966" transform="translate(-9.673 -1.212)" fill="#6e9745" fill-rule="evenodd"/>
          <path id="Path_904140" data-name="Path 904140" d="M58.9,79.408s27.464,26.539,49.244,46.046c24.567,22,4.813-36.8-49.244-46.046" transform="translate(-11.209 -3.951)" fill="#6e9745" fill-rule="evenodd"/>
          <path id="Path_904141" data-name="Path 904141" d="M61.013,79.408c7.331,54.163,4.594,73.831.554,73.459-6.093-.559-17.02-44.447-.554-73.459" transform="translate(-13.322 -3.951)" fill="#6e9745" fill-rule="evenodd"/>
          <path id="Path_904142" data-name="Path 904142" d="M47.608,62.315s29.85,15.316,54.351,26.7c33.434,15.53-4.495-37.737-54.351-26.7" transform="translate(-14.844 -9.945)" fill="#6e9745" fill-rule="evenodd"/>
          <path id="Path_904143" data-name="Path 904143" d="M52.009,62.386s-1.555,30.25-3.8,56.347c-3.843,44.6-30.507-19.016,3.8-56.347" transform="translate(-18.998 -9.433)" fill="#6e9745" fill-rule="evenodd"/>
          <path id="Path_904144" data-name="Path 904144" d="M36.407,50.213S69.445,56.048,96.214,59.7c36.527,4.983-15.421-34.733-59.807-9.485" transform="translate(-18.451 -16.08)" fill="#6e9745" fill-rule="evenodd"/>
          <path id="Path_904145" data-name="Path 904145" d="M42.818,48.5s-7.944,29.231-15.684,54.253C13.9,145.514,1.36,77.691,42.818,48.5" transform="translate(-25.522 -13.905)" fill="#6e9745" fill-rule="evenodd"/>
          <path id="Path_904146" data-name="Path 904146" d="M15.018,35.08s33.55.074,60.548-.925c36.839-1.363-21.158-31.568-60.548.925" transform="translate(-25.339 -23.056)" fill="#6e9745" fill-rule="evenodd"/>
          <path id="Path_904147" data-name="Path 904147" d="M105.941,158.123a.875.875,0,1,1-1.655.568c-.11-.32-37.606-111.237-98.087-129.033a.874.874,0,1,1,.493-1.676c61.36,18.055,99.139,129.819,99.249,130.141" transform="translate(-28.381 -20.522)" fill="#0f3d61" fill-rule="evenodd"/>
          <path id="Path_904148" data-name="Path 904148" d="M58.97,80.552a.871.871,0,1,1,.842-1.524A200.985,200.985,0,0,1,86.128,96.251a140.666,140.666,0,0,1,20.325,19.194.873.873,0,0,1-1.326,1.136A139.009,139.009,0,0,0,85.055,97.626,199.212,199.212,0,0,0,58.97,80.552" transform="translate(-11.331 -4.109)" fill="#0f3d61" fill-rule="evenodd"/>
          <path id="Path_904149" data-name="Path 904149" d="M59.027,79.79a.872.872,0,0,1,1.717.307,199.154,199.154,0,0,0-3.306,31A139.152,139.152,0,0,0,59.4,138.642a.874.874,0,1,1-1.723.3,140.6,140.6,0,0,1-1.983-27.88A200.93,200.93,0,0,1,59.027,79.79" transform="translate(-12.254 -4.06)" fill="#0f3d61" fill-rule="evenodd"/>
          <path id="Path_904150" data-name="Path 904150" d="M47.97,63.1a.882.882,0,1,1,.3-1.738,161.1,161.1,0,0,1,28.265,7.456,117.5,117.5,0,0,1,23.6,11.725.882.882,0,0,1-.965,1.477A115.794,115.794,0,0,0,75.925,70.47,159.244,159.244,0,0,0,47.97,63.1" transform="translate(-14.964 -9.768)" fill="#0f3d61" fill-rule="evenodd"/>
          <path id="Path_904151" data-name="Path 904151" d="M49.407,62.586a.882.882,0,1,1,1.656.608,159.321,159.321,0,0,0-7.641,27.883,115.666,115.666,0,0,0-1.67,25.9.881.881,0,1,1-1.76.09,117.433,117.433,0,0,1,1.69-26.29,161.086,161.086,0,0,1,7.725-28.195" transform="translate(-17.345 -9.555)" fill="#0f3d61" fill-rule="evenodd"/>
          <path id="Path_904152" data-name="Path 904152" d="M37.034,49.558a.881.881,0,0,1-.221-1.748A161.162,161.162,0,0,1,66.019,46.6a117.464,117.464,0,0,1,26,4.244.882.882,0,1,1-.483,1.7,115.773,115.773,0,0,0-25.617-4.182,159.348,159.348,0,0,0-28.889,1.2" transform="translate(-18.568 -14.583)" fill="#0f3d61" fill-rule="evenodd"/>
          <path id="Path_904153" data-name="Path 904153" d="M40.259,48.5a.88.88,0,0,1,1.485.945A159.394,159.394,0,0,0,28.356,75.074a115.875,115.875,0,0,0-7.132,24.952.881.881,0,0,1-1.74-.276,117.458,117.458,0,0,1,7.238-25.338A161.018,161.018,0,0,1,40.259,48.5" transform="translate(-23.905 -14.034)" fill="#0f3d61" fill-rule="evenodd"/>
          <path id="Path_904154" data-name="Path 904154" d="M15.784,34.126a.881.881,0,0,1-.518-1.684,161.25,161.25,0,0,1,28.566-6.207,117.592,117.592,0,0,1,26.346-.28.881.881,0,0,1-.186,1.753,115.917,115.917,0,0,0-25.954.28,159.389,159.389,0,0,0-28.254,6.138" transform="translate(-25.459 -21.361)" fill="#0f3d61" fill-rule="evenodd"/>
        </g>
      </g>
      <g id="Group_1113533" data-name="Group 1113533">
        <g id="Group_1113532" data-name="Group 1113532" clip-path="url(#clip-path-2)">
          <path id="Path_904155" data-name="Path 904155" d="M387.417,181.306c19.36-25.96,104.125-53.822,131.157,22.109s-49.635,94-90.981,82.31c-40.7-11.5-63.165-73.591-40.176-104.419" transform="translate(121.785 49.629)" fill="#fff" fill-rule="evenodd"/>
          <path id="Path_904156" data-name="Path 904156" d="M22.825,555.292c49.919-6.666,64.721,1.545,145.7,26.886s97.213-57.947,230.4-10.7c31.059,11.018,72.436,1.306,90.331-23.594,37.135-51.67,44.515-160.6,44.629-252.947.067-54.918-.212-38.005-.554-65.662h27.642c-2.546,20.072-2.935,12.568-.262,68.593,3.23,67.706,10.933,141.056,30.593,181.357,11.265,23.09,58.869,37.888,92.521,29.314V616.7H22.825Z" transform="translate(7.35 73.829)" fill="#8bc2ec" fill-rule="evenodd"/>
          <path id="Path_904157" data-name="Path 904157" d="M484.6,238.367a1.308,1.308,0,1,1,2.615-.093c1.544,42.852,2.505,101.953-1.6,158.851-4.117,57.021-13.327,111.882-32.147,146.145-8.813,16.045-18.789,27.4-29.231,35.228a74.941,74.941,0,0,1-37.7,14.841,107.242,107.242,0,0,1-20.317-.073,205.178,205.178,0,0,1-21.574-3.19c-3.613-.717-7.871-1.746-12.625-2.894-29.678-7.164-79.029-19.077-131.1,8.23a1.308,1.308,0,1,1-1.211-2.319c52.941-27.762,102.889-15.706,132.926-8.454,4.649,1.124,8.816,2.128,12.512,2.862a201.931,201.931,0,0,0,21.3,3.148,104.652,104.652,0,0,0,19.825.086,72.341,72.341,0,0,0,36.391-14.329c10.157-7.612,19.881-18.695,28.5-34.4,18.61-33.881,27.736-88.369,31.829-145.066,4.1-56.822,3.142-115.809,1.6-158.574" transform="translate(64.085 76.321)" fill="#4a89c8" fill-rule="evenodd"/>
          <path id="Path_904158" data-name="Path 904158" d="M423.269,276.279a1.31,1.31,0,1,1,2.615-.165c.982,14.937,1.434,31.241,1.9,47.992,1.664,60.043,3.491,125.9,30.742,158.06a1.31,1.31,0,1,1-2,1.694c-27.842-32.855-29.682-99.2-31.358-159.684-.461-16.669-.912-32.892-1.9-47.9" transform="translate(136.298 88.517)" fill="#4a89c8" fill-rule="evenodd"/>
          <path id="Path_904159" data-name="Path 904159" d="M426.758,390.827a1.313,1.313,0,0,1,2.627,0c0,36.964-2.22,76.09-7.632,107.28-4.523,26.056-11.306,46.645-20.933,55.973a1.309,1.309,0,1,1-1.826-1.876c9.189-8.905,15.74-28.992,20.173-54.538,5.383-31.022,7.591-70,7.591-106.839" transform="translate(128.355 125.43)" fill="#4a89c8" fill-rule="evenodd"/>
          <path id="Path_904160" data-name="Path 904160" d="M431.839,422.535a1.308,1.308,0,1,1,2.586-.4,210.982,210.982,0,0,0,5.588,25.618,172.938,172.938,0,0,0,7.755,21.672,1.31,1.31,0,0,1-2.4,1.047,175.865,175.865,0,0,1-7.878-22,213.847,213.847,0,0,1-5.65-25.937" transform="translate(139.054 135.577)" fill="#4a89c8" fill-rule="evenodd"/>
          <path id="Path_904161" data-name="Path 904161" d="M326.7,478.643a8.477,8.477,0,1,0-8.478-8.478,8.494,8.494,0,0,0,8.478,8.478" transform="translate(102.473 148.671)" fill="#8bc2ec" fill-rule="evenodd"/>
          <path id="Path_904162" data-name="Path 904162" d="M346.954,483.7a5.712,5.712,0,1,0-5.712-5.711,5.72,5.72,0,0,0,5.712,5.711" transform="translate(109.885 152.082)" fill="#8bc2ec" fill-rule="evenodd"/>
          <path id="Path_904163" data-name="Path 904163" d="M308.333,479.131a3.875,3.875,0,1,0-3.876-3.876,3.883,3.883,0,0,0,3.876,3.876" transform="translate(98.04 151.792)" fill="#8bc2ec" fill-rule="evenodd"/>
          <path id="Path_904164" data-name="Path 904164" d="M171.447,493.329A60.01,60.01,0,0,1,155.8,482.616c-21.61-20.331-35.94,1.229-18.775,12.434,13.709,8.949,56.9,8.84,34.417-1.72" transform="translate(41.677 152.705)" fill="#8bc2ec" fill-rule="evenodd"/>
          <path id="Path_904165" data-name="Path 904165" d="M449.446,362.491a59.972,59.972,0,0,0,12.065,14.625c22.174,19.714,1.975,35.907-10.712,19.809-10.134-12.858-13.875-55.887-1.352-34.435" transform="translate(142.176 114.829)" fill="#8bc2ec" fill-rule="evenodd"/>
          <path id="Path_904166" data-name="Path 904166" d="M406.3,287.926a59.989,59.989,0,0,1-12.063,14.625c-22.176,19.713-1.976,35.906,10.712,19.809,10.135-12.859,13.873-55.888,1.351-34.435" transform="translate(123.762 90.818)" fill="#8bc2ec" fill-rule="evenodd"/>
          <path id="Path_904167" data-name="Path 904167" d="M391.736,344.09a8.478,8.478,0,1,0-8.478-8.478,8.494,8.494,0,0,0,8.478,8.478" transform="translate(123.415 105.342)" fill="#8bc2ec" fill-rule="evenodd"/>
          <path id="Path_904168" data-name="Path 904168" d="M453.475,355.877a5.711,5.711,0,1,0-5.711-5.711,5.721,5.721,0,0,0,5.711,5.711" transform="translate(144.187 110.92)" fill="#8bc2ec" fill-rule="evenodd"/>
          <path id="Path_904169" data-name="Path 904169" d="M470.162,147.609v4.944a3.949,3.949,0,0,1-3.938,3.936h-27a6.408,6.408,0,0,1,0-12.816h27a3.948,3.948,0,0,1,3.938,3.936" transform="translate(139.373 46.265)" fill="#999a9a" fill-rule="evenodd"/>
          <path id="Path_904170" data-name="Path 904170" d="M461.065,147.609v4.944A3.946,3.946,0,0,0,465,156.489h27a6.408,6.408,0,1,0,0-12.816H465a3.945,3.945,0,0,0-3.933,3.936" transform="translate(148.47 46.265)" fill="#999a9a" fill-rule="evenodd"/>
          <path id="Path_904171" data-name="Path 904171" d="M464.9,137.026h0a10.65,10.65,0,0,1,10.617,10.618v27.093H454.277V147.644A10.65,10.65,0,0,1,464.9,137.026" transform="translate(146.284 44.125)" fill="#afb0b0" fill-rule="evenodd"/>
          <path id="Path_904172" data-name="Path 904172" d="M455.935,157.52h19.44a4.022,4.022,0,0,1,4.01,4.01v12.833h-27.46V161.53a4.022,4.022,0,0,1,4.01-4.01" transform="translate(145.527 50.724)" fill="#0f3d61" fill-rule="evenodd"/>
          <path id="Path_904173" data-name="Path 904173" d="M432.912,182.381H553V214.6H445.991c-8.44,0-9.791,6.9-9.791,15.345v18.34H405.812V214.242c0-14.906,12.194-31.861,27.1-31.861" transform="translate(130.678 58.73)" fill="#999a9a" fill-rule="evenodd"/>
          <path id="Path_904174" data-name="Path 904174" d="M494.545,182.381h10.1a5.476,5.476,0,0,1,.03.553v30.113a5.042,5.042,0,0,1-.246,1.555h-9.671a5.043,5.043,0,0,1-.245-1.555V182.934a5.459,5.459,0,0,1,.029-.553" transform="translate(159.242 58.73)" fill="#0f3d61" fill-rule="evenodd"/>
          <path id="Path_904175" data-name="Path 904175" d="M466.038,182.381h29.322V214.6H461.8c.8-5.933,2.525-20.527,4.234-32.22" transform="translate(148.708 58.73)" fill="#0f3d61" fill-rule="evenodd"/>
          <path id="Path_904176" data-name="Path 904176" d="M553,201.644V208.4H445.99c-8.44,0-9.79,6.9-9.79,15.343v18.34H405.813v-11.9h24.379V216.1c0-11.806,8.466-14.454,15.936-14.454Z" transform="translate(130.678 64.932)" fill="#0f3d61" fill-rule="evenodd"/>
          <path id="Path_904177" data-name="Path 904177" d="M453.138,174.35h30.511a14.88,14.88,0,0,1,14.837,14.836v27.969a14.88,14.88,0,0,1-14.837,14.836H453.138A14.879,14.879,0,0,1,438.3,217.154V189.186a14.879,14.879,0,0,1,14.836-14.836" transform="translate(141.14 56.143)" fill="#afb0b0" fill-rule="evenodd"/>
          <path id="Path_904178" data-name="Path 904178" d="M450.424,164.028H484.28a8.909,8.909,0,0,1,8.884,8.885V181.8H441.539v-8.884a8.911,8.911,0,0,1,8.885-8.885" transform="translate(142.182 52.82)" fill="#0f3d61" fill-rule="evenodd"/>
          <path id="Path_904179" data-name="Path 904179" d="M450.424,164.028H484.28a8.848,8.848,0,0,1,6.186,2.524,8.689,8.689,0,0,1,.1,1.359v8.884H441.539v-3.881a8.911,8.911,0,0,1,8.885-8.885" transform="translate(142.182 52.82)" fill="#858584" fill-rule="evenodd"/>
          <path id="Path_904180" data-name="Path 904180" d="M407.986,225.72H438.16a7.029,7.029,0,1,1,0,14.058H407.986a7.029,7.029,0,0,1,0-14.058" transform="translate(129.115 72.685)" fill="#c4c4c4" fill-rule="evenodd"/>
          <path id="Path_904181" data-name="Path 904181" d="M501.593,184.038V214.15a5.08,5.08,0,1,1-10.161,0V184.038a5.08,5.08,0,1,1,10.161,0" transform="translate(158.249 57.627)" fill="#afb0b0" fill-rule="evenodd"/>
          <path id="Path_904182" data-name="Path 904182" d="M507.609,220.682V182.356A10.087,10.087,0,0,1,517.666,172.3h10.059v58.44H517.666a10.087,10.087,0,0,1-10.057-10.057" transform="translate(163.458 55.483)" fill="#858584" fill-rule="evenodd"/>
          <path id="Path_904183" data-name="Path 904183" d="M406.314,227.154h29.343a2.214,2.214,0,1,1,0,4.392H406.314a2.214,2.214,0,1,1,0-4.392" transform="translate(130.035 73.147)" fill="#d8d8d8" fill-rule="evenodd"/>
          <path id="Path_904184" data-name="Path 904184" d="M438.831,145.02h15.076a2.214,2.214,0,1,1,0,4.392H438.831a2.214,2.214,0,1,1,0-4.392" transform="translate(140.506 46.699)" fill="#d8d8d8" fill-rule="evenodd"/>
          <path id="Path_904185" data-name="Path 904185" d="M474.951,145.02h13.293a2.2,2.2,0,1,1,0,4.392H474.951a2.2,2.2,0,1,1,0-4.392" transform="translate(152.233 46.699)" fill="#d8d8d8" fill-rule="evenodd"/>
          <path id="Path_904186" data-name="Path 904186" d="M463.944,138.814c.266.053.524.114.787.185a10.721,10.721,0,0,1,4.24,2.152,8.422,8.422,0,0,1,2.6,3.843c.237.88.787,4.741-.268,5.132-.307-.112-1.444-3.313-1.935-4.135a6.909,6.909,0,0,0-2.266-2.327,10.509,10.509,0,0,0-3.219-1.282c-.081-.037-.508-.112-.623-.136-2.565-.468-3.718,0-3.58-1.963-.155-2.376,1.961-1.828,4.269-1.469" transform="translate(148.019 44.596)" fill="#ebebeb" fill-rule="evenodd"/>
          <path id="Path_904187" data-name="Path 904187" d="M412.53,225.61c-.477,4.159-4,4.248-4.311,1.3-.834-8.8-1.112-18.774,3.05-27.616,3.441-7.309,10.272-14.255,19.206-15.47,3.47-.472,5.552.234,5.735.6.3.607-2.251,1.194-7.85,3.843-14.952,7.075-14.6,24.178-15.83,37.338" transform="translate(131.29 59.144)" fill="#ebebeb" fill-rule="evenodd"/>
          <path id="Path_904188" data-name="Path 904188" d="M492.854,201.768v7.041a10.662,10.662,0,0,1-10.632,10.632h-30.2a10.662,10.662,0,0,1-10.63-10.632v-7.041a10.661,10.661,0,0,0,10.63,10.63h30.2a10.661,10.661,0,0,0,10.632-10.63" transform="translate(142.134 64.972)" fill="#0f3d61" fill-rule="evenodd"/>
          <path id="Path_904189" data-name="Path 904189" d="M475.762,152.968a3.947,3.947,0,0,1-3.936-3.936v-4.944a3.566,3.566,0,0,1,.024-.414h-1.629a10.589,10.589,0,0,1,.159,1.831v10.983h18.676a6.426,6.426,0,0,0,5.716-3.521Z" transform="translate(151.419 46.265)" fill="#0f3d61" fill-rule="evenodd"/>
          <path id="Path_904190" data-name="Path 904190" d="M461.08,156.488V145.505a10.458,10.458,0,0,1,.16-1.831h-1.378v4.8a3.948,3.948,0,0,1-3.934,3.936H433.147a6.433,6.433,0,0,0,5.966,4.076Z" transform="translate(139.48 46.265)" fill="#0f3d61" fill-rule="evenodd"/>
          <path id="Path_904191" data-name="Path 904191" d="M445,182.375a1.751,1.751,0,0,1,0-3.5h44.471a1.751,1.751,0,0,1,0,3.5Z" transform="translate(142.735 57.6)" fill="#fff" fill-rule="evenodd"/>
          <path id="Path_904192" data-name="Path 904192" d="M383.082,236.928c-25.871-14.6-42.524,38.242,8.5,49.244,12.986,2.8,29.238-4.857,24.921-18.651-1.794-5.739-25.845-26.321-33.417-30.593" transform="translate(115.416 75.48)" fill="#fff" fill-rule="evenodd"/>
        </g>
      </g>
      <g id="Group_1113535" data-name="Group 1113535" transform="translate(446.568 345.537)">
        <g id="Group_1113534" data-name="Group 1113534" clip-path="url(#clip-path-5)">
          <path id="Path_904193" data-name="Path 904193" d="M485.959,509.033c-3.511-11.064-21.348-85.193-29.021-68.967-10.462,22.129,11.783,55.459,29.021,68.967" transform="translate(-300.293 -204.573)" fill="#6e9745" fill-rule="evenodd"/>
          <path id="Path_904194" data-name="Path 904194" d="M497.54,512.586S470.076,486.046,448.3,466.54c-24.566-22-4.813,36.794,49.244,46.046" transform="translate(-305.57 -196.879)" fill="#6e9745" fill-rule="evenodd"/>
          <path id="Path_904195" data-name="Path 904195" d="M484.118,518.072c-7.331-54.163-4.594-73.831-.554-73.459,6.093.559,17.02,44.449.554,73.459" transform="translate(-292.149 -202.366)" fill="#6e9745" fill-rule="evenodd"/>
          <path id="Path_904196" data-name="Path 904196" d="M510.616,524.841s-29.851-15.316-54.352-26.7c-33.435-15.53,4.495,37.736,54.352,26.7" transform="translate(-303.718 -186.048)" fill="#6e9745" fill-rule="evenodd"/>
          <path id="Path_904197" data-name="Path 904197" d="M494.107,534.645s1.555-30.252,3.8-56.348c3.844-44.6,30.507,19.016-3.8,56.348" transform="translate(-287.458 -196.435)" fill="#6e9745" fill-rule="evenodd"/>
          <path id="Path_904198" data-name="Path 904198" d="M523.069,533.853s-33.038-5.834-59.807-9.487c-36.527-4.983,15.421,34.735,59.807,9.487" transform="translate(-301.364 -176.823)" fill="#6e9745" fill-rule="evenodd"/>
          <path id="Path_904199" data-name="Path 904199" d="M505.994,547.656s7.944-29.23,15.684-54.253c13.229-42.763,25.774,25.061-15.684,54.253" transform="translate(-283.63 -191.088)" fill="#6e9745" fill-rule="evenodd"/>
          <path id="Path_904200" data-name="Path 904200" d="M460.42,453.452a.875.875,0,0,1,1.656-.567c.108.32,37.606,111.237,98.087,129.031a.874.874,0,0,1-.493,1.676c-61.36-18.055-99.139-129.818-99.25-130.141" transform="translate(-298.321 -199.891)" fill="#0f3d61" fill-rule="evenodd"/>
          <path id="Path_904201" data-name="Path 904201" d="M494.659,508.281a.871.871,0,0,1-.842,1.524A200.859,200.859,0,0,1,467.5,492.582a140.668,140.668,0,0,1-20.325-19.194.872.872,0,1,1,1.326-1.134,139.01,139.01,0,0,0,20.073,18.954,199.1,199.1,0,0,0,26.083,17.074" transform="translate(-302.638 -193.562)" fill="#0f3d61" fill-rule="evenodd"/>
          <path id="Path_904202" data-name="Path 904202" d="M484.119,514.555a.872.872,0,0,1-1.717-.307,199.151,199.151,0,0,0,3.306-31,139.157,139.157,0,0,0-1.962-27.544.875.875,0,0,1,1.724-.3,140.8,140.8,0,0,1,1.983,27.88,200.912,200.912,0,0,1-3.334,31.272" transform="translate(-291.231 -199.123)" fill="#0f3d61" fill-rule="evenodd"/>
          <path id="Path_904203" data-name="Path 904203" d="M506.914,521.56a.883.883,0,0,1-.3,1.74,161.067,161.067,0,0,1-28.265-7.457,117.56,117.56,0,0,1-23.6-11.724.883.883,0,0,1,.965-1.478,115.791,115.791,0,0,0,23.242,11.545,159.248,159.248,0,0,0,27.955,7.374" transform="translate(-300.259 -183.725)" fill="#0f3d61" fill-rule="evenodd"/>
          <path id="Path_904204" data-name="Path 904204" d="M495.242,530.615a.883.883,0,0,1-1.658-.607,159.257,159.257,0,0,0,7.643-27.884,115.742,115.742,0,0,0,1.67-25.9.881.881,0,0,1,1.76-.09,117.524,117.524,0,0,1-1.69,26.291,161.222,161.222,0,0,1-7.724,28.193" transform="translate(-287.643 -192.484)" fill="#0f3d61" fill-rule="evenodd"/>
          <path id="Path_904205" data-name="Path 904205" d="M507.1,543.913a.88.88,0,0,1-1.485-.947A159.286,159.286,0,0,0,519,517.34a115.846,115.846,0,0,0,7.132-24.95.881.881,0,0,1,1.74.276A117.607,117.607,0,0,1,520.64,518,161.117,161.117,0,0,1,507.1,543.913" transform="translate(-283.796 -187.218)" fill="#0f3d61" fill-rule="evenodd"/>
          <path id="Path_904206" data-name="Path 904206" d="M513.652,354.648c-3.51-11.065-21.329-85.2-29.005-68.972-10.468,22.127,11.769,55.461,29.005,68.972" transform="translate(-291.371 -254.289)" fill="#fff" fill-rule="evenodd"/>
          <path id="Path_904207" data-name="Path 904207" d="M525.23,358.2S497.772,331.658,476,312.147c-24.562-22.006-4.823,36.793,49.233,46.056" transform="translate(-296.65 -246.596)" fill="#fff" fill-rule="evenodd"/>
          <path id="Path_904208" data-name="Path 904208" d="M511.809,363.687c-7.319-54.164-4.578-73.832-.538-73.459,6.093.559,17.012,44.453.538,73.459" transform="translate(-283.228 -252.08)" fill="#fff" fill-rule="evenodd"/>
          <path id="Path_904209" data-name="Path 904209" d="M538.3,370.461s-29.846-15.321-54.345-26.709c-33.43-15.538,4.487,37.737,54.345,26.709" transform="translate(-294.8 -235.765)" fill="#fff" fill-rule="evenodd"/>
          <path id="Path_904210" data-name="Path 904210" d="M521.8,380.262s1.561-30.252,3.817-56.347c3.855-44.6,30.5,19.022-3.817,56.347" transform="translate(-278.541 -246.148)" fill="#fff" fill-rule="evenodd"/>
          <path id="Path_904211" data-name="Path 904211" d="M550.755,379.477s-33.037-5.842-59.8-9.5c-36.526-4.989,15.413,34.737,59.8,9.5" transform="translate(-292.448 -226.54)" fill="#fff" fill-rule="evenodd"/>
          <path id="Path_904212" data-name="Path 904212" d="M572.179,393.784s-33.549-.081-60.547.912c-36.841,1.355,21.148,31.574,60.547-.912" transform="translate(-285.6 -218.732)" fill="#fff" fill-rule="evenodd"/>
          <path id="Path_904213" data-name="Path 904213" d="M488.125,299.062a.874.874,0,0,1,1.653-.567c.108.32,37.582,111.244,98.064,129.053a.874.874,0,0,1-.5,1.675c-61.351-18.065-99.106-129.839-99.217-130.16" transform="translate(-289.399 -249.606)" fill="#fff" fill-rule="evenodd"/>
          <path id="Path_904214" data-name="Path 904214" d="M522.353,353.9a.872.872,0,1,1-.846,1.524,202.928,202.928,0,0,1-24.761-16.032A142.3,142.3,0,0,1,474.874,319a.874.874,0,0,1,1.329-1.137A140.691,140.691,0,0,0,497.8,338a201.385,201.385,0,0,0,24.55,15.9" transform="translate(-293.718 -243.279)" fill="#fff" fill-rule="evenodd"/>
          <path id="Path_904215" data-name="Path 904215" d="M511.815,360.175a.875.875,0,0,1-1.72-.317,198.941,198.941,0,0,0,3.313-31,139.152,139.152,0,0,0-1.953-27.539.874.874,0,1,1,1.721-.305,140.648,140.648,0,0,1,1.978,27.888,200.791,200.791,0,0,1-3.339,31.272" transform="translate(-282.314 -248.838)" fill="#fff" fill-rule="evenodd"/>
          <path id="Path_904216" data-name="Path 904216" d="M534.606,367.186a.876.876,0,0,1-.3,1.725,161.037,161.037,0,0,1-28.259-7.461,117.5,117.5,0,0,1-23.594-11.728.877.877,0,1,1,.958-1.47,115.91,115.91,0,0,0,23.24,11.553,159.345,159.345,0,0,0,27.959,7.381" transform="translate(-291.34 -233.44)" fill="#fff" fill-rule="evenodd"/>
          <path id="Path_904217" data-name="Path 904217" d="M522.925,376.23a.876.876,0,0,1-1.645-.605,159.223,159.223,0,0,0,7.647-27.884,115.857,115.857,0,0,0,1.674-25.9.878.878,0,0,1,1.753-.087,117.64,117.64,0,0,1-1.7,26.29,161.283,161.283,0,0,1-7.731,28.191" transform="translate(-278.725 -242.196)" fill="#fff" fill-rule="evenodd"/>
          <path id="Path_904218" data-name="Path 904218" d="M546.344,377.158a.878.878,0,1,1,.224,1.742,160.982,160.982,0,0,1-29.211,1.2,117.726,117.726,0,0,1-26-4.249.879.879,0,0,1,.489-1.688,115.687,115.687,0,0,0,25.614,4.188,159.318,159.318,0,0,0,28.886-1.192" transform="translate(-288.548 -225.061)" fill="#fff" fill-rule="evenodd"/>
          <path id="Path_904219" data-name="Path 904219" d="M567.519,393.236a.878.878,0,0,1,.518,1.678,161.071,161.071,0,0,1-28.57,6.2,117.5,117.5,0,0,1-26.344.278.878.878,0,0,1,.188-1.746,115.855,115.855,0,0,0,25.956-.274,159.284,159.284,0,0,0,28.252-6.133" transform="translate(-281.586 -218.921)" fill="#fff" fill-rule="evenodd"/>
          <path id="Path_904220" data-name="Path 904220" d="M396.172,494.67c2.967-11.223,27.647-83.364,12.472-73.778-20.7,13.073-19.784,53.134-12.472,73.778" transform="translate(-320.518 -210.285)" fill="#0f3d61" fill-rule="evenodd"/>
          <path id="Path_904221" data-name="Path 904221" d="M401.074,504.3s-8.958-37.127-16.887-65.268c-8.945-31.743-23.788,28.482,16.887,65.268" transform="translate(-326.129 -207.039)" fill="#0f3d61" fill-rule="evenodd"/>
          <path id="Path_904222" data-name="Path 904222" d="M394.483,501.463c22.844-49.652,35.7-64.788,38.911-62.311,4.844,3.74-9.46,46.647-38.911,62.311" transform="translate(-319.538 -204.205)" fill="#0f3d61" fill-rule="evenodd"/>
          <path id="Path_904223" data-name="Path 904223" d="M405.127,521.613s-16.989-28.931-31.572-51.672c-19.9-31.034-16.434,34.265,31.572,51.672" transform="translate(-329.956 -196.864)" fill="#0f3d61" fill-rule="evenodd"/>
          <path id="Path_904224" data-name="Path 904224" d="M394.732,520.117s17.529-24.7,33.415-45.528C455.3,439,443.71,507,394.732,520.117" transform="translate(-319.458 -195.993)" fill="#0f3d61" fill-rule="evenodd"/>
          <path id="Path_904225" data-name="Path 904225" d="M410.759,535.759s-24.763-22.634-45.4-40.068c-28.163-23.787-5.6,37.588,45.4,40.068" transform="translate(-332.863 -187.677)" fill="#0f3d61" fill-rule="evenodd"/>
          <path id="Path_904226" data-name="Path 904226" d="M397.323,535.583s22.375-20.417,42.323-37.391c34.091-29.008,8.323,34.971-42.323,37.391" transform="translate(-318.623 -187.536)" fill="#0f3d61" fill-rule="evenodd"/>
          <path id="Path_904227" data-name="Path 904227" d="M421.441,558.886s-28.282-18.047-51.609-31.677c-31.83-18.6.937,37.991,51.609,31.677" transform="translate(-331.526 -176.981)" fill="#0f3d61" fill-rule="evenodd"/>
          <path id="Path_904228" data-name="Path 904228" d="M406.4,563.226s18.537-23.956,35.275-44.1c28.6-34.431,14.2,33.023-35.275,44.1" transform="translate(-315.701 -181.494)" fill="#0f3d61" fill-rule="evenodd"/>
          <path id="Path_904229" data-name="Path 904229" d="M402.852,434.593a.871.871,0,0,1,1.695.4c-.077.328-27.881,114.063,13.639,161.511a.872.872,0,0,1-1.314,1.147c-42.118-48.129-14.1-162.732-14.02-163.063" transform="translate(-319.807 -205.806)" fill="#0f3d61" fill-rule="evenodd"/>
          <path id="Path_904230" data-name="Path 904230" d="M400.128,499.232a.872.872,0,1,1-1.532.834,200.9,200.9,0,0,1-12.982-28.648,140.52,140.52,0,0,1-6.868-27.1.874.874,0,0,1,1.731-.247,138.858,138.858,0,0,0,6.785,26.763,199.076,199.076,0,0,0,12.867,28.4" transform="translate(-324.608 -202.779)" fill="#0f3d61" fill-rule="evenodd"/>
          <path id="Path_904231" data-name="Path 904231" d="M395.547,498.7a.871.871,0,0,1-1.28-1.183,198.974,198.974,0,0,0,19.409-24.4,138.989,138.989,0,0,0,13.108-24.3.872.872,0,0,1,1.614.662,140.783,140.783,0,0,1-13.272,24.605A200.872,200.872,0,0,1,395.547,498.7" transform="translate(-319.682 -201.183)" fill="#0f3d61" fill-rule="evenodd"/>
          <path id="Path_904232" data-name="Path 904232" d="M403.357,517.012a.882.882,0,1,1-1.186,1.3,161.134,161.134,0,0,1-19.863-21.446,117.56,117.56,0,0,1-13.637-22.55.882.882,0,1,1,1.608-.726,115.7,115.7,0,0,0,13.43,22.2,159.262,159.262,0,0,0,19.648,21.212" transform="translate(-327.875 -193.199)" fill="#0f3d61" fill-rule="evenodd"/>
          <path id="Path_904233" data-name="Path 904233" d="M395.714,517.175a.882.882,0,0,1-1.071-1.4,159.245,159.245,0,0,0,21.4-19.444,115.784,115.784,0,0,0,15.29-20.967.882.882,0,1,1,1.539.862,117.481,117.481,0,0,1-15.524,21.292,161.168,161.168,0,0,1-21.633,19.658" transform="translate(-319.598 -192.608)" fill="#0f3d61" fill-rule="evenodd"/>
          <path id="Path_904234" data-name="Path 904234" d="M407.92,531.724a.88.88,0,1,1-.746,1.594,161.2,161.2,0,0,1-25.3-14.635,117.619,117.619,0,0,1-19.678-17.527.88.88,0,1,1,1.318-1.166,115.9,115.9,0,0,0,19.381,17.258,159.439,159.439,0,0,0,25.028,14.476" transform="translate(-330.007 -184.628)" fill="#0f3d61" fill-rule="evenodd"/>
          <path id="Path_904235" data-name="Path 904235" d="M398.177,533.285a.88.88,0,0,1-.746-1.594,159.35,159.35,0,0,0,25.04-14.456,115.808,115.808,0,0,0,19.4-17.244.883.883,0,1,1,1.318,1.174,117.566,117.566,0,0,1-19.693,17.506,161,161,0,0,1-25.317,14.615" transform="translate(-318.752 -184.627)" fill="#0f3d61" fill-rule="evenodd"/>
          <path id="Path_904236" data-name="Path 904236" d="M407.359,560.4a.88.88,0,0,1-1.009-1.442,159.206,159.206,0,0,0,22.183-18.539A115.657,115.657,0,0,0,444.682,520.1a.881.881,0,1,1,1.5.925,117.558,117.558,0,0,1-16.39,20.627A161.242,161.242,0,0,1,407.359,560.4" transform="translate(-315.838 -178.191)" fill="#0f3d61" fill-rule="evenodd"/>
        </g>
      </g>
    </g>
  </g>
</svg>
