<svg xmlns="http://www.w3.org/2000/svg" width="67" height="67" viewBox="0 0 67 67">
  <g id="Group_1113925" data-name="Group 1113925" transform="translate(-295.384 -8220)">
    <circle id="Ellipse_11783" data-name="Ellipse 11783" cx="33.5" cy="33.5" r="33.5" transform="translate(295.384 8220)" fill="#fff"/>
    <g id="_x32_58_x2C__Book_x2C__Contacts_x2C__Phone_Book" transform="translate(289.384 8209)">
      <g id="Group_1113924" data-name="Group 1113924" transform="translate(16 21)">
        <path id="Path_904954" data-name="Path 904954" d="M142.44,48.959h4.49v-15.7A2.262,2.262,0,0,0,144.668,31H118.262A2.262,2.262,0,0,0,116,33.262V71.64a2.262,2.262,0,0,0,2.262,2.262h26.406a2.262,2.262,0,0,0,2.262-2.262v-15.7h-4.49a3.492,3.492,0,1,1,0-6.984Z" transform="translate(-106.023 -30.002)" fill="#30c9b0"/>
        <g id="Group_1113923" data-name="Group 1113923" transform="translate(0.998 5.986)">
          <path id="Path_904955" data-name="Path 904955" d="M457.5,81a1.5,1.5,0,1,1-1.5,1.5A1.5,1.5,0,0,1,457.5,81Z" transform="translate(-413.098 -81)" fill="#ff4f4f"/>
          <path id="Path_904956" data-name="Path 904956" d="M37.5,171a1.5,1.5,0,1,1-1.5,1.5A1.5,1.5,0,0,1,37.5,171Z" transform="translate(-35.002 -162.02)" fill="#ff4f4f"/>
          <path id="Path_904957" data-name="Path 904957" d="M28.494,431A2.494,2.494,0,1,1,26,433.494,2.494,2.494,0,0,1,28.494,431Z" transform="translate(-26 -396.08)" fill="#ff4f4f"/>
        </g>
        <path id="Path_904958" data-name="Path 904958" d="M353.982,211h-4.49a3.492,3.492,0,0,0,0,6.984h7.483V211Z" transform="translate(-313.075 -192.043)" fill="#27a089"/>
        <path id="Path_904959" data-name="Path 904959" d="M196,85.989V81h17.959v7.982H196Z" transform="translate(-178.041 -75.014)" fill="#fbc640"/>
        <path id="Path_904960" data-name="Path 904960" d="M467,321a1,1,0,1,1-1,1A1,1,0,0,1,467,321Z" transform="translate(-421.102 -291.068)"/>
        <path id="Path_904961" data-name="Path 904961" d="M447,431a1,1,0,1,1-1,1A1,1,0,0,1,447,431Z" transform="translate(-403.098 -390.093)"/>
        <path id="Path_904962" data-name="Path 904962" d="M377,236a1,1,0,1,1-1,1A1,1,0,0,1,377,236Z" transform="translate(-340.082 -214.549)"/>
        <path id="Path_904963" data-name="Path 904963" d="M317,391a1,1,0,1,1-1,1A1,1,0,0,1,317,391Z" transform="translate(-286.068 -354.084)"/>
        <path id="Path_904964" data-name="Path 904964" d="M37,31a1,1,0,1,1-1,1A1,1,0,0,1,37,31Z" transform="translate(-34.005 -30.002)"/>
        <path id="Path_904965" data-name="Path 904965" d="M37,271a1,1,0,1,1-1,1A1,1,0,0,1,37,271Z" transform="translate(-34.005 -246.057)"/>
        <path id="Path_904966" data-name="Path 904966" d="M135.665,65.9H109.26a3.263,3.263,0,0,1-3.26-3.26V24.26A3.263,3.263,0,0,1,109.26,21h26.406a3.263,3.263,0,0,1,3.26,3.26v15.7a1,1,0,1,1-2,0V24.26A1.266,1.266,0,0,0,135.665,23H109.26A1.266,1.266,0,0,0,108,24.26V62.638A1.266,1.266,0,0,0,109.26,63.9h26.406a1.266,1.266,0,0,0,1.264-1.264v-15.7a1,1,0,1,1,2,0v15.7a3.263,3.263,0,0,1-3.26,3.26Z" transform="translate(-97.02 -21)"/>
        <path id="Path_904967" data-name="Path 904967" d="M82.984,75.989h-4.49a2.494,2.494,0,0,1,0-4.989h1.5a1,1,0,1,1,0,2h-1.5a.5.5,0,0,0,0,1h4.49a.491.491,0,0,0,.353-.147A.5.5,0,0,0,82.984,73a1,1,0,1,1,0-2,2.494,2.494,0,0,1,0,4.989Z" transform="translate(-70.014 -66.011)"/>
        <path id="Path_904968" data-name="Path 904968" d="M82.984,135.989h-4.49a2.494,2.494,0,0,1,0-4.989h1.5a1,1,0,0,1,0,2h-1.5a.5.5,0,0,0,0,1h4.49a.491.491,0,0,0,.353-.147.5.5,0,0,0-.353-.851,1,1,0,0,1,0-2,2.494,2.494,0,0,1,0,4.989Z" transform="translate(-70.014 -120.025)"/>
        <path id="Path_904969" data-name="Path 904969" d="M82.984,195.989h-4.49a2.494,2.494,0,0,1,0-4.989h1.5a1,1,0,1,1,0,2h-1.5a.5.5,0,1,0,0,1h4.49a.5.5,0,0,0,.5-.5.5.5,0,0,0-.5-.5,1,1,0,1,1,0-2,2.494,2.494,0,0,1,0,4.989Z" transform="translate(-70.014 -174.039)"/>
        <path id="Path_904970" data-name="Path 904970" d="M82.984,255.989h-4.49a2.494,2.494,0,0,1,0-4.989h1.5a1,1,0,0,1,0,2h-1.5a.5.5,0,0,0,0,1h4.49a.49.49,0,0,0,.353-.147.5.5,0,0,0-.353-.851,1,1,0,0,1,0-2,2.494,2.494,0,0,1,0,4.989Z" transform="translate(-70.014 -228.052)"/>
        <path id="Path_904971" data-name="Path 904971" d="M82.984,315.989h-4.49a2.494,2.494,0,0,1,0-4.989h1.5a1,1,0,1,1,0,2h-1.5a.5.5,0,1,0,0,1h4.49a.49.49,0,0,0,.353-.147.5.5,0,0,0-.353-.851,1,1,0,1,1,0-2,2.494,2.494,0,0,1,0,4.989Z" transform="translate(-70.014 -282.066)"/>
        <path id="Path_904972" data-name="Path 904972" d="M82.984,375.989h-4.49a2.494,2.494,0,0,1,0-4.989h1.5a1,1,0,1,1,0,2h-1.5a.5.5,0,1,0,0,1h4.49a.49.49,0,0,0,.353-.147.5.5,0,0,0-.353-.851,1,1,0,1,1,0-2,2.494,2.494,0,0,1,0,4.989Z" transform="translate(-70.014 -336.08)"/>
        <path id="Path_904973" data-name="Path 904973" d="M19.492,427.984a3.492,3.492,0,1,1,3.492-3.492A3.5,3.5,0,0,1,19.492,427.984Zm0-4.989a1.5,1.5,0,1,0,1.5,1.5A1.5,1.5,0,0,0,19.492,423Z" transform="translate(-16 -381.091)"/>
        <path id="Path_904974" data-name="Path 904974" d="M28.494,165.989a2.494,2.494,0,1,1,2.494-2.494A2.5,2.5,0,0,1,28.494,165.989Zm0-2.993a.5.5,0,1,0,.5.5A.5.5,0,0,0,28.494,163Z" transform="translate(-25.002 -147.032)"/>
        <path id="Path_904975" data-name="Path 904975" d="M448.494,75.989a2.494,2.494,0,1,1,2.494-2.494A2.5,2.5,0,0,1,448.494,75.989Zm0-2.993a.5.5,0,1,0,.5.5A.5.5,0,0,0,448.494,73Z" transform="translate(-403.098 -66.011)"/>
        <path id="Path_904976" data-name="Path 904976" d="M347.973,209.98H340.49a4.49,4.49,0,1,1,0-8.98h7.483a1,1,0,0,1,1,1v6.984A1,1,0,0,1,347.973,209.98ZM340.49,203a2.494,2.494,0,1,0,0,4.989h6.485V203Z" transform="translate(-304.073 -183.041)"/>
        <path id="Path_904977" data-name="Path 904977" d="M204.957,80.977H187a1,1,0,0,1-1-1V72a1,1,0,0,1,1-1h17.959a1,1,0,0,1,1,1V79.98A1,1,0,0,1,204.957,80.977Zm-16.961-2h15.964V73H188Z" transform="translate(-169.039 -66.011)"/>
        <path id="Path_904978" data-name="Path 904978" d="M213.959,333H197a1,1,0,1,1,0-2h16.961a1,1,0,1,1,0,2Z" transform="translate(-178.041 -300.071)"/>
        <path id="Path_904979" data-name="Path 904979" d="M213.959,363H197a1,1,0,1,1,0-2h16.961a1,1,0,1,1,0,2Z" transform="translate(-178.041 -327.077)"/>
        <path id="Path_904980" data-name="Path 904980" d="M205.977,393H197a1,1,0,1,1,0-2h8.98a1,1,0,1,1,0,2Z" transform="translate(-178.041 -354.084)"/>
        <path id="Path_904981" data-name="Path 904981" d="M196.975,123H187a1,1,0,1,1,0-2h9.977a1,1,0,0,1,0,2Z" transform="translate(-169.039 -111.023)"/>
      </g>
    </g>
  </g>
</svg>
