<svg xmlns="http://www.w3.org/2000/svg" xmlns:xlink="http://www.w3.org/1999/xlink" width="108.914" height="108.914" viewBox="0 0 108.914 108.914">
  <defs>
    <filter id="Path_874925" x="0" y="0" width="108.914" height="108.914" filterUnits="userSpaceOnUse">
      <feOffset dy="3" input="SourceAlpha"/>
      <feGaussianBlur stdDeviation="3" result="blur"/>
      <feFlood flood-opacity="0.161"/>
      <feComposite operator="in" in2="blur"/>
      <feComposite in="SourceGraphic"/>
    </filter>
  </defs>
  <g id="Group_1113666" data-name="Group 1113666" transform="translate(-1303.001 1235)">
    <g id="Group_1109835" data-name="Group 1109835" transform="translate(503.5 -3181.211)">
      <g id="Group_1107913" data-name="Group 1107913" transform="translate(808.5 1952.211)">
        <g transform="matrix(1, 0, 0, 1, -9, -6)" filter="url(#Path_874925)">
          <g id="Path_874925-2" data-name="Path 874925" transform="translate(9 6)" fill="#65a532" opacity="0.859">
            <path d="M 45.45676803588867 89.41407012939453 C 39.52198028564453 89.41407012939453 33.76551818847656 88.25206756591797 28.34726715087891 85.96034240722656 C 23.11311721801758 83.74648284912109 18.41204261779785 80.57682800292969 14.37464332580566 76.5394287109375 C 10.33724308013916 72.50202941894531 7.167593002319336 67.80095672607422 4.953730583190918 62.56679534912109 C 2.662005424499512 57.14855575561523 1.500005483627319 51.39208221435547 1.500005483627319 45.45729446411133 C 1.500005483627319 39.52198028564453 2.662005424499512 33.76551818847656 4.953730583190918 28.34726905822754 C 7.167593002319336 23.11310577392578 10.33724308013916 18.41203117370605 14.37464332580566 14.37464332580566 C 18.41204261779785 10.33724403381348 23.11311721801758 7.167593955993652 28.34726715087891 4.953731060028076 C 33.76551818847656 2.662006139755249 39.52198028564453 1.500006198883057 45.45676803588867 1.500006198883057 C 51.39155578613281 1.500006198883057 57.14802932739258 2.662006139755249 62.56626892089844 4.953731060028076 C 67.80043029785156 7.167593955993652 72.50150299072266 10.33724403381348 76.53890228271484 14.37464332580566 C 80.57630920410156 18.41203117370605 83.74595642089844 23.11310577392578 85.95981597900391 28.34726905822754 C 88.25154113769531 33.76551818847656 89.41354370117188 39.52198028564453 89.41354370117188 45.45676803588867 C 89.41354370117188 51.39208221435547 88.25154113769531 57.14855575561523 85.95981597900391 62.56679534912109 C 83.74595642089844 67.80095672607422 80.57630920410156 72.50202941894531 76.53890228271484 76.5394287109375 C 72.50150299072266 80.57682800292969 67.80043029785156 83.74648284912109 62.56626892089844 85.96034240722656 C 57.14802932739258 88.25206756591797 51.39155578613281 89.41407012939453 45.45676803588867 89.41407012939453 Z" stroke="none"/>
            <path d="M 45.45676803588867 3 C 39.72381210327148 3 34.1639404296875 4.12213134765625 28.93159484863281 6.335227966308594 C 23.87622833251953 8.473472595214844 19.33542633056641 11.53517150878906 15.43529510498047 15.435302734375 C 11.53517150878906 19.33543395996094 8.473464965820312 23.87622833251953 6.335227966308594 28.93160247802734 C 4.122123718261719 34.16394424438477 3 39.72381591796875 3 45.4572868347168 C 3 51.19024658203125 4.122123718261719 56.75011825561523 6.335227966308594 61.98246002197266 C 8.473464965820312 67.03782653808594 11.53517150878906 71.57862854003906 15.43529510498047 75.478759765625 C 19.33542633056641 79.37889099121094 23.87622833251953 82.44058990478516 28.93159484863281 84.57883453369141 C 34.1639404296875 86.79193115234375 39.72381210327148 87.9140625 45.45676803588867 87.9140625 C 51.18972396850586 87.9140625 56.74959564208984 86.79193115234375 61.98194122314453 84.57883453369141 C 67.03730773925781 82.44058990478516 71.57810974121094 79.37889099121094 75.47824096679688 75.478759765625 C 79.37837219238281 71.57862854003906 82.44007110595703 67.03782653808594 84.57830810546875 61.98246002197266 C 86.79141235351562 56.75011825561523 87.91353607177734 51.19024658203125 87.91353607177734 45.4567756652832 C 87.91353607177734 39.72381591796875 86.79141235351562 34.16394424438477 84.57830810546875 28.93160247802734 C 82.44007110595703 23.87622833251953 79.37837219238281 19.33543395996094 75.47824096679688 15.435302734375 C 71.57810974121094 11.53517150878906 67.03730773925781 8.473472595214844 61.98194122314453 6.335227966308594 C 56.74959564208984 4.12213134765625 51.18972396850586 3 45.45676803588867 3 M 45.45676803588867 0 C 70.56185150146484 0 90.91353607177734 20.35169219970703 90.91353607177734 45.4567756652832 L 90.91353607177734 45.4572868347168 C 90.91353607177734 70.5623779296875 70.56185150146484 90.9140625 45.45676803588867 90.9140625 C 20.3516845703125 90.9140625 0 70.5623779296875 0 45.4572868347168 L 0 45.4567756652832 C 0 20.35169219970703 20.3516845703125 0 45.45676803588867 0 Z" stroke="none" fill="#fff"/>
          </g>
        </g>
        <g id="Path_874923" data-name="Path 874923" transform="translate(0 0)" fill="none">
          <path d="M45.457,0A45.457,45.457,0,0,1,90.914,45.457h0A45.457,45.457,0,0,1,0,45.457H0A45.457,45.457,0,0,1,45.457,0Z" stroke="none"/>
          <path d="M 45.45676803588867 3 C 39.72381210327148 3 34.1639404296875 4.12213134765625 28.93159484863281 6.335227966308594 C 23.87622833251953 8.473472595214844 19.33542633056641 11.53517150878906 15.43529510498047 15.435302734375 C 11.53517150878906 19.33543395996094 8.473464965820312 23.87622833251953 6.335227966308594 28.93160247802734 C 4.122123718261719 34.16394424438477 3 39.72381591796875 3 45.4572868347168 C 3 51.19024658203125 4.122123718261719 56.75011825561523 6.335227966308594 61.98246002197266 C 8.473464965820312 67.03782653808594 11.53517150878906 71.57862854003906 15.43529510498047 75.478759765625 C 19.33542633056641 79.37889099121094 23.87622833251953 82.44058990478516 28.93159484863281 84.57883453369141 C 34.1639404296875 86.79193115234375 39.72381210327148 87.9140625 45.45676803588867 87.9140625 C 51.18972396850586 87.9140625 56.74959564208984 86.79193115234375 61.98194122314453 84.57883453369141 C 67.03730773925781 82.44058990478516 71.57810974121094 79.37889099121094 75.47824096679688 75.478759765625 C 79.37837219238281 71.57862854003906 82.44007110595703 67.03782653808594 84.57830810546875 61.98246002197266 C 86.79141235351562 56.75011825561523 87.91353607177734 51.19024658203125 87.91353607177734 45.4567756652832 C 87.91353607177734 39.72381591796875 86.79141235351562 34.16394424438477 84.57830810546875 28.93160247802734 C 82.44007110595703 23.87622833251953 79.37837219238281 19.33543395996094 75.47824096679688 15.435302734375 C 71.57810974121094 11.53517150878906 67.03730773925781 8.473472595214844 61.98194122314453 6.335227966308594 C 56.74959564208984 4.12213134765625 51.18972396850586 3 45.45676803588867 3 M 45.45676803588867 0 C 70.56185150146484 0 90.91353607177734 20.35169219970703 90.91353607177734 45.4567756652832 L 90.91353607177734 45.4572868347168 C 90.91353607177734 70.5623779296875 70.56185150146484 90.9140625 45.45676803588867 90.9140625 C 20.3516845703125 90.9140625 0 70.5623779296875 0 45.4572868347168 L 0 45.4567756652832 C 0 20.35169219970703 20.3516845703125 0 45.45676803588867 0 Z" stroke="none" fill="#fff"/>
        </g>
      </g>
    </g>
    <g id="Group_1113665" data-name="Group 1113665" transform="translate(1306 -1212)">
      <path id="Path_904469" data-name="Path 904469" d="M385.6,393.779h-7.906L376,380h11.294Z" transform="translate(-310.471 -337.083)" fill="#fff"/>
      <path id="Path_904470" data-name="Path 904470" d="M215.035,54.518h-6.776A2.259,2.259,0,0,1,206,52.259V50h6.776a2.259,2.259,0,0,1,2.259,2.259Z" transform="translate(-159.671 -44.353)" fill="#cbf4fb"/>
      <path id="Path_904471" data-name="Path 904471" d="M255.035,94.518h-6.776A2.259,2.259,0,0,1,246,92.259V90h6.776a2.259,2.259,0,0,1,2.259,2.259Z" transform="translate(-195.153 -79.835)" fill="#fff"/>
      <path id="Path_904472" data-name="Path 904472" d="M295.035,134.518h-6.776A2.259,2.259,0,0,1,286,132.259V130h6.776a2.259,2.259,0,0,1,2.259,2.259Z" transform="translate(-230.635 -115.318)" fill="#cbf4fb"/>
      <path id="Path_904473" data-name="Path 904473" d="M335.035,174.518h-6.776A2.259,2.259,0,0,1,326,172.259V170h6.776a2.259,2.259,0,0,1,2.259,2.259Z" transform="translate(-266.118 -150.8)" fill="#fff"/>
      <path id="Path_904474" data-name="Path 904474" d="M366,210v2.259a2.259,2.259,0,0,0,2.259,2.259h2.259v4.518h4.518v-6.776A2.259,2.259,0,0,0,372.776,210Z" transform="translate(-301.6 -186.282)" fill="#cbf4fb"/>
      <path id="Path_904475" data-name="Path 904475" d="M46.165,14.518V36.2L36,41.059V65.567H60.847V41.059L50.682,36.2V14.518h9.035V12.259A2.259,2.259,0,0,0,57.459,10H50.682A4.518,4.518,0,0,0,46.165,14.518Z" transform="translate(-8.871 -8.871)" fill="#fff"/>
      <g id="Group_1113663" data-name="Group 1113663" transform="translate(32.776 18.296)">
        <path id="Path_904476" data-name="Path 904476" d="M391.606,425.32l-1.065,8.66h-7.906l-1.065-8.66a6.871,6.871,0,0,1,1.856.7,6.327,6.327,0,0,0,6.325,0A6.871,6.871,0,0,1,391.606,425.32Z" transform="translate(-348.188 -395.58)" fill="#cbf4fb"/>
        <path id="Path_904477" data-name="Path 904477" d="M86,162h4.518v4.518H86Z" transform="translate(-86 -162)" fill="#cbf4fb"/>
        <path id="Path_904478" data-name="Path 904478" d="M166,162h4.518v4.518H166Z" transform="translate(-156.965 -162)" fill="#cbf4fb"/>
        <path id="Path_904479" data-name="Path 904479" d="M256,422h4.518v4.518H256Z" transform="translate(-236.8 -392.635)" fill="#cbf4fb"/>
      </g>
      <path id="Path_904480" data-name="Path 904480" d="M60.847,381.69v12.089H36V381.69a6.9,6.9,0,0,0,2.936-.843,6.326,6.326,0,0,1,6.325,0,6.327,6.327,0,0,0,6.325,0,6.326,6.326,0,0,1,6.325,0A6.9,6.9,0,0,0,60.847,381.69Z" transform="translate(-8.871 -337.083)" fill="#98eaf9"/>
      <path id="Path_904481" data-name="Path 904481" d="M410.518,333.388a2.259,2.259,0,0,1-4.518,0c0-1.248,2.259-3.388,2.259-3.388S410.518,332.141,410.518,333.388Z" transform="translate(-337.083 -292.73)" fill="#98eaf9"/>
      <g id="Group_1113664" data-name="Group 1113664" transform="translate(26 0)">
        <path id="Path_904482" data-name="Path 904482" d="M379.269,326.029a1.129,1.129,0,0,0-.846-.381H375.97a3.372,3.372,0,0,0,.194-1.129c0-1.608-2-3.627-2.611-4.208a1.13,1.13,0,0,0-1.554,0c-.613.581-2.611,2.6-2.611,4.208a3.372,3.372,0,0,0,.194,1.129h-2.453a1.129,1.129,0,0,0-1.121,1.267l1.694,13.779a1.129,1.129,0,0,0,1.121.992h7.906a1.129,1.129,0,0,0,1.121-.992l1.694-13.779A1.129,1.129,0,0,0,379.269,326.029Zm-6.492-3.263a4.849,4.849,0,0,1,1.129,1.754,1.129,1.129,0,0,1-2.259,0A4.862,4.862,0,0,1,372.777,322.766Zm2.953,16.66h-5.908l-.716-5.822a7.455,7.455,0,0,0,7.339,0Zm1.035-8.417a7.463,7.463,0,0,0-1.406.615,5.2,5.2,0,0,1-5.165,0,7.473,7.473,0,0,0-1.406-.615l-.382-3.1h8.741Z" transform="translate(-327.6 -283.86)"/>
        <path id="Path_904483" data-name="Path 904483" d="M67.788,29.365v3.388a1.129,1.129,0,0,0,1.129,1.129h4.518a1.129,1.129,0,0,0,1.129-1.129V25.976a3.392,3.392,0,0,0-3.388-3.388H70.047V21.459a3.392,3.392,0,0,0-3.388-3.388H65.529V16.941a3.392,3.392,0,0,0-3.388-3.388H61.012V12.423a3.392,3.392,0,0,0-3.388-3.388H56.494V7.906a3.392,3.392,0,0,0-3.388-3.388H51.976V3.388A3.389,3.389,0,0,0,48.588,0H41.812a5.643,5.643,0,0,0-5.647,5.647v11.52H32.776A1.129,1.129,0,0,0,31.647,18.3v4.518a1.129,1.129,0,0,0,1.129,1.129h3.388v2.676l-9.522,4.55A1.134,1.134,0,0,0,26,32.188V56.7a1.13,1.13,0,0,0,1.129,1.129H51.976A1.13,1.13,0,0,0,53.106,56.7V53.308h3.388a1.129,1.129,0,0,0,1.129-1.129V47.661a1.129,1.129,0,0,0-1.129-1.129H53.106V42.323a1.129,1.129,0,1,0-2.259,0v.963A5.787,5.787,0,0,1,49.62,42.8a8.027,8.027,0,0,0-2.128-.816,3.822,3.822,0,0,0,.08-.756,4.287,4.287,0,0,0-.788-2.368,2.086,2.086,0,0,1-.341-1.02,2.647,2.647,0,0,1,.383-1.193,1.129,1.129,0,0,0-1.9-1.228,4.909,4.909,0,0,0-.746,2.421,4.287,4.287,0,0,0,.788,2.368,2.086,2.086,0,0,1,.341,1.02,1.944,1.944,0,0,1-.112.6,8.125,8.125,0,0,0-3.061.969,5.5,5.5,0,0,1-.9.392c.007-.088.011-.177.011-.268a4.287,4.287,0,0,0-.788-2.368,2.086,2.086,0,0,1-.341-1.02,2.647,2.647,0,0,1,.383-1.193,1.129,1.129,0,0,0-1.9-1.228,4.909,4.909,0,0,0-.746,2.421,4.287,4.287,0,0,0,.788,2.368,2.086,2.086,0,0,1,.341,1.02,1.842,1.842,0,0,1-.086.517,5.919,5.919,0,0,1-1.932-.64,8.027,8.027,0,0,0-2.128-.816,3.822,3.822,0,0,0,.08-.756,4.287,4.287,0,0,0-.788-2.368,2.085,2.085,0,0,1-.341-1.02,2.647,2.647,0,0,1,.383-1.193,1.129,1.129,0,0,0-1.9-1.228,4.91,4.91,0,0,0-.746,2.421,4.287,4.287,0,0,0,.788,2.368,2.086,2.086,0,0,1,.341,1.02,1.944,1.944,0,0,1-.112.6,8.127,8.127,0,0,0-3.065.972,5.745,5.745,0,0,1-1.227.491V32.9l7.906-3.777v2.727a1.129,1.129,0,1,0,2.259,0V5.647a3.4,3.4,0,0,1,3.388-3.388h6.776a1.134,1.134,0,0,1,1.129,1.129V4.518H41.812a1.13,1.13,0,0,0-1.129,1.129v26.2a1.129,1.129,0,1,0,2.259,0V29.123l8.523,4.072a1.119,1.119,0,0,0,.486.111,1.129,1.129,0,0,0,.488-2.148,0,0,0,0,0,0,0l-9.495-4.537V23.943h3.388a1.129,1.129,0,0,0,1.129-1.129V18.3a1.129,1.129,0,0,0-1.129-1.129H42.941V6.776H45.2V7.906a3.392,3.392,0,0,0,3.388,3.388h1.129v1.129a3.392,3.392,0,0,0,3.388,3.388h1.129v1.129a3.392,3.392,0,0,0,3.388,3.388h1.129v1.129a3.392,3.392,0,0,0,3.388,3.388H63.27v1.129a3.392,3.392,0,0,0,3.388,3.388ZM53.106,48.79h2.259v2.259H53.106ZM30.641,44.736a5.2,5.2,0,0,1,5.17,0,7.455,7.455,0,0,0,7.48,0,5.2,5.2,0,0,1,5.17,0,8.106,8.106,0,0,0,2.387.871v9.962H28.259V45.605A8.1,8.1,0,0,0,30.641,44.736Zm5.523-23.052H33.906V19.426h2.259ZM45.2,19.426v2.259H42.941V19.426ZM48.588,9.035a1.131,1.131,0,0,1-1.129-1.129V6.776h5.647a1.131,1.131,0,0,1,1.129,1.129V9.035Zm4.518,4.518a1.131,1.131,0,0,1-1.129-1.129V11.294h5.647a1.131,1.131,0,0,1,1.129,1.129v1.129Zm4.518,4.518a1.131,1.131,0,0,1-1.129-1.129V15.812h5.647a1.131,1.131,0,0,1,1.129,1.129v1.129Zm4.518,4.518a1.131,1.131,0,0,1-1.129-1.129V20.329h5.647a1.131,1.131,0,0,1,1.129,1.129v1.129Zm3.388,3.388V24.847h5.647a1.131,1.131,0,0,1,1.129,1.129v5.647H70.047V28.235a1.129,1.129,0,0,0-1.129-1.129H66.659A1.131,1.131,0,0,1,65.529,25.976Z" transform="translate(-26 0)"/>
        <path id="Path_904484" data-name="Path 904484" d="M247.129,319.75a1.129,1.129,0,1,0,1.129,1.128A1.13,1.13,0,0,0,247.129,319.75Z" transform="translate(-221.153 -283.637)"/>
      </g>
    </g>
  </g>
</svg>
