<svg xmlns="http://www.w3.org/2000/svg" xmlns:xlink="http://www.w3.org/1999/xlink" width="108.914" height="108.914" viewBox="0 0 108.914 108.914">
  <defs>
    <filter id="Path_874925" x="0" y="0" width="108.914" height="108.914" filterUnits="userSpaceOnUse">
      <feOffset dy="3" input="SourceAlpha"/>
      <feGaussianBlur stdDeviation="3" result="blur"/>
      <feFlood flood-opacity="0.161"/>
      <feComposite operator="in" in2="blur"/>
      <feComposite in="SourceGraphic"/>
    </filter>
  </defs>
  <g id="Group_1113585" data-name="Group 1113585" transform="translate(-47.001 1235)">
    <g id="Group_1109835" data-name="Group 1109835" transform="translate(-752.5 -3181.211)">
      <g id="Group_1107913" data-name="Group 1107913" transform="translate(808.5 1952.211)">
        <g transform="matrix(1, 0, 0, 1, -9, -6)" filter="url(#Path_874925)">
          <g id="Path_874925-2" data-name="Path 874925" transform="translate(9 6)" fill="#65a532" opacity="0.859">
            <path d="M 45.45676803588867 89.41407012939453 C 39.52198028564453 89.41407012939453 33.76551818847656 88.25206756591797 28.34726715087891 85.96034240722656 C 23.11311721801758 83.74648284912109 18.41204261779785 80.57682800292969 14.37464332580566 76.5394287109375 C 10.33724308013916 72.50202941894531 7.167593002319336 67.80095672607422 4.953730583190918 62.56679534912109 C 2.662005424499512 57.14855575561523 1.500005483627319 51.39208221435547 1.500005483627319 45.45729446411133 C 1.500005483627319 39.52198028564453 2.662005424499512 33.76551818847656 4.953730583190918 28.34726905822754 C 7.167593002319336 23.11310577392578 10.33724308013916 18.41203117370605 14.37464332580566 14.37464332580566 C 18.41204261779785 10.33724403381348 23.11311721801758 7.167593955993652 28.34726715087891 4.953731060028076 C 33.76551818847656 2.662006139755249 39.52198028564453 1.500006198883057 45.45676803588867 1.500006198883057 C 51.39155578613281 1.500006198883057 57.14802932739258 2.662006139755249 62.56626892089844 4.953731060028076 C 67.80043029785156 7.167593955993652 72.50150299072266 10.33724403381348 76.53890228271484 14.37464332580566 C 80.57630920410156 18.41203117370605 83.74595642089844 23.11310577392578 85.95981597900391 28.34726905822754 C 88.25154113769531 33.76551818847656 89.41354370117188 39.52198028564453 89.41354370117188 45.45676803588867 C 89.41354370117188 51.39208221435547 88.25154113769531 57.14855575561523 85.95981597900391 62.56679534912109 C 83.74595642089844 67.80095672607422 80.57630920410156 72.50202941894531 76.53890228271484 76.5394287109375 C 72.50150299072266 80.57682800292969 67.80043029785156 83.74648284912109 62.56626892089844 85.96034240722656 C 57.14802932739258 88.25206756591797 51.39155578613281 89.41407012939453 45.45676803588867 89.41407012939453 Z" stroke="none"/>
            <path d="M 45.45676803588867 3 C 39.72381210327148 3 34.1639404296875 4.12213134765625 28.93159484863281 6.335227966308594 C 23.87622833251953 8.473472595214844 19.33542633056641 11.53517150878906 15.43529510498047 15.435302734375 C 11.53517150878906 19.33543395996094 8.473464965820312 23.87622833251953 6.335227966308594 28.93160247802734 C 4.122123718261719 34.16394424438477 3 39.72381591796875 3 45.4572868347168 C 3 51.19024658203125 4.122123718261719 56.75011825561523 6.335227966308594 61.98246002197266 C 8.473464965820312 67.03782653808594 11.53517150878906 71.57862854003906 15.43529510498047 75.478759765625 C 19.33542633056641 79.37889099121094 23.87622833251953 82.44058990478516 28.93159484863281 84.57883453369141 C 34.1639404296875 86.79193115234375 39.72381210327148 87.9140625 45.45676803588867 87.9140625 C 51.18972396850586 87.9140625 56.74959564208984 86.79193115234375 61.98194122314453 84.57883453369141 C 67.03730773925781 82.44058990478516 71.57810974121094 79.37889099121094 75.47824096679688 75.478759765625 C 79.37837219238281 71.57862854003906 82.44007110595703 67.03782653808594 84.57830810546875 61.98246002197266 C 86.79141235351562 56.75011825561523 87.91353607177734 51.19024658203125 87.91353607177734 45.4567756652832 C 87.91353607177734 39.72381591796875 86.79141235351562 34.16394424438477 84.57830810546875 28.93160247802734 C 82.44007110595703 23.87622833251953 79.37837219238281 19.33543395996094 75.47824096679688 15.435302734375 C 71.57810974121094 11.53517150878906 67.03730773925781 8.473472595214844 61.98194122314453 6.335227966308594 C 56.74959564208984 4.12213134765625 51.18972396850586 3 45.45676803588867 3 M 45.45676803588867 0 C 70.56185150146484 0 90.91353607177734 20.35169219970703 90.91353607177734 45.4567756652832 L 90.91353607177734 45.4572868347168 C 90.91353607177734 70.5623779296875 70.56185150146484 90.9140625 45.45676803588867 90.9140625 C 20.3516845703125 90.9140625 0 70.5623779296875 0 45.4572868347168 L 0 45.4567756652832 C 0 20.35169219970703 20.3516845703125 0 45.45676803588867 0 Z" stroke="none" fill="#fff"/>
          </g>
        </g>
        <g id="Path_874923" data-name="Path 874923" transform="translate(0 0)" fill="none">
          <path d="M45.457,0A45.457,45.457,0,0,1,90.914,45.457h0A45.457,45.457,0,0,1,0,45.457H0A45.457,45.457,0,0,1,45.457,0Z" stroke="none"/>
          <path d="M 45.45676803588867 3 C 39.72381210327148 3 34.1639404296875 4.12213134765625 28.93159484863281 6.335227966308594 C 23.87622833251953 8.473472595214844 19.33542633056641 11.53517150878906 15.43529510498047 15.435302734375 C 11.53517150878906 19.33543395996094 8.473464965820312 23.87622833251953 6.335227966308594 28.93160247802734 C 4.122123718261719 34.16394424438477 3 39.72381591796875 3 45.4572868347168 C 3 51.19024658203125 4.122123718261719 56.75011825561523 6.335227966308594 61.98246002197266 C 8.473464965820312 67.03782653808594 11.53517150878906 71.57862854003906 15.43529510498047 75.478759765625 C 19.33542633056641 79.37889099121094 23.87622833251953 82.44058990478516 28.93159484863281 84.57883453369141 C 34.1639404296875 86.79193115234375 39.72381210327148 87.9140625 45.45676803588867 87.9140625 C 51.18972396850586 87.9140625 56.74959564208984 86.79193115234375 61.98194122314453 84.57883453369141 C 67.03730773925781 82.44058990478516 71.57810974121094 79.37889099121094 75.47824096679688 75.478759765625 C 79.37837219238281 71.57862854003906 82.44007110595703 67.03782653808594 84.57830810546875 61.98246002197266 C 86.79141235351562 56.75011825561523 87.91353607177734 51.19024658203125 87.91353607177734 45.4567756652832 C 87.91353607177734 39.72381591796875 86.79141235351562 34.16394424438477 84.57830810546875 28.93160247802734 C 82.44007110595703 23.87622833251953 79.37837219238281 19.33543395996094 75.47824096679688 15.435302734375 C 71.57810974121094 11.53517150878906 67.03730773925781 8.473472595214844 61.98194122314453 6.335227966308594 C 56.74959564208984 4.12213134765625 51.18972396850586 3 45.45676803588867 3 M 45.45676803588867 0 C 70.56185150146484 0 90.91353607177734 20.35169219970703 90.91353607177734 45.4567756652832 L 90.91353607177734 45.4572868347168 C 90.91353607177734 70.5623779296875 70.56185150146484 90.9140625 45.45676803588867 90.9140625 C 20.3516845703125 90.9140625 0 70.5623779296875 0 45.4572868347168 L 0 45.4567756652832 C 0 20.35169219970703 20.3516845703125 0 45.45676803588867 0 Z" stroke="none" fill="#fff"/>
        </g>
      </g>
    </g>
    <g id="_06-Gloves" data-name="06-Gloves" transform="translate(72.001 -1214)">
      <g id="Group_1113584" data-name="Group 1113584" transform="translate(17.077 46.486)">
        <path id="Path_904398" data-name="Path 904398" d="M38.743,50.9v3.795a1.9,1.9,0,0,1-1.9,1.9H34V49h2.846A1.9,1.9,0,0,1,38.743,50.9Z" transform="translate(-18.821 -49)" fill="#988fc4"/>
        <path id="Path_904399" data-name="Path 904399" d="M26,49h3.795v7.59H26Z" transform="translate(-18.41 -49)" fill="#988fc4"/>
        <path id="Path_904400" data-name="Path 904400" d="M18,49h3.795v7.59H18Z" transform="translate(-18 -49)" fill="#988fc4"/>
      </g>
      <path id="Path_904401" data-name="Path 904401" d="M30,49h3.795v7.59H30Z" transform="translate(-1.539 -2.514)" fill="#897bad"/>
      <path id="Path_904402" data-name="Path 904402" d="M22,49h3.795v7.59H22Z" transform="translate(-1.129 -2.514)" fill="#897bad"/>
      <path id="Path_904403" data-name="Path 904403" d="M17.743,49v7.59H14.9a1.9,1.9,0,0,1-1.9-1.9V50.9A1.9,1.9,0,0,1,14.9,49Z" transform="translate(-0.667 -2.514)" fill="#897bad"/>
      <path id="Path_904404" data-name="Path 904404" d="M12.384,29.157v-4.44L10.506,8.855a2.846,2.846,0,0,1,2.609-3.093c.1-.009.209-.019.313-.019A2.893,2.893,0,0,1,16.34,8.267l1.176,10.758h1.508V3.846a2.846,2.846,0,0,1,3-2.846,2.968,2.968,0,0,1,2.694,3.007V19.025h1.508L27.4,8.267a2.908,2.908,0,0,1,3.226-2.5,2.854,2.854,0,0,1,2.628,2.789c0,.1-.009.2-.019.3l-1.11,10.17h1.433l1.518-6.356a2.924,2.924,0,0,1,3.5-2.106,2.806,2.806,0,0,1,2.192,3.368l-3.719,15.53V39.9c0,1.9-.949,3.795-1.9,3.795v2.846H14.282c0-2.846-.949-3.795-.949-3.795C8.59,38,7.641,37.05,7.641,33.256l-5.948-7.58A2.846,2.846,0,0,1,1,23.816,2.887,2.887,0,0,1,2.053,21.6a3,3,0,0,1,4.165.361Z" transform="translate(-0.051 -0.051)" fill="#aeabd6"/>
      <path id="Path_904405" data-name="Path 904405" d="M40.271,11.076a2.987,2.987,0,0,0-2.08.3,2.766,2.766,0,0,1,1.423,3.073L35.9,29.974V40.41c0,1.9-.949,3.795-1.9,3.795v2.846h2.846V44.2c.949,0,1.9-1.9,1.9-3.795V29.974l3.719-15.53a2.806,2.806,0,0,0-2.192-3.368Z" transform="translate(-1.744 -0.565)" fill="#988fc4"/>
      <path id="Path_904406" data-name="Path 904406" d="M12.546,30.424l-.161-.19-6.167-7.2a3,3,0,0,0-4.165-.361A2.887,2.887,0,0,0,1,24.893a2.846,2.846,0,0,0,.693,1.859l5.948,7.58c0,3.795.949,4.743,5.692,9.487,0,0,.949.949.949,3.795H24.718V33.384c-2.846-8.538-12.172-2.96-12.172-2.96Z" transform="translate(-0.051 -1.129)" fill="#988fc4"/>
      <path id="Path_904407" data-name="Path 904407" d="M12.554,30.424l-.161-.19-6.167-7.2a3,3,0,0,0-4.165-.361,2.9,2.9,0,0,0-.9,1.364,3,3,0,0,1,3.172.894l6.167,7.2.161.19s9.326-5.578,12.172,2.96V47.615h1.9V33.384c-2.846-8.538-12.172-2.96-12.172-2.96Z" transform="translate(-0.059 -1.129)" fill="#bfbfde"/>
      <path id="Path_904408" data-name="Path 904408" d="M58.744,56.9v3.795a1.9,1.9,0,0,1-1.9,1.9H54V55h2.846a1.9,1.9,0,0,1,1.9,1.9Z" transform="translate(-2.77 -2.821)" fill="#988fc4"/>
      <path id="Path_904409" data-name="Path 904409" d="M46,55h3.795v7.59H46Z" transform="translate(-2.36 -2.821)" fill="#988fc4"/>
      <path id="Path_904410" data-name="Path 904410" d="M38,55h3.795v7.59H38Z" transform="translate(-1.949 -2.821)" fill="#988fc4"/>
      <path id="Path_904411" data-name="Path 904411" d="M50,55h3.795v7.59H50Z" transform="translate(-2.565 -2.821)" fill="#897bad"/>
      <path id="Path_904412" data-name="Path 904412" d="M42,55h3.795v7.59H42Z" transform="translate(-2.155 -2.821)" fill="#897bad"/>
      <path id="Path_904413" data-name="Path 904413" d="M37.743,55v7.59H34.9a1.9,1.9,0,0,1-1.9-1.9V56.9A1.9,1.9,0,0,1,34.9,55Z" transform="translate(-1.693 -2.821)" fill="#897bad"/>
      <path id="Path_904414" data-name="Path 904414" d="M32.384,35.157v-4.44L30.506,14.855a2.846,2.846,0,0,1,2.609-3.093c.1-.009.209-.019.313-.019a2.893,2.893,0,0,1,2.913,2.524l1.176,10.758h1.508V9.846a2.846,2.846,0,0,1,3-2.846,2.968,2.968,0,0,1,2.694,3.007V25.025h1.508L47.4,14.267a2.908,2.908,0,0,1,3.226-2.5,2.854,2.854,0,0,1,2.628,2.789c0,.1-.009.2-.019.3l-1.11,10.17h1.433l1.518-6.356a2.924,2.924,0,0,1,3.5-2.106,2.806,2.806,0,0,1,2.192,3.368l-3.719,15.53V45.9c0,1.9-.949,3.795-1.9,3.795v2.846H34.282c0-2.846-.949-3.795-.949-3.795C28.59,44,27.641,43.05,27.641,39.256l-5.948-7.58A2.846,2.846,0,0,1,21,29.816a2.887,2.887,0,0,1,1.053-2.22,3,3,0,0,1,4.165.361Z" transform="translate(-1.077 -0.359)" fill="#bfbfde"/>
      <path id="Path_904415" data-name="Path 904415" d="M60.271,17.076a2.987,2.987,0,0,0-2.08.3,2.766,2.766,0,0,1,1.423,3.073L55.9,35.974V46.41c0,1.9-.949,3.795-1.9,3.795v2.846h2.846V50.2c.949,0,1.9-1.9,1.9-3.795V35.974l3.719-15.53a2.806,2.806,0,0,0-2.191-3.368Z" transform="translate(-2.77 -0.872)" fill="#aeabd6"/>
      <path id="Path_904416" data-name="Path 904416" d="M32.546,36.424l-.161-.19-6.167-7.2a3,3,0,0,0-4.165-.361A2.887,2.887,0,0,0,21,30.893a2.846,2.846,0,0,0,.693,1.859l5.948,7.58c0,3.795.949,4.743,5.692,9.487,0,0,.949.949.949,3.795H44.718V39.384C41.871,30.846,32.546,36.424,32.546,36.424Z" transform="translate(-1.077 -1.436)" fill="#aeabd6"/>
      <path id="Path_904417" data-name="Path 904417" d="M32.554,36.424l-.161-.19-6.167-7.2a3,3,0,0,0-4.165-.361,2.9,2.9,0,0,0-.9,1.364,3,3,0,0,1,3.172.894l6.167,7.2.161.19s9.326-5.578,12.172,2.96V53.615h1.9V39.384C41.879,30.846,32.554,36.424,32.554,36.424Z" transform="translate(-1.085 -1.436)" fill="#d1d1e8"/>
      <path id="Path_904418" data-name="Path 904418" d="M61.18,17.3a3.829,3.829,0,0,0-2.444-1.714,3.884,3.884,0,0,0-4.631,2.812l-.657,2.745.683-6.234a3.664,3.664,0,0,0-.806-2.721,3.919,3.919,0,0,0-6.915,1.925l-.8,7.255V9.956a3.879,3.879,0,0,0-3.592-3.95,3.795,3.795,0,0,0-4,3.789V21.363l-.8-7.254a3.919,3.919,0,0,0-6.915-1.925,3.669,3.669,0,0,0-.805,2.729l1.875,15.808v1.816l-4.5-5.251a3.955,3.955,0,0,0-5.484-.474,3.8,3.8,0,0,0-1.387,2.62,3.748,3.748,0,0,0,.878,2.775l5.747,7.328c.061,3.921,1.272,5.132,5.945,9.8a4.42,4.42,0,0,1,.664,2.382,2.846,2.846,0,0,0-1.865,2.663v3.795a2.846,2.846,0,0,0,2.846,2.846H55.1a2.846,2.846,0,0,0,2.846-2.846V54.384a2.846,2.846,0,0,0-1.9-2.672V50.3c1.154-.715,1.9-2.67,1.9-4.459V35.522L61.641,20.1A3.653,3.653,0,0,0,61.18,17.3Zm-27.9,40.882V54.384a.949.949,0,0,1,.949-.949h1.9v5.692h-1.9A.949.949,0,0,1,33.282,58.179Zm18.025-4.743v5.692h-1.9V53.435Zm-3.795,5.692h-1.9V53.435h1.9Zm-3.795,0h-1.9V53.435h1.9Zm-3.795,0h-1.9V53.435h1.9Zm16.128-.949a.949.949,0,0,1-.949.949H53.2V53.435h1.9a.949.949,0,0,1,.949.949ZM59.8,19.661,56.076,35.19a.958.958,0,0,0-.026.22V45.845a4.109,4.109,0,0,1-.949,2.846.949.949,0,0,0-.949.949v1.9H35.14a5.59,5.59,0,0,0-1.188-3.517c-4.692-4.693-5.414-5.414-5.414-8.816a.949.949,0,0,0-.2-.586l-5.977-7.611a1.906,1.906,0,0,1,.246-2.727,2.048,2.048,0,0,1,2.839.241l6.331,7.388a.949.949,0,0,0,1.209.2c.042-.026,4.31-2.54,7.582-1.328a5.567,5.567,0,0,1,3.2,3.775l1.8-.6A7.351,7.351,0,0,0,41.227,33c-2.9-1.075-6.183.036-7.943.831V30.666a.875.875,0,0,0-.007-.112L31.4,14.7a1.773,1.773,0,0,1,.395-1.321,2,2,0,0,1,1.368-.726,1.966,1.966,0,0,1,2.182,1.664L36.52,25.077a.949.949,0,0,0,.943.845h1.511a.949.949,0,0,0,.949-.949V9.795a1.9,1.9,0,0,1,2-1.9,2.01,2.01,0,0,1,1.795,2.059V24.974a.949.949,0,0,0,.949.949h1.507a.949.949,0,0,0,.943-.845L48.3,14.316a1.968,1.968,0,0,1,2.182-1.664,2,2,0,0,1,1.368.726,1.773,1.773,0,0,1,.395,1.321l-1.11,10.172a.949.949,0,0,0,.944,1.052H53.5a.949.949,0,0,0,.923-.728l1.525-6.356a1.973,1.973,0,0,1,2.372-1.4,1.951,1.951,0,0,1,1.247.866,1.77,1.77,0,0,1,.225,1.359Z" transform="translate(-1.026 -0.308)"/>
      <path id="Path_904419" data-name="Path 904419" d="M25.615,47.435h.949v-1.9H15.14a5.59,5.59,0,0,0-1.188-3.517C9.26,37.328,8.538,36.607,8.538,33.2a.949.949,0,0,0-.2-.586L2.358,25.008A1.906,1.906,0,0,1,2.6,22.281a2.047,2.047,0,0,1,2.839.241l6.331,7.388a.949.949,0,0,0,1.208.2,13.264,13.264,0,0,1,5.1-1.638l-.125-1.9a14.056,14.056,0,0,0-4.679,1.262V24.666a.876.876,0,0,0-.007-.112L11.4,8.7a1.773,1.773,0,0,1,.395-1.321,2,2,0,0,1,1.368-.726A1.965,1.965,0,0,1,15.34,8.316L16.52,19.077a.949.949,0,0,0,.943.845h1.511a.949.949,0,0,0,.949-.949V3.795a1.9,1.9,0,0,1,2-1.9,2.01,2.01,0,0,1,1.795,2.059V18.974a.949.949,0,0,0,.949.949h1.507a.949.949,0,0,0,.943-.845L28.3,8.316a1.965,1.965,0,0,1,2.182-1.664,2,2,0,0,1,1.368.726A1.773,1.773,0,0,1,32.241,8.7l1.887.207a3.664,3.664,0,0,0-.806-2.721A3.919,3.919,0,0,0,26.406,8.11l-.791,7.254V3.956A3.879,3.879,0,0,0,22.023.006a3.795,3.795,0,0,0-4,3.789V15.363l-.8-7.254a3.919,3.919,0,0,0-6.915-1.925A3.669,3.669,0,0,0,9.51,8.918l1.875,15.8v1.816l-4.5-5.251A3.956,3.956,0,0,0,1.4,20.813a3.8,3.8,0,0,0-1.387,2.62,3.748,3.748,0,0,0,.878,2.775l5.747,7.328c.061,3.921,1.272,5.132,5.945,9.8a4.42,4.42,0,0,1,.664,2.382,2.846,2.846,0,0,0-1.865,2.663v3.795a2.846,2.846,0,0,0,2.846,2.846H28.461v-1.9H25.615Zm-1.9,5.692h-1.9V47.435h1.9Zm-3.795,0h-1.9V47.435h1.9Zm-6.641-.949V48.384a.949.949,0,0,1,.949-.949h1.9v5.692h-1.9A.949.949,0,0,1,13.282,52.179Z" transform="translate(0 0)"/>
    </g>
  </g>
</svg>
