<svg xmlns="http://www.w3.org/2000/svg" xmlns:xlink="http://www.w3.org/1999/xlink" width="98" height="98" viewBox="0 0 98 98">
  <defs>
    <filter id="Path_896985" x="0" y="0" width="98" height="98" filterUnits="userSpaceOnUse">
      <feOffset dy="3" input="SourceAlpha"/>
      <feGaussianBlur stdDeviation="3" result="blur"/>
      <feFlood flood-opacity="0.161"/>
      <feComposite operator="in" in2="blur"/>
      <feComposite in="SourceGraphic"/>
    </filter>
  </defs>
  <g id="Group_1113921" data-name="Group 1113921" transform="translate(-1223.336 -3237)">
    <g id="Group_1113047" data-name="Group 1113047" transform="translate(1232.336 3243)" style="isolation: isolate">
      <g id="Group_1098742" data-name="Group 1098742">
        <g transform="matrix(1, 0, 0, 1, -9, -6)" filter="url(#Path_896985)">
          <g id="Path_896985-2" data-name="Path 896985" transform="translate(9 6)" fill="#8dc0ff">
            <path d="M 40.00000381469727 78.50012969970703 C 34.80187225341797 78.50012969970703 29.76003646850586 77.48240661621094 25.0145263671875 75.47523498535156 C 20.43014907836914 73.53620147705078 16.31264877319336 70.75999450683594 12.77639293670654 67.22373962402344 C 9.240137100219727 63.68747711181641 6.463937282562256 59.56997680664062 4.524903774261475 54.98559951782227 C 2.517725944519043 50.24008560180664 1.500003814697266 45.1982421875 1.500003814697266 40.0001106262207 C 1.500003814697266 34.80195236206055 2.517725944519043 29.76008796691895 4.524914741516113 25.01456451416016 C 6.463937282562256 20.43017578125 9.240137100219727 16.31266403198242 12.77639293670654 12.77639865875244 C 16.31264877319336 9.240142822265625 20.43014907836914 6.463931560516357 25.0145263671875 4.524909496307373 C 29.76003646850586 2.517720460891724 34.80187225341797 1.499998211860657 40.00000381469727 1.499998211860657 C 45.19813537597656 1.499998211860657 50.23998260498047 2.517720460891724 54.98548126220703 4.524898052215576 C 59.56985855102539 6.463931560516357 63.68735885620117 9.240131378173828 67.22361755371094 12.77638721466064 C 70.75987243652344 16.31264305114746 73.53607177734375 20.43015289306641 75.47510528564453 25.0145206451416 C 77.48228454589844 29.76003074645996 78.5 34.80187606811523 78.5 40.00000762939453 C 78.5 45.19816589355469 77.48228454589844 50.24003219604492 75.47510528564453 54.98555374145508 C 73.53607177734375 59.56994247436523 70.75987243652344 63.68746566772461 67.22361755371094 67.22373199462891 C 63.68735885620117 70.75998687744141 59.56985855102539 73.53620147705078 54.98548126220703 75.4752197265625 C 50.23998260498047 77.48240661621094 45.19813537597656 78.50012969970703 40.00000381469727 78.50012969970703 Z" stroke="none"/>
            <path d="M 40.00000381469727 3 C 35.00371170043945 3 30.15847015380859 3.977851867675781 25.59885787963867 5.906410217285156 C 21.19327163696289 7.769813537597656 17.23603057861328 10.43806457519531 13.83704376220703 13.83705139160156 C 10.43807220458984 17.23603820800781 7.769813537597656 21.19327926635742 5.906417846679688 25.59885025024414 C 3.977859497070312 30.15846633911133 3.000007629394531 35.00370407104492 3.000007629394531 40.00011825561523 C 3.000007629394531 44.99641036987305 3.977859497070312 49.84166717529297 5.906417846679688 54.40127563476562 C 7.769813537597656 58.80685424804688 10.43807220458984 62.76409149169922 13.83704376220703 66.16307830810547 C 17.23603057861328 69.56206512451172 21.19327163696289 72.23031616210938 25.59885787963867 74.09371948242188 C 30.1584587097168 76.02227783203125 35.00371170043945 77.00012969970703 40.00000381469727 77.00012969970703 C 44.99629592895508 77.00012969970703 49.841552734375 76.02227783203125 54.40114974975586 74.09371948242188 C 58.80673980712891 72.23031616210938 62.76397705078125 69.56206512451172 66.1629638671875 66.16307830810547 C 69.56193542480469 62.76409149169922 72.23019409179688 58.80685424804688 74.09358978271484 54.40127563476562 C 76.02214813232422 49.84166717529297 77 44.99641036987305 77 40 C 77 35.00370407104492 76.02214813232422 30.15846633911133 74.09358978271484 25.59885025024414 C 72.23019409179688 21.19327926635742 69.56193542480469 17.23603820800781 66.1629638671875 13.83705139160156 C 62.76397705078125 10.43806457519531 58.80673980712891 7.769813537597656 54.40114974975586 5.906410217285156 C 49.84153747558594 3.977851867675781 44.99629592895508 3 40.00000381469727 3 M 40.00000381469727 0 C 62.09140396118164 0 80 17.90861129760742 80 40 L 80 40.00011825561523 C 80 62.09151840209961 62.09140396118164 80.00012969970703 40.00000381469727 80.00012969970703 C 17.90860366821289 80.00012969970703 7.62939453125e-06 62.09151840209961 7.62939453125e-06 40.00011825561523 L 7.62939453125e-06 40 C 7.62939453125e-06 17.90861129760742 17.90860366821289 0 40.00000381469727 0 Z" stroke="none" fill="#fff"/>
          </g>
        </g>
        <g id="Rectangle_400907" data-name="Rectangle 400907" transform="translate(0 0)" fill="none" stroke="#fff" stroke-width="3">
          <rect width="80" height="80" rx="40" stroke="none"/>
          <rect x="1.5" y="1.5" width="77" height="77" rx="38.5" fill="none"/>
        </g>
      </g>
    </g>
    <g id="Group_1113920" data-name="Group 1113920" transform="translate(1238.641 3259.079)">
      <path id="Path_904942" data-name="Path 904942" d="M418.776,435v1.272a.764.764,0,0,0,.763.763h1.018a.764.764,0,0,0,.763-.763V435Z" transform="translate(-366.067 -390.721)" fill="#f53635"/>
      <rect id="Rectangle_406821" data-name="Rectangle 406821" width="2.545" height="28.928" transform="translate(52.709 13.825)" fill="#fab43e"/>
      <path id="Path_904943" data-name="Path 904943" d="M422.517,101.887H424.3l-.892-2.145Z" transform="translate(-369.427 -89.589)" fill="#fdf3c2"/>
      <path id="Path_904944" data-name="Path 904944" d="M136.224,92.634h15.788V85H136.224Zm2.29-6.107h11.208a.763.763,0,0,1,0,1.527H138.514a.763.763,0,0,1,0-1.527Zm0,3.054h11.208a.763.763,0,0,1,0,1.527H138.514a.763.763,0,0,1,0-1.527Z" transform="translate(-112.276 -76.348)" fill="#fdf3c2"/>
      <path id="Path_904945" data-name="Path 904945" d="M29.532,58.261a.763.763,0,0,1-.763-.763V51.39a.763.763,0,0,1,.763-.763s0-1.527,0-1.527a.763.763,0,0,1-.764-.763V17.29a.763.763,0,0,1,.763-.763s0-1.527,0-1.527H26.224V59.788h3.309S29.532,58.261,29.532,58.261Z" transform="translate(-13.473 -13.473)" fill="#c40200"/>
      <path id="Path_904946" data-name="Path 904946" d="M87.238,15H58.726v1.527a.763.763,0,0,1,.763.763V48.337a.763.763,0,0,1-.763.763v1.527a.763.763,0,0,1,.763.763V57.5a.763.763,0,0,1-.763.763v1.527H87.238a2.293,2.293,0,0,0,2.29-2.29V17.29A2.293,2.293,0,0,0,87.238,15ZM83.93,30.523a.763.763,0,0,1-.763.763H65.851a.763.763,0,0,1-.763-.763V21.362a.763.763,0,0,1,.763-.763H83.166a.763.763,0,0,1,.763.763Z" transform="translate(-42.667 -13.473)" fill="#f53635"/>
      <path id="Path_904947" data-name="Path 904947" d="M44.571,0H11.987a.763.763,0,0,0-.763.763V47.078a.763.763,0,0,0,.763.763H44.571a3.821,3.821,0,0,0,3.817-3.817V3.817A3.821,3.821,0,0,0,44.571,0Zm2.29,44.025a2.293,2.293,0,0,1-2.29,2.29H12.751V1.527h31.82a2.293,2.293,0,0,1,2.29,2.29Z"/>
      <path id="Path_904948" data-name="Path 904948" d="M51.224,30.763V61.81a.763.763,0,1,0,1.527,0V30.763a.763.763,0,1,0-1.527,0Z" transform="translate(-35.928 -26.946)"/>
      <path id="Path_904949" data-name="Path 904949" d="M51.224,365.763v6.107a.763.763,0,1,0,1.527,0v-6.107a.763.763,0,0,0-1.527,0Z" transform="translate(-35.928 -327.846)"/>
      <path id="Path_904950" data-name="Path 904950" d="M139.3,70H121.987a.763.763,0,0,0-.763.763v9.161a.763.763,0,0,0,.763.763H139.3a.763.763,0,0,0,.763-.763V70.763A.763.763,0,0,0,139.3,70Zm-.763,9.161H122.751V71.527h15.788Z" transform="translate(-98.803 -62.875)"/>
      <path id="Path_904951" data-name="Path 904951" d="M151.987,101.527H163.2a.763.763,0,1,0,0-1.527H151.987a.763.763,0,1,0,0,1.527Z" transform="translate(-125.749 -89.821)"/>
      <path id="Path_904952" data-name="Path 904952" d="M151.987,131.527H163.2a.763.763,0,1,0,0-1.527H151.987a.763.763,0,1,0,0,1.527Z" transform="translate(-125.749 -116.767)"/>
      <path id="Path_904953" data-name="Path 904953" d="M409.372,78.288c0-.019-.005-.037-.008-.055s0-.012,0-.019c0-.023-.01-.045-.017-.067v-.005a.753.753,0,0,0-.029-.078l-2.033-4.889a.763.763,0,0,0-1.41,0l-2.033,4.889a.76.76,0,0,0-.029.078v.005c-.007.022-.012.044-.017.067,0,.006,0,.012,0,.019s-.006.037-.008.055a.761.761,0,0,0,0,.076v32.49a2.293,2.293,0,0,0,2.29,2.29h1.018a2.293,2.293,0,0,0,2.29-2.29V78.364C409.375,78.339,409.374,78.314,409.372,78.288Zm-2.286,33.33h-1.018a.764.764,0,0,1-.763-.763v-1.272h2.545v1.272A.764.764,0,0,1,407.085,111.618Zm.763-32.49v28.928H405.3V79.128ZM405.685,77.6l.892-2.145.892,2.145Z" transform="translate(-352.595 -65.303)"/>
    </g>
  </g>
</svg>
