<svg xmlns="http://www.w3.org/2000/svg" xmlns:xlink="http://www.w3.org/1999/xlink" width="108" height="108" viewBox="0 0 108 108">
  <defs>
    <filter id="Path_896985" x="0" y="0" width="108" height="108" filterUnits="userSpaceOnUse">
      <feOffset dy="3" input="SourceAlpha"/>
      <feGaussianBlur stdDeviation="3" result="blur"/>
      <feFlood flood-opacity="0.161"/>
      <feComposite operator="in" in2="blur"/>
      <feComposite in="SourceGraphic"/>
    </filter>
  </defs>
  <g id="Group_1113086" data-name="Group 1113086" transform="translate(-744.667 -3343)">
    <g id="Group_1109826" data-name="Group 1109826" transform="translate(-3.114 -484)">
      <g id="Group_1098742" data-name="Group 1098742" transform="translate(-446.539 3444.258)">
        <g transform="matrix(1, 0, 0, 1, 1194.32, 382.74)" filter="url(#Path_896985)">
          <g id="Path_896985-2" data-name="Path 896985" transform="translate(9 6)" fill="#8dc0ff" opacity="0.859">
            <path d="M 44.99993896484375 88.5 C 39.12682723999023 88.5 33.4301872253418 87.35007476806641 28.06826400756836 85.08217620849609 C 22.88850212097168 82.89132690429688 18.23627662658691 79.75461578369141 14.2408390045166 75.75916290283203 C 10.24540138244629 71.76372528076172 7.108676433563232 67.11151123046875 4.917826652526855 61.9317512512207 C 2.649926424026489 56.56982421875 1.500001430511475 50.87317657470703 1.500001430511475 45.00006103515625 C 1.500001430511475 39.12682342529297 2.649926424026489 33.4301872253418 4.917826652526855 28.06826210021973 C 7.108676433563232 22.88850021362305 10.24540138244629 18.23628807067871 14.2408390045166 14.24083709716797 C 18.23628807067871 10.24540042877197 22.88850212097168 7.108675003051758 28.06826400756836 4.917825222015381 C 33.4301872253418 2.649924993515015 39.12682723999023 1.5 44.99993896484375 1.5 C 50.87305068969727 1.5 56.5697021484375 2.649924993515015 61.93162536621094 4.917825222015381 C 67.11138916015625 7.108675003051758 71.76360321044922 10.24540042877197 75.75904083251953 14.24083709716797 C 79.75448608398438 18.23627471923828 82.89120483398438 22.88850021362305 85.08205413818359 28.06826210021973 C 87.34995269775391 33.4301872253418 88.4998779296875 39.12682342529297 88.4998779296875 44.99993896484375 C 88.4998779296875 50.87317657470703 87.34995269775391 56.56982421875 85.08205413818359 61.9317512512207 C 82.89120483398438 67.11151123046875 79.75448608398438 71.76372528076172 75.75904083251953 75.75916290283203 C 71.76360321044922 79.75461578369141 67.11138916015625 82.89132690429688 61.93162536621094 85.08217620849609 C 56.5697021484375 87.35007476806641 50.87305068969727 88.5 44.99993896484375 88.5 Z" stroke="none"/>
            <path d="M 44.99993896484375 3 C 39.32865142822266 3 33.82860946655273 4.110054016113281 28.65258026123047 6.299331665039062 C 23.65162658691406 8.414558410644531 19.15966796875 11.44332885742188 15.30149841308594 15.30149841308594 C 11.44332122802734 19.15966796875 8.41455078125 23.65162658691406 6.299324035644531 28.65258407592773 C 4.110054016113281 33.82861328125 2.999992370605469 39.32865524291992 2.999992370605469 45.00005722045898 C 2.999992370605469 50.67134475708008 4.110054016113281 56.17138671875 6.299324035644531 61.347412109375 C 8.41455078125 66.34837341308594 11.44332122802734 70.84033203125 15.30149841308594 74.69850158691406 C 19.15966796875 78.55667114257812 23.65162658691406 81.58544158935547 28.65258026123047 83.70066833496094 C 33.82860946655273 85.88994598388672 39.32865142822266 87 44.99993896484375 87 C 50.67122650146484 87 56.17126846313477 85.88994598388672 61.34729766845703 83.70066833496094 C 66.34825134277344 81.58544158935547 70.8402099609375 78.55667114257812 74.69837951660156 74.69850158691406 C 78.55654907226562 70.84033203125 81.5853271484375 66.34837341308594 83.70055389404297 61.347412109375 C 85.88982391357422 56.17138671875 86.9998779296875 50.67134475708008 86.9998779296875 44.99994277954102 C 86.9998779296875 39.32865524291992 85.88982391357422 33.82861328125 83.70055389404297 28.65258407592773 C 81.5853271484375 23.65162658691406 78.55654907226562 19.15966796875 74.69837951660156 15.30149841308594 C 70.8402099609375 11.44332885742188 66.34825134277344 8.414558410644531 61.34729766845703 6.299331665039062 C 56.17126846313477 4.110054016113281 50.67122650146484 3 44.99993896484375 3 M 44.99993896484375 0 C 69.85272216796875 0 89.99988555908203 20.14715576171875 89.99988555908203 44.99994277954102 L 89.99988555908203 45.00005722045898 C 89.99988555908203 69.85284423828125 69.85272216796875 90 44.99993896484375 90 C 20.14715576171875 90 -7.62939453125e-06 69.85284423828125 -7.62939453125e-06 45.00005722045898 L -7.62939453125e-06 44.99994277954102 C -7.62939453125e-06 20.14715576171875 20.14715576171875 0 44.99993896484375 0 Z" stroke="none" fill="#fff"/>
          </g>
        </g>
        <g id="Rectangle_400907" data-name="Rectangle 400907" transform="translate(1203.32 388.742)" fill="none" stroke="#fff" stroke-width="3">
          <rect width="90" height="90" rx="45" stroke="none"/>
          <rect x="1.5" y="1.5" width="87" height="87" rx="43.5" fill="none"/>
        </g>
      </g>
    </g>
    <g id="agronomy-eco-ecology-plant-world" transform="translate(767.027 3362.002)">
      <path id="Path_901177" data-name="Path 901177" d="M61,38v2a8,8,0,0,1-8,8V46A8,8,0,0,1,61,38Z" fill="#ffde55"/>
      <path id="Path_901178" data-name="Path 901178" d="M49,56v2a8,8,0,0,1-8-8V48A8,8,0,0,1,49,56Z" fill="#ffde55"/>
      <path id="Path_901179" data-name="Path 901179" d="M47.74,32.68s.15,7.22-3.93,10.07S34.9,45.71,33,43s-.14-7.23,3.93-10.08,10.81-.24,10.81-.24Z" fill="#d7fc7e"/>
      <path id="Path_901180" data-name="Path 901180" d="M47.74,18.68s.15,7.22-3.93,10.07S34.9,31.71,33,29s-.14-7.23,3.93-10.08S47.74,18.68,47.74,18.68Z" fill="#d7fc7e"/>
      <path id="Path_901181" data-name="Path 901181" d="M43.81,28.75c-2.82,1.97-6,2.63-8.32,1.95a12.3,12.3,0,0,0,4.32-1.95c4.08-2.85,3.93-10.07,3.93-10.07a19.082,19.082,0,0,0-3.82-.94,17.111,17.111,0,0,1,7.82.94S47.89,25.9,43.81,28.75Z" fill="#7ed63e"/>
      <path id="Path_901182" data-name="Path 901182" d="M43.81,42.75c-2.82,1.97-6,2.63-8.32,1.95a12.3,12.3,0,0,0,4.32-1.95c4.08-2.85,3.93-10.07,3.93-10.07a19.082,19.082,0,0,0-3.82-.94,17.111,17.111,0,0,1,7.82.94S47.89,39.9,43.81,42.75Z" fill="#7ed63e"/>
      <path id="Path_901183" data-name="Path 901183" d="M38,12c0,4.97-2.69,9-6,9s-6-4.03-6-9,6-9,6-9S38,7.03,38,12Z" fill="#d7fc7e"/>
      <path id="Path_901184" data-name="Path 901184" d="M38,12c0,4.97-2.69,9-6,9-2.17,0-4.07-1.73-5.11-4.31A4.583,4.583,0,0,0,30,18c3.31,0,6-4.03,6-9a7.268,7.268,0,0,0-.72-3.05A9.6,9.6,0,0,1,38,12Z" fill="#7ed63e"/>
      <path id="Path_901185" data-name="Path 901185" d="M27.07,18.92C31.14,21.77,32.9,26.29,31,29s-6.74,2.6-10.81-.25-3.93-10.07-3.93-10.07S23,16.07,27.07,18.92Z" fill="#d7fc7e"/>
      <path id="Path_901186" data-name="Path 901186" d="M31,29c-1.9,2.71-6.74,2.6-10.81-.25-.09-.06-.17-.13-.26-.19,2.95.86,5.74.34,7.07-1.56,1.72-2.46.44-6.4-2.85-9.25a7.277,7.277,0,0,1,2.92,1.17C31.14,21.77,32.9,26.29,31,29Z" fill="#7ed63e"/>
      <path id="Path_901187" data-name="Path 901187" d="M27.07,32.92C31.14,35.77,32.9,40.29,31,43s-6.74,2.6-10.81-.25-3.93-10.07-3.93-10.07,6.74-2.61,10.81.24Z" fill="#d7fc7e"/>
      <path id="Path_901188" data-name="Path 901188" d="M23,48v2a8,8,0,0,1-8,8V56a8,8,0,0,1,8-8Z" fill="#ffde55"/>
      <path id="Path_901189" data-name="Path 901189" d="M11,46v2a8,8,0,0,1-8-8V38A8,8,0,0,1,11,46Z" fill="#ffde55"/>
      <g id="Group_1113085" data-name="Group 1113085">
        <path id="Path_901190" data-name="Path 901190" d="M23,48v2a8,8,0,0,1-8,8V56a2.09,2.09,0,0,1,.01-.25,8,8,0,0,0,5.98-7.5A8.321,8.321,0,0,1,23,48Z" fill="#ebbf00"/>
        <path id="Path_901191" data-name="Path 901191" d="M11,46v2a8,8,0,0,1-7.48-5.17A8,8,0,0,0,9,45V43a7.815,7.815,0,0,0-.52-2.83A7.984,7.984,0,0,1,11,46Z" fill="#ebbf00"/>
        <path id="Path_901192" data-name="Path 901192" d="M41,48v2a8,8,0,0,0,8,8V56a2.09,2.09,0,0,0-.01-.25,8,8,0,0,1-5.98-7.5A8.321,8.321,0,0,0,41,48Z" fill="#ebbf00"/>
        <path id="Path_901193" data-name="Path 901193" d="M53,46v2a8,8,0,0,0,7.48-5.17A8,8,0,0,1,55,45V43a7.815,7.815,0,0,1,.52-2.83A7.984,7.984,0,0,0,53,46Z" fill="#ebbf00"/>
      </g>
      <path id="Path_901194" data-name="Path 901194" d="M31,43c-1.9,2.71-6.74,2.6-10.81-.25-.09-.06-.17-.13-.26-.19,2.95.86,5.74.34,7.07-1.56,1.72-2.46.44-6.4-2.85-9.25a7.277,7.277,0,0,1,2.92,1.17C31.14,35.77,32.9,40.29,31,43Z" fill="#7ed63e"/>
      <path id="Path_901195" data-name="Path 901195" d="M52.3,25.04a14.907,14.907,0,0,0-4.44-.64,16.044,16.044,0,0,0,.48-1.83,15.451,15.451,0,0,1,4.81-1.58,16.9,16.9,0,0,1,8.49.94l.72-1.86a18.807,18.807,0,0,0-9.51-1.06,17.419,17.419,0,0,0-4.17,1.19c.07-.87.07-1.46.07-1.54a1.026,1.026,0,0,0-.64-.92c-.27-.1-5.78-2.18-10.13-.49A13.571,13.571,0,0,0,39,12c0-5.44-6.18-9.65-6.44-9.83a1,1,0,0,0-1.12,0C31.18,2.35,25,6.56,25,12a13.571,13.571,0,0,0,1.02,5.25c-4.35-1.69-9.86.39-10.13.49a1.026,1.026,0,0,0-.64.92c0,.08,0,.67.07,1.54a17.419,17.419,0,0,0-4.17-1.19,18.807,18.807,0,0,0-9.51,1.06l.72,1.86a16.9,16.9,0,0,1,8.49-.94,15.451,15.451,0,0,1,4.81,1.58,16.044,16.044,0,0,0,.48,1.83,14.8,14.8,0,0,0-4.43.64,16.037,16.037,0,0,0-9.62,8.55l1.82.82a14.233,14.233,0,0,1,8.39-7.45,12.325,12.325,0,0,1,4.67-.53,8.584,8.584,0,0,0,2.64,3.14,14.269,14.269,0,0,0,1.74,1.04,20.325,20.325,0,0,0-5.46,1.13,1.026,1.026,0,0,0-.64.92c0,.31-.09,7.79,4.36,10.91a12.592,12.592,0,0,0,6.77,2.39c.08,0,.15.01.22.01A6.556,6.556,0,0,0,31,44.48V62h2V44.48a6.556,6.556,0,0,0,4.4,1.49c.07,0,.14-.01.22-.01a12.592,12.592,0,0,0,6.77-2.39c4.45-3.12,4.36-10.6,4.36-10.91a1.026,1.026,0,0,0-.64-.92,20.325,20.325,0,0,0-5.46-1.13,14.269,14.269,0,0,0,1.74-1.04,8.584,8.584,0,0,0,2.64-3.14,12.4,12.4,0,0,1,4.68.53,14.237,14.237,0,0,1,8.38,7.45l1.82-.82a16.041,16.041,0,0,0-9.61-8.55ZM20.76,27.93c-2.89-2.02-3.4-6.76-3.49-8.54,1.71-.53,6.33-1.67,9.23.35,3.55,2.49,5.24,6.47,3.68,8.69a4.3,4.3,0,0,1-3.75,1.53,10.518,10.518,0,0,1-5.67-2.03Zm9.42,14.5a4.3,4.3,0,0,1-3.75,1.53,10.518,10.518,0,0,1-5.67-2.03c-2.89-2.02-3.4-6.76-3.49-8.54,1.71-.53,6.33-1.67,9.23.35,3.55,2.49,5.24,6.47,3.68,8.69ZM31,35.41a13.746,13.746,0,0,0-3.36-3.31c-.09-.06-.19-.11-.29-.17A6.288,6.288,0,0,0,31,30.48ZM32,20c-2.71,0-5-3.66-5-8,0-3.53,3.59-6.66,5-7.76,1.41,1.1,5,4.23,5,7.76,0,4.34-2.29,8-5,8Zm1,10.48a6.288,6.288,0,0,0,3.65,1.45c-.1.06-.2.11-.29.17A13.746,13.746,0,0,0,33,35.41Zm13.73,2.91c-.09,1.78-.6,6.52-3.49,8.54a10.518,10.518,0,0,1-5.67,2.03,4.291,4.291,0,0,1-3.75-1.53c-1.56-2.22.13-6.2,3.68-8.69,2.9-2.02,7.52-.88,9.23-.35Zm-3.49-5.46a10.518,10.518,0,0,1-5.67,2.03,4.291,4.291,0,0,1-3.75-1.53c-1.56-2.22.13-6.2,3.68-8.69,2.9-2.02,7.52-.88,9.23-.35C46.64,21.17,46.13,25.91,43.24,27.93Z"/>
      <path id="Path_901196" data-name="Path 901196" d="M23,47a9.01,9.01,0,0,0-9,9v6h2V58.941A9.01,9.01,0,0,0,24,50V48A1,1,0,0,0,23,47Zm-1,3a7.011,7.011,0,0,1-6,6.929V56a7.011,7.011,0,0,1,6-6.929Z"/>
      <path id="Path_901197" data-name="Path 901197" d="M3,37a1,1,0,0,0-1,1v2a9.01,9.01,0,0,0,8,8.941V62h2V46a9.01,9.01,0,0,0-9-9Zm7,9.929A7.011,7.011,0,0,1,4,40v-.929A7.011,7.011,0,0,1,10,46Z"/>
      <path id="Path_901198" data-name="Path 901198" d="M41,47a1,1,0,0,0-1,1v2a9.01,9.01,0,0,0,8,8.941V62h2V56a9.01,9.01,0,0,0-9-9Zm7,9.929A7.011,7.011,0,0,1,42,50v-.929A7.011,7.011,0,0,1,48,56Z"/>
      <path id="Path_901199" data-name="Path 901199" d="M61,37a9.01,9.01,0,0,0-9,9V62h2V48.941A9.01,9.01,0,0,0,62,40V38A1,1,0,0,0,61,37Zm-1,3a7.011,7.011,0,0,1-6,6.929V46a7.011,7.011,0,0,1,6-6.929Z"/>
    </g>
  </g>
</svg>
