<svg xmlns="http://www.w3.org/2000/svg" xmlns:xlink="http://www.w3.org/1999/xlink" width="98" height="98" viewBox="0 0 98 98">
  <defs>
    <filter id="Path_896985" x="0" y="0" width="98" height="98" filterUnits="userSpaceOnUse">
      <feOffset dy="3" input="SourceAlpha"/>
      <feGaussianBlur stdDeviation="3" result="blur"/>
      <feFlood flood-opacity="0.161"/>
      <feComposite operator="in" in2="blur"/>
      <feComposite in="SourceGraphic"/>
    </filter>
  </defs>
  <g id="Group_1113869" data-name="Group 1113869" transform="translate(-593.336 -3237)">
    <g id="Group_1113045" data-name="Group 1113045" transform="translate(602.336 3243)" style="isolation: isolate">
      <g id="Group_1098742" data-name="Group 1098742">
        <g transform="matrix(1, 0, 0, 1, -9, -6)" filter="url(#Path_896985)">
          <g id="Path_896985-2" data-name="Path 896985" transform="translate(9 6)" fill="#8dc0ff">
            <path d="M 40.00000381469727 78.50012969970703 C 34.80187225341797 78.50012969970703 29.76003646850586 77.48240661621094 25.0145263671875 75.47523498535156 C 20.43014907836914 73.53620147705078 16.31264877319336 70.75999450683594 12.77639293670654 67.22373962402344 C 9.240137100219727 63.68747711181641 6.463937282562256 59.56997680664062 4.524903774261475 54.98559951782227 C 2.517725944519043 50.24008560180664 1.500003814697266 45.1982421875 1.500003814697266 40.0001106262207 C 1.500003814697266 34.80195236206055 2.517725944519043 29.76008796691895 4.524914741516113 25.01456451416016 C 6.463937282562256 20.43017578125 9.240137100219727 16.31266403198242 12.77639293670654 12.77639865875244 C 16.31264877319336 9.240142822265625 20.43014907836914 6.463931560516357 25.0145263671875 4.524909496307373 C 29.76003646850586 2.517720460891724 34.80187225341797 1.499998211860657 40.00000381469727 1.499998211860657 C 45.19813537597656 1.499998211860657 50.23998260498047 2.517720460891724 54.98548126220703 4.524898052215576 C 59.56985855102539 6.463931560516357 63.68735885620117 9.240131378173828 67.22361755371094 12.77638721466064 C 70.75987243652344 16.31264305114746 73.53607177734375 20.43015289306641 75.47510528564453 25.0145206451416 C 77.48228454589844 29.76003074645996 78.5 34.80187606811523 78.5 40.00000762939453 C 78.5 45.19816589355469 77.48228454589844 50.24003219604492 75.47510528564453 54.98555374145508 C 73.53607177734375 59.56994247436523 70.75987243652344 63.68746566772461 67.22361755371094 67.22373199462891 C 63.68735885620117 70.75998687744141 59.56985855102539 73.53620147705078 54.98548126220703 75.4752197265625 C 50.23998260498047 77.48240661621094 45.19813537597656 78.50012969970703 40.00000381469727 78.50012969970703 Z" stroke="none"/>
            <path d="M 40.00000381469727 3 C 35.00371170043945 3 30.15847015380859 3.977851867675781 25.59885787963867 5.906410217285156 C 21.19327163696289 7.769813537597656 17.23603057861328 10.43806457519531 13.83704376220703 13.83705139160156 C 10.43807220458984 17.23603820800781 7.769813537597656 21.19327926635742 5.906417846679688 25.59885025024414 C 3.977859497070312 30.15846633911133 3.000007629394531 35.00370407104492 3.000007629394531 40.00011825561523 C 3.000007629394531 44.99641036987305 3.977859497070312 49.84166717529297 5.906417846679688 54.40127563476562 C 7.769813537597656 58.80685424804688 10.43807220458984 62.76409149169922 13.83704376220703 66.16307830810547 C 17.23603057861328 69.56206512451172 21.19327163696289 72.23031616210938 25.59885787963867 74.09371948242188 C 30.1584587097168 76.02227783203125 35.00371170043945 77.00012969970703 40.00000381469727 77.00012969970703 C 44.99629592895508 77.00012969970703 49.841552734375 76.02227783203125 54.40114974975586 74.09371948242188 C 58.80673980712891 72.23031616210938 62.76397705078125 69.56206512451172 66.1629638671875 66.16307830810547 C 69.56193542480469 62.76409149169922 72.23019409179688 58.80685424804688 74.09358978271484 54.40127563476562 C 76.02214813232422 49.84166717529297 77 44.99641036987305 77 40 C 77 35.00370407104492 76.02214813232422 30.15846633911133 74.09358978271484 25.59885025024414 C 72.23019409179688 21.19327926635742 69.56193542480469 17.23603820800781 66.1629638671875 13.83705139160156 C 62.76397705078125 10.43806457519531 58.80673980712891 7.769813537597656 54.40114974975586 5.906410217285156 C 49.84153747558594 3.977851867675781 44.99629592895508 3 40.00000381469727 3 M 40.00000381469727 0 C 62.09140396118164 0 80 17.90861129760742 80 40 L 80 40.00011825561523 C 80 62.09151840209961 62.09140396118164 80.00012969970703 40.00000381469727 80.00012969970703 C 17.90860366821289 80.00012969970703 7.62939453125e-06 62.09151840209961 7.62939453125e-06 40.00011825561523 L 7.62939453125e-06 40 C 7.62939453125e-06 17.90861129760742 17.90860366821289 0 40.00000381469727 0 Z" stroke="none" fill="#fff"/>
          </g>
        </g>
        <g id="Rectangle_400907" data-name="Rectangle 400907" transform="translate(0 0)" fill="none" stroke="#fff" stroke-width="3">
          <rect width="80" height="80" rx="40" stroke="none"/>
          <rect x="1.5" y="1.5" width="77" height="77" rx="38.5" fill="none"/>
        </g>
      </g>
    </g>
    <g id="Group_1113868" data-name="Group 1113868" transform="translate(485.289 3254)">
      <path id="Path_904890" data-name="Path 904890" d="M152.063,58.835,161.1,47.092h5.42l9.033,11.743Z" transform="translate(-7.113 -41.785)" fill="#baf0ff"/>
      <g id="Group_1113864" data-name="Group 1113864" transform="translate(144.95 5.307)">
        <path id="Path_904891" data-name="Path 904891" d="M161.1,47.092l-9.033,11.743h2.371l9.033-11.743Z" transform="translate(-152.063 -47.092)" fill="#8adeff"/>
        <path id="Path_904892" data-name="Path 904892" d="M219.887,48.9l1.39-1.807h5.42l1.39,1.807Z" transform="translate(-212.244 -47.092)" fill="#8adeff"/>
        <path id="Path_904893" data-name="Path 904893" d="M175.549,137.071H152.063l1.39-1.807h20.706Z" transform="translate(-152.063 -125.328)" fill="#8adeff"/>
        <path id="Path_904894" data-name="Path 904894" d="M175.548,159.425V151.3H152.062v8.13a3.613,3.613,0,0,0,3.613,3.613h-.452a3.162,3.162,0,0,0-3.162,3.162h0a3.162,3.162,0,0,0,3.162,3.162,3.162,3.162,0,0,0-3.162,3.162h0a3.162,3.162,0,0,0,3.162,3.162h.452a3.613,3.613,0,0,0-3.613,3.613v7.226a3.613,3.613,0,0,0,3.613,3.613h4.838a3.6,3.6,0,0,0,2.389.9h1.807a3.6,3.6,0,0,0,2.389-.9h4.838a3.613,3.613,0,0,0,3.613-3.613V179.3a3.613,3.613,0,0,0-3.613-3.613h.452a3.162,3.162,0,0,0,3.162-3.162h0a3.162,3.162,0,0,0-3.162-3.162,3.162,3.162,0,0,0,3.162-3.162h0a3.162,3.162,0,0,0-3.162-3.162h-.452A3.613,3.613,0,0,0,175.548,159.425Z" transform="translate(-152.062 -139.552)" fill="#8adeff"/>
      </g>
      <g id="Group_1113865" data-name="Group 1113865" transform="translate(144.95 17.05)">
        <path id="Path_904895" data-name="Path 904895" d="M154.321,186.523V179.3a3.613,3.613,0,0,1,3.613-3.613h-.452a3.162,3.162,0,1,1,0-6.323,3.162,3.162,0,1,1,0-6.323h.452a3.613,3.613,0,0,1-3.613-3.613v-8.13h-2.258v8.13a3.613,3.613,0,0,0,3.613,3.613h-.452a3.162,3.162,0,1,0,0,6.323,3.162,3.162,0,1,0,0,6.323h.452a3.613,3.613,0,0,0-3.613,3.613v7.226a3.613,3.613,0,0,0,3.613,3.613h2.258A3.613,3.613,0,0,1,154.321,186.523Z" transform="translate(-152.063 -151.294)" fill="#2fb6eb"/>
        <path id="Path_904896" data-name="Path 904896" d="M229.312,495.969h-2.258a3.6,3.6,0,0,0,2.389.9h1.807c.076,0,.151,0,.226-.008A3.6,3.6,0,0,1,229.312,495.969Z" transform="translate(-218.603 -457.127)" fill="#2fb6eb"/>
        <path id="Path_904897" data-name="Path 904897" d="M171.935,367.718H155.675a3.613,3.613,0,0,0-3.613,3.613v7.226a3.613,3.613,0,0,0,3.613,3.613h4.838a3.6,3.6,0,0,0,2.389.9h1.807a3.6,3.6,0,0,0,2.389-.9h4.838a3.613,3.613,0,0,0,3.613-3.613v-7.226A3.613,3.613,0,0,0,171.935,367.718Z" transform="translate(-152.062 -343.329)" fill="#2fb6eb"/>
        <path id="Path_904898" data-name="Path 904898" d="M172.386,261.822H155.224a3.162,3.162,0,0,1-3.162-3.162h0a3.162,3.162,0,0,1,3.162-3.162h17.163a3.162,3.162,0,0,1,3.162,3.162h0A3.161,3.161,0,0,1,172.386,261.822Z" transform="translate(-152.062 -243.756)" fill="#2fb6eb"/>
      </g>
      <path id="Path_904899" data-name="Path 904899" d="M154.321,378.558v-7.226a3.613,3.613,0,0,1,3.613-3.613h-2.258a3.613,3.613,0,0,0-3.613,3.613v7.226a3.613,3.613,0,0,0,3.613,3.613h2.258A3.613,3.613,0,0,1,154.321,378.558Z" transform="translate(-7.113 -326.279)" fill="#0097c6"/>
      <path id="Path_904900" data-name="Path 904900" d="M229.312,495.969h-2.258a3.6,3.6,0,0,0,2.389.9h1.807c.076,0,.151,0,.226-.008A3.6,3.6,0,0,1,229.312,495.969Z" transform="translate(-73.653 -440.078)" fill="#00a1d3"/>
      <path id="Path_904901" data-name="Path 904901" d="M154.321,258.661a3.162,3.162,0,0,1,3.162-3.162h-2.258a3.162,3.162,0,0,0,0,6.323h2.258A3.162,3.162,0,0,1,154.321,258.661Z" transform="translate(-7.113 -226.706)" fill="#0097c6"/>
      <rect id="Rectangle_406813" data-name="Rectangle 406813" width="10.84" height="4.516" transform="translate(151.274 0.79)" fill="#ff6243"/>
      <g id="Group_1113866" data-name="Group 1113866" transform="translate(151.274 0.79)">
        <rect id="Rectangle_406814" data-name="Rectangle 406814" width="1.807" height="4.516" fill="#d80027"/>
        <rect id="Rectangle_406815" data-name="Rectangle 406815" width="10.84" height="1.807" transform="translate(0 2.71)" fill="#d80027"/>
      </g>
      <path id="Path_904902" data-name="Path 904902" d="M169.269,38.277a4,4,0,0,0-1.542-3.162,3.981,3.981,0,0,0-.175-6.436,4.43,4.43,0,0,0,1.674-3.5V16.762l-8.1-10.552H162.9V0H150.37V6.21h1.893l-8.216,10.552v8.418a4.479,4.479,0,0,0,1.729,3.5,4.007,4.007,0,0,0-.131,6.436,4.024,4.024,0,0,0,.129,6.436,4.477,4.477,0,0,0-1.727,3.5v7.226a4.562,4.562,0,0,0,4.516,4.516h4.516v-.074a4.486,4.486,0,0,0,2.71.978H157.6a4.485,4.485,0,0,0,2.71-.978v.074h4.516a4.466,4.466,0,0,0,4.4-4.516V45.052a4.428,4.428,0,0,0-1.673-3.5A4.019,4.019,0,0,0,169.269,38.277Zm-17.2-33.761V1.694h9.146V4.516ZM154.4,6.21h4.586l7.73,10.049H146.67m18.6,19.76a2.315,2.315,0,0,1,0,4.629h-2.258v1.694h1.807a2.674,2.674,0,0,1,2.71,2.71v7.226a2.771,2.771,0,0,1-2.71,2.823h-3.176a5.107,5.107,0,0,0,.409-1.919h-1.694A2.818,2.818,0,0,1,157.6,56H155.79a2.818,2.818,0,0,1-2.766-2.823H151.33a5.109,5.109,0,0,0,.409,1.919h-3.176a2.867,2.867,0,0,1-2.823-2.823V45.052a2.771,2.771,0,0,1,2.823-2.71H157.6V40.648h-9.485a2.315,2.315,0,0,1,0-4.629H157.6V34.325h-9.485a2.315,2.315,0,1,1,0-4.629H157.6V28h-9.033a2.867,2.867,0,0,1-2.823-2.823V17.953h21.792v7.226A2.771,2.771,0,0,1,164.823,28h-1.807V29.7h2.258a2.315,2.315,0,0,1,0,4.629h-2.258v1.694Z"/>
      <g id="Group_1113867" data-name="Group 1113867" transform="translate(150.37 10.783)">
        <rect id="Rectangle_406816" data-name="Rectangle 406816" width="1.807" height="1.694" transform="translate(0 1.807)" fill="#fff"/>
        <rect id="Rectangle_406817" data-name="Rectangle 406817" width="1.807" height="1.694" transform="translate(1.807)" fill="#fff"/>
        <rect id="Rectangle_406818" data-name="Rectangle 406818" width="1.807" height="1.694" transform="translate(9.033 23.486)" fill="#fff"/>
        <rect id="Rectangle_406819" data-name="Rectangle 406819" width="1.807" height="1.694" transform="translate(9.033 17.163)" fill="#fff"/>
        <rect id="Rectangle_406820" data-name="Rectangle 406820" width="1.807" height="1.694" transform="translate(9.033 29.809)" fill="#fff"/>
      </g>
    </g>
  </g>
</svg>
