<svg xmlns="http://www.w3.org/2000/svg" xmlns:xlink="http://www.w3.org/1999/xlink" width="108.914" height="108.914" viewBox="0 0 108.914 108.914">
  <defs>
    <filter id="Path_874925" x="0" y="0" width="108.914" height="108.914" filterUnits="userSpaceOnUse">
      <feOffset dy="3" input="SourceAlpha"/>
      <feGaussianBlur stdDeviation="3" result="blur"/>
      <feFlood flood-opacity="0.161"/>
      <feComposite operator="in" in2="blur"/>
      <feComposite in="SourceGraphic"/>
    </filter>
  </defs>
  <g id="Group_1113662" data-name="Group 1113662" transform="translate(-985 1235)">
    <g id="Group_1109835" data-name="Group 1109835" transform="translate(185.5 -3181.211)">
      <g id="Group_1107913" data-name="Group 1107913" transform="translate(808.5 1952.211)">
        <g transform="matrix(1, 0, 0, 1, -9, -6)" filter="url(#Path_874925)">
          <g id="Path_874925-2" data-name="Path 874925" transform="translate(9 6)" fill="#65a532" opacity="0.859">
            <path d="M 45.45676803588867 89.41407012939453 C 39.52198028564453 89.41407012939453 33.76551818847656 88.25206756591797 28.34726715087891 85.96034240722656 C 23.11311721801758 83.74648284912109 18.41204261779785 80.57682800292969 14.37464332580566 76.5394287109375 C 10.33724308013916 72.50202941894531 7.167593002319336 67.80095672607422 4.953730583190918 62.56679534912109 C 2.662005424499512 57.14855575561523 1.500005483627319 51.39208221435547 1.500005483627319 45.45729446411133 C 1.500005483627319 39.52198028564453 2.662005424499512 33.76551818847656 4.953730583190918 28.34726905822754 C 7.167593002319336 23.11310577392578 10.33724308013916 18.41203117370605 14.37464332580566 14.37464332580566 C 18.41204261779785 10.33724403381348 23.11311721801758 7.167593955993652 28.34726715087891 4.953731060028076 C 33.76551818847656 2.662006139755249 39.52198028564453 1.500006198883057 45.45676803588867 1.500006198883057 C 51.39155578613281 1.500006198883057 57.14802932739258 2.662006139755249 62.56626892089844 4.953731060028076 C 67.80043029785156 7.167593955993652 72.50150299072266 10.33724403381348 76.53890228271484 14.37464332580566 C 80.57630920410156 18.41203117370605 83.74595642089844 23.11310577392578 85.95981597900391 28.34726905822754 C 88.25154113769531 33.76551818847656 89.41354370117188 39.52198028564453 89.41354370117188 45.45676803588867 C 89.41354370117188 51.39208221435547 88.25154113769531 57.14855575561523 85.95981597900391 62.56679534912109 C 83.74595642089844 67.80095672607422 80.57630920410156 72.50202941894531 76.53890228271484 76.5394287109375 C 72.50150299072266 80.57682800292969 67.80043029785156 83.74648284912109 62.56626892089844 85.96034240722656 C 57.14802932739258 88.25206756591797 51.39155578613281 89.41407012939453 45.45676803588867 89.41407012939453 Z" stroke="none"/>
            <path d="M 45.45676803588867 3 C 39.72381210327148 3 34.1639404296875 4.12213134765625 28.93159484863281 6.335227966308594 C 23.87622833251953 8.473472595214844 19.33542633056641 11.53517150878906 15.43529510498047 15.435302734375 C 11.53517150878906 19.33543395996094 8.473464965820312 23.87622833251953 6.335227966308594 28.93160247802734 C 4.122123718261719 34.16394424438477 3 39.72381591796875 3 45.4572868347168 C 3 51.19024658203125 4.122123718261719 56.75011825561523 6.335227966308594 61.98246002197266 C 8.473464965820312 67.03782653808594 11.53517150878906 71.57862854003906 15.43529510498047 75.478759765625 C 19.33542633056641 79.37889099121094 23.87622833251953 82.44058990478516 28.93159484863281 84.57883453369141 C 34.1639404296875 86.79193115234375 39.72381210327148 87.9140625 45.45676803588867 87.9140625 C 51.18972396850586 87.9140625 56.74959564208984 86.79193115234375 61.98194122314453 84.57883453369141 C 67.03730773925781 82.44058990478516 71.57810974121094 79.37889099121094 75.47824096679688 75.478759765625 C 79.37837219238281 71.57862854003906 82.44007110595703 67.03782653808594 84.57830810546875 61.98246002197266 C 86.79141235351562 56.75011825561523 87.91353607177734 51.19024658203125 87.91353607177734 45.4567756652832 C 87.91353607177734 39.72381591796875 86.79141235351562 34.16394424438477 84.57830810546875 28.93160247802734 C 82.44007110595703 23.87622833251953 79.37837219238281 19.33543395996094 75.47824096679688 15.435302734375 C 71.57810974121094 11.53517150878906 67.03730773925781 8.473472595214844 61.98194122314453 6.335227966308594 C 56.74959564208984 4.12213134765625 51.18972396850586 3 45.45676803588867 3 M 45.45676803588867 0 C 70.56185150146484 0 90.91353607177734 20.35169219970703 90.91353607177734 45.4567756652832 L 90.91353607177734 45.4572868347168 C 90.91353607177734 70.5623779296875 70.56185150146484 90.9140625 45.45676803588867 90.9140625 C 20.3516845703125 90.9140625 0 70.5623779296875 0 45.4572868347168 L 0 45.4567756652832 C 0 20.35169219970703 20.3516845703125 0 45.45676803588867 0 Z" stroke="none" fill="#fff"/>
          </g>
        </g>
        <g id="Path_874923" data-name="Path 874923" transform="translate(0 0)" fill="none">
          <path d="M45.457,0A45.457,45.457,0,0,1,90.914,45.457h0A45.457,45.457,0,0,1,0,45.457H0A45.457,45.457,0,0,1,45.457,0Z" stroke="none"/>
          <path d="M 45.45676803588867 3 C 39.72381210327148 3 34.1639404296875 4.12213134765625 28.93159484863281 6.335227966308594 C 23.87622833251953 8.473472595214844 19.33542633056641 11.53517150878906 15.43529510498047 15.435302734375 C 11.53517150878906 19.33543395996094 8.473464965820312 23.87622833251953 6.335227966308594 28.93160247802734 C 4.122123718261719 34.16394424438477 3 39.72381591796875 3 45.4572868347168 C 3 51.19024658203125 4.122123718261719 56.75011825561523 6.335227966308594 61.98246002197266 C 8.473464965820312 67.03782653808594 11.53517150878906 71.57862854003906 15.43529510498047 75.478759765625 C 19.33542633056641 79.37889099121094 23.87622833251953 82.44058990478516 28.93159484863281 84.57883453369141 C 34.1639404296875 86.79193115234375 39.72381210327148 87.9140625 45.45676803588867 87.9140625 C 51.18972396850586 87.9140625 56.74959564208984 86.79193115234375 61.98194122314453 84.57883453369141 C 67.03730773925781 82.44058990478516 71.57810974121094 79.37889099121094 75.47824096679688 75.478759765625 C 79.37837219238281 71.57862854003906 82.44007110595703 67.03782653808594 84.57830810546875 61.98246002197266 C 86.79141235351562 56.75011825561523 87.91353607177734 51.19024658203125 87.91353607177734 45.4567756652832 C 87.91353607177734 39.72381591796875 86.79141235351562 34.16394424438477 84.57830810546875 28.93160247802734 C 82.44007110595703 23.87622833251953 79.37837219238281 19.33543395996094 75.47824096679688 15.435302734375 C 71.57810974121094 11.53517150878906 67.03730773925781 8.473472595214844 61.98194122314453 6.335227966308594 C 56.74959564208984 4.12213134765625 51.18972396850586 3 45.45676803588867 3 M 45.45676803588867 0 C 70.56185150146484 0 90.91353607177734 20.35169219970703 90.91353607177734 45.4567756652832 L 90.91353607177734 45.4572868347168 C 90.91353607177734 70.5623779296875 70.56185150146484 90.9140625 45.45676803588867 90.9140625 C 20.3516845703125 90.9140625 0 70.5623779296875 0 45.4572868347168 L 0 45.4567756652832 C 0 20.35169219970703 20.3516845703125 0 45.45676803588867 0 Z" stroke="none" fill="#fff"/>
        </g>
      </g>
    </g>
    <g id="Group_1113661" data-name="Group 1113661" transform="translate(1005.999 -1218.367)">
      <g id="Group_1113660" data-name="Group 1113660" transform="translate(4.872 9.441)">
        <path id="Path_904450" data-name="Path 904450" d="M23.9,67.158H36.964v45.686a6.531,6.531,0,0,1-13.062,0Z" transform="translate(-22.382 -64.687)" fill="#cee7ff" fill-rule="evenodd"/>
        <path id="Path_904451" data-name="Path 904451" d="M36.963,302.482v17.409a6.531,6.531,0,0,1-13.062,0V302.482H36.963Z" transform="translate(-22.381 -271.734)" fill="#fcdb35" fill-rule="evenodd"/>
        <path id="Path_904452" data-name="Path 904452" d="M63.634,67.158v45.686a6.557,6.557,0,0,1-4.71,6.27,6.557,6.557,0,0,1-4.71-6.27V67.158h9.419Z" transform="translate(-49.053 -64.687)" fill="#e3f1ff" fill-rule="evenodd"/>
        <path id="Path_904453" data-name="Path 904453" d="M63.634,302.482v17.409a6.557,6.557,0,0,1-4.71,6.27,6.556,6.556,0,0,1-4.71-6.27V302.482Z" transform="translate(-49.053 -271.734)" fill="#ffeb87" fill-rule="evenodd"/>
        <path id="Path_904454" data-name="Path 904454" d="M13.593,46.59H25.014a2.34,2.34,0,1,1,0,4.681H13.593a2.34,2.34,0,1,1,0-4.681Z" transform="translate(-11.253 -46.59)" fill="#a0cdfa" fill-rule="evenodd"/>
        <path id="Path_904455" data-name="Path 904455" d="M48.269,46.59a2.34,2.34,0,0,1,0,4.681H40.018a2.34,2.34,0,0,1,0-4.681Z" transform="translate(-34.505 -46.59)" fill="#b6dbff" fill-rule="evenodd"/>
        <path id="Path_904456" data-name="Path 904456" d="M93.183,221.133a13.571,13.571,0,0,1,2.13,7.307v22.824a3.554,3.554,0,0,0,3.547,3.547H111.9a3.554,3.554,0,0,0,3.547-3.547V228.44a13.571,13.571,0,0,1,2.13-7.307Z" transform="translate(-83.338 -200.16)" fill="#cad0d7" fill-rule="evenodd"/>
        <path id="Path_904457" data-name="Path 904457" d="M127.426,254.813h9.6a3.554,3.554,0,0,0,3.548-3.547V228.441a13.571,13.571,0,0,1,2.13-7.307H121.748a13.571,13.571,0,0,1,2.13,7.307v22.824a3.554,3.554,0,0,0,3.547,3.547Z" transform="translate(-108.471 -200.161)" fill="#e4e8eb" fill-rule="evenodd"/>
      </g>
      <ellipse id="Ellipse_11864" data-name="Ellipse 11864" cx="12.196" cy="1.883" rx="12.196" ry="1.883" transform="translate(14.717 28.531)" fill="#b7bfc9"/>
      <path id="Path_904458" data-name="Path 904458" d="M128.341,216.988a62.7,62.7,0,0,0,7.972.458c6.077,0,11.116-.686,12.043-1.584C144.99,214.377,128.341,214.2,128.341,216.988Z" transform="translate(-109.399 -185.149)" fill="#cad0d7" fill-rule="evenodd"/>
      <path id="Path_904459" data-name="Path 904459" d="M110.743,342.041v15.632a3.562,3.562,0,0,0,3.555,3.555h13.064a3.562,3.562,0,0,0,3.555-3.555V342.041Z" transform="translate(-93.916 -297.098)" fill="#4eb1fc" fill-rule="evenodd"/>
      <path id="Path_904460" data-name="Path 904460" d="M143.033,361.228h9.611a3.562,3.562,0,0,0,3.555-3.555V342.041h-16.72v15.632A3.562,3.562,0,0,0,143.033,361.228Z" transform="translate(-119.198 -297.098)" fill="#85caff" fill-rule="evenodd"/>
      <path id="Path_904461" data-name="Path 904461" d="M222.105,44.325A13.017,13.017,0,0,1,233.3,63.982a2.207,2.207,0,0,0,.34,2.717l2.324,2.324L233.79,71.2l-2.324-2.324a2.207,2.207,0,0,0-2.717-.34,13.015,13.015,0,1,1-6.643-24.207Z" transform="translate(-180.446 -35.156)" fill="#fdb0a0" fill-rule="evenodd"/>
      <path id="Path_904462" data-name="Path 904462" d="M222.106,44.325a12.565,12.565,0,0,1,10.617,19.081,2.207,2.207,0,0,0,.34,2.717l.575.575h0l2.324,2.324L233.791,71.2l-2.324-2.324-.576-.576a2.207,2.207,0,0,0-2.717-.34,12.685,12.685,0,1,1-6.067-23.631Z" transform="translate(-180.447 -35.156)" fill="#ffcec0" fill-rule="evenodd"/>
      <path id="Path_904463" data-name="Path 904463" d="M407.135,238.432l-7.579-7.579a1.346,1.346,0,0,0-1.9,0l-2.038,2.038a1.346,1.346,0,0,0,0,1.9l7.579,7.579a2.784,2.784,0,1,0,3.937-3.937Z" transform="translate(-344.215 -198.925)" fill="#a34f41" fill-rule="evenodd"/>
      <path id="Path_904464" data-name="Path 904464" d="M396.36,241.633l-.742.742a1.346,1.346,0,0,0,0,1.9l7.579,7.579a1.978,1.978,0,1,0,2.642-2.642l-7.579-7.579a1.346,1.346,0,0,0-1.9,0Z" transform="translate(-344.214 -208.41)" fill="#c86f5c" fill-rule="evenodd"/>
      <circle id="Ellipse_11865" data-name="Ellipse 11865" cx="9.932" cy="9.932" r="9.932" transform="translate(31.3 11.824)" fill="#fdb0a0"/>
      <circle id="Ellipse_11866" data-name="Ellipse 11866" cx="9.932" cy="9.932" r="9.932" transform="translate(31.719 12.243)" fill="#eceff1"/>
      <path id="Path_904465" data-name="Path 904465" d="M241.3,90.282a9.931,9.931,0,1,0-3.014-7.125A9.892,9.892,0,0,0,241.3,90.282Z" transform="translate(-206.137 -60.584)" fill="#fff" fill-rule="evenodd"/>
      <path id="Path_904466" data-name="Path 904466" d="M290.184,102.987a34.177,34.177,0,0,0-3.442,6.715c-1.056,3.446,1.206,5.177,3.442,5.2,2.236-.027,4.5-1.757,3.442-5.2A34.17,34.17,0,0,0,290.184,102.987Z" transform="translate(-248.531 -86.769)" fill="#4eb1fc" fill-rule="evenodd"/>
      <path id="Path_904467" data-name="Path 904467" d="M289.507,112.284a26.576,26.576,0,0,0-2.766,5.6c-.949,3.1.782,4.809,2.766,5.143,1.984-.334,3.716-2.045,2.766-5.143A26.57,26.57,0,0,0,289.507,112.284Z" transform="translate(-248.53 -94.949)" fill="#85caff" fill-rule="evenodd"/>
      <path id="Path_904468" data-name="Path 904468" d="M22.774,24.619a19.231,19.231,0,0,1,.773-8.515,18.859,18.859,0,0,1,4.634-7.529,19.175,19.175,0,0,1,2.992-2.443l-.625-.091a.841.841,0,0,1,.243-1.665l3.042.445a.841.841,0,0,1,.654,1.157L33.336,8.723a.841.841,0,0,1-1.551-.651l.19-.453a17.512,17.512,0,0,0-2.6,2.146,17.25,17.25,0,0,0-4.929,14.629.842.842,0,0,1-.721.947.852.852,0,0,1-.114.008.842.842,0,0,1-.833-.729ZM52,7.038a.841.841,0,0,1,1.179-.16,19.23,19.23,0,0,1,5.475,6.567,18.852,18.852,0,0,1,2.047,8.6,19.158,19.158,0,0,1-.388,3.843l.507-.378a.841.841,0,1,1,1,1.349L59.361,28.7a.84.84,0,0,1-.5.167.857.857,0,0,1-.225-.031.843.843,0,0,1-.553-.492l-1.127-2.754a.841.841,0,1,1,1.557-.637l.186.455a17.471,17.471,0,0,0,.324-3.359,17.251,17.251,0,0,0-6.859-13.83A.841.841,0,0,1,52,7.038ZM44.041,26.044a3.108,3.108,0,0,1-4.779,0,3.32,3.32,0,0,1-.248-3,25.7,25.7,0,0,1,2.638-5.337,25.7,25.7,0,0,1,2.638,5.337,3.32,3.32,0,0,1-.249,3Zm-1.193-9.6c-.207-.335-.37-.6-.459-.762a.841.841,0,0,0-1.474,0c-.089.162-.252.427-.459.762a28.837,28.837,0,0,0-3.05,6.111,4.844,4.844,0,0,0,.5,4.481,4.672,4.672,0,0,0,3.738,1.81h.021a4.672,4.672,0,0,0,3.738-1.81,4.845,4.845,0,0,0,.5-4.481,28.865,28.865,0,0,0-3.05-6.111ZM62.311,42.706a1.957,1.957,0,0,1-2.764,0l-7.534-7.534a.51.51,0,0,1,0-.718l2.046-2.047a.509.509,0,0,1,.718,0l7.534,7.534A1.957,1.957,0,0,1,62.311,42.706ZM47.857,32.5a3.023,3.023,0,0,1,3.485.242l1.008-1.008a3.022,3.022,0,0,1-.242-3.486A12.153,12.153,0,1,0,47.857,32.5ZM36.174,36.915H34.033a.841.841,0,0,0,0,1.682h2.125v1.846h-.932a.841.841,0,0,0,0,1.683h.932v1.846H17.667v-6.4A14.471,14.471,0,0,0,16.6,32.13c.452.1.964.2,1.541.287a60.561,60.561,0,0,0,8.77.562c2.092,0,4.144-.082,5.966-.237a13.851,13.851,0,0,0,3.538,2.115,14.5,14.5,0,0,0-.241,2.058Zm-2.73,26.243H20.381a2.716,2.716,0,0,1-2.714-2.713V45.654H36.158V47.5h-.932a.841.841,0,0,0,0,1.683h.932v1.846H34.033a.841.841,0,0,0,0,1.682h2.125v1.846h-.932a.841.841,0,1,0,0,1.682h.932v1.846H34.033a.841.841,0,0,0,0,1.682h2.125v.678a2.716,2.716,0,0,1-2.714,2.713Zm-20.522,0a5.72,5.72,0,0,1-5.714-5.713v-6H10.7a.841.841,0,1,0,0-1.682H7.209V46.174H8.565a.841.841,0,0,0,0-1.683H7.209V40.9h8.776V60.444a4.375,4.375,0,0,0,.305,1.606,5.683,5.683,0,0,1-3.368,1.107ZM7.191,10.151H18.653a1.508,1.508,0,0,1,0,3.016H7.191a1.508,1.508,0,0,1,0-3.016ZM18.143,28.086c.161-.025.326-.049.493-.072V14.849H7.209v3.274H10.7a.841.841,0,0,1,0,1.682H7.209V23.4H8.565a.841.841,0,0,1,0,1.682H7.209v3.591H10.7a.841.841,0,1,1,0,1.682H7.209v3.591H8.565a.841.841,0,1,1,0,1.682H7.209v3.591h8.776V37.573a12.792,12.792,0,0,0-1.733-6.422,1.2,1.2,0,0,1-.4-.9c0-1.067,1.243-1.695,4.292-2.165Zm11.7,1.176a13.944,13.944,0,0,0,1.409,1.909c-1.378.082-2.849.125-4.344.125-5.764,0-9.4-.576-10.835-1.045,1.436-.469,5.071-1.045,10.835-1.045C27.908,29.206,28.891,29.226,29.847,29.263ZM63.5,38.751l-7.534-7.533a2.192,2.192,0,0,0-2.287-.511,1.366,1.366,0,0,1-.126-1.6,13.842,13.842,0,1,0-24.6-1.561c-.673-.017-1.355-.027-2.043-.027-2.367,0-4.634.1-6.594.295V14.38a3.189,3.189,0,0,0-1.665-5.91H7.191a3.189,3.189,0,0,0-1.665,5.91V57.445A7.385,7.385,0,0,0,17.2,63.47a4.382,4.382,0,0,0,3.184,1.37H33.444a4.4,4.4,0,0,0,4.4-4.4V37.573a12.837,12.837,0,0,1,.186-2.17,13.858,13.858,0,0,0,10.691-1.454,1.365,1.365,0,0,1,1.6.126,2.19,2.19,0,0,0,.51,2.287L58.357,43.9A3.637,3.637,0,0,0,63.5,38.751ZM41.652,31.511a9.464,9.464,0,1,0-9.464-9.464A9.475,9.475,0,0,0,41.652,31.511Zm0-20.611A11.147,11.147,0,1,0,52.8,22.046,11.159,11.159,0,0,0,41.652,10.9Z" fill-rule="evenodd"/>
    </g>
  </g>
</svg>
