<svg xmlns="http://www.w3.org/2000/svg" xmlns:xlink="http://www.w3.org/1999/xlink" width="505.051" height="181.339" viewBox="0 0 505.051 181.339">
  <defs>
    <clipPath id="clip-path">
      <rect id="Rectangle_406752" data-name="Rectangle 406752" width="505.051" height="181.339" rx="8" transform="translate(914.949 11586)" fill="#e2dacc"/>
    </clipPath>
    <clipPath id="clip-path-2">
      <rect id="Rectangle_406751" data-name="Rectangle 406751" width="550" height="423.834" fill="none"/>
    </clipPath>
    <clipPath id="clip-path-3">
      <rect id="Rectangle_406756" data-name="Rectangle 406756" width="273.752" height="229.413" fill="none"/>
    </clipPath>
    <clipPath id="clip-path-5">
      <rect id="Rectangle_406753" data-name="Rectangle 406753" width="82.471" height="78.28" fill="none"/>
    </clipPath>
    <clipPath id="clip-path-6">
      <path id="Path_904643" data-name="Path 904643" d="M145.657,134.828a39.14,39.14,0,1,0,39.268-39.012,39.14,39.14,0,0,0-39.268,39.012" transform="translate(-145.656 -95.815)" fill="none"/>
    </clipPath>
    <clipPath id="clip-path-7">
      <rect id="Rectangle_406754" data-name="Rectangle 406754" width="88.352" height="126.999" fill="none"/>
    </clipPath>
    <clipPath id="clip-path-8">
      <rect id="Rectangle_406750" data-name="Rectangle 406750" width="179.101" height="172.339" fill="none"/>
    </clipPath>
  </defs>
  <g id="Group_1113957" data-name="Group 1113957" transform="translate(-914.949 -11408.349)">
    <path id="Path_904622" data-name="Path 904622" d="M8,0H497.051a8,8,0,0,1,8,8V173.339a8,8,0,0,1-8,8H8a8,8,0,0,1-8-8V8A8,8,0,0,1,8,0Z" transform="translate(914.949 11408.349)" fill="#d1e6ff"/>
    <g id="Mask_Group_1098749" data-name="Mask Group 1098749" transform="translate(0 -177.651)" clip-path="url(#clip-path)">
      <g id="Group_1113682" data-name="Group 1113682" transform="translate(895 11362.769)">
        <g id="Group_1113681" data-name="Group 1113681" clip-path="url(#clip-path-2)">
          <path id="Path_904586" data-name="Path 904586" d="M550,363.515c-41.536-5.546-53.852,1.286-121.235,22.371s-80.887-48.215-191.71-8.906c-25.843,9.167-60.271,1.087-75.161-19.632-30.9-42.992-37.039-133.63-37.134-210.467-.056-45.7.176-31.623.461-54.635h-23c2.119,16.7,2.442,10.458.218,57.074-2.687,56.335-9.1,117.368-25.455,150.9C67.61,319.432,28,331.745,0,324.611v90H550Z" transform="translate(0 9.225)" fill="#8bc2ec" fill-rule="evenodd"/>
          <path id="Path_904587" data-name="Path 904587" d="M179.466,101.112a1.089,1.089,0,1,0-2.176-.076c-1.285,35.655-2.084,84.831,1.332,132.173,3.425,47.445,11.089,93.094,26.749,121.6,7.333,13.352,15.633,22.8,24.322,29.313a62.363,62.363,0,0,0,31.365,12.348,89.23,89.23,0,0,0,16.9-.059,171.294,171.294,0,0,0,17.951-2.654c3.006-.6,6.549-1.454,10.505-2.408,24.694-5.961,65.757-15.873,109.083,6.846a1.088,1.088,0,1,0,1.008-1.929c-44.051-23.1-85.61-13.068-110.6-7.033-3.869.935-7.336,1.77-10.41,2.382a168.031,168.031,0,0,1-17.721,2.618,86.892,86.892,0,0,1-16.5.072A60.2,60.2,0,0,1,231,382.382c-8.451-6.335-16.542-15.556-23.717-28.622-15.485-28.19-23.078-73.528-26.484-120.7-3.413-47.279-2.615-96.361-1.333-131.945" transform="translate(-60.899 9.999)" fill="#4a89c8" fill-rule="evenodd"/>
          <path id="Path_904588" data-name="Path 904588" d="M430.033,139.018a1.09,1.09,0,1,0-2.176-.137c-.817,12.429-1.193,25.994-1.58,39.932-1.385,49.96-2.905,104.758-25.579,131.516a1.09,1.09,0,1,0,1.664,1.409c23.166-27.337,24.7-82.54,26.092-132.867.384-13.87.759-27.368,1.579-39.853" transform="translate(-320.519 13.786)" fill="#4a89c8" fill-rule="evenodd"/>
          <path id="Path_904589" data-name="Path 904589" d="M377.959,253.58a1.093,1.093,0,0,0-2.186,0c0,30.756,1.847,63.312,6.35,89.264,3.763,21.68,9.407,38.811,17.417,46.573a1.089,1.089,0,1,0,1.519-1.561c-7.646-7.41-13.1-24.123-16.785-45.379-4.479-25.813-6.316-58.241-6.316-88.9" transform="translate(-264.74 25.249)" fill="#4a89c8" fill-rule="evenodd"/>
          <path id="Path_904590" data-name="Path 904590" d="M422.343,285.255a1.089,1.089,0,1,0-2.152-.333,175.552,175.552,0,0,1-4.65,21.316,143.9,143.9,0,0,1-6.453,18.032,1.09,1.09,0,0,0,2,.871,146.335,146.335,0,0,0,6.555-18.305,177.935,177.935,0,0,0,4.7-21.581" transform="translate(-322.254 28.4)" fill="#4a89c8" fill-rule="evenodd"/>
          <path id="Path_904591" data-name="Path 904591" d="M302.451,338.77a7.054,7.054,0,1,1,7.054-7.054,7.067,7.067,0,0,1-7.054,7.054" transform="translate(-84.443 32.466)" fill="#8bc2ec" fill-rule="evenodd"/>
          <path id="Path_904592" data-name="Path 904592" d="M323.168,344.759a4.753,4.753,0,1,1,4.752-4.752,4.759,4.759,0,0,1-4.752,4.752" transform="translate(-128.179 33.525)" fill="#8bc2ec" fill-rule="evenodd"/>
          <path id="Path_904593" data-name="Path 904593" d="M284.856,340.8a3.225,3.225,0,1,1,3.225-3.225,3.231,3.231,0,0,1-3.225,3.225" transform="translate(-47.876 33.435)" fill="#8bc2ec" fill-rule="evenodd"/>
          <path id="Path_904594" data-name="Path 904594" d="M111.9,353.094a49.931,49.931,0,0,0,13.015-8.914c17.981-16.916,29.9,1.023,15.622,10.346-11.407,7.446-47.344,7.356-28.637-1.431" transform="translate(285.875 33.719)" fill="#8bc2ec" fill-rule="evenodd"/>
          <path id="Path_904595" data-name="Path 904595" d="M436.975,224.475a49.893,49.893,0,0,1-10.037,12.17c-18.451,16.4-1.645,29.876,8.913,16.481,8.432-10.7,11.544-46.5,1.124-28.652" transform="translate(-354.134 21.957)" fill="#8bc2ec" fill-rule="evenodd"/>
          <path id="Path_904596" data-name="Path 904596" d="M368.1,149.91a49.915,49.915,0,0,0,10.038,12.169c18.451,16.4,1.645,29.876-8.913,16.482-8.433-10.7-11.543-46.5-1.124-28.652" transform="translate(-234.046 14.5)" fill="#8bc2ec" fill-rule="evenodd"/>
          <path id="Path_904597" data-name="Path 904597" d="M367.486,204.217a7.054,7.054,0,1,1,7.054-7.054,7.068,7.068,0,0,1-7.054,7.054" transform="translate(-221.017 19.011)" fill="#8bc2ec" fill-rule="evenodd"/>
          <path id="Path_904598" data-name="Path 904598" d="M429.691,216.933a4.752,4.752,0,1,1,4.752-4.752,4.76,4.76,0,0,1-4.752,4.752" transform="translate(-351.876 20.743)" fill="#8bc2ec" fill-rule="evenodd"/>
          <path id="Path_904599" data-name="Path 904599" d="M409.988,9.922v4.114a3.285,3.285,0,0,0,3.276,3.275h22.469a5.332,5.332,0,0,0,0-10.663H413.264a3.284,3.284,0,0,0-3.276,3.275" transform="translate(-342.051 0.665)" fill="#999a9a" fill-rule="evenodd"/>
          <path id="Path_904600" data-name="Path 904600" d="M469.315,9.922v4.114a3.284,3.284,0,0,1-3.275,3.275H443.572a5.332,5.332,0,1,1,0-10.663H466.04a3.283,3.283,0,0,1,3.275,3.275" transform="translate(-401.378 0.665)" fill="#999a9a" fill-rule="evenodd"/>
          <path id="Path_904601" data-name="Path 904601" d="M440.286,0h0a8.861,8.861,0,0,0-8.834,8.835V31.379h17.67V8.835A8.861,8.861,0,0,0,440.286,0" transform="translate(-373.717)" fill="#afb0b0" fill-rule="evenodd"/>
          <path id="Path_904602" data-name="Path 904602" d="M448.612,20.493H432.436A3.347,3.347,0,0,0,429.1,23.83V34.508h22.848V23.83a3.347,3.347,0,0,0-3.336-3.337" transform="translate(-373.958 2.049)" fill="#0f3d61" fill-rule="evenodd"/>
          <path id="Path_904603" data-name="Path 904603" d="M482.907,45.355h-99.92V72.164h89.037c7.022,0,8.147,5.745,8.147,12.768v15.26h25.285V71.865c0-12.4-10.146-26.51-22.549-26.51" transform="translate(-376.741 4.536)" fill="#999a9a" fill-rule="evenodd"/>
          <path id="Path_904604" data-name="Path 904604" d="M480.12,45.355h-8.405a4.534,4.534,0,0,0-.025.46V70.871a4.165,4.165,0,0,0,.206,1.294h8.045a4.2,4.2,0,0,0,.2-1.294V45.815a4.552,4.552,0,0,0-.025-.46" transform="translate(-449.005 4.536)" fill="#0f3d61" fill-rule="evenodd"/>
          <path id="Path_904605" data-name="Path 904605" d="M463.377,45.355h-24.4V72.164H466.9c-.663-4.937-2.1-17.08-3.523-26.809" transform="translate(-399.777 4.536)" fill="#0f3d61" fill-rule="evenodd"/>
          <path id="Path_904606" data-name="Path 904606" d="M382.987,64.618v5.621h89.037c7.022,0,8.147,5.745,8.147,12.767v15.26h25.285v-9.9H485.17V76.644c0-9.823-7.044-12.026-13.259-12.026Z" transform="translate(-376.741 6.462)" fill="#0f3d61" fill-rule="evenodd"/>
          <path id="Path_904607" data-name="Path 904607" d="M453.209,37.323H427.822a12.382,12.382,0,0,0-12.345,12.345V72.94a12.38,12.38,0,0,0,12.345,12.343h25.387A12.38,12.38,0,0,0,465.553,72.94V49.668a12.382,12.382,0,0,0-12.344-12.345" transform="translate(-372.578 3.732)" fill="#afb0b0" fill-rule="evenodd"/>
          <path id="Path_904608" data-name="Path 904608" d="M454.276,27h-28.17a7.413,7.413,0,0,0-7.392,7.393v7.392h42.955V34.4A7.414,7.414,0,0,0,454.276,27" transform="translate(-372.254 2.7)" fill="#0f3d61" fill-rule="evenodd"/>
          <path id="Path_904609" data-name="Path 904609" d="M452.118,27h-28.17a7.362,7.362,0,0,0-5.147,2.1,7.227,7.227,0,0,0-.087,1.13v7.393h40.8V34.4A7.414,7.414,0,0,0,452.118,27" transform="translate(-370.096 2.7)" fill="#858584" fill-rule="evenodd"/>
          <path id="Path_904610" data-name="Path 904610" d="M409.088,88.694H383.982a5.849,5.849,0,0,0,0,11.7h25.106a5.849,5.849,0,0,0,0-11.7" transform="translate(-280.882 8.869)" fill="#c4c4c4" fill-rule="evenodd"/>
          <path id="Path_904611" data-name="Path 904611" d="M468.607,46.158V71.214a4.227,4.227,0,0,0,8.455,0V46.158a4.227,4.227,0,0,0-8.455,0" transform="translate(-442.529 4.193)" fill="#afb0b0" fill-rule="evenodd"/>
          <path id="Path_904612" data-name="Path 904612" d="M501.522,75.531V43.641a8.393,8.393,0,0,0-8.368-8.368h-8.37V83.9h8.37a8.393,8.393,0,0,0,8.368-8.368" transform="translate(-484.784 3.527)" fill="#858584" fill-rule="evenodd"/>
          <path id="Path_904613" data-name="Path 904613" d="M407.484,90.128H383.069a1.842,1.842,0,1,0,0,3.654h24.416a1.842,1.842,0,1,0,0-3.654" transform="translate(-278.654 9.013)" fill="#d8d8d8" fill-rule="evenodd"/>
          <path id="Path_904614" data-name="Path 904614" d="M428.129,7.994H415.585a1.971,1.971,0,0,0-2.077,1.828,1.97,1.97,0,0,0,2.077,1.826h12.544a1.971,1.971,0,0,0,2.078-1.826,1.972,1.972,0,0,0-2.078-1.828" transform="translate(-335.066 0.799)" fill="#d8d8d8" fill-rule="evenodd"/>
          <path id="Path_904615" data-name="Path 904615" d="M462.817,7.994H451.757a1.827,1.827,0,1,0,0,3.654h11.061a1.827,1.827,0,1,0,0-3.654" transform="translate(-409.566 0.799)" fill="#d8d8d8" fill-rule="evenodd"/>
          <path id="Path_904616" data-name="Path 904616" d="M443.478,1.733c-.221.044-.436.095-.654.154A8.919,8.919,0,0,0,439.3,3.678a7.007,7.007,0,0,0-2.16,3.2c-.2.733-.654,3.945.223,4.27.255-.094,1.2-2.757,1.61-3.441a5.739,5.739,0,0,1,1.885-1.936A8.745,8.745,0,0,1,443.533,4.7c.067-.031.422-.094.518-.113,2.134-.389,3.093,0,2.979-1.633.129-1.977-1.631-1.521-3.552-1.222" transform="translate(-377.563 0.146)" fill="#ebebeb" fill-rule="evenodd"/>
          <path id="Path_904617" data-name="Path 904617" d="M404.612,81.54c.4,3.462,3.326,3.535,3.587,1.084.694-7.319.925-15.621-2.538-22.979-2.863-6.081-8.547-11.86-15.981-12.872-2.888-.392-4.62.2-4.772.5-.249.506,1.873.994,6.532,3.2,12.441,5.887,12.15,20.118,13.171,31.066" transform="translate(-281.997 4.664)" fill="#ebebeb" fill-rule="evenodd"/>
          <path id="Path_904618" data-name="Path 904618" d="M418.564,64.742V70.6a8.872,8.872,0,0,0,8.846,8.846h25.131a8.871,8.871,0,0,0,8.845-8.846V64.742a8.87,8.87,0,0,1-8.845,8.845H427.41a8.871,8.871,0,0,1-8.846-8.845" transform="translate(-371.806 6.474)" fill="#0f3d61" fill-rule="evenodd"/>
          <path id="Path_904619" data-name="Path 904619" d="M463.214,14.38a3.283,3.283,0,0,0,3.275-3.274V6.992a2.991,2.991,0,0,0-.02-.345h1.355a8.828,8.828,0,0,0-.132,1.525V17.31h-15.54a5.346,5.346,0,0,1-4.756-2.93Z" transform="translate(-409.96 0.665)" fill="#0f3d61" fill-rule="evenodd"/>
          <path id="Path_904620" data-name="Path 904620" d="M410.455,17.31V8.172a8.7,8.7,0,0,0-.133-1.524h1.146v4a3.285,3.285,0,0,0,3.274,3.275H433.7a5.352,5.352,0,0,1-4.964,3.391Z" transform="translate(-335.051 0.665)" fill="#0f3d61" fill-rule="evenodd"/>
          <path id="Path_904621" data-name="Path 904621" d="M458.888,44.761a1.457,1.457,0,0,0,0-2.914h-37a1.457,1.457,0,0,0,0,2.914Z" transform="translate(-372.817 4.185)" fill="#fff" fill-rule="evenodd"/>
        </g>
      </g>
      <g id="Group_1113683" data-name="Group 1113683" transform="translate(902.949 11620)">
        <g id="Group_1113694" data-name="Group 1113694">
          <g id="Group_1113693" data-name="Group 1113693" clip-path="url(#clip-path-3)">
            <path id="Path_904623" data-name="Path 904623" d="M366.819,164.887,210.39,289.7l-48.744-81.472,143.13-103.517Z" transform="translate(-161.646 -60.286)" fill="#f0c9b9"/>
            <g id="Group_1113692" data-name="Group 1113692">
              <g id="Group_1113691" data-name="Group 1113691" clip-path="url(#clip-path-3)">
                <path id="Path_904624" data-name="Path 904624" d="M42.477,256.39c7.1-.185,24.358-.623,31.837-1.143,23.719-1.65,49.628-9.974,65.9-18.414,2.862-1.484,6.24-3.57,6.212-6.7a5.821,5.821,0,0,0-1.736-3.778c-3.87-4.228-10.3-4.945-16.209-5.259-26.717-1.424-75.777,1.8-75.439,1.43Z" transform="translate(109.306 -127.087)" fill="#f0c9b9"/>
                <path id="Path_904625" data-name="Path 904625" d="M42.477,256.39c7.1-.185,24.358-.623,31.837-1.143,23.719-1.65,49.628-9.974,65.9-18.414,2.862-1.484,6.24-3.57,6.212-6.7a5.821,5.821,0,0,0-1.736-3.778c-3.87-4.228-10.3-4.945-16.209-5.259-26.717-1.424-75.777,1.8-75.439,1.43Z" transform="translate(109.306 -127.087)" fill="#f0c9b9"/>
                <path id="Path_904626" data-name="Path 904626" d="M146.425,233.826c.028,3.127-3.35,5.213-6.212,6.7-16.273,8.44-42.181,16.764-65.9,18.414-7.479.52-24.742.958-31.837,1.143l10.276-32.938c2.1,2.37,4.337,4.788,6.713,7.221,22.416,22.958,86.959-.537,86.959-.537" transform="translate(109.306 -130.775)" fill="#e8b9a8"/>
                <path id="Path_904627" data-name="Path 904627" d="M0,202.3c7.095-.185,21.3-1.871,28.724-2.877,19.184-2.6,53.546-6.279,72.612-10.1,6.789-1.36,13.63-2.815,20.052-5.64,2.951-1.3,6.24-3.57,6.212-6.7a5.824,5.824,0,0,0-1.736-3.778c-3.87-4.227-10.3-4.945-16.209-5.26-26.717-1.423-99.428.858-99.09.486Z" transform="translate(146.151 -96.425)" fill="#f0c9b9"/>
                <path id="Path_904628" data-name="Path 904628" d="M38.04,163.571c7.1-.526,21.256-2.889,28.653-4.25,19.1-3.513,53.5-7.955,72.431-12.674,6.739-1.68,13.526-3.46,19.826-6.581,2.895-1.434,6.082-3.854,5.9-6.965a5.79,5.79,0,0,0-1.924-3.677c-4.084-4.021-10.561-4.424-16.5-4.453-26.849-.127-99.758,4.774-99.438,4.387Z" transform="translate(92.754 -71.95)" fill="#f0c9b9"/>
                <path id="Path_904629" data-name="Path 904629" d="M68.041,122.292c7.082-1.061,21.092-4.477,28.406-6.387,18.887-4.932,53.276-10.568,71.893-16.682,6.629-2.177,13.3-4.456,19.379-8.028,2.793-1.642,5.8-4.283,5.387-7.354a5.744,5.744,0,0,0-2.208-3.5c-4.4-3.678-10.961-3.932-16.887-3.165-32.507,4.213-80.7,10.169-80.406,9.762Z" transform="translate(51.74 -44.231)" fill="#f0c9b9"/>
                <path id="Path_904630" data-name="Path 904630" d="M163.067,118.763c5.858-4.119,16.855-13.447,22.54-18.429,14.68-12.866,42.906-33.3,56.815-47.106,4.953-4.914,9.9-9.939,13.733-15.855,1.763-2.719,3.273-6.428,1.525-8.987a5.744,5.744,0,0,0-3.542-2.141c-5.582-1.318-11.561,1.392-16.516,4.731-11.206,7.553-26.41,17.794-40.4,27.188-19.949,13.391-37.037,27.512-36.991,27.221Z" transform="translate(-52.681 -14.914)" fill="#f0c9b9"/>
                <path id="Path_904631" data-name="Path 904631" d="M204.717,316.36,187.648,287.83c12.2-9.547,27.489-21.463,46.424-36.167,68.056-52.849,54.513-93.667,56.4-99.638s11.856,15.551,34.272,38.509c6.072,6.219,15.236,9.024,25.37,9.817Z" transform="translate(-155.973 -86.947)" fill="#e8b9a8"/>
                <path id="Path_904632" data-name="Path 904632" d="M213.92,87.755c-.895,8.394-3.923,16.874-9.556,23.256a27.5,27.5,0,0,1-9.081,6.667,1.493,1.493,0,1,0,1.311,2.683c8.971-4.451,14.673-13.53,17.05-23.013a46.877,46.877,0,0,0,1.5-9.541.61.61,0,1,0-1.219-.052" transform="translate(-23.871 -50.187)" fill="#c9907f"/>
                <path id="Path_904633" data-name="Path 904633" d="M137.779,123.167l-28.89.334a1.494,1.494,0,0,0,.034,2.988c.053.011,28.822-2.467,28.9-2.467a.429.429,0,0,0-.042-.856" transform="translate(89.975 -70.913)" fill="#c9907f"/>
                <path id="Path_904634" data-name="Path 904634" d="M104.291,165.507l-42.938,1.829a1.494,1.494,0,0,0,.127,2.985c0,.008,42.862-3.715,42.882-3.713a.552.552,0,0,0-.071-1.1" transform="translate(143.472 -95.29)" fill="#c9907f"/>
                <path id="Path_904635" data-name="Path 904635" d="M114.1,219.353c-13.019,1.869-26.269,4.038-39.422,4.013a1.494,1.494,0,1,0-.024,2.987,94.645,94.645,0,0,0,10.093-.825c9.929-1.261,19.76-3.072,29.562-5.04a.577.577,0,0,0-.208-1.135" transform="translate(127.966 -126.287)" fill="#c9907f"/>
                <path id="Path_904636" data-name="Path 904636" d="M128.905,76.456c-1.617,27.725,19.6,50.457,45.748,50.543s49.768-23.471,45.7-50.944c-2.767-18.7-11.144-26.462-25.813-46.223C179.394,9.425,175.068,0,175.068,0s-10.851,16.93-20.223,29.7c-14.7,20.031-24.969,30.1-25.94,46.753" transform="translate(-1.714)" fill="#4c8ee0"/>
                <path id="Path_904637" data-name="Path 904637" d="M145.657,134.828a39.14,39.14,0,1,0,39.268-39.012,39.14,39.14,0,0,0-39.268,39.012" transform="translate(-11.981 -55.165)" fill="#345ddb"/>
                <g id="Group_1113687" data-name="Group 1113687" transform="translate(129.485 40.65)" opacity="0.9">
                  <g id="Group_1113686" data-name="Group 1113686">
                    <g id="Group_1113685" data-name="Group 1113685" clip-path="url(#clip-path-5)">
                      <g id="Group_1113684" data-name="Group 1113684" transform="translate(4.191 0)">
                        <g id="Group_1113683-2" data-name="Group 1113683" clip-path="url(#clip-path-6)">
                          <path id="Path_904638" data-name="Path 904638" d="M204.248,108.067a.708.708,0,0,0,.571.739c.287.042,1.558.17,1.392.5s-1.066.2-1.233.98-1.152,1.391-1.562.938a1.525,1.525,0,0,1-.4-1.5c.165-.507.045-1.409-.53-1.083s-1.521.9-1.476-.168,1.111-1.063.949-2.007.658-.613.415-1.352-.942-.577-.12-1.025.59-.573,1.383-.775,1.408.045,1.529.415-.575.367-.413.86,1.024.537.653.864-1.147-.414-1.56.568.528,1.273.4,2.052" transform="translate(-151.428 -100.088)" fill="#8ba9f8"/>
                          <path id="Path_904639" data-name="Path 904639" d="M224.213,100.387a.82.82,0,0,1,.185,1.172c-.055.2,1.036.734.653.848s-1.581-1.317-2.4-1.016-1.311-.191-1.425,1.011.87,1.479.54,2.134-1.222.543-.56,1.255a2.523,2.523,0,0,1,.771,1.206c.271.6.709.276.706,1.041s0,.82-.006,1.7.326.821-.386,1.365-.881,1.857-1.591,1.581-1.143-1.808-1.085-2.683-.832-.658-1.287-1.59-1.165-1.115-2.639-1.876-2.294-.765-2.018-1.42,1.15-.488.551-1.256a2.7,2.7,0,0,1-.591-2.331,19.3,19.3,0,0,1-.009-1.991c.124-.656.942.167,1.272-.488s.55-.818,1.75-.268,1.746,1.318,2.349.609,1.205-.543,2.078.062.709.713,1.529.661,1.3-.028,1.615.278" transform="translate(-175.668 -97.329)" fill="#8ba9f8"/>
                          <path id="Path_904640" data-name="Path 904640" d="M153.952,149.345c.535-.654.9-.489,2.176-.9a15.535,15.535,0,0,0,2.383-1.263c.944-.407,1.639.375,1.928-.076s-.075-2.337,1.362-2.865,2.05.129,2.628-.812a3.98,3.98,0,0,1,1.522-1.472c.7-.531.7-1.229,1.193-1.308s.532.207,1.066.126,1.15-.612,1.725-.61.82-.078.983.209.2.7.367.7.126-1.025.578-1.023a1.229,1.229,0,0,1,1.268.947c.161.739.82-.079,1.476-.077s2.173.252,1.972-1.06-.2-2.215.213-2.419,1.682-.076,1.48-.9-.608-2.422-.32-2.708,1.314-.487,1.559-.076.652,1.355.98,1.356,1.031-1.6.789-2.882-.678-1.67-.622-2.244a1.923,1.923,0,0,0-1.389-1.672c-.655-.03-.577.845-1.123.707s-.681-.713-1.557-.388-1.042.762-1.1,1.172-.114,1.394-.8,1.364-1.088-1.808-1.606-2.247.77-1.337-.376-2.134a2.406,2.406,0,0,1-1.306-1.754,2.355,2.355,0,0,0-1.17-1.535c-.71-.413-.6-.877-1.145-1.207s-1.008-1.124-1.854-1.619-1.2-.168-1.367-.032.054.493-.547.3-1.284-.277-1.474-.552,1.56-.542,1.316-1.226-.79-1.123-.433-1.423,1.639.552,1.831.224-1.118-.741-1.665-.935-.793.106-1.558-.005-2.322-.472-2.7-1.1.661-1.5.853-1.938.366-3.007.557-2.951,1.172.961,1.446.8a.775.775,0,0,0,.386-.873.763.763,0,0,1,.166-.82c.22-.328.988-1.145,1.316-.925a8.132,8.132,0,0,1,1.305,2.191c.244.6-.031,1.066.623,1.56s1.437.168,1.412,1.153.437,2.106,1.011,1.807a1.079,1.079,0,0,0,.306-1.53c-.3-.465-.162-.765.549-.927s.386-1.092.879-1.309.551-1.365-.1-1.915-1.938-1.1-2.238-1.4-.064-.657-.386-.685-.978.188-1.361-.087-.19-.438-.626-.821-.9.051-1.721-.471-1.665-1.017-1.827-1.509.929.194,1.531.2,1.531-.049.8-.6a11.055,11.055,0,0,1-1.472-1.372c-.354-.356.193-.655.357-.573s.652.959,1.417,1.372.928.659,1.555.989.983.331.793-.052-1.12-.168-1.528-.852-.627-.576-1.117-1.1-.461-1.26-.843-1.561-.053-.656.466-.354,1.694.5,2.184,1.047.38.9.762,1.342.845.713.925,1.178.79.823.792.3-.6-.85-.406-1.177.907-1.282,1.725-.733,3.568,2.128,4.2,3.076c1.532,2.3,5.809,8.535,6.46,10.136a25.539,25.539,0,0,0,1.546,3.737,12.756,12.756,0,0,1,1.584,4.967c.443,2.585.389,6.563-.022,6.6s-.066-5.045-.515-5.456-.01,3.116-.548,4.386.155,2.871-.094,3.69a5.673,5.673,0,0,1-2.632,2.247c-.287-.083-.838-.084-.892.449s-1.614.815-2.067,1.428.037,1.312-.993,2.539-1.425.98-1.943.691-1.011-.249-1.178.611-.086,1.272-.252,2.092,1.6.825,1.057,2.627.076,1.805-.255,2.788-2.551,2.9-2.679,4.174-2.3.4-2.8,2.328a27.632,27.632,0,0,0-1.206,5.2c-.088,1.681-1.525,2.291-1.53,3.972s-.947,1.187-1.032,1.883.654.658,0,.985-.2-.042-.618.9a4.013,4.013,0,0,1-1.565,1.881c-.7.49-1.518.4-2.055,1.223a1.23,1.23,0,0,1-1.845-.006c0-.246,2.338-.279,2.3-1.386s.086-1.067.579-1.557-.077-1.395.17-1.8.658-.613.044-1.025-2.131-.253-1.8-1.154,1.193-1.144,1.07-1.472-1.725.978-2.337-.008-.284-1.109-.856-1.766.066-1.846-.578-2.257-2.162-.294-2.774-1.075a3.954,3.954,0,0,1-.975-2.874c.086-1.229.293-1.762-.484-2.585s-1.839-2.221-1.549-3.04,1.355-.488,1.89-1.143m19.884-31.758c-.792-.33-.682-.358-.875,0s-.632.791-1.07,1.391.407.794.213,1.532-1.585-.5-1.859.13,3.028,1.978,3.057,1.6-.872-.906-.571-1.178-.189-.465,0-.956,1.417,1.261,1.392.77-.87-1.315-.924-1.561.084-.574.63-.654,1.256.6,1.476.305-.52-.975-1.472-1.372" transform="translate(-109.637 -98.949)" fill="#8ba9f8"/>
                          <path id="Path_904641" data-name="Path 904641" d="M255.809,114.393c6.554-12.281,23.679-15.889,23.679-15.889-.356.382-.836.749-1.165,1.056s-.508.552-.262.689c.491.275.818-.927.653,0s-1.585.706-2.135,1.633-.112.711,0,1.367-.541.764-.273,1.2,1.313-1.545,1.31-.852-.6.909-.661,1.511-1.439.87-.722,1.037a1.908,1.908,0,0,0,1.759-.705c.549-.49.547-.108.549-.49s-.925.106-.79-.276-.244-1.223.849-1.073,1.748.316,2.133-.284a1.441,1.441,0,0,1,1.643-.651c.491.221,1.528.88,1.472,1.372s-.229,3.116.424,3.774,1.254,1.207-.006,2.023-1.808,1.143-1.97.595-.215-1.312-.544-.822-.743,1.748-1.25,2.02-.946.544-1.106-.5-.271-.821.169-1.749,1.208-1.473,1.209-1.909.822-.381.332-1.2-.6-.6-1.37,1.089-1.429,2.347-2.358,1.96c-.076-.032-.133-.058-.181-.081-.156-.116-.245-.115,0,0a.852.852,0,0,1,.342.9c-.221.929-.825,1.372-.279,1.725s1.421.028,1.912.577,1.09,1.261,1.584.5.717-1.8.99-1.582a.849.849,0,0,1,.311.863c-.063.348-.537,1.023-.394,1.229s.639-.655.84.371.284.862.856,1.6.616-.327.658-.654,0-.493.537-1.106a6.66,6.66,0,0,0,1.112-1.35c.371-.655.948-1.522,1.277-1.558s.652,1.073.651,1.523-1.436.282-1.479.9.326.575.037,1.148-.782.754-1.317,1.358.12,1.017.407,1.059.368.206-.29.819-1.4,1.512-.868,1.924,2.707-.2,2.91.338-.7,1.145-.5,1.843.815,1.561-.17,1.969-2.954.4-3.321-.462-.159-1.477-.814-1.766-.075-2.092-1.224-2.137-.612-.781-2.173.116-2.222,1.1-2.817,1.959-1.292.57-.961-.208,1.808-1.019,2.262-1.8,1.028-1.1.456-1.27-1.854,1.183-2.8,1.754-.329,1.065-1.235,1.842-1.314.733-1.357,1.308-.694-1.028-.324-1.437.721-.654-.108-1.025-.87-.823-.825-1.889-.692-1.888-.857-1.438-1.028.94-1.067.489-.283-1.191-.695-.782-.292,1.434-.99,1.843-.7,1.1,0,1.148,1.521-1.02,2.256-.2,1.556.7,1.554,1.277-1.442,2.128-2.1,2.085-1.637-1.031-2.05-.253-.337,2.665.277,3.036,2.42.172,3.321.011,1.6-.938,1.928-.2.117,1.8.57,1.4a3.341,3.341,0,0,1,1.93-.937c1.149-.242,1.8-.4,2.05-1.224s-.073-1.641.419-1.639,4.1.178,4.591.754a2.4,2.4,0,0,0,1.8.907c.493-.08,1.232-.324,1.311.25s1.39,1.316,1.467,2.793,3.186,4.03,3.1,5.013-1.479,1.018-.746,2.478a3.989,3.989,0,0,1-1.165,5.226c-2.055,1.388-3.122,1.958-4.6,1.707s-4.512-1.491-5.045-.591-1.022-.331-1.846,1.06.729,2.709.235,3.528-1.07.9-1.158,2.7,1.79,4.435,1.212,5.663-.249.984-.336,2.706-.584,2.786-.176,3.772.732,1.725-1.479.979a12.2,12.2,0,0,1-5.4-4.118c-1.061-1.48-1.056-2.956-1.71-3.942s-2.208-1.893-2.45-3.207-.556-5.58-2.354-7.553-3.127-4.971-2.66-5.688.953,1.213,1.858.006a23.349,23.349,0,0,0,2.313-5.058c.579-1.557,2.394-4.75,2.395-5.077s-2.3,2.535-2.718,3.6-1.075,2.7-1.652,3.849-.987.735-1.395.077-1.877-2.713-1.873-4.189.472-2.049,1.1-2.129,2.767-1.959,2.113-2.536-1.644,1.308-3.2,1.3-3.724,10.322-3.407,13.44-6.5-14.292.053-26.574m8.3,6.67c.74-.735.415-1.639,1.238-2.21s.912-2.052.994-2.868c.127-1.256-2.136,1.141-2.47,2.827s-1.481,1.425-1.73,2.244,1.228.743,1.969.006" transform="translate(-257.144 -97.363)" fill="#8ba9f8"/>
                          <path id="Path_904642" data-name="Path 904642" d="M308.275,220.244c.818.658,1.924.95,2.085,2.016a13.209,13.209,0,0,0,1.383,3.449c.489.945.775,1.4.527,1.765s-2.167-1.812-2.777-3.618-2.036-4.271-1.218-3.612" transform="translate(-302.967 -167.392)" fill="#8ba9f8"/>
                        </g>
                      </g>
                    </g>
                  </g>
                </g>
                <g id="Group_1113690" data-name="Group 1113690" transform="translate(127.104)" opacity="0.2" style="mix-blend-mode: multiply;isolation: isolate">
                  <g id="Group_1113689" data-name="Group 1113689">
                    <g id="Group_1113688" data-name="Group 1113688" clip-path="url(#clip-path-7)">
                      <path id="Path_904644" data-name="Path 904644" d="M163.432,29.7C172.805,16.93,183.655,0,183.655,0s3.411,7.425,14.757,23.348c-16.273,2.284-53.54,12.354-43.52,56.537,7.132,31.448,44.777,31.978,70.866,19.4C218.534,115.581,201.5,127.059,183.24,127c-26.144-.085-47.365-22.818-45.748-50.543.971-16.655,11.241-26.723,25.939-46.753" transform="translate(-137.406 -0.001)" fill="#cadafb"/>
                    </g>
                  </g>
                </g>
              </g>
            </g>
          </g>
        </g>
      </g>
    </g>
    <g id="Group_1113680" data-name="Group 1113680" transform="translate(1199.515 11417.349)">
      <g id="Group_1113679" data-name="Group 1113679" clip-path="url(#clip-path-8)">
        <path id="Path_904532" data-name="Path 904532" d="M153.409,72.242,174.652,103.5a10.063,10.063,0,0,1,3.469,2.648l.38-.258.381-.259a10.061,10.061,0,0,1-1.185-4.2L156.453,70.173Z" transform="translate(-140.513 -5.798)" fill="#fff"/>
        <path id="Path_904533" data-name="Path 904533" d="M156.783,71.612l-1.471,1,20.567,30.268A13.76,13.76,0,0,1,177.718,104a13.841,13.841,0,0,1-.367-2.125Z" transform="translate(-141.096 -5.917)" fill="#f9339f"/>
        <path id="Path_904534" data-name="Path 904534" d="M179.475,65.827a4.979,4.979,0,0,0-2.245-.2,5.035,5.035,0,0,0-3.728,2.534,4.98,4.98,0,0,0-.637,2.162,4.39,4.39,0,0,0,1.8,3.77,16.921,16.921,0,0,0,2.315,1.176,6.145,6.145,0,0,1,3,2.9l2.082-1.415,2.082-1.415a6.145,6.145,0,0,1-1.592-3.859,16.741,16.741,0,0,0-.241-2.585,4.389,4.389,0,0,0-2.84-3.064" transform="translate(-163.624 -5.418)" fill="#694ca3"/>
        <path id="Path_904535" data-name="Path 904535" d="M176.926,77.143l-4.124,2.8a.558.558,0,1,1-.627-.923l4.123-2.8a.558.558,0,1,1,.627.923" transform="translate(-155.796 -6.29)" fill="#523c87"/>
        <path id="Path_904536" data-name="Path 904536" d="M154.845,72.8c1.63-3.407,6-7.545,9.288-9.6a1.706,1.706,0,0,1,2.256.39l.017.022a1.7,1.7,0,0,1,.012,2.076c-2.594,3.325-7.267,7.711-7.125,8.32.208.9,3.862,6.08,3.862,6.08a76.987,76.987,0,0,1,7.722-4.394c3.826-1.835,6.438,2.284,6.438,2.284s3.4.391,3.268,4.911a5.712,5.712,0,0,1,2.92,2.393c1.141,1.861-3.6,4.853-3.6,4.853a10.252,10.252,0,0,1,4.482,9.119l7.495,15.98s-9.4,8.33-12.7,8.387c0,0-26.881-45.5-24.336-50.816" transform="translate(-154.675 -5.2)" fill="#f0c9b9"/>
        <path id="Path_904537" data-name="Path 904537" d="M170.343,95.416a7.244,7.244,0,0,0-3.116-2.785l-.014,0a.392.392,0,0,0-.1-.321.427.427,0,0,0-.6-.033c-.709.759-1.409,1.526-2.113,2.289s-1.4,1.527-2.044,2.347c-.232.3.228.671.5.425.754-.69,1.445-1.434,2.14-2.183q.948-1.02,1.893-2.043a.32.32,0,0,0,.072.083,12.408,12.408,0,0,1,2.48,2.422,9.132,9.132,0,0,1,1.435,3.166,10.244,10.244,0,0,1-.839,6.858,16.63,16.63,0,0,1-2.281,3.336c-.281.336.263.771.576.491a11.757,11.757,0,0,0,3.548-6.725,10.21,10.21,0,0,0-1.538-7.322" transform="translate(-141.81 -7.615)" fill="#1c174f"/>
        <path id="Path_904538" data-name="Path 904538" d="M176.981,84.338a1.957,1.957,0,0,0-1.529-.006,5.87,5.87,0,0,0-1.482.7,20.658,20.658,0,0,0-2.675,2.1,29.688,29.688,0,0,0-2.359,2.374,10.149,10.149,0,0,0-2.012,2.741c-.122.305.288.528.515.335a22.977,22.977,0,0,0,2.037-2.374,30.3,30.3,0,0,1,2.205-2.244A24.036,24.036,0,0,1,174.055,86a6.71,6.71,0,0,1,1.423-.786,4.027,4.027,0,0,1,.773-.214,2.365,2.365,0,0,0,.7-.158.293.293,0,0,0,.028-.5" transform="translate(-151.122 -6.955)" fill="#1c174f"/>
        <path id="Path_904539" data-name="Path 904539" d="M180.743,78.947a11.079,11.079,0,0,0-3.1,1.1,17.875,17.875,0,0,0-2.863,1.771,17.344,17.344,0,0,0-2.44,2.236,10.108,10.108,0,0,0-1.9,2.731c-.169.4.4.576.631.3.687-.816,1.263-1.715,1.988-2.5a17.334,17.334,0,0,1,2.315-2.1,16.62,16.62,0,0,1,2.665-1.64c.957-.472,1.962-.8,2.947-1.2.4-.165.16-.759-.239-.7" transform="translate(-158.414 -6.522)" fill="#1c174f"/>
        <path id="Path_904540" data-name="Path 904540" d="M159.64,131.758c-3.446,36.84-16.8,43.088-16.8,43.088H61.617l-7.539.213,10.986-42.872S53,155.669,28.441,155.457,0,113.659,0,113.659L14.435,104.4l19.176,16.589c7.9-10.645,34.268-42.909,60.937-54.953,6.794-3.07,13.607-4.826,20.14-4.58a43.977,43.977,0,0,1,12.464,2.235c10.194,3.431,18.15,10.575,23.69,20.111.137.233.27.47.4.705,7.123,12.681,10.063,29.429,8.394,47.255" transform="translate(19.005 -5.075)" fill="#e6ebff"/>
        <path id="Path_904541" data-name="Path 904541" d="M70.266,68.813a.384.384,0,0,0-.426-.32.377.377,0,0,0-.32.427l1.524,10.756-7.593-1.6a.366.366,0,0,0-.383.164.362.362,0,0,0,.022.415l5.627,7.212c-2.943.869-22.052,6.844-30.367,17.915a.362.362,0,0,0,.072.508.368.368,0,0,0,.108.056.377.377,0,0,0,.11.017.364.364,0,0,0,.291-.145c8.874-11.815,30.284-17.74,30.5-17.8a.362.362,0,0,0,.192-.573L64.274,79l7.139,1.5a.37.37,0,0,0,.274-.052.361.361,0,0,0,.156-.228.226.226,0,0,0,0-.06.363.363,0,0,0,.006-.137Z" transform="translate(72.129 -5.659)" fill="#1c174f"/>
        <path id="Path_904542" data-name="Path 904542" d="M79.281,76.824a.348.348,0,0,0,.343-.213.326.326,0,0,0-.1-.385l-5.827-4.55,9.482-4.708a.354.354,0,0,0,.186-.22.325.325,0,0,0-.037-.265h0a.392.392,0,0,0-.5-.133l-9.9,4.916a.313.313,0,0,0-.1.074l-.05.039a.317.317,0,0,0-.094.25.333.333,0,0,0,.129.238l5.465,4.269-8.663-.124h0a.372.372,0,0,0-.3.141.323.323,0,0,0-.04.328c.058.128,5.735,13.088,5.532,24.551l0,.139.138-.011c.18-.015.209-.235.239-.468a1.542,1.542,0,0,1,.049-.258l.075-.009,0-.109c.162-10.3-4.105-21.117-5.157-23.62Z" transform="translate(32.209 -5.478)" fill="#1c174f"/>
        <path id="Path_904543" data-name="Path 904543" d="M75.969,126.953q1.243-7.014,2.667-13.994.782-3.831,1.617-7.653c.549-2.55,1.071-5.111,1.635-7.658.076-.352-.452-.54-.539-.18-.567,2.254-1.148,4.5-1.664,6.769s-1,4.545-1.482,6.823q-1.43,6.814-2.67,13.672c-.118.65-.226,1.3-.34,1.95.258.094.517.183.777.271" transform="translate(28.227 -8.037)" fill="#1c174f"/>
        <path id="Path_904544" data-name="Path 904544" d="M75.506,63.687,55.281,86.757l-.605.691L36.04,108.705c-.646-3.665,1.239-15.1,3.289-25.6q.12-.614.239-1.219c1.272-6.456,2.572-12.425,3.334-15.85,6.794-3.07,13.607-4.826,20.14-4.58a43.977,43.977,0,0,1,12.464,2.235" transform="translate(70.651 -5.075)" fill="#f94bb3"/>
        <path id="Path_904545" data-name="Path 904545" d="M43.244,26.938a69.763,69.763,0,0,0,2.5,10.47c1.183,3.912,2.462,7.8,3.531,11.744a10.764,10.764,0,0,0,12.652,7.7l4.51-.883.02.1.953,4.706.354,1.743,1.58,7.822S71.1,71.8,75.2,71.846a18,18,0,0,0,12.673-5.189l7-6.787L88.517,41.816c6.332-2.242,9.345-9.377,5.22-14.244-2.7-3.187-5.89-1.858-8.076-.209a21.828,21.828,0,0,0-40.51-14.637c-2.351,4.422-2.585,9.339-1.908,14.212" transform="translate(44.104 -0.127)" fill="#f0c9b9"/>
        <path id="Path_904546" data-name="Path 904546" d="M74.367,27.64a4.048,4.048,0,0,0-2.409-1.224,7.6,7.6,0,0,0-5.932,1.66,10.71,10.71,0,0,0-3.407,5.244,6.269,6.269,0,0,1-2.431-5.032A23.571,23.571,0,0,1,48.3,17.144C45.864,12.156,43.416,6.035,44.839.672,48.7.68,54.515-.493,58.3.242s7.474,3.537,10.267,6.2A19.665,19.665,0,0,1,73.834,16.2c.871,3.646.6,7.7.533,11.442" transform="translate(63.895 0)" fill="#1c174f"/>
        <path id="Path_904547" data-name="Path 904547" d="M65.329,18.89a2.9,2.9,0,0,0,1.468-.211,6.016,6.016,0,0,0,2.229,4.559c1.771,1.193,4.22.716,6.055-.385a10.62,10.62,0,0,0,4.22-4.715,3.041,3.041,0,0,0,2.77,2.248,3.652,3.652,0,0,0,1.715-.45c1.89-.991,2.981-3.027,3.66-5.046a38.946,38.946,0,0,1,2.046-6.036c.881-1.66,2.587-3.413,4.6-3.5,1.78-.083,3.642.615,5.477.6a2.364,2.364,0,0,0,1.605-.422,2.507,2.507,0,0,0,.642-1.44c.22-1.046.385-2.284-.376-3.046A3.073,3.073,0,0,0,99.226.405C97.208.387,95.19.625,93.171.68c-4.78.138-9.559-.7-14.32-.321a13.937,13.937,0,0,0-5.192,1.266H73.65a21.627,21.627,0,0,0-3.532,3.844,4.846,4.846,0,0,0-.239,2.449c-.486.073-.972.156-1.449.275a30.257,30.257,0,0,0-3.1,10.7" transform="translate(17.173 -0.022)" fill="#1c174f"/>
        <path id="Path_904548" data-name="Path 904548" d="M78.475,47.924a5.368,5.368,0,0,1-2.29.014.306.306,0,1,1,.128-.6,4.752,4.752,0,0,0,5.259-2.563.306.306,0,0,1,.55.269,5.355,5.355,0,0,1-3.647,2.879" transform="translate(27.28 -3.685)" fill="#1c174f"/>
        <path id="Path_904549" data-name="Path 904549" d="M59.729,65.26C71.443,61.514,73.4,55.824,73.4,55.824a63.339,63.339,0,0,1-14.624,4.729Z" transform="translate(51.782 -4.612)" fill="#c9907f"/>
        <path id="Path_904550" data-name="Path 904550" d="M47.711,40.562a.266.266,0,0,0,.044-.013.313.313,0,0,0,.184-.4,11.549,11.549,0,0,1-.342-6.867,7.624,7.624,0,0,1,1.648-3.248,4.529,4.529,0,0,1,3.118-1.562.314.314,0,0,0-.026-.627,5.185,5.185,0,0,0-3.557,1.768,8.239,8.239,0,0,0-1.791,3.512,12.174,12.174,0,0,0,.361,7.243.315.315,0,0,0,.36.2" transform="translate(83.685 -2.3)" fill="#1c174f"/>
        <path id="Path_904551" data-name="Path 904551" d="M71.286,34.575a2.285,2.285,0,1,0,1.756-2.713,2.285,2.285,0,0,0-1.756,2.713" transform="translate(37.946 -2.628)" fill="#1c174f"/>
        <path id="Path_904552" data-name="Path 904552" d="M89.422,38.459a2.285,2.285,0,1,0,1.756-2.713,2.285,2.285,0,0,0-1.756,2.713" transform="translate(3.172 -2.949)" fill="#1c174f"/>
        <path id="Path_904553" data-name="Path 904553" d="M87.042,44.124a.409.409,0,0,0-.013-.762,4.25,4.25,0,0,1-1.711-1.232c-.377-.5-.3-2.212-.25-3.465a16.57,16.57,0,0,0,.01-2.15c-.165-1.577-2.256-5.152-2.345-5.3a.408.408,0,0,0-.7.414c.581.989,2.115,3.811,2.237,4.974a15.8,15.8,0,0,1-.014,2.031c-.068,1.6-.139,3.261.415,3.992a5.04,5.04,0,0,0,2.085,1.507.407.407,0,0,0,.289-.006" transform="translate(16.602 -2.562)" fill="#1c174f"/>
        <path id="Path_904554" data-name="Path 904554" d="M76.308,28.579a.386.386,0,0,0,.081-.044.406.406,0,0,0,.1-.567,4.54,4.54,0,0,0-6.035-1.321.408.408,0,1,0,.415.7,3.723,3.723,0,0,1,4.95,1.083.409.409,0,0,0,.487.146" transform="translate(38.086 -2.15)" fill="#1c174f"/>
        <path id="Path_904555" data-name="Path 904555" d="M92.077,33.049a.413.413,0,0,0,.17-.128,4.132,4.132,0,0,1,3.685-1.544.408.408,0,1,0,.1-.81A4.969,4.969,0,0,0,91.6,32.42a.408.408,0,0,0,.475.628" transform="translate(-1.243 -2.523)" fill="#1c174f"/>
        <path id="Path_904556" data-name="Path 904556" d="M52.87,158.488l-7.294-5.063-4.719-3.271c.972-2.8,1.888-5.623,2.917-8.406q1.565-4.225,3.305-8.377c2.334-5.578,4.883-11.064,7.513-16.507q.237-.491.477-.982a.388.388,0,0,0-.222-.537l-.007,0a.389.389,0,0,0-.481.2c-2.452,5.062-4.845,10.155-7.067,15.322a182.561,182.561,0,0,0-6.478,17.083c-.191.6-.364,1.205-.528,1.811l-9.361-6.492c-1.382-.958-2.766-1.91-4.15-2.869s-2.732-1.975-4.19-2.8c-.284-.159-.646.242-.373.472,1.123.947,2.371,1.757,3.576,2.6l3.673,2.559q3.641,2.536,7.291,5.065,7.325,5.087,14.648,10.168l4.145,2.874c1.382.958,2.751,1.927,4.2,2.788.284.171.654-.25.375-.474-2.311-1.848-4.815-3.468-7.245-5.157" transform="translate(98.598 -9.528)" fill="#1c174f"/>
        <path id="Path_904557" data-name="Path 904557" d="M94.841,128.98c-.466,2.567-.89,5.146-1.341,7.715s-.9,5.136-1.325,7.709q-2.261,13.725-3.821,27.556-.473,4.212-.872,8.437h-.83q.486-5.1,1.077-10.194.806-6.971,1.793-13.918.985-6.894,2.147-13.763.589-3.442,1.222-6.874c.429-2.285.925-4.554,1.4-6.827.074-.364.608-.2.546.159" transform="translate(4.763 -10.627)" fill="#1c174f"/>
        <path id="Path_904558" data-name="Path 904558" d="M118.359,100.41s5.483-3.411,7.738,3.92c2.093,6.808,6.357,22.5-6.527,32.713-5.5,4.358-12.45,2.732-12.606,2.617L105.809,139l.689,1.334L96.356,155.73a3,3,0,0,0-.363,2.627,3.054,3.054,0,0,0,3.526,2.07c9.358-1.88,25.813-7.744,33-26,10.337-26.254-5.6-47.86-5.6-47.86Z" transform="translate(-44.828 -7.152)" fill="#4c347a"/>
        <path id="Path_904559" data-name="Path 904559" d="M105.577,140.032s-6.463-3.81-7.473-5.63-7.633-20.446-10.923-20.259-18.015,1.992-18.857,4.273S63.86,133.3,65.953,136.548s3.379.78,3.379.78.442,2.661,2.8,3.111,2.282-2.007,2.282-2.007.941,2.893,3,2.743S79.61,138.2,79.61,138.2s2.966,7.212,7.8,10.3,9.823,6.375,9.823,6.375Z" transform="translate(13.609 -9.431)" fill="#f0c9b9"/>
        <path id="Path_904560" data-name="Path 904560" d="M98.71,133.48l-.387.3c.011.17.023.4.031.684v.006c.053.994.111,2.555.115,3.514a.033.033,0,0,0,0,.025c0,.174,0,.33-.006.46a5.568,5.568,0,0,1-.057.624,5.792,5.792,0,0,1-.172.907,3.322,3.322,0,0,1-2.515,2.483,2.592,2.592,0,0,1-.624.074h-.006a2.039,2.039,0,0,1-.336-.033h-.006a3.52,3.52,0,0,1-2.209-2.027H92.53a.036.036,0,0,0-.008-.021l0-.006a2.474,2.474,0,0,0-.112-.233.006.006,0,0,0,0-.007,7.375,7.375,0,0,1-.317-.851c0-.038-.022-.11-.027-.185l0-.018s-.006,0,0-.006c-.227-1.426-1.117-7.589-.59-9.412a3.024,3.024,0,0,1,.43-.852,10.185,10.185,0,0,1,1.337-1.526c.418-.4.868-.8,1.321-1.18.347-.289.693-.565,1.02-.814.006,0,0-.006,0-.006.947-.722,1.735-1.262,1.935-1.4a.507.507,0,0,1,.727.139.528.528,0,0,1-.139.727c-.664.447-1.473,1.033-2.267,1.666v.006c-.358.28-.712.568-1.041.86-.469.4-.9.805-1.271,1.183a4.439,4.439,0,0,0-1.054,1.48,8.544,8.544,0,0,0-.1,2.29c.1,2.266.511,5.383.726,6.805a.107.107,0,0,1,.007.027,5.891,5.891,0,0,0,.664,1.378,2.856,2.856,0,0,0,.536.619,1.484,1.484,0,0,0,.66.331.971.971,0,0,0,.36.006h.006a.571.571,0,0,0,.14-.017,2.261,2.261,0,0,0,1.735-1.655,5.3,5.3,0,0,0,.216-1.391c.036-1.132-.155-4.835-.155-4.866a.58.58,0,0,1,.108-.34l.007-.005a.333.333,0,0,1,.093-.094l1.586-1.236a.518.518,0,0,1,.735.1.5.5,0,0,1-.094.723Z" transform="translate(-4.565 -10.235)" fill="#1c174f"/>
        <path id="Path_904561" data-name="Path 904561" d="M92.923,136.171a.538.538,0,0,1-.122-.039l-2.244-1.038a.522.522,0,0,1,.439-.948l2.244,1.038a.522.522,0,0,1-.316.987" transform="translate(2.762 -11.08)" fill="#1c174f"/>
        <path id="Path_904562" data-name="Path 904562" d="M96.984,141.414c-1.8-.343-2.67-3.338-2.71-3.481a.512.512,0,0,1-.017-.2c.043-.356,1.056-8.744,1.693-11.73.677-3.175,7.072-5.9,7.8-6.2a.522.522,0,1,1,.4.964c-1.835.76-6.7,3.221-7.177,5.457-.589,2.761-1.542,10.525-1.664,11.53.261.844,1.108,2.839,2.174,2.642a2.426,2.426,0,0,0,1.872-1.633.531.531,0,0,1,.642-.362.522.522,0,0,1,.364.638,3.468,3.468,0,0,1-2.693,2.384,1.859,1.859,0,0,1-.683,0" transform="translate(-11.835 -9.894)" fill="#1c174f"/>
        <path id="Path_904563" data-name="Path 904563" d="M97.573,139.013h-.006a3.079,3.079,0,0,1-1.976-2.075c-.36-1.12,2.612-14.611,3.7-16.786,1.3-2.6,7.414-3.175,8.108-3.23a.521.521,0,1,1,.085,1.039c-1.721.142-6.379.894-7.259,2.658-1.168,2.337-3.754,15.029-3.627,16.041.147.45.631,1.225,1.17,1.328h0c.473.09.967-.365,1.3-.764a.522.522,0,1,1,.8.668,2.435,2.435,0,0,1-2.3,1.122" transform="translate(-16.525 -9.66)" fill="#1c174f"/>
        <path id="Path_904564" data-name="Path 904564" d="M79.632,182.773H78.09q-2.987-1.91-5.869-3.982a125.716,125.716,0,0,1-12.459-10.225.4.4,0,0,1-.057-.486q1.638-2.664,3.271-5.324c1.089-1.771,2.152-3.573,3.36-5.268a.27.27,0,0,1,.463.275c-.961,1.848-2.078,3.614-3.159,5.393q-1.538,2.528-3.075,5.057,3.21,2.959,6.609,5.705a126.421,126.421,0,0,0,12.456,8.855" transform="translate(44.749 -13.002)" fill="#1c174f"/>
        <rect id="Rectangle_406739" data-name="Rectangle 406739" width="10.054" height="21.89" transform="matrix(-0.853, -0.522, 0.522, -0.853, 88.934, 64.428)" fill="#2e1859"/>
        <path id="Path_904565" data-name="Path 904565" d="M125.462,98.941l-5.378-3.386-3.566,6.976,4.906,3,4.907,3,4.591-6.347Z" transform="translate(-58.713 -7.895)" fill="#2e1859"/>
        <rect id="Rectangle_406740" data-name="Rectangle 406740" width="13.878" height="32.153" transform="translate(72.684 94.644) rotate(-148.524)" fill="#dad4ff"/>
        <rect id="Rectangle_406741" data-name="Rectangle 406741" width="13.877" height="1.492" transform="matrix(-0.853, -0.522, 0.522, -0.853, 72.384, 95.132)" fill="#4c347a"/>
        <path id="Path_904566" data-name="Path 904566" d="M109,72.438,97.167,65.191l2.96-2.061,9.365,5.734Z" transform="translate(-19.53 -5.216)" fill="#4c347a"/>
        <path id="Path_904567" data-name="Path 904567" d="M84.318,42.2,94.24,48.28l-1.507,1.014L84.1,44.008Z" transform="translate(7.71 -3.487)" fill="#4c347a"/>
        <rect id="Rectangle_406742" data-name="Rectangle 406742" width="10.969" height="1.516" transform="translate(89.953 63.642) rotate(-148.522)" fill="#4c347a"/>
        <path id="Path_904568" data-name="Path 904568" d="M134.481,109.49l-3.692-1.88.15,1.066,4.83,2.957,1.039-.338Z" transform="translate(-77.689 -8.891)" fill="#2e1859"/>
        <rect id="Rectangle_406743" data-name="Rectangle 406743" width="7.083" height="0.894" transform="matrix(-0.853, -0.522, 0.522, -0.853, 59.119, 102.404)" fill="#2e1859"/>
        <rect id="Rectangle_406744" data-name="Rectangle 406744" width="5.663" height="9.385" transform="translate(53.179 110.746) rotate(-148.527)" fill="#4c347a"/>
        <path id="Path_904569" data-name="Path 904569" d="M141.027,119a.254.254,0,0,1-.1-.019,24.394,24.394,0,0,1-4.9-3,.27.27,0,0,1,.335-.425,24.35,24.35,0,0,0,4.761,2.918.27.27,0,0,1-.1.521" transform="translate(-86.892 -9.543)" fill="#ccc0ff"/>
        <path id="Path_904570" data-name="Path 904570" d="M141.2,103.905l-2.7-3.142-.266,1.043,3.344,4.57,1.09.083Z" transform="translate(-90.369 -8.325)" fill="#2e1859"/>
        <rect id="Rectangle_406745" data-name="Rectangle 406745" width="7.083" height="0.893" transform="matrix(-0.59, -0.807, 0.807, -0.59, 52.293, 98.134)" fill="#2e1859"/>
        <rect id="Rectangle_406746" data-name="Rectangle 406746" width="5.663" height="9.385" transform="translate(43.629 103.593) rotate(-126.19)" fill="#4c347a"/>
        <path id="Path_904571" data-name="Path 904571" d="M149.383,111.58a.269.269,0,0,1-.187-.075,24.467,24.467,0,0,1-3.392-4.632.27.27,0,1,1,.471-.266,24.354,24.354,0,0,0,3.3,4.508.27.27,0,0,1-.187.465" transform="translate(-104.277 -8.797)" fill="#ccc0ff"/>
        <path id="Path_904572" data-name="Path 904572" d="M125.181,112.257l4.026.977-.808.711-5.591-.9-.569-.933Z" transform="translate(-62.245 -9.263)" fill="#2e1859"/>
        <rect id="Rectangle_406747" data-name="Rectangle 406747" width="7.083" height="0.894" transform="translate(66.987 103.976) rotate(-170.849)" fill="#2e1859"/>
        <rect id="Rectangle_406748" data-name="Rectangle 406748" width="5.663" height="9.385" transform="translate(64.661 113.949) rotate(-170.846)" fill="#4c347a"/>
        <path id="Path_904573" data-name="Path 904573" d="M130,122.405h-.012a24.323,24.323,0,0,1-5.668-.915.27.27,0,0,1,.177-.511,24.279,24.279,0,0,0,5.513.886.27.27,0,0,1-.011.539" transform="translate(-65.043 -9.994)" fill="#ccc0ff"/>
        <path id="Path_904574" data-name="Path 904574" d="M139.618,109.76,119.436,97.4a2.192,2.192,0,0,1,3.013-.725l16.445,10.069a2.191,2.191,0,0,1,.725,3.013" transform="translate(-70.408 -7.961)" fill="#4c347a"/>
        <path id="Path_904575" data-name="Path 904575" d="M141.111,109.854,120.929,97.5a1.6,1.6,0,0,0-1.144,1.869l20.182,12.357a1.6,1.6,0,0,0,1.144-1.869" transform="translate(-71.901 -8.055)" fill="#2e1859"/>
        <path id="Path_904576" data-name="Path 904576" d="M121.035,99.534s.738,4.324,8.366,8.995,11.816,3.362,11.816,3.362Z" transform="translate(-73.151 -8.224)" fill="#4c347a"/>
        <path id="Path_904577" data-name="Path 904577" d="M111.889,90.221a7.426,7.426,0,1,1-2.456-10.211,7.427,7.427,0,0,1,2.456,10.211" transform="translate(-23.903 -6.52)" fill="#2e1859"/>
        <path id="Path_904578" data-name="Path 904578" d="M110,89.152a4.953,4.953,0,1,1-1.638-6.811A4.952,4.952,0,0,1,110,89.152" transform="translate(-24.126 -6.743)" fill="#5e4893"/>
        <path id="Path_904579" data-name="Path 904579" d="M107.172,87.549a1.242,1.242,0,1,1-.411-1.708,1.243,1.243,0,0,1,.411,1.708" transform="translate(-24.46 -7.077)" fill="#2e1859"/>
        <path id="Path_904580" data-name="Path 904580" d="M160.076,186.694H97.731V176.1a3.114,3.114,0,0,1,.252-1.249,1.625,1.625,0,0,1,1.4-1.1h59.046a1.452,1.452,0,0,1,1.166.688,2.916,2.916,0,0,1,.483,1.662Z" transform="translate(-70.631 -14.355)" fill="#4c347a"/>
        <path id="Path_904581" data-name="Path 904581" d="M143.311,138.466l2.126-3.736-18.315-10.355L125.8,126.7a1.628,1.628,0,0,0,.61,2.22l7.478,4.256-3.157,5.547a1.628,1.628,0,0,0,.609,2.22l17.237,9.809,3.962-6.963Z" transform="translate(-88.652 -10.276)" fill="#4c347a"/>
        <rect id="Rectangle_406749" data-name="Rectangle 406749" width="34.586" height="3.242" transform="matrix(-0.869, -0.495, 0.495, -0.869, 64.305, 128.789)" fill="#2e1859"/>
        <path id="Path_904582" data-name="Path 904582" d="M101.5,171.613h0a6.915,6.915,0,0,1,6.065-6.863l9.977-1.237s-1.842-14.993,6.072-15.562c9.21-.663,10.426,14.062,10.426,14.062s11.687.758,11.687,9.6Z" transform="translate(-59.734 -12.222)" fill="#dad4ff"/>
        <path id="Path_904583" data-name="Path 904583" d="M129.8,157.491a7.426,7.426,0,1,1-2.456-10.211,7.427,7.427,0,0,1,2.456,10.211" transform="translate(-58.243 -12.078)" fill="#2e1859"/>
        <path id="Path_904584" data-name="Path 904584" d="M127.913,156.423a4.953,4.953,0,1,1-1.638-6.811,4.952,4.952,0,0,1,1.638,6.811" transform="translate(-58.466 -12.301)" fill="#5e4893"/>
        <path id="Path_904585" data-name="Path 904585" d="M125.082,154.819a1.242,1.242,0,1,1-.411-1.708,1.243,1.243,0,0,1,.411,1.708" transform="translate(-58.8 -12.635)" fill="#2e1859"/>
      </g>
    </g>
  </g>
</svg>
