<svg xmlns="http://www.w3.org/2000/svg" xmlns:xlink="http://www.w3.org/1999/xlink" width="190.051" height="355.297" viewBox="0 0 190.051 355.297">
  <defs>
    <clipPath id="clip-path">
      <rect id="Rectangle_406738" data-name="Rectangle 406738" width="190.051" height="355.297" rx="8" transform="translate(284.949 11180.703)" fill="#e2dacc"/>
    </clipPath>
    <clipPath id="clip-path-2">
      <rect id="Rectangle_406737" data-name="Rectangle 406737" width="168.346" height="440.133" fill="none"/>
    </clipPath>
  </defs>
  <g id="Group_1113678" data-name="Group 1113678" transform="translate(-284.949 -11180.703)">
    <rect id="Rectangle_406524" data-name="Rectangle 406524" width="190.051" height="355.297" rx="8" transform="translate(284.949 11180.703)" fill="#65a532"/>
    <g id="Mask_Group_1098748" data-name="Mask Group 1098748" clip-path="url(#clip-path)">
      <g id="Group_1113677" data-name="Group 1113677" transform="translate(295.802 11193.203)" clip-path="url(#clip-path-2)">
        <path id="Path_904497" data-name="Path 904497" d="M68.935,313.817s-14.859,11.319-16.14,28.892-9.239,57.044-9.239,57.044l5.67,24.665,9.834,4.528-2.9-24.524s26.545-71.21,32.619-83.17-11.147-23.862-19.847-7.435" transform="translate(34.738)" fill="#ffa4cd"/>
        <path id="Path_904498" data-name="Path 904498" d="M79.11,398.926a11.1,11.1,0,0,0-6.966,8.347c-1.326,6.578-2.739,16.154-2.739,16.154l1.054.606,5.2-10.414s1.47,12.3,3.3,14.082,16.418,12.13,19.7,9.1-4.427-10.931-4.427-10.931-6.066,2.837-9.168-2.753-5.95-24.194-5.95-24.194" transform="translate(-0.529)" fill="#1c174f"/>
        <path id="Path_904499" data-name="Path 904499" d="M87.649,407.174s.6,23.041,3.378,28,16.854,9.006,17.97-2.374l-3.218-11.23-5.285-9.48Z" transform="translate(-28.3)" fill="#1c174f"/>
        <path id="Path_904500" data-name="Path 904500" d="M90.951,350.263c1,5.191,1.981,10.177,2.937,14.867,4.234,11.224,11.11,28.845,15.754,40.683,1.275,3.256,2.391,6.079,3.233,8.2,1.047,2.687,1.685,4.28,1.685,4.28s1.525,7.081,4.3,7.377c5.145,1.3,9.243-1.685,10.95-3.21a12.074,12.074,0,0,0,.866-.865l-.069-.205-3.938-13.933s-.228-1.275-.615-3.529v-.091c-2.277-13.592-9.972-61.834-8.037-81.026,2.277-22.425-24.2-27.98-23.4,2.982a70.055,70.055,0,0,0-3.665,24.474" transform="translate(-53.235)" fill="#ffa4cd"/>
        <path id="Path_904501" data-name="Path 904501" d="M66.249,149.872l51.862-.046c11.894,24.649,20.1,52.037,25.732,79.3l.039.183q.636,3.081,1.229,6.155c.59,3.029,1.158,6.053,1.686,9.067,1.184,6.648,2.209,13.25,3.074,19.761.865,6.284,1.594,12.476,2.231,18.578A771.611,771.611,0,0,1,130.7,393c-5.327,3.642-12.339,5.054-18.987,5.395a66.371,66.371,0,0,1-7.376.023c-.911-.046-1.8-.091-2.664-.159.114,1.457.182,2.253.182,2.253-1.457.547-2.846,1.048-4.212,1.48a1.217,1.217,0,0,1-.273.091c-2.094.683-4.052,1.252-5.9,1.731-.022,0-.068.022-.091.022a56.67,56.67,0,0,1-16.414,1.981c-5.419-.273-7.855-1.639-7.855-1.639s-3.369-16.142-7.9-39.045c-.956-4.69-1.935-9.675-2.936-14.866-9.289-47.355-21.2-111.625-21.469-130.931-.433-31.713,31.44-69.46,31.44-69.46M94.07,245.6c-.842,17.985.706,51.634,2.618,83.007.137-.683.273-1.389.433-2.118.478-2.3.956-4.644,1.5-7.08.251-1.207.524-2.413.82-3.665.546-2.482,1.161-5.032,1.8-7.65.3-1.229.615-2.5.934-3.779.683-2.755,1.411-5.578,2.185-8.492-.546-2.846-1.07-5.6-1.593-8.287-.456-2.368-.911-4.69-1.366-6.921-.729-3.688-1.435-7.172-2.1-10.4-1.889-9.244-3.437-16.461-4.371-20.627a.288.288,0,0,1-.023-.137c-.113-.523-.2-1-.318-1.434-.069-.319-.137-.615-.183-.865v-.023c-.227-1-.341-1.525-.341-1.525" transform="translate(-18.561)" fill="#3b276d"/>
        <path id="Path_904502" data-name="Path 904502" d="M39.709,270.206c-.018.015-.038.028-.057.042-2.31-11.291-4.115-19.637-4.841-23.1.841-12.278,2.069-20.061,2.069-20.061a195.185,195.185,0,0,0,41.109-23.673c.973,3.594,1.854,7.189,2.729,10.783.036-.072.076-.145.112-.217A517.923,517.923,0,0,1,92.5,282.88,770.991,770.991,0,0,1,71.1,393c-8.186,5.6-20.357,5.931-29.032,5.249.119,1.47.186,2.273.186,2.273-1.583-9.584-3.267-40.438-4.72-74.017,1.862-9.2,4.21-19.28,7.225-30.674-1.8-9.479-3.533-18.19-5.053-25.622" transform="translate(41.031)" fill="#2e1859"/>
        <path id="Path_904503" data-name="Path 904503" d="M41.07,286.844c41.351,0,68.218-2.016,86.3-4.394.5-.065,1-.14,1.486-.205,25.567-3.493,32.925-7.664,39.493-7.478l-36.009-132.8s12.477-17.763,9.216-34.792c-.576-3-1.087-6.03-1.505-9.067C128.1,86.342,113.794,74.571,99.413,68.077c-7.59-3.428-15.2-5.388-22.492-5.118A49.347,49.347,0,0,0,63,65.458C51.614,69.285,42.724,77.265,36.536,87.921q-.222.392-.446.781c-20.206,35.972-9.875,191.193,4.98,198.142" transform="translate(-24.836)" fill="#e6ebff"/>
        <path id="Path_904504" data-name="Path 904504" d="M92.034,70.532a.429.429,0,0,1,.475-.358.421.421,0,0,1,.358.476l-1.7,12.014,8.48-1.783a.406.406,0,0,1,.4.646l-6.285,8.056c3.287.969,24.628,7.642,33.914,20.006a.4.4,0,0,1-.08.568.361.361,0,0,1-.12.062.4.4,0,0,1-.123.02.406.406,0,0,1-.325-.163C117.118,96.881,93.208,90.264,92.968,90.2a.4.4,0,0,1-.214-.64L98.726,81.9,90.752,83.58a.412.412,0,0,1-.306-.058.4.4,0,0,1-.174-.255.262.262,0,0,1,0-.067.4.4,0,0,1-.007-.153Z" transform="translate(-49.67)" fill="#1c174f"/>
        <path id="Path_904505" data-name="Path 904505" d="M84.823,79.68a.388.388,0,0,1-.383-.238.363.363,0,0,1,.116-.43l6.507-5.082L80.474,68.672a.4.4,0,0,1-.209-.246.368.368,0,0,1,.042-.3h0a.436.436,0,0,1,.563-.149l11.059,5.49a.348.348,0,0,1,.111.084l.055.042a.361.361,0,0,1,.105.278.375.375,0,0,1-.145.266l-6.1,4.767,9.675-.138h.005a.414.414,0,0,1,.33.158.357.357,0,0,1,.044.366c-.064.143-6.4,14.618-6.177,27.419l0,.155-.154-.012c-.2-.017-.233-.262-.267-.523a1.712,1.712,0,0,0-.054-.287l-.085-.011,0-.122c-.181-11.506,4.586-23.584,5.76-26.378Z" transform="translate(-7.943)" fill="#1c174f"/>
        <path id="Path_904506" data-name="Path 904506" d="M89.376,139.606c-.925-5.222-3.312-17.231-4.372-22.427q-.873-4.28-1.807-8.547c-.613-2.848-1.2-5.707-1.825-8.552-.085-.394.5-.6.6-.2.633,2.517,1.281,5.028,1.858,7.56s1.121,5.075,1.656,7.619q1.6,7.611,2.981,15.269c.132.725,1.34,7.43,1.469,8.156-.289.1-.272,1.025-.562,1.123" transform="translate(-2.956)" fill="#1c174f"/>
        <path id="Path_904507" data-name="Path 904507" d="M85.963,65.458l22.588,25.766.676.771,20.813,23.74c.721-4.092-1.384-16.861-3.673-28.594q-.134-.686-.267-1.362c-1.422-7.21-2.873-13.877-3.724-17.7-7.587-3.428-15.2-5.39-22.492-5.114a49.088,49.088,0,0,0-13.921,2.495" transform="translate(-47.801)" fill="#3d66be"/>
        <path id="Path_904508" data-name="Path 904508" d="M138.815,29.421a24.2,24.2,0,0,1-2.938-3.144,7.7,7.7,0,0,0-3.445-2.493A3.4,3.4,0,0,0,128.612,25a13.269,13.269,0,0,0-18.837,12.371,10.554,10.554,0,0,0-5.151,7.7,16.468,16.468,0,0,0,1.571,9.338,16.7,16.7,0,0,0,7.417,8.127,10.847,10.847,0,0,0,10.7-.381c1.71,2.653,5.184,3.806,8.309,3.364a15.423,15.423,0,0,0,8.208-4.411,23.56,23.56,0,0,0,7.39-14.767,19.207,19.207,0,0,0-5.5-15.368Z" transform="translate(-84.413)" fill="#1c174f"/>
        <path id="Path_904509" data-name="Path 904509" d="M122.641,29.943a77.981,77.981,0,0,1-2.787,11.693c-1.322,4.369-2.751,8.708-3.944,13.116a12.023,12.023,0,0,1-14.131,8.6l-5.036-.986-.023.108-1.064,5.257-.4,1.946L93.5,78.415s-1.966,1.627-6.54,1.682A20.1,20.1,0,0,1,72.8,74.3l-7.819-7.58,7.095-20.164c-7.072-2.5-10.437-10.472-5.83-15.908,3.02-3.559,6.579-2.075,9.019-.233A24.378,24.378,0,0,1,120.51,14.071c2.626,4.938,2.888,10.43,2.131,15.872" transform="translate(-18.8)" fill="#f0c9b9"/>
        <path id="Path_904510" data-name="Path 904510" d="M93.318,49.836,81.993,42.7s-5.447,12.963,11.325,7.135" transform="translate(-6.12)" fill="#fff"/>
        <path id="Path_904511" data-name="Path 904511" d="M88.021,30.868a4.529,4.529,0,0,1,2.69-1.367,8.489,8.489,0,0,1,6.624,1.854,11.964,11.964,0,0,1,3.806,5.857,7,7,0,0,0,2.715-5.62,26.324,26.324,0,0,0,13.28-12.446C119.853,13.576,122.588,6.74,121,.751c-4.309.008-10.806-1.3-15.036-.481S97.616,4.221,94.5,7.193a21.979,21.979,0,0,0-5.88,10.9c-.972,4.071-.665,8.595-.595,12.779" transform="translate(-41.042)" fill="#1c174f"/>
        <path id="Path_904512" data-name="Path 904512" d="M69,9.861c1.116,2.1,1.538,4.489,2.293,6.744s1.977,4.531,4.086,5.632a4.027,4.027,0,0,0,1.918.505,3.386,3.386,0,0,0,3.089-2.506A11.927,11.927,0,0,0,85.1,25.5c2.049,1.224,4.785,1.757,6.765.424a6.693,6.693,0,0,0,2.489-5.091c2.2.929,4.917-.765,5.526-3.076A6.488,6.488,0,0,0,97.5,11.4a13.11,13.11,0,0,0-6.592-2.581A6.713,6.713,0,0,0,87.878,2.5,13.984,13.984,0,0,0,80.888.381c-5.32-.42-10.66.51-15.994.356C62.638.672,60.387.413,58.129.427a3.441,3.441,0,0,0-2.469.712c-.843.843-.659,2.231-.415,3.4a2.834,2.834,0,0,0,.718,1.611,2.67,2.67,0,0,0,1.79.474c2.051.014,4.126-.759,6.121-.669,2.238.1,4.142,2.057,5.125,3.908" transform="translate(13.264)" fill="#1c174f"/>
        <path id="Path_904513" data-name="Path 904513" d="M105.694,67.733C92.611,63.549,90.426,57.195,90.426,57.195a70.752,70.752,0,0,0,16.332,5.281Z" transform="translate(-28.838)" fill="#d29d8d"/>
        <path id="Path_904514" data-name="Path 904514" d="M117.992,42.731a.45.45,0,0,1-.049-.014.351.351,0,0,1-.206-.451,12.887,12.887,0,0,0,.382-7.668,8.531,8.531,0,0,0-1.84-3.628,5.059,5.059,0,0,0-3.482-1.745.35.35,0,0,1,.028-.7A5.79,5.79,0,0,1,116.8,30.5a9.211,9.211,0,0,1,2,3.922,13.584,13.584,0,0,1-.4,8.089.35.35,0,0,1-.4.221" transform="translate(-63.344)" fill="#1c174f"/>
        <path id="Path_904515" data-name="Path 904515" d="M93.936,35.678a2.552,2.552,0,1,1-1.961-3.03,2.552,2.552,0,0,1,1.961,3.03" transform="translate(-14.535)" fill="#1c174f"/>
        <path id="Path_904516" data-name="Path 904516" d="M75.354,39.658a2.552,2.552,0,1,1-1.961-3.03,2.552,2.552,0,0,1,1.961,3.03" transform="translate(22.628)" fill="#1c174f"/>
        <path id="Path_904517" data-name="Path 904517" d="M77.331,46.417a.456.456,0,0,1,.015-.851,4.766,4.766,0,0,0,1.91-1.377c.421-.554.339-2.47.279-3.869a18.6,18.6,0,0,1-.012-2.4c.185-1.762,2.52-5.754,2.62-5.923a.455.455,0,1,1,.785.461c-.649,1.1-2.362,4.257-2.5,5.556a17.888,17.888,0,0,0,.015,2.268c.077,1.791.156,3.643-.463,4.459a5.619,5.619,0,0,1-2.328,1.683.454.454,0,0,1-.323-.006" transform="translate(8.31)" fill="#1c174f"/>
        <path id="Path_904518" data-name="Path 904518" d="M88.236,29.516a.494.494,0,0,1-.09-.049.453.453,0,0,1-.114-.633,5.068,5.068,0,0,1,6.739-1.475.455.455,0,1,1-.463.784,4.16,4.16,0,0,0-5.528,1.21.455.455,0,0,1-.544.163" transform="translate(-14.6)" fill="#1c174f"/>
        <path id="Path_904519" data-name="Path 904519" d="M72.587,34.092a.463.463,0,0,1-.19-.143,4.614,4.614,0,0,0-4.116-1.724.456.456,0,0,1-.108-.9,5.545,5.545,0,0,1,4.944,2.071.455.455,0,0,1-.53.7" transform="translate(27.362)" fill="#1c174f"/>
        <path id="Path_904520" data-name="Path 904520" d="M64.334,132.152c.52,2.871.994,5.751,1.5,8.621s1,5.733,1.477,8.6q2.521,15.328,4.264,30.779c.316,2.768,8.148,81.559,10.191,102.294.5-.065,1-.139,1.487-.2C81.121,261.788,72.667,181.567,72.277,178.2q-.906-7.791-2.007-15.543-1.1-7.707-2.4-15.375-.655-3.847-1.366-7.674c-.483-2.555-1.031-5.082-1.57-7.628-.084-.408-.678-.213-.6.177" transform="translate(20.769)" fill="#1c174f"/>
        <path id="Path_904521" data-name="Path 904521" d="M76.388,99.451l-24.017-30.6a1.247,1.247,0,1,1,1.965-1.537L77.942,97.6Z" transform="translate(38.299)" fill="#274590"/>
        <path id="Path_904522" data-name="Path 904522" d="M65.163,94.95s-5.27-11.537-10.11-11.183a4.957,4.957,0,0,0-5.947-2.192s-1.348-4.09-5.1-2.483c0,0-1.64-3.289-4.545-2.09s-7.286,9.805-5.068,11.609,4.824-1.764,4.824-1.764.429,5.432,5.027,4.357c0,0,3.03,3.565,5.4.86,0,0-.714,4.175,2.592,3.123,1.38-.439,2.84-3.551,2.84-3.551Z" transform="translate(69.399)" fill="#f0c9b9"/>
        <path id="Path_904523" data-name="Path 904523" d="M57,89.615a3.006,3.006,0,0,0,.754-.041c1.975-.352,3.44-2.526,3.5-2.618a.458.458,0,1,0-.763-.508c-.014.018-1.313,1.941-2.9,2.224a2.133,2.133,0,0,1-1.69-.43c-.606-.443-.545-1.461-.387-2.238.681-3.336,4.327-8.367,5.946-8.743,2.116-.488,3.32,1.928,3.371,2.032a.459.459,0,0,0,.826-.4c-.532-1.1-2.142-3.054-4.4-2.526-2.124.493-5.909,5.882-6.638,9.453-.385,1.883.191,2.759.743,3.161A3.148,3.148,0,0,0,57,89.615" transform="translate(48.163)" fill="#1c174f"/>
        <path id="Path_904524" data-name="Path 904524" d="M54.08,91.665a2.171,2.171,0,0,0,.492-.009.459.459,0,0,0-.157-.9,5.879,5.879,0,0,1-3.063-.988,2.252,2.252,0,0,1-1.018-1.436c-.315-1.879,1.562-4.858,2.684-6.637l.251-.4c1.138-1.817,1.815-2.339,3.572-1.853a3.012,3.012,0,0,1,2.067,2.226.459.459,0,0,0,.9-.172,3.936,3.936,0,0,0-2.725-2.938c-2.3-.64-3.347.261-4.593,2.251l-.251.4c-1.268,2.013-3.185,5.054-2.811,7.278a3.124,3.124,0,0,0,1.392,2.032,7.055,7.055,0,0,0,3.258,1.153" transform="translate(59.146)" fill="#1c174f"/>
        <path id="Path_904525" data-name="Path 904525" d="M46.3,93.487a2.729,2.729,0,0,0,2.677-1.363.458.458,0,1,0-.827-.4c-.072.141-.778,1.4-2.884.577a1.278,1.278,0,0,1-.743-.826c-.556-1.555.357-4.53,1.23-6.077.555-.985,2.6-4.156,5.314-3.64A3.388,3.388,0,0,1,53.821,83.9a.458.458,0,0,0,.881-.254,4.285,4.285,0,0,0-3.466-2.781c-3.35-.616-5.653,2.973-6.283,4.091-.95,1.685-1.98,4.919-1.3,6.837a2.169,2.169,0,0,0,1.274,1.371,4.7,4.7,0,0,0,1.367.327" transform="translate(70.191)" fill="#1c174f"/>
        <path id="Path_904526" data-name="Path 904526" d="M35.531,95.481a2.222,2.222,0,0,0,.86-.115c2.156-.713,4-4.555,4.083-4.718a.459.459,0,0,0-.829-.394c-.483,1.013-2.061,3.752-3.543,4.241a1.168,1.168,0,0,1-.959-.064c-1.32-.7-1.013-2.913-.284-4.747,1.111-2.8,3.009-6.022,5.716-5.49,2.576.5,7.007,8.086,8.5,10.966a.458.458,0,1,0,.815-.42c-.569-1.1-5.661-10.769-9.137-11.446-1.842-.359-4.5.4-6.744,6.052-1.117,2.811-.846,5.069.707,5.894a2.019,2.019,0,0,0,.818.241" transform="translate(85.083)" fill="#1c174f"/>
        <path id="Path_904527" data-name="Path 904527" d="M86.545,77.268l-61.3,9.343L0,162.644l59.88-9.12Z" transform="translate(81.801)" fill="#1c174f"/>
        <path id="Path_904528" data-name="Path 904528" d="M49.028,155.328l7.835-.127s15.844-14.406,19.3-14.653c.35-.021.955-.082,1.752-.15,2.6-.25,7.319-.718,12.258-1.084a2.5,2.5,0,0,1,.4-.03c.145-.022.293-.023.439-.035,8.166-.611,16.639-.941,17,.356.569,2.027-8.625,6.022-11.264,7.119-.438.183-.695.28-.695.28s3.544,1.913,2.812,4.646c-.572,2.15-3.713,3.531-5.011,4.031-.11.029-.195.065-.271.088a3.1,3.1,0,0,1-.3.1s.1.143.253.381a3.8,3.8,0,0,1,.211.4,6.486,6.486,0,0,1,.449.977A5.184,5.184,0,0,1,94.495,159a2.275,2.275,0,0,1,.017.475,3.7,3.7,0,0,1-.093.709,3.179,3.179,0,0,1-.455,1.016,4.082,4.082,0,0,1-1,.976,1.589,1.589,0,0,1,.257.335c.355.661.772,2.3-1.745,4.975-.877.934-3.336,2.231-6.518,3.642L52.686,176.1c-1.5-6.923-3.158-13.723-3.658-20.775" transform="translate(11.275)" fill="#f0c9b9"/>
        <path id="Path_904529" data-name="Path 904529" d="M66.937,156.263c.85-.134,4.318-.863,5.4-3.983,1.229-3.564-2.537-5.819-2.574-5.841a.423.423,0,0,0-.264-.055l-11.214,1.375a.41.41,0,0,0-.367.47.421.421,0,0,0,.47.367l11.064-1.357c.578.378,2.993,2.144,2.089,4.766-1.029,2.978-4.841,3.437-4.874,3.445a.414.414,0,0,0-.374.466.422.422,0,0,0,.465.372c.02,0,.083-.009.183-.025" transform="translate(37.856)" fill="#1c174f"/>
        <path id="Path_904530" data-name="Path 904530" d="M71.483,162.584a.442.442,0,0,0,.164-.062,3.862,3.862,0,0,0,1.842-2.611,6.458,6.458,0,0,0-1.287-4.39.421.421,0,0,0-.36-.165l-8.2.49a.421.421,0,1,0,.05.841l7.969-.475a5.429,5.429,0,0,1,1,3.557,3.019,3.019,0,0,1-1.393,1.994l-8.933,1.26a.431.431,0,0,0-.358.476.422.422,0,0,0,.476.359l9.027-1.273h.006" transform="translate(32.829)" fill="#1c174f"/>
        <path id="Path_904531" data-name="Path 904531" d="M103.1,154.042q9.1-.447,18.2-.59a213.448,213.448,0,0,1,1.7-38.837c.073-.533.888-.309.815.225a211.84,211.84,0,0,0-1.674,38.6q13.266-.177,26.53.3c.287.011.567.022.854.028h0c.045.281.09.567.141.848q2.256,13.146,5.1,26.193c.062.275.123.544.185.82-.281.044-.561.084-.837.129a379.624,379.624,0,0,1-44.839,3.93.421.421,0,0,1,0-.842,377.344,377.344,0,0,0,44.654-3.908q-2.846-13.113-5.12-26.35-13.315-.489-26.631-.3c-.281.006-.562.006-.843.012q-9.12.143-18.242.589c-.545.028-.545-.814,0-.842" transform="translate(-89.299)" fill="#1c174f"/>
      </g>
    </g>
  </g>
</svg>
