<svg xmlns="http://www.w3.org/2000/svg" width="405.044" height="283.51" viewBox="0 0 405.044 283.51">
  <g id="Group_1111416" data-name="Group 1111416" transform="translate(-385.007 -4071.49)">
    <g id="Rectangle_406363" data-name="Rectangle 406363" transform="translate(414.051 4106)" fill="#fff" stroke="#12263f" stroke-width="3">
      <rect width="376" height="249" stroke="none"/>
      <rect x="1.5" y="1.5" width="373" height="246" fill="none"/>
    </g>
    <circle id="Ellipse_11610" data-name="Ellipse 11610" cx="6.5" cy="6.5" r="6.5" transform="translate(441.051 4113)" fill="#12263f"/>
    <circle id="Ellipse_11612" data-name="Ellipse 11612" cx="6.5" cy="6.5" r="6.5" transform="translate(505.051 4174)" fill="#12263f"/>
    <circle id="Ellipse_11615" data-name="Ellipse 11615" cx="6.5" cy="6.5" r="6.5" transform="translate(454.051 4218)" fill="#12263f"/>
    <circle id="Ellipse_11616" data-name="Ellipse 11616" cx="6.5" cy="6.5" r="6.5" transform="translate(486.051 4279)" fill="#12263f"/>
    <circle id="Ellipse_11617" data-name="Ellipse 11617" cx="6.5" cy="6.5" r="6.5" transform="translate(505.051 4258)" fill="#12263f"/>
    <circle id="Ellipse_11618" data-name="Ellipse 11618" cx="6.5" cy="6.5" r="6.5" transform="translate(589.051 4193)" fill="#12263f"/>
    <circle id="Ellipse_11619" data-name="Ellipse 11619" cx="6.5" cy="6.5" r="6.5" transform="translate(619.051 4218)" fill="#12263f"/>
    <circle id="Ellipse_11620" data-name="Ellipse 11620" cx="6.5" cy="6.5" r="6.5" transform="translate(626.051 4199)" fill="#12263f"/>
    <circle id="Ellipse_11621" data-name="Ellipse 11621" cx="6.5" cy="6.5" r="6.5" transform="translate(652.051 4168)" fill="#12263f"/>
    <circle id="Ellipse_11622" data-name="Ellipse 11622" cx="6.5" cy="6.5" r="6.5" transform="translate(671.051 4122)" fill="#12263f"/>
    <circle id="Ellipse_11623" data-name="Ellipse 11623" cx="6.5" cy="6.5" r="6.5" transform="translate(755.051 4153)" fill="#12263f"/>
    <circle id="Ellipse_11625" data-name="Ellipse 11625" cx="6.5" cy="6.5" r="6.5" transform="translate(742.051 4237)" fill="#12263f"/>
    <circle id="Ellipse_11626" data-name="Ellipse 11626" cx="6.5" cy="6.5" r="6.5" transform="translate(723.051 4250)" fill="#12263f"/>
    <circle id="Ellipse_11627" data-name="Ellipse 11627" cx="6.5" cy="6.5" r="6.5" transform="translate(696.051 4263)" fill="#12263f"/>
    <circle id="Ellipse_11628" data-name="Ellipse 11628" cx="6.5" cy="6.5" r="6.5" transform="translate(646.051 4237)" fill="#12263f"/>
    <circle id="Ellipse_11629" data-name="Ellipse 11629" cx="6.5" cy="6.5" r="6.5" transform="translate(572.051 4300)" fill="#12263f"/>
    <circle id="Ellipse_11630" data-name="Ellipse 11630" cx="6.5" cy="6.5" r="6.5" transform="translate(602.051 4300)" fill="#12263f"/>
    <circle id="Ellipse_11631" data-name="Ellipse 11631" cx="6.5" cy="6.5" r="6.5" transform="translate(629.051 4318)" fill="#12263f"/>
    <circle id="Ellipse_11632" data-name="Ellipse 11632" cx="6.5" cy="6.5" r="6.5" transform="translate(652.051 4337)" fill="#12263f"/>
    <circle id="Ellipse_11633" data-name="Ellipse 11633" cx="6.5" cy="6.5" r="6.5" transform="translate(714.051 4331)" fill="#12263f"/>
    <circle id="Ellipse_11613" data-name="Ellipse 11613" cx="6.5" cy="6.5" r="6.5" transform="translate(518.051 4140)" fill="#12263f"/>
    <circle id="Ellipse_11614" data-name="Ellipse 11614" cx="6.5" cy="6.5" r="6.5" transform="translate(545.051 4146)" fill="#12263f"/>
    <circle id="Ellipse_11611" data-name="Ellipse 11611" cx="6.5" cy="6.5" r="6.5" transform="translate(422.051 4133)" fill="#12263f"/>
    <g id="Group_1111414" data-name="Group 1111414" transform="translate(393.051 4141.5)">
      <path id="Polygon_1" data-name="Polygon 1" d="M8.5,0,17,14H0Z" transform="translate(17 26.5) rotate(180)" fill="#12263f"/>
      <line id="Line_563" data-name="Line 563" y1="56" transform="translate(8.5 -37)" fill="none" stroke="#12263f" stroke-width="4"/>
    </g>
    <g id="Group_1111415" data-name="Group 1111415" transform="translate(451.051 4099) rotate(-90)">
      <path id="Polygon_1-2" data-name="Polygon 1" d="M8.5,0,17,14H0Z" transform="translate(17 26.5) rotate(180)" fill="#12263f"/>
      <line id="Line_563-2" data-name="Line 563" y1="56" transform="translate(8.5 -37)" fill="none" stroke="#12263f" stroke-width="4"/>
    </g>
    <path id="Path_900280" data-name="Path 900280" d="M4.526-4.192l.009.07h.053L6.161-9.51H9.325L5.537,1.415A5.24,5.24,0,0,1,4.4,3.155,3.043,3.043,0,0,1,2.2,3.841a3.387,3.387,0,0,1-.633-.048q-.246-.048-.773-.18l.36-2.118.185.04a.778.778,0,0,0,.158.013A1.974,1.974,0,0,0,2.522,1.34a1.224,1.224,0,0,0,.483-.62L3.243.105-.044-9.51H3.111Z" transform="translate(385.051 4128)" fill="#12263f"/>
    <path id="Path_900279" data-name="Path 900279" d="M4.605-6.706h.053l1.2-2.8H9.193l-2.76,4.7L9.29,0H5.959L4.693-2.892H4.641L3.375,0H.044L2.9-4.808.132-9.51H3.445Z" transform="translate(433.051 4081)" fill="#12263f"/>
  </g>
</svg>
