<svg xmlns="http://www.w3.org/2000/svg" xmlns:xlink="http://www.w3.org/1999/xlink" width="98" height="98" viewBox="0 0 98 98">
  <defs>
    <filter id="Path_896985" x="0" y="0" width="98" height="98" filterUnits="userSpaceOnUse">
      <feOffset dy="3" input="SourceAlpha"/>
      <feGaussianBlur stdDeviation="3" result="blur"/>
      <feFlood flood-opacity="0.161"/>
      <feComposite operator="in" in2="blur"/>
      <feComposite in="SourceGraphic"/>
    </filter>
  </defs>
  <g id="Group_1113121" data-name="Group 1113121" transform="translate(-1026.667 -4860)">
    <g id="Group_1111423" data-name="Group 1111423" transform="translate(1035.667 4866)" style="isolation: isolate">
      <g id="Group_1098742" data-name="Group 1098742">
        <g transform="matrix(1, 0, 0, 1, -9, -6)" filter="url(#Path_896985)">
          <g id="Path_896985-2" data-name="Path 896985" transform="translate(9 6)" fill="#8dc0ff">
            <path d="M 40.00000381469727 78.50012969970703 C 34.80187225341797 78.50012969970703 29.76003646850586 77.48240661621094 25.0145263671875 75.47523498535156 C 20.43014907836914 73.53620147705078 16.31264877319336 70.75999450683594 12.77639293670654 67.22373962402344 C 9.240137100219727 63.68747711181641 6.463937282562256 59.56997680664062 4.524903774261475 54.98559951782227 C 2.517725944519043 50.24008560180664 1.500003814697266 45.1982421875 1.500003814697266 40.0001106262207 C 1.500003814697266 34.80195236206055 2.517725944519043 29.76008796691895 4.524914741516113 25.01456451416016 C 6.463937282562256 20.43017578125 9.240137100219727 16.31266403198242 12.77639293670654 12.77639865875244 C 16.31264877319336 9.240142822265625 20.43014907836914 6.463931560516357 25.0145263671875 4.524909496307373 C 29.76003646850586 2.517720460891724 34.80187225341797 1.499998211860657 40.00000381469727 1.499998211860657 C 45.19813537597656 1.499998211860657 50.23998260498047 2.517720460891724 54.98548126220703 4.524898052215576 C 59.56985855102539 6.463931560516357 63.68735885620117 9.240131378173828 67.22361755371094 12.77638721466064 C 70.75987243652344 16.31264305114746 73.53607177734375 20.43015289306641 75.47510528564453 25.0145206451416 C 77.48228454589844 29.76003074645996 78.5 34.80187606811523 78.5 40.00000762939453 C 78.5 45.19816589355469 77.48228454589844 50.24003219604492 75.47510528564453 54.98555374145508 C 73.53607177734375 59.56994247436523 70.75987243652344 63.68746566772461 67.22361755371094 67.22373199462891 C 63.68735885620117 70.75998687744141 59.56985855102539 73.53620147705078 54.98548126220703 75.4752197265625 C 50.23998260498047 77.48240661621094 45.19813537597656 78.50012969970703 40.00000381469727 78.50012969970703 Z" stroke="none"/>
            <path d="M 40.00000381469727 3 C 35.00371170043945 3 30.15847015380859 3.977851867675781 25.59885787963867 5.906410217285156 C 21.19327163696289 7.769813537597656 17.23603057861328 10.43806457519531 13.83704376220703 13.83705139160156 C 10.43807220458984 17.23603820800781 7.769813537597656 21.19327926635742 5.906417846679688 25.59885025024414 C 3.977859497070312 30.15846633911133 3.000007629394531 35.00370407104492 3.000007629394531 40.00011825561523 C 3.000007629394531 44.99641036987305 3.977859497070312 49.84166717529297 5.906417846679688 54.40127563476562 C 7.769813537597656 58.80685424804688 10.43807220458984 62.76409149169922 13.83704376220703 66.16307830810547 C 17.23603057861328 69.56206512451172 21.19327163696289 72.23031616210938 25.59885787963867 74.09371948242188 C 30.1584587097168 76.02227783203125 35.00371170043945 77.00012969970703 40.00000381469727 77.00012969970703 C 44.99629592895508 77.00012969970703 49.841552734375 76.02227783203125 54.40114974975586 74.09371948242188 C 58.80673980712891 72.23031616210938 62.76397705078125 69.56206512451172 66.1629638671875 66.16307830810547 C 69.56193542480469 62.76409149169922 72.23019409179688 58.80685424804688 74.09358978271484 54.40127563476562 C 76.02214813232422 49.84166717529297 77 44.99641036987305 77 40 C 77 35.00370407104492 76.02214813232422 30.15846633911133 74.09358978271484 25.59885025024414 C 72.23019409179688 21.19327926635742 69.56193542480469 17.23603820800781 66.1629638671875 13.83705139160156 C 62.76397705078125 10.43806457519531 58.80673980712891 7.769813537597656 54.40114974975586 5.906410217285156 C 49.84153747558594 3.977851867675781 44.99629592895508 3 40.00000381469727 3 M 40.00000381469727 0 C 62.09140396118164 0 80 17.90861129760742 80 40 L 80 40.00011825561523 C 80 62.09151840209961 62.09140396118164 80.00012969970703 40.00000381469727 80.00012969970703 C 17.90860366821289 80.00012969970703 7.62939453125e-06 62.09151840209961 7.62939453125e-06 40.00011825561523 L 7.62939453125e-06 40 C 7.62939453125e-06 17.90861129760742 17.90860366821289 0 40.00000381469727 0 Z" stroke="none" fill="#fff"/>
          </g>
        </g>
        <g id="Rectangle_400907" data-name="Rectangle 400907" transform="translate(0 0)" fill="none" stroke="#fff" stroke-width="3">
          <rect width="80" height="80" rx="40" stroke="none"/>
          <rect x="1.5" y="1.5" width="77" height="77" rx="38.5" fill="none"/>
        </g>
      </g>
    </g>
    <g id="Group_1113120" data-name="Group 1113120" transform="translate(1050.667 4868.707)">
      <g id="Group_1113118" data-name="Group 1113118" transform="translate(0.751 14.051)">
        <path id="Path_901273" data-name="Path 901273" d="M57.261,385.205H7.5v-9.556l24.88-2.263,24.88,2.263Z" transform="translate(-7.5 -338.09)" fill="#d98f61"/>
        <path id="Path_901274" data-name="Path 901274" d="M33.882,373.523l-1.5-.137L7.5,375.649v9.556h3v-9.556Z" transform="translate(-7.5 -338.09)" fill="#d37f50"/>
        <path id="Path_901275" data-name="Path 901275" d="M57.261,199.454l-24.88,2.3-24.88-2.3v-3.11H57.261Z" transform="translate(-7.5 -178.774)" fill="#b2e59f"/>
        <path id="Path_901276" data-name="Path 901276" d="M10.5,199.454v-3.11h-3v3.11l24.88,2.3,1.5-.139Z" transform="translate(-7.5 -178.774)" fill="#95d6a4"/>
        <path id="Path_901277" data-name="Path 901277" d="M7.5,264.99V252.544l2.537-1.555,22.343-.574,22.424.574,2.457,1.555V264.99Z" transform="translate(-7.5 -227.431)" fill="#bd6629"/>
        <path id="Path_901278" data-name="Path 901278" d="M13.041,255.377l-3,.077L7.5,257.009v12.446h3V257.009Z" transform="translate(-7.5 -231.896)" fill="#a45924"/>
        <path id="Path_901279" data-name="Path 901279" d="M7.5,231.839c2.416.023,2.44,1.2,4.9,1.2,2.488,0,2.488-1.2,4.976-1.2s2.488,1.2,4.976,1.2,2.488-1.2,4.976-1.2,2.488,1.2,4.976,1.2,2.488-1.2,4.976-1.2,2.488,1.2,4.976,1.2,2.488-1.2,4.976-1.2,2.488,1.2,4.977,1.2,2.488-1.2,4.977-1.2h.072v-4.433H7.5Z" transform="translate(-7.5 -206.726)" fill="#d98f61"/>
        <circle id="Ellipse_11806" data-name="Ellipse 11806" cx="1.555" cy="1.555" r="1.555" transform="translate(7.775 40.895)" fill="#f3cbb1"/>
        <circle id="Ellipse_11807" data-name="Ellipse 11807" cx="1.555" cy="1.555" r="1.555" transform="translate(31.1 40.895)" fill="#f3cbb1"/>
        <g id="Group_1113117" data-name="Group 1113117" transform="translate(4.974 0)">
          <g id="Group_1113115" data-name="Group 1113115" transform="translate(21.461)">
            <path id="Path_901280" data-name="Path 901280" d="M278.75,32.648c-3.145.846-6.141-.116-7.012-3.235-.887-3.176,1.154-6.259,4.266-7.349,7.789-2.728,13.2.03,13.2.03C284.9,23.249,284.435,31.12,278.75,32.648Z" transform="translate(-271.53 -20.86)" fill="#95d6a4"/>
          </g>
          <path id="Path_901281" data-name="Path 901281" d="M274.742,29.414c-.887-3.176,1.154-6.259,4.266-7.349a21.128,21.128,0,0,1,5.328-1.144A20.164,20.164,0,0,0,276,22.065c-3.112,1.09-5.152,4.174-4.266,7.349.82,2.937,3.524,3.96,6.462,3.364a4.549,4.549,0,0,1-3.459-3.364Z" transform="translate(-250.069 -20.861)" fill="#85c691"/>
          <g id="Group_1113116" data-name="Group 1113116" transform="translate(0 2.121)">
            <path id="Path_901282" data-name="Path 901282" d="M67.589,53.848c3.142.859,6.142-.091,7.025-3.206.9-3.172-1.128-6.264-4.235-7.367-7.778-2.759-13.2-.024-13.2-.024C61.475,44.424,61.911,52.3,67.589,53.848Z" transform="translate(-57.183 -42.042)" fill="#95d6a4"/>
          </g>
          <path id="Path_901283" data-name="Path 901283" d="M70.593,53.851c-4.648-1.27-5.783-6.775-8.4-9.375a1.224,1.224,0,0,1,.624-2.058,17.2,17.2,0,0,1,2.157-.312,15.835,15.835,0,0,0-7.8,1.148c4.292,1.173,4.728,9.045,10.406,10.6a7.275,7.275,0,0,0,3.581.137Q70.882,53.93,70.593,53.851Z" transform="translate(-57.183 -39.925)" fill="#85c691"/>
        </g>
      </g>
      <g id="Group_1113119" data-name="Group 1113119" transform="translate(0 13.293)">
        <path id="Path_901284" data-name="Path 901284" d="M50.512,30.87H26.54a16.1,16.1,0,0,1,1.6-5.542A5.849,5.849,0,0,0,32.3,26.884h0c8.174,0,8.493-9.728,12.754-10.874a.743.743,0,0,0,.555-.729c0-1.146-4.3-1.989-7.089-1.989-3.789,0-12.085,1.2-12.085,7.834a6.12,6.12,0,0,0,.716,2.881,14.411,14.411,0,0,0-1.286,2.881,16.773,16.773,0,0,0-1.993-1.884,6.363,6.363,0,0,0,.253-1.768c0-5.877-7.033-7.32-7.74-7.32a.751.751,0,0,0-.164,1.484c.628.141,6.4,1.08,6.4,5.852a4.782,4.782,0,0,1-.067.8c-1.939-1.265-3.182-1.58-6.134-2.881a.751.751,0,1,0-.584,1.384l3.5,1.476a15.239,15.239,0,0,1,2.718,1.491,4.055,4.055,0,0,1-3.777,2.006c-6.393,0-7.044-7.3-10.656-10.028a17.625,17.625,0,0,1,5.5-.543.751.751,0,0,0,.041-1.5q-.594-.034-1.151-.033c-2.741,0-7.027.8-7.027,1.957a.742.742,0,0,0,.552.727c4.287,1.171,4.5,10.926,12.741,10.926a5.591,5.591,0,0,0,4.979-2.594,15.241,15.241,0,0,1,2.14,2.22,21.955,21.955,0,0,0-.358,2.213H.751A.751.751,0,0,0,0,31.621C0,46.672,0,61.166,0,61.166a.751.751,0,0,0,.751.751H50.512c.983,0,.75-.845.75-4.632V31.621a.751.751,0,0,0-.751-.751ZM27.939,21.1c0-6.412,10.459-6.293,10.6-6.293a16.253,16.253,0,0,1,4.424.592c-3.617,2.713-4.3,9.983-10.67,9.983a4.254,4.254,0,0,1-3.352-1.369c2.911-4.069,5.829-3,5.829-4.469,0-.085-.013-.143-.016-.126a.753.753,0,0,0-.731-.583,10.878,10.878,0,0,0-5.862,3.719,4.875,4.875,0,0,1-.224-1.453ZM49.761,32.371V33.98H42.892a.751.751,0,0,0,0,1.5h6.869v2.962c-2.085.2-2.247,1.171-4.3,1.171-2.223,0-2.314-1.2-4.977-1.2s-2.736,1.2-4.976,1.2c-2.223,0-2.314-1.2-4.976-1.2-2.3,0-2.75.923-4.17,1.144V35.481H39.619a.751.751,0,0,0,0-1.5H26.364c0-.292,0-.736.046-1.608ZM1.5,35.482H24.863v4.091c-1.527-.2-1.916-1.16-4.28-1.16-2.676,0-2.736,1.2-4.976,1.2-2.223,0-2.314-1.2-4.976-1.2s-2.736,1.2-4.976,1.2c-2.021,0-2.172-.922-4.152-1.155Zm0-3.11h23.4c-.047.871-.041,1.448-.043,1.608H1.5ZM49.761,60.415H1.5V52.587H11.555a.751.751,0,0,0,0-1.5H1.5V39.974c1.4.225,1.86,1.142,4.152,1.142,2.676,0,2.736-1.2,4.976-1.2,2.223,0,2.314,1.2,4.976,1.2s2.736-1.2,4.976-1.2c2.048,0,2.21.969,4.28,1.169v2.041l-4.585,1.446c-3-1.6-2.918-1.677-3.258-1.677a.752.752,0,0,0-.361,1.41L19.205,45.7,17.9,48.339A.751.751,0,1,0,19.246,49l1.483-3,4.133-1.3v2.239a.751.751,0,1,0,1.5,0v-2.22L30.437,46l1.483,3a.751.751,0,1,0,1.346-.665L31.96,45.7,34.507,44.3a.751.751,0,1,0-.721-1.318l-2.9,1.585-4.524-1.427V41.071c2-.229,2.141-1.157,4.17-1.157,2.223,0,2.314,1.2,4.976,1.2s2.736-1.2,4.976-1.2c2.223,0,2.314,1.2,4.977,1.2,2.386,0,2.739-.968,4.3-1.162V51.085H14.827a.751.751,0,1,0,0,1.5H49.761Z" transform="translate(0 -13.293)"/>
        <path id="Path_901285" data-name="Path 901285" d="M31.807,452.875a.751.751,0,1,0,.754.751A.753.753,0,0,0,31.807,452.875Z" transform="translate(-27.948 -408.863)"/>
        <path id="Path_901286" data-name="Path 901286" d="M79.962,421.811a2.306,2.306,0,1,0,2.306,2.306A2.309,2.309,0,0,0,79.962,421.811Zm0,3.11a.8.8,0,1,1,.8-.8A.805.805,0,0,1,79.962,424.921Z" transform="translate(-69.881 -380.909)"/>
        <path id="Path_901287" data-name="Path 901287" d="M312.929,426.423a2.306,2.306,0,1,0-2.306-2.306A2.309,2.309,0,0,0,312.929,426.423Zm0-3.11a.8.8,0,1,1-.8.8A.805.805,0,0,1,312.929,423.313Z" transform="translate(-279.522 -380.909)"/>
        <path id="Path_901288" data-name="Path 901288" d="M171.589,423.309a.751.751,0,1,0-.751-.751A.751.751,0,0,0,171.589,423.309Z" transform="translate(-153.733 -380.905)"/>
        <path id="Path_901289" data-name="Path 901289" d="M249.1,444.7a.751.751,0,1,0-.589-.589A.751.751,0,0,0,249.1,444.7Z" transform="translate(-223.616 -400.173)"/>
        <path id="Path_901290" data-name="Path 901290" d="M404.706,454.361a.751.751,0,1,0-.9-.736A.75.75,0,0,0,404.706,454.361Z" transform="translate(-363.378 -408.862)"/>
        <path id="Path_901291" data-name="Path 901291" d="M466.542,432.032a.75.75,0,1,0-.6-.736A.751.751,0,0,0,466.542,432.032Z" transform="translate(-419.287 -388.769)"/>
      </g>
    </g>
  </g>
</svg>
