<svg xmlns="http://www.w3.org/2000/svg" xmlns:xlink="http://www.w3.org/1999/xlink" width="335" height="250" viewBox="0 0 335 250">
  <defs>
    <clipPath id="clip-path">
      <rect id="Rectangle_404675" data-name="Rectangle 404675" width="289.918" height="249.071" rx="13" transform="translate(-34)" fill="none" stroke="#707070" stroke-width="1"/>
    </clipPath>
    <clipPath id="clip-path-2">
      <rect id="Rectangle_404671" data-name="Rectangle 404671" width="263.879" height="464.506" fill="none"/>
    </clipPath>
    <clipPath id="clip-path-3">
      <path id="Path_901006" data-name="Path 901006" d="M323.121,94.909c1.365,4.321,6.733,5.1,10.341,1.939-1.8-3.76-3.961-5.313-5.918-5.313-1.782,0-3.4,1.29-4.423,3.374" transform="translate(-323.121 -91.535)" fill="none"/>
    </clipPath>
    <clipPath id="clip-path-5">
      <path id="Path_901010" data-name="Path 901010" d="M367.034,93.171c3.352,2.321,7.274.533,7.467-3.871-1.018-1.544-2.253-2.441-3.438-2.441-1.707,0-3.312,1.856-4.029,6.313" transform="translate(-367.034 -86.858)" fill="none"/>
    </clipPath>
  </defs>
  <g id="Group_1113065" data-name="Group 1113065" transform="translate(-199.667 -956)">
    <rect id="Rectangle_406335" data-name="Rectangle 406335" width="335" height="250" rx="8" transform="translate(199.667 956)" fill="#719acc"/>
    <g id="Group_1111808" data-name="Group 1111808" transform="translate(248.667 956.929)">
      <rect id="Rectangle_404674" data-name="Rectangle 404674" width="236.918" height="249.071" rx="13" transform="translate(0.001)" fill="none"/>
      <g id="Mask_Group_1098709" data-name="Mask Group 1098709" transform="translate(0)" clip-path="url(#clip-path)">
        <g id="Group_1111807" data-name="Group 1111807" transform="translate(4.006 20.345)">
          <rect id="Rectangle_404649" data-name="Rectangle 404649" width="168.002" height="171.915" rx="13" transform="translate(23.784 18.233)" fill="#8dc0ff"/>
          <g id="Group_1111806" data-name="Group 1111806" transform="translate(-16.007 -11.178)">
            <g id="Group_1111797" data-name="Group 1111797" transform="translate(0 0)">
              <g id="Group_1111796" data-name="Group 1111796" clip-path="url(#clip-path-2)">
                <path id="Path_900953" data-name="Path 900953" d="M363.548,316.224s15.678,50.519,23.343,54.352-9.755,11.149-9.755,11.149c-30.66-14.285-40.764-50.519-40.764-50.519Z" transform="translate(-215.464 -202.559)" fill="#ff7c6d"/>
                <path id="Path_900954" data-name="Path 900954" d="M47.243,204.756c-6.884,5.773-25.372,16.783-37.877,24.01a17.009,17.009,0,0,0-7.843,10.011,16.7,16.7,0,0,0,1.366,12.686c13.664,25.071,45.216,50.91,44.354,51.2-7.665,7.317-4.529,18.814-4.529,18.814-3.832-2.787-9.407,1.045-9.407,1.045L50.03,326.35l13.937-25.434S42.714,276.528,35.4,251.443l31.357-20.9Z" transform="translate(-0.546 -131.158)" fill="#ff7c6d"/>
                <path id="Path_900955" data-name="Path 900955" d="M6.5,277.36a17.025,17.025,0,0,0-4.978,7.923,16.7,16.7,0,0,0,1.366,12.686c.16.294.335.59.5.884A11.668,11.668,0,0,0,12.4,287.5,11.659,11.659,0,0,0,6.5,277.36" transform="translate(-0.546 -177.665)" fill="#ff6a59"/>
                <path id="Path_900956" data-name="Path 900956" d="M49.484,326.113a.294.294,0,0,1-.068-.008l-16.724-3.832a.3.3,0,0,1-.1-.545c.222-.152,5.231-3.538,9.125-1.439-.526-2.643-1.8-11.947,4.619-18.241-.4-.481-1.91-1.892-3.768-3.63-8.959-8.378-29.939-28-40.489-47.353A16.957,16.957,0,0,1,.685,238.151a17.265,17.265,0,0,1,7.982-10.189c13.559-7.835,31.129-18.355,37.834-23.98a.309.309,0,0,1,.229-.069.305.305,0,0,1,.207.118l19.511,25.783a.3.3,0,0,1-.074.435L35.2,251.031c7.272,24.659,28.233,48.9,28.444,49.146a.3.3,0,0,1,.037.345L49.749,325.955a.3.3,0,0,1-.266.157m-15.931-4.265,15.775,3.615,13.726-25.049c-1.848-2.165-21.55-25.622-28.494-49.427a.3.3,0,0,1,.123-.337l31.089-20.726L46.646,204.651c-6.912,5.7-24.258,16.082-37.676,23.836a16.661,16.661,0,0,0-7.7,9.833,16.354,16.354,0,0,0,1.34,12.456c10.5,19.271,31.433,38.842,40.37,47.2,3.974,3.716,4.1,3.875,4.03,4.189a.338.338,0,0,1-.1.171h0c-7.442,7.1-4.477,18.4-4.446,18.516a.3.3,0,0,1-.471.324c-2.887-2.1-6.909-.2-8.436.671" transform="translate(0 -130.618)" fill="#451d26"/>
                <path id="Path_900957" data-name="Path 900957" d="M496.358,1127.2,480.795,1140.2l11.992,21.11.319.955,2.555,3.252,15.1-3.948,2.787-23.692Z" transform="translate(-307.974 -722.029)" fill="#ff7c6d"/>
                <path id="Path_900958" data-name="Path 900958" d="M240.531,1176.152l-.566-14.409,22.385-6.358,7.927,18.2s-20.731,11.061-21.253,11.061-9.581-2.264-9.581-3.048,1.088-5.45,1.088-5.45" transform="translate(-153.376 -740.086)" fill="#ff7c6d"/>
                <path id="Path_900959" data-name="Path 900959" d="M314.07,410.1s17.072,28.047,21.253,55.223,22.995,89.193,22.995,89.193c3.484,50.171,30.2,108.471,30.2,108.471l-46.687,31.356c-30.66-34.841-40.648-127.982-40.648-127.982l-18.117-57.836L286.545,405.4Z" transform="translate(-181.315 -259.681)" fill="#6693a3"/>
                <path id="Path_900960" data-name="Path 900960" d="M341.286,694.108a.3.3,0,0,1-.228-.1c-30.372-34.514-40.622-127.218-40.722-128.15l-18.1-57.778a.3.3,0,0,1-.014-.1L285.7,404.848a.3.3,0,0,1,.354-.288l27.524,4.7a.3.3,0,0,1,.208.141c.171.281,17.151,28.41,21.293,55.334,4.13,26.844,22.8,88.531,22.986,89.151a.349.349,0,0,1,.013.067c3.44,49.543,29.9,107.784,30.168,108.366a.3.3,0,0,1-.106.378l-46.687,31.357a.3.3,0,0,1-.169.051M282.826,507.946l18.1,57.787c.112.987,10.3,93.144,40.411,127.673l46.253-31.066c-1.848-4.106-26.767-60.268-30.113-108.308-.523-1.729-18.9-62.565-22.995-89.2-3.987-25.916-19.937-52.978-21.142-54.994L286.3,405.216Z" transform="translate(-180.776 -259.14)" fill="#451d26"/>
                <path id="Path_900961" data-name="Path 900961" d="M168.706,405.549c-29.15,15.04-43.087,29.441-44.016,45.235s19.975,235.06,19.975,235.06l58.533-8.826L186.939,448.926c7.433-3.716,9.755-5.574,9.755-12.078s3.716-38.557,3.716-38.557Z" transform="translate(-79.851 -255.127)" fill="#6693a3"/>
                <path id="Path_900962" data-name="Path 900962" d="M144.127,698.542a.3.3,0,0,1-.3-.274c-.209-2.193-20.9-219.469-19.976-235.106.939-15.966,14.977-30.42,44.179-45.486a.3.3,0,0,1,.278.539c-28.992,14.958-42.927,29.252-43.852,44.983-.9,15.314,19.038,225.168,19.944,234.695l57.939-8.737L186.1,461.342a.3.3,0,0,1,.167-.292c7.245-3.623,9.588-5.338,9.588-11.807,0-1.606.226-4.909.674-9.814a.3.3,0,1,1,.6.055c-.446,4.887-.671,8.171-.671,9.759,0,6.727-2.529,8.642-9.742,12.258l16.245,227.89a.3.3,0,0,1-.257.321l-58.533,8.827a.314.314,0,0,1-.045,0" transform="translate(-79.313 -267.522)" fill="#451d26"/>
                <path id="Path_900963" data-name="Path 900963" d="M206.968,252.967h-43.9c2.961-2.091,5.051-9.233,0-15.5s-13.414-17.421-16.55-35.189l-12.891,8.188-17.769-32.75s38.151-18.466,44.248-17.595,10.1,6.968,15.852,11.5l21.949,6.446s1.046.7,8.188,3.31,13.065,12.02,15.5,20.208a126.486,126.486,0,0,0,6.968,17.246l-8.187,4.355c-1.743,6.62-14.111,15.678-13.414,29.789" transform="translate(-74.214 -102.545)" fill="#e2e9fb"/>
                <path id="Path_900964" data-name="Path 900964" d="M292.318,127.132c-1.916,11.149-3.281,23.024-9.378,23.372-1.64,16.589,26.945,23.372,21.95,6.446,1.916-13.24,2.091-17.769,2.091-17.769s-13.791-12.049-14.662-12.049" transform="translate(-181.194 -81.436)" fill="#ff7c6d"/>
                <path id="Path_900965" data-name="Path 900965" d="M329.26,161.328c1.272-9.46,1.4-12.847,1.4-12.847s-6.576-4.27-10.818-6.831c-.012,2.706.548,13.133,9.415,19.678" transform="translate(-204.877 -90.736)" fill="#ff6a59"/>
                <path id="Path_900966" data-name="Path 900966" d="M539.231,278.907c-7.491,0-10.975,8.71-12.543,14.11s19.511,3.31,20.034,3.135,7.665-9.755,7.665-10.626-6.446-6.62-6.446-6.62Z" transform="translate(-337.318 -178.656)" fill="#e6c8aa"/>
                <path id="Path_900967" data-name="Path 900967" d="M537.122,296.451c-4.411,0-9.086-.418-10.7-1.97a1.981,1.981,0,0,1-.561-2.088c2.721-9.374,7.159-14.329,12.833-14.329a.3.3,0,1,1,0,.606c-5.376,0-9.613,4.8-12.252,13.892a1.363,1.363,0,0,0,.346,1.429c2.941,3.042,18.644,1.5,19.31,1.332a.311.311,0,0,1,.372.207.3.3,0,0,1-.189.371,69,69,0,0,1-9.158.551" transform="translate(-336.781 -178.116)" fill="#451d26"/>
                <path id="Path_900968" data-name="Path 900968" d="M458.694,396.389H407.129l41.112-85.012h51.565Z" transform="translate(-260.788 -199.455)" fill="#e9595c"/>
                <path id="Path_900969" data-name="Path 900969" d="M580.136,389.288c-1.479-6.084-17.976-8.876-22.248-9.5a1.289,1.289,0,0,0-1.384.794,1.293,1.293,0,0,0,.4,1.5l10.6,8.284-17.432,5.24a1.907,1.907,0,0,0,.429,3.73l1.356.086-1.39.714a1.06,1.06,0,0,0,.443,2l9.025.351-7.186.985a1.182,1.182,0,0,0,.022,2.345c5.608.676,8.206,2.293,6.882,13.395h0a19.858,19.858,0,0,0,21.47-20.922,57.853,57.853,0,0,0-.99-9.01" transform="translate(-351.482 -243.267)" fill="#ff7c6d"/>
                <path id="Path_900970" data-name="Path 900970" d="M560.778,419.052q-.842,0-1.687-.071a.3.3,0,0,1-.276-.338c1.3-10.895-1.139-12.4-6.618-13.058a1.485,1.485,0,0,1-.026-2.946l3.767-.516-5.577-.218a1.363,1.363,0,0,1-.569-2.575l.412-.212-.259-.016a2.21,2.21,0,0,1-.5-4.323l16.871-5.072-10.14-7.924a1.6,1.6,0,0,1,.816-2.846,1.582,1.582,0,0,1,.4.008c4.9.716,20.994,3.534,22.5,9.729a56.91,56.91,0,0,1,1,9.065,20.164,20.164,0,0,1-20.111,21.311m-1.324-.651a19.555,19.555,0,0,0,20.83-20.627,56.414,56.414,0,0,0-.981-8.955c-1.452-5.976-18.579-8.772-22-9.272a1,1,0,0,0-.246,0,.985.985,0,0,0-.813.614.974.974,0,0,0-.07.449.99.99,0,0,0,.377.7l10.6,8.284a.3.3,0,0,1-.1.529l-17.432,5.24a1.6,1.6,0,0,0-.342,2.925,1.614,1.614,0,0,0,.7.212l1.356.086a.3.3,0,0,1,.119.572l-1.391.714a.757.757,0,0,0,.317,1.43l9.025.352a.3.3,0,0,1,.029.6l-7.186.984a.875.875,0,0,0-.639.426.889.889,0,0,0-.1.25.88.88,0,0,0,.754,1.068c6.049.729,8.4,2.766,7.184,13.417" transform="translate(-350.942 -242.726)" fill="#451d26"/>
                <path id="Path_900971" data-name="Path 900971" d="M559.393,429.326a.3.3,0,0,1-.086-.594,46.648,46.648,0,0,1,13.184-2.206.3.3,0,0,1,.293.312.3.3,0,0,1-.312.293,46.232,46.232,0,0,0-12.993,2.181.3.3,0,0,1-.086.013" transform="translate(-358.126 -273.213)" fill="#451d26"/>
                <path id="Path_900972" data-name="Path 900972" d="M581.05,442.792a.3.3,0,0,1-.011-.606c1.282-.046,1.781-.016,1.8-.014a.3.3,0,0,1-.038.6s-.5-.029-1.741.015h-.011" transform="translate(-371.999 -283.228)" fill="#451d26"/>
                <path id="Path_900973" data-name="Path 900973" d="M607.14,278.907H561.73c12.195,0,1.917,24.737,1.917,24.737h45.409s10.278-24.737-1.917-24.737" transform="translate(-359.817 -178.656)" fill="#fff"/>
                <path id="Path_900974" data-name="Path 900974" d="M608.516,303.407H563.107a.3.3,0,0,1-.28-.419c.068-.163,6.712-16.334,2.786-22.216a4.954,4.954,0,0,0-4.422-2.1.3.3,0,1,1,0-.606,5.526,5.526,0,0,1,4.926,2.371c3.788,5.675-1.5,19.7-2.56,22.366h44.959a.3.3,0,0,1,0,.606" transform="translate(-359.278 -178.116)" fill="#451d26"/>
                <path id="Path_900975" data-name="Path 900975" d="M200.616,267.592a.3.3,0,0,1-.175-.551l7.665-5.4a.3.3,0,1,1,.349.495l-7.665,5.4a.3.3,0,0,1-.174.055" transform="translate(-128.311 -167.561)" fill="#451d26"/>
                <path id="Path_900976" data-name="Path 900976" d="M230.335,1197.313a1.358,1.358,0,0,1,1.16-.714,1.344,1.344,0,0,1,1.129.544c2.006,2.685,6.546,7.162,13.043,4.211a1.333,1.333,0,0,0,.366-.247,1.376,1.376,0,0,0,.219-.266c1.276-2.018,8.36-12.547,17.92-13.528a1.433,1.433,0,0,1,.894.2,1.318,1.318,0,0,1,.56.686c.745,2.078,2.921,6.956,7.376,8.543,0,0,32.449,10.038,38.274,26.189a1.323,1.323,0,0,1-.18,1.236,1.374,1.374,0,0,1-1.122.57l-82.956-.461a1.362,1.362,0,0,1-1.05-.5,1.341,1.341,0,0,1-.29-.669,43.764,43.764,0,0,1,4.658-25.792" transform="translate(-144.339 -760.533)" fill="#e9595c"/>
                <path id="Path_900977" data-name="Path 900977" d="M347.241,1220.877l-34.372-.2-29.954-19.565a1.4,1.4,0,0,0,.219-.266c1.275-2.017,8.36-12.547,17.92-13.528a1.437,1.437,0,0,1,.894.2,1.317,1.317,0,0,1,.56.686c.744,2.078,2.921,6.957,7.376,8.543,0,0,29.69,9.194,37.358,24.136" transform="translate(-181.222 -760.533)" fill="#fff"/>
                <path id="Path_900978" data-name="Path 900978" d="M265.735,1238.944a4.6,4.6,0,1,0,4.608-4.6,4.6,4.6,0,0,0-4.608,4.6" transform="translate(-170.217 -790.666)" fill="#fff"/>
                <path id="Path_900979" data-name="Path 900979" d="M277.985,1243.314a.311.311,0,0,1-.311-.3.3.3,0,0,1,.3-.3,4.3,4.3,0,1,0,.012-8.6.3.3,0,0,1-.3-.3.288.288,0,0,1,.3-.3,4.9,4.9,0,0,1-.007,9.809" transform="translate(-177.865 -790.126)" fill="#451d26"/>
                <path id="Path_900980" data-name="Path 900980" d="M225.435,1263.9a45.555,45.555,0,0,1,.318-8.939c14.5,1.155,28.876,7.811,28.876,7.811Z" transform="translate(-144.345 -803.871)" fill="#fff"/>
                <path id="Path_900981" data-name="Path 900981" d="M291.987,1262.6l0-2.076a3.78,3.78,0,0,1,3.786-3.775l7.355.011a32.948,32.948,0,0,1,5.583,5.932h.019c.04.056.075.114.114.169l.019.028a19.451,19.451,0,0,1,2.411,4.522,1.322,1.322,0,0,1-.18,1.236,1.37,1.37,0,0,1-1.122.57l-82.956-.461a1.362,1.362,0,0,1-1.05-.5,1.344,1.344,0,0,1-.29-.669,40.949,40.949,0,0,1-.34-5.357Z" transform="translate(-144.34 -805.015)" fill="#fff"/>
                <path id="Path_900982" data-name="Path 900982" d="M309.441,1268.981h-.009l-82.956-.46a1.659,1.659,0,0,1-1.283-.614,1.641,1.641,0,0,1-.355-.818,41.2,41.2,0,0,1-.343-5.4.3.3,0,0,1,.09-.215.339.339,0,0,1,.215-.088l66.345.368,0-1.771a4.082,4.082,0,0,1,4.082-4.077h.007l7.355.011a.3.3,0,0,1,.195.072,33.341,33.341,0,0,1,5.59,5.926.275.275,0,0,1,.062.061l.115.171a19.953,19.953,0,0,1,2.468,4.622,1.636,1.636,0,0,1-.22,1.517,1.684,1.684,0,0,1-1.359.694m-84.339-6.986a40.245,40.245,0,0,0,.336,5.012,1.038,1.038,0,0,0,.224.517,1.054,1.054,0,0,0,.817.391l82.956.461h.006a1.061,1.061,0,0,0,.868-.444,1.015,1.015,0,0,0,.141-.955,19.229,19.229,0,0,0-2.375-4.452l-.092-.137a.263.263,0,0,1-.058-.059,32.569,32.569,0,0,0-5.447-5.8l-7.244-.011h-.005a3.478,3.478,0,0,0-3.477,3.472l0,2.076a.3.3,0,0,1-.09.214.4.4,0,0,1-.215.088Z" transform="translate(-143.8 -804.475)" fill="#451d26"/>
                <path id="Path_900983" data-name="Path 900983" d="M309.455,1224.5h-.008l-82.956-.46a1.661,1.661,0,0,1-1.283-.613,1.643,1.643,0,0,1-.355-.82,44.373,44.373,0,0,1,4.692-25.975,1.666,1.666,0,0,1,2.8-.208c2.056,2.753,6.437,6.949,12.675,4.118a1.052,1.052,0,0,0,.284-.192,1.076,1.076,0,0,0,.17-.208c1.333-2.108,8.47-12.675,18.145-13.668a1.762,1.762,0,0,1,1.083.241,1.613,1.613,0,0,1,.688.842,18.384,18.384,0,0,0,2.258,4.383.3.3,0,1,1-.493.351,19,19,0,0,1-2.335-4.53,1.019,1.019,0,0,0-.432-.529,1.139,1.139,0,0,0-.706-.155c-9.4.964-16.388,11.322-17.695,13.388a1.641,1.641,0,0,1-.267.325,1.663,1.663,0,0,1-.449.3c-6.624,3.006-11.245-1.408-13.411-4.307a1.041,1.041,0,0,0-.876-.422,1.054,1.054,0,0,0-.9.555,43.746,43.746,0,0,0-4.624,25.606,1.04,1.04,0,0,0,.224.518,1.057,1.057,0,0,0,.817.391l82.956.46h.006a1.064,1.064,0,0,0,.869-.445,1.017,1.017,0,0,0,.141-.955c-3-8.328-13.341-15.006-21.484-19.142a.3.3,0,1,1,.275-.541c8.241,4.186,18.709,10.963,21.78,19.478a1.634,1.634,0,0,1-.22,1.516,1.684,1.684,0,0,1-1.36.695" transform="translate(-143.815 -759.994)" fill="#451d26"/>
                <path id="Path_900984" data-name="Path 900984" d="M328.526,1217.434a.289.289,0,0,1-.048,0,.3.3,0,0,1-.252-.347,8.523,8.523,0,0,1,3.589-5.5,8.97,8.97,0,0,1,6.722-1.644.3.3,0,0,1,.244.353.3.3,0,0,1-.353.243,8.368,8.368,0,0,0-6.262,1.542,7.915,7.915,0,0,0-3.341,5.1.3.3,0,0,1-.3.256" transform="translate(-210.244 -774.951)" fill="#451d26"/>
                <path id="Path_900985" data-name="Path 900985" d="M356.641,1226.436a.325.325,0,0,1-.079-.01.3.3,0,0,1-.214-.371,8.868,8.868,0,0,1,4.641-5.862,5.932,5.932,0,0,1,4.662-.466.3.3,0,1,1-.235.558,5.411,5.411,0,0,0-4.161.452,8.271,8.271,0,0,0-4.323,5.474.3.3,0,0,1-.292.225" transform="translate(-228.253 -781.112)" fill="#451d26"/>
                <path id="Path_900986" data-name="Path 900986" d="M512.9,1162.988a1.363,1.363,0,0,1,1.647-1.6c3.261.775,9.615,1.3,12.709-5.13a1.336,1.336,0,0,0,.123-.424,1.384,1.384,0,0,0,0-.344c-.314-2.367-1.629-14.989,5.079-21.871a1.443,1.443,0,0,1,.814-.421,1.321,1.321,0,0,1,.869.167c1.9,1.118,6.7,3.467,11.137,1.828,0,0,31.338-13.1,46.163-4.441a1.322,1.322,0,0,1,.654,1.064,1.374,1.374,0,0,1-.5,1.157l-63.958,52.832a1.363,1.363,0,0,1-1.128.288,1.332,1.332,0,0,1-.651-.327,43.772,43.772,0,0,1-12.961-22.78" transform="translate(-328.524 -722.412)" fill="#e9595c"/>
                <path id="Path_900987" data-name="Path 900987" d="M614.711,1129.787,588.2,1151.668l-35.531,4.19a1.409,1.409,0,0,0,0-.344c-.315-2.366-1.629-14.989,5.079-21.87a1.43,1.43,0,0,1,.813-.421,1.314,1.314,0,0,1,.869.166c1.9,1.118,6.7,3.467,11.137,1.828,0,0,28.68-11.979,44.144-5.429" transform="translate(-353.812 -722.435)" fill="#fff"/>
                <path id="Path_900988" data-name="Path 900988" d="M551.891,1219.819a4.6,4.6,0,1,0,.591-6.48,4.6,4.6,0,0,0-.591,6.48" transform="translate(-352.832 -776.525)" fill="#fff"/>
                <path id="Path_900989" data-name="Path 900989" d="M560.784,1220.177a.3.3,0,0,1-.194-.536,4.3,4.3,0,1,0-5.5-6.605.3.3,0,0,1-.388-.467,4.9,4.9,0,0,1,6.278,7.537.3.3,0,0,1-.194.07" transform="translate(-355.244 -775.989)" fill="#451d26"/>
                <path id="Path_900990" data-name="Path 900990" d="M534.174,1249.2a45.539,45.539,0,0,1-5.487-7.064c11.87-8.411,27.168-12.519,27.168-12.519Z" transform="translate(-338.652 -787.635)" fill="#fff"/>
                <path id="Path_900991" data-name="Path 900991" d="M590.114,1139.442l-1.329-1.6a3.78,3.78,0,0,1,.485-5.324l5.651-4.706a32.952,32.952,0,0,1,8.088.973l.014-.012c.066.017.13.039.2.057l.033.01a19.445,19.445,0,0,1,4.75,1.924,1.322,1.322,0,0,1,.654,1.064,1.371,1.371,0,0,1-.5,1.157L544.2,1185.821a1.362,1.362,0,0,1-1.128.288,1.341,1.341,0,0,1-.651-.328,40.9,40.9,0,0,1-3.7-3.893Z" transform="translate(-345.084 -722.427)" fill="#fff"/>
                <path id="Path_900992" data-name="Path 900992" d="M542.8,1185.9a1.661,1.661,0,0,1-1.116-.431,41.346,41.346,0,0,1-3.724-3.923.3.3,0,0,1,.039-.427l51.151-42.254-1.134-1.361a4.088,4.088,0,0,1,.525-5.75l5.651-4.707a.309.309,0,0,1,.2-.07,33.349,33.349,0,0,1,8.089.964.268.268,0,0,1,.087.007l.2.058a19.946,19.946,0,0,1,4.857,1.965,1.634,1.634,0,0,1,.8,1.305,1.681,1.681,0,0,1-.6,1.41l-63.958,52.833a1.66,1.66,0,0,1-1.06.383m-4.179-4.51a40.51,40.51,0,0,0,3.472,3.631,1.042,1.042,0,0,0,.5.253,1.054,1.054,0,0,0,.877-.224l63.958-52.833a1.062,1.062,0,0,0,.386-.9,1.015,1.015,0,0,0-.5-.824,19.21,19.21,0,0,0-4.676-1.893l-.159-.047a.319.319,0,0,1-.082-.007,32.566,32.566,0,0,0-7.9-.963l-5.566,4.636a3.481,3.481,0,0,0-.446,4.9l1.329,1.6a.305.305,0,0,1,.069.223.3.3,0,0,1-.109.2Z" transform="translate(-344.544 -721.887)" fill="#451d26"/>
                <path id="Path_900993" data-name="Path 900993" d="M526.236,1185.913a1.66,1.66,0,0,1-1.116-.432,44.371,44.371,0,0,1-13.053-22.943,1.666,1.666,0,0,1,2.013-1.953c3.343.794,9.4,1.206,12.367-4.967a1.029,1.029,0,0,0,.1-.328,1.06,1.06,0,0,0,0-.268c-.328-2.473-1.624-15.16,5.163-22.123a1.754,1.754,0,0,1,.985-.509,1.615,1.615,0,0,1,1.068.205,18.39,18.39,0,0,0,4.543,1.916.3.3,0,1,1-.154.587,19.04,19.04,0,0,1-4.7-1.98,1.01,1.01,0,0,0-.671-.129,1.14,1.14,0,0,0-.641.333c-6.591,6.763-5.318,19.2-5,21.62a1.7,1.7,0,0,1,0,.419,1.644,1.644,0,0,1-.151.521c-3.154,6.555-9.532,6.13-13.052,5.293a1.06,1.06,0,0,0-1.28,1.243,43.75,43.75,0,0,0,12.868,22.616,1.035,1.035,0,0,0,.5.253,1.055,1.055,0,0,0,.878-.225l63.957-52.832a1.062,1.062,0,0,0,.386-.9,1.015,1.015,0,0,0-.5-.823c-7.645-4.466-19.861-2.963-28.761-.916a.3.3,0,1,1-.136-.59c9.008-2.07,21.387-3.582,29.2.984a1.634,1.634,0,0,1,.8,1.3,1.685,1.685,0,0,1-.6,1.411L527.3,1185.53a1.662,1.662,0,0,1-1.06.383" transform="translate(-327.984 -721.903)" fill="#451d26"/>
                <path id="Path_900994" data-name="Path 900994" d="M589.116,1158.606a.3.3,0,0,1-.26-.147,8.521,8.521,0,0,1-.772-6.522,8.974,8.974,0,0,1,4.1-5.572.3.3,0,1,1,.3.527,8.369,8.369,0,0,0-3.818,5.2,7.917,7.917,0,0,0,.706,6.056.3.3,0,0,1-.1.415.3.3,0,0,1-.156.043" transform="translate(-376.496 -734.284)" fill="#451d26"/>
                <path id="Path_900995" data-name="Path 900995" d="M616.023,1148.906a.3.3,0,0,1-.275-.175,8.868,8.868,0,0,1-.2-7.475,5.936,5.936,0,0,1,3.28-3.347.3.3,0,0,1,.177.58,5.41,5.41,0,0,0-2.9,3.015,8.27,8.27,0,0,0,.193,6.973.3.3,0,0,1-.147.4.309.309,0,0,1-.127.028" transform="translate(-393.826 -728.883)" fill="#451d26"/>
                <path id="Path_900996" data-name="Path 900996" d="M338.74,834.967a.3.3,0,0,1-.3-.355,24.684,24.684,0,0,1,4.594-10.245.3.3,0,1,1,.465.388c-3.39,4.068-4.453,9.9-4.464,9.963a.3.3,0,0,1-.3.25" transform="translate(-216.786 -527.981)" fill="#451d26"/>
                <path id="Path_900997" data-name="Path 900997" d="M342.617,848.854a.3.3,0,0,1-.264-.451c3.186-5.664,5.732-5.729,5.839-5.729a.3.3,0,1,1,0,.606c-.019,0-2.332.125-5.31,5.42a.3.3,0,0,1-.265.154" transform="translate(-219.27 -539.777)" fill="#451d26"/>
                <path id="Path_900998" data-name="Path 900998" d="M79.032,308.948a.3.3,0,0,1-.281-.189c-4.608-11.436-9.564-14.1-9.613-14.129a.3.3,0,1,1,.278-.538c.21.109,5.206,2.8,9.9,14.441a.3.3,0,0,1-.168.394.3.3,0,0,1-.113.022" transform="translate(-44.181 -188.36)" fill="#451d26"/>
                <path id="Path_900999" data-name="Path 900999" d="M263.712,10.1A11.838,11.838,0,1,1,250.255.136a11.838,11.838,0,0,1,13.457,9.96" transform="translate(-153.837 -0.004)" fill="#451d26"/>
                <path id="Path_901000" data-name="Path 901000" d="M273.548,61.6A92.6,92.6,0,0,0,266,48.369c-4.426-6.308-4.4-18.3,5.965-21.658,2.334-3.972,9.4-6.142,14.775-6.526S296.9,15.461,300.749,16s14.06,12.953,9.193,23.3-26.5,23.191-36.393,22.3" transform="translate(-168.593 -10.222)" fill="#451d26"/>
                <path id="Path_901001" data-name="Path 901001" d="M324.865,89c-9.138,4.526-20.933-2.878-26.927-11.277,0,0-2.094-2.291-1.64-7.969,2.854-.664,7.86-9.263,5.927-15.247,2.494-.8,4.4-6.809,3.014-11.016,6.907-1.894,22.417-.274,24.254,13.041S335.009,82.692,324.865,89" transform="translate(-189.753 -27.439)" fill="#ff7c6d"/>
                <path id="Path_901002" data-name="Path 901002" d="M333.931,90.115c-4.395,0-9.222-1.852-13.938-5.439a.3.3,0,0,1,.367-.482c6.9,5.249,14.012,6.7,19.513,3.971,8.628-5.363,6.982-15.867,5.24-26.987-.265-1.687-.538-3.432-.777-5.167A13.883,13.883,0,0,0,338.043,45.9c-5.891-3.886-13.742-3.731-17.582-2.677a.3.3,0,1,1-.16-.584c4.878-1.338,12.654-.821,18.076,2.756a14.463,14.463,0,0,1,6.558,10.536c.239,1.73.512,3.472.776,5.157,1.775,11.324,3.451,22.02-5.544,27.61a13.919,13.919,0,0,1-6.236,1.422" transform="translate(-204.896 -26.879)" fill="#451d26"/>
                <path id="Path_901003" data-name="Path 901003" d="M323.36,112.017a5.22,5.22,0,1,1-5.681-4.071,4.955,4.955,0,0,1,5.681,4.071" transform="translate(-200.502 -69.124)" fill="#ff6a59"/>
                <path id="Path_901004" data-name="Path 901004" d="M323.121,94.909c2.151-4.371,6.895-5.247,10.341,1.939-3.607,3.158-8.976,2.383-10.341-1.939" transform="translate(-206.976 -58.634)" fill="#fff"/>
              </g>
            </g>
            <g id="Group_1111799" data-name="Group 1111799" transform="translate(116.145 32.901)">
              <g id="Group_1111798" data-name="Group 1111798" clip-path="url(#clip-path-3)">
                <path id="Path_901005" data-name="Path 901005" d="M339.862,98.278a3.372,3.372,0,1,1-3.746-3.264,3.52,3.52,0,0,1,3.746,3.264" transform="translate(-329.552 -93.751)" fill="#451d26"/>
              </g>
            </g>
            <g id="Group_1111801" data-name="Group 1111801" transform="translate(0 0)">
              <g id="Group_1111800" data-name="Group 1111800" clip-path="url(#clip-path-2)">
                <path id="Path_901007" data-name="Path 901007" d="M374.5,89.3a4.934,4.934,0,0,0-3.075-2.414c-1.838-.277-3.625,1.514-4.392,6.285,3.352,2.321,7.274.533,7.467-3.871" transform="translate(-235.104 -55.639)" fill="#fff"/>
                <path id="Path_901008" data-name="Path 901008" d="M366.494,92.936a.282.282,0,0,1-.049,0,.3.3,0,0,1-.251-.347c1.028-6.389,3.652-6.7,4.736-6.536a5.22,5.22,0,0,1,3.283,2.547.3.3,0,1,1-.506.334,4.651,4.651,0,0,0-2.868-2.281c-1.881-.282-3.394,1.972-4.048,6.033a.3.3,0,0,1-.3.255" transform="translate(-234.564 -55.102)" fill="#451d26"/>
              </g>
            </g>
            <g id="Group_1111803" data-name="Group 1111803" transform="translate(131.93 31.219)">
              <g id="Group_1111802" data-name="Group 1111802" clip-path="url(#clip-path-5)">
                <path id="Path_901009" data-name="Path 901009" d="M381.454,92.447a3.372,3.372,0,1,1-3.746-3.264,3.52,3.52,0,0,1,3.746,3.264" transform="translate(-371.978 -88.335)" fill="#451d26"/>
              </g>
            </g>
            <g id="Group_1111805" data-name="Group 1111805" transform="translate(0 0)">
              <g id="Group_1111804" data-name="Group 1111804" clip-path="url(#clip-path-2)">
                <path id="Path_901011" data-name="Path 901011" d="M363.075,92.757a7.244,7.244,0,0,0,.772,5.781c1.094,1.617,1.962,2.076.835,3.23-2.946,1.341-4.135.657-4.367-.575s1.095-7.86,2.76-8.436" transform="translate(-230.783 -59.417)" fill="#ff7c6d"/>
                <path id="Path_901012" data-name="Path 901012" d="M363.868,108.249a2.368,2.368,0,0,0-1.18,1.85c-.152.441-1.754.073-2.179,1.189.312,1.117,1.513,1.68,4.314.4,1.127-1.154.259-1.612-.835-3.23-.044-.065-.078-.143-.12-.212" transform="translate(-230.925 -69.341)" fill="#ff6a59"/>
                <path id="Path_901013" data-name="Path 901013" d="M368.574,101.532a.3.3,0,0,1-.217-.514c.712-.73.513-.992-.228-1.967-.194-.255-.413-.543-.642-.882a7.553,7.553,0,0,1-.8-6.072.3.3,0,0,1,.555.243,6.955,6.955,0,0,0,.745,5.49c.222.328.435.608.622.855.729.96,1.256,1.653.179,2.757a.3.3,0,0,1-.217.091" transform="translate(-234.676 -58.877)" fill="#451d26"/>
                <path id="Path_901014" data-name="Path 901014" d="M283.5,113.638c-5.828-6.667-12.887-5.876-13.185-.847s3.367,12.368,14.242,8.738c.249-6.229-1.057-7.891-1.057-7.891" transform="translate(-173.138 -69.712)" fill="#ff7c6d"/>
                <path id="Path_901015" data-name="Path 901015" d="M278.674,122.264a9.1,9.1,0,0,1-5.691-1.767,9.771,9.771,0,0,1-3.514-8.259,4.234,4.234,0,0,1,2.919-3.951c2.4-.821,6.669-.1,10.8,4.617a.3.3,0,1,1-.456.4c-3.678-4.208-7.744-5.262-10.144-4.442a3.609,3.609,0,0,0-2.51,3.413,9.292,9.292,0,0,0,3.277,7.743c2.507,1.921,6.161,2.16,10.565.69a.3.3,0,0,1,.192.574,17.219,17.219,0,0,1-5.435.983" transform="translate(-172.598 -69.178)" fill="#451d26"/>
                <path id="Path_901016" data-name="Path 901016" d="M287.782,124.333c-1.184-6.211-6.407-8.5-8.9-6.122,4.9.455,8.346,4.289,8.9,6.122" transform="translate(-178.641 -75.133)" fill="#ff6a59"/>
                <path id="Path_901017" data-name="Path 901017" d="M287.243,124.093a.3.3,0,0,1-.3-.246c-.749-3.93-3.038-5.978-4.929-6.584a3.371,3.371,0,0,0-3.46.625.3.3,0,0,1-.418-.439,3.956,3.956,0,0,1,4.064-.763c2.057.66,4.54,2.858,5.339,7.048a.3.3,0,0,1-.241.354.317.317,0,0,1-.057.005" transform="translate(-178.102 -74.589)" fill="#451d26"/>
                <path id="Path_901018" data-name="Path 901018" d="M289.553,129.569a.3.3,0,0,1-.179-.059,2.566,2.566,0,0,1-.68-3.491,2.787,2.787,0,0,1,3.729-1.036.3.3,0,0,1-.266.545,2.172,2.172,0,0,0-2.944.8,1.953,1.953,0,0,0,.519,2.689.3.3,0,0,1-.179.547" transform="translate(-184.665 -79.848)" fill="#451d26"/>
                <path id="Path_901019" data-name="Path 901019" d="M362.982,153.249a5.94,5.94,0,0,1-3.573-1.158l.379-.473a5.153,5.153,0,0,0,4.7.759,1.916,1.916,0,0,0,1.277-1.639l.6.065a2.516,2.516,0,0,1-1.647,2.134,4.565,4.565,0,0,1-1.735.312" transform="translate(-230.22 -96.557)" fill="#ff6a59"/>
                <path id="Path_901020" data-name="Path 901020" d="M319.929,103.233a.3.3,0,0,1-.1-.589l1.157-.4a.3.3,0,1,1,.2.573l-1.156.4a.306.306,0,0,1-.1.017" transform="translate(-204.737 -65.484)" fill="#451d26"/>
                <path id="Path_901021" data-name="Path 901021" d="M322.063,106.349a.3.3,0,0,1-.183-.544l.789-.6a.3.3,0,0,1,.366.483l-.789.6a.3.3,0,0,1-.183.061" transform="translate(-206.104 -67.352)" fill="#451d26"/>
                <path id="Path_901022" data-name="Path 901022" d="M333.065,78.926c.02.74-3.178-.383-6.593-.29s-5.754,1.367-5.775.627,2.286-3.214,5.7-3.307,6.646,2.23,6.666,2.97" transform="translate(-205.424 -48.654)" fill="#451d26"/>
                <path id="Path_901023" data-name="Path 901023" d="M375.24,74.056c.055.664-1.024-.587-2.99-.423s-4.071,1.681-4.127,1.017,1.961-3.258,3.926-3.422,3.135,2.164,3.19,2.828" transform="translate(-235.802 -45.621)" fill="#451d26"/>
                <path id="Path_901024" data-name="Path 901024" d="M346.841,128.855c7.651.071,13.559-2.936,11.227.815,1.5,5.476-3.08,10.875-11.227-.815" transform="translate(-222.17 -81.852)" fill="#ff6a59"/>
                <path id="Path_901025" data-name="Path 901025" d="M353.68,132.525c-1.987,0-4.879-.67-8.71-2.821a.3.3,0,1,1,.3-.528c6.023,3.381,9.885,3.092,11.012,2.073a.532.532,0,0,0,.215-.589.3.3,0,0,1,.555-.243,1.105,1.105,0,0,1-.363,1.28,4.58,4.58,0,0,1-3.005.828" transform="translate(-220.872 -82.72)" fill="#451d26"/>
                <path id="Path_901026" data-name="Path 901026" d="M331.073,96.576a.3.3,0,0,1-.27-.166c-1.715-3.38-3.654-5.166-5.608-5.166h-.012c-1.9.007-3.405,1.671-4.179,3.225a.3.3,0,0,1-.492.073l-1.038-1.1a.3.3,0,0,1,.442-.416l.748.8c.9-1.6,2.5-3.173,4.517-3.181h.014c1.536,0,3.845.957,6.149,5.5a.3.3,0,0,1-.133.407.3.3,0,0,1-.137.033" transform="translate(-204.587 -58.06)" fill="#451d26"/>
                <path id="Path_901027" data-name="Path 901027" d="M387.268,91.309a.3.3,0,0,1-.224-.507l1.073-1.181a.3.3,0,1,1,.449.407l-1.073,1.182a.3.3,0,0,1-.224.1" transform="translate(-247.871 -57.345)" fill="#451d26"/>
                <path id="Path_901028" data-name="Path 901028" d="M273.713,197.509c-.255-.383-2.98-8.848-4.722-15.136a14.066,14.066,0,0,0-2.018-.951c-1.932-.707-3.406-1.27-4.546-1.721a135.275,135.275,0,0,1,7.8,26.092s-16.279,4.942-36.773-6.395c0,0-1.794-21.784-1.772-32.384-3.4-3.271-6.57-6.256-10.7-6.845,0,0,6.469,45.215-10.087,55.066a77.924,77.924,0,0,0,13.048,22.28c5.052,6.272,2.961,13.414,0,15.5h43.9c-.7-14.111,11.672-23.169,13.414-29.789.133-3.929,1.176-16.129-7.545-25.722" transform="translate(-135.09 -102.598)" fill="#6693a3"/>
              </g>
            </g>
          </g>
        </g>
      </g>
    </g>
  </g>
</svg>
