<svg xmlns="http://www.w3.org/2000/svg" xmlns:xlink="http://www.w3.org/1999/xlink" width="98" height="98" viewBox="0 0 98 98">
  <defs>
    <filter id="Path_896985" x="0" y="0" width="98" height="98" filterUnits="userSpaceOnUse">
      <feOffset dy="3" input="SourceAlpha"/>
      <feGaussianBlur stdDeviation="3" result="blur"/>
      <feFlood flood-opacity="0.161"/>
      <feComposite operator="in" in2="blur"/>
      <feComposite in="SourceGraphic"/>
    </filter>
  </defs>
  <g id="Group_1113129" data-name="Group 1113129" transform="translate(-711.667 -4980)">
    <g id="Group_1111424" data-name="Group 1111424" transform="translate(720.667 4986)" style="isolation: isolate">
      <g id="Group_1098742" data-name="Group 1098742">
        <g transform="matrix(1, 0, 0, 1, -9, -6)" filter="url(#Path_896985)">
          <g id="Path_896985-2" data-name="Path 896985" transform="translate(9 6)" fill="#8dc0ff">
            <path d="M 40.00000381469727 78.50012969970703 C 34.80187225341797 78.50012969970703 29.76003646850586 77.48240661621094 25.0145263671875 75.47523498535156 C 20.43014907836914 73.53620147705078 16.31264877319336 70.75999450683594 12.77639293670654 67.22373962402344 C 9.240137100219727 63.68747711181641 6.463937282562256 59.56997680664062 4.524903774261475 54.98559951782227 C 2.517725944519043 50.24008560180664 1.500003814697266 45.1982421875 1.500003814697266 40.0001106262207 C 1.500003814697266 34.80195236206055 2.517725944519043 29.76008796691895 4.524914741516113 25.01456451416016 C 6.463937282562256 20.43017578125 9.240137100219727 16.31266403198242 12.77639293670654 12.77639865875244 C 16.31264877319336 9.240142822265625 20.43014907836914 6.463931560516357 25.0145263671875 4.524909496307373 C 29.76003646850586 2.517720460891724 34.80187225341797 1.499998211860657 40.00000381469727 1.499998211860657 C 45.19813537597656 1.499998211860657 50.23998260498047 2.517720460891724 54.98548126220703 4.524898052215576 C 59.56985855102539 6.463931560516357 63.68735885620117 9.240131378173828 67.22361755371094 12.77638721466064 C 70.75987243652344 16.31264305114746 73.53607177734375 20.43015289306641 75.47510528564453 25.0145206451416 C 77.48228454589844 29.76003074645996 78.5 34.80187606811523 78.5 40.00000762939453 C 78.5 45.19816589355469 77.48228454589844 50.24003219604492 75.47510528564453 54.98555374145508 C 73.53607177734375 59.56994247436523 70.75987243652344 63.68746566772461 67.22361755371094 67.22373199462891 C 63.68735885620117 70.75998687744141 59.56985855102539 73.53620147705078 54.98548126220703 75.4752197265625 C 50.23998260498047 77.48240661621094 45.19813537597656 78.50012969970703 40.00000381469727 78.50012969970703 Z" stroke="none"/>
            <path d="M 40.00000381469727 3 C 35.00371170043945 3 30.15847015380859 3.977851867675781 25.59885787963867 5.906410217285156 C 21.19327163696289 7.769813537597656 17.23603057861328 10.43806457519531 13.83704376220703 13.83705139160156 C 10.43807220458984 17.23603820800781 7.769813537597656 21.19327926635742 5.906417846679688 25.59885025024414 C 3.977859497070312 30.15846633911133 3.000007629394531 35.00370407104492 3.000007629394531 40.00011825561523 C 3.000007629394531 44.99641036987305 3.977859497070312 49.84166717529297 5.906417846679688 54.40127563476562 C 7.769813537597656 58.80685424804688 10.43807220458984 62.76409149169922 13.83704376220703 66.16307830810547 C 17.23603057861328 69.56206512451172 21.19327163696289 72.23031616210938 25.59885787963867 74.09371948242188 C 30.1584587097168 76.02227783203125 35.00371170043945 77.00012969970703 40.00000381469727 77.00012969970703 C 44.99629592895508 77.00012969970703 49.841552734375 76.02227783203125 54.40114974975586 74.09371948242188 C 58.80673980712891 72.23031616210938 62.76397705078125 69.56206512451172 66.1629638671875 66.16307830810547 C 69.56193542480469 62.76409149169922 72.23019409179688 58.80685424804688 74.09358978271484 54.40127563476562 C 76.02214813232422 49.84166717529297 77 44.99641036987305 77 40 C 77 35.00370407104492 76.02214813232422 30.15846633911133 74.09358978271484 25.59885025024414 C 72.23019409179688 21.19327926635742 69.56193542480469 17.23603820800781 66.1629638671875 13.83705139160156 C 62.76397705078125 10.43806457519531 58.80673980712891 7.769813537597656 54.40114974975586 5.906410217285156 C 49.84153747558594 3.977851867675781 44.99629592895508 3 40.00000381469727 3 M 40.00000381469727 0 C 62.09140396118164 0 80 17.90861129760742 80 40 L 80 40.00011825561523 C 80 62.09151840209961 62.09140396118164 80.00012969970703 40.00000381469727 80.00012969970703 C 17.90860366821289 80.00012969970703 7.62939453125e-06 62.09151840209961 7.62939453125e-06 40.00011825561523 L 7.62939453125e-06 40 C 7.62939453125e-06 17.90861129760742 17.90860366821289 0 40.00000381469727 0 Z" stroke="none" fill="#fff"/>
          </g>
        </g>
        <g id="Rectangle_400907" data-name="Rectangle 400907" transform="translate(0 0)" fill="none" stroke="#fff" stroke-width="3">
          <rect width="80" height="80" rx="40" stroke="none"/>
          <rect x="1.5" y="1.5" width="77" height="77" rx="38.5" fill="none"/>
        </g>
      </g>
    </g>
    <g id="Group_1113128" data-name="Group 1113128" transform="translate(735.668 4997.247)">
      <g id="Group_1113126" data-name="Group 1113126" transform="translate(0.446 4.501)">
        <g id="Group_1113125" data-name="Group 1113125" transform="translate(0 0)">
          <path id="Path_901292" data-name="Path 901292" d="M288.592,249.493a1.642,1.642,0,0,0,2.138,1.137,1.66,1.66,0,0,0,1.027-2.01,5.149,5.149,0,0,0-2.181-2.464.2.2,0,0,0-.281.072A5.077,5.077,0,0,0,288.592,249.493Z" transform="translate(-260.198 -222.71)" fill="#7e7e87"/>
          <path id="Path_901293" data-name="Path 901293" d="M196.964,241.482a1.642,1.642,0,0,0,.106,2.419,1.66,1.66,0,0,0,2.253-.136,5.149,5.149,0,0,0,1.015-3.13.2.2,0,0,0-.2-.206A5.078,5.078,0,0,0,196.964,241.482Z" transform="translate(-177.342 -217.582)" fill="#7e7e87"/>
          <g id="Group_1113122" data-name="Group 1113122" transform="translate(22.998 29.417)">
            <path id="Path_901294" data-name="Path 901294" d="M235.18,312.015a2.065,2.065,0,0,0,.3,1.071,1.92,1.92,0,0,0,1.784.806,1.816,1.816,0,0,0,1.856-2.158A6.107,6.107,0,0,0,237.4,308.4a.2.2,0,0,0-.288,0c-.072.075-.166-.022-.275.1A6.038,6.038,0,0,0,235.18,312.015Z" transform="translate(-235.18 -308.137)" fill="#95969b"/>
            <path id="Path_901295" data-name="Path 901295" d="M242.014,309.933A6.872,6.872,0,0,0,240.1,306.4a.2.2,0,0,0-.288,0c-.071.075-.166.177-.275.3a5.146,5.146,0,0,1,.886,2.236,2.121,2.121,0,0,1-2.056,2.358c-.063,0-.127,0-.189-.008a2.074,2.074,0,0,0,1.784,1.005A2.121,2.121,0,0,0,242.014,309.933Z" transform="translate(-237.876 -306.337)" fill="#7e7e87"/>
          </g>
          <path id="Path_901296" data-name="Path 901296" d="M57.35,379.821v11.667a.4.4,0,0,1-.4.4l-2.592.2H8.4a.4.4,0,0,1-.4-.4V379.622a.4.4,0,0,1,.4-.4h2.843l2.595.1a1.722,1.722,0,0,1,1.567,1.073l1.306,2.2a2.841,2.841,0,0,0,2.67,1.35,2.7,2.7,0,0,0,2.409-1.35l1.327-2.3A2.134,2.134,0,0,1,24.7,379.24c.021,0,.055,0,.077,0l.134-.009h.067l2.406.1c.072,0,.143,0,.213.011.682.065.983.491,1.329,1.092L30,382.813c.01.017.02.034.031.051.507.838,1.973,1.048,2.836,1.075a2.713,2.713,0,0,0,2.413-1.35l1.326-2.3a2.138,2.138,0,0,1,1.529-1.044l.038-.005c.023,0,.048.009.071.007s.047-.005.071-.006l.056,0,.073,0,2.347.065c.072,0,.143,0,.212.011a1.736,1.736,0,0,1,1.41,1.036l1.361,2.354a2.609,2.609,0,0,0,2.45,1.235,2.749,2.749,0,0,0,2.444-1.349l1.327-2.3a2.136,2.136,0,0,1,1.849-1.068H54.36l2.592.2a.4.4,0,0,1,.4.4Z" transform="translate(-7.653 -342.539)" fill="#d1a08f"/>
          <g id="Group_1113123" data-name="Group 1113123" transform="translate(3.243 36.683)">
            <path id="Path_901297" data-name="Path 901297" d="M318.342,383.938c-3.572,0-4.412.069-5.232-1.349l-1.326-2.3a2.139,2.139,0,0,0-1.531-1.044l.038-.005.07-.008c.024,0,.047-.005.071-.006l.056,0,.073,0h2.366a2.143,2.143,0,0,1,1.849,1.068l1.294,2.222.079.142A2.652,2.652,0,0,0,318.342,383.938Z" transform="translate(-283.014 -379.223)" fill="#c68d7a"/>
            <path id="Path_901298" data-name="Path 901298" d="M183.632,383.938c-3.257,0-4.447.063-5.262-1.35l-1.327-2.3a2.134,2.134,0,0,0-1.58-1.051l.064-.007c.044-.005.089-.007.134-.009h2.524c.072,0,.143,0,.213.011a2.134,2.134,0,0,1,1.637,1.057l1.326,2.289a.4.4,0,0,0,.036.06A2.693,2.693,0,0,0,183.632,383.938Z" transform="translate(-161.662 -379.223)" fill="#c68d7a"/>
            <path id="Path_901299" data-name="Path 901299" d="M45.444,383.938c-3.173,0-4.429.063-5.245-1.35l-1.327-2.3a2.134,2.134,0,0,0-1.849-1.068h2.991a2.136,2.136,0,0,1,1.85,1.068l1.326,2.3A2.676,2.676,0,0,0,45.444,383.938Z" transform="translate(-37.023 -379.223)" fill="#c68d7a"/>
            <path id="Path_901300" data-name="Path 901300" d="M473.491,379.22H470.5a.4.4,0,0,1,.4.4v12.066a.4.4,0,0,1-.4.4h2.991a.4.4,0,0,0,.4-.4V379.619A.4.4,0,0,0,473.491,379.22Z" transform="translate(-427.286 -379.22)" fill="#c68d7a"/>
          </g>
          <path id="Path_901301" data-name="Path 901301" d="M161.034,95.577l-5.963,9.085a2.625,2.625,0,0,1-3.651.673.984.984,0,0,1-.252-1.369l6.491-9.69Z" transform="translate(-136.389 -85.999)" fill="#bc7c63"/>
          <path id="Path_901302" data-name="Path 901302" d="M109.619,104.928l-11.394,8.123a2.7,2.7,0,0,1-3.76-.644,1.012,1.012,0,0,1,.242-1.41l7.154-5.225Z" transform="translate(-85.328 -95.589)" fill="#c68d7a"/>
          <path id="Path_901303" data-name="Path 901303" d="M109.21,11.253a.673.673,0,0,0-.418.147,12.21,12.21,0,0,1-2.818,1.775L100.542,15.8a29.656,29.656,0,0,1-6.357,2.226L83.9,20.36a.633.633,0,0,0-.485.716l.006.039a2.853,2.853,0,0,0,3.238,2.375c4.41-.657,12.924-1.922,17.217-2.559a4.41,4.41,0,0,1,4.187,1.731,4.459,4.459,0,0,1,.487,4.493l-.736,1.633a4.845,4.845,0,0,0,.462,4.789,2.34,2.34,0,0,0,.8.709c.762.411,1.289.2,2.044-.337a.674.674,0,0,0,.248-.772l-.443-.965a3.424,3.424,0,0,1,.358-2.948l1.081-1.685a10.253,10.253,0,0,0,1.443-3.373l.47-4.17c.107-1.1,1.2-5.465,6.773-8.066a.336.336,0,0,0-.139-.642l-1.456-.078H109.21Z" transform="translate(-75.543 -11.253)" fill="#d1a08f"/>
          <path id="Path_901304" data-name="Path 901304" d="M352.619,11.9c-5.568,2.6-6.7,7.128-6.81,8.224l-.47,4.17a10.1,10.1,0,0,1-1.382,3.371l-1.081,1.686a3.375,3.375,0,0,0-.347,2.926l.377,1.089a.657.657,0,0,1,.037.221.673.673,0,0,1-.284.551,2.345,2.345,0,0,1-2.476.148,2.3,2.3,0,0,0,.236-.148.673.673,0,0,0,.285-.551.656.656,0,0,0-.037-.221l-.377-1.089a3.375,3.375,0,0,1,.347-2.926l1.081-1.686A10.1,10.1,0,0,0,343.1,24.3l.47-4.17c.118-1.2,1.2-6.877,6.991-8.873l1.92.007a.336.336,0,0,1,.139.642Z" transform="translate(-306.644 -11.254)" fill="#c68d7a"/>
          <path id="Path_901305" data-name="Path 901305" d="M8.738,298.77l-1.043-.648a6.784,6.784,0,0,1-3.027-7.309l.147-.629a.417.417,0,0,1,.626-.259l.549.341a6.784,6.784,0,0,1,3.027,7.309Z" transform="translate(-4.488 -262.086)" fill="#9ed146"/>
          <path id="Path_901306" data-name="Path 901306" d="M42.973,298.771l-.28-1.2a6.784,6.784,0,0,1,3.027-7.309l.549-.341a.417.417,0,0,1,.626.26l.147.629a6.783,6.783,0,0,1-3.027,7.309Z" transform="translate(-38.723 -262.087)" fill="#b1dd50"/>
          <path id="Path_901307" data-name="Path 901307" d="M424.272,298.77l-1.043-.648a6.784,6.784,0,0,1-3.027-7.309l.147-.629a.417.417,0,0,1,.626-.259l.549.341a6.784,6.784,0,0,1,3.027,7.309Z" transform="translate(-378.597 -262.086)" fill="#9ed146"/>
          <path id="Path_901308" data-name="Path 901308" d="M458.507,298.771l-.28-1.2a6.784,6.784,0,0,1,3.027-7.309l.549-.341a.417.417,0,0,1,.626.26l.147.629a6.784,6.784,0,0,1-3.027,7.309Z" transform="translate(-412.832 -262.087)" fill="#b1dd50"/>
          <g id="Group_1113124" data-name="Group 1113124" transform="translate(24.308 14.326)">
            <path id="Path_901309" data-name="Path 901309" d="M248.5,159.027a2.064,2.064,0,0,0-.175,1.1,1.92,1.92,0,0,0,1.286,1.476,1.816,1.816,0,0,0,2.587-1.189,6.109,6.109,0,0,0-.173-3.748.2.2,0,0,0-.261-.12c-.1.038-.142-.09-.293-.021a6.037,6.037,0,0,0-2.971,2.5Z" transform="translate(-248.315 -156.348)" fill="#95969b"/>
            <path id="Path_901310" data-name="Path 901310" d="M252.5,159.106a6.872,6.872,0,0,0-.271-4.012.2.2,0,0,0-.261-.12c-.1.038-.225.092-.376.16a5.147,5.147,0,0,1-.126,2.4,2.121,2.121,0,0,1-2.851,1.287c-.058-.026-.114-.056-.168-.086a2.074,2.074,0,0,0,1.2,1.657A2.12,2.12,0,0,0,252.5,159.106Z" transform="translate(-248.437 -154.959)" fill="#7e7e87"/>
          </g>
        </g>
      </g>
      <g id="Group_1113127" data-name="Group 1113127" transform="translate(-0.001 3.753)">
        <path id="Path_901311" data-name="Path 901311" d="M390.858,14.665a.761.761,0,0,0,.085,0,.748.748,0,0,0,.742-.664l.056-.5V13.5a11.183,11.183,0,0,1,6.867-8.238.748.748,0,1,0-.594-1.372,12.762,12.762,0,0,0-7.761,9.459l-.056.494a.748.748,0,0,0,.659.827Z" transform="translate(-351.295 -3.817)"/>
        <path id="Path_901312" data-name="Path 901312" d="M76.071,87.833a3.618,3.618,0,0,0,4.094,3l.3-.044-2.646,1.872a1.734,1.734,0,0,0-.414,2.414,3.376,3.376,0,0,0,4.7.806l1.262-.893-.288.419a1.734,1.734,0,0,0,.444,2.409,3.348,3.348,0,0,0,1.906.6,3.413,3.413,0,0,0,.618-.057,3.35,3.35,0,0,0,2.166-1.4l5.612-8.148,3.6-.535a3.668,3.668,0,0,1,3.487,1.442,3.724,3.724,0,0,1,.406,3.75l-.738,1.637a5.627,5.627,0,0,0,.534,5.54,3.084,3.084,0,0,0,2.01,1.267,3.139,3.139,0,0,0,.531.045,3.082,3.082,0,0,0,1.787-.571,1.431,1.431,0,0,0,.523-1.629l-.379-1.092a2.617,2.617,0,0,1,.271-2.284l1.083-1.689a10.226,10.226,0,0,0,1.521-3.891.748.748,0,1,0-1.486-.167,8.847,8.847,0,0,1-1.294,3.252L104.6,95.57a4.1,4.1,0,0,0-.425,3.581l.361,1.04a1.609,1.609,0,0,1-2.2-.415,4.125,4.125,0,0,1-.392-4.062l.738-1.637a5.22,5.22,0,0,0-.57-5.257,5.162,5.162,0,0,0-4.907-2.029c-4.3.639-12.84,1.907-17.261,2.566a2.119,2.119,0,0,1-2.385-1.693l4.166-.945a.748.748,0,0,0-.331-1.458l-4.27.968a1.385,1.385,0,0,0-1.059,1.565Zm5.169,6.829a1.879,1.879,0,0,1-2.617-.448.237.237,0,0,1,.057-.33c.1-.086,5.034-3.576,5.034-3.576l4.661-.693ZM86.98,96.1a1.877,1.877,0,0,1-2.611.481.237.237,0,0,1-.061-.329l2.6-3.772c.119-.1,4.712-3.352,4.712-3.352l.182-.027Z" transform="translate(-68.466 -77.119)"/>
        <path id="Path_901313" data-name="Path 901313" d="M158.795,12.6a.755.755,0,0,0,.166-.019l2.626-.6A30.513,30.513,0,0,0,168.12,9.7l5.445-2.634A19.72,19.72,0,0,0,176.793,5.1a.748.748,0,1,0-.9-1.2,18.221,18.221,0,0,1-2.982,1.815l-5.445,2.634a29.012,29.012,0,0,1-6.212,2.175l-2.626.6a.748.748,0,0,0,.165,1.477Z" transform="translate(-142.291 -3.753)"/>
        <path id="Path_901314" data-name="Path 901314" d="M283.424,244.028a2.39,2.39,0,0,0,2.313-2.987,4.592,4.592,0,0,0-1.571-2.261,7.925,7.925,0,0,0-1.161-.828.748.748,0,0,0-1,.258,7.927,7.927,0,0,0-.615,1.287,4.594,4.594,0,0,0-.279,2.739h0A2.394,2.394,0,0,0,283.424,244.028Zm-.5-4.334a3.7,3.7,0,0,1,1.368,1.721.894.894,0,0,1-1.731.447,3.7,3.7,0,0,1,.363-2.168Z" transform="translate(-252.993 -214.518)"/>
        <path id="Path_901315" data-name="Path 901315" d="M193.605,232.9a7.867,7.867,0,0,0-1.421.124,4.593,4.593,0,0,0-2.5,1.15,2.389,2.389,0,0,0,3.379,3.379,4.592,4.592,0,0,0,1.15-2.5,7.921,7.921,0,0,0,.124-1.421A.748.748,0,0,0,193.605,232.9Zm-1.6,3.6a.894.894,0,0,1-1.264-1.264,3.693,3.693,0,0,1,2.051-.788A3.723,3.723,0,0,1,192,236.5Z" transform="translate(-170.143 -210.058)"/>
        <path id="Path_901316" data-name="Path 901316" d="M230.5,305.528a2.827,2.827,0,0,0,2.824-2.824c0-2.273-2.213-4.413-2.307-4.5a.747.747,0,0,0-1.033,0c-.094.09-2.307,2.23-2.307,4.5A2.827,2.827,0,0,0,230.5,305.528Zm0-5.679a5.15,5.15,0,0,1,1.328,2.855,1.328,1.328,0,1,1-2.656,0A5.149,5.149,0,0,1,230.5,299.849Z" transform="translate(-204.981 -268.66)"/>
        <path id="Path_901317" data-name="Path 901317" d="M242.538,153.718a2.824,2.824,0,0,0,3.726-1.435c.922-2.077-.231-4.931-.281-5.052a.747.747,0,0,0-.944-.419c-.123.044-3.014,1.1-3.936,3.179A2.827,2.827,0,0,0,242.538,153.718Zm-.068-3.12a5.152,5.152,0,0,1,2.373-2.07,5.151,5.151,0,0,1,.055,3.148,1.328,1.328,0,1,1-2.428-1.078Z" transform="translate(-216.849 -132.51)"/>
        <path id="Path_901318" data-name="Path 901318" d="M50.294,293.2H48.662a7.187,7.187,0,0,0,2.189-6.981l-.266-1.136a.748.748,0,0,0-1.122-.465l-.991.615a7.184,7.184,0,0,0-2.216,2.157,7.149,7.149,0,0,0-2.216-2.157l-.991-.615a.748.748,0,0,0-1.122.465l-.266,1.136a7.187,7.187,0,0,0,2.274,7.058,2.891,2.891,0,0,0-1.846,1.365l-1.327,2.3a1.953,1.953,0,0,1-3.383,0l-1.327-2.3a2.891,2.891,0,0,0-2.5-1.442H31.2a2.891,2.891,0,0,0-2.5,1.442l-1.326,2.3a1.953,1.953,0,0,1-3.383,0l-1.326-2.3a2.891,2.891,0,0,0-2.5-1.442H17.711a2.891,2.891,0,0,0-2.5,1.442l-1.326,2.3a1.953,1.953,0,0,1-3.383,0l-1.326-2.3a2.892,2.892,0,0,0-2.032-1.4A7.144,7.144,0,0,0,8.392,291.8a.748.748,0,1,0-1.251-.819,5.7,5.7,0,0,1-1.867,1.784,5.705,5.705,0,0,1,2.62-6.325,5.8,5.8,0,0,1,.176,1.6.748.748,0,1,0,1.495.047,7.2,7.2,0,0,0-.186-1.867l-.266-1.136a.748.748,0,0,0-1.122-.465L7,285.236a7.182,7.182,0,0,0-2.216,2.157,7.152,7.152,0,0,0-2.216-2.157l-.991-.615a.748.748,0,0,0-1.122.465l-.266,1.136A7.187,7.187,0,0,0,2.378,293.2H.747a.748.748,0,1,0,0,1.5H6.681a1.392,1.392,0,0,1,1.2.694l1.326,2.3a3.449,3.449,0,0,0,5.973,0l1.326-2.3a1.392,1.392,0,0,1,1.2-.694h2.457a1.392,1.392,0,0,1,1.2.694l1.326,2.3a3.449,3.449,0,0,0,5.973,0l1.326-2.3a1.392,1.392,0,0,1,1.2-.694h2.358a1.392,1.392,0,0,1,1.2.694l1.327,2.3a3.449,3.449,0,0,0,5.973,0l1.327-2.3a1.392,1.392,0,0,1,1.2-.694h5.706a.748.748,0,1,0,0-1.5Zm-48.649-6.64.028-.122a5.685,5.685,0,0,1,2.308,2.6,7.177,7.177,0,0,0-.311,3.3A5.692,5.692,0,0,1,1.645,286.562Zm47.617-.056.106-.066a5.706,5.706,0,0,1-2.62,6.325A5.7,5.7,0,0,1,49.261,286.507Zm-6.143.056.028-.122a5.686,5.686,0,0,1,2.308,2.6,7.175,7.175,0,0,0-.311,3.3A5.692,5.692,0,0,1,43.118,286.562Z" transform="translate(0.001 -256.519)"/>
        <circle id="Ellipse_11808" data-name="Ellipse 11808" cx="0.748" cy="0.748" r="0.748" transform="translate(2.281 44.54)"/>
        <circle id="Ellipse_11809" data-name="Ellipse 11809" cx="0.748" cy="0.748" r="0.748" transform="translate(3.949 42.009)"/>
        <circle id="Ellipse_11810" data-name="Ellipse 11810" cx="0.748" cy="0.748" r="0.748" transform="translate(5.405 44.723)"/>
        <circle id="Ellipse_11811" data-name="Ellipse 11811" cx="0.748" cy="0.748" r="0.748" transform="translate(13.251 46.226)"/>
        <circle id="Ellipse_11812" data-name="Ellipse 11812" cx="0.748" cy="0.748" r="0.748" transform="translate(16.532 42.831)"/>
        <circle id="Ellipse_11813" data-name="Ellipse 11813" cx="0.748" cy="0.748" r="0.748" transform="translate(26.337 46.954)"/>
        <circle id="Ellipse_11814" data-name="Ellipse 11814" cx="0.748" cy="0.748" r="0.748" transform="translate(29.627 42.189)"/>
        <circle id="Ellipse_11815" data-name="Ellipse 11815" cx="0.748" cy="0.748" r="0.748" transform="translate(32.406 40.751)"/>
        <circle id="Ellipse_11816" data-name="Ellipse 11816" cx="0.748" cy="0.748" r="0.748" transform="translate(32.502 43.686)"/>
        <circle id="Ellipse_11817" data-name="Ellipse 11817" cx="0.748" cy="0.748" r="0.748" transform="translate(44.117 45.035)"/>
        <circle id="Ellipse_11818" data-name="Ellipse 11818" cx="0.748" cy="0.748" r="0.748" transform="translate(46.579 42.786)"/>
      </g>
    </g>
  </g>
</svg>
