<svg xmlns="http://www.w3.org/2000/svg" xmlns:xlink="http://www.w3.org/1999/xlink" width="98" height="98" viewBox="0 0 98 98">
  <defs>
    <filter id="Path_896985" x="0" y="0" width="98" height="98" filterUnits="userSpaceOnUse">
      <feOffset dy="3" input="SourceAlpha"/>
      <feGaussianBlur stdDeviation="3" result="blur"/>
      <feFlood flood-opacity="0.161"/>
      <feComposite operator="in" in2="blur"/>
      <feComposite in="SourceGraphic"/>
    </filter>
  </defs>
  <g id="Group_1113135" data-name="Group 1113135" transform="translate(-300.667 -6342)">
    <g id="Group_1111470" data-name="Group 1111470" transform="translate(309.667 6348)" style="isolation: isolate">
      <g id="Group_1098742" data-name="Group 1098742">
        <g transform="matrix(1, 0, 0, 1, -9, -6)" filter="url(#Path_896985)">
          <g id="Path_896985-2" data-name="Path 896985" transform="translate(9 6)" fill="#8dc0ff">
            <path d="M 40.00000381469727 78.50012969970703 C 34.80187225341797 78.50012969970703 29.76003646850586 77.48240661621094 25.0145263671875 75.47523498535156 C 20.43014907836914 73.53620147705078 16.31264877319336 70.75999450683594 12.77639293670654 67.22373962402344 C 9.240137100219727 63.68747711181641 6.463937282562256 59.56997680664062 4.524903774261475 54.98559951782227 C 2.517725944519043 50.24008560180664 1.500003814697266 45.1982421875 1.500003814697266 40.0001106262207 C 1.500003814697266 34.80195236206055 2.517725944519043 29.76008796691895 4.524914741516113 25.01456451416016 C 6.463937282562256 20.43017578125 9.240137100219727 16.31266403198242 12.77639293670654 12.77639865875244 C 16.31264877319336 9.240142822265625 20.43014907836914 6.463931560516357 25.0145263671875 4.524909496307373 C 29.76003646850586 2.517720460891724 34.80187225341797 1.499998211860657 40.00000381469727 1.499998211860657 C 45.19813537597656 1.499998211860657 50.23998260498047 2.517720460891724 54.98548126220703 4.524898052215576 C 59.56985855102539 6.463931560516357 63.68735885620117 9.240131378173828 67.22361755371094 12.77638721466064 C 70.75987243652344 16.31264305114746 73.53607177734375 20.43015289306641 75.47510528564453 25.0145206451416 C 77.48228454589844 29.76003074645996 78.5 34.80187606811523 78.5 40.00000762939453 C 78.5 45.19816589355469 77.48228454589844 50.24003219604492 75.47510528564453 54.98555374145508 C 73.53607177734375 59.56994247436523 70.75987243652344 63.68746566772461 67.22361755371094 67.22373199462891 C 63.68735885620117 70.75998687744141 59.56985855102539 73.53620147705078 54.98548126220703 75.4752197265625 C 50.23998260498047 77.48240661621094 45.19813537597656 78.50012969970703 40.00000381469727 78.50012969970703 Z" stroke="none"/>
            <path d="M 40.00000381469727 3 C 35.00371170043945 3 30.15847015380859 3.977851867675781 25.59885787963867 5.906410217285156 C 21.19327163696289 7.769813537597656 17.23603057861328 10.43806457519531 13.83704376220703 13.83705139160156 C 10.43807220458984 17.23603820800781 7.769813537597656 21.19327926635742 5.906417846679688 25.59885025024414 C 3.977859497070312 30.15846633911133 3.000007629394531 35.00370407104492 3.000007629394531 40.00011825561523 C 3.000007629394531 44.99641036987305 3.977859497070312 49.84166717529297 5.906417846679688 54.40127563476562 C 7.769813537597656 58.80685424804688 10.43807220458984 62.76409149169922 13.83704376220703 66.16307830810547 C 17.23603057861328 69.56206512451172 21.19327163696289 72.23031616210938 25.59885787963867 74.09371948242188 C 30.1584587097168 76.02227783203125 35.00371170043945 77.00012969970703 40.00000381469727 77.00012969970703 C 44.99629592895508 77.00012969970703 49.841552734375 76.02227783203125 54.40114974975586 74.09371948242188 C 58.80673980712891 72.23031616210938 62.76397705078125 69.56206512451172 66.1629638671875 66.16307830810547 C 69.56193542480469 62.76409149169922 72.23019409179688 58.80685424804688 74.09358978271484 54.40127563476562 C 76.02214813232422 49.84166717529297 77 44.99641036987305 77 40 C 77 35.00370407104492 76.02214813232422 30.15846633911133 74.09358978271484 25.59885025024414 C 72.23019409179688 21.19327926635742 69.56193542480469 17.23603820800781 66.1629638671875 13.83705139160156 C 62.76397705078125 10.43806457519531 58.80673980712891 7.769813537597656 54.40114974975586 5.906410217285156 C 49.84153747558594 3.977851867675781 44.99629592895508 3 40.00000381469727 3 M 40.00000381469727 0 C 62.09140396118164 0 80 17.90861129760742 80 40 L 80 40.00011825561523 C 80 62.09151840209961 62.09140396118164 80.00012969970703 40.00000381469727 80.00012969970703 C 17.90860366821289 80.00012969970703 7.62939453125e-06 62.09151840209961 7.62939453125e-06 40.00011825561523 L 7.62939453125e-06 40 C 7.62939453125e-06 17.90861129760742 17.90860366821289 0 40.00000381469727 0 Z" stroke="none" fill="#fff"/>
          </g>
        </g>
        <g id="Rectangle_400907" data-name="Rectangle 400907" transform="translate(0 0)" fill="none" stroke="#fff" stroke-width="3">
          <rect width="80" height="80" rx="40" stroke="none"/>
          <rect x="1.5" y="1.5" width="77" height="77" rx="38.5" fill="none"/>
        </g>
      </g>
    </g>
    <g id="Group_1113134" data-name="Group 1113134" transform="translate(322.667 6309.705)">
      <g id="Group_1113132" data-name="Group 1113132" transform="translate(0.789 58.084)">
        <path id="Path_901319" data-name="Path 901319" d="M21.728,300.89,7.665,315a.563.563,0,0,0,.4.96H44.7a1.266,1.266,0,0,0,.9-.372l14.063-14.11a.563.563,0,0,0-.4-.96H22.625A1.266,1.266,0,0,0,21.728,300.89Z" transform="translate(-7.5 -275.703)" fill="#ffa78f"/>
        <g id="Group_1113130" data-name="Group 1113130" transform="translate(10.543 24.815)">
          <path id="Path_901320" data-name="Path 901320" d="M110.242,414.008a2.427,2.427,0,0,0-2.593,2.216,2,2,0,0,0,.476,1.279h4.235a2,2,0,0,0,.476-1.279A2.427,2.427,0,0,0,110.242,414.008Z" transform="translate(-107.649 -402.061)" fill="#f89580"/>
          <path id="Path_901321" data-name="Path 901321" d="M345.862,300.518h-3.474a.563.563,0,0,1,.4.96l-14.063,14.11a1.266,1.266,0,0,1-.9.372H331.3a1.266,1.266,0,0,0,.9-.372l14.063-14.11A.563.563,0,0,0,345.862,300.518Z" transform="translate(-304.649 -300.518)" fill="#f89580"/>
          <ellipse id="Ellipse_11819" data-name="Ellipse 11819" cx="3.52" cy="2.446" rx="3.52" ry="2.446" transform="translate(12.053 5.92)" fill="#f89580"/>
        </g>
        <path id="Path_901322" data-name="Path 901322" d="M21.728,220.726,7.665,234.836a.563.563,0,0,0,.4.96H44.7a1.266,1.266,0,0,0,.9-.372l14.063-14.11a.563.563,0,0,0-.4-.96H22.625a1.266,1.266,0,0,0-.9.372Z" transform="translate(-7.5 -203.978)" fill="#e8ad8c"/>
        <path id="Path_901323" data-name="Path 901323" d="M345.862,220.355h-3.474a.563.563,0,0,1,.4.96l-14.063,14.11a1.266,1.266,0,0,1-.9.372H331.3a1.266,1.266,0,0,0,.9-.372l14.063-14.11A.563.563,0,0,0,345.862,220.355Z" transform="translate(-294.106 -203.979)" fill="#e19974"/>
        <path id="Path_901324" data-name="Path 901324" d="M21.728,135.651,7.665,149.761a.563.563,0,0,0,.4.96H44.7a1.266,1.266,0,0,0,.9-.372l14.063-14.11a.563.563,0,0,0-.4-.96H22.625A1.266,1.266,0,0,0,21.728,135.651Z" transform="translate(-7.5 -127.859)" fill="#68ca44"/>
        <path id="Path_901325" data-name="Path 901325" d="M345.862,135.279h-3.474a.563.563,0,0,1,.4.96l-14.063,14.11a1.266,1.266,0,0,1-.9.372H331.3a1.266,1.266,0,0,0,.9-.372l14.063-14.11A.563.563,0,0,0,345.862,135.279Z" transform="translate(-294.106 -127.859)" fill="#4fc123"/>
        <g id="Group_1113131" data-name="Group 1113131" transform="translate(9.784 4.778)">
          <path id="Path_901326" data-name="Path 901326" d="M105.653,110.182a5.217,5.217,0,0,0-5.211,5.211c0,4.23,5.211,7.422,5.211,7.422s5.211-3.336,5.211-7.422A5.217,5.217,0,0,0,105.653,110.182Zm0,6.948a1.737,1.737,0,1,1,1.737-1.737A1.737,1.737,0,0,1,105.653,117.13Z" transform="translate(-100.442 -110.182)" fill="#fd8087"/>
        </g>
        <path id="Path_901327" data-name="Path 901327" d="M344.03,65.258a.462.462,0,0,1,.517-.46,4.2,4.2,0,0,1,3.68,4.166v.815h-.911a3.287,3.287,0,0,1-3.287-3.287V65.258Z" transform="translate(-308.603 -64.795)" fill="#68ca44"/>
        <path id="Path_901328" data-name="Path 901328" d="M388.1,65.258a.462.462,0,0,0-.517-.46,4.2,4.2,0,0,0-3.68,4.166v.815h.911a3.287,3.287,0,0,0,3.287-3.287V65.258Z" transform="translate(-344.28 -64.795)" fill="#4fc123"/>
      </g>
      <g id="Group_1113133" data-name="Group 1113133" transform="translate(-0.001 57.295)">
        <path id="Path_901329" data-name="Path 901329" d="M48.7,80.8l.007-.008,4.8-4.813a1.352,1.352,0,0,0-.957-2.307h-5.67L53.5,67.022a1.352,1.352,0,0,0-.957-2.307H41.2v-.856h.121A4.081,4.081,0,0,0,45.4,59.783V58.547A1.252,1.252,0,0,0,44,57.3a4.978,4.978,0,0,0-3.584,2.26,4.978,4.978,0,0,0-3.584-2.26,1.252,1.252,0,0,0-1.4,1.243v1.235A4.081,4.081,0,0,0,39.5,63.859h.121v.856H28.088a.79.79,0,1,0,0,1.579H32.93L26.8,72.435H20.17a7.524,7.524,0,0,0,1.615-4.362,5.978,5.978,0,0,0-.269-1.779H24.4a.79.79,0,1,0,0-1.579H20.754A6,6,0,0,0,9.783,68.073a6.271,6.271,0,0,0,.239,1.7L.395,79.429a1.352,1.352,0,0,0,.957,2.307h5.67L.395,88.385a1.352,1.352,0,0,0,.957,2.307H6.507L.395,96.825a1.352,1.352,0,0,0,.957,2.306H27.227a.79.79,0,0,0,0-1.579H17.263a2.715,2.715,0,0,0,.045-.489,3.215,3.215,0,0,0-3.383-3.006,3.214,3.214,0,0,0-3.382,3.006,2.716,2.716,0,0,0,.045.489H1.9l6.836-6.86H22.661a2.535,2.535,0,0,0-.066.574c0,1.815,1.893,3.236,4.31,3.236s4.31-1.421,4.31-3.236a2.535,2.535,0,0,0-.066-.574h6.837a2.068,2.068,0,0,0,1.455-.6l6.377-6.4H52L38.321,97.412a.477.477,0,0,1-.336.139H30.911a.79.79,0,0,0,0,1.579h7.073a2.067,2.067,0,0,0,1.455-.6L53.5,84.417a1.352,1.352,0,0,0-.957-2.307H47.391l1.3-1.306Zm-4.878-21.86v.845a2.5,2.5,0,0,1-2.5,2.5H41.2v-.026A3.411,3.411,0,0,1,43.822,58.937Zm-6.816.845v-.845a3.411,3.411,0,0,1,2.618,3.316v.026H39.5a2.5,2.5,0,0,1-2.5-2.5ZM12.121,97.063a1.65,1.65,0,0,1,1.8-1.427,1.651,1.651,0,0,1,1.8,1.427,1.136,1.136,0,0,1-.112.489H12.233a1.137,1.137,0,0,1-.112-.489ZM48.14,79.122l-3.354-3.354.516-.518H52Zm-6.635,6.658-4.043-4.043h.522a2.067,2.067,0,0,0,1.455-.6l.915-.918,3.354,3.354Zm-9.958,3.334L24.17,81.736h4.412l7.377,7.376Zm-6.647,0-7.376-7.376h4.414l7.377,7.376Zm-6.647,0-7.376-7.376H15.29l7.376,7.376Zm-6.646,0L6.745,84.251l2.2-2.21,7.072,7.073Zm9.712-8.956,6.133-6.143H44.3s-3.24,3.248-5.983,6a.478.478,0,0,1-.336.14Zm23.5,2.292L41.469,79.1l2.2-2.209,3.354,3.354ZM35.161,66.294h4.463v3.358a.79.79,0,0,0,1.579,0V66.294H52l-6.122,6.142H29.029ZM15.784,63.652a4.427,4.427,0,0,1,4.422,4.421c0,1.837-1.284,3.554-2.361,4.671a16.2,16.2,0,0,1-2.068,1.795c-1.177-.831-4.414-3.4-4.414-6.466A4.426,4.426,0,0,1,15.784,63.652Zm-4.433,8.784H9.594l1.077-1.081A9.917,9.917,0,0,0,11.351,72.435Zm-3.33,1.579H12.7a15.838,15.838,0,0,0,2.67,2.154.79.79,0,0,0,.838-.008,16.8,16.8,0,0,0,2.6-2.145h6.408l-6.133,6.143H1.9ZM5.63,85.369l3.744,3.744H1.9Zm24.005,5.9c0,.883-1.276,1.657-2.731,1.657s-2.731-.774-2.731-1.657a1.058,1.058,0,0,1,.182-.574h5.1a1.058,1.058,0,0,1,.182.574Zm8.686-2.292a.472.472,0,0,1-.162.105l-7.344-7.343h4.414L40.39,86.9Z" transform="translate(0.001 -57.295)"/>
        <path id="Path_901330" data-name="Path 901330" d="M128.468,140.736a2.527,2.527,0,1,0-2.527-2.526A2.529,2.529,0,0,0,128.468,140.736Zm0-3.474a.947.947,0,1,1-.947.947A.949.949,0,0,1,128.468,137.262Z" transform="translate(-112.683 -127.431)"/>
      </g>
    </g>
  </g>
</svg>
