<svg xmlns="http://www.w3.org/2000/svg" width="400" height="343.359" viewBox="0 0 400 343.359">
  <g id="Group_1111431" data-name="Group 1111431" transform="translate(-390.051 -5231.641)">
    <path id="Path_900279" data-name="Path 900279" d="M4.605-6.706h.053l1.2-2.8H9.193l-2.76,4.7L9.29,0H5.959L4.693-2.892H4.641L3.375,0H.044L2.9-4.808.132-9.51H3.445Z" transform="translate(438.095 5241.15)" fill="#12263f"/>
    <g id="Group_1111430" data-name="Group 1111430" transform="translate(390.051 5242.15)">
      <g id="Rectangle_406363" data-name="Rectangle 406363" transform="translate(29 23.85)" fill="#fff" stroke="#12263f" stroke-width="3">
        <rect width="371" height="309" stroke="none"/>
        <rect x="1.5" y="1.5" width="368" height="306" fill="none"/>
      </g>
      <g id="Group_1111414" data-name="Group 1111414" transform="translate(8.044 22.5)">
        <path id="Polygon_1" data-name="Polygon 1" d="M8.5,0,17,14H0Z" transform="translate(17 63.5) rotate(180)" fill="#12263f"/>
        <line id="Line_563" data-name="Line 563" y1="56" transform="translate(8.5)" fill="none" stroke="#12263f" stroke-width="4"/>
      </g>
      <g id="Group_1111415" data-name="Group 1111415" transform="translate(29.044 17) rotate(-90)">
        <path id="Polygon_1-2" data-name="Polygon 1" d="M8.5,0,17,14H0Z" transform="translate(17 63.5) rotate(180)" fill="#12263f"/>
        <line id="Line_563-2" data-name="Line 563" y1="56" transform="translate(8.5 0)" fill="none" stroke="#12263f" stroke-width="4"/>
      </g>
      <path id="Path_900280" data-name="Path 900280" d="M4.526-4.192l.009.07h.053L6.161-9.51H9.325L5.537,1.415A5.24,5.24,0,0,1,4.4,3.155,3.043,3.043,0,0,1,2.2,3.841a3.387,3.387,0,0,1-.633-.048q-.246-.048-.773-.18l.36-2.118.185.04a.778.778,0,0,0,.158.013A1.974,1.974,0,0,0,2.522,1.34a1.224,1.224,0,0,0,.483-.62L3.243.105-.044-9.51H3.111Z" transform="translate(0.044 46)" fill="#12263f"/>
      <g id="Group_1111429" data-name="Group 1111429" transform="translate(29 23.85)">
        <line id="Line_564" data-name="Line 564" y2="306.464" transform="translate(73.921)" fill="none" stroke="#12263f" stroke-width="2"/>
        <line id="Line_568" data-name="Line 568" x1="368.473" transform="translate(0 62)" fill="none" stroke="#12263f" stroke-width="2"/>
        <line id="Line_569" data-name="Line 569" x1="368.473" transform="translate(0 122.982)" fill="none" stroke="#12263f" stroke-width="2"/>
        <line id="Line_570" data-name="Line 570" x1="368.473" transform="translate(0 183.964)" fill="none" stroke="#12263f" stroke-width="2"/>
        <line id="Line_571" data-name="Line 571" x1="368.473" transform="translate(0 244.946)" fill="none" stroke="#12263f" stroke-width="2"/>
        <line id="Line_565" data-name="Line 565" y2="306.464" transform="translate(148.896)" fill="none" stroke="#12263f" stroke-width="2"/>
        <line id="Line_566" data-name="Line 566" y2="306.464" transform="translate(221.242)" fill="none" stroke="#12263f" stroke-width="2"/>
        <line id="Line_567" data-name="Line 567" y2="306.464" transform="translate(298.561)" fill="none" stroke="#12263f" stroke-width="2"/>
        <path id="Path_900283" data-name="Path 900283" d="M-7412.136-5678.859s-12.888-28.234-4.994-57.781,34.7-44.677,34.7-44.677l26.8,5.339s15.078,1.106,20.363,1.7,5.869-1.5,18.325,0,15.587-.177,19.266,0,11.479.352,12.965-7.037.066-27.666,4.891-30.437,17.88-7.371,31.962-9.3,27.879-9.647,40.859-18.256,24.038-21.215,26.195-23.455,10.166-.957,12.927-8.8-2.821-13.387,0-18.074,33.235-15.186,33.235-15.186h20s3.844,18.363,9.769,19.154,2.9-38.769,7.919-43.386,22.58-15.992,25.209-15.117" transform="translate(7439.023 5981.5)" fill="none" stroke="#12263f" stroke-width="2"/>
        <circle id="Ellipse_11634" data-name="Ellipse 11634" cx="5" cy="5" r="5" transform="translate(19.023 4.5)" fill="#12263f"/>
        <circle id="Ellipse_11635" data-name="Ellipse 11635" cx="5" cy="5" r="5" transform="translate(77.61 64.5)" fill="#12263f"/>
        <circle id="Ellipse_11636" data-name="Ellipse 11636" cx="5" cy="5" r="5" transform="translate(128.3 46.5)" fill="#12263f"/>
        <circle id="Ellipse_11637" data-name="Ellipse 11637" cx="5" cy="5" r="5" transform="translate(162.438 4.5)" fill="#12263f"/>
        <circle id="Ellipse_11638" data-name="Ellipse 11638" cx="5" cy="5" r="5" transform="translate(278.3 4.5)" fill="#12263f"/>
        <circle id="Ellipse_11639" data-name="Ellipse 11639" cx="5" cy="5" r="5" transform="translate(298.973 23.5)" fill="#12263f"/>
        <circle id="Ellipse_11640" data-name="Ellipse 11640" cx="5" cy="5" r="5" transform="translate(221.404 64.5)" fill="#12263f"/>
        <circle id="Ellipse_11641" data-name="Ellipse 11641" cx="5" cy="5" r="5" transform="translate(167.611 103.5)" fill="#12263f"/>
        <circle id="Ellipse_11642" data-name="Ellipse 11642" cx="5" cy="5" r="5" transform="translate(57.023 100.5)" fill="#12263f"/>
        <circle id="Ellipse_11643" data-name="Ellipse 11643" cx="5" cy="5" r="5" transform="translate(52.023 161.5)" fill="#12263f"/>
        <circle id="Ellipse_11645" data-name="Ellipse 11645" cx="5" cy="5" r="5" transform="translate(47.023 283.5)" fill="#12263f"/>
        <circle id="Ellipse_11646" data-name="Ellipse 11646" cx="5" cy="5" r="5" transform="translate(77.61 273.5)" fill="#12263f"/>
        <circle id="Ellipse_11647" data-name="Ellipse 11647" cx="5" cy="5" r="5" transform="translate(123.128 194.5)" fill="#12263f"/>
        <circle id="Ellipse_11648" data-name="Ellipse 11648" cx="5" cy="5" r="5" transform="translate(117.955 140.5)" fill="#12263f"/>
        <circle id="Ellipse_11649" data-name="Ellipse 11649" cx="5" cy="5" r="5" transform="translate(196.576 140.5)" fill="#12263f"/>
        <circle id="Ellipse_11650" data-name="Ellipse 11650" cx="5" cy="5" r="5" transform="translate(206.921 189.5)" fill="#12263f"/>
        <circle id="Ellipse_11651" data-name="Ellipse 11651" cx="5" cy="5" r="5" transform="translate(186.231 266.5)" fill="#12263f"/>
        <circle id="Ellipse_11652" data-name="Ellipse 11652" cx="5" cy="5" r="5" transform="translate(247.266 248.5)" fill="#12263f"/>
        <circle id="Ellipse_11653" data-name="Ellipse 11653" cx="5" cy="5" r="5" transform="translate(281.404 189.5)" fill="#12263f"/>
        <circle id="Ellipse_11654" data-name="Ellipse 11654" cx="5" cy="5" r="5" transform="translate(262.783 130.5)" fill="#12263f"/>
        <circle id="Ellipse_11655" data-name="Ellipse 11655" cx="5" cy="5" r="5" transform="translate(313.973 105.5)" fill="#12263f"/>
        <circle id="Ellipse_11656" data-name="Ellipse 11656" cx="5" cy="5" r="5" transform="translate(346.973 161.5)" fill="#12263f"/>
        <circle id="Ellipse_11657" data-name="Ellipse 11657" cx="5" cy="5" r="5" transform="translate(350.973 229.5)" fill="#12263f"/>
        <circle id="Ellipse_11658" data-name="Ellipse 11658" cx="5" cy="5" r="5" transform="translate(338.973 292.5)" fill="#12263f"/>
        <circle id="Ellipse_11644" data-name="Ellipse 11644" cx="5" cy="5" r="5" transform="translate(0.023 194.5)" fill="#12263f"/>
        <text id="Zona_2" data-name="Zona 2" transform="translate(256.79 225.5)" fill="#12263f" font-size="19" font-family="Roboto-Bold, Roboto" font-weight="700"><tspan x="-29.261" y="0">Zona 2</tspan></text>
        <text id="Zona_1" data-name="Zona 1" transform="translate(112.227 98.5)" fill="#12263f" font-size="19" font-family="Roboto-Bold, Roboto" font-weight="700"><tspan x="-29.261" y="0">Zona 1</tspan></text>
      </g>
    </g>
  </g>
</svg>
