<svg id="Group_1111519" data-name="Group 1111519" xmlns="http://www.w3.org/2000/svg" xmlns:xlink="http://www.w3.org/1999/xlink" width="317.735" height="202.478" viewBox="0 0 317.735 202.478">
  <defs>
    <clipPath id="clip-path">
      <rect id="Rectangle_404660" data-name="Rectangle 404660" width="317.735" height="202.478" fill="none"/>
    </clipPath>
    <clipPath id="clip-path-2">
      <path id="Path_900431" data-name="Path 900431" d="M566.628,225.7c.538,1.7,2.653,2.008,4.074.764-.71-1.481-1.561-2.093-2.331-2.093a2.064,2.064,0,0,0-1.743,1.329" transform="translate(-566.628 -224.368)" fill="none"/>
    </clipPath>
    <clipPath id="clip-path-4">
      <path id="Path_900435" data-name="Path 900435" d="M610.541,222.179a1.659,1.659,0,1,0,1.587-2.487c-.672,0-1.3.731-1.587,2.487" transform="translate(-610.541 -219.692)" fill="none"/>
    </clipPath>
  </defs>
  <g id="Group_1111510" data-name="Group 1111510" transform="translate(0 0)">
    <g id="Group_1111509" data-name="Group 1111509" transform="translate(0 0)" clip-path="url(#clip-path)">
      <path id="Path_900334" data-name="Path 900334" d="M254.139,0C128.577-1.009,65.751,148.854,169.248,160.483s115.126,11.629,134.9,35.468,89.543-22.676,80.24-70.937-73.844-19.188-81.4-39.538S326.239.585,254.139,0" transform="translate(-100.653 0.001)" fill="#ffead9"/>
      <path id="Path_900335" data-name="Path 900335" d="M902.234,38.936a38.3,38.3,0,1,0,38.3,38.3,38.3,38.3,0,0,0-38.3-38.3m0,49.922A11.626,11.626,0,1,1,913.86,77.232a11.626,11.626,0,0,1-11.626,11.626" transform="translate(-741.597 -33.422)" fill="#e2e9fb"/>
      <path id="Path_900336" data-name="Path 900336" d="M1157.853,45.92l-6.243,25.939a11.639,11.639,0,0,1,7.478,5.3l23.01-13.492a38.355,38.355,0,0,0-24.245-17.748" transform="translate(-988.532 -39.417)" fill="#e9595c"/>
      <path id="Path_900337" data-name="Path 900337" d="M916.228,229.1a38.3,38.3,0,0,0,32.928-57.856l-23.01,13.492a11.627,11.627,0,1,1-20.885,9.933l-25.021,9.259A38.311,38.311,0,0,0,916.228,229.1" transform="translate(-755.59 -146.999)" fill="#ffcc63"/>
      <path id="Path_900338" data-name="Path 900338" d="M903.832,88.254a11.745,11.745,0,1,1,11.745-11.745,11.758,11.758,0,0,1-11.745,11.745m0-23.251a11.506,11.506,0,1,0,11.506,11.506A11.519,11.519,0,0,0,903.832,65m-37.913,6.189H865.9a.119.119,0,0,1-.1-.135,38.424,38.424,0,0,1,72.34-11.848.119.119,0,1,1-.213.108,38.187,38.187,0,0,0-71.89,11.774.12.12,0,0,1-.118.1" transform="translate(-743.195 -32.699)" fill="#451d26"/>
      <path id="Path_900339" data-name="Path 900339" d="M121.979,636.34l1.553-1.552,10.159,10.159V629.47h2.2v30.4h-2.2V648.052Z" transform="translate(-104.706 -540.331)" fill="#824648"/>
      <path id="Path_900340" data-name="Path 900340" d="M137.806,535.124a11.8,11.8,0,1,0,11.8-11.8,11.8,11.8,0,0,0-11.8,11.8" transform="translate(-118.291 -449.217)" fill="#628056"/>
      <path id="Path_900341" data-name="Path 900341" d="M62.826,593.98a8.508,8.508,0,1,0,8.508-8.508,8.508,8.508,0,0,0-8.508,8.508" transform="translate(-53.929 -502.564)" fill="#83a973"/>
      <path id="Path_900342" data-name="Path 900342" d="M285.112,710.071a8.508,8.508,0,1,0,8.508-8.508,8.508,8.508,0,0,0-8.508,8.508" transform="translate(-244.738 -602.215)" fill="#628056"/>
      <path id="Path_900343" data-name="Path 900343" d="M924.717,668l-1.553-1.552L913,676.608V661.131h-2.2v30.4H913V679.713Z" transform="translate(-781.831 -567.509)" fill="#824648"/>
      <path id="Path_900344" data-name="Path 900344" d="M844.2,566.785a11.8,11.8,0,1,1-11.8-11.8,11.8,11.8,0,0,1,11.8,11.8" transform="translate(-704.393 -476.394)" fill="#628056"/>
      <path id="Path_900345" data-name="Path 900345" d="M965.031,625.641a8.508,8.508,0,1,1-8.508-8.508,8.508,8.508,0,0,1,8.508,8.508" transform="translate(-813.768 -529.741)" fill="#83a973"/>
      <path id="Path_900346" data-name="Path 900346" d="M728.233,713.588a8.508,8.508,0,1,1-8.508-8.508,8.508,8.508,0,0,1,8.508,8.508" transform="translate(-610.502 -605.234)" fill="#628056"/>
      <path id="Path_900347" data-name="Path 900347" d="M169.3,833.349c103.5,11.629,115.126,11.629,134.9,35.468s89.543-22.676,80.239-70.936a38.8,38.8,0,0,0-5.385-14.013H117.317c.384,25.027,16.3,45.472,51.982,49.482" transform="translate(-100.704 -672.865)" fill="#628056"/>
      <path id="Path_900348" data-name="Path 900348" d="M130.068,869.873H391.939a47.185,47.185,0,0,0-.84-9.712c-.251-1.3-.544-2.546-.874-3.739H125.082a46.139,46.139,0,0,0,4.986,13.451" transform="translate(-107.369 -735.146)" fill="#83a973"/>
      <path id="Path_900349" data-name="Path 900349" d="M1133.207,1194.141H1003.03c24.979,3.512,37.778,6.926,47.441,13.45h70.861a88.328,88.328,0,0,0,11.875-13.45" transform="translate(-860.992 -1025.04)" fill="#83a973"/>
      <path id="Path_900350" data-name="Path 900350" d="M464.221,1017.368H210.49c5.839,5.848,13.7,10.484,23.743,13.45H459.7a60.081,60.081,0,0,0,4.516-13.45" transform="translate(-180.683 -873.3)" fill="#83a973"/>
      <path id="Path_900351" data-name="Path 900351" d="M1501.659,213.856c-47.036-23.518-60.47,48.841-12.21,52.912s40.12-38.957,12.21-52.912" transform="translate(-1252.547 -179.546)" fill="#ffead9"/>
      <path id="Path_900352" data-name="Path 900352" d="M174.9,147.469H267.8c-8.379-4.329-22.983-3.788-22.983-3.788-14.365-22.729-40.221-8.478-43.812-2.165-7.9-1.984-22.744,2.886-26.1,5.953" transform="translate(-150.137 -112.687)" fill="#fff"/>
      <path id="Path_900353" data-name="Path 900353" d="M503.946,161.39H493.813a.119.119,0,0,1,0-.239h9.676c-7.507-4.069-20.16-3.6-20.29-3.591a.119.119,0,0,1-.109-.061c-5.941-10.526-13.818-12.592-19.381-12.475a.113.113,0,0,1-.122-.117.119.119,0,0,1,.117-.122c5.613-.119,13.563,1.958,19.558,12.533,1.072-.034,13.525-.327,20.743,3.849a.119.119,0,0,1-.06.223" transform="translate(-397.94 -124.278)" fill="#451d26"/>
      <path id="Path_900354" data-name="Path 900354" d="M218.728,177.278H155.584a.119.119,0,0,1-.085-.2c3.028-3.1,16.36-8.032,23.586-6.076,1.1-2.069,4.525-5.327,9.552-7.7a.119.119,0,1,1,.1.216c-5.047,2.38-8.455,5.648-9.486,7.677a.119.119,0,0,1-.139.061c-6.98-1.963-19.861,2.694-23.235,5.784h62.849a.119.119,0,1,1,0,.239" transform="translate(-133.449 -140.166)" fill="#451d26"/>
      <path id="Path_900355" data-name="Path 900355" d="M1587.778,578.852h92.891c-8.379-4.329-22.983-3.788-22.983-3.788-14.365-22.729-40.221-8.478-43.812-2.165-7.9-1.984-22.744,2.886-26.1,5.953" transform="translate(-1362.935 -482.982)" fill="#fff"/>
      <path id="Path_900356" data-name="Path 900356" d="M1916.818,592.771h-10.134a.119.119,0,1,1,0-.239h9.676c-7.507-4.069-20.16-3.6-20.29-3.591a.116.116,0,0,1-.109-.061c-5.941-10.526-13.818-12.594-19.38-12.475a.116.116,0,0,1-.122-.117.119.119,0,0,1,.117-.122c5.611-.117,13.563,1.958,19.558,12.533,1.072-.034,13.525-.327,20.743,3.849a.119.119,0,0,1-.06.223" transform="translate(-1610.736 -494.573)" fill="#451d26"/>
      <path id="Path_900357" data-name="Path 900357" d="M1631.6,608.657h-63.145a.119.119,0,0,1-.085-.2c3.027-3.1,16.36-8.033,23.586-6.076,1.1-2.069,4.525-5.327,9.552-7.7a.119.119,0,1,1,.1.216c-5.047,2.38-8.455,5.648-9.486,7.677a.12.12,0,0,1-.139.061c-6.98-1.963-19.861,2.694-23.234,5.784H1631.6a.119.119,0,1,1,0,.239" transform="translate(-1346.248 -510.459)" fill="#451d26"/>
      <path id="Path_900358" data-name="Path 900358" d="M1038.917,1367.6a.119.119,0,0,1-.119-.119v-5.391a.119.119,0,1,1,.239,0v5.391a.119.119,0,0,1-.119.119" transform="translate(-891.695 -1169.107)" fill="#451d26"/>
      <path id="Path_900359" data-name="Path 900359" d="M1015.661,1314.974a4.388,4.388,0,1,1-4.388-4.388,4.388,4.388,0,0,1,4.388,4.388" transform="translate(-864.302 -1124.995)" fill="#f0954f"/>
      <path id="Path_900360" data-name="Path 900360" d="M1031.4,1400.944h-6.425a.119.119,0,0,1,0-.239h6.425a.119.119,0,0,1,0,.239" transform="translate(-879.726 -1202.353)" fill="#451d26"/>
      <path id="Path_900361" data-name="Path 900361" d="M842.419,1043.677l-.5,12.265H813.335c-.836,5.85,2.34,11.2,7.355,11.7.167,12.035,7.355,20.894,21.4,19.389s22.064-18.219,15.712-28.248-8.525-12.536-8.525-12.536Z" transform="translate(-698.045 -895.883)" fill="#ffa763"/>
      <path id="Path_900362" data-name="Path 900362" d="M838.371,1086.592c-4.988,0-9.227-1.441-12.378-4.233-3.856-3.417-6.039-8.859-6.151-15.332a7.691,7.691,0,0,1-5.254-3.026,11.618,11.618,0,0,1-2.1-8.8.119.119,0,0,1,.118-.1h28.468l.5-12.15a.119.119,0,0,1,.161-.107l6.853,2.57a.118.118,0,0,1,.048.034c.022.025,2.252,2.629,8.535,12.551,2.925,4.618,2.982,10.873.154,16.732a20.265,20.265,0,0,1-15.954,11.7,28.171,28.171,0,0,1-3,.164m-25.662-31.254a11.356,11.356,0,0,0,2.067,8.515,7.452,7.452,0,0,0,5.2,2.947.119.119,0,0,1,.108.117c.089,6.452,2.246,11.872,6.073,15.263,3.713,3.29,8.967,4.677,15.191,4.01a20.027,20.027,0,0,0,15.764-11.566c2.792-5.784,2.74-11.953-.141-16.5-5.963-9.415-8.265-12.225-8.495-12.5l-6.67-2.5-.495,12.1a.119.119,0,0,1-.119.115Z" transform="translate(-697.315 -895.16)" fill="#451d26"/>
      <path id="Path_900363" data-name="Path 900363" d="M1023.421,986.325a1.432,1.432,0,0,0-.982.4,2.164,2.164,0,0,0-2.133-1.917,2.189,2.189,0,0,0-2.189,2.189,2.009,2.009,0,0,0,.071.349c-.025,0-.046-.014-.071-.014a1.442,1.442,0,0,0,0,2.885,1.423,1.423,0,0,0,1.392-1.192,2.086,2.086,0,0,0,2.562-.8,1.434,1.434,0,1,0,1.351-1.895" transform="translate(-872.704 -845.349)" fill="#e9595c"/>
      <path id="Path_900364" data-name="Path 900364" d="M1028.04,1011.88a4.447,4.447,0,1,1-4.447-4.447,4.447,4.447,0,0,1,4.447,4.447" transform="translate(-874.827 -864.771)" fill="#ffa763"/>
      <path id="Path_900365" data-name="Path 900365" d="M1022.869,1015.723a4.566,4.566,0,1,1,0-9.132.119.119,0,0,1,0,.239,4.327,4.327,0,1,0,0,8.654.119.119,0,1,1,0,.239" transform="translate(-874.102 -864.049)" fill="#451d26"/>
      <path id="Path_900366" data-name="Path 900366" d="M1067.783,1030.976l4,1.676s-3.626,2.086-3.865,2.086c-2.223-1.608-1.061-4.036-.137-3.763" transform="translate(-915.596 -884.962)" fill="#ffcc63"/>
      <path id="Path_900367" data-name="Path 900367" d="M1050.221,1027.2a.924.924,0,1,1-.923-.924.924.924,0,0,1,.923.924" transform="translate(-899.915 -880.944)" fill="#4f2b2c"/>
      <path id="Path_900368" data-name="Path 900368" d="M931.425,1165.436a10.363,10.363,0,0,1-10.363,10.363c-5.723,0-17.8-4.64-17.8-10.363,0-2.521,2.343-4.831,5.453-6.628a28.386,28.386,0,0,1,12.348-3.736,10.363,10.363,0,0,1,10.363,10.363" transform="translate(-775.35 -991.504)" fill="#4f2b2c"/>
      <path id="Path_900369" data-name="Path 900369" d="M947.828,1163.884a10.335,10.335,0,0,0-10.206-8.808,28.39,28.39,0,0,0-12.349,3.735,18.086,18.086,0,0,0-2.721,1.908c2.966,4.36,12.074,7.561,16.825,7.561a10.333,10.333,0,0,0,8.451-4.4" transform="translate(-791.911 -991.507)" fill="#824648"/>
      <path id="Path_900370" data-name="Path 900370" d="M948.422,1367.6a.119.119,0,0,1-.119-.119v-5.391a.119.119,0,1,1,.239,0v5.391a.119.119,0,0,1-.119.119" transform="translate(-814.015 -1169.107)" fill="#451d26"/>
      <path id="Path_900371" data-name="Path 900371" d="M940.9,1400.944h-6.425a.119.119,0,0,1,0-.239H940.9a.119.119,0,0,1,0,.239" transform="translate(-802.046 -1202.353)" fill="#451d26"/>
      <path id="Path_900372" data-name="Path 900372" d="M925.166,1314.974a4.388,4.388,0,1,1-4.388-4.388,4.388,4.388,0,0,1,4.388,4.388" transform="translate(-786.622 -1124.995)" fill="#ffa763"/>
      <path id="Path_900373" data-name="Path 900373" d="M946.652,1318.757a.119.119,0,0,1,0-.239,4.268,4.268,0,1,0,0-8.536.119.119,0,0,1,0-.239,4.507,4.507,0,1,1,0,9.014" transform="translate(-812.496 -1124.272)" fill="#451d26"/>
      <path id="Path_900374" data-name="Path 900374" d="M922.307,1228.188a.119.119,0,0,1-.085-.2l3.573-3.635a.119.119,0,0,1,.17.167l-3.573,3.635a.119.119,0,0,1-.085.036" transform="translate(-791.598 -1050.94)" fill="#451d26"/>
      <path id="Path_900375" data-name="Path 900375" d="M967.9,1248.414a.123.123,0,0,1-.041-.007.119.119,0,0,1-.071-.153l1.755-4.826a.119.119,0,0,1,.224.082l-1.755,4.826a.119.119,0,0,1-.112.079" transform="translate(-830.733 -1067.28)" fill="#451d26"/>
      <path id="Path_900376" data-name="Path 900376" d="M1031.763,1260.489a.12.12,0,0,1-.119-.116l-.125-4.952a.119.119,0,0,1,.116-.122.116.116,0,0,1,.122.116l.125,4.952a.119.119,0,0,1-.116.122Z" transform="translate(-885.447 -1077.537)" fill="#451d26"/>
      <path id="Path_900377" data-name="Path 900377" d="M1071.279,1250.265a.119.119,0,0,1-.115-.09l-.689-2.7a.119.119,0,1,1,.231-.059l.69,2.7a.119.119,0,0,1-.116.149" transform="translate(-918.883 -1070.698)" fill="#451d26"/>
      <path id="Path_900378" data-name="Path 900378" d="M590.586,449.057s6.177,19.9,9.2,21.413-3.843,4.392-3.843,4.392c-12.079-5.628-16.059-19.9-16.059-19.9Z" transform="translate(-497.764 -385.466)" fill="#ff7c6d"/>
      <path id="Path_900379" data-name="Path 900379" d="M262.637,337.589c-2.712,2.275-10,6.612-14.922,9.459a6.7,6.7,0,0,0-3.09,3.944,6.579,6.579,0,0,0,.538,5c5.383,9.877,17.813,20.056,17.474,20.17-3.02,2.882-1.784,7.412-1.784,7.412-1.51-1.1-3.706.412-3.706.412l6.589,1.51,5.49-10.02s-8.373-9.608-11.255-19.491l12.353-8.236Z" transform="translate(-209.757 -289.783)" fill="#ff7c6d"/>
      <path id="Path_900380" data-name="Path 900380" d="M246.586,410.193a6.707,6.707,0,0,0-1.961,3.121,6.579,6.579,0,0,0,.538,5c.063.116.132.232.2.348a4.593,4.593,0,0,0,1.226-8.467" transform="translate(-209.757 -352.106)" fill="#ff6a59"/>
      <path id="Path_900381" data-name="Path 900381" d="M263,384.888a.116.116,0,0,1-.027,0l-6.588-1.51a.119.119,0,0,1-.041-.215c.088-.06,2.061-1.394,3.595-.567-.207-1.041-.709-4.707,1.82-7.186-.158-.189-.752-.745-1.484-1.43-3.529-3.3-11.795-11.029-15.951-18.655a6.681,6.681,0,0,1-.548-5.088,6.8,6.8,0,0,1,3.145-4.014c5.342-3.087,12.264-7.231,14.905-9.447a.121.121,0,0,1,.09-.027.12.12,0,0,1,.082.047l7.687,10.157a.12.12,0,0,1-.029.171l-12.28,8.187c2.865,9.715,11.123,19.266,11.206,19.362a.119.119,0,0,1,.015.136l-5.49,10.02a.119.119,0,0,1-.1.062m-6.276-1.68,6.215,1.424,5.407-9.868c-.728-.853-8.49-10.094-11.225-19.472a.119.119,0,0,1,.048-.133l12.248-8.165-7.535-9.956c-2.723,2.245-9.556,6.336-14.843,9.39a6.564,6.564,0,0,0-3.035,3.874,6.443,6.443,0,0,0,.528,4.907c4.138,7.592,12.383,15.3,15.9,18.595,1.565,1.464,1.615,1.527,1.588,1.65a.134.134,0,0,1-.041.068h0c-2.932,2.8-1.764,7.25-1.752,7.294a.119.119,0,0,1-.185.128c-1.137-.827-2.722-.078-3.324.264" transform="translate(-209.025 -289.06)" fill="#451d26"/>
      <path id="Path_900382" data-name="Path 900382" d="M730.435,1260.029l-6.131,5.124,4.724,8.317.126.376,1.007,1.281,5.948-1.556,1.1-9.334Z" transform="translate(-621.736 -1081.598)" fill="#ff7c6d"/>
      <path id="Path_900383" data-name="Path 900383" d="M483.38,1296.4l-.223-5.677,8.819-2.5,3.123,7.172s-8.167,4.358-8.373,4.358-3.775-.892-3.775-1.2.429-2.147.429-2.147" transform="translate(-414.561 -1105.796)" fill="#ff7c6d"/>
      <path id="Path_900384" data-name="Path 900384" d="M538.784,540.085s6.726,11.049,8.373,21.756,9.059,35.138,9.059,35.138c1.373,19.765,11.9,42.734,11.9,42.734l-18.393,12.353c-12.079-13.726-16.014-50.42-16.014-50.42l-7.138-22.785,1.373-40.629Z" transform="translate(-452.001 -462.013)" fill="#6693a3"/>
      <path id="Path_900385" data-name="Path 900385" d="M549,651.462a.119.119,0,0,1-.09-.041c-11.966-13.6-16-50.119-16.043-50.486l-7.133-22.762a.119.119,0,0,1-.005-.04L527.1,537.5a.119.119,0,0,1,.139-.114l10.844,1.853a.119.119,0,0,1,.082.056c.067.111,6.757,11.192,8.389,21.8,1.627,10.576,8.981,34.878,9.056,35.122a.13.13,0,0,1,0,.026c1.355,19.518,11.78,42.463,11.885,42.692a.119.119,0,0,1-.042.149l-18.393,12.353a.12.12,0,0,1-.066.02m-23.031-73.341,7.131,22.766c.044.389,4.059,36.7,15.92,50.3l18.222-12.239c-.728-1.617-10.545-23.743-11.864-42.669-.206-.681-7.445-24.648-9.059-35.142-1.571-10.21-7.854-20.871-8.329-21.665l-10.655-1.821Z" transform="translate(-451.279 -461.29)" fill="#451d26"/>
      <path id="Path_900386" data-name="Path 900386" d="M385.521,533.983c-11.484,5.925-16.974,11.6-17.34,17.821s7.87,92.6,7.87,92.6l23.06-3.477L392.7,551.072c2.928-1.464,3.843-2.2,3.843-4.758s1.464-15.19,1.464-15.19Z" transform="translate(-316.032 -455.912)" fill="#6693a3"/>
      <path id="Path_900387" data-name="Path 900387" d="M375.328,661.138a.12.12,0,0,1-.119-.108c-.082-.864-8.232-86.462-7.87-92.623.37-6.29,5.9-11.984,17.4-17.92a.119.119,0,0,1,.109.212c-11.422,5.893-16.911,11.524-17.276,17.722-.355,6.033,7.5,88.707,7.857,92.461l22.826-3.442-6.4-89.749a.119.119,0,0,1,.066-.115c2.854-1.427,3.777-2.1,3.777-4.652,0-.633.089-1.934.265-3.866a.119.119,0,1,1,.238.022c-.176,1.925-.265,3.219-.265,3.845,0,2.65-1,3.4-3.838,4.829l6.4,89.78a.119.119,0,0,1-.1.126l-23.06,3.477h-.018" transform="translate(-315.311 -472.521)" fill="#451d26"/>
      <path id="Path_900388" data-name="Path 900388" d="M395.259,329.51H377.965c1.167-.824,1.99-3.637,0-6.108a29.463,29.463,0,0,1-6.52-13.863l-5.079,3.226-7-12.9s15.03-7.275,17.432-6.932,3.98,2.745,6.245,4.53L391.691,300a23.518,23.518,0,0,0,3.226,1.3c2.814,1.029,5.147,4.736,6.108,7.961a49.824,49.824,0,0,0,2.745,6.794l-3.226,1.716c-.686,2.608-5.559,6.177-5.285,11.736" transform="translate(-308.477 -251.439)" fill="#e2e9fb"/>
      <path id="Path_900389" data-name="Path 900389" d="M530.1,259.965c-.755,4.392-1.292,9.071-3.695,9.208-.646,6.535,10.615,9.208,8.647,2.539.755-5.216.824-7,.824-7s-5.433-4.747-5.776-4.747" transform="translate(-451.84 -223.152)" fill="#ff7c6d"/>
      <path id="Path_900390" data-name="Path 900390" d="M567.062,282.236c.5-3.727.553-5.061.553-5.061s-2.591-1.682-4.262-2.691a9.747,9.747,0,0,0,3.709,7.752" transform="translate(-483.577 -235.615)" fill="#ff6a59"/>
      <path id="Path_900391" data-name="Path 900391" d="M775.086,411.739c-2.951,0-4.324,3.431-4.941,5.559s7.687,1.3,7.892,1.235a27.167,27.167,0,0,0,3.02-4.186c0-.343-2.54-2.608-2.54-2.608Z" transform="translate(-661.058 -353.433)" fill="#e6c8aa"/>
      <path id="Path_900392" data-name="Path 900392" d="M773.748,418.142c-1.738,0-3.58-.165-4.216-.776a.781.781,0,0,1-.221-.823c1.072-3.693,2.82-5.645,5.056-5.645a.119.119,0,1,1,0,.239c-2.118,0-3.787,1.893-4.827,5.473a.537.537,0,0,0,.136.563c1.159,1.2,7.345.591,7.607.525a.122.122,0,0,1,.146.081.117.117,0,0,1-.074.146,27.2,27.2,0,0,1-3.608.217" transform="translate(-660.339 -352.711)" fill="#451d26"/>
      <path id="Path_900393" data-name="Path 900393" d="M670.952,477.7H650.637l16.2-33.491h20.315Z" transform="translate(-558.501 -381.307)" fill="#e9595c"/>
      <path id="Path_900394" data-name="Path 900394" d="M804.6,516.355c-.583-2.4-7.082-3.5-8.765-3.743a.508.508,0,0,0-.545.313.509.509,0,0,0,.158.593l4.176,3.264-6.867,2.065a.751.751,0,0,0,.169,1.47l.534.034-.548.281a.418.418,0,0,0,.175.789l3.556.138-2.831.388a.466.466,0,0,0,.008.924c2.21.266,3.233.9,2.711,5.277h0a7.823,7.823,0,0,0,8.458-8.242,22.788,22.788,0,0,0-.39-3.55" transform="translate(-680.039 -440.017)" fill="#ff7c6d"/>
      <path id="Path_900395" data-name="Path 900395" d="M796.466,527.57q-.332,0-.665-.028a.119.119,0,0,1-.109-.133c.512-4.292-.449-4.884-2.607-5.144a.585.585,0,0,1-.01-1.161l1.484-.2-2.2-.086a.537.537,0,0,1-.485-.357.537.537,0,0,1,.261-.658l.162-.083-.1-.006a.871.871,0,0,1-.2-1.7l6.647-2-3.995-3.122a.629.629,0,0,1,.322-1.121.62.62,0,0,1,.156,0c1.929.282,8.271,1.392,8.864,3.833a22.423,22.423,0,0,1,.393,3.571,7.944,7.944,0,0,1-7.923,8.4m-.522-.256a7.7,7.7,0,0,0,8.206-8.126,22.222,22.222,0,0,0-.387-3.528c-.572-2.354-7.319-3.456-8.666-3.653a.4.4,0,0,0-.1,0,.388.388,0,0,0-.32.242.384.384,0,0,0-.028.177.391.391,0,0,0,.149.277l4.176,3.264a.119.119,0,0,1-.039.208l-6.867,2.065a.632.632,0,0,0,.142,1.236l.534.034a.119.119,0,0,1,.047.225l-.548.281a.3.3,0,0,0,.125.563l3.556.139a.119.119,0,0,1,.012.237l-2.831.388a.346.346,0,0,0,.006.687c2.383.287,3.311,1.09,2.83,5.286" transform="translate(-679.316 -439.294)" fill="#451d26"/>
      <path id="Path_900396" data-name="Path 900396" d="M802.716,560.462a.119.119,0,0,1-.034-.234,18.377,18.377,0,0,1,5.194-.869.119.119,0,0,1,.115.123.117.117,0,0,1-.123.116,18.213,18.213,0,0,0-5.119.859.117.117,0,0,1-.034,0" transform="translate(-688.942 -480.148)" fill="#451d26"/>
      <path id="Path_900397" data-name="Path 900397" d="M824.375,575.243a.119.119,0,0,1,0-.239c.5-.018.7-.006.71-.006a.119.119,0,0,1-.015.238s-.2-.012-.686.006h0" transform="translate(-707.534 -493.57)" fill="#451d26"/>
      <path id="Path_900398" data-name="Path 900398" d="M823.127,411.74h-17.89c4.8,0,.755,9.745.755,9.745h17.89s4.049-9.745-.755-9.745" transform="translate(-691.209 -353.434)" fill="#fff"/>
      <path id="Path_900399" data-name="Path 900399" d="M823.16,420.882H805.27a.119.119,0,0,1-.11-.165c.027-.064,2.644-6.435,1.1-8.752a1.952,1.952,0,0,0-1.742-.828.119.119,0,1,1,0-.239,2.177,2.177,0,0,1,1.941.934c1.492,2.236-.591,7.761-1.009,8.811H823.16a.119.119,0,1,1,0,.239" transform="translate(-690.487 -352.711)" fill="#451d26"/>
      <path id="Path_900400" data-name="Path 900400" d="M443.941,396.785a.119.119,0,0,1-.069-.217l3.02-2.128a.119.119,0,1,1,.138.2l-3.02,2.128a.119.119,0,0,1-.069.022" transform="translate(-380.972 -338.566)" fill="#451d26"/>
      <path id="Path_900401" data-name="Path 900401" d="M470.813,1324.083a.537.537,0,0,1,.9-.067c.79,1.058,2.579,2.822,5.138,1.659a.525.525,0,0,0,.144-.1.55.55,0,0,0,.086-.1c.5-.795,3.293-4.943,7.06-5.329a.566.566,0,0,1,.352.078.52.52,0,0,1,.221.27,5.484,5.484,0,0,0,2.906,3.366s12.784,3.955,15.078,10.318a.52.52,0,0,1-.071.487.541.541,0,0,1-.442.225l-32.681-.181a.537.537,0,0,1-.414-.2.528.528,0,0,1-.114-.263,17.241,17.241,0,0,1,1.835-10.161" transform="translate(-402.451 -1133.197)" fill="#e9595c"/>
      <path id="Path_900402" data-name="Path 900402" d="M551.765,1333.365l-13.542-.08-11.8-7.708a.551.551,0,0,0,.086-.1c.5-.795,3.293-4.943,7.06-5.329a.566.566,0,0,1,.352.078.519.519,0,0,1,.221.27,5.484,5.484,0,0,0,2.906,3.365s11.7,3.622,14.718,9.509" transform="translate(-451.877 -1133.196)" fill="#fff"/>
      <path id="Path_900403" data-name="Path 900403" d="M509.243,1368.992a1.813,1.813,0,1,0,1.816-1.81,1.813,1.813,0,0,0-1.816,1.81" transform="translate(-437.13 -1173.577)" fill="#fff"/>
      <path id="Path_900404" data-name="Path 900404" d="M521.3,1370.2a.123.123,0,0,1-.122-.12.118.118,0,0,1,.12-.119,1.693,1.693,0,1,0,0-3.387.119.119,0,0,1-.119-.12.114.114,0,0,1,.12-.119,1.932,1.932,0,0,1,0,3.865" transform="translate(-447.378 -1172.853)" fill="#451d26"/>
      <path id="Path_900405" data-name="Path 900405" d="M468.888,1391.319a17.95,17.95,0,0,1,.125-3.522,38.582,38.582,0,0,1,11.376,3.077Z" transform="translate(-402.459 -1191.273)" fill="#fff"/>
      <path id="Path_900406" data-name="Path 900406" d="M495.1,1391.888v-.818a1.489,1.489,0,0,1,1.491-1.487l2.9,0a12.985,12.985,0,0,1,2.2,2.337h.007c.016.022.029.045.045.067l.007.011a7.655,7.655,0,0,1,.95,1.781.52.52,0,0,1-.071.487.539.539,0,0,1-.442.224l-32.681-.181a.536.536,0,0,1-.414-.2.528.528,0,0,1-.114-.263,16.137,16.137,0,0,1-.134-2.111Z" transform="translate(-402.452 -1192.806)" fill="#fff"/>
      <path id="Path_900407" data-name="Path 900407" d="M501.468,1393.891h0l-32.681-.181a.653.653,0,0,1-.506-.242.646.646,0,0,1-.14-.322,16.239,16.239,0,0,1-.135-2.127.119.119,0,0,1,.035-.085.134.134,0,0,1,.085-.035l26.137.145v-.7a1.608,1.608,0,0,1,1.608-1.606h0l2.9,0a.12.12,0,0,1,.077.028,13.14,13.14,0,0,1,2.2,2.335.106.106,0,0,1,.024.024l.045.068a7.863,7.863,0,0,1,.972,1.821.644.644,0,0,1-.087.6.663.663,0,0,1-.535.273m-33.227-2.752a15.845,15.845,0,0,0,.133,1.974.409.409,0,0,0,.088.2.416.416,0,0,0,.322.154l32.682.181h0a.418.418,0,0,0,.342-.175.4.4,0,0,0,.055-.376,7.566,7.566,0,0,0-.935-1.754l-.036-.054a.1.1,0,0,1-.023-.023,12.841,12.841,0,0,0-2.146-2.287l-2.854,0h0a1.37,1.37,0,0,0-1.37,1.368v.818a.119.119,0,0,1-.035.084.159.159,0,0,1-.085.035Z" transform="translate(-401.729 -1192.083)" fill="#451d26"/>
      <path id="Path_900408" data-name="Path 900408" d="M501.488,1334.283h0L468.8,1334.1a.654.654,0,0,1-.506-.242.646.646,0,0,1-.14-.323,17.482,17.482,0,0,1,1.849-10.234.656.656,0,0,1,1.1-.082c.81,1.084,2.536,2.738,4.993,1.622a.409.409,0,0,0,.112-.075.422.422,0,0,0,.067-.082c.525-.831,3.337-4.993,7.148-5.385a.694.694,0,0,1,.427.095.636.636,0,0,1,.271.332,7.248,7.248,0,0,0,.889,1.726.119.119,0,0,1-.194.139,7.487,7.487,0,0,1-.92-1.785.4.4,0,0,0-.17-.208.448.448,0,0,0-.278-.061c-3.7.38-6.456,4.46-6.971,5.275a.66.66,0,0,1-.282.247c-2.609,1.184-4.43-.555-5.283-1.7a.41.41,0,0,0-.345-.166.416.416,0,0,0-.356.219,17.234,17.234,0,0,0-1.822,10.088.41.41,0,0,0,.088.2.417.417,0,0,0,.322.154l32.681.181h0a.419.419,0,0,0,.342-.175.4.4,0,0,0,.055-.376c-1.183-3.281-5.256-5.912-8.464-7.542a.119.119,0,1,1,.108-.213c3.247,1.649,7.371,4.319,8.58,7.673a.644.644,0,0,1-.087.6.664.664,0,0,1-.536.274" transform="translate(-401.749 -1132.475)" fill="#451d26"/>
      <path id="Path_900409" data-name="Path 900409" d="M571.85,1345.651h-.019a.12.12,0,0,1-.1-.136,3.358,3.358,0,0,1,1.414-2.167,3.533,3.533,0,0,1,2.648-.648.119.119,0,1,1-.043.235,3.3,3.3,0,0,0-2.467.607,3.119,3.119,0,0,0-1.316,2.009.119.119,0,0,1-.118.1" transform="translate(-490.769 -1152.518)" fill="#451d26"/>
      <path id="Path_900410" data-name="Path 900410" d="M599.965,1355.025a.114.114,0,0,1-.031,0,.119.119,0,0,1-.084-.146,3.494,3.494,0,0,1,1.829-2.309,2.336,2.336,0,0,1,1.837-.184.119.119,0,1,1-.093.22,2.131,2.131,0,0,0-1.639.178,3.259,3.259,0,0,0-1.7,2.157.119.119,0,0,1-.115.088" transform="translate(-514.902 -1160.773)" fill="#451d26"/>
      <path id="Path_900411" data-name="Path 900411" d="M756.395,1274.492a.537.537,0,0,1,.649-.63c1.284.305,3.788.512,5.007-2.021a.526.526,0,0,0,.048-.167.548.548,0,0,0,0-.136c-.124-.932-.642-5.905,2-8.616a.566.566,0,0,1,.32-.166.52.52,0,0,1,.343.066,5.484,5.484,0,0,0,4.388.72s12.346-5.161,18.187-1.75a.521.521,0,0,1,.258.419.542.542,0,0,1-.2.456l-25.2,20.814a.537.537,0,0,1-.444.114.525.525,0,0,1-.256-.129,17.24,17.24,0,0,1-5.106-8.974" transform="translate(-649.273 -1082.111)" fill="#e9595c"/>
      <path id="Path_900412" data-name="Path 900412" d="M820.428,1261.433l-10.443,8.621-14,1.65a.554.554,0,0,0,0-.136c-.124-.932-.642-5.9,2-8.616a.566.566,0,0,1,.32-.166.519.519,0,0,1,.342.066,5.484,5.484,0,0,0,4.388.72s11.3-4.719,17.391-2.139" transform="translate(-683.161 -1082.141)" fill="#fff"/>
      <path id="Path_900413" data-name="Path 900413" d="M794.752,1348.079a1.813,1.813,0,1,0,.233-2.553,1.813,1.813,0,0,0-.233,2.553" transform="translate(-681.848 -1154.627)" fill="#fff"/>
      <path id="Path_900414" data-name="Path 900414" d="M800.538,1347.713a.119.119,0,0,1-.077-.211,1.693,1.693,0,1,0-2.168-2.6.119.119,0,0,1-.153-.184,1.932,1.932,0,1,1,2.473,2.969.119.119,0,0,1-.076.028" transform="translate(-685.081 -1153.909)" fill="#451d26"/>
      <path id="Path_900415" data-name="Path 900415" d="M774.357,1370.165a17.95,17.95,0,0,1-2.162-2.783,38.583,38.583,0,0,1,10.7-4.932Z" transform="translate(-662.845 -1169.515)" fill="#fff"/>
      <path id="Path_900416" data-name="Path 900416" d="M802.48,1265.23l-.524-.628a1.489,1.489,0,0,1,.191-2.1l2.227-1.854a12.984,12.984,0,0,1,3.186.383l.006,0,.077.022.013,0a7.649,7.649,0,0,1,1.871.758.521.521,0,0,1,.258.419.541.541,0,0,1-.2.456l-25.2,20.814a.537.537,0,0,1-.444.113.528.528,0,0,1-.256-.129,16.145,16.145,0,0,1-1.456-1.534Z" transform="translate(-671.465 -1082.131)" fill="#fff"/>
      <path id="Path_900417" data-name="Path 900417" d="M783.328,1283.021a.656.656,0,0,1-.44-.17,16.289,16.289,0,0,1-1.467-1.546.119.119,0,0,1,.016-.168l20.152-16.646-.447-.536a1.611,1.611,0,0,1,.207-2.265l2.226-1.854a.121.121,0,0,1,.077-.028,13.137,13.137,0,0,1,3.187.38.1.1,0,0,1,.034,0l.078.023a7.856,7.856,0,0,1,1.913.774.644.644,0,0,1,.316.514.663.663,0,0,1-.238.556l-25.2,20.814a.654.654,0,0,1-.417.151m-1.646-1.777a15.977,15.977,0,0,0,1.368,1.431.41.41,0,0,0,.2.1.415.415,0,0,0,.346-.088l25.2-20.814a.418.418,0,0,0,.152-.355.4.4,0,0,0-.2-.325,7.576,7.576,0,0,0-1.842-.746l-.062-.018a.129.129,0,0,1-.032,0,12.835,12.835,0,0,0-3.113-.379l-2.193,1.827a1.372,1.372,0,0,0-.176,1.929l.523.628a.119.119,0,0,1-.016.168Z" transform="translate(-670.741 -1081.407)" fill="#451d26"/>
      <path id="Path_900418" data-name="Path 900418" d="M761.136,1283.042a.656.656,0,0,1-.44-.17,17.483,17.483,0,0,1-5.143-9.039.652.652,0,0,1,.208-.622.645.645,0,0,1,.585-.147c1.317.313,3.7.475,4.872-1.957a.405.405,0,0,0,.038-.129.42.42,0,0,0,0-.106c-.129-.974-.64-5.972,2.034-8.715a.69.69,0,0,1,.388-.2.638.638,0,0,1,.421.081,7.247,7.247,0,0,0,1.79.755.119.119,0,1,1-.061.231,7.5,7.5,0,0,1-1.85-.78.4.4,0,0,0-.264-.051.448.448,0,0,0-.253.131c-2.6,2.664-2.095,7.562-1.968,8.517a.666.666,0,0,1,0,.165.646.646,0,0,1-.06.205c-1.243,2.582-3.755,2.415-5.142,2.085a.411.411,0,0,0-.372.094.415.415,0,0,0-.133.4,17.236,17.236,0,0,0,5.07,8.91.409.409,0,0,0,.2.1.416.416,0,0,0,.346-.088l25.2-20.814a.419.419,0,0,0,.152-.356.4.4,0,0,0-.2-.324c-3.012-1.759-7.824-1.167-11.331-.361a.119.119,0,1,1-.053-.233c3.549-.816,8.425-1.411,11.5.387a.644.644,0,0,1,.316.514.664.664,0,0,1-.238.556l-25.2,20.814a.655.655,0,0,1-.418.151" transform="translate(-648.55 -1081.428)" fill="#451d26"/>
      <path id="Path_900419" data-name="Path 900419" d="M831.807,1284a.12.12,0,0,1-.1-.058,3.357,3.357,0,0,1-.3-2.569,3.536,3.536,0,0,1,1.617-2.2.119.119,0,0,1,.118.208,3.3,3.3,0,0,0-1.5,2.048,3.119,3.119,0,0,0,.278,2.386.12.12,0,0,1-.1.181" transform="translate(-713.56 -1098.019)" fill="#451d26"/>
      <path id="Path_900420" data-name="Path 900420" d="M858.8,1275.066a.119.119,0,0,1-.108-.069,3.494,3.494,0,0,1-.077-2.945,2.338,2.338,0,0,1,1.292-1.319.119.119,0,0,1,.07.228,2.131,2.131,0,0,0-1.144,1.188,3.258,3.258,0,0,0,.076,2.747.119.119,0,0,1-.108.169" transform="translate(-736.784 -1090.782)" fill="#451d26"/>
      <path id="Path_900421" data-name="Path 900421" d="M582.064,961.31l-.021,0a.119.119,0,0,1-.1-.138,9.723,9.723,0,0,1,1.81-4.036.119.119,0,1,1,.183.153,9.675,9.675,0,0,0-1.758,3.925.119.119,0,0,1-.117.1" transform="translate(-499.536 -821.558)" fill="#451d26"/>
      <path id="Path_900422" data-name="Path 900422" d="M585.941,977.942a.119.119,0,0,1-.1-.178c1.255-2.232,2.258-2.257,2.3-2.257a.119.119,0,0,1,0,.239c-.008,0-.919.049-2.092,2.135a.12.12,0,0,1-.1.061" transform="translate(-502.864 -837.367)" fill="#451d26"/>
      <path id="Path_900423" data-name="Path 900423" d="M316.445,432.757a.119.119,0,0,1-.111-.075c-1.815-4.505-3.768-5.556-3.787-5.566a.119.119,0,1,1,.11-.212c.083.043,2.051,1.1,3.9,5.689a.119.119,0,0,1-.066.155.121.121,0,0,1-.045.009" transform="translate(-268.232 -366.439)" fill="#451d26"/>
      <path id="Path_900424" data-name="Path 900424" d="M492.949,136.813a4.664,4.664,0,1,1-5.3-3.924,4.664,4.664,0,0,1,5.3,3.924" transform="translate(-415.179 -114.026)" fill="#451d26"/>
      <path id="Path_900425" data-name="Path 900425" d="M510.784,166.77a36.48,36.48,0,0,0-2.974-5.211c-1.744-2.485-1.735-7.209,2.35-8.532.919-1.565,3.7-2.42,5.821-2.571s4.005-1.861,5.519-1.648,5.539,5.1,3.622,9.178-10.441,9.136-14.338,8.785" transform="translate(-434.953 -127.719)" fill="#451d26"/>
      <path id="Path_900426" data-name="Path 900426" d="M551.021,193.854c-3.6,1.783-8.247-1.134-10.608-4.443a4.274,4.274,0,0,1-.646-3.139c1.124-.262,3.1-3.649,2.335-6.007.983-.314,1.735-2.682,1.187-4.34,2.721-.746,8.831-.108,9.555,5.138s2.173,10.308-1.823,12.791" transform="translate(-463.309 -150.792)" fill="#ff7c6d"/>
      <path id="Path_900427" data-name="Path 900427" d="M568.919,193.764a9.3,9.3,0,0,1-5.491-2.143.119.119,0,1,1,.144-.19c2.718,2.068,5.52,2.638,7.687,1.564,3.4-2.113,2.751-6.251,2.064-10.632-.1-.665-.212-1.352-.306-2.036a5.469,5.469,0,0,0-2.479-3.984,9.3,9.3,0,0,0-6.927-1.055.119.119,0,1,1-.063-.23,9.523,9.523,0,0,1,7.121,1.086,5.7,5.7,0,0,1,2.584,4.151c.094.682.2,1.368.305,2.032.7,4.461,1.36,8.675-2.184,10.877a5.485,5.485,0,0,1-2.457.56" transform="translate(-483.601 -150.04)" fill="#451d26"/>
      <path id="Path_900428" data-name="Path 900428" d="M560.6,242.362a2.056,2.056,0,1,1-2.238-1.6,1.952,1.952,0,0,1,2.238,1.6" transform="translate(-477.713 -206.652)" fill="#ff6a59"/>
      <path id="Path_900429" data-name="Path 900429" d="M566.629,225.7c.847-1.722,2.716-2.067,4.074.764-1.421,1.244-3.536.939-4.074-.764" transform="translate(-486.389 -192.596)" fill="#fff"/>
    </g>
  </g>
  <g id="Group_1111512" data-name="Group 1111512" transform="translate(80.239 31.773)">
    <g id="Group_1111511" data-name="Group 1111511" clip-path="url(#clip-path-2)">
      <path id="Path_900430" data-name="Path 900430" d="M579.308,229.121a1.328,1.328,0,1,1-1.476-1.286,1.387,1.387,0,0,1,1.476,1.286" transform="translate(-575.246 -227.338)" fill="#451d26"/>
    </g>
  </g>
  <g id="Group_1111514" data-name="Group 1111514" transform="translate(0 0)">
    <g id="Group_1111513" data-name="Group 1111513" transform="translate(0 0)" clip-path="url(#clip-path)">
      <path id="Path_900432" data-name="Path 900432" d="M613.483,220.654a1.944,1.944,0,0,0-1.212-.951c-.724-.109-1.428.6-1.73,2.476a1.8,1.8,0,0,0,2.942-1.525" transform="translate(-524.083 -188.582)" fill="#fff"/>
      <path id="Path_900433" data-name="Path 900433" d="M609.818,221.578l-.019,0a.119.119,0,0,1-.1-.137c.4-2.517,1.439-2.639,1.866-2.575a2.057,2.057,0,0,1,1.293,1,.119.119,0,1,1-.2.131,1.832,1.832,0,0,0-1.13-.9c-.741-.111-1.337.777-1.595,2.377a.119.119,0,0,1-.118.1" transform="translate(-523.36 -187.862)" fill="#451d26"/>
    </g>
  </g>
  <g id="Group_1111516" data-name="Group 1111516" transform="translate(86.458 31.11)">
    <g id="Group_1111515" data-name="Group 1111515" clip-path="url(#clip-path-4)">
      <path id="Path_900434" data-name="Path 900434" d="M620.9,223.291a1.328,1.328,0,1,1-1.476-1.286,1.387,1.387,0,0,1,1.476,1.286" transform="translate(-617.167 -221.671)" fill="#451d26"/>
    </g>
  </g>
  <g id="Group_1111518" data-name="Group 1111518" transform="translate(0 0)">
    <g id="Group_1111517" data-name="Group 1111517" transform="translate(0 0)" clip-path="url(#clip-path)">
      <path id="Path_900436" data-name="Path 900436" d="M604.894,225.59a2.854,2.854,0,0,0,.3,2.278c.431.637.773.818.329,1.273-1.161.528-1.629.259-1.72-.227s.431-3.1,1.087-3.324" transform="translate(-518.293 -193.644)" fill="#ff7c6d"/>
      <path id="Path_900437" data-name="Path 900437" d="M605.34,241.083a.934.934,0,0,0-.465.729c-.06.174-.691.029-.858.468.123.44.6.662,1.7.159.444-.454.1-.635-.329-1.272-.017-.026-.031-.057-.047-.084" transform="translate(-518.483 -206.943)" fill="#ff6a59"/>
      <path id="Path_900438" data-name="Path 900438" d="M610.743,228.537a.119.119,0,0,1-.085-.2c.281-.287.2-.391-.09-.775-.076-.1-.163-.214-.253-.348A2.975,2.975,0,0,1,610,224.82a.119.119,0,1,1,.219.1,2.74,2.74,0,0,0,.294,2.163c.087.129.171.239.245.337.287.378.495.651.07,1.086a.119.119,0,0,1-.085.036" transform="translate(-523.509 -192.922)" fill="#451d26"/>
      <path id="Path_900439" data-name="Path 900439" d="M519,243.556c-2.3-2.626-5.077-2.315-5.194-.334s1.326,4.872,5.611,3.442c.1-2.454-.416-3.109-.416-3.109" transform="translate(-441.044 -207.44)" fill="#ff7c6d"/>
      <path id="Path_900440" data-name="Path 900440" d="M516.593,246.45a3.584,3.584,0,0,1-2.242-.7,3.849,3.849,0,0,1-1.384-3.254,1.668,1.668,0,0,1,1.15-1.556c.946-.324,2.627-.041,4.253,1.819a.119.119,0,1,1-.18.157c-1.449-1.658-3.051-2.073-4-1.75a1.422,1.422,0,0,0-.989,1.345,3.661,3.661,0,0,0,1.291,3.05c.988.757,2.427.851,4.162.272a.119.119,0,0,1,.076.226,6.784,6.784,0,0,1-2.141.387" transform="translate(-440.321 -206.725)" fill="#451d26"/>
      <path id="Path_900441" data-name="Path 900441" d="M525.9,252.9c-.467-2.447-2.524-3.347-3.5-2.412a4.376,4.376,0,0,1,3.5,2.412" transform="translate(-448.418 -214.705)" fill="#ff6a59"/>
      <path id="Path_900442" data-name="Path 900442" d="M525.175,252.291a.119.119,0,0,1-.117-.1,3.186,3.186,0,0,0-1.942-2.594,1.328,1.328,0,0,0-1.363.246.119.119,0,1,1-.165-.173,1.558,1.558,0,0,1,1.6-.3,3.42,3.42,0,0,1,2.1,2.777.119.119,0,0,1-.095.14l-.022,0" transform="translate(-447.695 -213.977)" fill="#451d26"/>
      <path id="Path_900443" data-name="Path 900443" d="M532.3,259.423a.119.119,0,0,1-.07-.023,1.011,1.011,0,0,1-.268-1.375,1.1,1.1,0,0,1,1.469-.408.119.119,0,0,1-.1.215.856.856,0,0,0-1.16.317.77.77,0,0,0,.2,1.059.119.119,0,0,1-.071.216" transform="translate(-456.49 -221.023)" fill="#451d26"/>
      <path id="Path_900444" data-name="Path 900444" d="M604.325,284.561a2.34,2.34,0,0,1-1.408-.456l.149-.186a2.031,2.031,0,0,0,1.851.3.755.755,0,0,0,.5-.646l.237.026a.991.991,0,0,1-.649.841,1.8,1.8,0,0,1-.684.123" transform="translate(-517.539 -243.416)" fill="#ff6a59"/>
      <path id="Path_900445" data-name="Path 900445" d="M563.253,235.458a.119.119,0,0,1-.039-.232l.456-.157a.119.119,0,1,1,.078.226l-.456.157a.122.122,0,0,1-.039.007" transform="translate(-483.389 -201.776)" fill="#451d26"/>
      <path id="Path_900446" data-name="Path 900446" d="M565.387,238.453a.119.119,0,0,1-.072-.215l.311-.236a.119.119,0,1,1,.144.19l-.311.236a.12.12,0,0,1-.072.024" transform="translate(-485.22 -204.278)" fill="#451d26"/>
      <path id="Path_900447" data-name="Path 900447" d="M569.078,209.957c.008.292-1.252-.151-2.6-.114s-2.267.538-2.275.247a2.472,2.472,0,0,1,2.246-1.3,3.185,3.185,0,0,1,2.626,1.17" transform="translate(-484.309 -179.22)" fill="#451d26"/>
      <path id="Path_900448" data-name="Path 900448" d="M614.434,205.17c.022.262-.4-.231-1.178-.167s-1.6.662-1.626.4a2.161,2.161,0,0,1,1.547-1.348c.774-.065,1.235.853,1.257,1.114" transform="translate(-525.018 -175.157)" fill="#451d26"/>
      <path id="Path_900449" data-name="Path 900449" d="M590.349,261.038c3.014.028,5.342-1.157,4.423.321.59,2.157-1.213,4.284-4.423-.321" transform="translate(-506.75 -223.71)" fill="#ff6a59"/>
      <path id="Path_900450" data-name="Path 900450" d="M591.815,263.306a7.273,7.273,0,0,1-3.431-1.111.119.119,0,1,1,.117-.208c2.373,1.332,3.894,1.218,4.338.817a.209.209,0,0,0,.085-.232.119.119,0,1,1,.219-.1.435.435,0,0,1-.143.5,1.8,1.8,0,0,1-1.184.326" transform="translate(-505.011 -224.873)" fill="#451d26"/>
      <path id="Path_900451" data-name="Path 900451" d="M567.5,225.81a.119.119,0,0,1-.106-.065c-.676-1.332-1.44-2.035-2.209-2.035h0a2.054,2.054,0,0,0-1.646,1.271.119.119,0,0,1-.194.029l-.409-.434a.119.119,0,1,1,.174-.164l.295.313a2.211,2.211,0,0,1,1.78-1.253h.006c.605,0,1.515.377,2.422,2.166a.119.119,0,0,1-.106.173" transform="translate(-483.187 -191.825)" fill="#451d26"/>
      <path id="Path_900452" data-name="Path 900452" d="M630.592,223.06a.119.119,0,0,1-.088-.2l.423-.465a.119.119,0,1,1,.177.16l-.423.465a.119.119,0,0,1-.088.039" transform="translate(-541.193 -190.868)" fill="#451d26"/>
      <path id="Path_900453" data-name="Path 900453" d="M479.151,307.712c-.1-.151-1.174-3.486-1.86-5.963a5.545,5.545,0,0,0-.795-.375c-.761-.279-1.342-.5-1.791-.678a53.287,53.287,0,0,1,3.072,10.279s-6.413,1.947-14.487-2.519c0,0-.707-8.582-.7-12.758-1.339-1.289-2.588-2.465-4.214-2.7,0,0,2.549,17.813-3.974,21.694a30.694,30.694,0,0,0,5.141,8.778c1.99,2.471,1.166,5.285,0,6.108h17.295c-.275-5.559,4.6-9.128,5.284-11.736.052-1.548.463-6.354-2.973-10.134" transform="translate(-390.056 -251.51)" fill="#6693a3"/>
      <path id="Path_900454" data-name="Path 900454" d="M206.164,978.867a5.022,5.022,0,0,0,8.846-4.758c-1.314-2.443-6.849-7.987-9.292-6.673s-.868,8.989.446,11.431" transform="translate(-175.489 -830.268)" fill="#ffcc63"/>
      <path id="Path_900455" data-name="Path 900455" d="M255.58,1073.37h-.006a.12.12,0,0,1-.113-.125c.013-.254,1.186-25.693-7.64-48.088a74.69,74.69,0,0,0-4.483-9.452.119.119,0,0,1,.208-.118,74.937,74.937,0,0,1,4.5,9.483c8.845,22.444,7.669,47.932,7.657,48.188a.119.119,0,0,1-.119.113" transform="translate(-208.865 -871.719)" fill="#451d26"/>
      <path id="Path_900456" data-name="Path 900456" d="M191.4,1101.51a5.022,5.022,0,1,0,3.534-9.4c-2.6-.976-10.413-1.511-11.388,1.085s5.258,7.342,7.855,8.318" transform="translate(-157.467 -936.764)" fill="#ffcc63"/>
      <path id="Path_900457" data-name="Path 900457" d="M244.7,1122.578a.121.121,0,0,1-.051-.011,71.979,71.979,0,0,0-6.734-2.76.119.119,0,0,1,.079-.225,72.3,72.3,0,0,1,6.756,2.77.119.119,0,0,1-.051.227" transform="translate(-204.16 -961.032)" fill="#451d26"/>
      <path id="Path_900458" data-name="Path 900458" d="M298.455,1062.9a5.023,5.023,0,1,1-7.307-6.893c1.9-2.018,8.689-5.933,10.707-4.03s-1.5,8.906-3.4,10.923" transform="translate(-248.744 -902.569)" fill="#ffa763"/>
      <path id="Path_900459" data-name="Path 900459" d="M299.424,1097.779a.119.119,0,0,1-.093-.194c1.506-1.857,3.074-3.615,4.663-5.223a.119.119,0,1,1,.17.167c-1.583,1.6-3.146,3.354-4.647,5.206a.119.119,0,0,1-.093.044" transform="translate(-256.921 -937.643)" fill="#451d26"/>
      <path id="Path_900460" data-name="Path 900460" d="M215.815,1193.251a5.022,5.022,0,1,0,4.074-9.182c-2.535-1.125-10.307-2.114-11.432.422s4.823,7.635,7.358,8.76" transform="translate(-178.818 -1015.391)" fill="#ffcc63"/>
      <path id="Path_900461" data-name="Path 900461" d="M268.66,1215.594a.118.118,0,0,1-.057-.015,71.957,71.957,0,0,0-6.562-3.147.119.119,0,0,1,.092-.22,72.2,72.2,0,0,1,6.584,3.157.119.119,0,0,1-.057.224" transform="translate(-224.871 -1040.545)" fill="#451d26"/>
      <path id="Path_900462" data-name="Path 900462" d="M322.961,1162.752a5.023,5.023,0,0,1-6.894-7.306c2.018-1.9,9.019-5.418,10.923-3.4s-2.011,8.8-4.029,10.707" transform="translate(-269.957 -988.385)" fill="#ffcc63"/>
      <path id="Path_900463" data-name="Path 900463" d="M322.892,1195.655a.119.119,0,0,1-.088-.2c1.612-1.767,3.28-3.43,4.958-4.943a.119.119,0,0,1,.16.177c-1.673,1.508-3.335,3.165-4.942,4.927a.118.118,0,0,1-.088.039" transform="translate(-277.065 -1021.899)" fill="#451d26"/>
      <path id="Path_900464" data-name="Path 900464" d="M335.7,1267.19c7.359-20.207,27.1-25.58,28.266-25.58-9.578,14.951-28.266,25.58-28.266,25.58" transform="translate(-288.164 -1065.787)" fill="#628056"/>
      <path id="Path_900465" data-name="Path 900465" d="M45.2,1147.185c-9.461-33.99-37.143-44.969-45.2-44.969,24.879,19.506,45.2,44.969,45.2,44.969" transform="translate(0 -946.132)" fill="#628056"/>
      <path id="Path_900466" data-name="Path 900466" d="M1507.979,1221.7c-.136,1.087,0,29.474,0,29.474h3.26l4.618-5.569.272-22.682Z" transform="translate(-1294.384 -1048.701)" fill="#824648"/>
      <path id="Path_900467" data-name="Path 900467" d="M1492.992,1153.122a8.149,8.149,0,1,1-8.149-8.149,8.149,8.149,0,0,1,8.149,8.149" transform="translate(-1267.58 -982.835)" fill="#cca281"/>
      <path id="Path_900468" data-name="Path 900468" d="M1508.114,1372.292c.016,4.616.033,8.149.033,8.149h3.26l4.618-5.569.031-2.58Z" transform="translate(-1294.552 -1177.963)" fill="#451d26"/>
      <path id="Path_900469" data-name="Path 900469" d="M1809.471,1221.7c-.136,1.087,0,29.474,0,29.474h3.26l4.618-5.569.271-22.682Z" transform="translate(-1553.182 -1048.701)" fill="#824648"/>
      <path id="Path_900470" data-name="Path 900470" d="M1794.484,1153.122a8.149,8.149,0,1,1-8.15-8.149,8.149,8.149,0,0,1,8.15,8.149" transform="translate(-1526.378 -982.835)" fill="#cca281"/>
      <path id="Path_900471" data-name="Path 900471" d="M1809.606,1372.292c.016,4.616.033,8.149.033,8.149h3.26l4.618-5.569.031-2.58Z" transform="translate(-1553.35 -1177.963)" fill="#451d26"/>
      <path id="Path_900472" data-name="Path 900472" d="M1335.634,706.6l8.566,14.051.646,21.515a24.427,24.427,0,0,0,24.437,23.714h37.531a24.44,24.44,0,0,0,24.448-24.448v-12.9a24.448,24.448,0,0,0-24.448-24.448h-37.08l-15.62-10.866Z" transform="translate(-1146.497 -595.049)" fill="#e6be9f"/>
      <path id="Path_900473" data-name="Path 900473" d="M1406.092,765.275h-37.531A24.547,24.547,0,0,1,1344,741.444l-.645-21.483-8.549-14.024a.119.119,0,0,1,.032-.159l18.481-13.386a.119.119,0,0,1,.138,0l15.589,10.845h37.042A24.568,24.568,0,0,1,1430.66,727.8v12.9a24.559,24.559,0,0,1-24.568,24.568m-71.021-59.368,8.508,13.957a.119.119,0,0,1,.017.059l.646,21.515a24.307,24.307,0,0,0,24.318,23.6h37.531a24.32,24.32,0,0,0,24.329-24.329V727.8a24.329,24.329,0,0,0-24.329-24.329h-37.08a.119.119,0,0,1-.068-.021l-15.55-10.818Z" transform="translate(-1145.774 -594.324)" fill="#451d26"/>
      <path id="Path_900474" data-name="Path 900474" d="M1312.25,647.506c-4.279-.66-5.627-3.924-13.716-2.273,1.055,4.51,7.151,6.6,13.716,2.273" transform="translate(-1114.65 -553.467)" fill="#824648"/>
      <path id="Path_900475" data-name="Path 900475" d="M1312.25,650.3c-5.041.733-7.093-1.174-13.716-2.274,1.055,4.51,7.151,6.6,13.716,2.274" transform="translate(-1114.65 -556.259)" fill="#451d26"/>
      <path id="Path_900476" data-name="Path 900476" d="M1253.4,647.655c-2.56,0-6.859,2.1-6.859,2.1l-16.5,10.458c-.408,4.958,4.007,8.014,8.489,7.4a32.791,32.791,0,0,1,6.443-.129,11.711,11.711,0,1,0,8.43-19.837" transform="translate(-1055.829 -555.941)" fill="#824648"/>
      <path id="Path_900477" data-name="Path 900477" d="M1252.676,670.481a11.731,11.731,0,0,1-8.484-3.6,32.888,32.888,0,0,0-6.373.131,8.028,8.028,0,0,1-6.578-2,6.705,6.705,0,0,1-2.046-5.534.12.12,0,0,1,.055-.091l16.5-10.458c.188-.093,4.365-2.123,6.923-2.123a.119.119,0,1,1,0,.238c-2.5,0-6.764,2.072-6.807,2.093l-16.44,10.42a6.462,6.462,0,0,0,1.977,5.282,7.784,7.784,0,0,0,6.381,1.933,33.264,33.264,0,0,1,6.467-.13.12.12,0,0,1,.078.036,11.5,11.5,0,0,0,8.344,3.556,11.646,11.646,0,0,0,10.021-5.757.119.119,0,0,1,.206.12,11.885,11.885,0,0,1-10.227,5.876" transform="translate(-1055.109 -555.218)" fill="#451d26"/>
      <path id="Path_900478" data-name="Path 900478" d="M1231.816,736.812a4.673,4.673,0,0,1-1.062-.115c-.775-.182-1.285-.553-1.4-1.018a.119.119,0,1,1,.232-.057c.091.369.548.684,1.222.842a5.646,5.646,0,0,0,3.037-.247.119.119,0,0,1,.079.225,6.487,6.487,0,0,1-2.108.37" transform="translate(-1055.264 -631.373)" fill="#451d26"/>
      <path id="Path_900479" data-name="Path 900479" d="M1238.7,746.59a.119.119,0,0,1-.1-.061,8.679,8.679,0,0,1-1.169-4.653.119.119,0,0,1,.238.022,8.606,8.606,0,0,0,1.14,4.515.119.119,0,0,1-.1.177" transform="translate(-1062.187 -636.726)" fill="#451d26"/>
      <path id="Path_900480" data-name="Path 900480" d="M1336.088,705.878a1.155,1.155,0,1,1-1.155-1.155,1.155,1.155,0,0,1,1.155,1.155" transform="translate(-1144.904 -604.928)" fill="#451d26"/>
      <path id="Path_900481" data-name="Path 900481" d="M1412.43,638.541c4.958-1.222,6.52-7.267,15.891-4.211-1.223,8.353-8.285,12.224-15.891,4.211" transform="translate(-1212.417 -543.771)" fill="#824648"/>
      <path id="Path_900482" data-name="Path 900482" d="M1412.43,643.712c5.84,1.358,8.217-2.173,15.891-4.211-1.223,8.353-8.285,12.224-15.891,4.211" transform="translate(-1212.417 -548.942)" fill="#451d26"/>
      <path id="Path_900483" data-name="Path 900483" d="M1961.633,815.79a6.519,6.519,0,1,1-6.52-6.519,6.519,6.519,0,0,1,6.52,6.519" transform="translate(-1672.656 -694.671)" fill="#e6be9f"/>
      <path id="Path_900484" data-name="Path 900484" d="M1618.281,1221.7c-.136,1.087,0,29.474,0,29.474h3.26l4.618-5.569.272-22.682Z" transform="translate(-1389.066 -1048.701)" fill="#824648"/>
      <path id="Path_900485" data-name="Path 900485" d="M1603.294,1153.122a8.149,8.149,0,1,1-8.149-8.149,8.149,8.149,0,0,1,8.149,8.149" transform="translate(-1362.262 -982.835)" fill="#e6be9f"/>
      <path id="Path_900486" data-name="Path 900486" d="M1594.421,1160.668a8.269,8.269,0,0,1,0-16.538.119.119,0,0,1,0,.239,8.03,8.03,0,1,0,0,16.06.119.119,0,1,1,0,.239" transform="translate(-1361.539 -982.111)" fill="#451d26"/>
      <path id="Path_900487" data-name="Path 900487" d="M1618.416,1372.292c.016,4.616.033,8.149.033,8.149h3.26l4.618-5.569.031-2.58Z" transform="translate(-1389.234 -1177.963)" fill="#451d26"/>
      <path id="Path_900488" data-name="Path 900488" d="M1919.774,1221.7c-.136,1.087,0,29.474,0,29.474h3.26l4.618-5.569.271-22.682Z" transform="translate(-1647.865 -1048.701)" fill="#824648"/>
      <path id="Path_900489" data-name="Path 900489" d="M1862.492,1082.578a13.379,13.379,0,1,1-13.379-13.379,13.379,13.379,0,0,1,13.379,13.379" transform="translate(-1575.779 -917.792)" fill="#e6be9f"/>
      <path id="Path_900490" data-name="Path 900490" d="M1848.389,1095.353a13.5,13.5,0,0,1,0-27,.119.119,0,0,1,0,.239,13.259,13.259,0,0,0,0,26.519.119.119,0,0,1,0,.239" transform="translate(-1575.054 -917.068)" fill="#451d26"/>
      <path id="Path_900491" data-name="Path 900491" d="M1919.909,1372.292c.016,4.616.033,8.149.033,8.149h3.26l4.618-5.569.031-2.58Z" transform="translate(-1648.033 -1177.963)" fill="#451d26"/>
      <path id="Path_900492" data-name="Path 900492" d="M1258.75,1256.581c-10.333-10.345-10.012-24.351-10.012-24.351,7.96,8.161,10.012,24.351,10.012,24.351" transform="translate(-1071.905 -1057.735)" fill="#83a973"/>
      <path id="Path_900493" data-name="Path 900493" d="M1317.245,1247.789a38.577,38.577,0,0,0,7.128-25.976c-6.944,9.573-7.128,25.976-7.128,25.976" transform="translate(-1130.711 -1048.793)" fill="#83a973"/>
      <path id="Path_900494" data-name="Path 900494" d="M2005.634,1318.8a22.8,22.8,0,0,1-6.266-15.24c4.982,5.107,6.266,15.24,6.266,15.24" transform="translate(-1716.239 -1118.964)" fill="#83a973"/>
      <path id="Path_900495" data-name="Path 900495" d="M2042.243,1313.3a24.144,24.144,0,0,0,4.461-16.257c-4.346,5.991-4.461,16.257-4.461,16.257" transform="translate(-1753.043 -1113.368)" fill="#83a973"/>
      <path id="Path_900496" data-name="Path 900496" d="M1481.4,292.953a7.454,7.454,0,0,1-2.021-5.562V283.7a7.455,7.455,0,0,1,2.021-5.562,9.2,9.2,0,0,1,11.433,0,7.569,7.569,0,0,1,2.006,5.621v3.629a7.445,7.445,0,0,1-2.021,5.577,9.206,9.206,0,0,1-11.419-.015m24.239-16.391h7.347l-22.424,42.9h-7.347ZM1488.1,288.394a2.054,2.054,0,0,0,.339-1.269V283.88a1.882,1.882,0,0,0-.339-1.2,1.356,1.356,0,0,0-1.977,0,1.984,1.984,0,0,0-.339,1.254v3.187a2.037,2.037,0,0,0,.339,1.283,1.185,1.185,0,0,0,.988.428,1.17,1.17,0,0,0,.989-.443m14.635,29.521a7.454,7.454,0,0,1-2.021-5.562v-3.688a7.455,7.455,0,0,1,2.021-5.562,9.2,9.2,0,0,1,11.434,0,7.57,7.57,0,0,1,2.006,5.621v3.629a7.445,7.445,0,0,1-2.021,5.577,9.206,9.206,0,0,1-11.419-.015m6.7-4.559a2.052,2.052,0,0,0,.339-1.269v-3.246a1.879,1.879,0,0,0-.339-1.2,1.356,1.356,0,0,0-1.977,0,1.985,1.985,0,0,0-.339,1.254v3.187a2.038,2.038,0,0,0,.339,1.283,1.185,1.185,0,0,0,.989.428,1.169,1.169,0,0,0,.988-.443" transform="translate(-1269.885 -237.044)" fill="#e2e9fb"/>
      <path id="Path_900497" data-name="Path 900497" d="M1507.718,319.3a7.935,7.935,0,0,1-5.793-2.026,7.6,7.6,0,0,1-2.057-5.647v-3.688a7.6,7.6,0,0,1,2.057-5.647,7.935,7.935,0,0,1,5.793-2.026.119.119,0,0,1,0,.239,7.707,7.707,0,0,0-5.626,1.957,7.373,7.373,0,0,0-1.985,5.477v3.688a7.373,7.373,0,0,0,1.985,5.477,9.09,9.09,0,0,0,11.251.014,7.363,7.363,0,0,0,1.985-5.491V308a.119.119,0,0,1,.239,0v3.629a7.59,7.59,0,0,1-2.057,5.662,7.97,7.97,0,0,1-5.792,2.011m-17.88-.443h-7.347a.119.119,0,0,1-.106-.175l22.425-42.9a.119.119,0,0,1,.211.111l-22.333,42.727h7.15a.119.119,0,0,1,0,.239m17.88-5.665a.119.119,0,0,1,0-.239,1.049,1.049,0,0,0,.894-.4,1.95,1.95,0,0,0,.314-1.2v-3.246a1.775,1.775,0,0,0-.313-1.121,1.238,1.238,0,0,0-1.79,0,1.883,1.883,0,0,0-.313,1.18v3.187a.119.119,0,0,1-.239,0v-3.187a2.106,2.106,0,0,1,.365-1.328,1.474,1.474,0,0,1,2.164,0,2,2,0,0,1,.365,1.269v3.246a2.175,2.175,0,0,1-.364,1.341,1.288,1.288,0,0,1-1.083.489m-21.333-18.854a7.935,7.935,0,0,1-5.793-2.026,7.6,7.6,0,0,1-2.057-5.647V282.98a7.6,7.6,0,0,1,2.057-5.647,9.317,9.317,0,0,1,11.6,0,7.716,7.716,0,0,1,2.042,5.706.119.119,0,1,1-.239,0,7.489,7.489,0,0,0-1.971-5.536,9.084,9.084,0,0,0-11.266,0,7.372,7.372,0,0,0-1.986,5.477v3.688a7.372,7.372,0,0,0,1.986,5.477,9.09,9.09,0,0,0,11.251.014.119.119,0,0,1,.167.171,7.972,7.972,0,0,1-5.793,2.011m0-6.108a1.3,1.3,0,0,1-1.082-.473,2.16,2.16,0,0,1-.365-1.357v-3.187a.119.119,0,1,1,.239,0V286.4a1.938,1.938,0,0,0,.313,1.209,1.064,1.064,0,0,0,.9.383,1.048,1.048,0,0,0,.894-.4,1.95,1.95,0,0,0,.315-1.2v-3.246a1.773,1.773,0,0,0-.314-1.121,1.065,1.065,0,0,0-.895-.383.119.119,0,1,1,0-.239,1.306,1.306,0,0,1,1.082.473,2,2,0,0,1,.365,1.269V286.4a2.175,2.175,0,0,1-.364,1.341,1.288,1.288,0,0,1-1.083.489" transform="translate(-1269.161 -236.321)" fill="#451d26"/>
      <path id="Path_900498" data-name="Path 900498" d="M1398.814,132.98a.119.119,0,0,1-.084-.2l11.629-11.629a.119.119,0,0,1,.084-.035h40.211a.119.119,0,0,1,0,.239h-40.162L1398.9,132.945a.119.119,0,0,1-.084.035" transform="translate(-1200.627 -103.961)" fill="#451d26"/>
      <path id="Path_900499" data-name="Path 900499" d="M1498.805,53.849a2.8,2.8,0,1,1-2.8-2.8,2.8,2.8,0,0,1,2.8,2.8" transform="translate(-1281.751 -43.818)" fill="#e9595c"/>
      <path id="Path_900500" data-name="Path 900500" d="M1577.236,58.449h-15.692a2.382,2.382,0,1,1,0-4.764h15.692a2.382,2.382,0,1,1,0,4.764" transform="translate(-1338.371 -46.083)" fill="#e2e9fb"/>
    </g>
  </g>
</svg>
