<svg xmlns="http://www.w3.org/2000/svg" width="716" height="123" viewBox="0 0 716 123">
  <g id="Group_1111484" data-name="Group 1111484" transform="translate(-301.051 -7435)">
    <g id="Group_1111483" data-name="Group 1111483">
      <g id="Rectangle_406384" data-name="Rectangle 406384" transform="translate(301.051 7435)" fill="#fff" stroke="#12263f" stroke-width="1">
        <rect width="116" height="123" stroke="none"/>
        <rect x="0.5" y="0.5" width="115" height="122" fill="none"/>
      </g>
      <g id="Rectangle_406385" data-name="Rectangle 406385" transform="translate(439.051 7435)" fill="#fff" stroke="#12263f" stroke-width="1">
        <rect width="116" height="123" stroke="none"/>
        <rect x="0.5" y="0.5" width="115" height="122" fill="none"/>
      </g>
      <g id="Rectangle_406386" data-name="Rectangle 406386" transform="translate(573.051 7435)" fill="#fff" stroke="#12263f" stroke-width="1">
        <rect width="116" height="123" stroke="none"/>
        <rect x="0.5" y="0.5" width="115" height="122" fill="none"/>
      </g>
      <g id="Rectangle_406387" data-name="Rectangle 406387" transform="translate(708.051 7435)" fill="#fff" stroke="#12263f" stroke-width="1">
        <rect width="125" height="123" stroke="none"/>
        <rect x="0.5" y="0.5" width="124" height="122" fill="none"/>
      </g>
      <g id="Rectangle_406388" data-name="Rectangle 406388" transform="translate(853.051 7435)" fill="#fff" stroke="#12263f" stroke-width="1">
        <rect width="164" height="123" stroke="none"/>
        <rect x="0.5" y="0.5" width="163" height="122" fill="none"/>
      </g>
      <path id="Path_900331" data-name="Path 900331" d="M-7556.324-4060.467v-98.74l91.676,98.74v-98.74" transform="translate(7872.051 11608)" fill="#fff" stroke="#12263f" stroke-width="1"/>
      <line id="Line_673" data-name="Line 673" x2="90" y2="96" transform="translate(451.551 7451.5)" fill="none" stroke="#12263f" stroke-width="1"/>
      <line id="Line_674" data-name="Line 674" x1="90" y2="94" transform="translate(451.551 7453.5)" fill="none" stroke="#12263f" stroke-width="1"/>
      <path id="Path_900332" data-name="Path 900332" d="M-7209.551-4148.176s-41.891-21.785-53.771,4.619,22.215,33.674,22.215,33.674,37.67,7.527,27.475,35.135-53.494,6.047-53.494,6.047" transform="translate(7872.051 11608)" fill="#fff" stroke="#12263f" stroke-width="1"/>
      <path id="Path_900333" data-name="Path 900333" d="M-7156.988-4159.207l26.49,96.285,29.326-98.547,29.918,98.547,23.322-98.547" transform="translate(7872.051 11608)" fill="#fff" stroke="#12263f" stroke-width="1"/>
      <path id="Path_900334" data-name="Path 900334" d="M-7004.742-4169.016l-3.988,47.113L-6969-4146.3l-5.605,46.988,39.035-25.572-3.895,45.969,37.986-23.6-3.654,45.729,39.07-22.131" transform="translate(7872.051 11608)" fill="#fff" stroke="#12263f" stroke-width="1"/>
      <g id="Ellipse_11689" data-name="Ellipse 11689" transform="translate(312.051 7446)" fill="#fff" stroke="#12263f" stroke-width="1">
        <circle cx="4" cy="4" r="4" stroke="none"/>
        <circle cx="4" cy="4" r="3.5" fill="none"/>
      </g>
      <g id="Ellipse_11690" data-name="Ellipse 11690" transform="translate(312.051 7470)" fill="#fff" stroke="#12263f" stroke-width="1">
        <circle cx="4" cy="4" r="4" stroke="none"/>
        <circle cx="4" cy="4" r="3.5" fill="none"/>
      </g>
      <g id="Ellipse_11691" data-name="Ellipse 11691" transform="translate(312.051 7494)" fill="#fff" stroke="#12263f" stroke-width="1">
        <circle cx="4" cy="4" r="4" stroke="none"/>
        <circle cx="4" cy="4" r="3.5" fill="none"/>
      </g>
      <g id="Ellipse_11692" data-name="Ellipse 11692" transform="translate(312.051 7519)" fill="#fff" stroke="#12263f" stroke-width="1">
        <circle cx="4" cy="4" r="4" stroke="none"/>
        <circle cx="4" cy="4" r="3.5" fill="none"/>
      </g>
      <g id="Ellipse_11693" data-name="Ellipse 11693" transform="translate(312.051 7542)" fill="#fff" stroke="#12263f" stroke-width="1">
        <circle cx="4" cy="4" r="4" stroke="none"/>
        <circle cx="4" cy="4" r="3.5" fill="none"/>
      </g>
      <g id="Ellipse_11694" data-name="Ellipse 11694" transform="translate(403.051 7542)" fill="#fff" stroke="#12263f" stroke-width="1">
        <circle cx="4" cy="4" r="4" stroke="none"/>
        <circle cx="4" cy="4" r="3.5" fill="none"/>
      </g>
      <g id="Ellipse_11695" data-name="Ellipse 11695" transform="translate(403.051 7519)" fill="#fff" stroke="#12263f" stroke-width="1">
        <circle cx="4" cy="4" r="4" stroke="none"/>
        <circle cx="4" cy="4" r="3.5" fill="none"/>
      </g>
      <g id="Ellipse_11696" data-name="Ellipse 11696" transform="translate(403.051 7493)" fill="#fff" stroke="#12263f" stroke-width="1">
        <circle cx="4" cy="4" r="4" stroke="none"/>
        <circle cx="4" cy="4" r="3.5" fill="none"/>
      </g>
      <g id="Ellipse_11697" data-name="Ellipse 11697" transform="translate(403.051 7470)" fill="#fff" stroke="#12263f" stroke-width="1">
        <circle cx="4" cy="4" r="4" stroke="none"/>
        <circle cx="4" cy="4" r="3.5" fill="none"/>
      </g>
      <g id="Ellipse_11698" data-name="Ellipse 11698" transform="translate(403.051 7447)" fill="#fff" stroke="#12263f" stroke-width="1">
        <circle cx="4" cy="4" r="4" stroke="none"/>
        <circle cx="4" cy="4" r="3.5" fill="none"/>
      </g>
      <g id="Ellipse_11702" data-name="Ellipse 11702" transform="translate(449.051 7450)" fill="#fff" stroke="#12263f" stroke-width="1">
        <circle cx="4" cy="4" r="4" stroke="none"/>
        <circle cx="4" cy="4" r="3.5" fill="none"/>
      </g>
      <g id="Ellipse_11705" data-name="Ellipse 11705" transform="translate(536.051 7450)" fill="#fff" stroke="#12263f" stroke-width="1">
        <circle cx="4" cy="4" r="4" stroke="none"/>
        <circle cx="4" cy="4" r="3.5" fill="none"/>
      </g>
      <g id="Ellipse_11715" data-name="Ellipse 11715" transform="translate(659.051 7456)" fill="#fff" stroke="#12263f" stroke-width="1">
        <circle cx="4" cy="4" r="4" stroke="none"/>
        <circle cx="4" cy="4" r="3.5" fill="none"/>
      </g>
      <g id="Ellipse_11730" data-name="Ellipse 11730" transform="translate(711.051 7445)" fill="#fff" stroke="#12263f" stroke-width="1">
        <circle cx="4" cy="4" r="4" stroke="none"/>
        <circle cx="4" cy="4" r="3.5" fill="none"/>
      </g>
      <g id="Ellipse_11735" data-name="Ellipse 11735" transform="translate(717.051 7469)" fill="#fff" stroke="#12263f" stroke-width="1">
        <circle cx="4" cy="4" r="4" stroke="none"/>
        <circle cx="4" cy="4" r="3.5" fill="none"/>
      </g>
      <g id="Ellipse_11739" data-name="Ellipse 11739" transform="translate(724.051 7493)" fill="#fff" stroke="#12263f" stroke-width="1">
        <circle cx="4" cy="4" r="4" stroke="none"/>
        <circle cx="4" cy="4" r="3.5" fill="none"/>
      </g>
      <g id="Ellipse_11743" data-name="Ellipse 11743" transform="translate(731.051 7517)" fill="#fff" stroke="#12263f" stroke-width="1">
        <circle cx="4" cy="4" r="4" stroke="none"/>
        <circle cx="4" cy="4" r="3.5" fill="none"/>
      </g>
      <g id="Ellipse_11746" data-name="Ellipse 11746" transform="translate(790.051 7517)" fill="#fff" stroke="#12263f" stroke-width="1">
        <circle cx="4" cy="4" r="4" stroke="none"/>
        <circle cx="4" cy="4" r="3.5" fill="none"/>
      </g>
      <g id="Ellipse_11744" data-name="Ellipse 11744" transform="translate(745.051 7517)" fill="#fff" stroke="#12263f" stroke-width="1">
        <circle cx="4" cy="4" r="4" stroke="none"/>
        <circle cx="4" cy="4" r="3.5" fill="none"/>
      </g>
      <g id="Ellipse_11745" data-name="Ellipse 11745" transform="translate(804.051 7517)" fill="#fff" stroke="#12263f" stroke-width="1">
        <circle cx="4" cy="4" r="4" stroke="none"/>
        <circle cx="4" cy="4" r="3.5" fill="none"/>
      </g>
      <g id="Ellipse_11740" data-name="Ellipse 11740" transform="translate(752.051 7493)" fill="#fff" stroke="#12263f" stroke-width="1">
        <circle cx="4" cy="4" r="4" stroke="none"/>
        <circle cx="4" cy="4" r="3.5" fill="none"/>
      </g>
      <g id="Ellipse_11741" data-name="Ellipse 11741" transform="translate(782.051 7493)" fill="#fff" stroke="#12263f" stroke-width="1">
        <circle cx="4" cy="4" r="4" stroke="none"/>
        <circle cx="4" cy="4" r="3.5" fill="none"/>
      </g>
      <g id="Ellipse_11742" data-name="Ellipse 11742" transform="translate(809.051 7493)" fill="#fff" stroke="#12263f" stroke-width="1">
        <circle cx="4" cy="4" r="4" stroke="none"/>
        <circle cx="4" cy="4" r="3.5" fill="none"/>
      </g>
      <g id="Ellipse_11736" data-name="Ellipse 11736" transform="translate(759.051 7469)" fill="#fff" stroke="#12263f" stroke-width="1">
        <circle cx="4" cy="4" r="4" stroke="none"/>
        <circle cx="4" cy="4" r="3.5" fill="none"/>
      </g>
      <g id="Ellipse_11737" data-name="Ellipse 11737" transform="translate(775.051 7469)" fill="#fff" stroke="#12263f" stroke-width="1">
        <circle cx="4" cy="4" r="4" stroke="none"/>
        <circle cx="4" cy="4" r="3.5" fill="none"/>
      </g>
      <g id="Ellipse_11738" data-name="Ellipse 11738" transform="translate(814.051 7469)" fill="#fff" stroke="#12263f" stroke-width="1">
        <circle cx="4" cy="4" r="4" stroke="none"/>
        <circle cx="4" cy="4" r="3.5" fill="none"/>
      </g>
      <g id="Ellipse_11733" data-name="Ellipse 11733" transform="translate(738.051 7541)" fill="#fff" stroke="#12263f" stroke-width="1">
        <circle cx="4" cy="4" r="4" stroke="none"/>
        <circle cx="4" cy="4" r="3.5" fill="none"/>
      </g>
      <g id="Ellipse_11734" data-name="Ellipse 11734" transform="translate(797.051 7541)" fill="#fff" stroke="#12263f" stroke-width="1">
        <circle cx="4" cy="4" r="4" stroke="none"/>
        <circle cx="4" cy="4" r="3.5" fill="none"/>
      </g>
      <g id="Ellipse_11731" data-name="Ellipse 11731" transform="translate(767.051 7445)" fill="#fff" stroke="#12263f" stroke-width="1">
        <circle cx="4" cy="4" r="4" stroke="none"/>
        <circle cx="4" cy="4" r="3.5" fill="none"/>
      </g>
      <g id="Ellipse_11732" data-name="Ellipse 11732" transform="translate(820.051 7445)" fill="#fff" stroke="#12263f" stroke-width="1">
        <circle cx="4" cy="4" r="4" stroke="none"/>
        <circle cx="4" cy="4" r="3.5" fill="none"/>
      </g>
      <g id="Ellipse_11747" data-name="Ellipse 11747" transform="translate(864.051 7439)" fill="#fff" stroke="#12263f" stroke-width="1">
        <circle cx="3" cy="3" r="3" stroke="none"/>
        <circle cx="3" cy="3" r="2.5" fill="none"/>
      </g>
      <g id="Ellipse_11748" data-name="Ellipse 11748" transform="translate(863.051 7448)" fill="#fff" stroke="#12263f" stroke-width="1">
        <circle cx="3" cy="3" r="3" stroke="none"/>
        <circle cx="3" cy="3" r="2.5" fill="none"/>
      </g>
      <g id="Ellipse_11749" data-name="Ellipse 11749" transform="translate(862.051 7459)" fill="#fff" stroke="#12263f" stroke-width="1">
        <circle cx="3" cy="3" r="3" stroke="none"/>
        <circle cx="3" cy="3" r="2.5" fill="none"/>
      </g>
      <g id="Ellipse_11750" data-name="Ellipse 11750" transform="translate(861.051 7470)" fill="#fff" stroke="#12263f" stroke-width="1">
        <circle cx="3" cy="3" r="3" stroke="none"/>
        <circle cx="3" cy="3" r="2.5" fill="none"/>
      </g>
      <g id="Ellipse_11751" data-name="Ellipse 11751" transform="translate(861.051 7483)" fill="#fff" stroke="#12263f" stroke-width="1">
        <circle cx="3" cy="3" r="3" stroke="none"/>
        <circle cx="3" cy="3" r="2.5" fill="none"/>
      </g>
      <g id="Ellipse_11752" data-name="Ellipse 11752" transform="translate(872.051 7477)" fill="#fff" stroke="#12263f" stroke-width="1">
        <circle cx="3" cy="3" r="3" stroke="none"/>
        <circle cx="3" cy="3" r="2.5" fill="none"/>
      </g>
      <g id="Ellipse_11753" data-name="Ellipse 11753" transform="translate(881.051 7471)" fill="#fff" stroke="#12263f" stroke-width="1">
        <circle cx="3" cy="3" r="3" stroke="none"/>
        <circle cx="3" cy="3" r="2.5" fill="none"/>
      </g>
      <g id="Ellipse_11754" data-name="Ellipse 11754" transform="translate(891.051 7465)" fill="#fff" stroke="#12263f" stroke-width="1">
        <circle cx="3" cy="3" r="3" stroke="none"/>
        <circle cx="3" cy="3" r="2.5" fill="none"/>
      </g>
      <g id="Ellipse_11755" data-name="Ellipse 11755" transform="translate(900.051 7459)" fill="#fff" stroke="#12263f" stroke-width="1">
        <circle cx="3" cy="3" r="3" stroke="none"/>
        <circle cx="3" cy="3" r="2.5" fill="none"/>
      </g>
      <g id="Ellipse_11756" data-name="Ellipse 11756" transform="translate(899.051 7470)" fill="#fff" stroke="#12263f" stroke-width="1">
        <circle cx="3" cy="3" r="3" stroke="none"/>
        <circle cx="3" cy="3" r="2.5" fill="none"/>
      </g>
      <g id="Ellipse_11757" data-name="Ellipse 11757" transform="translate(897.051 7481)" fill="#fff" stroke="#12263f" stroke-width="1">
        <circle cx="3" cy="3" r="3" stroke="none"/>
        <circle cx="3" cy="3" r="2.5" fill="none"/>
      </g>
      <g id="Ellipse_11758" data-name="Ellipse 11758" transform="translate(896.051 7492)" fill="#fff" stroke="#12263f" stroke-width="1">
        <circle cx="3" cy="3" r="3" stroke="none"/>
        <circle cx="3" cy="3" r="2.5" fill="none"/>
      </g>
      <g id="Ellipse_11759" data-name="Ellipse 11759" transform="translate(894.051 7505)" fill="#fff" stroke="#12263f" stroke-width="1">
        <circle cx="3" cy="3" r="3" stroke="none"/>
        <circle cx="3" cy="3" r="2.5" fill="none"/>
      </g>
      <g id="Ellipse_11760" data-name="Ellipse 11760" transform="translate(905.051 7499)" fill="#fff" stroke="#12263f" stroke-width="1">
        <circle cx="3" cy="3" r="3" stroke="none"/>
        <circle cx="3" cy="3" r="2.5" fill="none"/>
      </g>
      <g id="Ellipse_11761" data-name="Ellipse 11761" transform="translate(915.051 7492)" fill="#fff" stroke="#12263f" stroke-width="1">
        <circle cx="3" cy="3" r="3" stroke="none"/>
        <circle cx="3" cy="3" r="2.5" fill="none"/>
      </g>
      <g id="Ellipse_11762" data-name="Ellipse 11762" transform="translate(924.051 7486)" fill="#fff" stroke="#12263f" stroke-width="1">
        <circle cx="3" cy="3" r="3" stroke="none"/>
        <circle cx="3" cy="3" r="2.5" fill="none"/>
      </g>
      <g id="Ellipse_11763" data-name="Ellipse 11763" transform="translate(933.051 7480)" fill="#fff" stroke="#12263f" stroke-width="1">
        <circle cx="3" cy="3" r="3" stroke="none"/>
        <circle cx="3" cy="3" r="2.5" fill="none"/>
      </g>
      <g id="Ellipse_11764" data-name="Ellipse 11764" transform="translate(933.051 7492)" fill="#fff" stroke="#12263f" stroke-width="1">
        <circle cx="3" cy="3" r="3" stroke="none"/>
        <circle cx="3" cy="3" r="2.5" fill="none"/>
      </g>
      <g id="Ellipse_11765" data-name="Ellipse 11765" transform="translate(932.051 7503)" fill="#fff" stroke="#12263f" stroke-width="1">
        <circle cx="3" cy="3" r="3" stroke="none"/>
        <circle cx="3" cy="3" r="2.5" fill="none"/>
      </g>
      <g id="Ellipse_11766" data-name="Ellipse 11766" transform="translate(930.051 7514)" fill="#fff" stroke="#12263f" stroke-width="1">
        <circle cx="3" cy="3" r="3" stroke="none"/>
        <circle cx="3" cy="3" r="2.5" fill="none"/>
      </g>
      <g id="Ellipse_11767" data-name="Ellipse 11767" transform="translate(930.051 7526)" fill="#fff" stroke="#12263f" stroke-width="1">
        <circle cx="3" cy="3" r="3" stroke="none"/>
        <circle cx="3" cy="3" r="2.5" fill="none"/>
      </g>
      <g id="Ellipse_11768" data-name="Ellipse 11768" transform="translate(938.051 7521)" fill="#fff" stroke="#12263f" stroke-width="1">
        <circle cx="3" cy="3" r="3" stroke="none"/>
        <circle cx="3" cy="3" r="2.5" fill="none"/>
      </g>
      <g id="Ellipse_11769" data-name="Ellipse 11769" transform="translate(949.051 7514)" fill="#fff" stroke="#12263f" stroke-width="1">
        <circle cx="3" cy="3" r="3" stroke="none"/>
        <circle cx="3" cy="3" r="2.5" fill="none"/>
      </g>
      <g id="Ellipse_11770" data-name="Ellipse 11770" transform="translate(958.051 7508)" fill="#fff" stroke="#12263f" stroke-width="1">
        <circle cx="3" cy="3" r="3" stroke="none"/>
        <circle cx="3" cy="3" r="2.5" fill="none"/>
      </g>
      <g id="Ellipse_11771" data-name="Ellipse 11771" transform="translate(968.051 7503)" fill="#fff" stroke="#12263f" stroke-width="1">
        <circle cx="3" cy="3" r="3" stroke="none"/>
        <circle cx="3" cy="3" r="2.5" fill="none"/>
      </g>
      <g id="Ellipse_11772" data-name="Ellipse 11772" transform="translate(967.051 7514)" fill="#fff" stroke="#12263f" stroke-width="1">
        <circle cx="3" cy="3" r="3" stroke="none"/>
        <circle cx="3" cy="3" r="2.5" fill="none"/>
      </g>
      <g id="Ellipse_11773" data-name="Ellipse 11773" transform="translate(966.051 7525)" fill="#fff" stroke="#12263f" stroke-width="1">
        <circle cx="3" cy="3" r="3" stroke="none"/>
        <circle cx="3" cy="3" r="2.5" fill="none"/>
      </g>
      <g id="Ellipse_11774" data-name="Ellipse 11774" transform="translate(965.051 7536)" fill="#fff" stroke="#12263f" stroke-width="1">
        <circle cx="3" cy="3" r="3" stroke="none"/>
        <circle cx="3" cy="3" r="2.5" fill="none"/>
      </g>
      <g id="Ellipse_11775" data-name="Ellipse 11775" transform="translate(965.051 7547)" fill="#fff" stroke="#12263f" stroke-width="1">
        <circle cx="3" cy="3" r="3" stroke="none"/>
        <circle cx="3" cy="3" r="2.5" fill="none"/>
      </g>
      <g id="Ellipse_11776" data-name="Ellipse 11776" transform="translate(975.051 7543)" fill="#fff" stroke="#12263f" stroke-width="1">
        <circle cx="3" cy="3" r="3" stroke="none"/>
        <circle cx="3" cy="3" r="2.5" fill="none"/>
      </g>
      <g id="Ellipse_11777" data-name="Ellipse 11777" transform="translate(984.051 7536)" fill="#fff" stroke="#12263f" stroke-width="1">
        <circle cx="3" cy="3" r="3" stroke="none"/>
        <circle cx="3" cy="3" r="2.5" fill="none"/>
      </g>
      <g id="Ellipse_11778" data-name="Ellipse 11778" transform="translate(993.051 7531)" fill="#fff" stroke="#12263f" stroke-width="1">
        <circle cx="3" cy="3" r="3" stroke="none"/>
        <circle cx="3" cy="3" r="2.5" fill="none"/>
      </g>
      <g id="Ellipse_11779" data-name="Ellipse 11779" transform="translate(1003.051 7526)" fill="#fff" stroke="#12263f" stroke-width="1">
        <circle cx="3" cy="3" r="3" stroke="none"/>
        <circle cx="3" cy="3" r="2.5" fill="none"/>
      </g>
      <g id="Ellipse_11716" data-name="Ellipse 11716" transform="translate(645.051 7450)" fill="#fff" stroke="#12263f" stroke-width="1">
        <circle cx="4" cy="4" r="4" stroke="none"/>
        <circle cx="4" cy="4" r="3.5" fill="none"/>
      </g>
      <g id="Ellipse_11717" data-name="Ellipse 11717" transform="translate(631.051 7447)" fill="#fff" stroke="#12263f" stroke-width="1">
        <circle cx="4" cy="4" r="4" stroke="none"/>
        <circle cx="4" cy="4" r="3.5" fill="none"/>
      </g>
      <g id="Ellipse_11718" data-name="Ellipse 11718" transform="translate(614.051 7450)" fill="#fff" stroke="#12263f" stroke-width="1">
        <circle cx="4" cy="4" r="4" stroke="none"/>
        <circle cx="4" cy="4" r="3.5" fill="none"/>
      </g>
      <g id="Ellipse_11719" data-name="Ellipse 11719" transform="translate(604.051 7463)" fill="#fff" stroke="#12263f" stroke-width="1">
        <circle cx="4" cy="4" r="4" stroke="none"/>
        <circle cx="4" cy="4" r="3.5" fill="none"/>
      </g>
      <g id="Ellipse_11720" data-name="Ellipse 11720" transform="translate(604.051 7478)" fill="#fff" stroke="#12263f" stroke-width="1">
        <circle cx="4" cy="4" r="4" stroke="none"/>
        <circle cx="4" cy="4" r="3.5" fill="none"/>
      </g>
      <g id="Ellipse_11721" data-name="Ellipse 11721" transform="translate(615.051 7489)" fill="#fff" stroke="#12263f" stroke-width="1">
        <circle cx="4" cy="4" r="4" stroke="none"/>
        <circle cx="4" cy="4" r="3.5" fill="none"/>
      </g>
      <g id="Ellipse_11722" data-name="Ellipse 11722" transform="translate(631.051 7495)" fill="#fff" stroke="#12263f" stroke-width="1">
        <circle cx="4" cy="4" r="4" stroke="none"/>
        <circle cx="4" cy="4" r="3.5" fill="none"/>
      </g>
      <g id="Ellipse_11723" data-name="Ellipse 11723" transform="translate(644.051 7501)" fill="#fff" stroke="#12263f" stroke-width="1">
        <circle cx="4" cy="4" r="4" stroke="none"/>
        <circle cx="4" cy="4" r="3.5" fill="none"/>
      </g>
      <g id="Ellipse_11724" data-name="Ellipse 11724" transform="translate(654.051 7511)" fill="#fff" stroke="#12263f" stroke-width="1">
        <circle cx="4" cy="4" r="4" stroke="none"/>
        <circle cx="4" cy="4" r="3.5" fill="none"/>
      </g>
      <g id="Ellipse_11725" data-name="Ellipse 11725" transform="translate(655.051 7527)" fill="#fff" stroke="#12263f" stroke-width="1">
        <circle cx="4" cy="4" r="4" stroke="none"/>
        <circle cx="4" cy="4" r="3.5" fill="none"/>
      </g>
      <g id="Ellipse_11726" data-name="Ellipse 11726" transform="translate(646.051 7541)" fill="#fff" stroke="#12263f" stroke-width="1">
        <circle cx="4" cy="4" r="4" stroke="none"/>
        <circle cx="4" cy="4" r="3.5" fill="none"/>
      </g>
      <g id="Ellipse_11727" data-name="Ellipse 11727" transform="translate(630.051 7543)" fill="#fff" stroke="#12263f" stroke-width="1">
        <circle cx="4" cy="4" r="4" stroke="none"/>
        <circle cx="4" cy="4" r="3.5" fill="none"/>
      </g>
      <g id="Ellipse_11728" data-name="Ellipse 11728" transform="translate(615.051 7541)" fill="#fff" stroke="#12263f" stroke-width="1">
        <circle cx="4" cy="4" r="4" stroke="none"/>
        <circle cx="4" cy="4" r="3.5" fill="none"/>
      </g>
      <g id="Ellipse_11729" data-name="Ellipse 11729" transform="translate(601.051 7535)" fill="#fff" stroke="#12263f" stroke-width="1">
        <circle cx="4" cy="4" r="4" stroke="none"/>
        <circle cx="4" cy="4" r="3.5" fill="none"/>
      </g>
      <g id="Ellipse_11706" data-name="Ellipse 11706" transform="translate(521.051 7466)" fill="#fff" stroke="#12263f" stroke-width="1">
        <circle cx="4" cy="4" r="4" stroke="none"/>
        <circle cx="4" cy="4" r="3.5" fill="none"/>
      </g>
      <g id="Ellipse_11709" data-name="Ellipse 11709" transform="translate(521.051 7527)" fill="#fff" stroke="#12263f" stroke-width="1">
        <circle cx="4" cy="4" r="4" stroke="none"/>
        <circle cx="4" cy="4" r="3.5" fill="none"/>
      </g>
      <g id="Ellipse_11710" data-name="Ellipse 11710" transform="translate(507.051 7511)" fill="#fff" stroke="#12263f" stroke-width="1">
        <circle cx="4" cy="4" r="4" stroke="none"/>
        <circle cx="4" cy="4" r="3.5" fill="none"/>
      </g>
      <g id="Ellipse_11713" data-name="Ellipse 11713" transform="translate(507.051 7481)" fill="#fff" stroke="#12263f" stroke-width="1">
        <circle cx="4" cy="4" r="4" stroke="none"/>
        <circle cx="4" cy="4" r="3.5" fill="none"/>
      </g>
      <g id="Ellipse_11714" data-name="Ellipse 11714" transform="translate(493.051 7496)" fill="#fff" stroke="#12263f" stroke-width="1">
        <circle cx="4" cy="4" r="4" stroke="none"/>
        <circle cx="4" cy="4" r="3.5" fill="none"/>
      </g>
      <g id="Ellipse_11711" data-name="Ellipse 11711" transform="translate(478.051 7511)" fill="#fff" stroke="#12263f" stroke-width="1">
        <circle cx="4" cy="4" r="4" stroke="none"/>
        <circle cx="4" cy="4" r="3.5" fill="none"/>
      </g>
      <g id="Ellipse_11712" data-name="Ellipse 11712" transform="translate(478.051 7481)" fill="#fff" stroke="#12263f" stroke-width="1">
        <circle cx="4" cy="4" r="4" stroke="none"/>
        <circle cx="4" cy="4" r="3.5" fill="none"/>
      </g>
      <g id="Ellipse_11707" data-name="Ellipse 11707" transform="translate(464.051 7466)" fill="#fff" stroke="#12263f" stroke-width="1">
        <circle cx="4" cy="4" r="4" stroke="none"/>
        <circle cx="4" cy="4" r="3.5" fill="none"/>
      </g>
      <g id="Ellipse_11708" data-name="Ellipse 11708" transform="translate(464.051 7527)" fill="#fff" stroke="#12263f" stroke-width="1">
        <circle cx="4" cy="4" r="4" stroke="none"/>
        <circle cx="4" cy="4" r="3.5" fill="none"/>
      </g>
      <g id="Ellipse_11703" data-name="Ellipse 11703" transform="translate(449.051 7542)" fill="#fff" stroke="#12263f" stroke-width="1">
        <circle cx="4" cy="4" r="4" stroke="none"/>
        <circle cx="4" cy="4" r="3.5" fill="none"/>
      </g>
      <g id="Ellipse_11704" data-name="Ellipse 11704" transform="translate(536.051 7542)" fill="#fff" stroke="#12263f" stroke-width="1">
        <circle cx="4" cy="4" r="4" stroke="none"/>
        <circle cx="4" cy="4" r="3.5" fill="none"/>
      </g>
      <g id="Ellipse_11699" data-name="Ellipse 11699" transform="translate(334.051 7470)" fill="#fff" stroke="#12263f" stroke-width="1">
        <circle cx="4" cy="4" r="4" stroke="none"/>
        <circle cx="4" cy="4" r="3.5" fill="none"/>
      </g>
      <g id="Ellipse_11700" data-name="Ellipse 11700" transform="translate(357.051 7494)" fill="#fff" stroke="#12263f" stroke-width="1">
        <circle cx="4" cy="4" r="4" stroke="none"/>
        <circle cx="4" cy="4" r="3.5" fill="none"/>
      </g>
      <g id="Ellipse_11701" data-name="Ellipse 11701" transform="translate(379.051 7519)" fill="#fff" stroke="#12263f" stroke-width="1">
        <circle cx="4" cy="4" r="4" stroke="none"/>
        <circle cx="4" cy="4" r="3.5" fill="none"/>
      </g>
    </g>
  </g>
</svg>
