<svg xmlns="http://www.w3.org/2000/svg" xmlns:xlink="http://www.w3.org/1999/xlink" width="108.914" height="108.914" viewBox="0 0 108.914 108.914">
  <defs>
    <filter id="Path_874925" x="0" y="0" width="108.914" height="108.914" filterUnits="userSpaceOnUse">
      <feOffset dy="3" input="SourceAlpha"/>
      <feGaussianBlur stdDeviation="3" result="blur"/>
      <feFlood flood-opacity="0.161"/>
      <feComposite operator="in" in2="blur"/>
      <feComposite in="SourceGraphic"/>
    </filter>
  </defs>
  <g id="Group_1113161" data-name="Group 1113161" transform="translate(5083 3190)">
    <g id="Group_1111495" data-name="Group 1111495" transform="translate(-5882.5 -5136.211)">
      <g id="Group_1107913" data-name="Group 1107913" transform="translate(808.5 1952.211)">
        <g transform="matrix(1, 0, 0, 1, -9, -6)" filter="url(#Path_874925)">
          <g id="Path_874925-2" data-name="Path 874925" transform="translate(9 6)" fill="#f3d82a" opacity="0.859">
            <path d="M 45.45676803588867 89.41407012939453 C 39.52198028564453 89.41407012939453 33.76551818847656 88.25206756591797 28.34726715087891 85.96034240722656 C 23.11311721801758 83.74648284912109 18.41204261779785 80.57682800292969 14.37464332580566 76.5394287109375 C 10.33724308013916 72.50202941894531 7.167593002319336 67.80095672607422 4.953730583190918 62.56679534912109 C 2.662005424499512 57.14855575561523 1.500005483627319 51.39208221435547 1.500005483627319 45.45729446411133 C 1.500005483627319 39.52198028564453 2.662005424499512 33.76551818847656 4.953730583190918 28.34726905822754 C 7.167593002319336 23.11310577392578 10.33724308013916 18.41203117370605 14.37464332580566 14.37464332580566 C 18.41204261779785 10.33724403381348 23.11311721801758 7.167593955993652 28.34726715087891 4.953731060028076 C 33.76551818847656 2.662006139755249 39.52198028564453 1.500006198883057 45.45676803588867 1.500006198883057 C 51.39155578613281 1.500006198883057 57.14802932739258 2.662006139755249 62.56626892089844 4.953731060028076 C 67.80043029785156 7.167593955993652 72.50150299072266 10.33724403381348 76.53890228271484 14.37464332580566 C 80.57630920410156 18.41203117370605 83.74595642089844 23.11310577392578 85.95981597900391 28.34726905822754 C 88.25154113769531 33.76551818847656 89.41354370117188 39.52198028564453 89.41354370117188 45.45676803588867 C 89.41354370117188 51.39208221435547 88.25154113769531 57.14855575561523 85.95981597900391 62.56679534912109 C 83.74595642089844 67.80095672607422 80.57630920410156 72.50202941894531 76.53890228271484 76.5394287109375 C 72.50150299072266 80.57682800292969 67.80043029785156 83.74648284912109 62.56626892089844 85.96034240722656 C 57.14802932739258 88.25206756591797 51.39155578613281 89.41407012939453 45.45676803588867 89.41407012939453 Z" stroke="none"/>
            <path d="M 45.45676803588867 3 C 39.72381210327148 3 34.1639404296875 4.12213134765625 28.93159484863281 6.335227966308594 C 23.87622833251953 8.473472595214844 19.33542633056641 11.53517150878906 15.43529510498047 15.435302734375 C 11.53517150878906 19.33543395996094 8.473464965820312 23.87622833251953 6.335227966308594 28.93160247802734 C 4.122123718261719 34.16394424438477 3 39.72381591796875 3 45.4572868347168 C 3 51.19024658203125 4.122123718261719 56.75011825561523 6.335227966308594 61.98246002197266 C 8.473464965820312 67.03782653808594 11.53517150878906 71.57862854003906 15.43529510498047 75.478759765625 C 19.33542633056641 79.37889099121094 23.87622833251953 82.44058990478516 28.93159484863281 84.57883453369141 C 34.1639404296875 86.79193115234375 39.72381210327148 87.9140625 45.45676803588867 87.9140625 C 51.18972396850586 87.9140625 56.74959564208984 86.79193115234375 61.98194122314453 84.57883453369141 C 67.03730773925781 82.44058990478516 71.57810974121094 79.37889099121094 75.47824096679688 75.478759765625 C 79.37837219238281 71.57862854003906 82.44007110595703 67.03782653808594 84.57830810546875 61.98246002197266 C 86.79141235351562 56.75011825561523 87.91353607177734 51.19024658203125 87.91353607177734 45.4567756652832 C 87.91353607177734 39.72381591796875 86.79141235351562 34.16394424438477 84.57830810546875 28.93160247802734 C 82.44007110595703 23.87622833251953 79.37837219238281 19.33543395996094 75.47824096679688 15.435302734375 C 71.57810974121094 11.53517150878906 67.03730773925781 8.473472595214844 61.98194122314453 6.335227966308594 C 56.74959564208984 4.12213134765625 51.18972396850586 3 45.45676803588867 3 M 45.45676803588867 0 C 70.56185150146484 0 90.91353607177734 20.35169219970703 90.91353607177734 45.4567756652832 L 90.91353607177734 45.4572868347168 C 90.91353607177734 70.5623779296875 70.56185150146484 90.9140625 45.45676803588867 90.9140625 C 20.3516845703125 90.9140625 0 70.5623779296875 0 45.4572868347168 L 0 45.4567756652832 C 0 20.35169219970703 20.3516845703125 0 45.45676803588867 0 Z" stroke="none" fill="#fff"/>
          </g>
        </g>
        <g id="Path_874923" data-name="Path 874923" transform="translate(0 0)" fill="none">
          <path d="M45.457,0A45.457,45.457,0,0,1,90.914,45.457h0A45.457,45.457,0,0,1,0,45.457H0A45.457,45.457,0,0,1,45.457,0Z" stroke="none"/>
          <path d="M 45.45676803588867 3 C 39.72381210327148 3 34.1639404296875 4.12213134765625 28.93159484863281 6.335227966308594 C 23.87622833251953 8.473472595214844 19.33542633056641 11.53517150878906 15.43529510498047 15.435302734375 C 11.53517150878906 19.33543395996094 8.473464965820312 23.87622833251953 6.335227966308594 28.93160247802734 C 4.122123718261719 34.16394424438477 3 39.72381591796875 3 45.4572868347168 C 3 51.19024658203125 4.122123718261719 56.75011825561523 6.335227966308594 61.98246002197266 C 8.473464965820312 67.03782653808594 11.53517150878906 71.57862854003906 15.43529510498047 75.478759765625 C 19.33542633056641 79.37889099121094 23.87622833251953 82.44058990478516 28.93159484863281 84.57883453369141 C 34.1639404296875 86.79193115234375 39.72381210327148 87.9140625 45.45676803588867 87.9140625 C 51.18972396850586 87.9140625 56.74959564208984 86.79193115234375 61.98194122314453 84.57883453369141 C 67.03730773925781 82.44058990478516 71.57810974121094 79.37889099121094 75.47824096679688 75.478759765625 C 79.37837219238281 71.57862854003906 82.44007110595703 67.03782653808594 84.57830810546875 61.98246002197266 C 86.79141235351562 56.75011825561523 87.91353607177734 51.19024658203125 87.91353607177734 45.4567756652832 C 87.91353607177734 39.72381591796875 86.79141235351562 34.16394424438477 84.57830810546875 28.93160247802734 C 82.44007110595703 23.87622833251953 79.37837219238281 19.33543395996094 75.47824096679688 15.435302734375 C 71.57810974121094 11.53517150878906 67.03730773925781 8.473472595214844 61.98194122314453 6.335227966308594 C 56.74959564208984 4.12213134765625 51.18972396850586 3 45.45676803588867 3 M 45.45676803588867 0 C 70.56185150146484 0 90.91353607177734 20.35169219970703 90.91353607177734 45.4567756652832 L 90.91353607177734 45.4572868347168 C 90.91353607177734 70.5623779296875 70.56185150146484 90.9140625 45.45676803588867 90.9140625 C 20.3516845703125 90.9140625 0 70.5623779296875 0 45.4572868347168 L 0 45.4567756652832 C 0 20.35169219970703 20.3516845703125 0 45.45676803588867 0 Z" stroke="none" fill="#fff"/>
        </g>
      </g>
    </g>
    <g id="Group_1113160" data-name="Group 1113160" transform="translate(-5130.413 -3172)">
      <path id="Path_901425" data-name="Path 901425" d="M146.413,16.049a7.259,7.259,0,0,0-1.282.116,6.027,6.027,0,0,0-5.845-4.98,6.028,6.028,0,0,0-11.414.928,5.1,5.1,0,0,0-4.75,3.94c-.045,0-.089,0-.134,0a7.217,7.217,0,0,0,0,14.434h23.424s7.217-3.231,7.217-7.217A7.217,7.217,0,0,0,146.413,16.049Z" transform="translate(-32.464 -6.517)" fill="#d99061"/>
      <path id="Path_901426" data-name="Path 901426" d="M230.867,16.049a7.259,7.259,0,0,0-1.282.116,6.027,6.027,0,0,0-5.845-4.98,6.028,6.028,0,0,0-10.779-.661,6.029,6.029,0,0,1,8.323,3.012,6.027,6.027,0,0,1,5.845,4.98,7.215,7.215,0,0,1,7.357,10.993,7.216,7.216,0,0,0-3.62-13.459Z" transform="translate(-116.918 -6.517)" fill="#d17e47"/>
      <path id="Path_901427" data-name="Path 901427" d="M128.01,202.913V171.84H88.388v31.073a5.2,5.2,0,0,1-1.238,3.367,5.2,5.2,0,0,0-1.238,3.367v.583a5.2,5.2,0,0,0,5.2,5.2h34.175a5.2,5.2,0,0,0,5.2-5.2v-.583a5.2,5.2,0,0,0-1.238-3.367A5.2,5.2,0,0,1,128.01,202.913Z" transform="translate(-6.517 -149.324)" fill="#f8e883"/>
      <circle id="Ellipse_11847" data-name="Ellipse 11847" cx="10.259" cy="10.259" r="10.259" transform="translate(91.424 33.76)" fill="#fcf5f5"/>
      <path id="Path_901428" data-name="Path 901428" d="M364.3,206.28a5.2,5.2,0,0,1-1.238-3.367V171.84h-3.931v31.073a5.2,5.2,0,0,0,1.238,3.367,5.2,5.2,0,0,1,1.238,3.367v.583a5.2,5.2,0,0,1-5.2,5.2h3.931a5.2,5.2,0,0,0,5.2-5.2v-.583A5.2,5.2,0,0,0,364.3,206.28Z" transform="translate(-241.573 -149.324)" fill="#f8e14e"/>
      <path id="Path_901429" data-name="Path 901429" d="M242.965,257.656a10.3,10.3,0,0,0-1.965.19,10.258,10.258,0,0,1,0,20.137,10.258,10.258,0,1,0,1.965-20.327Z" transform="translate(-141.283 -223.896)" fill="#ebe1dc"/>
      <path id="Path_901430" data-name="Path 901430" d="M129.616,120.827H86.783a.87.87,0,0,1-.87-.87v-5.952a.87.87,0,0,1,.87-.87h42.833a.87.87,0,0,1,.87.87v5.952A.87.87,0,0,1,129.616,120.827Z" transform="translate(-6.517 -98.311)" fill="#faf0b0"/>
      <path id="Path_901431" data-name="Path 901431" d="M161.538,304.688h-7.732a6.511,6.511,0,0,1-6.511-6.511v-1.9a.723.723,0,0,1,.723-.723H154.3a7.235,7.235,0,0,1,7.235,7.235Z" transform="translate(-59.856 -256.831)" fill="#acd980"/>
      <path id="Path_901432" data-name="Path 901432" d="M256,304.688h7.732a6.511,6.511,0,0,0,6.512-6.511v-1.9a.723.723,0,0,0-.723-.723h-6.286A7.235,7.235,0,0,0,256,302.793Z" transform="translate(-154.318 -256.831)" fill="#acd980"/>
      <path id="Path_901433" data-name="Path 901433" d="M393.378,113.135h-3.931a.87.87,0,0,1,.87.87v5.952a.87.87,0,0,1-.87.87h3.931a.87.87,0,0,0,.87-.87V114A.87.87,0,0,0,393.378,113.135Z" transform="translate(-270.28 -98.311)" fill="#f9e66c"/>
      <path id="Path_901434" data-name="Path 901434" d="M294.732,295.557H290.8a.723.723,0,0,1,.723.723v1.9a6.511,6.511,0,0,1-6.511,6.511h3.93a6.511,6.511,0,0,0,6.511-6.511v-1.9A.723.723,0,0,0,294.732,295.557Z" transform="translate(-179.529 -256.83)" fill="#9cd169"/>
      <path id="Path_901435" data-name="Path 901435" d="M123.1,13.841h-1.462a8.379,8.379,0,0,0-7.688-5.293q-.267,0-.537.018a7.016,7.016,0,0,0-5.953-4.845,7.012,7.012,0,0,0-12.807.965A6.108,6.108,0,0,0,89.924,8.57a8.184,8.184,0,0,0-7.068,5.271H80.266a1.855,1.855,0,0,0-1.853,1.853v5.952A1.855,1.855,0,0,0,80.266,23.5h.623V33.76a.983.983,0,0,0,1.965,0V23.5h37.657V42.637a.983.983,0,1,0,1.965,0V23.5h.622a1.855,1.855,0,0,0,1.853-1.853V15.694a1.855,1.855,0,0,0-1.853-1.853ZM90.525,10.514h.046l.069,0a.985.985,0,0,0,.976-.76,4.126,4.126,0,0,1,3.834-3.18.983.983,0,0,0,.914-.752,5.046,5.046,0,0,1,9.553-.775.983.983,0,0,0,.891.6A5.044,5.044,0,0,1,111.7,9.817a.983.983,0,0,0,1.141.8,6.3,6.3,0,0,1,1.108-.1,6.2,6.2,0,0,1,5.517,3.327H85.008a6.223,6.223,0,0,1,5.517-3.327Zm32.461,11.019H80.378V15.807h42.607v5.727Z"/>
      <path id="Path_901436" data-name="Path 901436" d="M122.476,297.037v-7.022a.983.983,0,0,0-1.965,0v6.33h-4.585a.983.983,0,0,0,0,1.965h4.719a6.188,6.188,0,0,0,1.337,2.729,4.22,4.22,0,0,1,1,2.73v.583a4.221,4.221,0,0,1-4.216,4.216H84.594a4.221,4.221,0,0,1-4.216-4.216v-.583a4.22,4.22,0,0,1,1-2.73,6.184,6.184,0,0,0,1.337-2.729h5.01a.983.983,0,0,0,0-1.965H82.854V281.139a.983.983,0,1,0-1.965,0v15.9a4.22,4.22,0,0,1-1,2.73,6.188,6.188,0,0,0-1.471,4v.583a6.188,6.188,0,0,0,6.181,6.181H118.77a6.188,6.188,0,0,0,6.181-6.181v-.583a6.188,6.188,0,0,0-1.471-4A4.221,4.221,0,0,1,122.476,297.037Z" transform="translate(0 -243.447)"/>
      <path id="Path_901437" data-name="Path 901437" d="M144.647,265.736a11.244,11.244,0,0,0,20.728.036c0-.012.009-.024.013-.036a7.506,7.506,0,0,0,4.856-7.013v-1.9a1.708,1.708,0,0,0-1.706-1.706h-4.194a11.242,11.242,0,0,0-18.526-.187.979.979,0,0,0-.1.187H141.5a1.708,1.708,0,0,0-1.706,1.706v1.9A7.507,7.507,0,0,0,144.647,265.736Zm2.439.476c.066,0,6.871.005,6.871.005v4.4A9.223,9.223,0,0,1,147.087,266.212Zm8.836,4.414v-4.409s6.959,0,7.025,0A9.257,9.257,0,0,1,155.923,270.627Zm12.356-11.9a5.535,5.535,0,0,1-5.529,5.529H156v-.914a6.259,6.259,0,0,1,6.252-6.252h6.027Zm-13.261-6.6a9.2,9.2,0,0,1,6.845,3.011,8.227,8.227,0,0,0-6.845,4.314,8.227,8.227,0,0,0-6.839-4.314A9.293,9.293,0,0,1,155.018,252.121Zm-13.261,4.966h6.027a6.259,6.259,0,0,1,6.252,6.252v.914h-6.749a5.535,5.535,0,0,1-5.529-5.529v-1.636Z" transform="translate(-53.336 -217.377)"/>
    </g>
  </g>
</svg>
