<svg xmlns="http://www.w3.org/2000/svg" xmlns:xlink="http://www.w3.org/1999/xlink" width="108.914" height="108.914" viewBox="0 0 108.914 108.914">
  <defs>
    <filter id="Path_874925" x="0" y="0" width="108.914" height="108.914" filterUnits="userSpaceOnUse">
      <feOffset dy="3" input="SourceAlpha"/>
      <feGaussianBlur stdDeviation="3" result="blur"/>
      <feFlood flood-opacity="0.161"/>
      <feComposite operator="in" in2="blur"/>
      <feComposite in="SourceGraphic"/>
    </filter>
  </defs>
  <g id="Group_1113148" data-name="Group 1113148" transform="translate(6379 3190)">
    <g id="Group_1111491" data-name="Group 1111491" transform="translate(-7178.5 -5136.211)">
      <g id="Group_1107913" data-name="Group 1107913" transform="translate(808.5 1952.211)">
        <g transform="matrix(1, 0, 0, 1, -9, -6)" filter="url(#Path_874925)">
          <g id="Path_874925-2" data-name="Path 874925" transform="translate(9 6)" fill="#f3d82a" opacity="0.859">
            <path d="M 45.45676803588867 89.41407012939453 C 39.52198028564453 89.41407012939453 33.76551818847656 88.25206756591797 28.34726715087891 85.96034240722656 C 23.11311721801758 83.74648284912109 18.41204261779785 80.57682800292969 14.37464332580566 76.5394287109375 C 10.33724308013916 72.50202941894531 7.167593002319336 67.80095672607422 4.953730583190918 62.56679534912109 C 2.662005424499512 57.14855575561523 1.500005483627319 51.39208221435547 1.500005483627319 45.45729446411133 C 1.500005483627319 39.52198028564453 2.662005424499512 33.76551818847656 4.953730583190918 28.34726905822754 C 7.167593002319336 23.11310577392578 10.33724308013916 18.41203117370605 14.37464332580566 14.37464332580566 C 18.41204261779785 10.33724403381348 23.11311721801758 7.167593955993652 28.34726715087891 4.953731060028076 C 33.76551818847656 2.662006139755249 39.52198028564453 1.500006198883057 45.45676803588867 1.500006198883057 C 51.39155578613281 1.500006198883057 57.14802932739258 2.662006139755249 62.56626892089844 4.953731060028076 C 67.80043029785156 7.167593955993652 72.50150299072266 10.33724403381348 76.53890228271484 14.37464332580566 C 80.57630920410156 18.41203117370605 83.74595642089844 23.11310577392578 85.95981597900391 28.34726905822754 C 88.25154113769531 33.76551818847656 89.41354370117188 39.52198028564453 89.41354370117188 45.45676803588867 C 89.41354370117188 51.39208221435547 88.25154113769531 57.14855575561523 85.95981597900391 62.56679534912109 C 83.74595642089844 67.80095672607422 80.57630920410156 72.50202941894531 76.53890228271484 76.5394287109375 C 72.50150299072266 80.57682800292969 67.80043029785156 83.74648284912109 62.56626892089844 85.96034240722656 C 57.14802932739258 88.25206756591797 51.39155578613281 89.41407012939453 45.45676803588867 89.41407012939453 Z" stroke="none"/>
            <path d="M 45.45676803588867 3 C 39.72381210327148 3 34.1639404296875 4.12213134765625 28.93159484863281 6.335227966308594 C 23.87622833251953 8.473472595214844 19.33542633056641 11.53517150878906 15.43529510498047 15.435302734375 C 11.53517150878906 19.33543395996094 8.473464965820312 23.87622833251953 6.335227966308594 28.93160247802734 C 4.122123718261719 34.16394424438477 3 39.72381591796875 3 45.4572868347168 C 3 51.19024658203125 4.122123718261719 56.75011825561523 6.335227966308594 61.98246002197266 C 8.473464965820312 67.03782653808594 11.53517150878906 71.57862854003906 15.43529510498047 75.478759765625 C 19.33542633056641 79.37889099121094 23.87622833251953 82.44058990478516 28.93159484863281 84.57883453369141 C 34.1639404296875 86.79193115234375 39.72381210327148 87.9140625 45.45676803588867 87.9140625 C 51.18972396850586 87.9140625 56.74959564208984 86.79193115234375 61.98194122314453 84.57883453369141 C 67.03730773925781 82.44058990478516 71.57810974121094 79.37889099121094 75.47824096679688 75.478759765625 C 79.37837219238281 71.57862854003906 82.44007110595703 67.03782653808594 84.57830810546875 61.98246002197266 C 86.79141235351562 56.75011825561523 87.91353607177734 51.19024658203125 87.91353607177734 45.4567756652832 C 87.91353607177734 39.72381591796875 86.79141235351562 34.16394424438477 84.57830810546875 28.93160247802734 C 82.44007110595703 23.87622833251953 79.37837219238281 19.33543395996094 75.47824096679688 15.435302734375 C 71.57810974121094 11.53517150878906 67.03730773925781 8.473472595214844 61.98194122314453 6.335227966308594 C 56.74959564208984 4.12213134765625 51.18972396850586 3 45.45676803588867 3 M 45.45676803588867 0 C 70.56185150146484 0 90.91353607177734 20.35169219970703 90.91353607177734 45.4567756652832 L 90.91353607177734 45.4572868347168 C 90.91353607177734 70.5623779296875 70.56185150146484 90.9140625 45.45676803588867 90.9140625 C 20.3516845703125 90.9140625 0 70.5623779296875 0 45.4572868347168 L 0 45.4567756652832 C 0 20.35169219970703 20.3516845703125 0 45.45676803588867 0 Z" stroke="none" fill="#fff"/>
          </g>
        </g>
        <g id="Path_874923" data-name="Path 874923" transform="translate(0 0)" fill="none">
          <path d="M45.457,0A45.457,45.457,0,0,1,90.914,45.457h0A45.457,45.457,0,0,1,0,45.457H0A45.457,45.457,0,0,1,45.457,0Z" stroke="none"/>
          <path d="M 45.45676803588867 3 C 39.72381210327148 3 34.1639404296875 4.12213134765625 28.93159484863281 6.335227966308594 C 23.87622833251953 8.473472595214844 19.33542633056641 11.53517150878906 15.43529510498047 15.435302734375 C 11.53517150878906 19.33543395996094 8.473464965820312 23.87622833251953 6.335227966308594 28.93160247802734 C 4.122123718261719 34.16394424438477 3 39.72381591796875 3 45.4572868347168 C 3 51.19024658203125 4.122123718261719 56.75011825561523 6.335227966308594 61.98246002197266 C 8.473464965820312 67.03782653808594 11.53517150878906 71.57862854003906 15.43529510498047 75.478759765625 C 19.33542633056641 79.37889099121094 23.87622833251953 82.44058990478516 28.93159484863281 84.57883453369141 C 34.1639404296875 86.79193115234375 39.72381210327148 87.9140625 45.45676803588867 87.9140625 C 51.18972396850586 87.9140625 56.74959564208984 86.79193115234375 61.98194122314453 84.57883453369141 C 67.03730773925781 82.44058990478516 71.57810974121094 79.37889099121094 75.47824096679688 75.478759765625 C 79.37837219238281 71.57862854003906 82.44007110595703 67.03782653808594 84.57830810546875 61.98246002197266 C 86.79141235351562 56.75011825561523 87.91353607177734 51.19024658203125 87.91353607177734 45.4567756652832 C 87.91353607177734 39.72381591796875 86.79141235351562 34.16394424438477 84.57830810546875 28.93160247802734 C 82.44007110595703 23.87622833251953 79.37837219238281 19.33543395996094 75.47824096679688 15.435302734375 C 71.57810974121094 11.53517150878906 67.03730773925781 8.473472595214844 61.98194122314453 6.335227966308594 C 56.74959564208984 4.12213134765625 51.18972396850586 3 45.45676803588867 3 M 45.45676803588867 0 C 70.56185150146484 0 90.91353607177734 20.35169219970703 90.91353607177734 45.4567756652832 L 90.91353607177734 45.4572868347168 C 90.91353607177734 70.5623779296875 70.56185150146484 90.9140625 45.45676803588867 90.9140625 C 20.3516845703125 90.9140625 0 70.5623779296875 0 45.4572868347168 L 0 45.4567756652832 C 0 20.35169219970703 20.3516845703125 0 45.45676803588867 0 Z" stroke="none" fill="#fff"/>
        </g>
      </g>
    </g>
    <g id="Group_1113147" data-name="Group 1113147" transform="translate(-6353 -3166)">
      <g id="Group_1113145" data-name="Group 1113145" transform="translate(3.873 0.873)">
        <g id="Group_1113144" data-name="Group 1113144" transform="translate(13.101 35.809)">
          <ellipse id="Ellipse_11830" data-name="Ellipse 11830" cx="2.5" cy="2" rx="2.5" ry="2" transform="translate(15.354 5.266)" fill="#9b7868"/>
          <ellipse id="Ellipse_11831" data-name="Ellipse 11831" cx="2" cy="2.5" rx="2" ry="2.5" transform="translate(0.354 9.266)" fill="#9b7868"/>
          <ellipse id="Ellipse_11832" data-name="Ellipse 11832" cx="2" cy="1.5" rx="2" ry="1.5" transform="translate(8.354 0.266)" fill="#9b7868"/>
        </g>
        <path id="Path_901372" data-name="Path 901372" d="M48.778,52.083a4.408,4.408,0,0,1-3.266,7.371h-33.1a4.408,4.408,0,0,1-3.266-7.371L21.668,38.24a9.827,9.827,0,0,1,14.586,0ZM37.7,48.537a2.183,2.183,0,1,0-2.183,2.183A2.184,2.184,0,0,0,37.7,48.537Zm-7.86-5.677a1.747,1.747,0,1,0-1.747,1.747A1.752,1.752,0,0,0,29.835,42.86ZM21.974,52.9a2.183,2.183,0,1,0-2.183,2.183A2.184,2.184,0,0,0,21.974,52.9Z" transform="translate(-4.506 -5.305)" fill="#af9084"/>
        <path id="Path_901373" data-name="Path 901373" d="M42,18h4.367v5.24H42Z" transform="translate(-8.811 -3.152)" fill="#ea9939"/>
        <path id="Path_901374" data-name="Path 901374" d="M41.367,17.114v5.24H37V11h4.367Z" transform="translate(-8.178 -2.266)" fill="#7fc94f"/>
        <path id="Path_901375" data-name="Path 901375" d="M32,15h4.367v7.86H32Z" transform="translate(-7.545 -2.773)" fill="#d74c4c"/>
        <path id="Path_901376" data-name="Path 901376" d="M22.516,17.944a7.86,7.86,0,1,0-6.288,3.144A7.829,7.829,0,0,0,22.516,17.944ZM52.909,8.86V25.455H4V8.86A7.872,7.872,0,0,1,11.86,1H45.049A7.861,7.861,0,0,1,52.909,8.86ZM41.555,21.088v-5.24H37.189V9.734H32.822v3.494H28.455v7.86Z" transform="translate(-4 -1)" fill="#e6e6e6"/>
        <path id="Path_901377" data-name="Path 901377" d="M25.86,13.86a7.829,7.829,0,0,1-1.572,4.716L18,13.86V6A7.861,7.861,0,0,1,25.86,13.86Z" transform="translate(-5.773 -1.633)" fill="#d74c4c"/>
        <path id="Path_901378" data-name="Path 901378" d="M16.86,13.86l6.288,4.716A7.86,7.86,0,1,1,16.86,6Z" transform="translate(-4.633 -1.633)" fill="#ea9939"/>
      </g>
      <g id="Group_1113146" data-name="Group 1113146" transform="translate(3)">
        <ellipse id="Ellipse_11833" data-name="Ellipse 11833" cx="0.5" cy="1" rx="0.5" ry="1" transform="translate(42.328 37.948)" fill="#252525"/>
        <ellipse id="Ellipse_11834" data-name="Ellipse 11834" cx="0.5" cy="1" rx="0.5" ry="1" transform="translate(7.328 37.948)" fill="#252525"/>
        <circle id="Ellipse_11835" data-name="Ellipse 11835" cx="1.5" cy="1.5" r="1.5" transform="translate(24.328 3.948)" fill="#252525"/>
        <circle id="Ellipse_11836" data-name="Ellipse 11836" cx="1.5" cy="1.5" r="1.5" transform="translate(28.328 3.948)" fill="#252525"/>
        <circle id="Ellipse_11837" data-name="Ellipse 11837" cx="1.5" cy="1.5" r="1.5" transform="translate(22.328 44.948)" fill="#252525"/>
        <circle id="Ellipse_11838" data-name="Ellipse 11838" cx="1.5" cy="1.5" r="1.5" transform="translate(36.328 47.948)" fill="#252525"/>
        <path id="Path_901379" data-name="Path 901379" d="M36.775,37.528a10.7,10.7,0,0,0-15.882,0L8.369,51.372A5.287,5.287,0,0,0,7,54.918,5.287,5.287,0,0,0,12.284,60.2h33.1A5.283,5.283,0,0,0,49.3,51.37L36.776,37.528Zm8.61,20.926h-33.1a3.54,3.54,0,0,1-3.537-3.536,3.544,3.544,0,0,1,.919-2.376L22.189,38.7a8.954,8.954,0,0,1,13.291,0L48,52.542a3.536,3.536,0,0,1-2.618,5.914Z" transform="translate(-3.506 -4.305)" fill="#252525"/>
        <path id="Path_901380" data-name="Path 901380" d="M44.922,0H11.734A8.746,8.746,0,0,0,3,8.734V32.315a.87.87,0,0,0,.256.617L7.623,37.3a.914.914,0,0,0,1.235,0,.867.867,0,0,0,0-1.235L4.747,31.954V26.2H51.909v5.752L47.8,36.065a.872.872,0,0,0,0,1.235.78.78,0,0,0,1.235,0L53.4,32.933a.871.871,0,0,0,.256-.617V8.734A8.744,8.744,0,0,0,44.922,0ZM4.747,8.734a7,7,0,0,1,6.987-6.987H44.922a7,7,0,0,1,6.987,6.987V24.455H4.747Z" transform="translate(-3)" fill="#252525"/>
        <path id="Path_901381" data-name="Path 901381" d="M16.734,5a8.734,8.734,0,1,0,8.734,8.734A8.744,8.744,0,0,0,16.734,5ZM9.747,13.734A6.994,6.994,0,0,1,15.86,6.807v6.927a.874.874,0,0,0,.349.7l5.544,4.158A6.985,6.985,0,0,1,9.748,13.734Zm13.045,3.452L17.607,13.3V6.807a6.956,6.956,0,0,1,5.184,10.378Z" transform="translate(-3.633 -0.633)" fill="#252525"/>
        <path id="Path_901382" data-name="Path 901382" d="M44.974,16.114H41.481v-5.24A.873.873,0,0,0,40.607,10H36.24a.873.873,0,0,0-.873.873v2.62H31.873a.873.873,0,0,0-.873.873v7.86a.873.873,0,0,0,.873.873h13.1a.873.873,0,0,0,.873-.873v-5.24A.873.873,0,0,0,44.974,16.114Zm-7.86-4.367h2.62v9.607h-2.62ZM32.747,15.24h2.62v6.114h-2.62ZM44.1,21.354h-2.62V17.86H44.1Z" transform="translate(-6.545 -1.266)" fill="#252525"/>
        <path id="Path_901383" data-name="Path 901383" d="M44.873,7.747H51.86A.873.873,0,0,0,51.86,6H44.873a.873.873,0,1,0,0,1.747Z" transform="translate(-8.191 -0.76)" fill="#252525"/>
        <path id="Path_901384" data-name="Path 901384" d="M54.367,11H50.873a.873.873,0,0,0,0,1.747h3.494a.873.873,0,1,0,0-1.747Z" transform="translate(-8.951 -1.393)" fill="#252525"/>
        <path id="Path_901385" data-name="Path 901385" d="M54.367,15H50.873a.873.873,0,0,0,0,1.747h3.494a.873.873,0,1,0,0-1.747Z" transform="translate(-8.951 -1.899)" fill="#252525"/>
        <path id="Path_901386" data-name="Path 901386" d="M54.367,19H50.873a.873.873,0,0,0,0,1.747h3.494a.873.873,0,1,0,0-1.747Z" transform="translate(-8.951 -2.406)" fill="#252525"/>
        <path id="Path_901387" data-name="Path 901387" d="M21.057,52a3.057,3.057,0,1,0,0,6.114.873.873,0,1,0,0-1.747,1.31,1.31,0,1,1,1.31-1.31.873.873,0,0,0,1.747,0A3.06,3.06,0,0,0,21.057,52Z" transform="translate(-4.899 -6.584)" fill="#252525"/>
        <path id="Path_901388" data-name="Path 901388" d="M39.057,47A3.06,3.06,0,0,0,36,50.057a.873.873,0,0,0,1.747,0,1.31,1.31,0,1,1,1.31,1.31.873.873,0,0,0,0,1.747,3.057,3.057,0,1,0,0-6.114Z" transform="translate(-7.178 -5.951)" fill="#252525"/>
        <path id="Path_901389" data-name="Path 901389" d="M30.62,41A2.623,2.623,0,0,0,28,43.62a.873.873,0,1,0,1.747,0,.873.873,0,1,1,1.747,0,.873.873,0,1,0,1.747,0A2.623,2.623,0,0,0,30.62,41Z" transform="translate(-6.165 -5.191)" fill="#252525"/>
      </g>
    </g>
  </g>
</svg>
