<svg xmlns="http://www.w3.org/2000/svg" xmlns:xlink="http://www.w3.org/1999/xlink" width="108.914" height="108.914" viewBox="0 0 108.914 108.914">
  <defs>
    <filter id="Path_874925" x="0" y="0" width="108.914" height="108.914" filterUnits="userSpaceOnUse">
      <feOffset dy="3" input="SourceAlpha"/>
      <feGaussianBlur stdDeviation="3" result="blur"/>
      <feFlood flood-opacity="0.161"/>
      <feComposite operator="in" in2="blur"/>
      <feComposite in="SourceGraphic"/>
    </filter>
  </defs>
  <g id="Group_1113153" data-name="Group 1113153" transform="translate(6042 3190)">
    <g id="Group_1111492" data-name="Group 1111492" transform="translate(-6841.5 -5136.211)">
      <g id="Group_1107913" data-name="Group 1107913" transform="translate(808.5 1952.211)">
        <g transform="matrix(1, 0, 0, 1, -9, -6)" filter="url(#Path_874925)">
          <g id="Path_874925-2" data-name="Path 874925" transform="translate(9 6)" fill="#f3d82a" opacity="0.859">
            <path d="M 45.45676803588867 89.41407012939453 C 39.52198028564453 89.41407012939453 33.76551818847656 88.25206756591797 28.34726715087891 85.96034240722656 C 23.11311721801758 83.74648284912109 18.41204261779785 80.57682800292969 14.37464332580566 76.5394287109375 C 10.33724308013916 72.50202941894531 7.167593002319336 67.80095672607422 4.953730583190918 62.56679534912109 C 2.662005424499512 57.14855575561523 1.500005483627319 51.39208221435547 1.500005483627319 45.45729446411133 C 1.500005483627319 39.52198028564453 2.662005424499512 33.76551818847656 4.953730583190918 28.34726905822754 C 7.167593002319336 23.11310577392578 10.33724308013916 18.41203117370605 14.37464332580566 14.37464332580566 C 18.41204261779785 10.33724403381348 23.11311721801758 7.167593955993652 28.34726715087891 4.953731060028076 C 33.76551818847656 2.662006139755249 39.52198028564453 1.500006198883057 45.45676803588867 1.500006198883057 C 51.39155578613281 1.500006198883057 57.14802932739258 2.662006139755249 62.56626892089844 4.953731060028076 C 67.80043029785156 7.167593955993652 72.50150299072266 10.33724403381348 76.53890228271484 14.37464332580566 C 80.57630920410156 18.41203117370605 83.74595642089844 23.11310577392578 85.95981597900391 28.34726905822754 C 88.25154113769531 33.76551818847656 89.41354370117188 39.52198028564453 89.41354370117188 45.45676803588867 C 89.41354370117188 51.39208221435547 88.25154113769531 57.14855575561523 85.95981597900391 62.56679534912109 C 83.74595642089844 67.80095672607422 80.57630920410156 72.50202941894531 76.53890228271484 76.5394287109375 C 72.50150299072266 80.57682800292969 67.80043029785156 83.74648284912109 62.56626892089844 85.96034240722656 C 57.14802932739258 88.25206756591797 51.39155578613281 89.41407012939453 45.45676803588867 89.41407012939453 Z" stroke="none"/>
            <path d="M 45.45676803588867 3 C 39.72381210327148 3 34.1639404296875 4.12213134765625 28.93159484863281 6.335227966308594 C 23.87622833251953 8.473472595214844 19.33542633056641 11.53517150878906 15.43529510498047 15.435302734375 C 11.53517150878906 19.33543395996094 8.473464965820312 23.87622833251953 6.335227966308594 28.93160247802734 C 4.122123718261719 34.16394424438477 3 39.72381591796875 3 45.4572868347168 C 3 51.19024658203125 4.122123718261719 56.75011825561523 6.335227966308594 61.98246002197266 C 8.473464965820312 67.03782653808594 11.53517150878906 71.57862854003906 15.43529510498047 75.478759765625 C 19.33542633056641 79.37889099121094 23.87622833251953 82.44058990478516 28.93159484863281 84.57883453369141 C 34.1639404296875 86.79193115234375 39.72381210327148 87.9140625 45.45676803588867 87.9140625 C 51.18972396850586 87.9140625 56.74959564208984 86.79193115234375 61.98194122314453 84.57883453369141 C 67.03730773925781 82.44058990478516 71.57810974121094 79.37889099121094 75.47824096679688 75.478759765625 C 79.37837219238281 71.57862854003906 82.44007110595703 67.03782653808594 84.57830810546875 61.98246002197266 C 86.79141235351562 56.75011825561523 87.91353607177734 51.19024658203125 87.91353607177734 45.4567756652832 C 87.91353607177734 39.72381591796875 86.79141235351562 34.16394424438477 84.57830810546875 28.93160247802734 C 82.44007110595703 23.87622833251953 79.37837219238281 19.33543395996094 75.47824096679688 15.435302734375 C 71.57810974121094 11.53517150878906 67.03730773925781 8.473472595214844 61.98194122314453 6.335227966308594 C 56.74959564208984 4.12213134765625 51.18972396850586 3 45.45676803588867 3 M 45.45676803588867 0 C 70.56185150146484 0 90.91353607177734 20.35169219970703 90.91353607177734 45.4567756652832 L 90.91353607177734 45.4572868347168 C 90.91353607177734 70.5623779296875 70.56185150146484 90.9140625 45.45676803588867 90.9140625 C 20.3516845703125 90.9140625 0 70.5623779296875 0 45.4572868347168 L 0 45.4567756652832 C 0 20.35169219970703 20.3516845703125 0 45.45676803588867 0 Z" stroke="none" fill="#fff"/>
          </g>
        </g>
        <g id="Path_874923" data-name="Path 874923" transform="translate(0 0)" fill="none">
          <path d="M45.457,0A45.457,45.457,0,0,1,90.914,45.457h0A45.457,45.457,0,0,1,0,45.457H0A45.457,45.457,0,0,1,45.457,0Z" stroke="none"/>
          <path d="M 45.45676803588867 3 C 39.72381210327148 3 34.1639404296875 4.12213134765625 28.93159484863281 6.335227966308594 C 23.87622833251953 8.473472595214844 19.33542633056641 11.53517150878906 15.43529510498047 15.435302734375 C 11.53517150878906 19.33543395996094 8.473464965820312 23.87622833251953 6.335227966308594 28.93160247802734 C 4.122123718261719 34.16394424438477 3 39.72381591796875 3 45.4572868347168 C 3 51.19024658203125 4.122123718261719 56.75011825561523 6.335227966308594 61.98246002197266 C 8.473464965820312 67.03782653808594 11.53517150878906 71.57862854003906 15.43529510498047 75.478759765625 C 19.33542633056641 79.37889099121094 23.87622833251953 82.44058990478516 28.93159484863281 84.57883453369141 C 34.1639404296875 86.79193115234375 39.72381210327148 87.9140625 45.45676803588867 87.9140625 C 51.18972396850586 87.9140625 56.74959564208984 86.79193115234375 61.98194122314453 84.57883453369141 C 67.03730773925781 82.44058990478516 71.57810974121094 79.37889099121094 75.47824096679688 75.478759765625 C 79.37837219238281 71.57862854003906 82.44007110595703 67.03782653808594 84.57830810546875 61.98246002197266 C 86.79141235351562 56.75011825561523 87.91353607177734 51.19024658203125 87.91353607177734 45.4567756652832 C 87.91353607177734 39.72381591796875 86.79141235351562 34.16394424438477 84.57830810546875 28.93160247802734 C 82.44007110595703 23.87622833251953 79.37837219238281 19.33543395996094 75.47824096679688 15.435302734375 C 71.57810974121094 11.53517150878906 67.03730773925781 8.473472595214844 61.98194122314453 6.335227966308594 C 56.74959564208984 4.12213134765625 51.18972396850586 3 45.45676803588867 3 M 45.45676803588867 0 C 70.56185150146484 0 90.91353607177734 20.35169219970703 90.91353607177734 45.4567756652832 L 90.91353607177734 45.4572868347168 C 90.91353607177734 70.5623779296875 70.56185150146484 90.9140625 45.45676803588867 90.9140625 C 20.3516845703125 90.9140625 0 70.5623779296875 0 45.4572868347168 L 0 45.4567756652832 C 0 20.35169219970703 20.3516845703125 0 45.45676803588867 0 Z" stroke="none" fill="#fff"/>
        </g>
      </g>
    </g>
    <g id="Group_1113152" data-name="Group 1113152" transform="translate(-6019 -3217.065)">
      <path id="Path_901390" data-name="Path 901390" d="M265.362,94.235a4.672,4.672,0,0,1-2.74,4.255l-24.537,11.117a4.671,4.671,0,1,1-3.863-8.505l24.537-11.117a4.673,4.673,0,0,1,6.6,4.25Z" transform="translate(-202.745 -31.969)" fill="#898890"/>
      <path id="Path_901391" data-name="Path 901391" d="M262.417,90.757a4.672,4.672,0,0,1-2.74,4.255l-24.537,11.117a4.654,4.654,0,0,1-3.569.121,4.666,4.666,0,0,1,2.653-5.148L258.76,89.985a4.654,4.654,0,0,1,3.569-.121A4.647,4.647,0,0,1,262.417,90.757Z" transform="translate(-202.746 -31.969)" fill="#acabb1"/>
      <path id="Path_901392" data-name="Path 901392" d="M57.087,72.289,19.615,89.2l-1.784.806a4.222,4.222,0,0,1,.369-7.02,1.256,1.256,0,0,0,.625-1.086v-.014a11.767,11.767,0,0,1,1.846-6.345,1.234,1.234,0,0,0-.193-1.556A5.4,5.4,0,0,1,26.893,65.4a1.222,1.222,0,0,0,1.553-.309,11.814,11.814,0,0,1,18.448.042,1.222,1.222,0,0,0,1.552.3,5.989,5.989,0,0,1,8.641,6.857Z" transform="translate(-14.127 -6.671)" fill="#663a00"/>
      <path id="Path_901393" data-name="Path 901393" d="M81.138,97.586,43.666,114.5a4.224,4.224,0,0,1,1.994-4.437,1.259,1.259,0,0,0,.625-1.086v-.015a11.762,11.762,0,0,1,1.846-6.343,1.234,1.234,0,0,0-.193-1.556,5.4,5.4,0,0,1,6.415-8.585,1.222,1.222,0,0,0,1.553-.309c2.165-2.691,4.859-2.6,7.282-2.6a13.926,13.926,0,0,1,9.241,4.455,1.223,1.223,0,0,0,1.552.3c.888-.487,3.837-2.564,4.925-2.542a5.666,5.666,0,0,1,.778.068,5.97,5.97,0,0,1,1.455,5.744Z" transform="translate(-38.177 -31.968)" fill="#884d00"/>
      <g id="Group_1113149" data-name="Group 1113149" transform="translate(0.408 90.77)">
        <path id="Path_901394" data-name="Path 901394" d="M8.107,359.182A2.411,2.411,0,1,1,5.7,356.77,2.408,2.408,0,0,1,8.107,359.182Z" transform="translate(-3.284 -356.77)" fill="#663a00"/>
        <path id="Path_901395" data-name="Path 901395" d="M68.709,386.612a2.655,2.655,0,0,1-5.048-.717.167.167,0,0,0-.183-.143,2.411,2.411,0,0,1-1.172-4.631,2.23,2.23,0,0,1,.26-.088,2.41,2.41,0,0,1,2.989,1.752.17.17,0,0,0,.2.125l.077-.015a2.66,2.66,0,0,1,3.1,2.309A2.609,2.609,0,0,1,68.709,386.612Z" transform="translate(-53.659 -377.943)" fill="#663a00"/>
      </g>
      <path id="Path_901396" data-name="Path 901396" d="M56.718,139.445v9.375a12.616,12.616,0,0,1-1.068,5.11,11.24,11.24,0,0,1-10.194,6.9H13.313c-3,0-4.048-4.25-1.434-5.823l1.63-.736,38.857-17.535A2.925,2.925,0,0,1,56.718,139.445Z" transform="translate(-9.1 -72.926)" fill="#acabb1"/>
      <path id="Path_901397" data-name="Path 901397" d="M78.723,139.445v9.375a12.616,12.616,0,0,1-1.068,5.11,10.8,10.8,0,0,1-7.159,2.736H38.353a2.907,2.907,0,0,1-2.84-2.4L74.37,136.734A2.925,2.925,0,0,1,78.723,139.445Z" transform="translate(-31.104 -72.926)" fill="#c6c5ca"/>
      <path id="Path_901398" data-name="Path 901398" d="M25.722,428.552a1.534,1.534,0,0,1-.01.17,1.5,1.5,0,1,1,.01-.17Z" transform="translate(-19.89 -327.552)" fill="#663a00"/>
      <g id="Group_1113150" data-name="Group 1113150" transform="translate(1.733 90.77)">
        <path id="Path_901399" data-name="Path 901399" d="M17.46,359.182a2.408,2.408,0,0,1-.177.908,2.412,2.412,0,0,1-3.144-3.141,2.411,2.411,0,0,1,3.321,2.234Z" transform="translate(-13.962 -356.77)" fill="#884d00"/>
        <path id="Path_901400" data-name="Path 901400" d="M78.063,386.612a2.7,2.7,0,0,1-.533.176,2.658,2.658,0,0,1-3.189-2.218.167.167,0,0,0-.183-.143,2.41,2.41,0,0,1-2.676-2.307,2.36,2.36,0,0,1,.178-1,2.242,2.242,0,0,1,.26-.088,2.41,2.41,0,0,1,2.989,1.753.17.17,0,0,0,.2.125l.077-.015a2.66,2.66,0,0,1,3.1,2.309A2.609,2.609,0,0,1,78.063,386.612Z" transform="translate(-64.339 -377.942)" fill="#884d00"/>
        <path id="Path_901401" data-name="Path 901401" d="M35.075,428.552a1.534,1.534,0,0,1-.01.17,1.5,1.5,0,0,1-1.677-1.5,1.531,1.531,0,0,1,.01-.17,1.5,1.5,0,0,1,1.677,1.5Z" transform="translate(-30.976 -418.321)" fill="#884d00"/>
      </g>
      <g id="Group_1113151" data-name="Group 1113151" transform="translate(11.182 59.624)">
        <circle id="Ellipse_11839" data-name="Ellipse 11839" cx="0.947" cy="0.947" r="0.947" transform="translate(1.831 6.309)" fill="#663a00"/>
        <circle id="Ellipse_11840" data-name="Ellipse 11840" cx="0.947" cy="0.947" r="0.947" transform="translate(0 11.866)" fill="#663a00"/>
        <circle id="Ellipse_11841" data-name="Ellipse 11841" cx="0.947" cy="0.947" r="0.947" transform="translate(5.807 11.34)" fill="#663a00"/>
        <circle id="Ellipse_11842" data-name="Ellipse 11842" cx="0.947" cy="0.947" r="0.947" transform="translate(14.204 3.778)" fill="#663a00"/>
        <circle id="Ellipse_11843" data-name="Ellipse 11843" cx="0.947" cy="0.947" r="0.947" transform="translate(18.245 5.672)" fill="#663a00"/>
        <circle id="Ellipse_11844" data-name="Ellipse 11844" cx="0.947" cy="0.947" r="0.947" transform="translate(25.211 2.831)" fill="#663a00"/>
        <circle id="Ellipse_11845" data-name="Ellipse 11845" cx="0.947" cy="0.947" r="0.947" transform="translate(8.292 3.778)" fill="#663a00"/>
        <circle id="Ellipse_11846" data-name="Ellipse 11846" cx="0.947" cy="0.947" r="0.947" transform="translate(11.658)" fill="#663a00"/>
      </g>
      <path id="Path_901402" data-name="Path 901402" d="M58.05,57.153,46.37,62.445a6.939,6.939,0,0,0-10.3-4.39,12.763,12.763,0,0,0-20.222-.032,6.351,6.351,0,0,0-9.574,4.265.947.947,0,1,0,1.864.338,4.456,4.456,0,0,1,7.3-2.559.949.949,0,0,0,1.414-.194,10.871,10.871,0,0,1,18.193.011.947.947,0,0,0,1.39.217,4.977,4.977,0,0,1,3.175-1.128A5.049,5.049,0,0,1,44.6,63.247l-6.324,2.866-.062.03h0L30.36,69.687a.947.947,0,0,0,.779,1.726C47.9,63.833,46.6,64.349,47.121,64.349A2.079,2.079,0,0,1,49.1,66.518v9.375c0,6.1-4.628,11.062-10.316,11.062H6.638c-2.025,0-2.731-2.939-.99-4.038l22.039-9.946a.947.947,0,0,0-.779-1.726L5.513,80.9a3.29,3.29,0,0,1,1.973-4.014.946.946,0,0,0,.607-.947,10.783,10.783,0,0,1,2.258-7.386.944.944,0,0,0,.186-.74c-.135-.8-1-.652-1.879-2.17a.947.947,0,1,0-1.641.943A6.408,6.408,0,0,0,8.3,68.165,12.639,12.639,0,0,0,6.178,75.41a5.173,5.173,0,0,0-2.3,6.52c-2.325,2.4-.806,6.919,2.759,6.919H38.781c6.732,0,12.21-5.812,12.21-12.956V72.685l11.7-5.3A5.617,5.617,0,1,0,58.05,57.153Zm3.862,8.5L50.99,70.607V66.518a4.121,4.121,0,0,0-1.662-3.335c9.669-4.269,9.648-4.64,11.039-4.64a3.724,3.724,0,0,1,1.544,7.114Z" transform="translate(-2.425)"/>
      <path id="Path_901403" data-name="Path 901403" d="M6.178,352.495A3.363,3.363,0,0,0,.7,349.889a.947.947,0,1,0,1.2,1.469,1.465,1.465,0,1,1-.214,2.059.947.947,0,1,0-1.47,1.194,3.359,3.359,0,0,0,5.966-2.117Z" transform="translate(0 -259.314)"/>
      <path id="Path_901404" data-name="Path 901404" d="M59.545,375.245a3.359,3.359,0,1,0-3.357,4.791,3.606,3.606,0,1,0,3.357-4.791ZM61,379.834a1.715,1.715,0,0,1-3.108-.846.947.947,0,0,0-1.122-.853,1.464,1.464,0,1,1,1.19-1.694.947.947,0,0,0,1.184.76A1.713,1.713,0,0,1,61,379.834Z" transform="translate(-46.555 -280.511)"/>
      <path id="Path_901405" data-name="Path 901405" d="M17.536,419.415a2.453,2.453,0,1,0,2.453,2.453A2.456,2.456,0,0,0,17.536,419.415Zm0,3.012a.559.559,0,1,1,.559-.559A.56.56,0,0,1,17.536,422.427Z" transform="translate(-13.21 -320.868)"/>
    </g>
  </g>
</svg>
