<svg xmlns="http://www.w3.org/2000/svg" xmlns:xlink="http://www.w3.org/1999/xlink" width="108.914" height="108.914" viewBox="0 0 108.914 108.914">
  <defs>
    <filter id="Path_874925" x="0" y="0" width="108.914" height="108.914" filterUnits="userSpaceOnUse">
      <feOffset dy="3" input="SourceAlpha"/>
      <feGaussianBlur stdDeviation="3" result="blur"/>
      <feFlood flood-opacity="0.161"/>
      <feComposite operator="in" in2="blur"/>
      <feComposite in="SourceGraphic"/>
    </filter>
  </defs>
  <g id="Group_1113139" data-name="Group 1113139" transform="translate(-795.086 -8418.05)">
    <g id="Group_1109835" data-name="Group 1109835" transform="translate(-4.414 6471.839)">
      <g id="Group_1107913" data-name="Group 1107913" transform="translate(808.5 1952.211)">
        <g transform="matrix(1, 0, 0, 1, -9, -6)" filter="url(#Path_874925)">
          <g id="Path_874925-2" data-name="Path 874925" transform="translate(9 6)" fill="#f3d82a" opacity="0.859">
            <path d="M 45.45676803588867 89.41407012939453 C 39.52198028564453 89.41407012939453 33.76551818847656 88.25206756591797 28.34726715087891 85.96034240722656 C 23.11311721801758 83.74648284912109 18.41204261779785 80.57682800292969 14.37464332580566 76.5394287109375 C 10.33724308013916 72.50202941894531 7.167593002319336 67.80095672607422 4.953730583190918 62.56679534912109 C 2.662005424499512 57.14855575561523 1.500005483627319 51.39208221435547 1.500005483627319 45.45729446411133 C 1.500005483627319 39.52198028564453 2.662005424499512 33.76551818847656 4.953730583190918 28.34726905822754 C 7.167593002319336 23.11310577392578 10.33724308013916 18.41203117370605 14.37464332580566 14.37464332580566 C 18.41204261779785 10.33724403381348 23.11311721801758 7.167593955993652 28.34726715087891 4.953731060028076 C 33.76551818847656 2.662006139755249 39.52198028564453 1.500006198883057 45.45676803588867 1.500006198883057 C 51.39155578613281 1.500006198883057 57.14802932739258 2.662006139755249 62.56626892089844 4.953731060028076 C 67.80043029785156 7.167593955993652 72.50150299072266 10.33724403381348 76.53890228271484 14.37464332580566 C 80.57630920410156 18.41203117370605 83.74595642089844 23.11310577392578 85.95981597900391 28.34726905822754 C 88.25154113769531 33.76551818847656 89.41354370117188 39.52198028564453 89.41354370117188 45.45676803588867 C 89.41354370117188 51.39208221435547 88.25154113769531 57.14855575561523 85.95981597900391 62.56679534912109 C 83.74595642089844 67.80095672607422 80.57630920410156 72.50202941894531 76.53890228271484 76.5394287109375 C 72.50150299072266 80.57682800292969 67.80043029785156 83.74648284912109 62.56626892089844 85.96034240722656 C 57.14802932739258 88.25206756591797 51.39155578613281 89.41407012939453 45.45676803588867 89.41407012939453 Z" stroke="none"/>
            <path d="M 45.45676803588867 3 C 39.72381210327148 3 34.1639404296875 4.12213134765625 28.93159484863281 6.335227966308594 C 23.87622833251953 8.473472595214844 19.33542633056641 11.53517150878906 15.43529510498047 15.435302734375 C 11.53517150878906 19.33543395996094 8.473464965820312 23.87622833251953 6.335227966308594 28.93160247802734 C 4.122123718261719 34.16394424438477 3 39.72381591796875 3 45.4572868347168 C 3 51.19024658203125 4.122123718261719 56.75011825561523 6.335227966308594 61.98246002197266 C 8.473464965820312 67.03782653808594 11.53517150878906 71.57862854003906 15.43529510498047 75.478759765625 C 19.33542633056641 79.37889099121094 23.87622833251953 82.44058990478516 28.93159484863281 84.57883453369141 C 34.1639404296875 86.79193115234375 39.72381210327148 87.9140625 45.45676803588867 87.9140625 C 51.18972396850586 87.9140625 56.74959564208984 86.79193115234375 61.98194122314453 84.57883453369141 C 67.03730773925781 82.44058990478516 71.57810974121094 79.37889099121094 75.47824096679688 75.478759765625 C 79.37837219238281 71.57862854003906 82.44007110595703 67.03782653808594 84.57830810546875 61.98246002197266 C 86.79141235351562 56.75011825561523 87.91353607177734 51.19024658203125 87.91353607177734 45.4567756652832 C 87.91353607177734 39.72381591796875 86.79141235351562 34.16394424438477 84.57830810546875 28.93160247802734 C 82.44007110595703 23.87622833251953 79.37837219238281 19.33543395996094 75.47824096679688 15.435302734375 C 71.57810974121094 11.53517150878906 67.03730773925781 8.473472595214844 61.98194122314453 6.335227966308594 C 56.74959564208984 4.12213134765625 51.18972396850586 3 45.45676803588867 3 M 45.45676803588867 0 C 70.56185150146484 0 90.91353607177734 20.35169219970703 90.91353607177734 45.4567756652832 L 90.91353607177734 45.4572868347168 C 90.91353607177734 70.5623779296875 70.56185150146484 90.9140625 45.45676803588867 90.9140625 C 20.3516845703125 90.9140625 0 70.5623779296875 0 45.4572868347168 L 0 45.4567756652832 C 0 20.35169219970703 20.3516845703125 0 45.45676803588867 0 Z" stroke="none" fill="#fff"/>
          </g>
        </g>
        <g id="Path_874923" data-name="Path 874923" transform="translate(0 0)" fill="none">
          <path d="M45.457,0A45.457,45.457,0,0,1,90.914,45.457h0A45.457,45.457,0,0,1,0,45.457H0A45.457,45.457,0,0,1,45.457,0Z" stroke="none"/>
          <path d="M 45.45676803588867 3 C 39.72381210327148 3 34.1639404296875 4.12213134765625 28.93159484863281 6.335227966308594 C 23.87622833251953 8.473472595214844 19.33542633056641 11.53517150878906 15.43529510498047 15.435302734375 C 11.53517150878906 19.33543395996094 8.473464965820312 23.87622833251953 6.335227966308594 28.93160247802734 C 4.122123718261719 34.16394424438477 3 39.72381591796875 3 45.4572868347168 C 3 51.19024658203125 4.122123718261719 56.75011825561523 6.335227966308594 61.98246002197266 C 8.473464965820312 67.03782653808594 11.53517150878906 71.57862854003906 15.43529510498047 75.478759765625 C 19.33542633056641 79.37889099121094 23.87622833251953 82.44058990478516 28.93159484863281 84.57883453369141 C 34.1639404296875 86.79193115234375 39.72381210327148 87.9140625 45.45676803588867 87.9140625 C 51.18972396850586 87.9140625 56.74959564208984 86.79193115234375 61.98194122314453 84.57883453369141 C 67.03730773925781 82.44058990478516 71.57810974121094 79.37889099121094 75.47824096679688 75.478759765625 C 79.37837219238281 71.57862854003906 82.44007110595703 67.03782653808594 84.57830810546875 61.98246002197266 C 86.79141235351562 56.75011825561523 87.91353607177734 51.19024658203125 87.91353607177734 45.4567756652832 C 87.91353607177734 39.72381591796875 86.79141235351562 34.16394424438477 84.57830810546875 28.93160247802734 C 82.44007110595703 23.87622833251953 79.37837219238281 19.33543395996094 75.47824096679688 15.435302734375 C 71.57810974121094 11.53517150878906 67.03730773925781 8.473472595214844 61.98194122314453 6.335227966308594 C 56.74959564208984 4.12213134765625 51.18972396850586 3 45.45676803588867 3 M 45.45676803588867 0 C 70.56185150146484 0 90.91353607177734 20.35169219970703 90.91353607177734 45.4567756652832 L 90.91353607177734 45.4572868347168 C 90.91353607177734 70.5623779296875 70.56185150146484 90.9140625 45.45676803588867 90.9140625 C 20.3516845703125 90.9140625 0 70.5623779296875 0 45.4572868347168 L 0 45.4567756652832 C 0 20.35169219970703 20.3516845703125 0 45.45676803588867 0 Z" stroke="none" fill="#fff"/>
        </g>
      </g>
    </g>
    <g id="Group_1113138" data-name="Group 1113138" transform="translate(797.242 8442.761)">
      <g id="Group_1113136" data-name="Group 1113136" transform="translate(29.063 0.529)">
        <path id="Path_901332" data-name="Path 901332" d="M65.5,230.182,53.976,241.745a.461.461,0,0,0,.326.786H84.321a1.037,1.037,0,0,0,.735-.305L96.58,230.663a.461.461,0,0,0-.326-.787H66.235A1.038,1.038,0,0,0,65.5,230.182Z" transform="translate(-51.724 -206.389)" fill="#ffa78f"/>
        <circle id="Ellipse_11820" data-name="Ellipse 11820" cx="2.703" cy="2.703" r="2.703" transform="translate(20.002 27.622)" fill="#f89580"/>
        <path id="Path_901333" data-name="Path 901333" d="M328.854,229.877h-3.343a.461.461,0,0,1,.326.787l-11.524,11.563a1.037,1.037,0,0,1-.735.305h3.343a1.037,1.037,0,0,0,.735-.305l11.524-11.563a.461.461,0,0,0-.326-.786Z" transform="translate(-284.326 -206.389)" fill="#f89580"/>
        <path id="Path_901334" data-name="Path 901334" d="M65.5,163.992,53.976,175.555a.461.461,0,0,0,.326.786H84.321a1.037,1.037,0,0,0,.735-.305L96.58,164.473a.461.461,0,0,0-.326-.786H66.235A1.038,1.038,0,0,0,65.5,163.992Z" transform="translate(-51.724 -147.114)" fill="#e8ad8c"/>
        <path id="Path_901335" data-name="Path 901335" d="M328.854,163.687h-3.343a.461.461,0,0,1,.326.787l-11.524,11.563a1.037,1.037,0,0,1-.735.305h3.343a1.037,1.037,0,0,0,.735-.305l11.524-11.563A.461.461,0,0,0,328.854,163.687Z" transform="translate(-284.326 -147.114)" fill="#e19974"/>
        <path id="Path_901336" data-name="Path 901336" d="M65.5,97.8,53.976,109.365a.461.461,0,0,0,.326.787H84.321a1.037,1.037,0,0,0,.735-.305L96.58,98.284a.461.461,0,0,0-.326-.787H66.235A1.038,1.038,0,0,0,65.5,97.8Z" transform="translate(-51.724 -87.84)" fill="#68ca44"/>
        <path id="Path_901337" data-name="Path 901337" d="M328.854,97.5h-3.343a.461.461,0,0,1,.326.787l-11.524,11.563a1.037,1.037,0,0,1-.735.305h3.343a1.037,1.037,0,0,0,.735-.305l11.524-11.563A.461.461,0,0,0,328.854,97.5Z" transform="translate(-284.326 -87.84)" fill="#4fc123"/>
        <circle id="Ellipse_11821" data-name="Ellipse 11821" cx="1.738" cy="1.738" r="1.738" transform="matrix(0.987, -0.16, 0.16, 0.987, 0, 0.556)" fill="#2ed1e2"/>
        <circle id="Ellipse_11822" data-name="Ellipse 11822" cx="1.738" cy="1.738" r="1.738" transform="matrix(0.987, -0.16, 0.16, 0.987, 40.171, 40.063)" fill="#ffe177"/>
        <path id="Path_901338" data-name="Path 901338" d="M144.5,317.87c-1.608,0-2.912.941-2.912,2.1a1.794,1.794,0,0,0,.693,1.36h4.439a1.794,1.794,0,0,0,.693-1.36C147.41,318.811,146.106,317.87,144.5,317.87Z" transform="translate(-130.302 -285.189)" fill="#f89580"/>
      </g>
      <g id="Group_1113137" data-name="Group 1113137" transform="translate(28.536 0)">
        <path id="Path_901339" data-name="Path 901339" d="M29.32,69.994h3.464a.784.784,0,0,0,0-1.567H29.32a.784.784,0,0,0,0,1.567Z" transform="translate(-28.536 -61.278)"/>
        <path id="Path_901340" data-name="Path 901340" d="M29.32,99.959H35.1a.784.784,0,0,0,0-1.567H29.32a.784.784,0,1,0,0,1.567Z" transform="translate(-28.536 -88.112)"/>
        <path id="Path_901341" data-name="Path 901341" d="M35.884,129.141a.784.784,0,0,0-.784-.784H29.32a.784.784,0,1,0,0,1.567H35.1A.784.784,0,0,0,35.884,129.141Z" transform="translate(-28.536 -114.947)"/>
        <path id="Path_901342" data-name="Path 901342" d="M71.239,44.546a2.521,2.521,0,1,0-2.4-3.305H63.468l-3.786-3.786H61.66a1.831,1.831,0,0,0,1.289-.535l2.343-2.351a.784.784,0,1,0-1.11-1.106l-2.344,2.351a.25.25,0,0,1-.179.074H58.115l-1.91-1.91A.784.784,0,1,0,55.1,35.085l.8.8H46.882a2.325,2.325,0,0,0,.073-.575c0-1.618-1.623-2.885-3.7-2.885s-3.7,1.267-3.7,2.885a2.325,2.325,0,0,0,.073.575H32.42l5.33-5.348H48.3c-.009.1-.015.209-.015.314a3.486,3.486,0,1,0,6.972,0c0-.106-.006-.21-.015-.314H61.66A1.831,1.831,0,0,0,62.95,30l2.132-2.139.02-.018.019-.021c3.386-3.516.291-.292,3.015-3.025h4.68l-6.051,6.072a.784.784,0,0,0,1.11,1.106l6.6-6.623a1.245,1.245,0,0,0-.881-2.122H69.7l.826-.829.014-.013.014-.015,3.923-3.936a1.245,1.245,0,0,0-.881-2.122H69.7l4.777-4.793A1.245,1.245,0,0,0,73.592,9.4H60.746a.784.784,0,1,0,0,1.567h12.07L61.84,21.982a.252.252,0,0,1-.18.075H32.419L43.394,11.045a.256.256,0,0,1,.18-.075H46.7l2.142,1.919a.784.784,0,0,0,1.046-1.167l-.839-.752h8.039a.784.784,0,1,0,0-1.567H47.3L38.968,1.938a.784.784,0,0,0-.523-.2H33.453a2.521,2.521,0,1,0,0,1.567h4.692l6.807,6.1H43.574a1.834,1.834,0,0,0-1.29.535L30.76,21.5a1.245,1.245,0,0,0,.882,2.123h3.895c-1.31,1.314-3.739,3.754-4.775,4.792a1.244,1.244,0,0,0,.88,2.123h3.9l-4.776,4.792a1.244,1.244,0,0,0,.88,2.123H57.466l5.124,5.124a.783.783,0,0,0,.554.23h5.7a2.525,2.525,0,0,0,2.4,1.738ZM31.057,3.476a.954.954,0,1,1,.954-.954A.955.955,0,0,1,31.057,3.476ZM43.431,23.624l5.348,5.348h-3.23L40.2,23.624Zm5.446,0,5.348,5.348h-3.23l-5.348-5.348Zm5.445,0,5.349,5.348h-3.23l-5.348-5.348Zm-.636,7.229a1.919,1.919,0,1,1-3.809-.314h3.781A1.928,1.928,0,0,1,53.686,30.853ZM61.839,28.9l-.014.012-5.286-5.285H59.77l3.669,3.669Zm4.693-9.4,2.343,2.344-1.611,1.617L64.92,21.112Zm6.282-1.609-2.833,2.843-2.343-2.344.5-.5Zm-9,4.336,2.343,2.343-1.612,1.618L61.96,23.6a1.805,1.805,0,0,0,.99-.509Zm-25.83,1.4,5.348,5.348H40.1l-3.848-3.847,1.5-1.5h.235Zm-2.836,2.61,2.737,2.737H32.42Zm5.983,9.077c0-.7.995-1.318,2.128-1.318s2.128.616,2.128,1.318a.9.9,0,0,1-.231.575H41.362A.9.9,0,0,1,41.131,35.312ZM71.239,41.07a.954.954,0,1,1-.954.954A.955.955,0,0,1,71.239,41.07Z" transform="translate(-28.536 0)"/>
        <path id="Path_901343" data-name="Path 901343" d="M413.914,438.637h3.464a.784.784,0,1,0,0-1.567h-3.464a.784.784,0,1,0,0,1.567Z" transform="translate(-372.948 -391.406)"/>
        <path id="Path_901344" data-name="Path 901344" d="M413.13,467.819a.784.784,0,0,0,.784.784h5.781a.784.784,0,1,0,0-1.567h-5.781A.784.784,0,0,0,413.13,467.819Z" transform="translate(-372.948 -418.24)"/>
        <path id="Path_901345" data-name="Path 901345" d="M419.695,497h-5.781a.784.784,0,0,0,0,1.567h5.781a.784.784,0,1,0,0-1.567Z" transform="translate(-372.948 -445.074)"/>
      </g>
    </g>
  </g>
</svg>
