<svg xmlns="http://www.w3.org/2000/svg" xmlns:xlink="http://www.w3.org/1999/xlink" width="108.914" height="108.914" viewBox="0 0 108.914 108.914">
  <defs>
    <filter id="Path_874925" x="0" y="0" width="108.914" height="108.914" filterUnits="userSpaceOnUse">
      <feOffset dy="3" input="SourceAlpha"/>
      <feGaussianBlur stdDeviation="3" result="blur"/>
      <feFlood flood-opacity="0.161"/>
      <feComposite operator="in" in2="blur"/>
      <feComposite in="SourceGraphic"/>
    </filter>
  </defs>
  <g id="Group_1113143" data-name="Group 1113143" transform="translate(6694 3190)">
    <g id="Group_1111490" data-name="Group 1111490" transform="translate(-7493.5 -5136.211)">
      <g id="Group_1107913" data-name="Group 1107913" transform="translate(808.5 1952.211)">
        <g transform="matrix(1, 0, 0, 1, -9, -6)" filter="url(#Path_874925)">
          <g id="Path_874925-2" data-name="Path 874925" transform="translate(9 6)" fill="#f3d82a" opacity="0.859">
            <path d="M 45.45676803588867 89.41407012939453 C 39.52198028564453 89.41407012939453 33.76551818847656 88.25206756591797 28.34726715087891 85.96034240722656 C 23.11311721801758 83.74648284912109 18.41204261779785 80.57682800292969 14.37464332580566 76.5394287109375 C 10.33724308013916 72.50202941894531 7.167593002319336 67.80095672607422 4.953730583190918 62.56679534912109 C 2.662005424499512 57.14855575561523 1.500005483627319 51.39208221435547 1.500005483627319 45.45729446411133 C 1.500005483627319 39.52198028564453 2.662005424499512 33.76551818847656 4.953730583190918 28.34726905822754 C 7.167593002319336 23.11310577392578 10.33724308013916 18.41203117370605 14.37464332580566 14.37464332580566 C 18.41204261779785 10.33724403381348 23.11311721801758 7.167593955993652 28.34726715087891 4.953731060028076 C 33.76551818847656 2.662006139755249 39.52198028564453 1.500006198883057 45.45676803588867 1.500006198883057 C 51.39155578613281 1.500006198883057 57.14802932739258 2.662006139755249 62.56626892089844 4.953731060028076 C 67.80043029785156 7.167593955993652 72.50150299072266 10.33724403381348 76.53890228271484 14.37464332580566 C 80.57630920410156 18.41203117370605 83.74595642089844 23.11310577392578 85.95981597900391 28.34726905822754 C 88.25154113769531 33.76551818847656 89.41354370117188 39.52198028564453 89.41354370117188 45.45676803588867 C 89.41354370117188 51.39208221435547 88.25154113769531 57.14855575561523 85.95981597900391 62.56679534912109 C 83.74595642089844 67.80095672607422 80.57630920410156 72.50202941894531 76.53890228271484 76.5394287109375 C 72.50150299072266 80.57682800292969 67.80043029785156 83.74648284912109 62.56626892089844 85.96034240722656 C 57.14802932739258 88.25206756591797 51.39155578613281 89.41407012939453 45.45676803588867 89.41407012939453 Z" stroke="none"/>
            <path d="M 45.45676803588867 3 C 39.72381210327148 3 34.1639404296875 4.12213134765625 28.93159484863281 6.335227966308594 C 23.87622833251953 8.473472595214844 19.33542633056641 11.53517150878906 15.43529510498047 15.435302734375 C 11.53517150878906 19.33543395996094 8.473464965820312 23.87622833251953 6.335227966308594 28.93160247802734 C 4.122123718261719 34.16394424438477 3 39.72381591796875 3 45.4572868347168 C 3 51.19024658203125 4.122123718261719 56.75011825561523 6.335227966308594 61.98246002197266 C 8.473464965820312 67.03782653808594 11.53517150878906 71.57862854003906 15.43529510498047 75.478759765625 C 19.33542633056641 79.37889099121094 23.87622833251953 82.44058990478516 28.93159484863281 84.57883453369141 C 34.1639404296875 86.79193115234375 39.72381210327148 87.9140625 45.45676803588867 87.9140625 C 51.18972396850586 87.9140625 56.74959564208984 86.79193115234375 61.98194122314453 84.57883453369141 C 67.03730773925781 82.44058990478516 71.57810974121094 79.37889099121094 75.47824096679688 75.478759765625 C 79.37837219238281 71.57862854003906 82.44007110595703 67.03782653808594 84.57830810546875 61.98246002197266 C 86.79141235351562 56.75011825561523 87.91353607177734 51.19024658203125 87.91353607177734 45.4567756652832 C 87.91353607177734 39.72381591796875 86.79141235351562 34.16394424438477 84.57830810546875 28.93160247802734 C 82.44007110595703 23.87622833251953 79.37837219238281 19.33543395996094 75.47824096679688 15.435302734375 C 71.57810974121094 11.53517150878906 67.03730773925781 8.473472595214844 61.98194122314453 6.335227966308594 C 56.74959564208984 4.12213134765625 51.18972396850586 3 45.45676803588867 3 M 45.45676803588867 0 C 70.56185150146484 0 90.91353607177734 20.35169219970703 90.91353607177734 45.4567756652832 L 90.91353607177734 45.4572868347168 C 90.91353607177734 70.5623779296875 70.56185150146484 90.9140625 45.45676803588867 90.9140625 C 20.3516845703125 90.9140625 0 70.5623779296875 0 45.4572868347168 L 0 45.4567756652832 C 0 20.35169219970703 20.3516845703125 0 45.45676803588867 0 Z" stroke="none" fill="#fff"/>
          </g>
        </g>
        <g id="Path_874923" data-name="Path 874923" transform="translate(0 0)" fill="none">
          <path d="M45.457,0A45.457,45.457,0,0,1,90.914,45.457h0A45.457,45.457,0,0,1,0,45.457H0A45.457,45.457,0,0,1,45.457,0Z" stroke="none"/>
          <path d="M 45.45676803588867 3 C 39.72381210327148 3 34.1639404296875 4.12213134765625 28.93159484863281 6.335227966308594 C 23.87622833251953 8.473472595214844 19.33542633056641 11.53517150878906 15.43529510498047 15.435302734375 C 11.53517150878906 19.33543395996094 8.473464965820312 23.87622833251953 6.335227966308594 28.93160247802734 C 4.122123718261719 34.16394424438477 3 39.72381591796875 3 45.4572868347168 C 3 51.19024658203125 4.122123718261719 56.75011825561523 6.335227966308594 61.98246002197266 C 8.473464965820312 67.03782653808594 11.53517150878906 71.57862854003906 15.43529510498047 75.478759765625 C 19.33542633056641 79.37889099121094 23.87622833251953 82.44058990478516 28.93159484863281 84.57883453369141 C 34.1639404296875 86.79193115234375 39.72381210327148 87.9140625 45.45676803588867 87.9140625 C 51.18972396850586 87.9140625 56.74959564208984 86.79193115234375 61.98194122314453 84.57883453369141 C 67.03730773925781 82.44058990478516 71.57810974121094 79.37889099121094 75.47824096679688 75.478759765625 C 79.37837219238281 71.57862854003906 82.44007110595703 67.03782653808594 84.57830810546875 61.98246002197266 C 86.79141235351562 56.75011825561523 87.91353607177734 51.19024658203125 87.91353607177734 45.4567756652832 C 87.91353607177734 39.72381591796875 86.79141235351562 34.16394424438477 84.57830810546875 28.93160247802734 C 82.44007110595703 23.87622833251953 79.37837219238281 19.33543395996094 75.47824096679688 15.435302734375 C 71.57810974121094 11.53517150878906 67.03730773925781 8.473472595214844 61.98194122314453 6.335227966308594 C 56.74959564208984 4.12213134765625 51.18972396850586 3 45.45676803588867 3 M 45.45676803588867 0 C 70.56185150146484 0 90.91353607177734 20.35169219970703 90.91353607177734 45.4567756652832 L 90.91353607177734 45.4572868347168 C 90.91353607177734 70.5623779296875 70.56185150146484 90.9140625 45.45676803588867 90.9140625 C 20.3516845703125 90.9140625 0 70.5623779296875 0 45.4572868347168 L 0 45.4567756652832 C 0 20.35169219970703 20.3516845703125 0 45.45676803588867 0 Z" stroke="none" fill="#fff"/>
        </g>
      </g>
    </g>
    <g id="Group_1113142" data-name="Group 1113142" transform="translate(-6669 -3167.998)">
      <path id="Path_901363" data-name="Path 901363" d="M2.906,6.532,8.345,2l7.7,3.626L25.566,2,31,6.532v6.345l-5.891,6.345L23.3,29.191,17.862,31.91l-6.345-4.532H5.626L2,25.566l.906-4.532,2.266-2.719.906-4.532L3.36,11.064Z" transform="translate(-0.094 -0.094)" fill="#d19b80"/>
      <path id="Path_901364" data-name="Path 901364" d="M25.373,19.427l5.891-6.345V6.738L28.223,4.2,16.2,8.785,9.015,5.4l-3,2.5.212,2.131L9.291,13.1,7.963,19.731,5.7,22.45l-.916,4.583,1.1.552h5.891l6.345,4.532L23.56,29.4Z" transform="translate(-0.354 -0.3)" fill="#be7860"/>
      <path id="Path_901365" data-name="Path 901365" d="M45.94,18,54.1,23.438l2.719,9.97L54.1,43.379l4.532,5.438v9.064H54.1l-4.532-2.719-5.438,2.719-7.251-1.813L33.251,50.63,26,47.91V40.659l5.438-7.251V26.157L38.689,18Z" transform="translate(-2.341 -1.592)" fill="#d19b80"/>
      <path id="Path_901366" data-name="Path 901366" d="M58.91,58.161V49.1l-4.532-5.438,2.719-9.97-1.63-5.976L45.4,21H40.191l-5.753,6.472V34.6L29,41.847v7.364l4.532,1.7,3.626,5.438,7.251,1.813,5.438-2.719,4.532,2.719Z" transform="translate(-2.621 -1.873)" fill="#be7860"/>
      <path id="Path_901367" data-name="Path 901367" d="M5.626,34l7.251,2.719,1.813,6.345,4.532,2.719.906,6.345,2.719,3.626v3.626H15.6l-5.438-1.813L7.438,53.034,2,50.315V38.532Z" transform="translate(-0.094 -3.09)" fill="#d19b80"/>
      <path id="Path_901368" data-name="Path 901368" d="M5,52.009l2.719,1.36L10.438,57.9l5.438,1.813h6.571l-4.632-6.176-.822-5.754-4.342-2.606L10.92,39.118,6.8,37.573,5,39.821Z" transform="translate(-0.374 -3.424)" fill="#be7860"/>
      <path id="Path_901369" data-name="Path 901369" d="M1.5,26.282,5.127,28.1a.9.9,0,0,0,.405.1h5.6l6.108,4.363a.906.906,0,0,0,.932.073l5.438-2.719a.906.906,0,0,0,.487-.648l1.766-9.709,5.71-6.152a.906.906,0,0,0,.243-.617V6.438a.906.906,0,0,0-.326-.7L26.052,1.209a.906.906,0,0,0-.906-.15L15.992,4.546,8.637,1.09a.906.906,0,0,0-.966.124L2.233,5.747a.906.906,0,0,0-.322.786l.453,4.532a.906.906,0,0,0,.261.55L5,13.991l-.767,3.83L2.117,20.36a.894.894,0,0,0-.192.4l-.906,4.532a.906.906,0,0,0,.483.988ZM4.135,10.558,3.763,6.827,8.385,2.972l6.4,3.013-1.747,4.193-4.059.816a.866.866,0,0,0-.272.1L6.136,12.559ZM3.657,21.343l2.118-2.538a.894.894,0,0,0,.192-.4l.826-4.127L9.479,12.74l4.391-.882a.906.906,0,0,0,.659-.544l2.115-5.076L25.3,2.94,29.214,6.2,26.467,7.424a.906.906,0,0,0-.386.325l-1.813,2.719a.906.906,0,1,0,1.508,1.006l1.663-2.5L30,7.833v4.594L24.355,18.51a.906.906,0,0,0-.228.453L22.4,28.489,17.85,30.762l-5.186-3.7,1.326-1.989a.906.906,0,0,0,0-1.006l-1.813-2.719a.906.906,0,1,0-1.508,1.006l1.479,2.216L10.94,26.378H5.746L2.931,24.971Z" transform="translate(0 0)"/>
      <path id="Path_901370" data-name="Path 901370" d="M59.232,48.142,55,43.067,57.6,33.55a.906.906,0,0,0,0-.477L54.877,23.1a.912.912,0,0,0-.372-.516L46.348,17.15a.912.912,0,0,0-.5-.15H38.6a.906.906,0,0,0-.678.3l-7.251,8.157a.906.906,0,0,0-.228.6v6.949l-5.257,7.009a.906.906,0,0,0-.181.544v7.251a.906.906,0,0,0,.588.849l6.979,2.616,3.463,5.2a.906.906,0,0,0,.534.376l7.251,1.813a.906.906,0,0,0,.625-.068l4.993-2.5,4.1,2.463a.906.906,0,0,0,.465.13h4.532a.906.906,0,0,0,.906-.906V48.723a.906.906,0,0,0-.21-.581ZM32.07,33.859a.906.906,0,0,0,.181-.544V27.266L36.909,28.6l.8,3.988a.907.907,0,0,0,1.778-.355L38.578,27.7A.906.906,0,0,0,37.944,27l-4.968-1.416L39,18.813h5.505L43.193,22.1a.906.906,0,0,0,.3,1.062l3.02,2.266-1.475,2.949a.907.907,0,1,0,1.622.81l1.813-3.626a.906.906,0,0,0-.267-1.131l-3.07-2.3,1.14-2.85,6.946,4.63,2.564,9.4-2.447,8.973-6.105-.762-3.4-4.245A.906.906,0,0,0,43,36.949l-6.345.906a.906.906,0,0,0-.438.189l-4.169,3.333-4.628-1.322ZM57.63,56.881H54.255l-3.6-2.158L52.1,51.847a.906.906,0,0,0-.057-.906l-1.813-2.719a.906.906,0,0,0-1.508,1.006l1.521,2.281L48.8,54.394l-4.873,2.432L37.343,55.18l-3.019-4.532,2-2,4.26-.853a.906.906,0,0,0-.355-1.776l-4.532.906a.906.906,0,0,0-.463.247l-2.307,2.306-6.114-2.29V41.768L32,43.25a.906.906,0,0,0,.816-.164l4.339-3.471,5.587-.8,3.3,4.129a.906.906,0,0,0,.6.333l6.9.862,4.093,4.912Z" transform="translate(-2.247 -1.498)"/>
      <path id="Path_901371" data-name="Path 901371" d="M20.9,51.671l-.874-6.114a.906.906,0,0,0-.431-.649L15.369,42.37l-1.714-6a.906.906,0,0,0-.554-.6L5.85,33.05a.906.906,0,0,0-1.026.283L1.2,37.865a.906.906,0,0,0-.2.573V50.22a.906.906,0,0,0,.5.816l5.2,2.6,2.584,4.305a.906.906,0,0,0,.49.393l5.438,1.813a.906.906,0,0,0,.286.042h7.251a.906.906,0,0,0,.906-.906V55.659a.906.906,0,0,0-.181-.544Zm.948,6.707h-6.2l-4.307-1.436,1.178-2.357,2.363-.787a.907.907,0,0,0-.573-1.722l-2.719.906a.9.9,0,0,0-.524.453L9.992,55.584,8.121,52.473a.906.906,0,0,0-.372-.344L2.813,49.66v-10.9l2.542-3.178,1.883,3.766-1.611,3.22a.907.907,0,0,0,1.622.81l1.813-3.626a.906.906,0,0,0,0-.81L7.375,35.565l4.661,1.748,1.505,5.269-2.169,1.446a.906.906,0,0,0-.357.468l-.906,2.719a.907.907,0,1,0,1.722.573l.808-2.424,1.983-1.322,3.67,2.2.846,5.919a.906.906,0,0,0,.172.415l2.535,3.384Z" transform="translate(0 -2.995)"/>
    </g>
  </g>
</svg>
