<svg xmlns="http://www.w3.org/2000/svg" xmlns:xlink="http://www.w3.org/1999/xlink" width="108.914" height="108.914" viewBox="0 0 108.914 108.914">
  <defs>
    <filter id="Path_874925" x="0" y="0" width="108.914" height="108.914" filterUnits="userSpaceOnUse">
      <feOffset dy="3" input="SourceAlpha"/>
      <feGaussianBlur stdDeviation="3" result="blur"/>
      <feFlood flood-opacity="0.161"/>
      <feComposite operator="in" in2="blur"/>
      <feComposite in="SourceGraphic"/>
    </filter>
  </defs>
  <g id="Group_1113156" data-name="Group 1113156" transform="translate(5727 3190)">
    <g id="Group_1111493" data-name="Group 1111493" transform="translate(-6526.5 -5136.211)">
      <g id="Group_1107913" data-name="Group 1107913" transform="translate(808.5 1952.211)">
        <g transform="matrix(1, 0, 0, 1, -9, -6)" filter="url(#Path_874925)">
          <g id="Path_874925-2" data-name="Path 874925" transform="translate(9 6)" fill="#f3d82a" opacity="0.859">
            <path d="M 45.45676803588867 89.41407012939453 C 39.52198028564453 89.41407012939453 33.76551818847656 88.25206756591797 28.34726715087891 85.96034240722656 C 23.11311721801758 83.74648284912109 18.41204261779785 80.57682800292969 14.37464332580566 76.5394287109375 C 10.33724308013916 72.50202941894531 7.167593002319336 67.80095672607422 4.953730583190918 62.56679534912109 C 2.662005424499512 57.14855575561523 1.500005483627319 51.39208221435547 1.500005483627319 45.45729446411133 C 1.500005483627319 39.52198028564453 2.662005424499512 33.76551818847656 4.953730583190918 28.34726905822754 C 7.167593002319336 23.11310577392578 10.33724308013916 18.41203117370605 14.37464332580566 14.37464332580566 C 18.41204261779785 10.33724403381348 23.11311721801758 7.167593955993652 28.34726715087891 4.953731060028076 C 33.76551818847656 2.662006139755249 39.52198028564453 1.500006198883057 45.45676803588867 1.500006198883057 C 51.39155578613281 1.500006198883057 57.14802932739258 2.662006139755249 62.56626892089844 4.953731060028076 C 67.80043029785156 7.167593955993652 72.50150299072266 10.33724403381348 76.53890228271484 14.37464332580566 C 80.57630920410156 18.41203117370605 83.74595642089844 23.11310577392578 85.95981597900391 28.34726905822754 C 88.25154113769531 33.76551818847656 89.41354370117188 39.52198028564453 89.41354370117188 45.45676803588867 C 89.41354370117188 51.39208221435547 88.25154113769531 57.14855575561523 85.95981597900391 62.56679534912109 C 83.74595642089844 67.80095672607422 80.57630920410156 72.50202941894531 76.53890228271484 76.5394287109375 C 72.50150299072266 80.57682800292969 67.80043029785156 83.74648284912109 62.56626892089844 85.96034240722656 C 57.14802932739258 88.25206756591797 51.39155578613281 89.41407012939453 45.45676803588867 89.41407012939453 Z" stroke="none"/>
            <path d="M 45.45676803588867 3 C 39.72381210327148 3 34.1639404296875 4.12213134765625 28.93159484863281 6.335227966308594 C 23.87622833251953 8.473472595214844 19.33542633056641 11.53517150878906 15.43529510498047 15.435302734375 C 11.53517150878906 19.33543395996094 8.473464965820312 23.87622833251953 6.335227966308594 28.93160247802734 C 4.122123718261719 34.16394424438477 3 39.72381591796875 3 45.4572868347168 C 3 51.19024658203125 4.122123718261719 56.75011825561523 6.335227966308594 61.98246002197266 C 8.473464965820312 67.03782653808594 11.53517150878906 71.57862854003906 15.43529510498047 75.478759765625 C 19.33542633056641 79.37889099121094 23.87622833251953 82.44058990478516 28.93159484863281 84.57883453369141 C 34.1639404296875 86.79193115234375 39.72381210327148 87.9140625 45.45676803588867 87.9140625 C 51.18972396850586 87.9140625 56.74959564208984 86.79193115234375 61.98194122314453 84.57883453369141 C 67.03730773925781 82.44058990478516 71.57810974121094 79.37889099121094 75.47824096679688 75.478759765625 C 79.37837219238281 71.57862854003906 82.44007110595703 67.03782653808594 84.57830810546875 61.98246002197266 C 86.79141235351562 56.75011825561523 87.91353607177734 51.19024658203125 87.91353607177734 45.4567756652832 C 87.91353607177734 39.72381591796875 86.79141235351562 34.16394424438477 84.57830810546875 28.93160247802734 C 82.44007110595703 23.87622833251953 79.37837219238281 19.33543395996094 75.47824096679688 15.435302734375 C 71.57810974121094 11.53517150878906 67.03730773925781 8.473472595214844 61.98194122314453 6.335227966308594 C 56.74959564208984 4.12213134765625 51.18972396850586 3 45.45676803588867 3 M 45.45676803588867 0 C 70.56185150146484 0 90.91353607177734 20.35169219970703 90.91353607177734 45.4567756652832 L 90.91353607177734 45.4572868347168 C 90.91353607177734 70.5623779296875 70.56185150146484 90.9140625 45.45676803588867 90.9140625 C 20.3516845703125 90.9140625 0 70.5623779296875 0 45.4572868347168 L 0 45.4567756652832 C 0 20.35169219970703 20.3516845703125 0 45.45676803588867 0 Z" stroke="none" fill="#fff"/>
          </g>
        </g>
        <g id="Path_874923" data-name="Path 874923" transform="translate(0 0)" fill="none">
          <path d="M45.457,0A45.457,45.457,0,0,1,90.914,45.457h0A45.457,45.457,0,0,1,0,45.457H0A45.457,45.457,0,0,1,45.457,0Z" stroke="none"/>
          <path d="M 45.45676803588867 3 C 39.72381210327148 3 34.1639404296875 4.12213134765625 28.93159484863281 6.335227966308594 C 23.87622833251953 8.473472595214844 19.33542633056641 11.53517150878906 15.43529510498047 15.435302734375 C 11.53517150878906 19.33543395996094 8.473464965820312 23.87622833251953 6.335227966308594 28.93160247802734 C 4.122123718261719 34.16394424438477 3 39.72381591796875 3 45.4572868347168 C 3 51.19024658203125 4.122123718261719 56.75011825561523 6.335227966308594 61.98246002197266 C 8.473464965820312 67.03782653808594 11.53517150878906 71.57862854003906 15.43529510498047 75.478759765625 C 19.33542633056641 79.37889099121094 23.87622833251953 82.44058990478516 28.93159484863281 84.57883453369141 C 34.1639404296875 86.79193115234375 39.72381210327148 87.9140625 45.45676803588867 87.9140625 C 51.18972396850586 87.9140625 56.74959564208984 86.79193115234375 61.98194122314453 84.57883453369141 C 67.03730773925781 82.44058990478516 71.57810974121094 79.37889099121094 75.47824096679688 75.478759765625 C 79.37837219238281 71.57862854003906 82.44007110595703 67.03782653808594 84.57830810546875 61.98246002197266 C 86.79141235351562 56.75011825561523 87.91353607177734 51.19024658203125 87.91353607177734 45.4567756652832 C 87.91353607177734 39.72381591796875 86.79141235351562 34.16394424438477 84.57830810546875 28.93160247802734 C 82.44007110595703 23.87622833251953 79.37837219238281 19.33543395996094 75.47824096679688 15.435302734375 C 71.57810974121094 11.53517150878906 67.03730773925781 8.473472595214844 61.98194122314453 6.335227966308594 C 56.74959564208984 4.12213134765625 51.18972396850586 3 45.45676803588867 3 M 45.45676803588867 0 C 70.56185150146484 0 90.91353607177734 20.35169219970703 90.91353607177734 45.4567756652832 L 90.91353607177734 45.4572868347168 C 90.91353607177734 70.5623779296875 70.56185150146484 90.9140625 45.45676803588867 90.9140625 C 20.3516845703125 90.9140625 0 70.5623779296875 0 45.4572868347168 L 0 45.4567756652832 C 0 20.35169219970703 20.3516845703125 0 45.45676803588867 0 Z" stroke="none" fill="#fff"/>
        </g>
      </g>
    </g>
    <g id="Group_1113155" data-name="Group 1113155" transform="translate(-5703 -3174)">
      <path id="Path_901406" data-name="Path 901406" d="M54.071,23.764a20.943,20.943,0,0,0-6.962-4.154l-4.8-1.714A8,8,0,0,1,37,10.362V3H27V13.726a8,8,0,0,1-7.242,7.964l-6.2.59A11.663,11.663,0,0,0,3,33.893V39l3.429-5.514a11.665,11.665,0,0,1,9.927-5.505L27,28l-3.28,4.737A38.894,38.894,0,0,0,17,51l3.091-5.564c.6-1.082,1.257-2.131,1.957-3.149L22,42l.048.287a38.96,38.96,0,0,1,2.51-3.272L27,36.167v0L34,28l1.268,1.087a25.736,25.736,0,0,1,7.9,12.145L44,44l2,9,1.152-9.218a25.724,25.724,0,0,0-1.781-13.09,15.216,15.216,0,0,0-2.133-3.6L43,27l.238.092a15.18,15.18,0,0,0-5.9-4.52L36,22l1.333.571a15.173,15.173,0,0,1,5.9,4.52l5.669,2.18A20.927,20.927,0,0,1,59.69,38.642L61,41V39.322a20.928,20.928,0,0,0-6.929-15.558Z" fill="#9c5f20"/>
      <g id="Group_1113154" data-name="Group 1113154">
        <path id="Path_901407" data-name="Path 901407" d="M47.152,40.782,46,50l-2-9-.831-2.769a25.733,25.733,0,0,0-7.9-12.145L34,25l-7,8.167-2.442,2.849a38.749,38.749,0,0,0-2.51,3.272c-.7,1.018-1.356,2.067-1.957,3.149l-2.42,4.356A38.816,38.816,0,0,0,17,51l3.091-5.564c.6-1.082,1.257-2.131,1.957-3.149a38.96,38.96,0,0,1,2.51-3.272L27,36.167,34,28l1.268,1.087a25.736,25.736,0,0,1,7.9,12.145L44,44l2,9,1.152-9.218a25.724,25.724,0,0,0,.149-4.623q-.048.812-.149,1.623Z" fill="#8a541c"/>
        <path id="Path_901408" data-name="Path 901408" d="M27,25l-10.644-.019a11.665,11.665,0,0,0-9.927,5.5L3,36v3l3.429-5.514a11.665,11.665,0,0,1,9.927-5.505L24.925,28Z" fill="#8a541c"/>
        <path id="Path_901409" data-name="Path 901409" d="M59.69,35.643a20.927,20.927,0,0,0-10.783-9.371l-5.669-2.18a15.162,15.162,0,0,1,2.133,3.6c.036.085.063.173.1.258l3.438,1.322A20.927,20.927,0,0,1,59.69,38.643L61,41V39.322c0-.475-.022-.948-.054-1.419Z" fill="#8a541c"/>
      </g>
      <path id="Path_901410" data-name="Path 901410" d="M27,3a3,3,0,0,0,3,3h4a3,3,0,0,0,3-3Z" fill="#ab6823"/>
      <path id="Path_901411" data-name="Path 901411" d="M54.071,23.764a20.943,20.943,0,0,0-6.962-4.154l-4.8-1.714A8,8,0,0,1,37,10.362V3H35v7.362A8,8,0,0,0,40.309,17.9l4.8,1.714A20.92,20.92,0,0,1,58.9,37.361c.274.419.543.842.788,1.282L61,41V39.322A20.928,20.928,0,0,0,54.071,23.764Z" fill="#ab6823"/>
      <path id="Path_901412" data-name="Path 901412" d="M54.74,23.021a21.847,21.847,0,0,0-7.3-4.353l-4.8-1.714A7.014,7.014,0,0,1,38,10.362V3a1,1,0,0,0-1-1H27a1,1,0,0,0-1,1V13.726a6.97,6.97,0,0,1-6.336,6.968l-6.2.591A12.669,12.669,0,0,0,2,33.893V62H4V58.414l3.293,3.293,1.414-1.414L4,55.586V47.135l1.684,1.4A8.037,8.037,0,0,1,8.5,53.59a10.028,10.028,0,0,0,3.675,6.432l2.2,1.759,1.25-1.562-2.2-1.759a8.032,8.032,0,0,1-2.944-5.153A10.044,10.044,0,0,0,6.965,47L4,44.531V39.286l3.279-5.272A10.759,10.759,0,0,1,9,31.9v7.021l-.986,5.918,1.973.329L10.6,41.47l1.6,2.13,1.6-1.2L11,38.667V36h4V34H11V30.412a10.633,10.633,0,0,1,5.335-1.431h.02L25.094,29,22.9,32.168a39.994,39.994,0,0,0-6.882,18.644l-.3,1.2a9.189,9.189,0,0,1-2.422,4.279l1.414,1.414A11.189,11.189,0,0,0,17.655,52.5l.282-1.127,3.027-5.449c.172-.309.358-.61.539-.915a16.359,16.359,0,0,0,2.934,6.575L25.2,52.6l1.6-1.2-.763-1.017a14.368,14.368,0,0,1-2.664-6.225L23.1,42.525c.694-.987,1.432-1.944,2.216-2.859l.764-.891a16.377,16.377,0,0,0,1.638,5.9l1.386,2.771,1.789-.9-1.386-2.771A14.36,14.36,0,0,1,28,37.39v-.854l6.108-7.126.509.436a24.778,24.778,0,0,1,2.425,2.391l-.013,0a11.8,11.8,0,0,1-.924,7.313c-2.031,4.063-4,12.858-4.082,13.23l1.953.434c.011-.05.638-2.855,1.526-5.987l2.716,3.4,1.563-1.249L36.2,44.9A32.664,32.664,0,0,1,37.9,40.448a13.161,13.161,0,0,0,1.343-5.336,24.72,24.72,0,0,1,2.974,6.408l.813,2.7L45,53.087a7.866,7.866,0,0,1-3.8,6.629l-.713.428,1.029,1.715.713-.428a9.877,9.877,0,0,0,4.764-8.3v0l1.152-9.218a26.767,26.767,0,0,0-1.851-13.6c-.169-.406-.362-.8-.561-1.184l2.815,1.083c.173.066.337.15.508.221l2.82,17.863a5.049,5.049,0,0,0,.779,1.994l1.284,1.926-.919,4.594,1.961.393.526-2.633,1.182,1.773a2.988,2.988,0,0,1,0,3.328l-.521.781,1.664,1.109.521-.781a4.984,4.984,0,0,0,0-5.547l-4.034-6.052a3.034,3.034,0,0,1-.468-1.2L53,42.622,55.553,43.9l.9-1.789-3.826-1.913L51.25,31.5a19.94,19.94,0,0,1,7.567,7.626L60,41.259V50h2V39.322a21.962,21.962,0,0,0-7.26-16.3Zm-5.473,5.318-5.4-2.076a16.125,16.125,0,0,0-6.144-4.611l-1.333-.571-.787,1.838,1.333.571a14.121,14.121,0,0,1,7.509,7.586,24.776,24.776,0,0,1,1.712,12.582l-.437,3.495-.766-3.44-.831-2.768a26.687,26.687,0,0,0-8.208-12.617l-1.268-1.087A1.014,1.014,0,0,0,33.923,27a1,1,0,0,0-.683.346L23.8,38.364a40.056,40.056,0,0,0-4.582,6.586l-.165.3a37.978,37.978,0,0,1,5.491-11.941l3.279-4.737A1,1,0,0,0,27,27l-10.644-.019h-.023A12.587,12.587,0,0,0,5.58,32.958L4,35.5v-1.6a10.665,10.665,0,0,1,9.654-10.618l6.2-.591A8.961,8.961,0,0,0,28,13.726V4h8v6.362a9.018,9.018,0,0,0,5.974,8.476l4.8,1.714A19.9,19.9,0,0,1,59.853,37a21.955,21.955,0,0,0-10.586-8.661Z"/>
    </g>
  </g>
</svg>
