<svg xmlns="http://www.w3.org/2000/svg" xmlns:xlink="http://www.w3.org/1999/xlink" width="98" height="98" viewBox="0 0 98 98">
  <defs>
    <filter id="Path_896985" x="0" y="0" width="98" height="98" filterUnits="userSpaceOnUse">
      <feOffset dy="3" input="SourceAlpha"/>
      <feGaussianBlur stdDeviation="3" result="blur"/>
      <feFlood flood-opacity="0.161"/>
      <feComposite operator="in" in2="blur"/>
      <feComposite in="SourceGraphic"/>
    </filter>
  </defs>
  <g id="Group_1113222" data-name="Group 1113222" transform="translate(-195.384 -1651)">
    <g id="Group_1111525" data-name="Group 1111525" transform="translate(204.384 1657)" style="isolation: isolate">
      <g id="Group_1098742" data-name="Group 1098742">
        <g transform="matrix(1, 0, 0, 1, -9, -6)" filter="url(#Path_896985)">
          <g id="Path_896985-2" data-name="Path 896985" transform="translate(9 6)" fill="#8dc0ff">
            <path d="M 40.00000381469727 78.50012969970703 C 34.80187225341797 78.50012969970703 29.76003646850586 77.48240661621094 25.0145263671875 75.47523498535156 C 20.43014907836914 73.53620147705078 16.31264877319336 70.75999450683594 12.77639293670654 67.22373962402344 C 9.240137100219727 63.68747711181641 6.463937282562256 59.56997680664062 4.524903774261475 54.98559951782227 C 2.517725944519043 50.24008560180664 1.500003814697266 45.1982421875 1.500003814697266 40.0001106262207 C 1.500003814697266 34.80195236206055 2.517725944519043 29.76008796691895 4.524914741516113 25.01456451416016 C 6.463937282562256 20.43017578125 9.240137100219727 16.31266403198242 12.77639293670654 12.77639865875244 C 16.31264877319336 9.240142822265625 20.43014907836914 6.463931560516357 25.0145263671875 4.524909496307373 C 29.76003646850586 2.517720460891724 34.80187225341797 1.499998211860657 40.00000381469727 1.499998211860657 C 45.19813537597656 1.499998211860657 50.23998260498047 2.517720460891724 54.98548126220703 4.524898052215576 C 59.56985855102539 6.463931560516357 63.68735885620117 9.240131378173828 67.22361755371094 12.77638721466064 C 70.75987243652344 16.31264305114746 73.53607177734375 20.43015289306641 75.47510528564453 25.0145206451416 C 77.48228454589844 29.76003074645996 78.5 34.80187606811523 78.5 40.00000762939453 C 78.5 45.19816589355469 77.48228454589844 50.24003219604492 75.47510528564453 54.98555374145508 C 73.53607177734375 59.56994247436523 70.75987243652344 63.68746566772461 67.22361755371094 67.22373199462891 C 63.68735885620117 70.75998687744141 59.56985855102539 73.53620147705078 54.98548126220703 75.4752197265625 C 50.23998260498047 77.48240661621094 45.19813537597656 78.50012969970703 40.00000381469727 78.50012969970703 Z" stroke="none"/>
            <path d="M 40.00000381469727 3 C 35.00371170043945 3 30.15847015380859 3.977851867675781 25.59885787963867 5.906410217285156 C 21.19327163696289 7.769813537597656 17.23603057861328 10.43806457519531 13.83704376220703 13.83705139160156 C 10.43807220458984 17.23603820800781 7.769813537597656 21.19327926635742 5.906417846679688 25.59885025024414 C 3.977859497070312 30.15846633911133 3.000007629394531 35.00370407104492 3.000007629394531 40.00011825561523 C 3.000007629394531 44.99641036987305 3.977859497070312 49.84166717529297 5.906417846679688 54.40127563476562 C 7.769813537597656 58.80685424804688 10.43807220458984 62.76409149169922 13.83704376220703 66.16307830810547 C 17.23603057861328 69.56206512451172 21.19327163696289 72.23031616210938 25.59885787963867 74.09371948242188 C 30.1584587097168 76.02227783203125 35.00371170043945 77.00012969970703 40.00000381469727 77.00012969970703 C 44.99629592895508 77.00012969970703 49.841552734375 76.02227783203125 54.40114974975586 74.09371948242188 C 58.80673980712891 72.23031616210938 62.76397705078125 69.56206512451172 66.1629638671875 66.16307830810547 C 69.56193542480469 62.76409149169922 72.23019409179688 58.80685424804688 74.09358978271484 54.40127563476562 C 76.02214813232422 49.84166717529297 77 44.99641036987305 77 40 C 77 35.00370407104492 76.02214813232422 30.15846633911133 74.09358978271484 25.59885025024414 C 72.23019409179688 21.19327926635742 69.56193542480469 17.23603820800781 66.1629638671875 13.83705139160156 C 62.76397705078125 10.43806457519531 58.80673980712891 7.769813537597656 54.40114974975586 5.906410217285156 C 49.84153747558594 3.977851867675781 44.99629592895508 3 40.00000381469727 3 M 40.00000381469727 0 C 62.09140396118164 0 80 17.90861129760742 80 40 L 80 40.00011825561523 C 80 62.09151840209961 62.09140396118164 80.00012969970703 40.00000381469727 80.00012969970703 C 17.90860366821289 80.00012969970703 7.62939453125e-06 62.09151840209961 7.62939453125e-06 40.00011825561523 L 7.62939453125e-06 40 C 7.62939453125e-06 17.90861129760742 17.90860366821289 0 40.00000381469727 0 Z" stroke="none" fill="#fff"/>
          </g>
        </g>
        <g id="Rectangle_400907" data-name="Rectangle 400907" transform="translate(0 0)" fill="none" stroke="#fff" stroke-width="3">
          <rect width="80" height="80" rx="40" stroke="none"/>
          <rect x="1.5" y="1.5" width="77" height="77" rx="38.5" fill="none"/>
        </g>
      </g>
    </g>
    <g id="Group_1113221" data-name="Group 1113221" transform="translate(221.384 1674)">
      <path id="Path_902322" data-name="Path 902322" d="M12.188,10H42.82a2.188,2.188,0,0,1,2.188,2.188V52.665a2.188,2.188,0,0,1-2.188,2.188H12.188A2.188,2.188,0,0,1,10,52.665V12.188A2.188,2.188,0,0,1,12.188,10Zm0,0" transform="translate(-9.088 -9.088)" fill="#79b2ff"/>
      <path id="Path_902323" data-name="Path 902323" d="M71,50h6.716V87.56H50V50h6.716" transform="translate(-45.442 -45.442)" fill="#fff"/>
      <path id="Path_902324" data-name="Path 902324" d="M128.769,16.564H138.6a1.937,1.937,0,0,0,1.937-1.937V10H126.832v4.627A1.937,1.937,0,0,0,128.769,16.564Zm0,0" transform="translate(-115.269 -9.088)" fill="#ff6977"/>
      <path id="Path_902325" data-name="Path 902325" d="M128.769,16.564H138.6a1.937,1.937,0,0,0,1.937-1.937V10H126.832v4.627A1.937,1.937,0,0,0,128.769,16.564Zm0,0" transform="translate(-115.269 -9.088)" fill="#bdd9ff"/>
      <path id="Path_902326" data-name="Path 902326" d="M312.4,147.032l10.682-10.682a2.411,2.411,0,1,1,3.41,3.41l-10.682,10.682-6.147,2.736Zm0,0" transform="translate(-281.433 -123.278)" fill="#ffc15a"/>
      <path id="Path_902327" data-name="Path 902327" d="M315.811,263.968l-3.41-3.41-2.737,6.146Zm0,0" transform="translate(-281.433 -236.805)" fill="#98a1b3"/>
      <path id="Path_902328" data-name="Path 902328" d="M447.4,140.933l1.172-1.172a2.411,2.411,0,0,0-3.41-3.41l-1.172,1.172Zm0,0" transform="translate(-403.515 -123.278)" fill="#ff6977"/>
      <path id="Path_902329" data-name="Path 902329" d="M98,130h5.835v5.835H98Zm0,0" transform="translate(-89.066 -118.148)" fill="#cbe558"/>
      <path id="Path_902330" data-name="Path 902330" d="M98,240h5.835v5.835H98Zm0,0" transform="translate(-89.066 -218.12)" fill="#cbe558"/>
      <path id="Path_902331" data-name="Path 902331" d="M98,350h5.835v5.835H98Zm0,0" transform="translate(-89.066 -318.092)" fill="#ff6977"/>
      <path id="Path_902332" data-name="Path 902332" d="M192.912,452a.912.912,0,1,0,.645.267A.919.919,0,0,0,192.912,452Zm0,0" transform="translate(-174.496 -410.793)"/>
      <path id="Path_902333" data-name="Path 902333" d="M45.7,12.428a3.326,3.326,0,0,0-4.7,0L36.831,16.6V3.1a3.1,3.1,0,0,0-3.1-3.1H3.1A3.1,3.1,0,0,0,0,3.1V43.577a3.1,3.1,0,0,0,3.1,3.1H33.731a3.1,3.1,0,0,0,3.1-3.1V26L45.7,17.127A3.326,3.326,0,0,0,45.7,12.428ZM35.008,3.1V18.425l-1.823,1.823V4.558a.912.912,0,0,0-.912-.912H26.18V1.823h7.551A1.278,1.278,0,0,1,35.008,3.1Zm-4.978,25,1.231-2.765,1.534,1.534ZM24.356,1.823V5.538a1.027,1.027,0,0,1-1.026,1.026H13.5a1.027,1.027,0,0,1-1.026-1.026V1.823Zm9.375,43.03H3.1a1.278,1.278,0,0,1-1.276-1.276V3.1A1.278,1.278,0,0,1,3.1,1.823h7.551V3.647H4.558a.912.912,0,0,0-.912.912v37.56a.912.912,0,0,0,.912.912H14.769a.912.912,0,0,0,0-1.823H5.47V5.47h5.181v.068A2.852,2.852,0,0,0,13.5,8.387h9.831A2.852,2.852,0,0,0,26.18,5.538V5.47h5.181v16.6l-1.038,1.038a.922.922,0,0,0-.188.274L27.4,29.529a.912.912,0,0,0,1.2,1.2L31.361,29.5v11.7h-9.3a.912.912,0,0,0,0,1.823H32.273a.912.912,0,0,0,.912-.912V28.693l1.564-.7a.909.909,0,0,0,.26-.175V43.577A1.278,1.278,0,0,1,33.731,44.853Zm7.285-25.618-6.639,6.639-2.121-2.121,8.22-8.22L42.6,17.654Zm3.4-3.4-.528.527-2.12-2.12.527-.527a1.5,1.5,0,0,1,2.121,2.12Zm0,0"/>
      <path id="Path_902334" data-name="Path 902334" d="M94.746,120H88.912a.912.912,0,0,0-.912.912v5.835a.912.912,0,0,0,.912.912h5.835a.912.912,0,0,0,.912-.912v-5.835A.912.912,0,0,0,94.746,120Zm-.912,5.835H89.823v-4.011h4.011Zm0,0" transform="translate(-79.977 -109.06)"/>
      <path id="Path_902335" data-name="Path 902335" d="M94.746,230H88.912a.912.912,0,0,0-.912.912v5.835a.912.912,0,0,0,.912.912h5.835a.912.912,0,0,0,.912-.912v-5.835A.912.912,0,0,0,94.746,230Zm-.912,5.835H89.823v-4.011h4.011Zm0,0" transform="translate(-79.977 -209.032)"/>
      <path id="Path_902336" data-name="Path 902336" d="M94.746,340H88.912a.912.912,0,0,0-.912.912v5.835a.912.912,0,0,0,.912.912h5.835a.912.912,0,0,0,.912-.912v-5.835A.912.912,0,0,0,94.746,340Zm-.912,5.835H89.823v-4.011h4.011Zm0,0" transform="translate(-79.977 -309.004)"/>
      <path id="Path_902337" data-name="Path 902337" d="M210.7,135.1a.911.911,0,0,0,1.289,0l4.116-4.116a.912.912,0,0,0-1.29-1.289l-3.471,3.471-1.384-1.383a.912.912,0,1,0-1.29,1.289Zm0,0" transform="translate(-189.402 -117.627)"/>
      <path id="Path_902338" data-name="Path 902338" d="M210.7,245.1a.911.911,0,0,0,1.289,0l4.116-4.116a.912.912,0,0,0-1.29-1.289l-3.471,3.471-1.384-1.384a.912.912,0,0,0-1.29,1.289Zm0,0" transform="translate(-189.402 -217.601)"/>
      <path id="Path_902339" data-name="Path 902339" d="M222.5,353.685l1.413,1.413a.912.912,0,1,0,1.289-1.289l-1.413-1.413,1.413-1.413a.912.912,0,1,0-1.289-1.289l-1.413,1.413-1.413-1.413a.912.912,0,1,0-1.29,1.289l1.413,1.413-1.413,1.413a.912.912,0,0,0,1.29,1.289Zm0,0" transform="translate(-199.513 -317.57)"/>
    </g>
  </g>
</svg>
