<svg xmlns="http://www.w3.org/2000/svg" xmlns:xlink="http://www.w3.org/1999/xlink" width="103" height="103" viewBox="0 0 103 103">
  <defs>
    <filter id="Path_874925" x="0" y="0" width="103" height="103" filterUnits="userSpaceOnUse">
      <feOffset dy="3" input="SourceAlpha"/>
      <feGaussianBlur stdDeviation="3" result="blur"/>
      <feFlood flood-opacity="0.161"/>
      <feComposite operator="in" in2="blur"/>
      <feComposite in="SourceGraphic"/>
    </filter>
  </defs>
  <g id="Group_1111390" data-name="Group 1111390" transform="translate(-799.5 -1946.211)">
    <g id="Group_1109835" data-name="Group 1109835" transform="translate(808.5 1952.211)">
      <g id="Group_1107913" data-name="Group 1107913" transform="translate(0 0)">
        <g transform="matrix(1, 0, 0, 1, -9, -6)" filter="url(#Path_874925)">
          <g id="Path_874925-2" data-name="Path 874925" transform="translate(9 6)" fill="#65a532" opacity="0.859">
            <path d="M 42.49984741210938 83.50018310546875 C 36.96423721313477 83.50018310546875 31.59501266479492 82.41635894775391 26.54131889343262 80.27883148193359 C 21.65925979614258 78.21389007568359 17.27441215515137 75.2574462890625 13.50857639312744 71.49160766601562 C 9.742741584777832 67.72577667236328 6.786294460296631 63.34092712402344 4.721353530883789 58.45886611938477 C 2.583823919296265 53.40517425537109 1.500000357627869 48.03594970703125 1.500000357627869 42.50033950805664 C 1.500000357627869 36.9642448425293 2.583823919296265 31.59502029418945 4.721353530883789 26.54131507873535 C 6.786294460296631 21.65926742553711 9.742741584777832 17.27442169189453 13.50857639312744 13.50857353210449 C 17.27441215515137 9.742738723754883 21.65925979614258 6.786291599273682 26.54131889343262 4.721350193023682 C 31.59501266479492 2.583821058273315 36.96423721313477 1.49999737739563 42.49984741210938 1.49999737739563 C 48.03544616699219 1.49999737739563 53.40467071533203 2.583821058273315 58.45837783813477 4.721350193023682 C 63.34042358398438 6.786291599273682 67.72527313232422 9.742738723754883 71.49111938476562 13.50857353210449 C 75.25695037841797 17.27442169189453 78.21340179443359 21.65926742553711 80.27834320068359 26.54131507873535 C 82.41587066650391 31.59502029418945 83.49969482421875 36.9642448425293 83.49969482421875 42.49984359741211 C 83.49969482421875 48.03594970703125 82.41587066650391 53.40517425537109 80.27834320068359 58.45886611938477 C 78.21340179443359 63.34092712402344 75.25695037841797 67.72577667236328 71.49111938476562 71.49160766601562 C 67.72527313232422 75.2574462890625 63.34042358398438 78.21389007568359 58.45837783813477 80.27883148193359 C 53.40467071533203 82.41635894775391 48.03544616699219 83.50018310546875 42.49984741210938 83.50018310546875 Z" stroke="none"/>
            <path d="M 42.49984741210938 3 C 37.16608810424805 3 31.99344635009766 4.043960571289062 27.12564849853516 6.102867126464844 C 22.42239379882812 8.092170715332031 18.19780731201172 10.94066619873047 14.56923675537109 14.56923675537109 C 10.940673828125 18.19779968261719 8.092170715332031 22.42238616943359 6.102859497070312 27.12563705444336 C 4.043952941894531 31.99345016479492 2.999992370605469 37.16607666015625 2.999992370605469 42.50034332275391 C 2.999992370605469 47.8341064453125 4.043952941894531 53.00674438476562 6.102859497070312 57.87454223632812 C 8.092170715332031 62.57779693603516 10.940673828125 66.80238342285156 14.56923675537109 70.43094635009766 C 18.19780731201172 74.05951690673828 22.42239379882812 76.90801239013672 27.12564849853516 78.89731597900391 C 31.99344635009766 80.95622253417969 37.16608810424805 82.00018310546875 42.49984741210938 82.00018310546875 C 47.8336067199707 82.00018310546875 53.00624847412109 80.95622253417969 57.87404632568359 78.89731597900391 C 62.57730102539062 76.90801239013672 66.80188751220703 74.05951690673828 70.43045043945312 70.43094635009766 C 74.05902099609375 66.80238342285156 76.90751647949219 62.57779693603516 78.89682006835938 57.87454223632812 C 80.95572662353516 53.00674438476562 81.99968719482422 47.8341064453125 81.99968719482422 42.49985122680664 C 81.99968719482422 37.16607666015625 80.95572662353516 31.99345016479492 78.89682006835938 27.12563705444336 C 76.90751647949219 22.42238616943359 74.05902099609375 18.19779968261719 70.43045043945312 14.56923675537109 C 66.80188751220703 10.94066619873047 62.57730102539062 8.092170715332031 57.87404632568359 6.102867126464844 C 53.00624847412109 4.043960571289062 47.8336067199707 3 42.49984741210938 3 M 42.49984741210938 0 C 65.97186279296875 0 84.99968719482422 19.02782440185547 84.99968719482422 42.49985122680664 L 84.99968719482422 42.50034332275391 C 84.99968719482422 65.97235870361328 65.97186279296875 85.00018310546875 42.49984741210938 85.00018310546875 C 19.02783203125 85.00018310546875 -7.62939453125e-06 65.97235870361328 -7.62939453125e-06 42.50034332275391 L -7.62939453125e-06 42.49985122680664 C -7.62939453125e-06 19.02782440185547 19.02783203125 0 42.49984741210938 0 Z" stroke="none" fill="#fff"/>
          </g>
        </g>
        <g id="Path_874923" data-name="Path 874923" transform="translate(0 0)" fill="none">
          <path d="M42.5,0A42.5,42.5,0,0,1,85,42.5h0a42.5,42.5,0,0,1-85,0H0A42.5,42.5,0,0,1,42.5,0Z" stroke="none"/>
          <path d="M 42.49984741210938 3 C 37.16608810424805 3 31.99344635009766 4.043960571289062 27.12564849853516 6.102867126464844 C 22.42239379882812 8.092170715332031 18.19780731201172 10.94066619873047 14.56923675537109 14.56923675537109 C 10.940673828125 18.19779968261719 8.092170715332031 22.42238616943359 6.102859497070312 27.12563705444336 C 4.043952941894531 31.99345016479492 2.999992370605469 37.16607666015625 2.999992370605469 42.50034332275391 C 2.999992370605469 47.8341064453125 4.043952941894531 53.00674438476562 6.102859497070312 57.87454223632812 C 8.092170715332031 62.57779693603516 10.940673828125 66.80238342285156 14.56923675537109 70.43094635009766 C 18.19780731201172 74.05951690673828 22.42239379882812 76.90801239013672 27.12564849853516 78.89731597900391 C 31.99344635009766 80.95622253417969 37.16608810424805 82.00018310546875 42.49984741210938 82.00018310546875 C 47.8336067199707 82.00018310546875 53.00624847412109 80.95622253417969 57.87404632568359 78.89731597900391 C 62.57730102539062 76.90801239013672 66.80188751220703 74.05951690673828 70.43045043945312 70.43094635009766 C 74.05902099609375 66.80238342285156 76.90751647949219 62.57779693603516 78.89682006835938 57.87454223632812 C 80.95572662353516 53.00674438476562 81.99968719482422 47.8341064453125 81.99968719482422 42.49985122680664 C 81.99968719482422 37.16607666015625 80.95572662353516 31.99345016479492 78.89682006835938 27.12563705444336 C 76.90751647949219 22.42238616943359 74.05902099609375 18.19779968261719 70.43045043945312 14.56923675537109 C 66.80188751220703 10.94066619873047 62.57730102539062 8.092170715332031 57.87404632568359 6.102867126464844 C 53.00624847412109 4.043960571289062 47.8336067199707 3 42.49984741210938 3 M 42.49984741210938 0 C 65.97186279296875 0 84.99968719482422 19.02782440185547 84.99968719482422 42.49985122680664 L 84.99968719482422 42.50034332275391 C 84.99968719482422 65.97235870361328 65.97186279296875 85.00018310546875 42.49984741210938 85.00018310546875 C 19.02783203125 85.00018310546875 -7.62939453125e-06 65.97235870361328 -7.62939453125e-06 42.50034332275391 L -7.62939453125e-06 42.49985122680664 C -7.62939453125e-06 19.02782440185547 19.02783203125 0 42.49984741210938 0 Z" stroke="none" fill="#fff"/>
        </g>
      </g>
    </g>
    <g id="leaf" transform="translate(826.353 1970.999)">
      <path id="Path_900239" data-name="Path 900239" d="M42.934,16.967c0,9.859-6.573,9.859-6.573,15.61H21.573c0-5.751-6.573-5.751-6.573-15.61A13.967,13.967,0,0,1,28.967,3h.049A13.967,13.967,0,0,1,42.934,16.967Z" transform="translate(-4.319 -2.178)" fill="#ffde55"/>
      <path id="Path_900240" data-name="Path 900240" d="M44.163,17.527c0,9.859-6.573,9.859-6.573,15.61H22.8a6.094,6.094,0,0,0-.912-3.286H34.3c0-5.751,6.573-5.751,6.573-15.61a13.885,13.885,0,0,0-2.6-8.1,13.94,13.94,0,0,1,5.883,11.387Z" transform="translate(-5.549 -2.739)" fill="#ffcd00"/>
      <path id="Path_900241" data-name="Path 900241" d="M40.655,25.49s.074,3.952-2.153,5.521-4.888,1.619-5.924.131-.082-3.96,2.153-5.521S40.655,25.49,40.655,25.49Z" transform="translate(-7.381 -6.084)" fill="#ccfc5c"/>
      <path id="Path_900242" data-name="Path 900242" d="M38.522,31.041c-2.235,1.561-4.888,1.619-5.924.131a2.211,2.211,0,0,1-.329-.723A5.587,5.587,0,0,0,36.879,29.4c1.446-1.019,1.923-3.04,2.079-4.338a10.164,10.164,0,0,1,1.717.46S40.749,29.472,38.522,31.041Z" transform="translate(-7.401 -6.114)" fill="#a4e276"/>
      <path id="Path_900243" data-name="Path 900243" d="M56.361,11.465V35.291l-6.573,8.216h-11.5l-1.4-3.138-1.528-3.434L35,36.112l1.315-2.465L39.4,27.855l1.438-2.695.731-1.372h1.643a1.643,1.643,0,0,1,1.61,1.331,1.3,1.3,0,0,1,.033.312V36.112L51.432,27.9V11.465a2.465,2.465,0,1,1,4.929,0Z" transform="translate(-7.888 -3.249)" fill="#ffdaaa"/>
      <path id="Path_900244" data-name="Path 900244" d="M51.788,51v3.286H37V51H51.788Z" transform="translate(-8.245 -10.742)" fill="#ffe477"/>
      <path id="Path_900245" data-name="Path 900245" d="M39,55H50.5v4.929H39Z" transform="translate(-8.601 -11.456)" fill="#ffdaaa"/>
      <path id="Path_900246" data-name="Path 900246" d="M40.655,16.151s.074,3.96-2.153,5.521-4.888,1.627-5.924.14a2.4,2.4,0,0,1-.419-1.4,5.189,5.189,0,0,1,2-3.672,6.272,6.272,0,0,1,.575-.444c2.226-1.561,5.924-.14,5.924-.14Z" transform="translate(-7.381 -4.419)" fill="#ccfc5c"/>
      <path id="Path_900247" data-name="Path 900247" d="M33.881,43l1.528,3.434a4.93,4.93,0,0,1-3.533,1.5H30.233a4.93,4.93,0,0,1-3.533-1.5L28.228,43Z" transform="translate(-6.407 -9.315)" fill="#ffe477"/>
      <path id="Path_900248" data-name="Path 900248" d="M34.959,39l-1.315,2.465.361.822H28.353l.361-.822L27.4,39h7.559Z" transform="translate(-6.532 -8.601)" fill="#e0e0e2"/>
      <path id="Path_900249" data-name="Path 900249" d="M34.286,41.465l.361.822H31.361L31,41.465,32.315,39H35.6Z" transform="translate(-7.174 -8.601)" fill="#c6c5ca"/>
      <path id="Path_900250" data-name="Path 900250" d="M34.573,10.759a5.881,5.881,0,0,1-1.454,4.091,2.606,2.606,0,0,1-1.832.838c-1.816,0-3.286-2.2-3.286-4.929S31.286,5.83,31.286,5.83,34.573,8.04,34.573,10.759Z" transform="translate(-6.639 -2.683)" fill="#ccfc5c"/>
      <path id="Path_900251" data-name="Path 900251" d="M38.52,21.7c-2.235,1.561-4.888,1.627-5.924.14a2.2,2.2,0,0,1-.337-.731,5.587,5.587,0,0,0,4.617-1.052c1.446-1.011,1.923-3.032,2.07-4.33a9.993,9.993,0,0,1,1.725.452s.074,3.96-2.153,5.521Z" transform="translate(-7.399 -4.45)" fill="#a4e276"/>
      <path id="Path_900252" data-name="Path 900252" d="M34.73,10.836a5.881,5.881,0,0,1-1.454,4.091,2.606,2.606,0,0,1-1.832.838,3.047,3.047,0,0,1-2.563-1.84,2.233,2.233,0,0,0,.92.2,2.606,2.606,0,0,0,1.832-.838,5.881,5.881,0,0,0,1.454-4.091A4.956,4.956,0,0,0,31.92,6.26c.912.739,2.81,2.514,2.81,4.576Z" transform="translate(-6.796 -2.76)" fill="#a4e276"/>
      <path id="Path_900253" data-name="Path 900253" d="M27.424,16.291c2.235,1.561,3.2,4.034,2.153,5.521s-3.689,1.421-5.924-.14S21.5,16.151,21.5,16.151,25.2,14.73,27.424,16.291Z" transform="translate(-5.479 -4.419)" fill="#ccfc5c"/>
      <path id="Path_900254" data-name="Path 900254" d="M30,29.738a2.4,2.4,0,0,1-.419,1.4c-1.035,1.487-3.689,1.43-5.924-.131a3.728,3.728,0,0,1-.394-.32L21.82,28a10.3,10.3,0,0,1-.32-2.506s3.7-1.43,5.924.131A5.471,5.471,0,0,1,30,29.738Z" transform="translate(-5.479 -6.084)" fill="#ccfc5c"/>
      <path id="Path_900255" data-name="Path 900255" d="M23.047,33.647l1.315,2.465L24,36.934l-1.528,3.434-1.4,3.138H9.573L3,35.291V11.465a2.465,2.465,0,1,1,4.929,0V27.9L14.5,36.112V25.432a1.3,1.3,0,0,1,.033-.312,1.643,1.643,0,0,1,1.61-1.331h1.643l.731,1.372,1.438,2.695Z" transform="translate(-2.178 -3.249)" fill="#ffdaaa"/>
      <path id="Path_900256" data-name="Path 900256" d="M23.788,51v3.286H9V51H23.788Z" transform="translate(-3.249 -10.742)" fill="#ffe477"/>
      <path id="Path_900257" data-name="Path 900257" d="M11,55H22.5v4.929H11Z" transform="translate(-3.606 -11.456)" fill="#ffdaaa"/>
      <path id="Path_900258" data-name="Path 900258" d="M39,55H50.5v2.465H39Z" transform="translate(-8.601 -11.456)" fill="#ffc477"/>
      <path id="Path_900259" data-name="Path 900259" d="M11,55H22.5v2.465H11Z" transform="translate(-3.606 -11.456)" fill="#ffc477"/>
      <path id="Path_900260" data-name="Path 900260" d="M48.009,6.929a3.286,3.286,0,0,0-3.286,3.286V26.36l-4.929,6.162V24.183a.9.9,0,0,0-.016-.148,14.738,14.738,0,0,0,1.66-7.246,14.788,14.788,0,1,0-29.577,0,14.738,14.738,0,0,0,1.66,7.246.9.9,0,0,0-.016.148v8.339L8.573,26.36V10.216a3.286,3.286,0,1,0-6.573,0V34.042a.8.8,0,0,0,.181.509l5.513,6.893a.822.822,0,0,0-.764.813v3.286a.822.822,0,0,0,.822.822h.822v4.108a.822.822,0,0,0,.822.822H20.9a.822.822,0,0,0,.822-.822V46.365h.822a.822.822,0,0,0,.822-.822V42.258a.822.822,0,0,0-.822-.822h-.378l.444-.994a5.751,5.751,0,0,0,3.221.994h1.643a5.751,5.751,0,0,0,3.221-.994l.444.994h-.378a.822.822,0,0,0-.822.822v3.286a.822.822,0,0,0,.822.822h.822v4.108a.822.822,0,0,0,.822.822H43.9a.822.822,0,0,0,.822-.822V46.365h.822a.822.822,0,0,0,.822-.822V42.258a.822.822,0,0,0-.764-.813l5.513-6.893a.8.8,0,0,0,.181-.509V10.216A3.286,3.286,0,0,0,48.009,6.929ZM13.5,16.788a13.145,13.145,0,1,1,26.291,0,13.734,13.734,0,0,1-.969,5.447,2.424,2.424,0,0,0-1.5-.518H36.087c.008-.189.008-.312.008-.329a.811.811,0,0,0-.526-.748,10.8,10.8,0,0,0-2.243-.559,2.771,2.771,0,0,0,.263-.156c2.555-1.791,2.506-6.03,2.506-6.211a.828.828,0,0,0-.526-.748,9.7,9.7,0,0,0-5.192-.444,8.007,8.007,0,0,0,.378-2.448c0-3.122-3.5-5.513-3.648-5.611a.849.849,0,0,0-.92,0c-.148.1-3.648,2.489-3.648,5.611a8.007,8.007,0,0,0,.378,2.448,9.783,9.783,0,0,0-5.192.444.828.828,0,0,0-.526.748c0,.181-.049,4.42,2.506,6.211a2.769,2.769,0,0,0,.263.156,10.8,10.8,0,0,0-2.243.559.811.811,0,0,0-.526.748c0,.016,0,.14.008.329H15.967a2.424,2.424,0,0,0-1.5.518,13.734,13.734,0,0,1-.969-5.447Zm14.369,2.128a2.116,2.116,0,0,1-.058-1.955,5.5,5.5,0,0,1,2-2.415c1.388-.978,3.6-.509,4.617-.222-.09,1.232-.493,3.352-1.791,4.256A5.519,5.519,0,0,1,29.7,19.648a2.125,2.125,0,0,1-1.824-.731Zm.624,2.243a7.692,7.692,0,0,0-1.027.969V20.74A3.7,3.7,0,0,0,28.5,21.159Zm-1.849-6.975c-1.339,0-2.465-1.881-2.465-4.108,0-1.692,1.643-3.237,2.465-3.9.961.772,2.465,2.325,2.465,3.9C29.112,12.3,27.987,14.184,26.647,14.184Zm-1.167,2.777a2.116,2.116,0,0,1-.058,1.955,2.125,2.125,0,0,1-1.824.731A5.519,5.519,0,0,1,20.65,18.58c-1.388-.969-1.709-3.2-1.783-4.256,1.019-.288,3.221-.748,4.609.222a5.5,5.5,0,0,1,2,2.415Zm.345,3.779v1.388a7.692,7.692,0,0,0-1.027-.969A3.7,3.7,0,0,0,25.826,20.74Zm-2.35,1.471a5.068,5.068,0,0,1,2.185,3.023,1.62,1.62,0,0,1-1.421,2.038,5.155,5.155,0,0,1-3.59-1.019,2.284,2.284,0,0,1-.222-.173l-1.315-2.465A9.871,9.871,0,0,1,18.867,22c1.011-.3,3.221-.756,4.609.214Zm.214,6.745a4.676,4.676,0,0,0,.838-.074,3.816,3.816,0,0,0,1.3-.468v3.163H23.361l-1.569-2.941a6.3,6.3,0,0,0,1.9.32Zm5.365,4.264L28.3,34.863H25L24.24,33.22Zm-1.586-1.643V28.414a3.815,3.815,0,0,0,1.3.468,4.675,4.675,0,0,0,.838.074,6.3,6.3,0,0,0,1.9-.32l-1.569,2.941Zm1.586-4.305a1.62,1.62,0,0,1-1.421-2.038,5.068,5.068,0,0,1,2.185-3.023c1.388-.969,3.6-.509,4.609-.214a9.871,9.871,0,0,1-.246,1.619l-1.315,2.465c-.074.058-.14.123-.214.173A5.185,5.185,0,0,1,29.055,27.272Zm-8.98,22.38H10.216V46.365h9.859Zm1.643-4.929H8.573V43.079H21.718Zm-1.356-3.286H9.789L3.643,33.754V10.216a1.643,1.643,0,1,1,3.286,0V26.647a.8.8,0,0,0,.181.509l6.573,8.216a.808.808,0,0,0,.912.263.822.822,0,0,0,.55-.772V24.183a.822.822,0,0,1,.822-.822h1.15L23.271,34.9Zm7.107-1.643H25.826a4.108,4.108,0,0,1-2.53-.9l1.06-2.383H28.94L30,38.889a4.108,4.108,0,0,1-2.53.9Zm15.61,9.859H33.22V46.365h9.859Zm1.643-4.929H31.577V43.079H44.722Zm4.929-10.968-6.145,7.682H32.933L30.024,34.9l6.154-11.535h1.15a.822.822,0,0,1,.822.822V34.863a.822.822,0,0,0,.55.772.808.808,0,0,0,.912-.263l6.573-8.216a.8.8,0,0,0,.181-.509V10.216a1.643,1.643,0,1,1,3.286,0Z" transform="translate(-2 -2)"/>
    </g>
  </g>
</svg>
