<svg xmlns="http://www.w3.org/2000/svg" xmlns:xlink="http://www.w3.org/1999/xlink" width="420" height="168" viewBox="0 0 420 168">
  <defs>
    <clipPath id="clip-path">
      <rect id="Rectangle_406628" data-name="Rectangle 406628" width="420" height="168" transform="translate(179.746 1199)" fill="#e0edd6"/>
    </clipPath>
    <clipPath id="clip-path-2">
      <rect id="Rectangle_406627" data-name="Rectangle 406627" width="423.228" height="293.124" transform="translate(0 0)" fill="none"/>
    </clipPath>
    <clipPath id="clip-path-3">
      <rect id="Rectangle_406626" data-name="Rectangle 406626" width="158.37" height="305.873" transform="translate(0 0)" fill="none"/>
    </clipPath>
  </defs>
  <g id="Mask_Group_1098739" data-name="Mask Group 1098739" transform="translate(-179.746 -1199)" clip-path="url(#clip-path)">
    <rect id="Rectangle_406456" data-name="Rectangle 406456" width="420" height="168" transform="translate(179.746 1199)" fill="#e0edd6"/>
    <g id="Group_1113220" data-name="Group 1113220" transform="translate(176.518 1191.86)">
      <g id="Group_1113219" data-name="Group 1113219" transform="translate(0 0.005)" clip-path="url(#clip-path-2)">
        <path id="Path_902140" data-name="Path 902140" d="M423.228,587.393H96.493A33.367,33.367,0,0,0,75.6,594.745L4.433,643.616q-.686-2.781-1.261-5.532a152.489,152.489,0,0,1-2.69-18.3Q.365,618.4.276,617.039q-.137-2.025-.213-4.029c-.026-.625-.046-1.247-.063-1.867l74.486-39.28q1.154-.724,2.347-1.369a42.108,42.108,0,0,1,20.051-5.08H419.516q.323,1.184.622,2.386.2.8.386,1.61.289,1.242.55,2.5a119.565,119.565,0,0,1,2.154,15.481" transform="translate(0 -501.704)" fill="#fff"/>
        <path id="Path_902141" data-name="Path 902141" d="M552.855,1170.164q-1.242,5.336-2.754,10.526-1.691,5.819-3.71,11.453h-312.2c-.193,0-.385,0-.576,0a34.912,34.912,0,0,0-14.391,3.28q-.229.1-.458.213a65.021,65.021,0,0,0-11.529,7.284l-43.017,35.027q-2.11-3.186-4.055-6.357-1.422-2.321-2.759-4.63-2.208-3.814-4.183-7.6c-.15-.285-.3-.569-.444-.853q-.516-1-1.016-2-.493-.98-.97-1.96l57.435-36.8q1.025-.753,2.091-1.434a39.115,39.115,0,0,1,21.058-6.158Z" transform="translate(-133.799 -1038.313)" fill="#fff"/>
        <path id="Path_902142" data-name="Path 902142" d="M786.9,1774.915q-.816,1.186-1.65,2.358-.848,1.2-1.714,2.375-.958,1.308-1.937,2.6c-.071.093-.141.187-.213.279q-3.451,4.549-7.142,8.885-2.366,2.783-4.825,5.48H500.242c-1.573,0-3.013.016-4.357.073-5.427.237-9.31,1.182-14.21,4.7a72.172,72.172,0,0,0-8.764,7.772l-8.222,8.363q-.771-.735-1.535-1.479-.688-.666-1.372-1.346-.872-.863-1.733-1.744-3.69-3.758-7.122-7.509-1.206-1.316-2.379-2.632-1.02-1.137-2.012-2.276l22.84-17.292q.406-.309.821-.605a42.48,42.48,0,0,1,24.822-8.007Z" transform="translate(-397.996 -1574.922)" fill="#fff"/>
        <path id="Path_902143" data-name="Path 902143" d="M1073.007,597.168c0-1.018-7.318-1.843-16.344-1.843s-16.344.825-16.344,1.843,7.318,1.843,16.344,1.843,16.344-.825,16.344-1.843" transform="translate(-923.097 -528.246)" fill="#34313c"/>
        <path id="Path_902144" data-name="Path 902144" d="M416.938,657.225c-.484-.9-7.313,1.86-15.253,6.154s-13.984,8.5-13.5,9.4,7.313-1.86,15.253-6.154,13.984-8.5,13.5-9.4" transform="translate(-344.421 -583.021)" fill="#34313c"/>
        <path id="Path_902145" data-name="Path 902145" d="M3.6,934.994c-.964.521-1.912,1.02-2.834,1.493q-.137-2.025-.213-4.029c.425-.235.856-.472,1.292-.708,7.939-4.295,14.769-7.05,15.253-6.155s-5.559,5.1-13.5,9.4" transform="translate(-0.492 -821.152)" fill="#34313c"/>
        <path id="Path_902146" data-name="Path 902146" d="M435.418,1287.685c-.544-.861-7.171,2.35-14.8,7.172s-13.377,9.428-12.833,10.289,7.171-2.35,14.8-7.172,13.377-9.428,12.833-10.289" transform="translate(-361.804 -1142.468)" fill="#34313c"/>
        <path id="Path_902147" data-name="Path 902147" d="M468.77,1981.594q-1.206-1.316-2.379-2.632c5.582-3.952,10-6.406,10.506-5.736s-2.944,4.15-8.127,8.368" transform="translate(-413.839 -1750.791)" fill="#34313c"/>
        <path id="Path_902148" data-name="Path 902148" d="M160.857,1560.214c-.15-.285-.3-.569-.444-.853q-.516-1-1.016-2c4.218-2.284,7.243-3.5,7.6-2.929s-2.132,2.869-6.143,5.778" transform="translate(-141.437 -1379.162)" fill="#34313c"/>
        <path id="Path_902149" data-name="Path 902149" d="M1607.254,597.168c0-1.018-7.318-1.843-16.344-1.843s-16.344.825-16.344,1.843,7.318,1.843,16.344,1.843,16.344-.825,16.344-1.843" transform="translate(-1397.146 -528.246)" fill="#34313c"/>
        <path id="Path_902150" data-name="Path 902150" d="M2141.5,597.168c0-1.018-7.318-1.843-16.344-1.843s-16.344.825-16.344,1.843,7.317,1.843,16.344,1.843,16.344-.825,16.344-1.843" transform="translate(-1871.195 -528.246)" fill="#34313c"/>
        <path id="Path_902151" data-name="Path 902151" d="M2675.746,597.168c0-1.018-7.318-1.843-16.344-1.843s-16.344.825-16.344,1.843,7.318,1.843,16.344,1.843,16.344-.825,16.344-1.843" transform="translate(-2345.243 -528.246)" fill="#34313c"/>
        <path id="Path_902152" data-name="Path 902152" d="M3209.992,597.168c0-1.018-7.318-1.843-16.345-1.843s-16.344.825-16.344,1.843,7.317,1.843,16.344,1.843,16.345-.825,16.345-1.843" transform="translate(-2819.292 -528.246)" fill="#34313c"/>
        <path id="Path_902153" data-name="Path 902153" d="M1073.007,1205.754c0-1.018-7.318-1.843-16.344-1.843s-16.344.825-16.344,1.843,7.318,1.843,16.344,1.843,16.344-.825,16.344-1.843" transform="translate(-923.097 -1068.257)" fill="#34313c"/>
        <path id="Path_902154" data-name="Path 902154" d="M1607.254,1205.754c0-1.018-7.318-1.843-16.344-1.843s-16.344.825-16.344,1.843,7.318,1.843,16.344,1.843,16.344-.825,16.344-1.843" transform="translate(-1397.146 -1068.257)" fill="#34313c"/>
        <path id="Path_902155" data-name="Path 902155" d="M2141.5,1205.754c0-1.018-7.318-1.843-16.344-1.843s-16.344.825-16.344,1.843,7.317,1.843,16.344,1.843,16.344-.825,16.344-1.843" transform="translate(-1871.195 -1068.257)" fill="#34313c"/>
        <path id="Path_902156" data-name="Path 902156" d="M2675.746,1205.754c0-1.018-7.318-1.843-16.344-1.843s-16.344.825-16.344,1.843,7.318,1.843,16.344,1.843,16.344-.825,16.344-1.843" transform="translate(-2345.243 -1068.257)" fill="#34313c"/>
        <path id="Path_902157" data-name="Path 902157" d="M3209.992,1205.754c0-1.018-7.318-1.843-16.345-1.843s-16.344.825-16.344,1.843,7.317,1.843,16.344,1.843,16.345-.825,16.345-1.843" transform="translate(-2819.292 -1068.257)" fill="#34313c"/>
        <path id="Path_902158" data-name="Path 902158" d="M3700.528,603.382c-2.864-.332-4.628-.786-4.628-1.285,0-.467,1.541-.894,4.078-1.218q.289,1.242.55,2.5" transform="translate(-3279.454 -533.174)" fill="#34313c"/>
        <path id="Path_902159" data-name="Path 902159" d="M1073.007,1814.339c0-1.018-7.318-1.843-16.344-1.843s-16.344.825-16.344,1.843,7.318,1.844,16.344,1.844,16.344-.825,16.344-1.844" transform="translate(-923.097 -1608.268)" fill="#34313c"/>
        <path id="Path_902160" data-name="Path 902160" d="M1607.254,1814.339c0-1.018-7.318-1.843-16.344-1.843s-16.344.825-16.344,1.843,7.318,1.844,16.344,1.844,16.344-.825,16.344-1.844" transform="translate(-1397.146 -1608.268)" fill="#34313c"/>
        <path id="Path_902161" data-name="Path 902161" d="M2141.5,1814.339c0-1.018-7.318-1.843-16.344-1.843s-16.344.825-16.344,1.843,7.317,1.844,16.344,1.844,16.344-.825,16.344-1.844" transform="translate(-1871.195 -1608.268)" fill="#34313c"/>
        <path id="Path_902162" data-name="Path 902162" d="M2675.746,1814.339c0-1.018-7.318-1.843-16.344-1.843s-16.344.825-16.344,1.843,7.318,1.844,16.344,1.844,16.344-.825,16.344-1.844" transform="translate(-2345.243 -1608.268)" fill="#34313c"/>
        <path id="Path_902163" data-name="Path 902163" d="M3204.828,1812.994q-.958,1.308-1.937,2.6c-.071.093-.141.187-.213.279-2.587.194-5.694.307-9.034.307-9.026,0-16.344-.825-16.344-1.843s7.318-1.844,16.344-1.844a111.2,111.2,0,0,1,11.185.5" transform="translate(-2819.288 -1608.268)" fill="#34313c"/>
        <path id="Path_902164" data-name="Path 902164" d="M1404.741,6.291V293.129q-6.11-.98-12.156-2.332V0q5.834,2.913,12.156,6.286" transform="translate(-1235.672 -0.005)" fill="#fff"/>
        <path id="Path_902165" data-name="Path 902165" d="M2475.713,234.669V486.733q-6.016,2.456-12.156,4.575V238.216q5.783-1.521,12.156-3.547" transform="translate(-2185.969 -208.228)" fill="#fff"/>
        <path id="Path_902166" data-name="Path 902166" d="M3546.684,245.55V363.57q-.464,1.182-.943,2.357-2.157,5.289-4.594,10.4-3.094,6.494-6.618,12.691V229.842a72.339,72.339,0,0,1,12.156,15.708" transform="translate(-3136.265 -203.944)" fill="#fff"/>
        <path id="Path_902167" data-name="Path 902167" d="M1029.483,94.658a0,0,0,0,0,0,0c-.029-.539-.881-15.173-7.748-22.561-2.953-3.177-9.782-.633-6.887,5.757,3.647,8.05,11.311,12.837,14.636,16.82a.1.1,0,0,0,0-.013" transform="translate(-899.876 -62.76)" fill="#bcbc46"/>
        <path id="Path_902168" data-name="Path 902168" d="M1113.416,238.586a.394.394,0,0,1-.394-.382c-.081-2.684.046-5.519.168-8.261.142-3.169.288-6.445.116-9.515a66.964,66.964,0,0,0-8.831-30.063.394.394,0,1,1,.68-.4,67.755,67.755,0,0,1,8.939,30.418c.175,3.11.027,6.406-.115,9.595-.122,2.727-.248,5.547-.168,8.2a.394.394,0,0,1-.382.406h-.012" transform="translate(-979.977 -168.388)" fill="#70701c"/>
        <path id="Path_902169" data-name="Path 902169" d="M1198.675,289.22c-3.677,9.1-2.867,20.65-3.707,27.031,0,0,10.644-9.761,11.774-22.7.476-5.461-5.148-11.553-8.067-4.328" transform="translate(-1060.322 -253.701)" fill="#bcbc46"/>
        <path id="Path_902170" data-name="Path 902170" d="M1181.131,373.562a.395.395,0,0,1-.384-.486,30.829,30.829,0,0,1,2.121-5.645c1.735-3.865,4.112-9.159,6.889-21.074a.394.394,0,1,1,.768.179c-2.794,11.989-5.189,17.323-6.937,21.218a30.273,30.273,0,0,0-2.073,5.5.4.4,0,0,1-.383.3" transform="translate(-1047.693 -307.061)" fill="#70701c"/>
        <path id="Path_902171" data-name="Path 902171" d="M1152.98,123.925c-1.049-4.715-6.873-6.693-7.586-.087-.979,9.067,3.481,18.465,4.48,24.1a0,0,0,0,1,0,0c.07-.162,5.576-12.908,3.1-24.008" transform="translate(-1016.21 -106.126)" fill="#bcbc46"/>
        <path id="Path_902172" data-name="Path 902172" d="M1179.143,194.4h-.028a.394.394,0,0,1-.366-.421c.061-.872.155-1.752.263-2.772.475-4.476,1.125-10.606,0-24.447a.394.394,0,0,1,.786-.064c1.135,13.914.453,20.341,0,24.594-.107,1.012-.2,1.886-.26,2.744a.394.394,0,0,1-.393.367" transform="translate(-1045.93 -147.59)" fill="#70701c"/>
        <path id="Path_902173" data-name="Path 902173" d="M1054.793,293.576c-2.978-3.515-9.31-1.724-6.657,5.186,3.343,8.7,10.821,14.4,14.063,18.856,0-.179-.224-15.564-7.406-24.042" transform="translate(-929.471 -258.942)" fill="#bcbc46"/>
        <path id="Path_902174" data-name="Path 902174" d="M1099.127,359.408a.4.4,0,0,1-.38-.288c-.078-.28-.155-.559-.232-.841-1.158-4.211-2.47-8.984-10.312-22.649a.394.394,0,0,1,.684-.392c7.891,13.752,9.218,18.576,10.388,22.832.077.281.154.559.232.838a.395.395,0,0,1-.38.5" transform="translate(-965.541 -297.288)" fill="#70701c"/>
        <path id="Path_902175" data-name="Path 902175" d="M359.991,200.9a0,0,0,0,0,0,0c-.029-.539-.881-15.173-7.748-22.561-2.953-3.177-9.782-.633-6.887,5.757,3.647,8.05,11.311,12.837,14.636,16.82a.1.1,0,0,0,0-.013" transform="translate(-305.821 -157.033)" fill="#bcbc46"/>
        <path id="Path_902176" data-name="Path 902176" d="M443.924,344.83a.394.394,0,0,1-.394-.382c-.081-2.684.046-5.519.168-8.26.142-3.169.288-6.445.116-9.516a66.963,66.963,0,0,0-8.831-30.063.394.394,0,1,1,.68-.4,67.755,67.755,0,0,1,8.939,30.418c.175,3.11.027,6.407-.115,9.6-.122,2.727-.248,5.547-.168,8.2a.394.394,0,0,1-.382.406h-.012" transform="translate(-385.922 -262.661)" fill="#70701c"/>
        <path id="Path_902177" data-name="Path 902177" d="M529.183,395.465c-3.677,9.1-2.867,20.65-3.707,27.031,0,0,10.644-9.761,11.774-22.7.477-5.461-5.148-11.553-8.067-4.328" transform="translate(-466.267 -347.974)" fill="#bcbc46"/>
        <path id="Path_902178" data-name="Path 902178" d="M511.639,479.807a.395.395,0,0,1-.384-.486,30.843,30.843,0,0,1,2.121-5.645c1.735-3.865,4.112-9.159,6.889-21.074a.394.394,0,1,1,.768.179C518.239,464.771,515.844,470.1,514.1,474a30.271,30.271,0,0,0-2.073,5.5.4.4,0,0,1-.383.3" transform="translate(-453.638 -401.335)" fill="#70701c"/>
        <path id="Path_902179" data-name="Path 902179" d="M483.488,230.17c-1.049-4.715-6.873-6.693-7.586-.087-.979,9.067,3.481,18.465,4.48,24.1a0,0,0,0,1,0,0c.07-.162,5.576-12.908,3.1-24.008" transform="translate(-422.155 -200.4)" fill="#bcbc46"/>
        <path id="Path_902180" data-name="Path 902180" d="M509.652,300.642h-.028a.394.394,0,0,1-.366-.421c.061-.872.155-1.753.263-2.772.475-4.476,1.125-10.606,0-24.446a.394.394,0,1,1,.786-.064c1.135,13.914.453,20.341,0,24.594-.107,1.012-.2,1.886-.26,2.744a.394.394,0,0,1-.393.367" transform="translate(-451.875 -241.862)" fill="#70701c"/>
        <path id="Path_902181" data-name="Path 902181" d="M385.3,399.821c-2.978-3.515-9.31-1.724-6.657,5.186,3.343,8.7,10.821,14.4,14.063,18.856,0-.179-.224-15.564-7.406-24.042" transform="translate(-335.416 -353.215)" fill="#bcbc46"/>
        <path id="Path_902182" data-name="Path 902182" d="M429.635,465.653a.4.4,0,0,1-.38-.288c-.078-.28-.155-.56-.233-.841-1.158-4.211-2.47-8.984-10.311-22.649a.394.394,0,0,1,.684-.393c7.891,13.752,9.217,18.576,10.388,22.832.077.281.154.559.232.838a.395.395,0,0,1-.38.5" transform="translate(-371.486 -391.562)" fill="#70701c"/>
        <path id="Path_902183" data-name="Path 902183" d="M1568.258,94.66v0a52.733,52.733,0,0,0-3.662-16.033,23.029,23.029,0,0,0-4.086-6.528,4.534,4.534,0,0,0-6.906.495c-.811,1.215-1.007,3,.02,5.262,3.647,8.05,11.311,12.837,14.636,16.82a.1.1,0,0,0,0-.013" transform="translate(-1377.943 -62.762)" fill="#bcbc46"/>
        <path id="Path_902184" data-name="Path 902184" d="M1652.192,238.586a.394.394,0,0,1-.394-.382c-.081-2.684.046-5.519.168-8.261.142-3.169.288-6.445.116-9.516a66.964,66.964,0,0,0-8.831-30.063.394.394,0,1,1,.68-.4,67.754,67.754,0,0,1,8.939,30.418c.175,3.11.027,6.407-.116,9.595-.122,2.727-.248,5.547-.168,8.2a.394.394,0,0,1-.382.406h-.012" transform="translate(-1458.044 -168.388)" fill="#70701c"/>
        <path id="Path_902185" data-name="Path 902185" d="M1737.449,289.22c-3.677,9.1-2.868,20.65-3.707,27.031,0,0,10.644-9.761,11.774-22.7.476-5.461-5.148-11.553-8.067-4.328" transform="translate(-1538.388 -253.701)" fill="#bcbc46"/>
        <path id="Path_902186" data-name="Path 902186" d="M1719.906,373.562a.395.395,0,0,1-.384-.486,30.839,30.839,0,0,1,2.121-5.645c1.735-3.865,4.112-9.159,6.889-21.073a.394.394,0,1,1,.768.179c-2.794,11.989-5.189,17.323-6.937,21.218a30.266,30.266,0,0,0-2.073,5.5.4.4,0,0,1-.383.3" transform="translate(-1525.76 -307.061)" fill="#70701c"/>
        <path id="Path_902187" data-name="Path 902187" d="M1692.342,128.251a26.976,26.976,0,0,0-.586-4.325c-1.047-4.7-6.844-6.683-7.581-.135,0,.016,0,.032,0,.048-.979,9.067,3.481,18.465,4.48,24.1a0,0,0,0,1,0,0c.062-.142,4.253-9.844,3.691-19.684" transform="translate(-1494.278 -106.127)" fill="#bcbc46"/>
        <path id="Path_902188" data-name="Path 902188" d="M1717.919,194.4h-.028a.394.394,0,0,1-.366-.421c.061-.872.155-1.752.263-2.772.475-4.476,1.125-10.606,0-24.446a.394.394,0,0,1,.786-.064c1.135,13.914.453,20.341,0,24.594-.107,1.012-.2,1.886-.26,2.744a.394.394,0,0,1-.393.367" transform="translate(-1523.997 -147.59)" fill="#70701c"/>
        <path id="Path_902189" data-name="Path 902189" d="M1593.568,293.576c-2.978-3.515-9.31-1.724-6.657,5.186,3.343,8.7,10.821,14.4,14.063,18.856,0-.179-.224-15.564-7.406-24.042" transform="translate(-1407.538 -258.942)" fill="#bcbc46"/>
        <path id="Path_902190" data-name="Path 902190" d="M1637.9,359.408a.394.394,0,0,1-.38-.288c-.078-.28-.155-.559-.233-.841-1.158-4.211-2.47-8.984-10.311-22.649a.394.394,0,1,1,.684-.392c7.891,13.752,9.218,18.576,10.388,22.832.077.281.154.559.232.838a.395.395,0,0,1-.38.5" transform="translate(-1443.609 -297.288)" fill="#70701c"/>
        <path id="Path_902191" data-name="Path 902191" d="M2107.033,94.658a0,0,0,0,0,0,0c-.029-.539-.881-15.173-7.748-22.561-2.953-3.177-9.782-.633-6.887,5.757,3.647,8.05,11.311,12.837,14.636,16.82a.129.129,0,0,0,0-.013" transform="translate(-1856.01 -62.76)" fill="#bcbc46"/>
        <path id="Path_902192" data-name="Path 902192" d="M2190.967,238.587a.394.394,0,0,1-.394-.382c-.081-2.684.046-5.519.168-8.26.142-3.169.288-6.445.116-9.516a66.967,66.967,0,0,0-8.832-30.063.394.394,0,0,1,.68-.4,67.752,67.752,0,0,1,8.938,30.418c.175,3.11.027,6.407-.115,9.595-.122,2.727-.248,5.547-.168,8.2a.394.394,0,0,1-.382.406h-.012" transform="translate(-1936.112 -168.389)" fill="#70701c"/>
        <path id="Path_902193" data-name="Path 902193" d="M2281.426,286.55a2.754,2.754,0,0,0-4.12.709,8.169,8.169,0,0,0-1.082,1.961c-3.677,9.1-2.867,20.65-3.708,27.031,0,0,10.645-9.761,11.774-22.7a8.262,8.262,0,0,0-2.865-7" transform="translate(-2016.454 -253.701)" fill="#bcbc46"/>
        <path id="Path_902194" data-name="Path 902194" d="M2258.682,373.562a.395.395,0,0,1-.384-.486,30.839,30.839,0,0,1,2.121-5.645c1.735-3.865,4.112-9.159,6.889-21.073a.394.394,0,1,1,.768.179c-2.794,11.989-5.189,17.323-6.937,21.218a30.255,30.255,0,0,0-2.073,5.5.4.4,0,0,1-.384.3" transform="translate(-2003.828 -307.061)" fill="#70701c"/>
        <path id="Path_902195" data-name="Path 902195" d="M2230.529,123.925c-1.049-4.715-6.873-6.693-7.585-.087-.631,5.834.991,11.8,2.493,16.82a73.149,73.149,0,0,1,1.987,7.276,0,0,0,0,1,0,0,50.811,50.811,0,0,0,2.474-7.775c1.093-4.61,1.878-10.631.63-16.234" transform="translate(-1972.343 -106.126)" fill="#bcbc46"/>
        <path id="Path_902196" data-name="Path 902196" d="M2256.7,194.4h-.028a.394.394,0,0,1-.366-.421c.061-.872.155-1.753.263-2.772.475-4.476,1.125-10.606,0-24.446a.394.394,0,0,1,.786-.064c1.135,13.914.453,20.341,0,24.594-.107,1.012-.2,1.887-.26,2.744a.394.394,0,0,1-.393.367" transform="translate(-2002.066 -147.59)" fill="#70701c"/>
        <path id="Path_902197" data-name="Path 902197" d="M2132.58,293.861c-.078-.1-.156-.19-.236-.284-2.055-2.426-5.708-2.325-6.9.244a6.351,6.351,0,0,0,.247,4.942c3.343,8.7,10.823,14.406,14.063,18.857v0h0c0-.344-.259-15.269-7.17-23.753" transform="translate(-1885.606 -258.943)" fill="#bcbc46"/>
        <path id="Path_902198" data-name="Path 902198" d="M2176.678,359.408a.394.394,0,0,1-.379-.288c-.078-.28-.155-.559-.233-.841-1.158-4.211-2.47-8.983-10.311-22.649a.394.394,0,1,1,.684-.392c7.891,13.752,9.217,18.576,10.388,22.832.077.281.154.559.232.838a.395.395,0,0,1-.38.5" transform="translate(-1921.676 -297.288)" fill="#70701c"/>
        <path id="Path_902199" data-name="Path 902199" d="M2634.8,94.658a0,0,0,0,0,0,0A55.65,55.65,0,0,0,2632.62,82.7a27.439,27.439,0,0,0-5.572-10.6c-2.953-3.177-9.781-.633-6.886,5.757a29.308,29.308,0,0,0,5.116,7.547c3.491,3.848,7.393,6.725,9.52,9.273a.087.087,0,0,0,0-.013" transform="translate(-2324.307 -62.76)" fill="#bcbc46"/>
        <path id="Path_902200" data-name="Path 902200" d="M2718.732,238.587a.394.394,0,0,1-.394-.382c-.082-2.684.045-5.519.168-8.261.142-3.169.288-6.445.116-9.515a66.964,66.964,0,0,0-8.832-30.063.394.394,0,0,1,.68-.4,67.758,67.758,0,0,1,8.939,30.418c.174,3.11.027,6.406-.116,9.594-.122,2.727-.248,5.548-.168,8.2a.394.394,0,0,1-.382.406h-.012" transform="translate(-2404.409 -168.389)" fill="#70701c"/>
        <path id="Path_902201" data-name="Path 902201" d="M2803.988,289.22c-3.677,9.1-2.867,20.65-3.707,27.031,0,0,10.644-9.761,11.774-22.7.477-5.461-5.148-11.553-8.067-4.328" transform="translate(-2484.751 -253.701)" fill="#bcbc46"/>
        <path id="Path_902202" data-name="Path 902202" d="M2786.446,373.562a.395.395,0,0,1-.384-.486,30.854,30.854,0,0,1,2.121-5.645c1.735-3.865,4.112-9.159,6.889-21.074a.394.394,0,1,1,.768.179c-2.794,11.989-5.188,17.323-6.937,21.218a30.257,30.257,0,0,0-2.073,5.5.4.4,0,0,1-.383.3" transform="translate(-2472.125 -307.061)" fill="#70701c"/>
        <path id="Path_902203" data-name="Path 902203" d="M2758.3,123.926a6.556,6.556,0,0,0-.45-1.331c-1.717-3.694-6.494-4.7-7.135,1.244q-.086.8-.118,1.6c-.35,8.558,3.658,17.2,4.6,22.5a0,0,0,0,1,0,0c.07-.162,5.576-12.908,3.1-24.008" transform="translate(-2440.642 -106.127)" fill="#bcbc46"/>
        <path id="Path_902204" data-name="Path 902204" d="M2784.459,194.4h-.028a.394.394,0,0,1-.366-.421c.062-.872.155-1.752.263-2.772.475-4.476,1.125-10.606,0-24.447a.394.394,0,0,1,.786-.064c1.135,13.914.454,20.341,0,24.594-.107,1.012-.2,1.886-.26,2.744a.4.4,0,0,1-.393.367" transform="translate(-2470.362 -147.59)" fill="#70701c"/>
        <path id="Path_902205" data-name="Path 902205" d="M2660.108,293.576c-2.977-3.515-9.31-1.724-6.657,5.186,3.343,8.7,10.823,14.406,14.063,18.857v0h0c0-.348-.265-15.607-7.406-24.037" transform="translate(-2353.903 -258.942)" fill="#bcbc46"/>
        <path id="Path_902206" data-name="Path 902206" d="M2704.443,359.408a.394.394,0,0,1-.379-.288c-.078-.28-.155-.559-.232-.841-1.158-4.211-2.47-8.983-10.312-22.649a.394.394,0,0,1,.684-.392c7.891,13.752,9.218,18.576,10.388,22.832.077.281.154.559.232.838a.395.395,0,0,1-.38.5" transform="translate(-2389.973 -297.288)" fill="#70701c"/>
        <path id="Path_902207" data-name="Path 902207" d="M3162.56,94.657a0,0,0,0,0,0,0c-.029-.539-.881-15.173-7.748-22.561a4.085,4.085,0,0,0-.583-.52,4.631,4.631,0,0,0-4.775-.343c-1.882.958-3.053,3.256-1.528,6.619,3.647,8.05,11.311,12.837,14.636,16.82a.087.087,0,0,0,0-.013" transform="translate(-2792.602 -62.759)" fill="#bcbc46"/>
        <path id="Path_902208" data-name="Path 902208" d="M3246.5,238.587a.394.394,0,0,1-.394-.382c-.082-2.684.045-5.519.168-8.261.142-3.169.288-6.445.116-9.515a66.961,66.961,0,0,0-8.832-30.063.394.394,0,1,1,.68-.4,67.752,67.752,0,0,1,8.939,30.418c.174,3.11.027,6.406-.116,9.594-.122,2.727-.248,5.548-.167,8.2a.4.4,0,0,1-.382.406h-.012" transform="translate(-2872.707 -168.389)" fill="#70701c"/>
        <path id="Path_902209" data-name="Path 902209" d="M3331.753,289.22c-3.677,9.1-2.867,20.65-3.708,27.031,0,0,10.645-9.761,11.774-22.7.477-5.461-5.148-11.553-8.067-4.328" transform="translate(-2953.049 -253.701)" fill="#bcbc46"/>
        <path id="Path_902210" data-name="Path 902210" d="M3314.211,373.562a.395.395,0,0,1-.384-.486,30.82,30.82,0,0,1,2.121-5.645c1.735-3.865,4.112-9.159,6.888-21.074a.394.394,0,1,1,.768.179c-2.794,11.989-5.189,17.323-6.937,21.218a30.257,30.257,0,0,0-2.073,5.5.4.4,0,0,1-.383.3" transform="translate(-2940.423 -307.061)" fill="#70701c"/>
        <path id="Path_902211" data-name="Path 902211" d="M3286.06,123.925c-1.049-4.715-6.873-6.693-7.585-.087-.979,9.067,3.481,18.465,4.48,24.1a0,0,0,0,1,0,0c.07-.162,5.576-12.908,3.1-24.008" transform="translate(-2908.939 -106.126)" fill="#bcbc46"/>
        <path id="Path_902212" data-name="Path 902212" d="M3312.225,194.4h-.028a.394.394,0,0,1-.366-.421c.061-.872.154-1.753.263-2.772.475-4.476,1.125-10.606,0-24.446a.394.394,0,0,1,.786-.064c1.135,13.914.454,20.341,0,24.594-.107,1.012-.2,1.887-.26,2.744a.4.4,0,0,1-.393.367" transform="translate(-2938.661 -147.59)" fill="#70701c"/>
        <path id="Path_902213" data-name="Path 902213" d="M3187.873,293.576c-2.977-3.515-9.31-1.724-6.657,5.186,3.343,8.7,10.823,14.406,14.063,18.857v0h0c0-.348-.265-15.607-7.406-24.037" transform="translate(-2822.2 -258.942)" fill="#bcbc46"/>
        <path id="Path_902214" data-name="Path 902214" d="M3232.208,359.408a.394.394,0,0,1-.38-.288c-.078-.28-.155-.559-.233-.841-1.157-4.211-2.47-8.983-10.311-22.649a.394.394,0,1,1,.684-.392c7.891,13.752,9.218,18.576,10.388,22.832.077.281.154.559.232.838a.395.395,0,0,1-.38.5" transform="translate(-2858.27 -297.288)" fill="#70701c"/>
        <path id="Path_902215" data-name="Path 902215" d="M1029.483,700.519h0a54.286,54.286,0,0,0-3.03-14.474,24.718,24.718,0,0,0-4.718-8.086c-2.953-3.177-9.782-.633-6.887,5.757a24.047,24.047,0,0,0,1.213,2.33c3.93,6.673,10.433,10.907,13.423,14.49a.127.127,0,0,0,0-.014" transform="translate(-899.876 -600.355)" fill="#bcbc46"/>
        <path id="Path_902216" data-name="Path 902216" d="M1113.416,844.445a.394.394,0,0,1-.394-.383c-.081-2.684.046-5.519.168-8.261.142-3.169.288-6.445.116-9.515a66.963,66.963,0,0,0-8.831-30.063.394.394,0,1,1,.68-.4,67.757,67.757,0,0,1,8.939,30.418c.175,3.11.027,6.406-.115,9.594-.122,2.727-.248,5.547-.168,8.2a.394.394,0,0,1-.382.406h-.012" transform="translate(-979.977 -705.98)" fill="#70701c"/>
        <path id="Path_902217" data-name="Path 902217" d="M1198.671,895.078c-3.677,9.1-2.867,20.649-3.707,27.03,0,0,0,0,0,0s10.644-9.761,11.774-22.7c.476-5.461-5.148-11.553-8.067-4.33" transform="translate(-1060.317 -791.292)" fill="#bcbc46"/>
        <path id="Path_902218" data-name="Path 902218" d="M1181.131,979.423a.389.389,0,0,1-.092-.011.394.394,0,0,1-.292-.475,30.826,30.826,0,0,1,2.121-5.645c1.735-3.865,4.112-9.159,6.889-21.074a.394.394,0,1,1,.768.179c-2.794,11.989-5.189,17.323-6.937,21.218a30.275,30.275,0,0,0-2.073,5.5.4.4,0,0,1-.383.3" transform="translate(-1047.693 -844.654)" fill="#70701c"/>
        <path id="Path_902219" data-name="Path 902219" d="M1152.98,729.782c-.029-.128-.06-.254-.1-.377-1.247-4.369-6.628-6.084-7.454,0-.013.1-.025.193-.036.291-.979,9.067,3.481,18.465,4.48,24.095h0c.07-.163,5.576-12.908,3.1-24.008" transform="translate(-1016.21 -643.717)" fill="#bcbc46"/>
        <path id="Path_902220" data-name="Path 902220" d="M1179.143,800.256h-.028a.394.394,0,0,1-.366-.421c.061-.872.155-1.752.263-2.772.475-4.476,1.125-10.606,0-24.447a.394.394,0,0,1,.786-.064c1.135,13.914.453,20.341,0,24.594-.107,1.012-.2,1.886-.26,2.744a.394.394,0,0,1-.393.367" transform="translate(-1045.93 -685.181)" fill="#70701c"/>
        <path id="Path_902221" data-name="Path 902221" d="M1054.793,899.434c-2.978-3.514-9.31-1.723-6.657,5.187,3.343,8.7,10.823,14.4,14.063,18.857v0c0-.23-.236-15.577-7.406-24.042" transform="translate(-929.471 -796.533)" fill="#bcbc46"/>
        <path id="Path_902222" data-name="Path 902222" d="M1099.127,965.266a.4.4,0,0,1-.38-.288c-.078-.28-.155-.56-.232-.841-1.158-4.211-2.47-8.984-10.312-22.649a.394.394,0,0,1,.684-.393c7.891,13.752,9.218,18.576,10.388,22.833.077.281.154.559.232.838a.395.395,0,0,1-.38.5" transform="translate(-965.541 -834.879)" fill="#70701c"/>
        <path id="Path_902223" data-name="Path 902223" d="M369.4,841.423h0a54.287,54.287,0,0,0-3.03-14.474,24.722,24.722,0,0,0-4.718-8.086c-2.953-3.177-9.782-.633-6.887,5.757a24.066,24.066,0,0,0,1.213,2.33c3.93,6.673,10.433,10.907,13.423,14.49a.124.124,0,0,0,0-.014" transform="translate(-314.168 -725.382)" fill="#bcbc46"/>
        <path id="Path_902224" data-name="Path 902224" d="M453.331,985.35a.394.394,0,0,1-.394-.383c-.081-2.684.046-5.519.168-8.26.142-3.169.288-6.445.116-9.516a66.963,66.963,0,0,0-8.831-30.063.394.394,0,0,1,.68-.4,67.756,67.756,0,0,1,8.939,30.418c.175,3.11.027,6.407-.116,9.6-.122,2.727-.248,5.547-.168,8.2a.394.394,0,0,1-.382.406h-.012" transform="translate(-394.269 -831.008)" fill="#70701c"/>
        <path id="Path_902225" data-name="Path 902225" d="M538.586,1035.983c-3.677,9.1-2.867,20.649-3.707,27.03,0,0,0,0,0,0s10.644-9.761,11.774-22.7c.476-5.461-5.148-11.553-8.067-4.329" transform="translate(-474.609 -916.321)" fill="#bcbc46"/>
        <path id="Path_902226" data-name="Path 902226" d="M521.046,1120.326a.395.395,0,0,1-.384-.486,30.836,30.836,0,0,1,2.121-5.645c1.735-3.866,4.112-9.159,6.889-21.073a.394.394,0,0,1,.768.179c-2.794,11.989-5.189,17.323-6.937,21.218a30.26,30.26,0,0,0-2.073,5.5.4.4,0,0,1-.383.3" transform="translate(-461.985 -969.681)" fill="#70701c"/>
        <path id="Path_902227" data-name="Path 902227" d="M492.9,870.686c-.029-.128-.06-.254-.1-.377-1.247-4.369-6.628-6.084-7.454,0-.013.1-.025.193-.036.291-.979,9.067,3.481,18.465,4.48,24.1h0c.07-.162,5.576-12.908,3.1-24.008" transform="translate(-430.503 -768.744)" fill="#bcbc46"/>
        <path id="Path_902228" data-name="Path 902228" d="M519.059,941.16h-.028a.394.394,0,0,1-.366-.421c.061-.872.155-1.753.263-2.772.475-4.476,1.125-10.606,0-24.446a.394.394,0,1,1,.786-.064c1.135,13.914.453,20.341,0,24.594-.107,1.012-.2,1.886-.26,2.744a.394.394,0,0,1-.393.367" transform="translate(-460.222 -810.208)" fill="#70701c"/>
        <path id="Path_902229" data-name="Path 902229" d="M394.709,1040.339c-2.978-3.514-9.31-1.723-6.657,5.188,3.343,8.7,10.822,14.4,14.063,18.857v0c0-.23-.236-15.577-7.406-24.042" transform="translate(-343.764 -921.561)" fill="#bcbc46"/>
        <path id="Path_902230" data-name="Path 902230" d="M439.042,1106.171a.394.394,0,0,1-.38-.288c-.078-.28-.155-.56-.233-.841-1.158-4.211-2.47-8.983-10.311-22.649a.394.394,0,1,1,.684-.393c7.891,13.752,9.217,18.576,10.388,22.832.077.281.154.559.232.838a.394.394,0,0,1-.38.5" transform="translate(-379.833 -959.907)" fill="#70701c"/>
        <path id="Path_902231" data-name="Path 902231" d="M1568.258,700.519h0a54.286,54.286,0,0,0-3.03-14.474,24.725,24.725,0,0,0-4.718-8.086c-2.953-3.177-9.782-.633-6.886,5.757a24.356,24.356,0,0,0,1.214,2.33c3.929,6.673,10.432,10.907,13.422,14.49a.127.127,0,0,0,0-.014" transform="translate(-1377.943 -600.355)" fill="#bcbc46"/>
        <path id="Path_902232" data-name="Path 902232" d="M1652.192,844.445a.394.394,0,0,1-.394-.383c-.081-2.684.046-5.519.168-8.26.142-3.169.288-6.445.116-9.515a66.963,66.963,0,0,0-8.831-30.063.394.394,0,1,1,.68-.4,67.755,67.755,0,0,1,8.939,30.418c.175,3.11.027,6.407-.116,9.595-.122,2.727-.248,5.547-.168,8.2a.394.394,0,0,1-.382.406h-.012" transform="translate(-1458.044 -705.98)" fill="#70701c"/>
        <path id="Path_902233" data-name="Path 902233" d="M1737.445,895.078c-3.677,9.1-2.867,20.649-3.707,27.03,0,0,0,0,0,0s10.645-9.761,11.774-22.7c.477-5.461-5.148-11.553-8.067-4.33" transform="translate(-1538.383 -791.292)" fill="#bcbc46"/>
        <path id="Path_902234" data-name="Path 902234" d="M1719.906,979.423a.395.395,0,0,1-.384-.486,30.836,30.836,0,0,1,2.121-5.645c1.735-3.865,4.112-9.159,6.889-21.074a.394.394,0,0,1,.768.179c-2.794,11.989-5.189,17.323-6.937,21.217a30.27,30.27,0,0,0-2.073,5.5.4.4,0,0,1-.383.3" transform="translate(-1525.76 -844.654)" fill="#70701c"/>
        <path id="Path_902235" data-name="Path 902235" d="M1691.756,729.782c-.029-.128-.06-.254-.1-.377-1.247-4.369-6.628-6.084-7.454,0-.013.1-.025.193-.036.291-.979,9.067,3.481,18.465,4.48,24.095h0c.07-.163,5.576-12.908,3.1-24.008" transform="translate(-1494.278 -643.717)" fill="#bcbc46"/>
        <path id="Path_902236" data-name="Path 902236" d="M1717.919,800.256h-.028a.394.394,0,0,1-.366-.421c.061-.872.155-1.753.263-2.772.475-4.476,1.125-10.606,0-24.446a.394.394,0,1,1,.786-.064c1.135,13.914.453,20.341,0,24.594-.107,1.012-.2,1.886-.26,2.744a.394.394,0,0,1-.393.367" transform="translate(-1523.997 -685.181)" fill="#70701c"/>
        <path id="Path_902237" data-name="Path 902237" d="M1593.568,899.434c-2.978-3.514-9.31-1.723-6.657,5.187,3.343,8.7,10.823,14.4,14.063,18.857v0h0c0-.274-.247-15.589-7.406-24.041" transform="translate(-1407.538 -796.533)" fill="#bcbc46"/>
        <path id="Path_902238" data-name="Path 902238" d="M1637.9,965.266a.394.394,0,0,1-.38-.288c-.078-.28-.155-.56-.233-.841-1.158-4.211-2.47-8.984-10.311-22.649a.394.394,0,1,1,.684-.393c7.891,13.752,9.218,18.576,10.388,22.833.077.281.154.559.232.838a.395.395,0,0,1-.38.5" transform="translate(-1443.609 -834.879)" fill="#70701c"/>
        <path id="Path_902239" data-name="Path 902239" d="M2107.033,700.519h0a54.291,54.291,0,0,0-3.03-14.474,24.727,24.727,0,0,0-4.718-8.086c-2.953-3.177-9.782-.633-6.887,5.757a24.1,24.1,0,0,0,1.213,2.33c3.93,6.673,10.433,10.907,13.423,14.49,0,0,0,0,0-.014" transform="translate(-1856.01 -600.355)" fill="#bcbc46"/>
        <path id="Path_902240" data-name="Path 902240" d="M2190.967,844.445a.394.394,0,0,1-.394-.383c-.081-2.684.046-5.519.168-8.26.142-3.169.288-6.445.116-9.515a66.966,66.966,0,0,0-8.832-30.063.394.394,0,0,1,.68-.4,67.751,67.751,0,0,1,8.938,30.418c.175,3.11.027,6.407-.115,9.595-.122,2.727-.248,5.547-.168,8.2a.394.394,0,0,1-.382.406h-.012" transform="translate(-1936.112 -705.98)" fill="#70701c"/>
        <path id="Path_902241" data-name="Path 902241" d="M2276.219,895.078c-3.677,9.1-2.867,20.649-3.707,27.03,0,0,0,0,0,0s10.645-9.761,11.774-22.7c.476-5.461-5.148-11.553-8.067-4.33" transform="translate(-2016.45 -791.292)" fill="#bcbc46"/>
        <path id="Path_902242" data-name="Path 902242" d="M2258.682,979.422a.395.395,0,0,1-.384-.486,30.836,30.836,0,0,1,2.121-5.645c1.735-3.866,4.112-9.159,6.889-21.074a.394.394,0,1,1,.768.179c-2.794,11.989-5.189,17.323-6.937,21.217a30.259,30.259,0,0,0-2.073,5.5.4.4,0,0,1-.384.3" transform="translate(-2003.828 -844.654)" fill="#70701c"/>
        <path id="Path_902243" data-name="Path 902243" d="M2230.531,729.782c-.029-.128-.06-.254-.1-.377-1.246-4.369-6.627-6.084-7.454,0-.013.1-.025.193-.036.291-.979,9.067,3.481,18.465,4.48,24.095h0c.07-.163,5.576-12.908,3.1-24.008" transform="translate(-1972.344 -643.717)" fill="#bcbc46"/>
        <path id="Path_902244" data-name="Path 902244" d="M2256.7,800.256h-.028a.394.394,0,0,1-.366-.421c.061-.872.155-1.753.263-2.772.475-4.476,1.125-10.606,0-24.446a.394.394,0,1,1,.786-.064c1.135,13.914.453,20.341,0,24.593-.107,1.012-.2,1.887-.26,2.745a.394.394,0,0,1-.393.367" transform="translate(-2002.066 -685.181)" fill="#70701c"/>
        <path id="Path_902245" data-name="Path 902245" d="M2132.344,899.434c-2.977-3.514-9.31-1.723-6.656,5.187,3.343,8.7,10.822,14.4,14.063,18.857v-.006h0c-.006-.38-.272-15.615-7.406-24.037" transform="translate(-1885.606 -796.533)" fill="#bcbc46"/>
        <path id="Path_902246" data-name="Path 902246" d="M2176.678,965.267a.394.394,0,0,1-.379-.288c-.078-.28-.155-.559-.233-.841-1.158-4.211-2.47-8.983-10.311-22.649a.394.394,0,1,1,.684-.393c7.891,13.753,9.217,18.577,10.388,22.833.077.281.154.559.232.838a.395.395,0,0,1-.38.5" transform="translate(-1921.676 -834.88)" fill="#70701c"/>
        <path id="Path_902247" data-name="Path 902247" d="M2634.8,700.519h0a54.27,54.27,0,0,0-3.03-14.474,24.718,24.718,0,0,0-4.718-8.086c-2.953-3.177-9.781-.633-6.886,5.757a24.1,24.1,0,0,0,1.213,2.33c3.93,6.673,10.432,10.907,13.423,14.49a.106.106,0,0,0,0-.014" transform="translate(-2324.307 -600.355)" fill="#bcbc46"/>
        <path id="Path_902248" data-name="Path 902248" d="M2718.732,844.445a.394.394,0,0,1-.394-.383c-.082-2.684.045-5.519.168-8.261.142-3.168.288-6.445.116-9.515a66.963,66.963,0,0,0-8.832-30.063.394.394,0,0,1,.68-.4,67.758,67.758,0,0,1,8.939,30.418c.174,3.11.027,6.406-.116,9.594-.122,2.727-.248,5.547-.168,8.2a.394.394,0,0,1-.382.406h-.012" transform="translate(-2404.409 -705.98)" fill="#70701c"/>
        <path id="Path_902249" data-name="Path 902249" d="M2803.985,895.078c-3.677,9.1-2.867,20.649-3.708,27.03,0,0,0,0,0,0s10.645-9.761,11.774-22.7c.477-5.461-5.148-11.553-8.067-4.33" transform="translate(-2484.748 -791.292)" fill="#bcbc46"/>
        <path id="Path_902250" data-name="Path 902250" d="M2786.446,979.422a.395.395,0,0,1-.384-.486,30.856,30.856,0,0,1,2.121-5.645c1.735-3.865,4.112-9.159,6.889-21.074a.394.394,0,1,1,.768.179c-2.794,11.989-5.188,17.323-6.937,21.218a30.254,30.254,0,0,0-2.073,5.5.4.4,0,0,1-.383.3" transform="translate(-2472.125 -844.654)" fill="#70701c"/>
        <path id="Path_902251" data-name="Path 902251" d="M2758.294,729.782c-.029-.128-.06-.254-.095-.377-1.247-4.369-6.628-6.084-7.455,0-.013.1-.025.193-.036.291-.979,9.067,3.481,18.465,4.48,24.095h0c.07-.163,5.576-12.908,3.1-24.008" transform="translate(-2440.641 -643.717)" fill="#bcbc46"/>
        <path id="Path_902252" data-name="Path 902252" d="M2784.459,800.256h-.028a.394.394,0,0,1-.366-.421c.062-.872.155-1.752.263-2.772.475-4.476,1.125-10.606,0-24.447a.394.394,0,1,1,.786-.064c1.135,13.914.454,20.341,0,24.594-.107,1.012-.2,1.886-.26,2.744a.4.4,0,0,1-.393.367" transform="translate(-2470.362 -685.181)" fill="#70701c"/>
        <path id="Path_902253" data-name="Path 902253" d="M2660.108,899.434c-2.977-3.514-9.31-1.723-6.657,5.187,3.343,8.7,10.823,14.4,14.063,18.857v-.006h0c-.006-.38-.272-15.615-7.406-24.037" transform="translate(-2353.903 -796.533)" fill="#bcbc46"/>
        <path id="Path_902254" data-name="Path 902254" d="M2704.443,965.267a.394.394,0,0,1-.379-.288c-.078-.28-.155-.559-.232-.841-1.158-4.211-2.47-8.983-10.312-22.649a.394.394,0,0,1,.684-.393c7.891,13.753,9.218,18.577,10.388,22.833.077.281.154.559.232.838a.395.395,0,0,1-.38.5" transform="translate(-2389.973 -834.88)" fill="#70701c"/>
        <path id="Path_902255" data-name="Path 902255" d="M3162.562,700.519h0a54.286,54.286,0,0,0-3.03-14.474,24.718,24.718,0,0,0-4.718-8.086c-2.953-3.177-9.781-.633-6.886,5.757a24.1,24.1,0,0,0,1.213,2.33c3.93,6.673,10.433,10.907,13.423,14.49a.127.127,0,0,0,0-.014" transform="translate(-2792.604 -600.355)" fill="#bcbc46"/>
        <path id="Path_902256" data-name="Path 902256" d="M3246.5,844.445a.394.394,0,0,1-.394-.383c-.082-2.684.045-5.519.168-8.261.142-3.168.288-6.445.116-9.515a66.96,66.96,0,0,0-8.832-30.063.394.394,0,1,1,.68-.4,67.752,67.752,0,0,1,8.939,30.418c.174,3.11.027,6.406-.116,9.594-.122,2.727-.248,5.547-.167,8.2a.4.4,0,0,1-.382.406h-.012" transform="translate(-2872.707 -705.98)" fill="#70701c"/>
        <path id="Path_902257" data-name="Path 902257" d="M3331.749,895.078c-3.677,9.1-2.867,20.649-3.708,27.03,0,0,0,0,0,0s10.645-9.761,11.774-22.7c.477-5.461-5.148-11.553-8.067-4.33" transform="translate(-2953.045 -791.292)" fill="#bcbc46"/>
        <path id="Path_902258" data-name="Path 902258" d="M3314.211,979.422a.395.395,0,0,1-.384-.486,30.822,30.822,0,0,1,2.121-5.645c1.735-3.865,4.112-9.159,6.888-21.074a.394.394,0,1,1,.768.179c-2.794,11.989-5.189,17.323-6.937,21.218a30.236,30.236,0,0,0-2.073,5.5.4.4,0,0,1-.383.3" transform="translate(-2940.423 -844.654)" fill="#70701c"/>
        <path id="Path_902259" data-name="Path 902259" d="M3286.06,729.782c-.029-.128-.06-.254-.1-.377-1.246-4.369-6.628-6.084-7.454,0-.013.1-.025.193-.036.291-.979,9.067,3.481,18.465,4.48,24.095h0c.07-.163,5.576-12.908,3.1-24.008" transform="translate(-2908.939 -643.717)" fill="#bcbc46"/>
        <path id="Path_902260" data-name="Path 902260" d="M3312.225,800.256h-.028a.394.394,0,0,1-.366-.421c.061-.872.154-1.753.263-2.772.475-4.476,1.125-10.606,0-24.446a.394.394,0,1,1,.786-.064c1.135,13.914.454,20.341,0,24.593-.107,1.012-.2,1.887-.26,2.745a.4.4,0,0,1-.393.367" transform="translate(-2938.661 -685.181)" fill="#70701c"/>
        <path id="Path_902261" data-name="Path 902261" d="M3187.873,899.434c-2.977-3.514-9.31-1.723-6.657,5.187,3.343,8.7,10.823,14.4,14.063,18.857v-.006h0c-.006-.38-.272-15.615-7.406-24.037" transform="translate(-2822.2 -796.533)" fill="#bcbc46"/>
        <path id="Path_902262" data-name="Path 902262" d="M3232.208,965.267a.4.4,0,0,1-.38-.288c-.078-.28-.155-.559-.233-.841-1.157-4.211-2.47-8.983-10.311-22.649a.394.394,0,1,1,.684-.393c7.891,13.753,9.218,18.577,10.388,22.833.077.281.154.559.232.838a.395.395,0,0,1-.38.5" transform="translate(-2858.27 -834.88)" fill="#70701c"/>
        <path id="Path_902263" data-name="Path 902263" d="M1029.483,1307.149s0,0,0,0a54.026,54.026,0,0,0-3.112-14.686,24.471,24.471,0,0,0-4.636-7.875c-2.953-3.177-9.782-.633-6.887,5.757q.5,1.1,1.089,2.118c3.917,6.8,10.524,11.081,13.547,14.7a.1.1,0,0,0,0-.013" transform="translate(-899.876 -1138.63)" fill="#bcbc46"/>
        <path id="Path_902264" data-name="Path 902264" d="M1113.416,1451.077a.394.394,0,0,1-.394-.383c-.081-2.684.046-5.519.168-8.261.142-3.169.288-6.445.116-9.515a66.964,66.964,0,0,0-8.831-30.063.394.394,0,1,1,.68-.4,67.757,67.757,0,0,1,8.939,30.418c.175,3.11.027,6.406-.115,9.594-.122,2.727-.248,5.547-.168,8.2a.394.394,0,0,1-.382.406h-.012" transform="translate(-979.977 -1244.259)" fill="#70701c"/>
        <path id="Path_902265" data-name="Path 902265" d="M1198.675,1501.712c-3.677,9.1-2.867,20.65-3.707,27.031,0,0,10.644-9.761,11.774-22.7.476-5.46-5.148-11.553-8.067-4.328" transform="translate(-1060.322 -1329.572)" fill="#bcbc46"/>
        <path id="Path_902266" data-name="Path 902266" d="M1181.131,1586.054a.4.4,0,0,1-.384-.486,30.826,30.826,0,0,1,2.121-5.645c1.735-3.865,4.112-9.159,6.889-21.074a.394.394,0,1,1,.768.179c-2.794,11.989-5.189,17.323-6.937,21.218a30.276,30.276,0,0,0-2.073,5.5.4.4,0,0,1-.383.3" transform="translate(-1047.693 -1382.932)" fill="#70701c"/>
        <path id="Path_902267" data-name="Path 902267" d="M1152.98,1336.414c-.044-.2-.1-.4-.16-.59-1.341-4.161-6.452-5.735-7.358,0-.026.161-.048.33-.068.5-.979,9.067,3.481,18.465,4.48,24.1h0c.07-.162,5.576-12.907,3.1-24.007" transform="translate(-1016.21 -1181.993)" fill="#bcbc46"/>
        <path id="Path_902268" data-name="Path 902268" d="M1179.143,1406.888h-.028a.394.394,0,0,1-.366-.421c.061-.872.155-1.752.263-2.772.475-4.476,1.125-10.606,0-24.447a.394.394,0,0,1,.786-.064c1.135,13.914.453,20.341,0,24.594-.107,1.012-.2,1.886-.26,2.744a.394.394,0,0,1-.393.367" transform="translate(-1045.93 -1223.459)" fill="#70701c"/>
        <path id="Path_902269" data-name="Path 902269" d="M1054.793,1506.065c-2.978-3.514-9.31-1.723-6.657,5.187,3.343,8.7,10.821,14.4,14.063,18.856,0-.179-.224-15.564-7.406-24.043" transform="translate(-929.471 -1334.81)" fill="#bcbc46"/>
        <path id="Path_902270" data-name="Path 902270" d="M1099.127,1571.9a.4.4,0,0,1-.38-.288c-.078-.28-.155-.559-.232-.841-1.158-4.211-2.47-8.984-10.312-22.649a.394.394,0,0,1,.684-.393c7.891,13.752,9.218,18.576,10.388,22.833.077.281.154.559.232.838a.395.395,0,0,1-.38.5" transform="translate(-965.541 -1373.159)" fill="#70701c"/>
        <path id="Path_902271" data-name="Path 902271" d="M1568.258,1307.149v0a54.034,54.034,0,0,0-3.112-14.686,24.472,24.472,0,0,0-4.636-7.875c-2.953-3.177-9.782-.633-6.886,5.757q.5,1.1,1.089,2.118c3.917,6.8,10.524,11.081,13.547,14.7a.1.1,0,0,0,0-.013" transform="translate(-1377.943 -1138.63)" fill="#bcbc46"/>
        <path id="Path_902272" data-name="Path 902272" d="M1652.192,1451.077a.394.394,0,0,1-.394-.383c-.081-2.684.046-5.519.168-8.26.142-3.169.288-6.445.116-9.515a66.964,66.964,0,0,0-8.831-30.063.394.394,0,1,1,.68-.4,67.755,67.755,0,0,1,8.939,30.418c.175,3.11.027,6.407-.116,9.595-.122,2.727-.248,5.547-.168,8.2a.394.394,0,0,1-.382.406h-.012" transform="translate(-1458.044 -1244.259)" fill="#70701c"/>
        <path id="Path_902273" data-name="Path 902273" d="M1737.449,1501.712c-3.677,9.1-2.868,20.65-3.707,27.031,0,0,10.644-9.761,11.774-22.7.476-5.46-5.148-11.553-8.067-4.328" transform="translate(-1538.388 -1329.572)" fill="#bcbc46"/>
        <path id="Path_902274" data-name="Path 902274" d="M1719.906,1586.054a.395.395,0,0,1-.384-.486,30.833,30.833,0,0,1,2.121-5.645c1.735-3.865,4.112-9.159,6.889-21.073a.394.394,0,1,1,.768.179c-2.794,11.989-5.189,17.323-6.937,21.218a30.271,30.271,0,0,0-2.073,5.5.4.4,0,0,1-.383.3" transform="translate(-1525.76 -1382.932)" fill="#70701c"/>
        <path id="Path_902275" data-name="Path 902275" d="M1691.756,1336.414c-.045-.2-.1-.4-.16-.59-1.34-4.161-6.452-5.735-7.358,0-.026.161-.048.33-.068.5-.979,9.067,3.481,18.465,4.48,24.1h0c.07-.162,5.576-12.907,3.1-24.007" transform="translate(-1494.278 -1181.993)" fill="#bcbc46"/>
        <path id="Path_902276" data-name="Path 902276" d="M1717.919,1406.888h-.028a.394.394,0,0,1-.366-.421c.061-.872.155-1.753.263-2.772.475-4.476,1.125-10.606,0-24.446a.394.394,0,1,1,.786-.064c1.135,13.914.453,20.341,0,24.594-.107,1.012-.2,1.886-.26,2.744a.394.394,0,0,1-.393.367" transform="translate(-1523.997 -1223.459)" fill="#70701c"/>
        <path id="Path_902277" data-name="Path 902277" d="M1593.568,1506.065c-2.978-3.514-9.31-1.723-6.657,5.187,3.343,8.7,10.821,14.4,14.063,18.856,0-.179-.224-15.564-7.406-24.043" transform="translate(-1407.538 -1334.81)" fill="#bcbc46"/>
        <path id="Path_902278" data-name="Path 902278" d="M1637.9,1571.9a.394.394,0,0,1-.38-.288c-.078-.28-.155-.559-.233-.841-1.158-4.211-2.47-8.984-10.311-22.649a.394.394,0,1,1,.684-.393c7.891,13.752,9.218,18.576,10.388,22.833.077.281.154.559.232.838a.395.395,0,0,1-.38.5" transform="translate(-1443.609 -1373.159)" fill="#70701c"/>
        <path id="Path_902279" data-name="Path 902279" d="M2107.033,1307.149s0,0,0,0a54.036,54.036,0,0,0-3.112-14.686,24.472,24.472,0,0,0-4.636-7.875c-2.953-3.177-9.782-.633-6.887,5.757q.5,1.1,1.089,2.118c3.917,6.8,10.524,11.081,13.547,14.7a.131.131,0,0,0,0-.013" transform="translate(-1856.01 -1138.63)" fill="#bcbc46"/>
        <path id="Path_902280" data-name="Path 902280" d="M2190.967,1451.077a.394.394,0,0,1-.394-.382c-.081-2.684.046-5.519.168-8.26.142-3.169.288-6.445.116-9.515a66.967,66.967,0,0,0-8.832-30.063.394.394,0,0,1,.68-.4,67.752,67.752,0,0,1,8.938,30.418c.175,3.11.027,6.407-.115,9.595-.122,2.727-.248,5.547-.168,8.2a.394.394,0,0,1-.382.406h-.012" transform="translate(-1936.112 -1244.259)" fill="#70701c"/>
        <path id="Path_902281" data-name="Path 902281" d="M2276.224,1501.712c-3.677,9.1-2.867,20.65-3.708,27.031,0,0,10.645-9.761,11.774-22.7.477-5.46-5.148-11.553-8.067-4.328" transform="translate(-2016.454 -1329.572)" fill="#bcbc46"/>
        <path id="Path_902282" data-name="Path 902282" d="M2258.682,1586.054a.395.395,0,0,1-.384-.486,30.855,30.855,0,0,1,2.121-5.645c1.735-3.865,4.112-9.159,6.889-21.073a.394.394,0,0,1,.768.179c-2.794,11.989-5.189,17.323-6.937,21.218a30.253,30.253,0,0,0-2.073,5.5.4.4,0,0,1-.384.3" transform="translate(-2003.828 -1382.932)" fill="#70701c"/>
        <path id="Path_902283" data-name="Path 902283" d="M2230.531,1336.414c-.045-.2-.1-.4-.16-.59-1.34-4.161-6.452-5.735-7.358,0-.026.161-.048.33-.067.5-.979,9.067,3.481,18.465,4.48,24.1h0c.07-.162,5.576-12.907,3.1-24.007" transform="translate(-1972.344 -1181.993)" fill="#bcbc46"/>
        <path id="Path_902284" data-name="Path 902284" d="M2256.7,1406.888h-.028a.394.394,0,0,1-.366-.421c.061-.872.155-1.753.263-2.773.475-4.476,1.125-10.606,0-24.446a.394.394,0,1,1,.786-.064c1.135,13.914.453,20.34,0,24.594-.107,1.012-.2,1.886-.26,2.744a.394.394,0,0,1-.393.367" transform="translate(-2002.066 -1223.459)" fill="#70701c"/>
        <path id="Path_902285" data-name="Path 902285" d="M2132.344,1506.065c-2.977-3.514-9.31-1.723-6.656,5.187,3.343,8.7,10.822,14.406,14.063,18.857v0h0c0-.348-.265-15.607-7.406-24.038" transform="translate(-1885.606 -1334.81)" fill="#bcbc46"/>
        <path id="Path_902286" data-name="Path 902286" d="M2176.678,1571.9a.394.394,0,0,1-.379-.288c-.078-.28-.155-.559-.233-.841-1.158-4.211-2.47-8.984-10.311-22.649a.394.394,0,1,1,.684-.393c7.891,13.753,9.217,18.577,10.388,22.833.077.281.154.559.232.838a.395.395,0,0,1-.38.5" transform="translate(-1921.676 -1373.159)" fill="#70701c"/>
        <path id="Path_902287" data-name="Path 902287" d="M2634.8,1307.149s0,0,0,0a54.031,54.031,0,0,0-3.112-14.686,24.468,24.468,0,0,0-4.636-7.875c-2.953-3.177-9.781-.633-6.886,5.757q.5,1.1,1.089,2.118c3.917,6.8,10.524,11.081,13.547,14.7a.088.088,0,0,0,0-.013" transform="translate(-2324.307 -1138.63)" fill="#bcbc46"/>
        <path id="Path_902288" data-name="Path 902288" d="M2718.732,1451.077a.394.394,0,0,1-.394-.382c-.082-2.684.045-5.519.168-8.261.142-3.168.288-6.445.116-9.515a66.964,66.964,0,0,0-8.832-30.063.394.394,0,0,1,.68-.4,67.759,67.759,0,0,1,8.939,30.418c.174,3.11.027,6.406-.116,9.594-.122,2.727-.248,5.548-.168,8.2a.394.394,0,0,1-.382.406h-.012" transform="translate(-2404.409 -1244.259)" fill="#70701c"/>
        <path id="Path_902289" data-name="Path 902289" d="M2803.988,1501.712c-3.677,9.1-2.867,20.65-3.707,27.031,0,0,10.644-9.761,11.774-22.7.477-5.46-5.148-11.553-8.067-4.328" transform="translate(-2484.751 -1329.572)" fill="#bcbc46"/>
        <path id="Path_902290" data-name="Path 902290" d="M2786.446,1586.054a.395.395,0,0,1-.384-.486,30.853,30.853,0,0,1,2.121-5.645c1.735-3.866,4.112-9.159,6.889-21.073a.394.394,0,0,1,.768.179c-2.794,11.989-5.188,17.323-6.937,21.218a30.255,30.255,0,0,0-2.073,5.5.4.4,0,0,1-.383.3" transform="translate(-2472.125 -1382.932)" fill="#70701c"/>
        <path id="Path_902291" data-name="Path 902291" d="M2758.294,1336.414c-.044-.2-.1-.4-.16-.59-1.341-4.161-6.452-5.735-7.358,0-.026.161-.048.33-.067.5-.979,9.067,3.481,18.465,4.48,24.1h0c.07-.162,5.576-12.907,3.1-24.007" transform="translate(-2440.641 -1181.993)" fill="#bcbc46"/>
        <path id="Path_902292" data-name="Path 902292" d="M2784.459,1406.888h-.028a.394.394,0,0,1-.366-.421c.062-.872.155-1.752.263-2.772.475-4.476,1.125-10.606,0-24.447a.394.394,0,0,1,.786-.064c1.135,13.914.454,20.341,0,24.594-.107,1.012-.2,1.886-.26,2.744a.4.4,0,0,1-.393.367" transform="translate(-2470.362 -1223.459)" fill="#70701c"/>
        <path id="Path_902293" data-name="Path 902293" d="M2660.108,1506.065c-2.977-3.514-9.31-1.723-6.657,5.187,3.343,8.7,10.823,14.406,14.063,18.857v0h0c0-.348-.265-15.607-7.406-24.038" transform="translate(-2353.903 -1334.81)" fill="#bcbc46"/>
        <path id="Path_902294" data-name="Path 902294" d="M2704.443,1571.9a.394.394,0,0,1-.379-.288c-.078-.28-.155-.559-.232-.841-1.158-4.211-2.47-8.984-10.312-22.649a.394.394,0,0,1,.684-.393c7.891,13.753,9.218,18.577,10.388,22.833.077.281.154.559.232.838a.395.395,0,0,1-.38.5" transform="translate(-2389.973 -1373.159)" fill="#70701c"/>
        <path id="Path_902295" data-name="Path 902295" d="M3162.562,1307.149s0,0,0,0a54.047,54.047,0,0,0-3.112-14.686,24.472,24.472,0,0,0-4.636-7.875c-2.953-3.177-9.781-.633-6.886,5.757q.5,1.1,1.089,2.118c3.917,6.8,10.524,11.081,13.547,14.7a.1.1,0,0,0,0-.013" transform="translate(-2792.604 -1138.63)" fill="#bcbc46"/>
        <path id="Path_902296" data-name="Path 902296" d="M3246.5,1451.077a.394.394,0,0,1-.394-.382c-.082-2.684.045-5.519.168-8.261.142-3.168.288-6.445.116-9.515a66.96,66.96,0,0,0-8.832-30.063.394.394,0,1,1,.68-.4,67.753,67.753,0,0,1,8.939,30.418c.174,3.11.027,6.406-.116,9.594-.122,2.727-.248,5.548-.167,8.2a.4.4,0,0,1-.382.406h-.012" transform="translate(-2872.707 -1244.259)" fill="#70701c"/>
        <path id="Path_902297" data-name="Path 902297" d="M3331.753,1501.712c-3.677,9.1-2.867,20.65-3.708,27.031,0,0,10.645-9.761,11.774-22.7.477-5.46-5.148-11.553-8.067-4.328" transform="translate(-2953.049 -1329.572)" fill="#bcbc46"/>
        <path id="Path_902298" data-name="Path 902298" d="M3314.211,1586.054a.395.395,0,0,1-.384-.486,30.818,30.818,0,0,1,2.121-5.645c1.735-3.866,4.112-9.159,6.888-21.073a.394.394,0,0,1,.768.179c-2.794,11.989-5.189,17.323-6.937,21.218a30.255,30.255,0,0,0-2.073,5.5.4.4,0,0,1-.383.3" transform="translate(-2940.423 -1382.932)" fill="#70701c"/>
        <path id="Path_902299" data-name="Path 902299" d="M3286.06,1336.414c-.044-.2-.1-.4-.16-.59-1.341-4.161-6.452-5.735-7.358,0-.026.161-.048.33-.067.5-.979,9.067,3.481,18.465,4.48,24.1h0c.07-.162,5.576-12.907,3.1-24.007" transform="translate(-2908.939 -1181.993)" fill="#bcbc46"/>
        <path id="Path_902300" data-name="Path 902300" d="M3312.225,1406.888h-.028a.394.394,0,0,1-.366-.421c.061-.872.154-1.753.263-2.773.475-4.476,1.125-10.606,0-24.446a.394.394,0,0,1,.786-.064c1.135,13.914.454,20.34,0,24.594-.107,1.012-.2,1.886-.26,2.744a.394.394,0,0,1-.393.367" transform="translate(-2938.661 -1223.459)" fill="#70701c"/>
        <path id="Path_902301" data-name="Path 902301" d="M3187.873,1506.065c-2.977-3.514-9.31-1.723-6.657,5.187,3.343,8.7,10.823,14.406,14.063,18.857v0h0c0-.348-.265-15.607-7.406-24.038" transform="translate(-2822.2 -1334.81)" fill="#bcbc46"/>
        <path id="Path_902302" data-name="Path 902302" d="M3232.208,1571.9a.394.394,0,0,1-.38-.288c-.078-.28-.155-.559-.233-.841-1.157-4.211-2.47-8.984-10.311-22.649a.394.394,0,1,1,.684-.393c7.891,13.753,9.218,18.577,10.388,22.833.077.281.154.559.232.838a.395.395,0,0,1-.38.5" transform="translate(-2858.27 -1373.159)" fill="#70701c"/>
        <path id="Path_902303" data-name="Path 902303" d="M1351.506,561.927h-25.07a.507.507,0,0,1,0-1.014h25.07a.507.507,0,0,1,0,1.014" transform="translate(-1176.526 -497.711)" fill="#34313c"/>
        <path id="Path_902304" data-name="Path 902304" d="M1294.61,756.993h-29.248a.507.507,0,0,1,0-1.014h29.248a.507.507,0,0,1,0,1.014" transform="translate(-1122.334 -670.797)" fill="#34313c"/>
        <path id="Path_902305" data-name="Path 902305" d="M2392.382,561.927h-32.564a.507.507,0,1,1,0-1.014h32.564a.507.507,0,1,1,0,1.014" transform="translate(-2093.468 -497.711)" fill="#34313c"/>
        <path id="Path_902306" data-name="Path 902306" d="M2350.545,756.993H2320.9a.507.507,0,0,1,0-1.014h29.647a.507.507,0,0,1,0,1.014" transform="translate(-2058.935 -670.797)" fill="#34313c"/>
        <path id="Path_902307" data-name="Path 902307" d="M1342.292,1166.678h-38.758a.507.507,0,0,1,0-1.014h38.758a.507.507,0,1,1,0,1.014" transform="translate(-1156.205 -1034.32)" fill="#34313c"/>
        <path id="Path_902308" data-name="Path 902308" d="M1316.469,1361.744h-28.2a.507.507,0,0,1,0-1.014h28.2a.507.507,0,0,1,0,1.014" transform="translate(-1142.656 -1207.406)" fill="#34313c"/>
        <path id="Path_902309" data-name="Path 902309" d="M2440.725,1361.744h-21.243a.507.507,0,0,1,0-1.014h21.243a.507.507,0,0,1,0,1.014" transform="translate(-2146.41 -1207.406)" fill="#34313c"/>
        <path id="Path_902310" data-name="Path 902310" d="M2379.616,1166.678h-41.858a.507.507,0,1,1,0-1.014h41.858a.507.507,0,1,1,0,1.014" transform="translate(-2073.895 -1034.32)" fill="#34313c"/>
        <path id="Path_902311" data-name="Path 902311" d="M1251.663,1966.494h-110.4a.507.507,0,0,1,0-1.014h110.4a.507.507,0,0,1,0,1.014" transform="translate(-1012.217 -1744.015)" fill="#34313c"/>
        <path id="Path_902312" data-name="Path 902312" d="M1351.878,1771.429H1322.62a.507.507,0,0,1,0-1.014h29.258a.507.507,0,0,1,0,1.014" transform="translate(-1173.14 -1570.929)" fill="#34313c"/>
        <path id="Path_902313" data-name="Path 902313" d="M3426.5,561.927h-30.534a.507.507,0,0,1,0-1.014H3426.5a.507.507,0,1,1,0,1.014" transform="translate(-3012.865 -497.711)" fill="#34313c"/>
        <path id="Path_902314" data-name="Path 902314" d="M3442.781,756.993h-31.635a.507.507,0,1,1,0-1.014h31.635a.507.507,0,1,1,0,1.014" transform="translate(-3026.335 -670.797)" fill="#34313c"/>
        <path id="Path_902315" data-name="Path 902315" d="M3456.127,1166.678H3428.8a.507.507,0,0,1,0-1.014h27.326a.507.507,0,0,1,0,1.014" transform="translate(-3042.002 -1034.32)" fill="#34313c"/>
        <path id="Path_902316" data-name="Path 902316" d="M3398.851,1361.744h-31.829a.507.507,0,0,1,0-1.014h31.829a.507.507,0,0,1,0,1.014" transform="translate(-2987.183 -1207.406)" fill="#34313c"/>
        <path id="Path_902317" data-name="Path 902317" d="M2418.986,1966.494h-45.713a.507.507,0,1,1,0-1.014h45.713a.507.507,0,1,1,0,1.014" transform="translate(-2105.408 -1744.015)" fill="#34313c"/>
        <path id="Path_902318" data-name="Path 902318" d="M2401.048,1771.429h-41.23a.507.507,0,0,1,0-1.014h41.23a.507.507,0,0,1,0,1.014" transform="translate(-2093.469 -1570.929)" fill="#34313c"/>
        <path id="Path_902319" data-name="Path 902319" d="M682.209,1796.968c-5.427.237-9.31,1.182-14.21,4.7-.1-1.3-.055-2.635-.184-3.693a22.222,22.222,0,0,0-3.966-10.258,15.1,15.1,0,0,0-3.6-3.669c-.566-.391-1.166-.754-1.726-1.126a42.48,42.48,0,0,1,24.822-8.007h1.431a18.127,18.127,0,0,0-2.564,22.053" transform="translate(-584.32 -1574.922)" fill="#34313c"/>
        <path id="Path_902320" data-name="Path 902320" d="M731.493,1192.148a34.915,34.915,0,0,0-14.392,3.28q-.229.1-.458.213c.106-1.55.389-3.127.438-4.395a28.212,28.212,0,0,0-2.231-12.307,16.55,16.55,0,0,0-2.955-4.707,39.068,39.068,0,0,1,17.36-4.068h5.753a22.855,22.855,0,0,0-3.561,6.708,24.282,24.282,0,0,0,.046,15.276" transform="translate(-631.68 -1038.313)" fill="#34313c"/>
        <path id="Path_902321" data-name="Path 902321" d="M702.595,587.393h-1.058a33.327,33.327,0,0,0-13.786,2.984c.012-1.5.239-3.056.227-4.285a24.562,24.562,0,0,0-2.77-11.193,15.545,15.545,0,0,0-3.13-4.224c-.066-.061-.133-.121-.2-.182a42.108,42.108,0,0,1,20.051-5.08h3.349a20,20,0,0,0-3.86,7.094,20.774,20.774,0,0,0,1.179,14.886" transform="translate(-605.044 -501.704)" fill="#34313c"/>
      </g>
    </g>
    <g id="Group_1113218" data-name="Group 1113218" transform="translate(205.199 1207.128)">
      <g id="Group_1113217" data-name="Group 1113217" transform="translate(0 0)" clip-path="url(#clip-path-3)">
        <path id="Path_902059" data-name="Path 902059" d="M589.8,2453.4s9.458.777,17.434-3.563l-4.809-8.167s-8.547,4.613-12.625,11.731" transform="translate(-512.304 -2179.057)" fill="#34313c"/>
        <path id="Path_902060" data-name="Path 902060" d="M1042.239,1888.186c6.34.345,10.6-.567,11.338,6.562.333,3.222-.051,13.458-.441,17.842-1.244,13.976-6.007,57.405-6.007,57.405s-8.982,5.824-16.361-.318c0,0-7.951-34.617-9.114-46.135-1.029-10.191-1.449-36.556,20.585-35.355" transform="translate(-1005.178 -1685.065)" fill="#ffa076"/>
        <path id="Path_902061" data-name="Path 902061" d="M426.9,1820.883c6.095-1.856,9.865-4.2,12.592,2.365,1.232,2.967,3.786,12.889,4.665,17.215,2.805,13.8,9.964,56.122,9.964,56.122s-5.93,8.254-14.657,4.926c0,0-17.579-29.1-21.96-39.715-3.876-9.391-11.784-34.461,9.4-40.912" transform="translate(-340.155 -1623.274)" fill="#ffa076"/>
        <path id="Path_902062" data-name="Path 902062" d="M376.816,2456.842l-3.916-10.126c-9.237,6.139-20.68,5.2-20.788,5.947a59.151,59.151,0,0,0,1.223,7.7c.418,1.9,1.111,7.949,1.7,9.063s16.468-3.244,21.588-5.193,3.672-1.263,2.727-2.484a34.83,34.83,0,0,1-2.53-4.912" transform="translate(-259.783 -2183.557)" fill="#fff"/>
        <path id="Path_902063" data-name="Path 902063" d="M537.43,2504.554a.485.485,0,0,0,.467-.614l-3.21-11.541a.484.484,0,1,0-.933.259l3.21,11.541a.484.484,0,0,0,.466.355" transform="translate(-436.951 -2224.011)" fill="#b1e0ff"/>
        <path id="Path_902064" data-name="Path 902064" d="M476.594,2493.2a.485.485,0,0,0,.467-.614l-3.127-11.243a.484.484,0,0,0-.933.26l3.127,11.243a.484.484,0,0,0,.466.354" transform="translate(-369.58 -2214.144)" fill="#b1e0ff"/>
        <path id="Path_902065" data-name="Path 902065" d="M419.378,2473.653a.484.484,0,0,0,.463-.625l-3.548-11.667a.484.484,0,0,0-.926.282l3.548,11.667a.485.485,0,0,0,.463.343" transform="translate(-306.165 -2196.321)" fill="#b1e0ff"/>
        <path id="Path_902066" data-name="Path 902066" d="M15.648,2545.13s-6.028.658-7.075,0S1.867,2543.168.652,2548c-.85,3.383-.78,20.873-.3,25.946H65.473s3.269-9.035-2.263-12.81c-7.362-5.022-24.781-10.751-29.666-12.946-3.932-1.766-9.05-6.858-12.324-6.771s-5.573,3.707-5.573,3.707" transform="translate(91.938 -2268.078)" fill="#34313c"/>
        <path id="Path_902067" data-name="Path 902067" d="M120.182,2587.941a13.864,13.864,0,0,0,9.235-3.135.484.484,0,1,0-.624-.74c-2.932,2.475-6.846,3.375-11.63,2.678a42.037,42.037,0,0,1-13.263-4.792,94.489,94.489,0,0,1-15.339-10.438.484.484,0,1,0-.633.732,95.6,95.6,0,0,0,15.518,10.561,42.969,42.969,0,0,0,13.578,4.9,21.887,21.887,0,0,0,3.159.24" transform="translate(19.343 -2294.827)" fill="#19161f"/>
        <path id="Path_902068" data-name="Path 902068" d="M279.144,2615.186a.482.482,0,0,0,.253-.072l7.82-4.808a.484.484,0,0,0-.507-.825l-7.82,4.808a.484.484,0,0,0,.254.9" transform="translate(-159.048 -2328.752)" fill="#19161f"/>
        <path id="Path_902069" data-name="Path 902069" d="M257.395,2619.6a.5.5,0,0,0,.133-.019.484.484,0,0,0,.333-.6l-2.621-9.225a.484.484,0,1,0-.931.264l2.621,9.225a.484.484,0,0,0,.465.352" transform="translate(-126.859 -2328.751)" fill="#19161f"/>
        <path id="Path_902070" data-name="Path 902070" d="M167.175,2660.157a.482.482,0,0,0,.329-.129l5.471-5.073a.484.484,0,1,0-.658-.71l-5.471,5.073a.484.484,0,0,0,.329.839" transform="translate(-32.689 -2368.651)" fill="#19161f"/>
        <path id="Path_902071" data-name="Path 902071" d="M132.847,2660.628a.484.484,0,0,0,.388-.773l-4.137-5.544a.484.484,0,1,0-.776.579l4.137,5.544a.484.484,0,0,0,.388.195" transform="translate(11.248 -2368.65)" fill="#19161f"/>
        <path id="Path_902072" data-name="Path 902072" d="M527.608,2595.566a.484.484,0,0,0,.474-.39,68.659,68.659,0,0,0,.655-23.388.484.484,0,0,0-.951.179,67.651,67.651,0,0,1-.653,23.021.484.484,0,0,0,.475.578" transform="translate(-427.75 -2294.825)" fill="#19161f"/>
        <path id="Path_902073" data-name="Path 902073" d="M66.806,2791.957l-66.248-.318v5.616H65.79a13.1,13.1,0,0,0,1.016-5.3" transform="translate(91.501 -2491.382)" fill="#19161f"/>
        <path id="Path_902074" data-name="Path 902074" d="M386.522,2452.6a.484.484,0,0,0,.451-.659l-3.641-9.414a.484.484,0,1,0-.9.349l3.641,9.414a.484.484,0,0,0,.452.31" transform="translate(-269.764 -2179.541)" fill="#b1e0ff"/>
        <path id="Path_902075" data-name="Path 902075" d="M596.679,2508.4a.472.472,0,0,0,.078-.006.484.484,0,0,0,.4-.555l-1.606-9.922a.484.484,0,1,0-.956.155l1.606,9.922a.484.484,0,0,0,.477.406" transform="translate(-502.745 -2228.889)" fill="#b1e0ff"/>
        <path id="Path_902076" data-name="Path 902076" d="M1063.46,2492.2l-1.777-9.5a61.5,61.5,0,0,0,23.03.483l-1.159,10.465s-3.33,5.177-11.909,4.186-8.185-5.633-8.185-5.633" transform="translate(-1040.533 -2215.67)" fill="#fff"/>
        <path id="Path_902077" data-name="Path 902077" d="M1217,2495.705a.486.486,0,0,0,.479-.556l-1.5-10.031a.484.484,0,0,0-.957.143l1.5,10.031a.484.484,0,0,0,.478.413" transform="translate(-1189.792 -2217.461)" fill="#b1e0ff"/>
        <path id="Path_902078" data-name="Path 902078" d="M1164.918,2500.064h.02a.484.484,0,0,0,.464-.5l-.352-8.545a.484.484,0,0,0-.967.04l.353,8.544a.484.484,0,0,0,.483.464" transform="translate(-1132.236 -2222.678)" fill="#b1e0ff"/>
        <path id="Path_902079" data-name="Path 902079" d="M1102.983,2496.844a.484.484,0,0,0,.479-.42l1.18-8.933a.484.484,0,1,0-.96-.127l-1.18,8.933a.484.484,0,0,0,.416.543.518.518,0,0,0,.064,0" transform="translate(-1064.857 -2219.458)" fill="#b1e0ff"/>
        <path id="Path_902080" data-name="Path 902080" d="M1057.668,2494.124a.484.484,0,0,0,.48-.431l1.159-10.465a.484.484,0,0,0-.962-.106l-1.159,10.465a.484.484,0,0,0,.428.534l.054,0" transform="translate(-1014.647 -2215.664)" fill="#b1e0ff"/>
        <path id="Path_902081" data-name="Path 902081" d="M1256.254,2489.5a.527.527,0,0,0,.087-.008.484.484,0,0,0,.39-.563l-1.872-10.339a.484.484,0,1,0-.952.172l1.872,10.34a.484.484,0,0,0,.476.4" transform="translate(-1233.232 -2211.652)" fill="#b1e0ff"/>
        <path id="Path_902082" data-name="Path 902082" d="M1040.012,2532.192s-.578-4.406-6.63-5.045c-5.776-.61-7.121,4.2-7.121,4.2a29.05,29.05,0,0,0-5.142-.266c-.959.25-3.686,11.851-3.686,11.851s-4.921,7.785-5.214,9.782a18.631,18.631,0,0,0,.338,3.1c0,4.021,1.446,5.342,1.446,5.342h34.154a17.769,17.769,0,0,0,.571-5.594,17.285,17.285,0,0,0,.129-5.186c-.276-1.813-3.329-4.472-3.329-4.472l-2.519-13.449c-.476-.569-3-.269-3-.269" transform="translate(-999.499 -2255.29)" fill="#34313c"/>
        <path id="Path_902083" data-name="Path 902083" d="M1109.692,2568.5a.484.484,0,0,0,.182-.933l-13.247-5.356a.484.484,0,0,0-.363.9l13.248,5.356a.479.479,0,0,0,.181.035" transform="translate(-1069.683 -2286.598)" fill="#19161f"/>
        <path id="Path_902084" data-name="Path 902084" d="M1091.758,2575.065a.49.49,0,0,0,.126-.017l15.251-4.1a.484.484,0,0,0-.251-.935l-15.251,4.1a.484.484,0,0,0,.125.952" transform="translate(-1066.496 -2293.576)" fill="#19161f"/>
        <path id="Path_902085" data-name="Path 902085" d="M1116.229,2626.219a.484.484,0,0,0,.182-.933l-13.247-5.356a.484.484,0,1,0-.363.9l13.247,5.356a.478.478,0,0,0,.181.035" transform="translate(-1076.923 -2338.11)" fill="#19161f"/>
        <path id="Path_902086" data-name="Path 902086" d="M1098.294,2632.785a.489.489,0,0,0,.126-.017l15.251-4.1a.484.484,0,0,0-.251-.935l-15.251,4.1a.484.484,0,0,0,.125.951" transform="translate(-1073.735 -2345.088)" fill="#19161f"/>
        <path id="Path_902087" data-name="Path 902087" d="M1077.8,2573.844h17.048a.942.942,0,0,0,.734-.383c.756-.907,1.088-3.658,1.234-5.807a31.921,31.921,0,0,0-.112-6.558.484.484,0,0,0-.952.175,32.514,32.514,0,0,1,.074,6.659c-.275,3.614-.811,4.774-1.018,4.945h-16.87a7.245,7.245,0,0,1-.1-2.343c.065-1.353.234-3.036.412-4.817.2-1.964.4-3.994.464-5.632a.484.484,0,1,0-.967-.038c-.063,1.609-.265,3.625-.46,5.574-.5,5.02-.658,7.291-.04,7.975a.736.736,0,0,0,.549.25" transform="translate(-1054.378 -2284.281)" fill="#19161f"/>
        <path id="Path_902088" data-name="Path 902088" d="M1015.075,2791.65s35.7.045,36.116,0a20.388,20.388,0,0,1-.516,5.615h-34.169s-1.467-1.628-1.431-5.615" transform="translate(-1002.016 -2491.392)" fill="#19161f"/>
        <path id="Path_902089" data-name="Path 902089" d="M978,1099.533c-.259,13.87,5.128,63.5,7.036,76.082s7.032,14.832,15.682,14.909c9.144.082,12.022-5.363,14.016-22.367s4.35-43.355,2.839-56.707c-1.586-14.02-2.593-21.4-12.734-23.865S978.4,1078.257,978,1099.533" transform="translate(-964.874 -967.9)" fill="#ffa076"/>
        <path id="Path_902090" data-name="Path 902090" d="M548.265,1103.712c3.706,13.354,22.94,58.964,28.327,70.335s10.876,11.759,19.078,8.85c8.671-3.076,9.841-9.276,6.883-26.225s-9.851-42.35-13.469-55.212c-4.871-17.317-3.986-19.7-14.278-18.554s-32.226.321-26.541,20.806" transform="translate(-504.513 -966.217)" fill="#ffa076"/>
        <path id="Path_902091" data-name="Path 902091" d="M512.687,1382.955,531.6,1480.04s-24.643,4.975-34.728,20.552l-23.143-73.94s1.116,43.254-6.93,64.374l-32.473-.7s-1.988-29.741-1.834-41.458-3.477-70.842-3.477-70.842,64.712-7.085,74.356-2.391,9.311,7.32,9.311,7.32" transform="translate(-419.378 -1226.244)" fill="#6d3814"/>
        <path id="Path_902092" data-name="Path 902092" d="M505.1,1403.9l21.506,97.008-7.962,3.066-27.112-108.64Z" transform="translate(-421.097 -1245.257)" fill="#301604"/>
        <path id="Path_902093" data-name="Path 902093" d="M1089.578,1443.486s-.566,23.353-2.817,55.433-4.712,52.082-4.712,52.082l-7.776-.428s3.781-40.051,4.364-63.086,0-46.254,0-46.254Z" transform="translate(-1046.751 -1286.219)" fill="#301604"/>
        <path id="Path_902094" data-name="Path 902094" d="M901.9,1621.945a.484.484,0,0,0,.478-.414c.03-.209,3.079-21,6.539-28.528a.484.484,0,0,0-.88-.4c-3.517,7.654-6.492,27.933-6.617,28.793a.485.485,0,0,0,.48.554" transform="translate(-847.538 -1421.053)" fill="#301604"/>
        <path id="Path_902095" data-name="Path 902095" d="M708.336,1816.126a.49.49,0,0,0,.2-.042.484.484,0,0,0,.127-.8c-.642-1-6.039-13.053-12.089-28.495-5.475-13.974-12.679-33.772-15.908-48.729a.484.484,0,1,0-.946.2c3.279,15.19,10.618,35.3,16.2,49.5,3.611,9.19,6.684,16.4,8.193,19.885,1.03,2.375,1.948,4.436,2.654,5.96,1.079,2.328,1.169,2.373,1.347,2.464a.5.5,0,0,0,.224.053m-.047-.965a.486.486,0,0,0-.148.039.477.477,0,0,1,.148-.039" transform="translate(-623.558 -1550.78)" fill="#301604"/>
        <path id="Path_902096" data-name="Path 902096" d="M940.915,35.559a18.5,18.5,0,0,1-11.057-7.833C925.4,21.069,924.486,10.4,929.882,9s16.9-3.757,21.966-7.534,15.541.024,13.469,8.364c-1.837,7.394-18.113,5.3-21.344,7.693-4.565,3.376-3.1,18.291-3.058,18.041" transform="translate(-906.829 0.002)" fill="#34313c"/>
        <path id="Path_902097" data-name="Path 902097" d="M1023.73,321.75l.345,16.191s5.144,2.55,9.225,1.615c4.151-.951,5.521-2.053,5.521-2.053l-.559-9.236s-8.322-4.93-14.531-6.518" transform="translate(-990.558 -287.144)" fill="#ffa076"/>
        <path id="Path_902098" data-name="Path 902098" d="M1038.454,336.882l.175,3.131a11.247,11.247,0,0,1-6.678-.823c-7.934-3.522-3.291-7.786-3.291-7.786Z" transform="translate(-990.752 -295.76)" fill="#d15f2e"/>
        <path id="Path_902099" data-name="Path 902099" d="M989.95,140.221c5.542-2.41,4.778-8.8,4.065-12.034-.519-2.351-1.515-3.894-1.98-5.38s-.161-2.359-.517-4.192a28.2,28.2,0,0,0-2.875-5.837,3.24,3.24,0,0,0-3.406-1.516c-2.961.584-8.127,1.819-9.805,3.573-2.4,2.512-1.373,9.3-1.911,11.419,0,0-4.387-4.186-4.946,1.517a9.55,9.55,0,0,0,3.41,7.469,1.56,1.56,0,0,0,1.946-.161s6.9,9.109,16.019,5.142" transform="translate(-940.312 -99.24)" fill="#ffa076"/>
        <path id="Path_902100" data-name="Path 902100" d="M1011.561,308.637a7.023,7.023,0,0,0,3.092-.735.484.484,0,1,0-.422-.871,5.9,5.9,0,0,1-5.838-.3.484.484,0,0,0-.574.779,6.73,6.73,0,0,0,3.744,1.13" transform="translate(-964.931 -273.652)" fill="#d15f2e"/>
        <path id="Path_902101" data-name="Path 902101" d="M1013.686,214.045h.027c1.785-.1,2.532-.653,2.844-1.1a1.246,1.246,0,0,0,.189-1.1,2.7,2.7,0,0,0-.828-1.106,10.454,10.454,0,0,1-1.316-1.485,7.479,7.479,0,0,1-1.149-3.328.484.484,0,1,0-.965.073,8.394,8.394,0,0,0,1.331,3.825,11.455,11.455,0,0,0,1.426,1.611,2.1,2.1,0,0,1,.576.694.29.29,0,0,1-.057.259c-.1.139-.536.6-2.1.688a.484.484,0,0,0,.026.967" transform="translate(-967.328 -183.38)" fill="#d15f2e"/>
        <path id="Path_902102" data-name="Path 902102" d="M994.708,178.742a.485.485,0,0,0,.132-.018,7.269,7.269,0,0,1,3.76-.068.484.484,0,0,0,.29-.923,8.114,8.114,0,0,0-4.315.06.484.484,0,0,0,.132.95" transform="translate(-947.793 -158.385)" fill="#d15f2e"/>
        <path id="Path_902103" data-name="Path 902103" d="M1075.221,191.978a.482.482,0,0,0,.274-.085,10.577,10.577,0,0,1,4.179-1.672.484.484,0,0,0-.117-.961,11.37,11.37,0,0,0-4.61,1.835.484.484,0,0,0,.275.883" transform="translate(-1037.323 -168.9)" fill="#d15f2e"/>
        <path id="Path_902104" data-name="Path 902104" d="M1080.028,233.858a1.255,1.255,0,1,0,2.331-.715,1.24,1.24,0,1,0-2.331.715" transform="translate(-1040.229 -207.094)" fill="#34313c"/>
        <path id="Path_902105" data-name="Path 902105" d="M1000.989,213.886a1.08,1.08,0,1,0,2.007-.615,1.067,1.067,0,1,0-2.007.615" transform="translate(-952.353 -189.494)" fill="#34313c"/>
        <path id="Path_902106" data-name="Path 902106" d="M1161.91,262.295a1.266,1.266,0,0,0,1.214-.843,3.1,3.1,0,0,0-.638-3.03.964.964,0,0,0-1.164-.117.484.484,0,0,0,.5.83l0,0a2.138,2.138,0,0,1,.459,1.757c-.088.458-.3.444-.414.437-.156-.01-.552-.255-1.043-1.106-.814-1.41-1.166-3.159-.915-3.667.094-.191.177-.2.209-.207.314-.043.933.433,1.26.794a.484.484,0,1,0,.718-.65c-.187-.207-1.171-1.233-2.111-1.1a1.224,1.224,0,0,0-.943.737c-.534,1.081.248,3.372.945,4.58.4.7,1.044,1.538,1.818,1.588q.052,0,.1,0" transform="translate(-1129.552 -227.907)" fill="#d15f2e"/>
        <path id="Path_902107" data-name="Path 902107" d="M1012.732,89.656s-1.137,2.675-10.067,3.585S991,90.8,992.028,88.577s16.779-6.715,20.7,1.079" transform="translate(-961.038 -76.09)" fill="#34313c"/>
        <path id="Path_902108" data-name="Path 902108" d="M612,447.249c2.177-2.6,10.09-6.679,18.707,3.669,5.572,6.692,21.992,41.565,16.874,48.3-6.433,8.465-14.047,4.306-19.487-2.957-4.73-6.314-24.32-39.167-16.094-49.011" transform="translate(-555.795 -396.446)" fill="#ffa076"/>
        <path id="Path_902109" data-name="Path 902109" d="M761.17,442.024c4.727-5.746,18.821-6.9,21.79-7.081,2.964-.239,17.081-1.083,22.57,3.94,6.148,5.626,14.3,49.418,12.21,60.589-1.659,8.866-19.561,10.716-26.879,11.1-1.692.089-3.377.209-5.064.359-7.3.649-25.284,1.341-28.176-7.2-3.643-10.765-1.745-55.269,3.549-61.705" transform="translate(-740.988 -387.98)" fill="#ffa076"/>
        <path id="Path_902110" data-name="Path 902110" d="M1123.036,465.176c3.3-.809,12.086.6,12.9,14.038.525,8.692-6.9,46.515-15.014,48.909-10.2,3.009-13.868-4.852-13.949-13.926-.07-7.889,3.606-45.963,16.065-49.02" transform="translate(-1096.651 -414.981)" fill="#ffa076"/>
        <path id="Path_902111" data-name="Path 902111" d="M817.171,834.253c5.719-4.059,22.539-5.616,31.018-6.487s14.316-2.613,16.819-2.314,7.108,6.591,7.108,6.591c-17.639,15.768-45.761,20.4-52.06,19.3s-8.392-13.179-2.885-17.087" transform="translate(-801.295 -736.64)" fill="#ffa076"/>
        <path id="Path_902112" data-name="Path 902112" d="M265.911,733.882c4.955-3.469,19.431-7.718,27.108-9.471s12.625-4.018,15.055-4.019,11.639,4.68-.661,14.126S273.39,750.7,267.17,750.389s-11.552-9.3-1.259-16.507" transform="translate(-183.277 -642.909)" fill="#ffa076"/>
        <path id="Path_902113" data-name="Path 902113" d="M345.592,891.259s1.364-10.924-.541-18.686l-6.769,4.011s2.334,11.006,7.31,14.675" transform="translate(-224.079 -778.723)" fill="#699fc2"/>
        <path id="Path_902114" data-name="Path 902114" d="M389.346,395.551l-13.96-3.089-1.708,5.456s-10.077.807-14.049,6.691-13.878,45.779-12.741,51.239,8.384,9.257,8.384,9.257l-12.593,42.73s20.567,9.164,43.228,8.575c20.742-.539,26.149-3.576,26.149-3.576l-1.574-10.8s8.415,6.721,14.671,8.48c0,0,13.088-1.5,20.126-8.983,0,0-6.419-3.592-11.367-16.39s-5.707-21.095-5.707-21.095l35.882-1.258s-10.5-11.312-9.358-32.243l-21.841,4.2s-11.062-25.195-17.278-33.808c-3.443-4.771-21.255-4.369-21.255-4.369l-2.278-3.585Z" transform="translate(-342.574 -350.25)" fill="#b1e0ff"/>
        <path id="Path_902115" data-name="Path 902115" d="M1027.1,1074.05a44.031,44.031,0,0,1-24.649,7.216c-14.666-.149-18.22-4.887-18.22-4.887l3.056-10.593s15.831,8.983,39.813,8.264" transform="translate(-974.585 -951.154)" fill="#699fc2"/>
        <path id="Path_902116" data-name="Path 902116" d="M579.72,898.4s-11.776-6.031-15.7-16.4,3.967,16.827,3.967,16.827Z" transform="translate(-481.896 -785.033)" fill="#699fc2"/>
        <path id="Path_902117" data-name="Path 902117" d="M1064.364,764.706s-1.064,9.5,4.226,10.21l-8.282,1.833s2.821-7.906,2.949-8.546,1.107-3.5,1.107-3.5" transform="translate(-1024.262 -682.457)" fill="#699fc2"/>
        <path id="Path_902118" data-name="Path 902118" d="M1000.61,427.372a.484.484,0,0,0,.479-.413l1.311-8.794,4.332,4.206a.484.484,0,0,0,.821-.347V419a.484.484,0,1,0-.968,0v1.877l-4.188-4.066a.484.484,0,0,0-.816.276l-1.373,9.211a27.837,27.837,0,0,1-12.859-6.62.484.484,0,0,0-.7.669c.2.206,4.922,5.071,13.858,7.011a.482.482,0,0,0,.1.011" transform="translate(-955.288 -371.861)" fill="#699fc2"/>
        <path id="Path_902119" data-name="Path 902119" d="M858.195,524.128a.484.484,0,0,0,.44-.685c-4.175-9.16-3.095-18.719-1.951-28.84,1.088-9.625,2.32-20.534-.851-32.654a196.136,196.136,0,0,0-11.607-31.8c-3.735-8.066-6.72-13.178-6.749-13.228a.484.484,0,0,0-.835.489A200.808,200.808,0,0,1,854.9,462.195c3.125,11.945,1.956,22.293.826,32.3-1.159,10.258-2.254,19.947,2.032,29.35a.484.484,0,0,0,.441.283" transform="translate(-790.287 -371.862)" fill="#699fc2"/>
        <path id="Path_902120" data-name="Path 902120" d="M683.53,682.756a.485.485,0,0,0,.472-.6c-.077-.329-7.788-33.032-11.264-44.824a.484.484,0,0,0-.929.274c3.469,11.767,11.173,44.444,11.25,44.773a.484.484,0,0,0,.471.373" transform="translate(-597.899 -568.477)" fill="#699fc2"/>
        <path id="Path_902121" data-name="Path 902121" d="M237.635,473.289l-39.542,3.874c-2.057.2-3.892-2.026-3.066-3.721l21.518-44.195a7.685,7.685,0,0,1,6.354-4.182l39.542-3.874c2.057-.2,3.892,2.026,3.066,3.721L243.99,469.107a7.685,7.685,0,0,1-6.354,4.182" transform="translate(-128.294 -375.878)" fill="#34313c"/>
        <path id="Path_902122" data-name="Path 902122" d="M222.367,491.891l-39.542,3.874c-2.057.2-3.892-2.026-3.066-3.721l21.518-44.195a7.685,7.685,0,0,1,6.354-4.182l39.542-3.874c2.057-.2,3.892,2.026,3.066,3.721l-21.518,44.195a7.685,7.685,0,0,1-6.354,4.182" transform="translate(-111.384 -392.479)" fill="#34313c"/>
        <path id="Path_902123" data-name="Path 902123" d="M205.93,488.617a.484.484,0,0,0,.435-.272l21.518-44.195a7.179,7.179,0,0,1,5.966-3.912l39.542-3.874a.484.484,0,1,0-.094-.963l-39.542,3.874a8.127,8.127,0,0,0-6.742,4.452L205.5,487.921a.484.484,0,0,0,.435.7" transform="translate(-137.555 -388.568)" fill="#fff"/>
        <path id="Path_902124" data-name="Path 902124" d="M597.9,684.618l11.1-13.13c2.656-4.827,6.088-6.353,9.991-6.661l9.495-.271c1.219.039,3.156-.426,3.26,1.357.131,3.27-7.23,2.435-8.223,2.765a2.109,2.109,0,0,1,.131,4.175l-.649.115a1.937,1.937,0,0,1,2.237,1.581l0,.01a1.937,1.937,0,0,1-1.581,2.237l-.072.012a1.428,1.428,0,0,1,1.587,1.58c.02,2.169-.526,2.056-1.581,2.237l-5.026.864s-3.517,8.533-10.522,8.533c-.2.054-5.27,5.049-9.328,4.848,0,0-2.589-5.777-.82-10.253" transform="translate(-537.615 -593.054)" fill="#ffa076"/>
        <path id="Path_902125" data-name="Path 902125" d="M669.462,774.44l.048,0,4.237-.415a.484.484,0,1,0-.094-.963l-4.237.415a.484.484,0,0,0,.047.966" transform="translate(-587.765 -689.91)" fill="#d15f2e"/>
        <path id="Path_902126" data-name="Path 902126" d="M672.273,739.628l.044,0,4.518-.406a.484.484,0,0,0-.086-.964l-4.518.406a.484.484,0,0,0,.043.966" transform="translate(-591.161 -658.85)" fill="#d15f2e"/>
        <path id="Path_902127" data-name="Path 902127" d="M670.559,700.178a.483.483,0,0,0,.059,0l4.949-.6a.484.484,0,0,0-.117-.961l-4.949.6a.484.484,0,0,0,.058.964" transform="translate(-589.693 -623.469)" fill="#d15f2e"/>
        <path id="Path_902128" data-name="Path 902128" d="M272.7,635.426l-.547-.991c-2.856-4.31-6.978-4.439-10.651-4.426l-8.9.479c-1.137.131-2.984-.155-2.944,1.521.13,3.068,6.95,1.719,7.9,1.951a1.979,1.979,0,0,0,.2,3.915l.616.057a1.818,1.818,0,0,0-1.971,1.651v.012a1.818,1.818,0,0,0,1.652,1.968l.069.006a1.34,1.34,0,0,0-1.362,1.6c.148,2.031.651,1.882,1.651,1.97l4.768.42s-1.034,5.18,2.377,5.648c5.466.641,7.557-4.123,8.357-8a11.384,11.384,0,0,0-1.215-7.788" transform="translate(-142.626 -562.247)" fill="#ffa076"/>
        <path id="Path_902129" data-name="Path 902129" d="M361.179,732.938a.484.484,0,0,0,.007-.968l-3.994-.061a.484.484,0,1,0-.015.968l3.995.061h.008" transform="translate(-241.658 -653.188)" fill="#d15f2e"/>
        <path id="Path_902130" data-name="Path 902130" d="M359.052,700.14a.484.484,0,0,0,0-.968l-4.257-.031h0a.484.484,0,0,0,0,.968l4.257.031Z" transform="translate(-239.274 -623.944)" fill="#d15f2e"/>
        <path id="Path_902131" data-name="Path 902131" d="M360.251,663.343a.484.484,0,0,0,.018-.968l-4.675-.18a.484.484,0,1,0-.037.967l4.675.18h.019" transform="translate(-240.557 -590.972)" fill="#d15f2e"/>
        <path id="Path_902132" data-name="Path 902132" d="M866.619,863.373c21.239,10.849,52.462,7.579,52.462,7.579-5.815-11.034-3.734-32.223-3.734-32.223l-21.518,2.987s-12.13,2.481-19.6,10.739Z" transform="translate(-853.921 -748.519)" fill="#b1e0ff"/>
        <path id="Path_902133" data-name="Path 902133" d="M903.965,867.88c6.624,0,11.092-.457,11.151-.464a.484.484,0,0,0,.378-.707c-5.682-10.781-3.7-31.74-3.68-31.95a.484.484,0,0,0-.548-.527l-21.518,2.988-.03.005a42.332,42.332,0,0,0-7.088,2.3,36.244,36.244,0,0,0-12.771,8.589.484.484,0,0,0,.718.649c7.157-7.916,18.847-10.486,19.321-10.587l20.9-2.9a108.282,108.282,0,0,0-.263,11.426c.264,8.53,1.535,15.192,3.778,19.817a135.519,135.519,0,0,1-17.5.212c-9.492-.49-23.093-2.242-33.984-7.8a.484.484,0,1,0-.44.862,68.513,68.513,0,0,0,17.28,5.8,114.368,114.368,0,0,0,17.111,2.106c2.578.133,5,.183,7.191.183" transform="translate(-849.905 -744.502)" fill="#699fc2"/>
        <path id="Path_902134" data-name="Path 902134" d="M1089.941,515.421a.484.484,0,0,0,.372-.793c-7.413-8.944-13.758-12.494-17.775-13.9-4.424-1.545-7.067-.928-7.178-.9a.484.484,0,0,0,.229.941c.025-.006,2.542-.575,6.724.907,3.882,1.376,10.027,4.847,17.255,13.569a.483.483,0,0,0,.373.175" transform="translate(-1046.601 -445.941)" fill="#699fc2"/>
        <path id="Path_902135" data-name="Path 902135" d="M1065.476,709.057a.484.484,0,0,0,.481-.432c.511-4.681,6.555-19.26,6.616-19.407a.484.484,0,1,0-.894-.372c-.251.6-6.159,14.855-6.684,19.673a.484.484,0,0,0,.429.534l.053,0" transform="translate(-1028.785 -614.491)" fill="#699fc2"/>
        <path id="Path_902136" data-name="Path 902136" d="M853.555,952.545s2.7-14.042.794-22.446c0,0-3.036,1.894-5.264,1.779,0,0,.545,7.454,1.27,12.244a22.617,22.617,0,0,0,3.2,8.424" transform="translate(-787.983 -830.061)" fill="#699fc2"/>
        <path id="Path_902137" data-name="Path 902137" d="M503.2,1283.1a.487.487,0,0,0,.152-.024c5.266-1.738,11.234-3.708,15.463-8.008a.484.484,0,0,0-.322-.823c-1.13-.053-5.431-2.871-11.675-15.106a.484.484,0,0,0-.862.44,60.8,60.8,0,0,0,7.79,12.219,12.33,12.33,0,0,0,3.78,3.172c-4.027,3.736-9.564,5.564-14.476,7.185a.484.484,0,0,0,.152.944" transform="translate(-414.648 -1123.476)" fill="#699fc2"/>
        <path id="Path_902138" data-name="Path 902138" d="M1310.887,1259.479a.484.484,0,0,0,.059-.964,51.041,51.041,0,0,1-17.935-5.755l6.909-24.687a.484.484,0,1,0-.932-.261l-7.012,25.057a.484.484,0,0,0,.232.554,52,52,0,0,0,18.62,6.053.529.529,0,0,0,.06,0" transform="translate(-1291.957 -1095.438)" fill="#699fc2"/>
        <path id="Path_902139" data-name="Path 902139" d="M1354.2,658.615a.484.484,0,0,0,.48-.426c1.493-12.356,4.81-23.656,7.736-33.627a.484.484,0,1,0-.929-.273c-2.937,10.006-6.266,21.348-7.769,33.783a.484.484,0,0,0,.422.539.5.5,0,0,0,.059,0" transform="translate(-1349.669 -556.833)" fill="#699fc2"/>
      </g>
    </g>
  </g>
</svg>
