<svg xmlns="http://www.w3.org/2000/svg" xmlns:xlink="http://www.w3.org/1999/xlink" width="98" height="98" viewBox="0 0 98 98">
  <defs>
    <filter id="Path_896985" x="0" y="0" width="98" height="98" filterUnits="userSpaceOnUse">
      <feOffset dy="3" input="SourceAlpha"/>
      <feGaussianBlur stdDeviation="3" result="blur"/>
      <feFlood flood-opacity="0.161"/>
      <feComposite operator="in" in2="blur"/>
      <feComposite in="SourceGraphic"/>
    </filter>
  </defs>
  <g id="Group_1113230" data-name="Group 1113230" transform="translate(-187.384 -1833)">
    <g id="Group_1111530" data-name="Group 1111530" transform="translate(196.384 1839)" style="isolation: isolate">
      <g id="Group_1098742" data-name="Group 1098742">
        <g transform="matrix(1, 0, 0, 1, -9, -6)" filter="url(#Path_896985)">
          <g id="Path_896985-2" data-name="Path 896985" transform="translate(9 6)" fill="#8dc0ff">
            <path d="M 40.00000381469727 78.50012969970703 C 34.80187225341797 78.50012969970703 29.76003646850586 77.48240661621094 25.0145263671875 75.47523498535156 C 20.43014907836914 73.53620147705078 16.31264877319336 70.75999450683594 12.77639293670654 67.22373962402344 C 9.240137100219727 63.68747711181641 6.463937282562256 59.56997680664062 4.524903774261475 54.98559951782227 C 2.517725944519043 50.24008560180664 1.500003814697266 45.1982421875 1.500003814697266 40.0001106262207 C 1.500003814697266 34.80195236206055 2.517725944519043 29.76008796691895 4.524914741516113 25.01456451416016 C 6.463937282562256 20.43017578125 9.240137100219727 16.31266403198242 12.77639293670654 12.77639865875244 C 16.31264877319336 9.240142822265625 20.43014907836914 6.463931560516357 25.0145263671875 4.524909496307373 C 29.76003646850586 2.517720460891724 34.80187225341797 1.499998211860657 40.00000381469727 1.499998211860657 C 45.19813537597656 1.499998211860657 50.23998260498047 2.517720460891724 54.98548126220703 4.524898052215576 C 59.56985855102539 6.463931560516357 63.68735885620117 9.240131378173828 67.22361755371094 12.77638721466064 C 70.75987243652344 16.31264305114746 73.53607177734375 20.43015289306641 75.47510528564453 25.0145206451416 C 77.48228454589844 29.76003074645996 78.5 34.80187606811523 78.5 40.00000762939453 C 78.5 45.19816589355469 77.48228454589844 50.24003219604492 75.47510528564453 54.98555374145508 C 73.53607177734375 59.56994247436523 70.75987243652344 63.68746566772461 67.22361755371094 67.22373199462891 C 63.68735885620117 70.75998687744141 59.56985855102539 73.53620147705078 54.98548126220703 75.4752197265625 C 50.23998260498047 77.48240661621094 45.19813537597656 78.50012969970703 40.00000381469727 78.50012969970703 Z" stroke="none"/>
            <path d="M 40.00000381469727 3 C 35.00371170043945 3 30.15847015380859 3.977851867675781 25.59885787963867 5.906410217285156 C 21.19327163696289 7.769813537597656 17.23603057861328 10.43806457519531 13.83704376220703 13.83705139160156 C 10.43807220458984 17.23603820800781 7.769813537597656 21.19327926635742 5.906417846679688 25.59885025024414 C 3.977859497070312 30.15846633911133 3.000007629394531 35.00370407104492 3.000007629394531 40.00011825561523 C 3.000007629394531 44.99641036987305 3.977859497070312 49.84166717529297 5.906417846679688 54.40127563476562 C 7.769813537597656 58.80685424804688 10.43807220458984 62.76409149169922 13.83704376220703 66.16307830810547 C 17.23603057861328 69.56206512451172 21.19327163696289 72.23031616210938 25.59885787963867 74.09371948242188 C 30.1584587097168 76.02227783203125 35.00371170043945 77.00012969970703 40.00000381469727 77.00012969970703 C 44.99629592895508 77.00012969970703 49.841552734375 76.02227783203125 54.40114974975586 74.09371948242188 C 58.80673980712891 72.23031616210938 62.76397705078125 69.56206512451172 66.1629638671875 66.16307830810547 C 69.56193542480469 62.76409149169922 72.23019409179688 58.80685424804688 74.09358978271484 54.40127563476562 C 76.02214813232422 49.84166717529297 77 44.99641036987305 77 40 C 77 35.00370407104492 76.02214813232422 30.15846633911133 74.09358978271484 25.59885025024414 C 72.23019409179688 21.19327926635742 69.56193542480469 17.23603820800781 66.1629638671875 13.83705139160156 C 62.76397705078125 10.43806457519531 58.80673980712891 7.769813537597656 54.40114974975586 5.906410217285156 C 49.84153747558594 3.977851867675781 44.99629592895508 3 40.00000381469727 3 M 40.00000381469727 0 C 62.09140396118164 0 80 17.90861129760742 80 40 L 80 40.00011825561523 C 80 62.09151840209961 62.09140396118164 80.00012969970703 40.00000381469727 80.00012969970703 C 17.90860366821289 80.00012969970703 7.62939453125e-06 62.09151840209961 7.62939453125e-06 40.00011825561523 L 7.62939453125e-06 40 C 7.62939453125e-06 17.90861129760742 17.90860366821289 0 40.00000381469727 0 Z" stroke="none" fill="#fff"/>
          </g>
        </g>
        <g id="Rectangle_400907" data-name="Rectangle 400907" transform="translate(0 0)" fill="none" stroke="#fff" stroke-width="3">
          <rect width="80" height="80" rx="40" stroke="none"/>
          <rect x="1.5" y="1.5" width="77" height="77" rx="38.5" fill="none"/>
        </g>
      </g>
    </g>
    <g id="Page-1" transform="translate(212.391 1856.001)">
      <g id="_029---Spade" data-name="029---Spade" transform="translate(-0.006 -0.001)">
        <path id="Shape" d="M55.447,8.861,49.266,2.68a2.324,2.324,0,0,0-3.28,0L43.9,4.771a.935.935,0,0,0-.278.563l-.587,5.294a.957.957,0,0,0,.27.779l3.411,3.411a.957.957,0,0,0,.779.27l5.294-.587a.935.935,0,0,0,.563-.278l2.091-2.084a2.324,2.324,0,0,0,0-3.28Zm-3.28,2.184-.27.278a.8.8,0,0,1-.463.224l-2.886.316a.757.757,0,0,1-.633-.216L46.48,10.212a.749.749,0,0,1-.216-.625l.316-2.894A.8.8,0,0,1,46.8,6.23l.278-.278a.762.762,0,0,1,1.088.008l4,4a.755.755,0,0,1,0,1.088Z" transform="translate(-10.59 -1.228)" fill="#ff9801"/>
        <path id="Shape-2" data-name="Shape" d="M56.464,8.862,50.282,2.681a2.315,2.315,0,0,0-2.8-.359,2.284,2.284,0,0,1,.482.359l6.181,6.181a2.324,2.324,0,0,1,0,3.28l-2.091,2.084a.935.935,0,0,1-.563.278l-3.648.4a.962.962,0,0,0,.669.182l5.294-.587a.935.935,0,0,0,.563-.278l2.091-2.084a2.324,2.324,0,0,0,0-3.28Z" transform="translate(-11.607 -1.229)" fill="#f57c00"/>
        <path id="Rectangle-path" d="M0,0H20.944V3.82H0Z" transform="translate(18.26 25.344) rotate(-45)" fill="sienna"/>
        <path id="Shape-3" data-name="Shape" d="M25.554,36.541l-3.38,3.38L19.9,42.2a1.543,1.543,0,0,1-2.184,0l-.517-.517a1.543,1.543,0,0,1,0-2.184l2.277-2.277,3.38-3.38Z" transform="translate(-4.589 -8.496)" fill="#cfd8dc"/>
        <path id="Shape-4" data-name="Shape" d="M22.188,47.1l-3.311,3.311a11.475,11.475,0,0,1-9.569,3.272l-4.931-.633A1.9,1.9,0,0,1,2.726,51.4l-.633-4.931A11.475,11.475,0,0,1,5.365,36.9l3.311-3.311a2.865,2.865,0,0,1,4.051,0l3.38,3.38L13.83,39.248a1.543,1.543,0,0,0,0,2.184l.517.517a1.543,1.543,0,0,0,2.184,0l2.277-2.277,3.38,3.38a2.865,2.865,0,0,1,0,4.051Z" transform="translate(-1.223 -8.248)" fill="#7f8e94"/>
        <path id="Shape-5" data-name="Shape" d="M24.455,45.1l-3.38-3.38-1.158,1.158L22.14,45.1a2.865,2.865,0,0,1,0,4.051l-3.311,3.311a11.469,11.469,0,0,1-6.9,3.3,11.466,11.466,0,0,0,9.213-3.3l3.311-3.311a2.865,2.865,0,0,0,0-4.051Z" transform="translate(-3.491 -10.295)" fill="#545c60"/>
        <path id="Shape-6" data-name="Shape" d="M12.643,33.593l3.38,3.38L13.747,39.25a1.543,1.543,0,0,0,0,2.184l.517.517a1.543,1.543,0,0,0,2.184,0l.066-.066-.451-.451a1.543,1.543,0,0,1,0-2.184l2.277-2.277-3.38-3.38a2.859,2.859,0,0,0-3.183-.587,2.841,2.841,0,0,1,.868.587Z" transform="translate(-3.455 -8.249)" fill="#545c60"/>
        <path id="Shape-7" data-name="Shape" d="M48.094,13.065a1.538,1.538,0,0,0,1.09.451,1.417,1.417,0,0,0,.171-.01l2.89-.321a1.55,1.55,0,0,0,.926-.443l.276-.276a1.543,1.543,0,0,0,0-2.182l-4-4a1.543,1.543,0,0,0-2.182,0l-.276.276a1.552,1.552,0,0,0-.445.922l-.32,2.89a1.537,1.537,0,0,0,.443,1.262Zm-.34-2.524.321-2.89.277-.276,4,4-.276.276-2.892.322-1.429-1.43Z" transform="translate(-11.316 -2.102)"/>
        <path id="Shape-8" data-name="Shape" d="M1.1,39.322l.635,4.929a2.667,2.667,0,0,0,2.315,2.315l4.939.636a12.506,12.506,0,0,0,1.567.1,12.164,12.164,0,0,0,8.643-3.589L22.506,40.4a3.642,3.642,0,0,0,0-5.145l-2.832-2.832L36.791,15.308a1.71,1.71,0,0,0,1,.33,1.638,1.638,0,0,0,.194-.011l5.292-.588a1.735,1.735,0,0,0,1.03-.495L46.4,12.456a3.093,3.093,0,0,0,0-4.368L40.213,1.9a3.087,3.087,0,0,0-4.368,0l-2.09,2.09a1.729,1.729,0,0,0-.494,1.029l-.589,5.293A1.711,1.711,0,0,0,33,11.511l-17.12,17.12L13.043,25.8a3.643,3.643,0,0,0-5.146,0L4.586,29.109A12.185,12.185,0,0,0,1.1,39.322ZM16.42,30.269l2.832-2.832,1.612,1.611-5.109,5.109a.789.789,0,0,1-1.09,0l-.52-.519a.772.772,0,0,1,0-1.092Zm5.537-2.315-1.611-1.611,13.72-13.717.806.806.806.806ZM34.8,5.192a.185.185,0,0,1,.052-.108L36.94,3a1.543,1.543,0,0,1,2.185,0l6.18,6.185a1.548,1.548,0,0,1,0,2.185l-2.088,2.088a.191.191,0,0,1-.111.053l-5.292.588a.182.182,0,0,1-.15-.053l-3.406-3.406a.182.182,0,0,1-.053-.154ZM8.989,26.889a2.1,2.1,0,0,1,2.963,0l2.833,2.833-1.731,1.73a2.32,2.32,0,0,0,0,3.274l.521.52a2.315,2.315,0,0,0,3.274,0l1.73-1.73,2.833,2.834a2.1,2.1,0,0,1,0,2.963L18.1,42.624a10.645,10.645,0,0,1-8.921,3.05L4.24,45.038a1.126,1.126,0,0,1-.979-.982l-.634-4.93A10.65,10.65,0,0,1,5.677,30.2Z" transform="translate(-0.994 -0.999)"/>
        <g id="Group_1113229" data-name="Group 1113229" transform="translate(3.824 27.961)">
          <path id="Shape-9" data-name="Shape" d="M6.785,47.787a.772.772,0,0,1-.765-.674,8.382,8.382,0,0,1,2.4-7.029l2.635-2.635a.772.772,0,0,1,1.091,1.091L9.511,41.175a6.852,6.852,0,0,0-1.96,5.743.772.772,0,0,1-.668.862A.849.849,0,0,1,6.785,47.787Z" transform="translate(-5.949 -37.231)" fill="#f5f5f5"/>
          <path id="Shape-10" data-name="Shape" d="M12.849,54.151a8.547,8.547,0,0,1-1.08-.069.772.772,0,1,1,.194-1.531,6.854,6.854,0,0,0,5.742-1.961l2.635-2.635a.772.772,0,0,1,1.091,1.091L18.8,51.682a8.368,8.368,0,0,1-5.948,2.469Z" transform="translate(-7.123 -39.63)" fill="#f5f5f5"/>
        </g>
      </g>
    </g>
  </g>
</svg>
