<svg xmlns="http://www.w3.org/2000/svg" xmlns:xlink="http://www.w3.org/1999/xlink" width="98" height="98" viewBox="0 0 98 98">
  <defs>
    <filter id="Path_896985" x="0" y="0" width="98" height="98" filterUnits="userSpaceOnUse">
      <feOffset dy="3" input="SourceAlpha"/>
      <feGaussianBlur stdDeviation="3" result="blur"/>
      <feFlood flood-opacity="0.161"/>
      <feComposite operator="in" in2="blur"/>
      <feComposite in="SourceGraphic"/>
    </filter>
  </defs>
  <g id="Group_1113241" data-name="Group 1113241" transform="translate(-1027.384 -1833)">
    <g id="Group_1111529" data-name="Group 1111529" transform="translate(1036.384 1839)" style="isolation: isolate">
      <g id="Group_1098742" data-name="Group 1098742">
        <g transform="matrix(1, 0, 0, 1, -9, -6)" filter="url(#Path_896985)">
          <g id="Path_896985-2" data-name="Path 896985" transform="translate(9 6)" fill="#8dc0ff">
            <path d="M 40.00000381469727 78.50012969970703 C 34.80187225341797 78.50012969970703 29.76003646850586 77.48240661621094 25.0145263671875 75.47523498535156 C 20.43014907836914 73.53620147705078 16.31264877319336 70.75999450683594 12.77639293670654 67.22373962402344 C 9.240137100219727 63.68747711181641 6.463937282562256 59.56997680664062 4.524903774261475 54.98559951782227 C 2.517725944519043 50.24008560180664 1.500003814697266 45.1982421875 1.500003814697266 40.0001106262207 C 1.500003814697266 34.80195236206055 2.517725944519043 29.76008796691895 4.524914741516113 25.01456451416016 C 6.463937282562256 20.43017578125 9.240137100219727 16.31266403198242 12.77639293670654 12.77639865875244 C 16.31264877319336 9.240142822265625 20.43014907836914 6.463931560516357 25.0145263671875 4.524909496307373 C 29.76003646850586 2.517720460891724 34.80187225341797 1.499998211860657 40.00000381469727 1.499998211860657 C 45.19813537597656 1.499998211860657 50.23998260498047 2.517720460891724 54.98548126220703 4.524898052215576 C 59.56985855102539 6.463931560516357 63.68735885620117 9.240131378173828 67.22361755371094 12.77638721466064 C 70.75987243652344 16.31264305114746 73.53607177734375 20.43015289306641 75.47510528564453 25.0145206451416 C 77.48228454589844 29.76003074645996 78.5 34.80187606811523 78.5 40.00000762939453 C 78.5 45.19816589355469 77.48228454589844 50.24003219604492 75.47510528564453 54.98555374145508 C 73.53607177734375 59.56994247436523 70.75987243652344 63.68746566772461 67.22361755371094 67.22373199462891 C 63.68735885620117 70.75998687744141 59.56985855102539 73.53620147705078 54.98548126220703 75.4752197265625 C 50.23998260498047 77.48240661621094 45.19813537597656 78.50012969970703 40.00000381469727 78.50012969970703 Z" stroke="none"/>
            <path d="M 40.00000381469727 3 C 35.00371170043945 3 30.15847015380859 3.977851867675781 25.59885787963867 5.906410217285156 C 21.19327163696289 7.769813537597656 17.23603057861328 10.43806457519531 13.83704376220703 13.83705139160156 C 10.43807220458984 17.23603820800781 7.769813537597656 21.19327926635742 5.906417846679688 25.59885025024414 C 3.977859497070312 30.15846633911133 3.000007629394531 35.00370407104492 3.000007629394531 40.00011825561523 C 3.000007629394531 44.99641036987305 3.977859497070312 49.84166717529297 5.906417846679688 54.40127563476562 C 7.769813537597656 58.80685424804688 10.43807220458984 62.76409149169922 13.83704376220703 66.16307830810547 C 17.23603057861328 69.56206512451172 21.19327163696289 72.23031616210938 25.59885787963867 74.09371948242188 C 30.1584587097168 76.02227783203125 35.00371170043945 77.00012969970703 40.00000381469727 77.00012969970703 C 44.99629592895508 77.00012969970703 49.841552734375 76.02227783203125 54.40114974975586 74.09371948242188 C 58.80673980712891 72.23031616210938 62.76397705078125 69.56206512451172 66.1629638671875 66.16307830810547 C 69.56193542480469 62.76409149169922 72.23019409179688 58.80685424804688 74.09358978271484 54.40127563476562 C 76.02214813232422 49.84166717529297 77 44.99641036987305 77 40 C 77 35.00370407104492 76.02214813232422 30.15846633911133 74.09358978271484 25.59885025024414 C 72.23019409179688 21.19327926635742 69.56193542480469 17.23603820800781 66.1629638671875 13.83705139160156 C 62.76397705078125 10.43806457519531 58.80673980712891 7.769813537597656 54.40114974975586 5.906410217285156 C 49.84153747558594 3.977851867675781 44.99629592895508 3 40.00000381469727 3 M 40.00000381469727 0 C 62.09140396118164 0 80 17.90861129760742 80 40 L 80 40.00011825561523 C 80 62.09151840209961 62.09140396118164 80.00012969970703 40.00000381469727 80.00012969970703 C 17.90860366821289 80.00012969970703 7.62939453125e-06 62.09151840209961 7.62939453125e-06 40.00011825561523 L 7.62939453125e-06 40 C 7.62939453125e-06 17.90861129760742 17.90860366821289 0 40.00000381469727 0 Z" stroke="none" fill="#fff"/>
          </g>
        </g>
        <g id="Rectangle_400907" data-name="Rectangle 400907" transform="translate(0 0)" fill="none" stroke="#fff" stroke-width="3">
          <rect width="80" height="80" rx="40" stroke="none"/>
          <rect x="1.5" y="1.5" width="77" height="77" rx="38.5" fill="none"/>
        </g>
      </g>
    </g>
    <g id="Group_1113240" data-name="Group 1113240" transform="translate(1052.384 1844.754)">
      <path id="Path_902352" data-name="Path 902352" d="M60.382,305.927H53.364l-6.559,8.4H84.5l-6.559-8.4H60.382Z" transform="translate(-42.53 -266.854)" fill="#e4ac8b"/>
      <path id="Path_902353" data-name="Path 902353" d="M77.941,397.84H53.364l-6.559,8.4H84.5Z" transform="translate(-42.53 -350.372)" fill="#b96b57"/>
      <path id="Path_902354" data-name="Path 902354" d="M164.863,165.229H148.4a1.619,1.619,0,0,1-1.619-1.619v-4.988A1.619,1.619,0,0,1,148.4,157h16.464a1.619,1.619,0,0,1,1.619,1.619v4.988A1.619,1.619,0,0,1,164.863,165.229Z" transform="translate(-133.372 -131.534)" fill="#cef1d0"/>
      <path id="Path_902355" data-name="Path 902355" d="M164.863,30.472H148.4a1.619,1.619,0,0,1-1.619-1.619V23.865a1.619,1.619,0,0,1,1.619-1.619h16.464a1.619,1.619,0,0,1,1.619,1.619v4.988A1.619,1.619,0,0,1,164.863,30.472Z" transform="translate(-133.372 -9.087)" fill="#bedaff"/>
      <g id="Group_1113239" data-name="Group 1113239" transform="translate(8.848 47.468)">
        <path id="Path_902356" data-name="Path 902356" d="M175.024,459.473l1.709-2.145a2.385,2.385,0,0,1,1.866-.9h2.028a2.385,2.385,0,0,1,1.866.9l1.709,2.145Z" transform="translate(-167.884 -451.077)" fill="#f9f5f3"/>
        <path id="Path_902357" data-name="Path 902357" d="M275.184,400.738h-.635a1.43,1.43,0,0,1-1.43-1.43v-.038a1.43,1.43,0,0,1,1.43-1.43h2.977a1.43,1.43,0,0,1,1.011.419l1.971,1.971a1.43,1.43,0,0,1-1.011,2.441h-1.05a1.43,1.43,0,0,1-.95-.361l-1.363-1.211a1.43,1.43,0,0,0-.95-.361Z" transform="translate(-257.019 -397.84)" fill="#f9f5f3"/>
        <path id="Path_902358" data-name="Path 902358" d="M96.863,400.383h5.373a1.54,1.54,0,0,0,1.145-.511l1.825-2.032H98.85Z" transform="translate(-96.863 -397.84)" fill="#f9f5f3"/>
        <path id="Path_902359" data-name="Path 902359" d="M396.361,459.473h-5.988a.358.358,0,0,1-.357-.357q0-.029,0-.058a2.668,2.668,0,0,1,4.772-1.6Z" transform="translate(-363.238 -451.077)" fill="#f9f5f3"/>
      </g>
      <path id="Path_902360" data-name="Path 902360" d="M168.509,151.115h-10.2v-1.581A2.535,2.535,0,0,0,155.776,147H139.312a2.535,2.535,0,0,0-2.532,2.532v4.988a2.535,2.535,0,0,0,2.532,2.532h16.464a2.535,2.535,0,0,0,2.532-2.532v-1.581h10.2a.719.719,0,0,1,.719.719v17.909a.719.719,0,0,1-.719.719h-1.194a.913.913,0,0,0,0,1.827h1.194a2.548,2.548,0,0,0,2.546-2.546V153.661a2.548,2.548,0,0,0-2.546-2.546Zm-12.027,3.408a.706.706,0,0,1-.705.705H139.312a.706.706,0,0,1-.705-.705v-4.988a.706.706,0,0,1,.705-.705h16.464a.706.706,0,0,1,.705.705Z" transform="translate(-124.286 -122.447)"/>
      <path id="Path_902361" data-name="Path 902361" d="M4.82,41.694a.913.913,0,0,0-.913-.913H2.546a.72.72,0,0,1-.719-.719V19.1a.719.719,0,0,1,.719-.719h9.949v1.383A2.535,2.535,0,0,0,15.026,22.3H31.49a2.535,2.535,0,0,0,2.532-2.532V14.778a2.535,2.535,0,0,0-2.532-2.532H15.026a2.535,2.535,0,0,0-2.532,2.532v1.778H2.546A2.548,2.548,0,0,0,0,19.1v20.96a2.548,2.548,0,0,0,2.546,2.546H3.906a.913.913,0,0,0,.913-.913Zm9.5-26.915a.706.706,0,0,1,.705-.705H31.49a.706.706,0,0,1,.705.705v4.988a.706.706,0,0,1-.705.705H15.026a.706.706,0,0,1-.705-.705Z"/>
      <path id="Path_902362" data-name="Path 902362" d="M198.272,191.037H187.707a.913.913,0,1,0,0,1.827h10.565a.913.913,0,1,0,0-1.827Z" transform="translate(-169.731 -162.459)"/>
      <path id="Path_902363" data-name="Path 902363" d="M233.717,58.107h6.362a.913.913,0,0,0,0-1.827h-6.362a.913.913,0,1,0,0,1.827Z" transform="translate(-211.539 -40.012)"/>
      <path id="Path_902364" data-name="Path 902364" d="M76.182,313.069l-5.406-6.92h4.686a.922.922,0,0,0,.72-1.476l-6.559-8.4a.913.913,0,0,0-.72-.351H59.382a.914.914,0,0,0,0,1.828h9.075l2.3,2.944H65.45a.913.913,0,0,0,0,1.827h6.734l1.4,1.8H39.639l2.641-3.38h6.309a.913.913,0,0,0,0-1.827H43.707l1.064-1.362h6.573a.914.914,0,0,0,0-1.828H44.326a.913.913,0,0,0-.72.351l-6.559,8.4a.922.922,0,0,0,.72,1.476h4.686l-5.406,6.92a.922.922,0,0,0,.72,1.476h37.7A.922.922,0,0,0,76.182,313.069Zm-3.013-.888.42.537H70.1a1.765,1.765,0,0,1,3.064-.537ZM62.846,306.15a.52.52,0,0,1,.365.151l1.971,1.971a.517.517,0,0,1-.365.882h-1.05a.516.516,0,0,1-.343-.13l-1.364-1.212a2.341,2.341,0,0,0-1.557-.592h-.635a.517.517,0,0,1-.517-.517v-.038a.517.517,0,0,1,.517-.517h2.977Zm-14.212,0-.457.508a.627.627,0,0,1-.466.208h-3.5l.559-.716h3.863Zm-5.85,2.543h4.927a2.456,2.456,0,0,0,1.825-.814l1.553-1.729h6.494a2.339,2.339,0,0,0-.058.517v.038a2.346,2.346,0,0,0,2.344,2.344H60.5a.516.516,0,0,1,.343.13l1.364,1.211a2.341,2.341,0,0,0,1.557.592h1.05a2.344,2.344,0,0,0,1.657-4l-.831-.831h2.813l2.788,3.568a3.734,3.734,0,0,0-.619.152,3.517,3.517,0,0,0-2.384,2.849H59.1l-1.435-1.8a3.282,3.282,0,0,0-2.58-1.243H53.053a3.282,3.282,0,0,0-2.58,1.243l-1.435,1.8h-9.4Zm8.59,4.026.528-.663a1.465,1.465,0,0,1,1.151-.555h2.028a1.464,1.464,0,0,1,1.151.555l.528.663Z" transform="translate(-33.491 -257.768)"/>
      <path id="Path_902365" data-name="Path 902365" d="M206.467,349.073a.913.913,0,0,0,.913.913h2.163a.913.913,0,1,0,0-1.827H207.38A.913.913,0,0,0,206.467,349.073Z" transform="translate(-187.607 -305.23)"/>
      <path id="Path_902366" data-name="Path 902366" d="M288.24,330.079H289.9a.913.913,0,0,0,0-1.827H288.24a.913.913,0,0,0,0,1.827Z" transform="translate(-261.081 -287.141)"/>
      <path id="Path_902367" data-name="Path 902367" d="M229.8,297.379a.913.913,0,1,0,.253-1.267.923.923,0,0,0-.253,1.267Z" transform="translate(-208.675 -257.799)"/>
      <path id="Path_902368" data-name="Path 902368" d="M186.882,57.494a.913.913,0,1,0,.494-1.192A.921.921,0,0,0,186.882,57.494Z" transform="translate(-169.749 -39.97)"/>
    </g>
  </g>
</svg>
