<svg xmlns="http://www.w3.org/2000/svg" xmlns:xlink="http://www.w3.org/1999/xlink" width="98" height="98" viewBox="0 0 98 98">
  <defs>
    <filter id="Path_896985" x="0" y="0" width="98" height="98" filterUnits="userSpaceOnUse">
      <feOffset dy="3" input="SourceAlpha"/>
      <feGaussianBlur stdDeviation="3" result="blur"/>
      <feFlood flood-opacity="0.161"/>
      <feComposite operator="in" in2="blur"/>
      <feComposite in="SourceGraphic"/>
    </filter>
  </defs>
  <g id="Group_1113224" data-name="Group 1113224" transform="translate(-607.384 -1651)">
    <g id="Group_1111526" data-name="Group 1111526" transform="translate(616.384 1657)" style="isolation: isolate">
      <g id="Group_1098742" data-name="Group 1098742">
        <g transform="matrix(1, 0, 0, 1, -9, -6)" filter="url(#Path_896985)">
          <g id="Path_896985-2" data-name="Path 896985" transform="translate(9 6)" fill="#8dc0ff">
            <path d="M 40.00000381469727 78.50012969970703 C 34.80187225341797 78.50012969970703 29.76003646850586 77.48240661621094 25.0145263671875 75.47523498535156 C 20.43014907836914 73.53620147705078 16.31264877319336 70.75999450683594 12.77639293670654 67.22373962402344 C 9.240137100219727 63.68747711181641 6.463937282562256 59.56997680664062 4.524903774261475 54.98559951782227 C 2.517725944519043 50.24008560180664 1.500003814697266 45.1982421875 1.500003814697266 40.0001106262207 C 1.500003814697266 34.80195236206055 2.517725944519043 29.76008796691895 4.524914741516113 25.01456451416016 C 6.463937282562256 20.43017578125 9.240137100219727 16.31266403198242 12.77639293670654 12.77639865875244 C 16.31264877319336 9.240142822265625 20.43014907836914 6.463931560516357 25.0145263671875 4.524909496307373 C 29.76003646850586 2.517720460891724 34.80187225341797 1.499998211860657 40.00000381469727 1.499998211860657 C 45.19813537597656 1.499998211860657 50.23998260498047 2.517720460891724 54.98548126220703 4.524898052215576 C 59.56985855102539 6.463931560516357 63.68735885620117 9.240131378173828 67.22361755371094 12.77638721466064 C 70.75987243652344 16.31264305114746 73.53607177734375 20.43015289306641 75.47510528564453 25.0145206451416 C 77.48228454589844 29.76003074645996 78.5 34.80187606811523 78.5 40.00000762939453 C 78.5 45.19816589355469 77.48228454589844 50.24003219604492 75.47510528564453 54.98555374145508 C 73.53607177734375 59.56994247436523 70.75987243652344 63.68746566772461 67.22361755371094 67.22373199462891 C 63.68735885620117 70.75998687744141 59.56985855102539 73.53620147705078 54.98548126220703 75.4752197265625 C 50.23998260498047 77.48240661621094 45.19813537597656 78.50012969970703 40.00000381469727 78.50012969970703 Z" stroke="none"/>
            <path d="M 40.00000381469727 3 C 35.00371170043945 3 30.15847015380859 3.977851867675781 25.59885787963867 5.906410217285156 C 21.19327163696289 7.769813537597656 17.23603057861328 10.43806457519531 13.83704376220703 13.83705139160156 C 10.43807220458984 17.23603820800781 7.769813537597656 21.19327926635742 5.906417846679688 25.59885025024414 C 3.977859497070312 30.15846633911133 3.000007629394531 35.00370407104492 3.000007629394531 40.00011825561523 C 3.000007629394531 44.99641036987305 3.977859497070312 49.84166717529297 5.906417846679688 54.40127563476562 C 7.769813537597656 58.80685424804688 10.43807220458984 62.76409149169922 13.83704376220703 66.16307830810547 C 17.23603057861328 69.56206512451172 21.19327163696289 72.23031616210938 25.59885787963867 74.09371948242188 C 30.1584587097168 76.02227783203125 35.00371170043945 77.00012969970703 40.00000381469727 77.00012969970703 C 44.99629592895508 77.00012969970703 49.841552734375 76.02227783203125 54.40114974975586 74.09371948242188 C 58.80673980712891 72.23031616210938 62.76397705078125 69.56206512451172 66.1629638671875 66.16307830810547 C 69.56193542480469 62.76409149169922 72.23019409179688 58.80685424804688 74.09358978271484 54.40127563476562 C 76.02214813232422 49.84166717529297 77 44.99641036987305 77 40 C 77 35.00370407104492 76.02214813232422 30.15846633911133 74.09358978271484 25.59885025024414 C 72.23019409179688 21.19327926635742 69.56193542480469 17.23603820800781 66.1629638671875 13.83705139160156 C 62.76397705078125 10.43806457519531 58.80673980712891 7.769813537597656 54.40114974975586 5.906410217285156 C 49.84153747558594 3.977851867675781 44.99629592895508 3 40.00000381469727 3 M 40.00000381469727 0 C 62.09140396118164 0 80 17.90861129760742 80 40 L 80 40.00011825561523 C 80 62.09151840209961 62.09140396118164 80.00012969970703 40.00000381469727 80.00012969970703 C 17.90860366821289 80.00012969970703 7.62939453125e-06 62.09151840209961 7.62939453125e-06 40.00011825561523 L 7.62939453125e-06 40 C 7.62939453125e-06 17.90861129760742 17.90860366821289 0 40.00000381469727 0 Z" stroke="none" fill="#fff"/>
          </g>
        </g>
        <g id="Rectangle_400907" data-name="Rectangle 400907" transform="translate(0 0)" fill="none" stroke="#fff" stroke-width="3">
          <rect width="80" height="80" rx="40" stroke="none"/>
          <rect x="1.5" y="1.5" width="77" height="77" rx="38.5" fill="none"/>
        </g>
      </g>
    </g>
    <g id="Page-1" transform="translate(630.384 1676)">
      <g id="_043---Bucket" data-name="043---Bucket" transform="translate(0)">
        <path id="Shape" d="M46.715,3.59a2.6,2.6,0,0,1-2.59,2.59H9.591a2.584,2.584,0,0,1-1.83-.76,1.036,1.036,0,0,1-.095-.1A2.59,2.59,0,0,1,9.591,1H44.125A2.6,2.6,0,0,1,46.715,3.59Z" transform="translate(-0.958 -0.137)" fill="#cfd8dc"/>
        <path id="Shape-2" data-name="Shape" d="M51.515,1.863A2.538,2.538,0,0,0,49.59,1H47a2.59,2.59,0,0,1,1.925,4.317A2.538,2.538,0,0,1,47,6.18h2.59a2.59,2.59,0,0,0,1.925-4.317Z" transform="translate(-6.422 -0.137)" fill="#9e9e9e"/>
        <path id="Shape-3" data-name="Shape" d="M42.02,27.14,40.1,42.87a2.59,2.59,0,0,1-2.573,2.279H17.949a2.59,2.59,0,0,1-2.573-2.279L13.46,27.14a18.643,18.643,0,0,0,5.3,1.433,2.59,2.59,0,0,0,2.072,1.036H34.647a2.584,2.584,0,0,0,1.83-.76c.086-.086.164-.181.242-.276a18.44,18.44,0,0,0,5.3-1.433Z" transform="translate(-1.839 -3.708)" fill="#9e9e9e"/>
        <path id="Shape-4" data-name="Shape" d="M42.716,28.078l-1.8,14.793A2.59,2.59,0,0,1,38.34,45.15h2.59A2.59,2.59,0,0,0,43.5,42.87L45.42,27.14a17.451,17.451,0,0,1-2.7.938Z" transform="translate(-5.239 -3.708)" fill="#707070"/>
        <path id="Shape-5" data-name="Shape" d="M37.994,26.59a2.6,2.6,0,0,1-.518,1.554c-.078.095-.155.19-.242.276a2.584,2.584,0,0,1-1.83.76H21.59a2.59,2.59,0,0,1-1.83-4.42l.069-.069A2.6,2.6,0,0,1,21.59,24H35.4a2.6,2.6,0,0,1,2.59,2.59Z" transform="translate(-2.597 -3.279)" fill="#ff9801"/>
        <path id="Shape-6" data-name="Shape" d="M39.351,24.7A2.562,2.562,0,0,0,37.59,24H35a2.59,2.59,0,0,1,2.072,4.144c-.078.095-.155.19-.242.276a2.584,2.584,0,0,1-1.83.76h2.59a2.584,2.584,0,0,0,1.83-.76c.086-.086.164-.181.242-.276a2.6,2.6,0,0,0,.518-1.554A2.554,2.554,0,0,0,39.351,24.7Z" transform="translate(-4.783 -3.279)" fill="#f57c00"/>
        <path id="Shape-7" data-name="Shape" d="M17.3,21.754a2.59,2.59,0,0,0-.242,3.384,18.643,18.643,0,0,1-5.3-1.433A15.7,15.7,0,0,1,6.7,20.156C.637,13.828.991,4.063,1.009,3.649A1.727,1.727,0,0,1,2.735,2h4.11a2.575,2.575,0,0,0,0,3.453H4.505c.173,2.78,1,8.47,4.7,12.329a12.386,12.386,0,0,0,2.038,1.7,14,14,0,0,0,6.13,2.2Z" transform="translate(-0.137 -0.273)" fill="#545c60"/>
        <path id="Shape-8" data-name="Shape" d="M43.808,7,42.2,20.175a14,14,0,0,1-6.13,2.2,2.562,2.562,0,0,0-1.761-.7H20.5a2.6,2.6,0,0,0-1.761.691,14,14,0,0,1-6.13-2.2L11,7Z" transform="translate(-1.503 -0.956)" fill="#9e9e9e"/>
        <path id="Shape-9" data-name="Shape" d="M45.094,7,43.488,20.175a13.2,13.2,0,0,1-4.117,1.8,2.555,2.555,0,0,1,.578.4,14,14,0,0,0,6.13-2.2L47.684,7Z" transform="translate(-5.38 -0.956)" fill="#707070"/>
        <path id="Shape-10" data-name="Shape" d="M50.72,20.156A15.825,15.825,0,0,1,45.652,23.7a18.441,18.441,0,0,1-5.3,1.433,2.6,2.6,0,0,0,.518-1.554,2.554,2.554,0,0,0-.829-1.891,14,14,0,0,0,6.13-2.2,11.534,11.534,0,0,0,2.055-1.727c3.7-3.868,4.524-9.54,4.7-12.312H50.564a2.575,2.575,0,0,0,0-3.453h4.118a1.727,1.727,0,0,1,1.727,1.649c.017.414.371,10.179-5.69,16.507Z" transform="translate(-5.471 -0.273)" fill="#545c60"/>
        <g id="Group_1113223" data-name="Group 1113223" transform="translate(12.95 8.634)">
          <path id="Shape-11" data-name="Shape" d="M22.345,44.347H19.361a.863.863,0,0,1-.857-.759l-.293-2.4a.864.864,0,1,1,1.716-.207l.2,1.64h2.219a.863.863,0,1,1,0,1.727Z" transform="translate(-15.438 -14.129)" fill="#f5f5f5"/>
          <path id="Shape-12" data-name="Shape" d="M17.59,11.727H15.863a.863.863,0,1,1,0-1.727H17.59a.863.863,0,1,1,0,1.727Z" transform="translate(-15 -10)" fill="#f5f5f5"/>
          <path id="Shape-13" data-name="Shape" d="M32.224,11.727H21.863a.863.863,0,1,1,0-1.727h10.36a.863.863,0,0,1,0,1.727Z" transform="translate(-15.82 -10)" fill="#f5f5f5"/>
        </g>
        <path id="Shape-14" data-name="Shape" d="M49.212.863H45.428A3.424,3.424,0,0,0,43.168,0H8.634a3.424,3.424,0,0,0-2.26.863H2.6A2.59,2.59,0,0,0,.009,3.34c-.018.432-.356,10.578,5.928,17.139a16.563,16.563,0,0,0,4.882,3.515l1.861,15.27A3.453,3.453,0,0,0,16.11,42.3H35.691a3.453,3.453,0,0,0,3.429-3.038l1.861-15.272a16.732,16.732,0,0,0,4.89-3.514c6.295-6.573,5.947-16.713,5.93-17.145A2.59,2.59,0,0,0,49.212.863ZM17.267,23.311a1.727,1.727,0,0,1,1.727-1.727H32.808a1.719,1.719,0,0,1,1.19.481l.011.009a1.727,1.727,0,0,1-1.2,2.963H18.994A1.727,1.727,0,0,1,17.267,23.311ZM34.8,20.5a3.423,3.423,0,0,0-1.994-.644H18.994a3.428,3.428,0,0,0-1.986.637,13.182,13.182,0,0,1-5.1-1.813L10.472,6.907H41.33L39.893,18.691A13.168,13.168,0,0,1,34.8,20.5ZM6.373,6.044a3.424,3.424,0,0,0,2.26.863h.1L9.987,17.189c-.1-.095-.2-.173-.3-.276C6.5,13.585,5.576,8.709,5.305,6.044Zm36.693.863h.1a3.424,3.424,0,0,0,2.26-.863h1.086c-.291,2.964-1.263,7.592-4.388,10.854-.1.105-.209.193-.311.294Zm.1-5.18a1.727,1.727,0,0,1,0,3.453H8.634a1.727,1.727,0,0,1,0-3.453ZM1.735,3.416A.863.863,0,0,1,2.6,2.59H5.3a3.1,3.1,0,0,0,0,1.727H4.369a.863.863,0,0,0-.863.917c.191,3.082,1.086,8.852,4.94,12.879a13.3,13.3,0,0,0,2.12,1.773l.014.011c.014.009.026.02.039.028a14.383,14.383,0,0,0,5.174,2.1,3.437,3.437,0,0,0-.251,1.284,3.376,3.376,0,0,0,.047.461,17.075,17.075,0,0,1-3.617-1.13,14.885,14.885,0,0,1-4.785-3.355C1.4,13.249,1.718,3.81,1.735,3.416ZM37.407,39.06a1.727,1.727,0,0,1-1.715,1.518H16.11a1.727,1.727,0,0,1-1.715-1.52L12.653,24.763a20.266,20.266,0,0,0,3.832.906,3.434,3.434,0,0,0,2.51,1.1H32.808a3.437,3.437,0,0,0,2.508-1.094,19.85,19.85,0,0,0,3.832-.9Zm7.219-19.771a15.053,15.053,0,0,1-4.8,3.358,17.034,17.034,0,0,1-3.614,1.132,3.017,3.017,0,0,0-.2-1.74,14.354,14.354,0,0,0,5.162-2.1,12.438,12.438,0,0,0,2.205-1.853c3.849-4.018,4.743-9.78,4.935-12.856a.863.863,0,0,0-.863-.918H46.5a3.1,3.1,0,0,0,0-1.727h2.713a.863.863,0,0,1,.863.822c.017.4.345,9.828-5.449,15.874Z" transform="translate(0)"/>
      </g>
    </g>
  </g>
</svg>
