<svg xmlns="http://www.w3.org/2000/svg" xmlns:xlink="http://www.w3.org/1999/xlink" width="108" height="108" viewBox="0 0 108 108">
  <defs>
    <filter id="Path_896985" x="0" y="0" width="108" height="108" filterUnits="userSpaceOnUse">
      <feOffset dy="3" input="SourceAlpha"/>
      <feGaussianBlur stdDeviation="3" result="blur"/>
      <feFlood flood-opacity="0.161"/>
      <feComposite operator="in" in2="blur"/>
      <feComposite in="SourceGraphic"/>
    </filter>
  </defs>
  <g id="Group_1113247" data-name="Group 1113247" transform="translate(-326.384 -3844)">
    <g id="Group_1109826" data-name="Group 1109826" transform="translate(-421.397 17)">
      <g id="Group_1098742" data-name="Group 1098742" transform="translate(-446.539 3444.258)">
        <g transform="matrix(1, 0, 0, 1, 1194.32, 382.74)" filter="url(#Path_896985)">
          <g id="Path_896985-2" data-name="Path 896985" transform="translate(9 6)" fill="#8dc0ff" opacity="0.859">
            <path d="M 44.99993896484375 88.5 C 39.12682723999023 88.5 33.4301872253418 87.35007476806641 28.06826400756836 85.08217620849609 C 22.88850212097168 82.89132690429688 18.23627662658691 79.75461578369141 14.2408390045166 75.75916290283203 C 10.24540138244629 71.76372528076172 7.108676433563232 67.11151123046875 4.917826652526855 61.9317512512207 C 2.649926424026489 56.56982421875 1.500001430511475 50.87317657470703 1.500001430511475 45.00006103515625 C 1.500001430511475 39.12682342529297 2.649926424026489 33.4301872253418 4.917826652526855 28.06826210021973 C 7.108676433563232 22.88850021362305 10.24540138244629 18.23628807067871 14.2408390045166 14.24083709716797 C 18.23628807067871 10.24540042877197 22.88850212097168 7.108675003051758 28.06826400756836 4.917825222015381 C 33.4301872253418 2.649924993515015 39.12682723999023 1.5 44.99993896484375 1.5 C 50.87305068969727 1.5 56.5697021484375 2.649924993515015 61.93162536621094 4.917825222015381 C 67.11138916015625 7.108675003051758 71.76360321044922 10.24540042877197 75.75904083251953 14.24083709716797 C 79.75448608398438 18.23627471923828 82.89120483398438 22.88850021362305 85.08205413818359 28.06826210021973 C 87.34995269775391 33.4301872253418 88.4998779296875 39.12682342529297 88.4998779296875 44.99993896484375 C 88.4998779296875 50.87317657470703 87.34995269775391 56.56982421875 85.08205413818359 61.9317512512207 C 82.89120483398438 67.11151123046875 79.75448608398438 71.76372528076172 75.75904083251953 75.75916290283203 C 71.76360321044922 79.75461578369141 67.11138916015625 82.89132690429688 61.93162536621094 85.08217620849609 C 56.5697021484375 87.35007476806641 50.87305068969727 88.5 44.99993896484375 88.5 Z" stroke="none"/>
            <path d="M 44.99993896484375 3 C 39.32865142822266 3 33.82860946655273 4.110054016113281 28.65258026123047 6.299331665039062 C 23.65162658691406 8.414558410644531 19.15966796875 11.44332885742188 15.30149841308594 15.30149841308594 C 11.44332122802734 19.15966796875 8.41455078125 23.65162658691406 6.299324035644531 28.65258407592773 C 4.110054016113281 33.82861328125 2.999992370605469 39.32865524291992 2.999992370605469 45.00005722045898 C 2.999992370605469 50.67134475708008 4.110054016113281 56.17138671875 6.299324035644531 61.347412109375 C 8.41455078125 66.34837341308594 11.44332122802734 70.84033203125 15.30149841308594 74.69850158691406 C 19.15966796875 78.55667114257812 23.65162658691406 81.58544158935547 28.65258026123047 83.70066833496094 C 33.82860946655273 85.88994598388672 39.32865142822266 87 44.99993896484375 87 C 50.67122650146484 87 56.17126846313477 85.88994598388672 61.34729766845703 83.70066833496094 C 66.34825134277344 81.58544158935547 70.8402099609375 78.55667114257812 74.69837951660156 74.69850158691406 C 78.55654907226562 70.84033203125 81.5853271484375 66.34837341308594 83.70055389404297 61.347412109375 C 85.88982391357422 56.17138671875 86.9998779296875 50.67134475708008 86.9998779296875 44.99994277954102 C 86.9998779296875 39.32865524291992 85.88982391357422 33.82861328125 83.70055389404297 28.65258407592773 C 81.5853271484375 23.65162658691406 78.55654907226562 19.15966796875 74.69837951660156 15.30149841308594 C 70.8402099609375 11.44332885742188 66.34825134277344 8.414558410644531 61.34729766845703 6.299331665039062 C 56.17126846313477 4.110054016113281 50.67122650146484 3 44.99993896484375 3 M 44.99993896484375 0 C 69.85272216796875 0 89.99988555908203 20.14715576171875 89.99988555908203 44.99994277954102 L 89.99988555908203 45.00005722045898 C 89.99988555908203 69.85284423828125 69.85272216796875 90 44.99993896484375 90 C 20.14715576171875 90 -7.62939453125e-06 69.85284423828125 -7.62939453125e-06 45.00005722045898 L -7.62939453125e-06 44.99994277954102 C -7.62939453125e-06 20.14715576171875 20.14715576171875 0 44.99993896484375 0 Z" stroke="none" fill="#fff"/>
          </g>
        </g>
        <g id="Rectangle_400907" data-name="Rectangle 400907" transform="translate(1203.32 388.742)" fill="none" stroke="#fff" stroke-width="3">
          <rect width="90" height="90" rx="45" stroke="none"/>
          <rect x="1.5" y="1.5" width="87" height="87" rx="43.5" fill="none"/>
        </g>
      </g>
    </g>
    <g id="Group_1113246" data-name="Group 1113246" transform="translate(345.383 3859.633)">
      <g id="Group_1113245" data-name="Group 1113245" transform="translate(4.885 9.511)">
        <path id="Path_903764" data-name="Path 903764" d="M23.9,67.158H37.145v46.319a6.621,6.621,0,0,1-13.243,0Z" transform="translate(-22.361 -64.652)" fill="#cee7ff" fill-rule="evenodd"/>
        <path id="Path_903765" data-name="Path 903765" d="M37.144,302.482v17.651a6.621,6.621,0,0,1-13.243,0V302.482H37.144Z" transform="translate(-22.36 -271.308)" fill="#fcdb35" fill-rule="evenodd"/>
        <path id="Path_903766" data-name="Path 903766" d="M63.765,67.158v46.319a6.648,6.648,0,0,1-4.775,6.357,6.647,6.647,0,0,1-4.775-6.357V67.158h9.55Z" transform="translate(-48.981 -64.652)" fill="#e3f1ff" fill-rule="evenodd"/>
        <path id="Path_903767" data-name="Path 903767" d="M63.765,302.482v17.651a6.647,6.647,0,0,1-4.775,6.357,6.647,6.647,0,0,1-4.775-6.357V302.482Z" transform="translate(-48.981 -271.308)" fill="#ffeb87" fill-rule="evenodd"/>
        <path id="Path_903768" data-name="Path 903768" d="M13.626,46.59H25.2a2.373,2.373,0,0,1,0,4.746H13.626a2.373,2.373,0,1,1,0-4.746Z" transform="translate(-11.253 -46.59)" fill="#a0cdfa" fill-rule="evenodd"/>
        <path id="Path_903769" data-name="Path 903769" d="M48.416,46.59a2.373,2.373,0,0,1,0,4.745H40.05a2.373,2.373,0,0,1,0-4.745Z" transform="translate(-34.461 -46.59)" fill="#b6dbff" fill-rule="evenodd"/>
        <path id="Path_903770" data-name="Path 903770" d="M93.183,221.133a13.76,13.76,0,0,1,2.16,7.409v23.14a3.6,3.6,0,0,0,3.6,3.6h13.218a3.6,3.6,0,0,0,3.6-3.6v-23.14a13.759,13.759,0,0,1,2.16-7.409Z" transform="translate(-83.202 -199.869)" fill="#cad0d7" fill-rule="evenodd"/>
        <path id="Path_903771" data-name="Path 903771" d="M127.5,255.279h9.738a3.6,3.6,0,0,0,3.6-3.6v-23.14a13.759,13.759,0,0,1,2.16-7.409H121.748a13.759,13.759,0,0,1,2.16,7.409v23.14a3.6,3.6,0,0,0,3.6,3.6Z" transform="translate(-108.287 -199.87)" fill="#e4e8eb" fill-rule="evenodd"/>
      </g>
      <ellipse id="Ellipse_11854" data-name="Ellipse 11854" cx="12.365" cy="1.909" rx="12.365" ry="1.909" transform="translate(14.866 28.866)" fill="#b7bfc9"/>
      <path id="Path_903772" data-name="Path 903772" d="M128.341,217.019a63.563,63.563,0,0,0,8.082.464c6.161,0,11.27-.7,12.21-1.606C145.221,214.371,128.341,214.192,128.341,217.019Z" transform="translate(-109.192 -184.799)" fill="#cad0d7" fill-rule="evenodd"/>
      <path id="Path_903773" data-name="Path 903773" d="M110.743,342.041V357.89a3.611,3.611,0,0,0,3.6,3.6h13.245a3.611,3.611,0,0,0,3.6-3.6V342.041Z" transform="translate(-93.738 -296.536)" fill="#4eb1fc" fill-rule="evenodd"/>
      <path id="Path_903774" data-name="Path 903774" d="M143.082,361.494h9.744a3.611,3.611,0,0,0,3.6-3.6V342.041H139.478V357.89A3.611,3.611,0,0,0,143.082,361.494Z" transform="translate(-118.972 -296.536)" fill="#85caff" fill-rule="evenodd"/>
      <path id="Path_903775" data-name="Path 903775" d="M222.285,44.325a13.2,13.2,0,0,1,11.348,19.93,2.238,2.238,0,0,0,.344,2.755l2.356,2.356-2.2,2.2-2.356-2.356a2.238,2.238,0,0,0-2.755-.344,13.2,13.2,0,1,1-6.735-24.542Z" transform="translate(-180.105 -35.09)" fill="#fdb0a0" fill-rule="evenodd"/>
      <path id="Path_903776" data-name="Path 903776" d="M222.286,44.325A12.74,12.74,0,0,1,233.05,63.671a2.238,2.238,0,0,0,.345,2.755l.583.583h0l2.356,2.356-2.2,2.2-2.356-2.356-.584-.584a2.238,2.238,0,0,0-2.755-.344,12.86,12.86,0,1,1-6.151-23.958Z" transform="translate(-180.106 -35.09)" fill="#ffcec0" fill-rule="evenodd"/>
      <path id="Path_903777" data-name="Path 903777" d="M407.3,238.542l-7.684-7.684a1.364,1.364,0,0,0-1.926,0l-2.066,2.066a1.364,1.364,0,0,0,0,1.926l7.684,7.684a2.823,2.823,0,1,0,3.992-3.992Z" transform="translate(-343.564 -198.549)" fill="#a34f41" fill-rule="evenodd"/>
      <path id="Path_903778" data-name="Path 903778" d="M396.376,241.638l-.753.753a1.364,1.364,0,0,0,0,1.926L403.307,252a2.005,2.005,0,1,0,2.678-2.678l-7.684-7.684a1.364,1.364,0,0,0-1.926,0Z" transform="translate(-343.563 -208.016)" fill="#c86f5c" fill-rule="evenodd"/>
      <circle id="Ellipse_11855" data-name="Ellipse 11855" cx="10.069" cy="10.069" r="10.069" transform="translate(31.679 11.928)" fill="#fdb0a0"/>
      <circle id="Ellipse_11856" data-name="Ellipse 11856" cx="10.069" cy="10.069" r="10.069" transform="translate(32.103 12.352)" fill="#eceff1"/>
      <path id="Path_903779" data-name="Path 903779" d="M241.347,90.518a10.069,10.069,0,1,0-3.055-7.224A10.029,10.029,0,0,0,241.347,90.518Z" transform="translate(-205.747 -60.469)" fill="#fff" fill-rule="evenodd"/>
      <path id="Path_903780" data-name="Path 903780" d="M290.235,102.987a34.65,34.65,0,0,0-3.49,6.808c-1.071,3.494,1.222,5.248,3.49,5.276,2.267-.028,4.561-1.782,3.49-5.276A34.644,34.644,0,0,0,290.235,102.987Z" transform="translate(-248.061 -86.605)" fill="#4eb1fc" fill-rule="evenodd"/>
      <path id="Path_903781" data-name="Path 903781" d="M289.549,112.284a26.94,26.94,0,0,0-2.8,5.675c-.963,3.141.793,4.875,2.8,5.214,2.012-.339,3.767-2.073,2.8-5.214A26.939,26.939,0,0,0,289.549,112.284Z" transform="translate(-248.06 -94.77)" fill="#85caff" fill-rule="evenodd"/>
      <path id="Path_903782" data-name="Path 903782" d="M23.034,24.9a19.5,19.5,0,0,1,.783-8.633,19.12,19.12,0,0,1,4.7-7.634,19.44,19.44,0,0,1,3.033-2.477l-.634-.092a.853.853,0,0,1,.247-1.688l3.084.451A.852.852,0,0,1,34.909,6L33.742,8.783a.853.853,0,0,1-1.573-.66l.193-.46a17.755,17.755,0,0,0-2.641,2.176,17.489,17.489,0,0,0-5,14.832.853.853,0,0,1-.731.96.864.864,0,0,1-.116.008.853.853,0,0,1-.844-.739ZM52.667,7.075a.853.853,0,0,1,1.195-.162,19.5,19.5,0,0,1,5.551,6.658,19.113,19.113,0,0,1,2.076,8.72,19.424,19.424,0,0,1-.393,3.9l.514-.383a.853.853,0,1,1,1.019,1.367l-2.5,1.862a.852.852,0,0,1-.509.169.868.868,0,0,1-.228-.031.855.855,0,0,1-.561-.5l-1.142-2.792a.853.853,0,1,1,1.579-.646l.189.461a17.713,17.713,0,0,0,.329-3.405A17.49,17.49,0,0,0,52.828,8.27a.853.853,0,0,1-.162-1.195ZM44.6,26.344a3.151,3.151,0,0,1-4.845,0,3.366,3.366,0,0,1-.252-3.038A26.058,26.058,0,0,1,42.173,17.9a26.055,26.055,0,0,1,2.675,5.411,3.366,3.366,0,0,1-.252,3.038Zm-1.21-9.733c-.21-.34-.375-.608-.465-.773a.853.853,0,0,0-1.495,0c-.09.164-.256.433-.465.773a29.236,29.236,0,0,0-3.092,6.2,4.911,4.911,0,0,0,.5,4.543,4.737,4.737,0,0,0,3.79,1.836h.021a4.737,4.737,0,0,0,3.79-1.836,4.913,4.913,0,0,0,.505-4.543,29.265,29.265,0,0,0-3.092-6.2ZM63.118,43.237a1.984,1.984,0,0,1-2.8,0L52.678,35.6a.517.517,0,0,1,0-.728L54.752,32.8a.516.516,0,0,1,.728,0l7.638,7.638A1.984,1.984,0,0,1,63.118,43.237ZM48.465,32.892A3.065,3.065,0,0,1,52,33.138l1.022-1.022a3.064,3.064,0,0,1-.245-3.534,12.321,12.321,0,1,0-4.31,4.31ZM36.62,37.366H34.449a.853.853,0,0,0,0,1.705H36.6v1.871h-.945a.853.853,0,0,0,0,1.706H36.6V44.52H17.856V38.033a14.672,14.672,0,0,0-1.081-5.519c.458.1.977.2,1.563.291a61.4,61.4,0,0,0,8.891.57c2.121,0,4.2-.083,6.048-.241a14.043,14.043,0,0,0,3.587,2.144,14.7,14.7,0,0,0-.245,2.087ZM33.852,63.972H20.608a2.754,2.754,0,0,1-2.751-2.751v-15H36.6V48.1h-.945a.853.853,0,0,0,0,1.706H36.6v1.871H34.449a.853.853,0,0,0,0,1.705H36.6v1.872h-.945a.853.853,0,1,0,0,1.705H36.6v1.872H34.449a.853.853,0,0,0,0,1.705H36.6v.687a2.754,2.754,0,0,1-2.751,2.751Zm-20.806,0A5.8,5.8,0,0,1,7.253,58.18V52.1H10.79a.853.853,0,1,0,0-1.706H7.253V46.753H8.628a.853.853,0,0,0,0-1.706H7.253V41.406h8.9V61.221a4.435,4.435,0,0,0,.309,1.628,5.761,5.761,0,0,1-3.415,1.123Zm-5.81-53.74H18.856a1.529,1.529,0,1,1,0,3.058H7.235a1.529,1.529,0,0,1,0-3.058Zm11.1,18.183c.163-.025.33-.049.5-.073V14.994H7.253v3.32H10.79a.853.853,0,1,1,0,1.706H7.253V23.66H8.628a.853.853,0,0,1,0,1.706H7.253v3.641H10.79a.853.853,0,1,1,0,1.705H7.253v3.641H8.628a.853.853,0,1,1,0,1.705H7.253V39.7h8.9V38.033a12.969,12.969,0,0,0-1.757-6.511,1.212,1.212,0,0,1-.408-.912c0-1.082,1.261-1.718,4.352-2.195ZM30.2,29.608a14.137,14.137,0,0,0,1.429,1.935c-1.4.083-2.888.127-4.4.127-5.843,0-9.528-.584-10.985-1.06,1.456-.476,5.142-1.06,10.985-1.06C28.239,29.55,29.236,29.571,30.2,29.608Zm34.12,9.62L56.686,31.59a2.222,2.222,0,0,0-2.318-.518,1.385,1.385,0,0,1-.128-1.618A14.033,14.033,0,1,0,29.3,27.872c-.682-.017-1.374-.028-2.071-.028-2.4,0-4.7.1-6.686.3V14.518a3.233,3.233,0,0,0-1.688-5.992H7.235a3.233,3.233,0,0,0-1.688,5.992V58.18a7.487,7.487,0,0,0,11.832,6.109,4.442,4.442,0,0,0,3.228,1.389H33.852a4.462,4.462,0,0,0,4.457-4.457V38.033a13.014,13.014,0,0,1,.189-2.2,14.05,14.05,0,0,0,10.839-1.474,1.384,1.384,0,0,1,1.618.127,2.221,2.221,0,0,0,.518,2.318l7.638,7.638a3.687,3.687,0,0,0,5.215-5.215ZM42.173,31.887a9.6,9.6,0,1,0-9.6-9.6,9.606,9.606,0,0,0,9.6,9.6Zm0-20.9a11.3,11.3,0,1,0,11.3,11.3A11.314,11.314,0,0,0,42.173,10.99Z" fill-rule="evenodd"/>
    </g>
  </g>
</svg>
